<?xml version="1.0" encoding="UTF-8" standalone="no"?>
<svg
   xmlns:dc="http://purl.org/dc/elements/1.1/"
   xmlns:cc="http://creativecommons.org/ns#"
   xmlns:rdf="http://www.w3.org/1999/02/22-rdf-syntax-ns#"
   xmlns:svg="http://www.w3.org/2000/svg"
   xmlns="http://www.w3.org/2000/svg"
   xmlns:sodipodi="http://sodipodi.sourceforge.net/DTD/sodipodi-0.dtd"
   xmlns:inkscape="http://www.inkscape.org/namespaces/inkscape"
   id="svg2"
   version="1.1"
   viewBox="0 0 158 56"
   sodipodi:docname="3do.svg"
   width="158"
   height="56"
   inkscape:version="0.92.5 (2060ec1f9f, 2020-04-08)">
  <metadata
     id="metadata10">
    <rdf:RDF>
      <cc:Work
         rdf:about="">
        <dc:format>image/svg+xml</dc:format>
        <dc:type
           rdf:resource="http://purl.org/dc/dcmitype/StillImage" />
      </cc:Work>
    </rdf:RDF>
  </metadata>
  <defs
     id="defs8" />
  <sodipodi:namedview
     pagecolor="#ffffff"
     bordercolor="#666666"
     borderopacity="1"
     objecttolerance="10"
     gridtolerance="10"
     guidetolerance="10"
     inkscape:pageopacity="0"
     inkscape:pageshadow="2"
     inkscape:window-width="532"
     inkscape:window-height="460"
     id="namedview6"
     showgrid="false"
     inkscape:zoom="1.4507576"
     inkscape:cx="79"
     inkscape:cy="28"
     inkscape:window-x="72"
     inkscape:window-y="27"
     inkscape:window-maximized="0"
     inkscape:current-layer="svg2" />
  <path
     d="m 17.153,26.237 v 0.162 c 6.886,0.136 11.971,1.592 15.254,4.368 3.283,2.776 4.925,6.133 4.925,10.066 0,4.394 -1.866,8.021 -5.605,10.874 C 27.995,54.569 23.022,56 16.824,56 11.467,56 7.327,54.858 4.396,52.584 1.465,50.311 0,47.723 0,44.809 0,42.877 0.657,41.31 1.97,40.126 c 1.313,-1.184 2.891,-1.771 4.725,-1.771 1.721,0 3.203,0.52 4.428,1.549 1.233,1.04 1.841,2.411 1.841,4.106 0,2.265 -1.425,4.163 -4.284,5.697 -0.56,0.297 -0.848,0.638 -0.848,1.013 0,0.698 0.8,1.311 2.41,1.839 1.601,0.528 3.235,0.784 4.916,0.784 5.502,0 8.257,-4.301 8.257,-12.902 0,-8.515 -3.307,-12.773 -9.914,-12.773 l -5.485,0.238 c -1.106,0 -1.667,-0.434 -1.667,-1.302 0,-0.997 0.585,-1.5 1.747,-1.5 l 3.996,0.162 c 4.075,0 6.806,-0.962 8.191,-2.896 1.394,-1.923 2.082,-4.666 2.082,-8.226 0,-3.662 -0.52,-6.361 -1.569,-8.081 -1.049,-1.73 -2.851,-2.589 -5.398,-2.589 -1.384,0 -2.69,0.248 -3.907,0.749 -1.217,0.496 -1.833,0.98 -1.833,1.466 0,0.45 0.4,0.919 1.201,1.405 2.098,1.422 3.155,2.962 3.155,4.624 0,1.634 -0.585,2.929 -1.762,3.9 -1.177,0.963 -2.499,1.448 -3.973,1.448 -1.697,0 -3.21,-0.554 -4.54,-1.653 C 2.41,14.306 1.737,12.944 1.737,11.301 1.737,8.507 3.219,6.089 6.182,4.054 9.144,2.009 12.94,0.988 17.585,0.988 c 5.133,0 9.457,1.158 12.981,3.465 3.531,2.308 5.292,5.263 5.292,8.883 0,7.119 -6.238,11.419 -18.705,12.901"
     style="fill:#ffffff;fill-opacity:1;fill-rule:nonzero;stroke:none"
     id="path18"
     inkscape:connector-curvature="0" />
  <path
     d="M 50.016,52.354 V 3.389 H 42.793 V 0.742 h 28.94 c 8.368,0 14.998,2.519 19.875,7.569 4.877,5.041 7.319,11.411 7.319,19.101 0,3.985 -0.745,7.74 -2.233,11.24 -1.491,3.51 -3.78,6.703 -6.872,9.573 -3.091,2.869 -6.262,4.717 -9.513,5.543 -3.251,0.826 -7.239,1.236 -11.979,1.236 H 42.793 v -2.65 z M 63.942,3.389 v 48.965 h 4.507 c 6.895,0 11.059,-1.924 12.492,-5.764 1.434,-3.85 2.147,-10.424 2.147,-19.731 0,-7.281 -0.441,-12.519 -1.321,-15.694 C 80.894,7.98 79.557,5.884 77.77,4.889 75.985,3.891 73.711,3.389 70.964,3.389 h -7.022"
     style="fill:#ffffff;fill-opacity:1;fill-rule:nonzero;stroke:none"
     id="path20"
     inkscape:connector-curvature="0" />
  <path
     d="m 107.007,27.668 c 0,-8.116 2.514,-14.757 7.559,-19.927 C 119.603,2.581 125.649,0 132.695,0 c 6.543,0 12.397,2.427 17.561,7.28 5.166,4.855 7.744,11.761 7.744,20.711 0,8.388 -2.434,15.115 -7.319,20.174 -4.884,5.058 -10.85,7.588 -17.897,7.588 -7.615,0 -13.821,-2.692 -18.601,-8.057 -4.782,-5.365 -7.176,-12.041 -7.176,-20.028 z m 35.154,0.229 c 0,-8.311 -0.161,-13.787 -0.481,-16.426 -0.328,-2.649 -1.161,-4.778 -2.506,-6.397 -1.346,-1.617 -3.564,-2.426 -6.646,-2.426 -2.603,0 -4.677,0.655 -6.223,1.959 -1.544,1.311 -2.505,3.406 -2.891,6.293 -0.376,2.887 -0.568,8.523 -0.568,16.912 0,8.303 0.159,13.804 0.489,16.487 0.32,2.682 1.185,4.82 2.586,6.413 1.402,1.591 3.604,2.383 6.607,2.383 2.49,0 4.524,-0.638 6.093,-1.915 1.57,-1.287 2.555,-3.365 2.948,-6.251 0.4,-2.887 0.592,-8.567 0.592,-17.032"
     style="fill:#ffffff;fill-opacity:1;fill-rule:nonzero;stroke:none"
     id="path22"
     inkscape:connector-curvature="0" />
</svg>
