<?xml version="1.0" encoding="UTF-8" standalone="no"?>
<svg
   xmlns:dc="http://purl.org/dc/elements/1.1/"
   xmlns:cc="http://creativecommons.org/ns#"
   xmlns:rdf="http://www.w3.org/1999/02/22-rdf-syntax-ns#"
   xmlns:svg="http://www.w3.org/2000/svg"
   xmlns="http://www.w3.org/2000/svg"
   xmlns:sodipodi="http://sodipodi.sourceforge.net/DTD/sodipodi-0.dtd"
   xmlns:inkscape="http://www.inkscape.org/namespaces/inkscape"
   version="1.1"
   id="svg15"
   sodipodi:docname="amiga.svg"
   width="264"
   height="60.999969"
   inkscape:version="0.92.5 (2060ec1f9f, 2020-04-08)">
  <metadata
     id="metadata21">
    <rdf:RDF>
      <cc:Work
         rdf:about="">
        <dc:format>image/svg+xml</dc:format>
        <dc:type
           rdf:resource="http://purl.org/dc/dcmitype/StillImage" />
      </cc:Work>
    </rdf:RDF>
  </metadata>
  <defs
     id="defs19" />
  <sodipodi:namedview
     pagecolor="#ffffff"
     bordercolor="#666666"
     borderopacity="1"
     objecttolerance="10"
     gridtolerance="10"
     guidetolerance="10"
     inkscape:pageopacity="0"
     inkscape:pageshadow="2"
     inkscape:window-width="532"
     inkscape:window-height="460"
     id="namedview17"
     showgrid="false"
     inkscape:zoom="2.36"
     inkscape:cx="50.847458"
     inkscape:cy="8.8813228"
     inkscape:window-x="72"
     inkscape:window-y="27"
     inkscape:window-maximized="0"
     inkscape:current-layer="svg15" />
  <g
     transform="scale(0.44,0.437602)"
     id="g13">
    <path
       id="SVGID_1_"
       d="m 274.679,67.235 3.837,5.762 c -0.297,-0.448 -0.789,-0.735 -1.281,-0.735 -0.521,0 -1.039,0.321 -1.328,1.117 l -3.837,-5.762 c 0.29,-0.795 0.808,-1.118 1.328,-1.118 0.49,0 0.979,0.289 1.283,0.736 z"
       style="fill:#ffffff"
       inkscape:connector-curvature="0" />
    <path
       id="SVGID_3_"
       d="m 338.612,65.306 3.838,5.762 c -0.187,-0.28 -0.46,-0.425 -0.748,-0.425 -0.383,0 -0.787,0.257 -1.047,0.785 l -3.835,-5.762 c 0.26,-0.525 0.666,-0.783 1.049,-0.783 0.293,-10e-4 0.566,0.144 0.75,0.423 z"
       style="fill:#ffffff"
       inkscape:connector-curvature="0" />
    <path
       id="path33"
       d="m 341.916,44.745 32.409,0.205 c 0.618,0 5.066,0.721 -0.492,2.173 -4.44,1.157 -8.077,0.72 -9.529,6.502 l -17.49,70.211 c -1.453,6.271 3.427,11.679 9.737,13.374 1.427,0.348 1.514,1.864 -0.172,1.956 l -21.294,-0.786 -25.874,0.874 c -1.879,0 -1.952,-1.951 0.092,-2.31 6.049,-0.616 11.394,-5.601 12.556,-9.691 l 17.009,-60.971 c 0.002,-0.921 -0.473,-1.4 -0.994,-1.4 -0.38,0 -0.787,0.257 -1.049,0.781 l -47.888,69.497 c -1.327,2.138 -3.414,3.556 -5.261,3.556 -1.995,0 -3.709,-1.654 -3.89,-5.844 l -4.82,-64.789 c -0.052,-0.898 -0.808,-1.581 -1.564,-1.581 -0.519,0 -1.038,0.323 -1.327,1.118 l -16.426,51.4 c -1.345,3.905 -1.441,7.724 0.16,10.487 1.591,2.838 5.685,6.309 10.481,7.286 1.864,0.447 1.77,2.31 -0.004,2.401 l -17.206,-0.719 -14.453,0.541 c -1.697,-0.091 -1.514,-1.773 0.005,-2.047 4.977,-1.065 10.683,-6.13 13.27,-13.337 l 21.279,-68.386 c 0.893,-2.584 -0.517,-5.694 -3.101,-6.311 l -6.583,-1.337 c -1.156,-0.089 -1.321,-1.774 0.002,-1.774 l 37.768,-0.307 3.786,59.534 2.769,-3.369 36.041,-53.464 c 0.413,-0.736 1.489,-2.42 2.033,-3.486 z"
       style="fill:#ffffff"
       inkscape:connector-curvature="0" />
    <path
       id="path43"
       d="m 390.789,44.5 43.507,0.36 c 2.046,0 3.005,3.623 -1.088,3.984 -4.372,0.384 -8.944,3.495 -10.019,7.22 l -20.383,70.456 c -0.983,3.739 1.732,9.985 8.753,10.513 1.156,0.268 1.154,2.041 0.086,2.041 l -25.692,-0.985 -24.679,0.744 c -1.339,0 -0.973,-1.771 0.168,-1.951 3.382,-0.616 13.215,-4.432 15.092,-10.474 L 399.259,56.07 c 1.423,-5.063 -3.28,-7.556 -8.614,-8.802 -1.141,-0.173 -0.902,-2.666 0.153,-2.756 z"
       style="fill:#ffffff"
       inkscape:connector-curvature="0" />
    <path
       id="path53"
       d="m 504.639,40.118 c 4.463,0 8.843,0.369 13.052,1.155 2.675,0.539 5.952,1.761 5.152,4.073 l -6.422,16.371 c -0.508,1.668 -1.353,2.677 -2.208,2.677 -1.19,0 -2.4,-1.948 -2.775,-6.789 -0.211,-2.649 0.215,-12.183 -3.42,-12.388 -0.924,-0.05 -1.843,-0.072 -2.765,-0.072 -5.83,0 -11.621,0.962 -16.776,2.604 -19.645,6.271 -32.102,16.988 -40.316,35.286 -8.03,17.605 -4.065,36.634 1.607,43.124 3.867,4.42 12.901,7.474 19.845,7.474 4.077,0 7.433,-1.055 8.594,-3.506 3.759,-9.032 5.581,-20.108 5.229,-25.171 0.015,-6.14 -2.393,-6.618 -6.97,-7.465 -3.208,-0.34 -4.235,-2.421 1.756,-2.421 0.319,0 0.657,0.006 1.019,0.02 1.924,-0.012 3.796,-0.018 5.64,-0.018 4.22,0 8.265,0.023 12.285,0.042 3.777,0.02 7.529,0.038 11.387,0.038 3.53,0 7.15,-0.018 10.951,-0.065 1.065,0.525 0.974,0.975 -0.095,1.505 -6.495,0.975 -9.081,2.221 -9.704,4.625 -2.51,8.535 -4.765,17.872 -8.831,26.625 -1.446,3.135 -8.268,6.117 -10.49,6.746 -6.909,2.46 -18.392,4.417 -29.33,4.417 -8.776,0 -17.201,-1.261 -22.628,-4.548 C 418.08,122.021 414.42,98.439 422.727,82.89 c 12.32,-23.129 49.44,-42.768 81.917,-42.768 z"
       style="fill:#ffffff"
       inkscape:connector-curvature="0" />
    <polygon
       id="polygon79"
       points="30.978,64.577 56.95,64.577 105.799,137.497 80.064,137.497 "
       style="fill:#ffffff" />
    <polygon
       id="polygon104"
       points="172.072,0.001 197.809,0.001 106.068,137.497 81.524,137.497 "
       style="fill:#ffffff" />
    <polygon
       id="polygon123"
       points="0,64.577 25.974,64.577 74.822,137.497 49.087,137.497 "
       style="fill:#ffffff" />
    <polygon
       id="polygon148"
       points="141.096,0 166.832,0 75.091,137.497 50.547,137.497 "
       style="fill:#ffffff" />
    <path
       id="path152"
       d="m 167.778,105.534 -12.66,17.951 c -3.753,5.872 3.347,12.004 11.176,13.433 0.718,0.556 0.595,2.351 -0.451,2.351 -0.114,0 -0.238,-0.022 -0.375,-0.067 -0.157,-0.069 -3.11,-1.3 -9.823,-1.927 -1.796,-0.17 -5.027,-0.72 -8.965,-0.72 -1.356,0 -2.795,0.066 -4.291,0.231 l -14.161,1.994 c -1.34,-0.089 -1.336,-1.685 0.002,-2.045 6.843,-0.885 15.043,-5.961 19.853,-12.798 l 57.603,-80.352 c 0.951,-1.38 2.985,-2.182 4.964,-2.182 2.477,0 4.864,1.26 4.91,4.226 l 1.898,80.441 c 0.616,6.747 5.136,9.599 10.831,11.192 0.796,0.538 0.448,1.606 -0.093,1.789 -0.37,-0.008 -7.395,-0.115 -15.789,-1.364 -1.965,-0.29 -3.501,-0.457 -5.378,-0.457 -1.623,0 -3.502,0.126 -6.133,0.405 -3.293,0.348 -1.737,0.398 -15.071,0.99 -0.507,0.024 -1,-0.108 -1.106,-0.966 0.118,-0.989 1.609,-1.466 2.085,-1.593 5.328,-1.476 7.956,-4.149 9.125,-10.706 1.261,-7.209 0.924,-13.338 0.754,-19.648 m -8.166,-4.868 c 2.932,0 5.692,0.016 7.748,0.061 l -0.762,-33.486 c -0.144,-0.434 -0.34,-0.657 -0.564,-0.657 -0.183,0 -0.388,0.158 -0.593,0.477 -7.13,10.126 -16.951,22.539 -23.991,32.588 -0.451,0.794 -0.002,1.065 1.065,1.065 0.171,0.016 0.748,0.02 1.629,0.02 1.515,0 3.922,-0.016 6.679,-0.028 2.761,-0.02 5.871,-0.04 8.795,-0.04"
       style="fill:#ffffff"
       inkscape:connector-curvature="0" />
    <path
       id="path156"
       d="m 599.537,137.399 c 0.796,0.524 0.432,1.592 -0.094,1.775 -0.369,-0.007 -7.394,-0.116 -15.789,-1.348 -1.993,-0.294 -3.538,-0.466 -5.438,-0.466 -1.608,0 -3.468,0.123 -6.071,0.398 -3.307,0.346 -1.738,0.397 -15.088,0.99 -0.498,0.022 -0.983,-0.107 -1.09,-0.965 0.117,-0.988 1.61,-1.454 2.072,-1.595 5.337,-1.465 7.966,-4.148 9.138,-10.704 1.259,-7.195 0.911,-13.326 0.744,-19.646 l -28.908,-0.166 -12.662,17.952 c -3.739,5.863 3.359,11.987 11.187,13.415 0.719,0.567 0.586,2.357 -0.459,2.357 -0.117,0 -0.243,-0.022 -0.383,-0.068 -0.158,-0.065 -3.108,-1.287 -9.808,-1.928 -1.794,-0.169 -5.029,-0.719 -8.966,-0.719 -1.357,0 -2.794,0.064 -4.289,0.231 l -14.172,1.994 c -1.328,-0.091 -1.326,-1.686 0.004,-2.045 6.855,-0.885 15.041,-5.949 19.864,-12.798 l 57.605,-80.335 c 0.95,-1.386 2.982,-2.189 4.96,-2.189 2.481,0 4.87,1.265 4.915,4.231 l 1.896,80.428 c 0.619,6.763 5.154,9.611 10.851,11.21 z m -39.817,-36.42 c 2.942,0 5.715,0.016 7.776,0.061 l -0.748,-33.502 c -0.149,-0.435 -0.346,-0.658 -0.567,-0.658 -0.186,0 -0.386,0.157 -0.586,0.479 -7.142,10.139 -16.953,22.55 -24.005,32.585 -0.439,0.797 -0.002,1.066 1.065,1.066 0.208,0.02 1.027,0.024 2.259,0.024 1.497,0 3.61,-0.013 5.997,-0.024 2.751,-0.015 5.86,-0.031 8.807,-0.031"
       style="fill:#ffffff"
       inkscape:connector-curvature="0" />
  </g>
</svg>
