<?xml version="1.0" encoding="UTF-8" standalone="no"?>
<svg
   xmlns:dc="http://purl.org/dc/elements/1.1/"
   xmlns:cc="http://creativecommons.org/ns#"
   xmlns:rdf="http://www.w3.org/1999/02/22-rdf-syntax-ns#"
   xmlns:svg="http://www.w3.org/2000/svg"
   xmlns="http://www.w3.org/2000/svg"
   xmlns:sodipodi="http://sodipodi.sourceforge.net/DTD/sodipodi-0.dtd"
   xmlns:inkscape="http://www.inkscape.org/namespaces/inkscape"
   version="1.1"
   id="svg20"
   sodipodi:docname="amigacd32.svg"
   width="264"
   height="30"
   inkscape:version="0.92.5 (2060ec1f9f, 2020-04-08)">
  <metadata
     id="metadata26">
    <rdf:RDF>
      <cc:Work
         rdf:about="">
        <dc:format>image/svg+xml</dc:format>
        <dc:type
           rdf:resource="http://purl.org/dc/dcmitype/StillImage" />
      </cc:Work>
    </rdf:RDF>
  </metadata>
  <defs
     id="defs24" />
  <sodipodi:namedview
     pagecolor="#ffffff"
     bordercolor="#666666"
     borderopacity="1"
     objecttolerance="10"
     gridtolerance="10"
     guidetolerance="10"
     inkscape:pageopacity="0"
     inkscape:pageshadow="2"
     inkscape:window-width="640"
     inkscape:window-height="480"
     id="namedview22"
     showgrid="false"
     inkscape:zoom="2.36"
     inkscape:cx="50"
     inkscape:cy="-20"
     inkscape:window-x="72"
     inkscape:window-y="27"
     inkscape:window-maximized="0"
     inkscape:current-layer="svg20" />
  <path
     d="m 21.354,21.428 h -9.605 l -1.875,1.921 -2.112,2.09 c -0.406,0.459 -0.7,0.873 -0.879,1.243 -0.141,0.284 -0.202,0.569 -0.189,0.853 0.015,0.297 0.223,0.572 0.627,0.826 0.404,0.253 1.059,0.398 1.964,0.437 l 0.031,0.635 H 0 L 0.199,28.798 C 1.019,28.687 1.743,28.451 2.37,28.094 3.204,27.599 4.386,26.582 5.916,25.038 L 26.981,4.076 h 1.035 l -0.002,20.287 c 0.007,1.06 0.016,1.701 0.027,1.924 0.043,0.844 0.28,1.456 0.715,1.84 0.436,0.384 1.138,0.607 2.111,0.669 L 30.67,29.432 H 17.186 l 0.222,-0.636 c 1.331,-0.099 2.094,-0.185 2.289,-0.258 0.423,-0.171 0.796,-0.533 1.123,-1.08 0.324,-0.548 0.493,-1.497 0.502,-2.852 l 0.03,-3.179 z m -0.075,-1.496 0.208,-8.092 -8.227,8.092 h 8.02"
     style="fill:#ffffff"
     id="path2"
     inkscape:connector-curvature="0" />
  <path
     d="m 50.461,4.651 3.172,17.07 13.961,-17.07 h 10.953 l -0.246,0.636 c -1.5,0 -2.629,0.256 -3.385,0.769 -0.754,0.514 -1.37,1.527 -1.846,3.043 l -4.943,15.897 c -0.318,1.014 -0.465,1.767 -0.439,2.261 0.022,0.455 0.27,0.823 0.744,1.101 0.474,0.277 1.386,0.428 2.734,0.454 l -0.175,0.635 H 55.449 l 0.243,-0.635 c 1.671,0 2.891,-0.256 3.663,-0.77 0.77,-0.513 1.395,-1.529 1.871,-3.045 L 66.231,8.896 49.457,29.45 H 48.492 L 44.629,8.494 39.498,24.997 c -0.21,0.678 -0.305,1.247 -0.283,1.705 0.031,0.617 0.32,1.112 0.866,1.489 0.549,0.377 1.459,0.584 2.733,0.622 l -0.198,0.635 H 32.321 l 0.176,-0.635 c 1.238,-0.038 2.177,-0.248 2.818,-0.63 1.129,-0.692 1.918,-1.754 2.37,-3.187 L 43.49,6.643 C 42.819,6.082 42.222,5.716 41.7,5.544 41.18,5.374 40.314,5.288 39.106,5.288 l 0.242,-0.636 h 11.118"
     style="fill:#ffffff"
     id="path4"
     inkscape:connector-curvature="0" />
  <path
     d="m 81.281,5.271 0.221,-0.636 h 15.222 l -0.267,0.636 c -1.38,0 -2.421,0.247 -3.124,0.74 -0.704,0.491 -1.292,1.52 -1.766,3.088 l -4.934,15.872 c -0.358,1.134 -0.527,1.892 -0.509,2.274 0.022,0.444 0.254,0.788 0.696,1.034 0.567,0.32 1.618,0.494 3.152,0.519 l -0.199,0.635 H 74.346 l 0.221,-0.635 c 1.549,0 2.669,-0.239 3.366,-0.712 0.695,-0.474 1.296,-1.514 1.798,-3.116 L 84.665,9.098 C 84.968,8.112 85.106,7.366 85.082,6.86 85.058,6.406 84.825,6.047 84.385,5.789 83.944,5.529 82.907,5.357 81.28,5.271"
     style="fill:#ffffff"
     id="path6"
     inkscape:connector-curvature="0" />
  <path
     d="m 142.331,21.428 h -9.603 l -1.875,1.921 -2.112,2.09 c -0.405,0.459 -0.7,0.873 -0.881,1.243 -0.138,0.284 -0.202,0.569 -0.187,0.853 0.016,0.297 0.224,0.572 0.628,0.826 0.403,0.253 1.056,0.398 1.964,0.437 l 0.031,0.635 h -9.316 l 0.198,-0.635 c 0.822,-0.111 1.545,-0.347 2.171,-0.704 0.833,-0.495 2.017,-1.512 3.548,-3.056 L 147.963,4.076 h 1.035 l -0.005,20.287 c 0.009,1.06 0.018,1.701 0.029,1.924 0.042,0.844 0.281,1.456 0.714,1.84 0.435,0.384 1.139,0.607 2.11,0.669 l -0.197,0.636 h -13.484 l 0.223,-0.636 c 1.329,-0.099 2.094,-0.185 2.29,-0.258 0.421,-0.171 0.796,-0.533 1.12,-1.08 0.327,-0.548 0.494,-1.497 0.505,-2.852 l 0.028,-3.179 z m -0.075,-1.496 0.211,-8.092 -8.227,8.092 h 8.016"
     style="fill:#ffffff"
     id="path8"
     inkscape:connector-curvature="0" />
  <path
     d="m 125.265,4.313 c 0.224,0.206 0.287,0.89 0.287,0.89 l -1.481,6.808 h -0.8 c -0.236,-2.295 -0.32,-3.946 -1.563,-4.956 -1.241,-1.01 -1.884,-1.575 -4.036,-1.575 -2.217,0 -5.019,0.679 -7.175,1.915 -2.153,1.235 -4.825,3.141 -6.259,5.714 -1.432,2.576 -2.299,5.282 -2.158,8.118 0.123,2.434 0.939,4.295 2.447,5.578 1.509,1.284 3.234,1.925 5.176,1.925 0.82,0 1.807,-0.176 2.961,-0.531 l 2.033,-6.547 c 0.344,-1.1 0.507,-1.817 0.491,-2.159 -0.024,-0.452 -0.283,-0.832 -0.78,-1.143 -0.5,-0.31 -1.338,-0.467 -2.518,-0.467 l 0.193,-0.709 h 13.383 l -0.171,0.709 c -0.794,0.04 -1.413,0.161 -1.855,0.37 -0.441,0.207 -0.783,0.513 -1.022,0.917 -0.143,0.238 -0.349,0.857 -0.621,1.85 l -2.294,7.376 C 116.261,29.465 112.82,30 109.18,30 c -2.81,0 -5.216,-0.397 -7.225,-1.187 -2.009,-0.793 -3.705,-2.047 -5.084,-3.764 -1.381,-1.719 -2.124,-3.675 -2.234,-5.868 -0.232,-4.678 2.193,-8.536 7.275,-11.569 3.983,-2.353 8.474,-3.382 13.628,-3.635 0.489,0 1.75,-0.119 3.508,-0.119 1.494,0 3.223,0.049 5.727,0.227 0,0 0.215,-0.027 0.488,0.23"
     style="fill:#ffffff"
     id="path10"
     inkscape:connector-curvature="0" />
  <path
     d="m 166.605,10.572 v 12.373 c 0,3.414 2.697,6.186 6.021,6.186 h 13.198 c 3.323,0 6.02,-2.771 6.02,-6.186 l -0.001,-3.161 h -5.973 v 1.19 c 0,1.535 -1.095,2.658 -2.588,2.658 h -8.207 c -1.492,0 -2.585,-1.123 -2.585,-2.658 v -7.879 c 0,-1.536 1.093,-2.659 2.585,-2.659 h 7.671 c 1.493,0 2.588,1.123 2.588,2.659 v 0.641 h 5.973 l 0.002,-3.163 c 0,-3.415 -2.698,-6.187 -6.021,-6.187 h -12.665 c -3.323,0 -6.02,2.771 -6.02,6.187"
     style="fill:#ffffff"
     id="path12"
     inkscape:connector-curvature="0" />
  <path
     d="M 201.391,23.655 V 9.907 h 10.57 c 1.847,0 3.343,1.539 3.343,3.44 v 6.874 c 0,1.896 -1.497,3.437 -3.343,3.437 h -10.57 z m -5.886,5.499 h 19.218 c 3.565,0 6.557,-3.077 6.557,-6.736 V 11.145 c 0,-3.66 -2.992,-6.737 -6.557,-6.737 h -19.218 v 24.746"
     style="fill:#ffffff"
     id="path14"
     inkscape:connector-curvature="0" />
  <path
     d="m 250.087,7.301 c -2.397,0 -4.839,1.272 -4.839,3.7 v 2.247 l 0.024,0.002 v 3.248 H 264 v -3.48 h -13.496 c -1.738,-0.445 0.167,-1.867 1.051,-1.971 h 8.104 c 2.397,0 4.339,-1.972 4.339,-4.399 V 4.399 C 263.998,1.971 262.056,0 259.659,0 h -9.538 c -2.397,0 -4.876,1.42 -4.876,3.851 v 2.248 h 4.716 V 5.643 c 0,-1.09 0.789,-1.891 1.866,-1.891 h 6.063 c 1.037,0 1.807,0.743 1.862,1.774 -0.055,1.029 -0.825,1.771 -1.862,1.771 l -7.806,0.002"
     style="fill:#ffffff"
     id="path16"
     inkscape:connector-curvature="0" />
  <path
     d="m 239.449,8.26 c 1.814,-0.136 3.144,-0.705 3.144,-2.712 V 3.299 C 242.593,0.871 240.648,0 238.254,0 h -8.472 c -2.394,0 -4.875,1.42 -4.875,3.851 v 2.248 h 4.718 V 5.643 c 0,-1.091 0.787,-1.891 1.864,-1.891 h 4.994 c 1.037,0 1.807,0.194 1.862,1.223 -0.055,1.031 -0.825,1.771 -1.862,1.771 l -4.059,0.003 v 3.053 h 4.595 c 1.037,0 1.806,0.742 1.861,1.773 -0.055,1.029 -0.824,1.221 -1.861,1.221 h -5.53 c -1.077,0 -1.864,-0.798 -1.864,-1.889 v -0.458 h -4.718 v 2.25 c 0,2.428 2.48,3.849 4.875,3.849 h 9.008 c 2.734,-0.049 4.339,-1.421 4.339,-3.849 v -1.698 c 0,-2.201 -1.596,-2.67 -3.677,-2.739"
     style="fill:#ffffff"
     id="path18"
     inkscape:connector-curvature="0" />
</svg>
