<?xml version="1.0" encoding="UTF-8" standalone="no"?>
<svg
   xmlns:dc="http://purl.org/dc/elements/1.1/"
   xmlns:cc="http://creativecommons.org/ns#"
   xmlns:rdf="http://www.w3.org/1999/02/22-rdf-syntax-ns#"
   xmlns:svg="http://www.w3.org/2000/svg"
   xmlns="http://www.w3.org/2000/svg"
   xmlns:sodipodi="http://sodipodi.sourceforge.net/DTD/sodipodi-0.dtd"
   xmlns:inkscape="http://www.inkscape.org/namespaces/inkscape"
   version="1.1"
   id="svg16"
   sodipodi:docname="arcade.svg"
   width="264"
   height="43.99995"
   inkscape:version="0.92.5 (2060ec1f9f, 2020-04-08)">
  <metadata
     id="metadata22">
    <rdf:RDF>
      <cc:Work
         rdf:about="">
        <dc:format>image/svg+xml</dc:format>
        <dc:type
           rdf:resource="http://purl.org/dc/dcmitype/StillImage" />
      </cc:Work>
    </rdf:RDF>
  </metadata>
  <defs
     id="defs20" />
  <sodipodi:namedview
     pagecolor="#ffffff"
     bordercolor="#666666"
     borderopacity="1"
     objecttolerance="10"
     gridtolerance="10"
     guidetolerance="10"
     inkscape:pageopacity="0"
     inkscape:pageshadow="2"
     inkscape:window-width="640"
     inkscape:window-height="480"
     id="namedview18"
     showgrid="false"
     inkscape:zoom="2.36"
     inkscape:cx="50"
     inkscape:cy="-5.9998815"
     inkscape:window-x="72"
     inkscape:window-y="27"
     inkscape:window-maximized="0"
     inkscape:current-layer="svg16" />
  <g
     transform="matrix(0.44,0,0,0.442118,0,-7.3862536e-5)"
     id="g14">
    <path
       d="m 342.957,61.194 c 0.199,1.594 -0.068,3.021 -0.797,4.28 -0.864,1.462 -2.09,2.19 -3.684,2.19 -1.991,0 -3.518,-1.059 -4.581,-3.185 -0.199,-1.261 -0.1,-2.488 0.299,-3.684 0.53,-1.459 1.427,-2.355 2.688,-2.688 0.399,-0.066 0.797,-0.1 1.194,-0.1 2.058,0.002 3.686,1.065 4.881,3.187 z m 35.641,30.265 -20.411,0.398 v -1.294 l 17.025,-0.498 c -0.732,-2.39 -2.356,-5.875 -4.88,-10.453 -2.655,-4.844 -4.379,-8.462 -5.176,-10.85 l 1.194,-0.697 z m 13.341,7.664 -25.585,-49.277 C 356.131,30.201 347.437,13.973 340.27,1.164 l -56.547,98.258 z"
       style="fill:#ffffff"
       id="path2"
       inkscape:connector-curvature="0" />
    <path
       d="m 283.724,71.748 c 0,1.726 -1.095,3.618 -3.286,5.674 -1.726,1.592 -3.717,2.952 -5.973,4.082 l -0.896,-0.697 c 1.394,-1.128 2.787,-2.29 4.182,-3.484 1.725,-1.459 2.886,-2.92 3.484,-4.38 -3.12,-1.526 -7.402,-3.318 -12.842,-5.376 -6.57,-2.521 -10.917,-4.247 -13.041,-5.175 V 60.796 Z M 257.839,50.441 c 16.856,-10.155 29.5,-17.786 37.928,-22.898 -3.12,-6.635 -7.93,-12.31 -14.434,-17.024 -6.239,-4.51 -12.942,-7.331 -20.109,-8.46 -2.655,-0.397 -5.31,-0.597 -7.965,-0.597 -9.292,0 -17.869,2.438 -25.734,7.317 -7.865,4.878 -13.955,11.564 -18.268,20.06 -3.054,5.909 -4.58,12.809 -4.58,20.707 0,8.431 1.693,15.828 5.077,22.2 4.314,8.097 10.32,14.518 18.02,19.263 7.699,4.745 15.994,7.118 24.888,7.118 9.822,0.066 19.066,-2.854 27.726,-8.759 8.661,-5.908 14.617,-13.506 17.869,-22.799 -12.343,-4.312 -25.816,-9.687 -40.418,-16.128 z"
       style="fill:#ffffff"
       id="path4"
       inkscape:connector-curvature="0" />
    <path
       d="m 54.356,58.007 c -0.399,0 -0.797,0.034 -1.195,0.1 -1.262,0.333 -2.157,1.229 -2.688,2.688 -0.397,1.196 -0.497,2.423 -0.298,3.684 1.061,2.126 2.588,3.185 4.579,3.185 1.593,0 2.82,-0.728 3.684,-2.19 0.73,-1.259 0.996,-2.686 0.796,-4.28 -1.195,-2.122 -2.821,-3.185 -4.878,-3.187 z M 0,99.422 56.548,1.164 c 7.168,12.809 15.861,29.037 26.085,48.682 l 25.584,49.277 z m 82.629,-31.357 -1.195,0.697 c 0.796,2.388 2.522,6.006 5.177,10.85 2.521,4.578 4.146,8.063 4.877,10.453 l -17.023,0.498 v 1.294 l 20.41,-0.398 z"
       style="fill:#ffffff"
       id="path6"
       inkscape:connector-curvature="0" />
    <path
       d="m 185.349,90.978 c -4.84,0.066 -11.97,-0.135 -21.387,-0.602 v -0.904 c 1.858,-0.268 4.645,-0.37 8.363,-0.3 3.716,0.066 6.503,-0.069 8.362,-0.4 l -16.725,-17.124 2.089,0.003 z m 8.18,-56.562 c -0.199,3.252 -1.394,6.421 -3.583,9.506 -2.191,3.087 -4.845,5.326 -7.964,6.72 l -8.959,3.983 v -2.192 c 11.946,-3.848 18.35,-9.856 19.213,-18.018 h 1.293 z m -30.86,-3.883 c 0.132,0.464 0.199,0.963 0.199,1.493 0,1.46 -0.466,2.671 -1.393,3.633 -0.93,0.962 -2.091,1.443 -3.484,1.443 -1.992,0 -3.552,-1.059 -4.68,-3.184 -0.464,-2.987 0.399,-5.11 2.589,-6.371 0.598,-0.265 1.195,-0.399 1.792,-0.399 2.52,0 4.18,1.129 4.977,3.385 z m 6.964,32.956 c 3.317,-0.862 6.638,-1.758 9.957,-2.689 3.783,-1.194 6.869,-2.72 9.26,-4.579 8.894,-6.902 13.341,-14.967 13.341,-24.193 0,-0.93 -0.035,-1.826 -0.099,-2.689 C 198.97,16.795 191.77,8.367 180.488,4.052 172.59,0.999 160.877,-0.329 145.347,0.069 125.635,0.666 113.921,0.734 110.205,0.268 v 98.656 c 12.811,0.133 28.51,0.066 47.098,-0.203 15.534,-0.204 31.068,-0.441 46.601,-0.711 z"
       style="fill:#ffffff"
       id="path8"
       inkscape:connector-curvature="0" />
    <path
       d="m 484.421,72.343 c -4.249,7.169 -9.891,12.114 -16.926,14.834 -3.917,1.526 -6.805,2.555 -8.659,3.086 -3.252,0.93 -6.307,1.426 -9.159,1.495 l -0.499,-1.195 c 15.595,-2.722 26.416,-8.397 32.455,-17.023 4.115,-5.907 6.771,-13.405 7.965,-22.499 h 1.792 c 0,0 0,-10e-4 0,-10e-4 v 10e-4 c -0.997,8.098 -3.321,15.199 -6.969,21.302 z m -31.36,-11.547 c 0.133,0.466 0.2,0.962 0.2,1.495 0,1.194 -0.383,2.273 -1.145,3.235 -0.763,0.962 -1.741,1.51 -2.936,1.641 -2.789,-0.528 -4.514,-1.558 -5.177,-3.084 -0.067,-0.465 -0.099,-0.896 -0.099,-1.294 0,-2.324 1.06,-4.016 3.185,-5.079 0.398,-0.065 0.797,-0.098 1.195,-0.098 1.99,0 3.583,1.061 4.777,3.184 z m 45.792,-11.149 c 0,-12.186 -3.383,-22.088 -10.154,-29.705 C 483.39,12.257 476.221,6.893 467.196,3.845 460.162,1.462 451.101,0.269 440.018,0.269 c -3.582,0 -9.025,0.099 -16.325,0.299 -7.302,0.198 -12.711,0.298 -16.229,0.298 -5.11,0 -9.654,-0.2 -13.636,-0.598 l -0.299,99.253 c 4.115,-0.531 8.894,-0.796 14.335,-0.796 3.517,0 8.894,0.133 16.128,0.398 7.234,0.264 12.609,0.398 16.127,0.398 12.943,0 23.23,-1.523 30.862,-4.569 10.02,-4.041 17.522,-11.161 22.499,-21.362 3.583,-7.284 5.374,-15.265 5.373,-23.943 z"
       style="fill:#ffffff"
       id="path10"
       inkscape:connector-curvature="0" />
    <path
       d="m 551.916,9.725 -39.124,0.298 -0.298,32.455 h -1.393 V 7.934 c 9.158,-0.131 22.762,0.035 40.816,0.498 v 1.293 z m 47.786,-9.457 h -96.268 v 99.156 h 96.268 V 80.31 l -53.858,-0.398 v -9.757 l 19.213,-0.896 V 56.816 h -19.213 c -0.598,-1.474 -0.896,-3.281 -0.896,-5.425 0,-2.142 0.298,-4.019 0.896,-5.627 H 600 Z"
       style="fill:#ffffff"
       id="path12"
       inkscape:connector-curvature="0" />
  </g>
</svg>
