<?xml version="1.0" encoding="UTF-8" standalone="no"?>
<svg
   xmlns:dc="http://purl.org/dc/elements/1.1/"
   xmlns:cc="http://creativecommons.org/ns#"
   xmlns:rdf="http://www.w3.org/1999/02/22-rdf-syntax-ns#"
   xmlns:svg="http://www.w3.org/2000/svg"
   xmlns="http://www.w3.org/2000/svg"
   xmlns:sodipodi="http://sodipodi.sourceforge.net/DTD/sodipodi-0.dtd"
   xmlns:inkscape="http://www.inkscape.org/namespaces/inkscape"
   version="1.1"
   id="svg16"
   sodipodi:docname="atarist.svg"
   width="264"
   height="43.000019"
   inkscape:version="0.92.5 (2060ec1f9f, 2020-04-08)">
  <metadata
     id="metadata22">
    <rdf:RDF>
      <cc:Work
         rdf:about="">
        <dc:format>image/svg+xml</dc:format>
        <dc:type
           rdf:resource="http://purl.org/dc/dcmitype/StillImage" />
      </cc:Work>
    </rdf:RDF>
  </metadata>
  <defs
     id="defs20" />
  <sodipodi:namedview
     pagecolor="#ffffff"
     bordercolor="#666666"
     borderopacity="1"
     objecttolerance="10"
     gridtolerance="10"
     guidetolerance="10"
     inkscape:pageopacity="0"
     inkscape:pageshadow="2"
     inkscape:window-width="640"
     inkscape:window-height="480"
     id="namedview18"
     showgrid="false"
     inkscape:zoom="2.36"
     inkscape:cx="50"
     inkscape:cy="-6.9999808"
     inkscape:window-x="72"
     inkscape:window-y="27"
     inkscape:window-maximized="0"
     inkscape:current-layer="svg16" />
  <g
     transform="scale(0.44,0.437192)"
     id="g14">
    <path
       d="m 172.222,5.115 c 3.782,-4.84 11.607,-5.664 16.247,-1.608 1.897,1.598 3.226,3.804 3.904,6.177 8.589,29.553 17.216,59.091 25.794,88.646 -5.07,0.003 -10.141,-0.006 -15.209,0.003 -2.39,-8.143 -4.724,-16.309 -7.084,-24.462 -9.8,-0.029 -19.599,-0.009 -29.397,-0.012 -2.401,8.151 -4.768,16.31 -7.126,24.48 -5.041,-0.021 -10.08,-0.009 -15.123,-0.012 8.159,-28.19 16.328,-56.38 24.527,-84.562 0.974,-2.947 1.338,-6.243 3.467,-8.65 m 8.947,18.108 c -3.594,12.243 -7.115,24.511 -10.687,36.76 7.122,0.032 14.243,0.012 21.363,0.012 -3.564,-12.256 -7.112,-24.514 -10.676,-36.772 z"
       id="path7"
       style="fill:#ffffff;fill-opacity:1"
       inkscape:connector-curvature="0" />
    <path
       d="m 278.992,5.751 c 2.64,-3.831 7.747,-5.693 12.241,-4.509 4.117,0.949 7.266,4.496 8.354,8.489 8.579,29.532 17.188,59.05 25.766,88.576 -5.074,0.045 -10.148,0 -15.223,0.022 -2.358,-8.153 -4.694,-16.321 -7.071,-24.471 -9.784,0.003 -19.567,-0.021 -29.351,0.007 -2.338,8.163 -4.748,16.303 -7.088,24.461 -5.037,0.003 -10.072,0 -15.107,0.003 8.153,-28.342 16.405,-56.662 24.625,-84.987 0.863,-2.56 1.194,-5.38 2.854,-7.591 m -1.234,54.244 c 7.093,0.01 14.182,0.003 21.274,0.003 -3.526,-12.281 -7.111,-24.546 -10.631,-36.83 -3.542,12.277 -7.12,24.545 -10.643,36.827 z"
       id="path9"
       style="fill:#ffffff;fill-opacity:1"
       inkscape:connector-curvature="0" />
    <path
       d="m 206.818,1.095 c 18.335,0 36.671,0 55.001,0 0,4.947 0,9.889 0,14.835 -6.75,0.006 -13.499,-0.007 -20.247,0.006 0,27.465 0.004,54.929 -0.003,82.395 -4.832,0 -9.672,0 -14.506,0 0,-27.465 -0.004,-54.928 0.005,-82.395 -6.751,-0.013 -13.499,0 -20.249,-0.006 -10e-4,-4.945 -0.005,-9.889 -10e-4,-14.835 z"
       id="path11"
       style="fill:#ffffff;fill-opacity:1"
       inkscape:connector-curvature="0" />
    <path
       d="m 341.474,1.698 c 1.392,-0.482 2.879,-0.646 4.35,-0.611 5.781,0.022 11.561,0.003 17.344,0.008 9.735,0.177 19.028,6.223 23.242,14.985 2.917,5.69 3.219,12.309 2.482,18.552 -0.504,6.536 -3.248,13.07 -8.27,17.399 -2.654,2.369 -5.96,3.802 -8.799,5.904 -1.56,1.191 -1.634,3.494 -0.83,5.144 7.673,11.847 15.651,23.503 23.482,35.25 -5.728,0.012 -11.457,-0.015 -17.185,0.012 -7.502,-11.266 -14.924,-22.589 -22.395,-33.867 -2.196,-3.208 -2.79,-7.462 -1.477,-11.129 1.025,-2.809 3.484,-4.868 6.219,-5.926 5.223,-1.992 10.369,-5.125 13.264,-10.052 2.198,-3.707 2.088,-8.274 1.099,-12.329 -1.162,-5.262 -6.289,-9.406 -11.706,-9.222 -3.748,0.025 -7.492,-0.022 -11.233,0.017 -1.693,-0.039 -3.287,1.432 -3.266,3.153 -0.019,26.447 0.01,52.901 -0.006,79.353 -4.872,-0.009 -9.74,0 -14.613,-0.009 -0.01,-28.471 0.008,-56.953 -0.01,-85.425 0.024,-4.994 3.575,-9.691 8.308,-11.207 z"
       id="path13"
       style="fill:#ffffff;fill-opacity:1"
       inkscape:connector-curvature="0" />
    <path
       d="m 402.134,1.095 c 5.125,0 10.247,0 15.376,0 -0.006,32.416 0.004,64.824 -0.01,97.235 -5.12,-0.012 -10.242,0 -15.367,-0.003 0.001,-32.412 0.001,-64.819 0.001,-97.232 z"
       id="path15"
       style="fill:#ffffff;fill-opacity:1"
       inkscape:connector-curvature="0" />
    <path
       d="m 43.353,0.916 c 2.461,-0.008 4.922,0 7.388,-0.004 0.008,5.789 0,11.58 0.003,17.367 0.023,4.833 -0.112,9.663 -0.312,14.493 -0.33,6.97 -0.768,13.957 -1.92,20.845 -0.794,4.749 -2.44,9.335 -4.476,13.686 C 40.711,74.311 35.484,80.242 29.609,85.229 24.355,89.856 18.082,93.225 11.484,95.498 7.751,96.79 3.909,97.776 0,98.33 0.003,93.474 0.003,88.616 0,83.762 c 4.709,-0.709 9.235,-2.38 13.437,-4.59 4.986,-2.637 9.476,-6.182 13.256,-10.365 3.903,-4.315 7.013,-9.315 9.373,-14.62 2.78,-6.099 4.268,-12.694 5.28,-19.292 1.268,-8.39 1.796,-16.882 1.992,-25.356 0.031,-2.872 0.007,-5.747 0.015,-8.623 z"
       id="path19"
       style="fill:#ffffff;fill-opacity:1"
       inkscape:connector-curvature="0" />
    <path
       d="m 53.71,0.926 c 4.533,-0.029 9.065,-0.003 13.6,-0.01 0.001,32.469 0.001,64.943 0,97.411 -4.523,0.012 -9.046,-0.02 -13.568,0.022 C 53.687,87.998 53.735,77.636 53.719,67.286 53.713,45.168 53.727,23.049 53.71,0.926 Z"
       id="path21"
       style="fill:#ffffff;fill-opacity:1"
       inkscape:connector-curvature="0" />
    <path
       d="m 70.335,0.916 c 2.45,-0.004 4.897,-0.008 7.344,0 -0.081,9.9 0.258,19.822 1.437,29.655 0.966,7.641 2.329,15.34 5.372,22.456 2.884,6.885 7.042,13.285 12.461,18.448 5.177,4.935 11.445,8.729 18.258,10.91 1.901,0.605 3.844,1.081 5.822,1.375 -10e-4,4.854 -0.004,9.706 0,14.56 -3.883,-0.529 -7.691,-1.531 -11.397,-2.79 C 105.22,93.996 100.951,92.007 97.03,89.453 94.168,87.619 91.566,85.414 89.067,83.117 84.946,79.314 81.26,74.999 78.488,70.105 76.323,66.297 74.742,62.183 73.502,57.99 72.367,53.774 71.885,49.41 71.444,45.077 70.592,35.704 70.273,26.288 70.333,16.883 c 0.002,-5.323 0,-10.644 0.002,-15.967 z"
       id="path23"
       style="fill:#ffffff;fill-opacity:1"
       inkscape:connector-curvature="0" />
    <path
       d="m 53.71,0.926 c 0.016,22.122 0.004,44.242 0.009,66.358 0.015,10.35 -0.034,20.708 0.023,31.064 4.522,-0.041 9.046,-0.011 13.568,-0.022 0.001,-32.468 0.001,-64.941 0,-97.414 -4.533,0.011 -9.066,-0.014 -13.6,0.014"
       id="path25"
       style="fill:#ffffff;fill-opacity:1"
       inkscape:connector-curvature="0" />
    <path
       d="m 70.335,0.916 c -0.002,5.321 0,10.644 0,15.965 -0.061,9.402 0.259,18.82 1.111,28.194 0.441,4.333 0.923,8.697 2.058,12.912 1.238,4.194 2.821,8.309 4.986,12.116 2.771,4.894 6.458,9.209 10.579,13.011 2.501,2.301 5.102,4.503 7.963,6.337 3.921,2.553 8.19,4.54 12.602,6.077 3.705,1.258 7.514,2.258 11.397,2.789 -0.004,-4.853 -0.001,-9.706 0,-14.559 -1.976,-0.29 -3.922,-0.771 -5.822,-1.375 C 108.396,80.202 102.127,76.408 96.951,71.473 91.532,66.317 87.374,59.912 84.49,53.025 81.447,45.909 80.084,38.21 79.118,30.569 77.938,20.736 77.6,10.814 77.681,0.914 75.231,0.908 72.783,0.912 70.335,0.916"
       id="path27"
       style="fill:#ffffff;fill-opacity:1"
       inkscape:connector-curvature="0" />
    <path
       d="m 458.164,62.704 1.771,1.391 c 6.194,4.803 13.653,8.723 21.618,8.723 3.413,0 8.848,-1.39 8.848,-5.691 0,-4.298 -4.552,-4.675 -7.711,-5.308 l -6.954,-1.263 C 462.21,58.154 450.832,50.188 450.832,35.269 450.831,12.642 471.439,0 492.172,0 c 10.871,0 20.858,2.655 30.213,8.344 l -9.355,24.399 c -5.941,-4.044 -12.64,-7.205 -20.099,-7.205 -3.035,0 -7.46,1.135 -7.46,5.054 0,3.542 4.3,4.046 6.952,4.677 l 7.839,1.773 c 14.663,3.285 25.283,11.124 25.283,27.306 0,22.754 -20.732,34.007 -41.338,34.007 -12.012,0 -25.917,-3.288 -36.663,-8.723 z"
       id="path31"
       style="fill:#ffffff;fill-opacity:1"
       inkscape:connector-curvature="0" />
    <path
       d="M 527.184,1.517 H 600 v 26.741 l -19.088,0.054 V 96.838 H 546.274 V 28.311 l -19.09,-0.053 z"
       id="path33"
       style="fill:#ffffff;fill-opacity:1"
       inkscape:connector-curvature="0" />
  </g>
</svg>
