<?xml version="1.0" encoding="UTF-8" standalone="no"?>
<svg
   xmlns:dc="http://purl.org/dc/elements/1.1/"
   xmlns:cc="http://creativecommons.org/ns#"
   xmlns:rdf="http://www.w3.org/1999/02/22-rdf-syntax-ns#"
   xmlns:svg="http://www.w3.org/2000/svg"
   xmlns="http://www.w3.org/2000/svg"
   xmlns:sodipodi="http://sodipodi.sourceforge.net/DTD/sodipodi-0.dtd"
   xmlns:inkscape="http://www.inkscape.org/namespaces/inkscape"
   version="1.1"
   id="svg19"
   sodipodi:docname="atari5200.svg"
   width="264"
   height="57.000008"
   inkscape:version="0.92.5 (2060ec1f9f, 2020-04-08)">
  <metadata
     id="metadata25">
    <rdf:RDF>
      <cc:Work
         rdf:about="">
        <dc:format>image/svg+xml</dc:format>
        <dc:type
           rdf:resource="http://purl.org/dc/dcmitype/StillImage" />
      </cc:Work>
    </rdf:RDF>
  </metadata>
  <defs
     id="defs23" />
  <sodipodi:namedview
     pagecolor="#ffffff"
     bordercolor="#666666"
     borderopacity="1"
     objecttolerance="10"
     gridtolerance="10"
     guidetolerance="10"
     inkscape:pageopacity="0"
     inkscape:pageshadow="2"
     inkscape:window-width="532"
     inkscape:window-height="460"
     id="namedview21"
     showgrid="false"
     inkscape:zoom="2.36"
     inkscape:cx="50"
     inkscape:cy="7.0000091"
     inkscape:window-x="72"
     inkscape:window-y="27"
     inkscape:window-maximized="0"
     inkscape:current-layer="svg19" />
  <g
     transform="scale(0.44,0.44232)"
     id="g17">
    <path
       id="path5"
       d="m 219.089,5.592 c 5,-6.396 15.347,-7.489 21.481,-2.123 2.509,2.112 4.267,5.027 5.165,8.165 11.356,39.074 22.763,78.13 34.103,117.212 -6.701,0.007 -13.406,-0.012 -20.107,0.007 -3.162,-10.774 -6.248,-21.566 -9.369,-32.35 -12.96,-0.026 -25.913,-0.006 -38.873,-0.013 -3.173,10.779 -6.306,21.569 -9.42,32.367 -6.666,-0.022 -13.331,-0.004 -19.998,-0.011 10.789,-37.276 21.59,-74.549 32.431,-111.814 1.291,-3.901 1.778,-8.259 4.583,-11.444 m 11.832,23.945 c -4.752,16.187 -9.408,32.405 -14.133,48.601 9.419,0.046 18.834,0.017 28.249,0.017 -4.709,-16.206 -9.398,-32.412 -14.118,-48.618 z"
       style="fill:#ffffff"
       inkscape:connector-curvature="0" />
    <path
       id="path7"
       d="m 360.273,6.433 c 3.492,-5.066 10.245,-7.524 16.187,-5.959 5.443,1.253 9.606,5.942 11.043,11.222 11.345,39.046 22.73,78.078 34.074,117.128 -6.712,0.052 -13.42,0 -20.13,0.026 -3.121,-10.782 -6.207,-21.576 -9.352,-32.36 -12.938,0.007 -25.873,-0.022 -38.809,0.011 -3.093,10.79 -6.283,21.555 -9.374,32.346 -6.66,0.007 -13.314,-0.006 -19.974,0.007 C 334.72,91.373 345.63,53.926 356.5,16.467 c 1.154,-3.389 1.598,-7.118 3.789,-10.041 m -1.63,71.722 c 9.38,0.013 18.755,0.006 28.135,0.006 -4.667,-16.241 -9.41,-32.459 -14.06,-48.698 -4.678,16.233 -9.409,32.451 -14.066,48.692 z"
       style="fill:#ffffff"
       inkscape:connector-curvature="0" />
    <path
       id="path9"
       d="m 264.841,0.278 h 72.729 v 19.614 c -8.929,0.007 -17.85,-0.01 -26.773,0.007 0,36.315 0.007,72.631 -0.004,108.946 h -19.181 c 0,-36.313 -0.005,-72.629 0.006,-108.946 -8.928,-0.017 -17.85,0 -26.778,-0.007 0,-6.543 -0.01,-13.077 0,-19.619 z"
       style="fill:#ffffff"
       inkscape:connector-curvature="0" />
    <path
       id="path11"
       d="m 442.888,1.076 c 1.841,-0.637 3.808,-0.854 5.753,-0.809 7.644,0.027 15.29,0.007 22.932,0.011 12.874,0.238 25.16,8.224 30.732,19.811 3.857,7.524 4.254,16.274 3.283,24.528 -0.673,8.641 -4.296,17.281 -10.937,23.009 -3.508,3.125 -7.878,5.021 -11.634,7.805 -2.063,1.569 -2.166,4.62 -1.099,6.803 10.145,15.663 20.691,31.081 31.049,46.609 -7.575,0.013 -15.151,-0.017 -22.728,0.013 -9.915,-14.895 -19.73,-29.866 -29.607,-44.782 -2.904,-4.246 -3.694,-9.868 -1.954,-14.713 1.356,-3.717 4.604,-6.435 8.222,-7.838 6.905,-2.636 13.715,-6.774 17.539,-13.292 2.91,-4.897 2.759,-10.939 1.451,-16.299 -1.536,-6.957 -8.314,-12.431 -15.479,-12.192 -4.955,0.033 -9.905,-0.022 -14.852,0.022 -2.24,-0.052 -4.346,1.896 -4.318,4.164 -0.024,34.975 0.011,69.952 -0.01,104.926 -6.444,-0.013 -12.878,0 -19.322,-0.007 -0.012,-37.652 0.013,-75.306 -0.012,-112.957 0.042,-6.594 4.731,-12.804 10.985,-14.807 z"
       style="fill:#ffffff"
       inkscape:connector-curvature="0" />
    <path
       id="path13"
       d="m 523.1,0.278 h 20.332 c -0.006,42.859 0.013,85.711 -0.013,128.568 -6.769,-0.019 -13.543,0 -20.319,-0.006 V 0.282 Z"
       style="fill:#ffffff"
       inkscape:connector-curvature="0" />
    <path
       id="path15"
       d="m 57.334,0.015 c 3.255,-0.01 6.512,0 9.768,-0.008 0.013,7.656 0,15.313 0.005,22.967 0.034,6.392 -0.147,12.781 -0.412,19.164 -0.436,9.219 -1.013,18.456 -2.54,27.571 -1.049,6.282 -3.222,12.342 -5.918,18.096 -4.399,9.271 -11.31,17.115 -19.079,23.713 -6.95,6.116 -15.246,10.569 -23.971,13.583 -4.936,1.698 -10.015,3.01 -15.187,3.739 0.005,-6.42 0.005,-12.845 0,-19.265 6.226,-0.935 12.211,-3.145 17.771,-6.065 6.596,-3.487 12.535,-8.18 17.532,-13.708 5.162,-5.71 9.276,-12.321 12.398,-19.34 3.677,-8.07 5.644,-16.786 6.982,-25.515 1.676,-11.094 2.375,-22.319 2.634,-33.533 0.037,-3.792 0.005,-7.594 0.017,-11.391 z"
       style="fill:#ffffff"
       inkscape:connector-curvature="0" />
    <path
       id="path17"
       d="m 71.032,0.028 c 5.993,-0.039 11.989,-0.006 17.984,-0.017 0.002,42.942 0.002,85.885 0,128.833 -5.98,0.013 -11.963,-0.028 -17.943,0.022 -0.076,-13.693 -0.01,-27.389 -0.031,-41.081 -0.008,-29.251 0.011,-58.501 -0.01,-87.752 z"
       style="fill:#ffffff"
       inkscape:connector-curvature="0" />
    <path
       id="path19"
       d="m 93.016,0.011 c 3.239,-0.002 6.475,-0.008 9.712,0.002 -0.105,13.093 0.34,26.211 1.902,39.22 1.277,10.104 3.078,20.282 7.102,29.696 3.815,9.107 9.315,17.573 16.481,24.396 6.843,6.526 15.136,11.542 24.146,14.43 2.514,0.805 5.085,1.435 7.698,1.816 -0.003,6.417 -0.006,12.836 0,19.252 -5.135,-0.696 -10.17,-2.019 -15.07,-3.685 -5.836,-2.03 -11.48,-4.659 -16.664,-8.031 -3.785,-2.435 -7.227,-5.348 -10.533,-8.386 C 112.341,103.696 107.463,97.983 103.8,91.516 100.934,86.481 98.844,81.038 97.206,75.487 95.706,69.909 95.065,64.145 94.483,58.411 93.357,46.019 92.936,33.564 93.016,21.125 93.023,14.088 93.02,7.047 93.023,0.011 Z"
       style="fill:#ffffff"
       inkscape:connector-curvature="0" />
    <path
       id="path21"
       d="m 57.334,0.015 c -0.011,3.798 0.021,7.599 -0.017,11.399 -0.259,11.214 -0.957,22.438 -2.634,33.533 -1.338,8.729 -3.306,17.445 -6.982,25.515 -3.122,7.023 -7.236,13.631 -12.398,19.34 -4.997,5.532 -10.936,10.221 -17.532,13.708 -5.56,2.924 -11.545,5.131 -17.771,6.065 0.005,6.42 0.005,12.845 0,19.265 5.172,-0.729 10.251,-2.041 15.187,-3.739 8.725,-3.014 17.021,-7.467 23.971,-13.583 7.769,-6.598 14.68,-14.442 19.079,-23.713 2.695,-5.754 4.869,-11.814 5.918,-18.096 1.527,-9.114 2.105,-18.352 2.54,-27.571 C 66.96,35.755 67.141,29.366 67.107,22.974 67.102,15.313 67.115,7.656 67.102,0 63.845,0.008 60.589,-0.003 57.334,0.008"
       style="fill:#ffffff"
       inkscape:connector-curvature="0" />
    <path
       id="path23"
       d="m 71.032,0.028 c 0.021,29.254 0.002,58.5 0.011,87.754 0.021,13.693 -0.045,27.389 0.032,41.081 5.979,-0.054 11.961,-0.013 17.942,-0.022 0.002,-42.942 0.002,-85.885 0,-128.833 -5.996,0.015 -11.992,-0.019 -17.985,0.021"
       style="fill:#ffffff"
       inkscape:connector-curvature="0" />
    <path
       id="path25"
       d="m 93.016,0.011 c -0.002,7.036 0,14.077 0,21.113 -0.08,12.44 0.341,24.894 1.467,37.286 0.582,5.734 1.223,11.497 2.723,17.076 1.638,5.55 3.728,10.993 6.594,16.029 3.662,6.466 8.541,12.18 13.99,17.205 3.306,3.038 6.748,5.951 10.533,8.384 5.184,3.374 10.828,6.003 16.664,8.033 4.9,1.666 9.935,2.989 15.07,3.685 -0.006,-6.417 -0.003,-12.835 0,-19.253 -2.614,-0.379 -5.184,-1.01 -7.698,-1.815 -9.01,-2.888 -17.304,-7.904 -24.146,-14.43 C 121.047,86.501 115.547,78.036 111.732,68.928 107.708,59.514 105.907,49.336 104.63,39.229 103.068,26.223 102.623,13.105 102.728,0.012 99.473,0.01 96.236,0.016 92.997,0.019"
       style="fill:#ffffff"
       inkscape:connector-curvature="0" />
    <path
       id="path27"
       d="m 566.683,116.108 7.549,2.288 -0.147,-2.581 c 0,-7.109 6.088,-11.785 12.855,-11.785 7.745,0 13.051,6.038 13.051,13.587 0,4.531 -2.385,9.061 -6.428,11.202 l -3.214,-3.411 c 3.116,-1.119 5.454,-4.869 5.454,-8.131 0,-4.966 -4.09,-8.863 -9.01,-8.863 -4.724,0 -8.717,4.038 -8.717,8.762 0,2.581 1.217,5.261 3.264,6.866 v 0.879 l -18.848,-5.65 v -14.693 h 4.188 v 11.543 h 0.01 z"
       style="fill:#ffffff"
       inkscape:connector-curvature="0" />
    <path
       id="path29"
       d="m 595.026,79.834 h 4.185 V 103.55 L 579.487,87.477 c -1.848,-1.509 -4.138,-3.261 -6.574,-3.261 -3.847,0 -7.011,3.409 -7.011,7.206 0,3.752 3.02,6.819 6.72,7.063 v 4.577 c -6.525,-0.73 -10.91,-4.967 -10.91,-11.64 0,-6.233 4.626,-11.588 11.007,-11.588 2.726,0 5.452,1.024 7.549,2.724 l 14.754,12.078 V 79.834 h 0.011 z"
       style="fill:#ffffff"
       inkscape:connector-curvature="0" />
    <path
       id="path31"
       d="m 561.709,59.773 c 0,10.516 8.623,19.069 19.221,19.069 10.516,0 19.07,-8.553 19.07,-19.069 0,-10.822 -8.409,-19.298 -19.146,-19.298 -10.737,0 -19.145,8.476 -19.145,19.298 z m 19.23,-14.79 c 8.295,0 14.792,6.597 14.792,15.023 0,7.9 -6.635,14.327 -14.792,14.327 -8.241,0 -14.947,-6.427 -14.947,-14.327 -0.011,-8.563 6.424,-15.023 14.944,-15.023 z"
       style="fill:#ffffff"
       inkscape:connector-curvature="0" />
    <path
       id="path33"
       d="m 561.709,19.305 c 0,10.516 8.623,19.069 19.221,19.069 10.516,0 19.07,-8.553 19.07,-19.069 0,-10.821 -8.404,-19.298 -19.135,-19.298 -10.732,0 -19.156,8.477 -19.156,19.298 z m 19.23,-14.789 c 8.295,0 14.792,6.597 14.792,15.023 0,7.9 -6.635,14.329 -14.792,14.329 -8.241,0 -14.947,-6.429 -14.947,-14.329 -0.011,-8.566 6.424,-15.023 14.944,-15.023 z"
       style="fill:#ffffff"
       inkscape:connector-curvature="0" />
  </g>
</svg>
