<?xml version="1.0" encoding="UTF-8" standalone="no"?>
<svg
   xmlns:bx="https://boxy-svg.com"
   xmlns:dc="http://purl.org/dc/elements/1.1/"
   xmlns:cc="http://creativecommons.org/ns#"
   xmlns:rdf="http://www.w3.org/1999/02/22-rdf-syntax-ns#"
   xmlns:svg="http://www.w3.org/2000/svg"
   xmlns="http://www.w3.org/2000/svg"
   xmlns:sodipodi="http://sodipodi.sourceforge.net/DTD/sodipodi-0.dtd"
   xmlns:inkscape="http://www.inkscape.org/namespaces/inkscape"
   version="1.1"
   id="svg17"
   sodipodi:docname="atari800.svg"
   width="264"
   height="38.000015"
   inkscape:version="0.92.5 (2060ec1f9f, 2020-04-08)">
  <metadata
     id="metadata23">
    <rdf:RDF>
      <cc:Work
         rdf:about="">
        <dc:format>image/svg+xml</dc:format>
        <dc:type
           rdf:resource="http://purl.org/dc/dcmitype/StillImage" />
      </cc:Work>
    </rdf:RDF>
  </metadata>
  <defs
     id="defs21" />
  <sodipodi:namedview
     pagecolor="#ffffff"
     bordercolor="#666666"
     borderopacity="1"
     objecttolerance="10"
     gridtolerance="10"
     guidetolerance="10"
     inkscape:pageopacity="0"
     inkscape:pageshadow="2"
     inkscape:window-width="532"
     inkscape:window-height="460"
     id="namedview19"
     showgrid="false"
     inkscape:zoom="2.36"
     inkscape:cx="50"
     inkscape:cy="-11.999985"
     inkscape:window-x="72"
     inkscape:window-y="27"
     inkscape:window-maximized="0"
     inkscape:current-layer="svg17" />
  <g
     transform="scale(0.44,0.435216)"
     id="g15">
    <path
       id="path10"
       d="m 111.183,3.787 c 3.388,-4.336 10.401,-5.074 14.557,-1.44 1.7,1.431 2.89,3.407 3.5,5.533 7.694,26.476 15.424,52.942 23.109,79.423 -4.542,0.004 -9.085,-0.007 -13.626,0.004 -2.142,-7.3 -4.234,-14.613 -6.348,-21.922 -8.781,-0.02 -17.56,-0.004 -26.34,-0.009 -2.151,7.305 -4.272,14.614 -6.384,21.932 -4.517,-0.015 -9.033,-0.004 -13.551,-0.009 7.311,-25.256 14.63,-50.516 21.976,-75.764 0.86,-2.639 1.19,-5.592 3.097,-7.748 m 8.013,16.223 c -3.219,10.969 -6.374,21.96 -9.576,32.935 6.383,0.029 12.763,0.011 19.142,0.011 -3.196,-10.982 -6.37,-21.963 -9.567,-32.946 z"
       style="fill:#ffffff"
       bx:origin="-1.3 0"
       inkscape:connector-curvature="0" />
    <path
       id="path12"
       d="m 206.844,4.357 c 2.366,-3.432 6.942,-5.1 10.97,-4.041 3.687,0.85 6.509,4.028 7.482,7.604 7.688,26.459 15.401,52.908 23.088,79.365 -4.546,0.037 -9.093,0 -13.64,0.02 -2.114,-7.307 -4.206,-14.622 -6.335,-21.929 -8.767,0.005 -17.533,-0.015 -26.299,0.007 -2.095,7.313 -4.254,14.607 -6.352,21.918 -4.512,0.004 -9.023,-0.003 -13.535,0.004 7.306,-25.396 14.699,-50.771 22.065,-76.148 0.772,-2.294 1.069,-4.82 2.557,-6.8 m -1.102,48.599 c 6.355,0.009 12.708,0.004 19.064,0.004 -3.161,-11.004 -6.373,-21.996 -9.528,-32.999 -3.185,11 -6.393,21.99 -9.545,32.995 z"
       style="fill:#ffffff"
       bx:origin="-2.755 0"
       inkscape:connector-curvature="0" />
    <path
       id="path14"
       d="m 142.177,0.184 h 49.282 v 13.292 c -6.047,0.004 -12.095,-0.007 -18.141,0.004 0,24.607 0.005,49.217 -0.003,73.823 h -12.997 c 0,-24.606 -0.004,-49.215 0.004,-73.823 -6.05,-0.011 -12.096,0 -18.145,-0.004 z"
       style="fill:#ffffff"
       bx:origin="-2.885 -0.002"
       inkscape:connector-curvature="0" />
    <path
       id="path16"
       d="m 262.825,0.724 c 1.249,-0.431 2.582,-0.577 3.899,-0.545 5.179,0.018 10.358,0.003 15.539,0.006 8.723,0.16 17.05,5.573 20.825,13.424 2.614,5.099 2.883,11.028 2.224,16.62 -0.453,5.856 -2.91,11.711 -7.41,15.591 -2.379,2.121 -5.34,3.404 -7.884,5.289 -1.398,1.066 -1.466,3.133 -0.745,4.612 6.875,10.613 14.023,21.058 21.041,31.583 -5.134,0.009 -10.266,-0.013 -15.4,0.009 -6.72,-10.094 -13.37,-20.238 -20.062,-30.345 -1.968,-2.876 -2.503,-6.686 -1.324,-9.97 0.919,-2.518 3.12,-4.362 5.571,-5.311 4.68,-1.785 9.293,-4.592 11.884,-9.008 1.971,-3.317 1.871,-7.412 0.984,-11.045 -1.04,-4.714 -5.634,-8.425 -10.487,-8.261 -3.358,0.023 -6.713,-0.018 -10.065,0.016 -1.518,-0.036 -2.945,1.284 -2.927,2.822 -0.015,23.699 0.009,47.4 -0.006,71.097 -4.365,-0.006 -8.726,0 -13.092,-0.004 -0.008,-25.512 0.008,-51.029 -0.008,-76.541 0.011,-4.473 3.196,-8.68 7.429,-10.039 z"
       style="fill:#ffffff"
       bx:origin="-4.649 -0.002"
       inkscape:connector-curvature="0" />
    <path
       id="path18"
       d="m 317.186,0.184 h 13.776 c -0.005,29.042 0.006,58.078 -0.009,87.121 -4.587,-0.011 -9.177,0 -13.767,-0.004 z"
       style="fill:#ffffff"
       bx:origin="-23.026 -0.002"
       inkscape:connector-curvature="0" />
    <path
       id="path22"
       d="M 556.355,87.301 C 532.287,87.301 512.703,67.719 512.703,43.65 512.692,19.58 532.278,0 556.35,0 580.421,0 600,19.581 600,43.651 c 0,24.068 -19.575,43.65 -43.647,43.65 z m 0,-84.096 c -22.302,0 -40.446,18.144 -40.446,40.445 0,22.302 18.144,40.445 40.446,40.445 22.3,0 40.443,-18.143 40.443,-40.445 C 596.787,21.35 578.645,3.205 556.347,3.205 Z m 0,70.182 c -16.393,0 -29.734,-13.339 -29.734,-29.733 0,-16.395 13.341,-29.733 29.734,-29.733 16.393,0 29.732,13.338 29.732,29.733 0,16.394 -13.337,29.733 -29.727,29.733 z m 0,-56.259 c -14.628,0 -26.528,11.901 -26.528,26.526 0,14.628 11.9,26.528 26.528,26.528 14.626,0 26.526,-11.9 26.526,-26.528 C 582.87,29.028 570.977,17.128 556.35,17.128 Z"
       style="fill:#ffffff"
       bx:origin="-5.873 0"
       inkscape:connector-curvature="0" />
    <path
       id="path26"
       d="M 466.999,87.301 C 442.931,87.301 423.347,67.719 423.347,43.65 423.336,19.58 442.922,0 466.994,0 c 24.07,0 43.65,19.581 43.65,43.651 0,24.068 -19.575,43.65 -43.648,43.65 z m 0,-84.096 c -22.3,0 -40.446,18.144 -40.446,40.445 0,22.302 18.146,40.445 40.446,40.445 22.3,0 40.443,-18.143 40.443,-40.445 0,-22.3 -18.142,-40.445 -40.44,-40.445 z m 0,70.182 c -16.396,0 -29.735,-13.339 -29.735,-29.733 0,-16.395 13.339,-29.733 29.735,-29.733 16.393,0 29.732,13.338 29.732,29.733 -0.011,16.394 -13.348,29.733 -29.738,29.733 z m 0,-56.259 c -14.628,0 -26.528,11.901 -26.528,26.526 0,14.628 11.9,26.528 26.528,26.528 14.627,0 26.525,-11.9 26.525,-26.528 -0.011,-14.626 -11.903,-26.526 -26.53,-26.526 z"
       style="fill:#ffffff"
       bx:origin="-4.85 0"
       inkscape:connector-curvature="0" />
    <path
       id="path30"
       d="m 392.203,87.301 c -16.859,0 -30.571,-13.713 -30.571,-30.574 0,-10.116 5.111,-19.665 13.443,-25.324 -2.129,-3.285 -3.243,-7.065 -3.243,-11.032 C 371.832,9.14 380.969,0 392.201,0 c 11.231,0 20.373,9.14 20.373,20.37 0,3.967 -1.12,7.745 -3.248,11.032 8.336,5.659 13.445,15.206 13.445,25.324 0.011,16.862 -13.7,30.575 -30.564,30.575 z m 0,-84.096 c -9.466,0 -17.168,7.7 -17.168,17.166 0,3.835 1.242,7.465 3.588,10.498 l 1.109,1.429 -1.554,0.927 c -8.23,4.924 -13.341,13.929 -13.341,23.502 0,15.089 12.278,27.368 27.366,27.368 15.09,0 27.368,-12.279 27.368,-27.368 0,-9.576 -5.114,-18.58 -13.343,-23.502 l -1.549,-0.927 1.104,-1.429 c 2.349,-3.033 3.589,-6.663 3.589,-10.498 -0.011,-9.465 -7.716,-17.166 -17.184,-17.166 z m 0,71.407 c -9.86,0 -17.884,-8.019 -17.884,-17.883 0,-9.86 8.021,-17.884 17.884,-17.884 9.859,0 17.883,8.022 17.883,17.884 0,9.864 -8.013,17.883 -17.878,17.883 z m 0,-32.562 c -8.095,0 -14.677,6.587 -14.677,14.68 0,8.094 6.585,14.679 14.677,14.679 8.094,0 14.677,-6.586 14.677,-14.679 0,-8.093 -6.591,-14.68 -14.682,-14.68 z m 0,-12.688 c -4.956,0 -8.986,-4.032 -8.986,-8.988 0,-4.954 4.03,-8.984 8.986,-8.984 4.955,0 8.985,4.03 8.985,8.984 0,4.956 -4.023,8.988 -8.983,8.988 z m 0,-14.769 c -3.189,0 -5.78,2.595 -5.78,5.78 0,3.19 2.592,5.782 5.78,5.782 3.191,0 5.782,-2.594 5.782,-5.782 0,-3.186 -2.601,-5.78 -5.787,-5.78 z"
       style="fill:#ffffff"
       bx:origin="-5.915 0"
       inkscape:connector-curvature="0" />
    <path
       id="path36"
       d="m 25.3,16.516 c 1.436,-0.005 2.872,0 4.311,-0.003 0.005,3.377 0,6.758 0.002,10.135 0.014,2.821 -0.065,5.639 -0.182,8.457 -0.193,4.068 -0.447,8.145 -1.121,12.165 -0.463,2.774 -1.423,5.449 -2.611,7.987 -1.941,4.09 -4.991,7.552 -8.42,10.462 -3.066,2.7 -6.728,4.665 -10.578,5.994 C 4.523,72.465 2.282,73.041 0,73.364 0.002,70.529 0.002,67.696 0,64.863 2.747,64.45 5.389,63.474 7.841,62.184 c 2.911,-1.538 5.531,-3.607 7.737,-6.048 2.278,-2.519 4.092,-5.437 5.47,-8.534 1.622,-3.56 2.491,-7.408 3.08,-11.259 0.741,-4.896 1.049,-9.851 1.163,-14.797 0.019,-1.675 0.005,-3.353 0.009,-5.03 z"
       style="fill:#ffffff"
       bx:origin="-0.001 -0.29"
       inkscape:connector-curvature="0" />
    <path
       id="path38"
       d="m 31.345,16.521 c 2.644,-0.018 5.289,-0.002 7.936,-0.007 10e-4,18.95 10e-4,37.901 0,56.848 -2.64,0.007 -5.279,-0.011 -7.918,0.013 C 31.33,67.333 31.359,61.287 31.349,55.247 31.346,42.339 31.355,29.43 31.345,16.521 Z"
       style="fill:#ffffff"
       bx:origin="-3.952 -0.29"
       inkscape:connector-curvature="0" />
    <path
       id="path40"
       d="m 41.046,16.514 c 1.43,-10e-4 2.858,-0.004 4.286,0.002 -0.047,5.776 0.151,11.567 0.838,17.305 0.565,4.459 1.36,8.951 3.135,13.104 1.683,4.019 4.11,7.755 7.273,10.767 3.02,2.88 6.679,5.093 10.655,6.367 1.11,0.353 2.244,0.631 3.398,0.802 -0.001,2.832 -0.002,5.664 0,8.497 -2.266,-0.308 -4.488,-0.894 -6.651,-1.628 -2.575,-0.896 -5.066,-2.056 -7.354,-3.546 -1.67,-1.073 -3.189,-2.36 -4.647,-3.698 -2.405,-2.22 -4.556,-4.738 -6.173,-7.593 -1.265,-2.224 -2.187,-4.624 -2.91,-7.072 -0.663,-2.46 -0.945,-5.007 -1.202,-7.536 -0.497,-5.469 -0.683,-10.963 -0.648,-16.454 0,-3.105 -10e-4,-6.209 0,-9.317 z"
       style="fill:#ffffff"
       bx:origin="-1.388 -0.29"
       inkscape:connector-curvature="0" />
    <path
       id="path42"
       d="m 31.345,16.521 c 0.008,12.909 0.001,25.818 0.004,38.725 0.009,6.04 -0.02,12.086 0.014,18.128 2.639,-0.023 5.279,-0.006 7.918,-0.013 10e-4,-18.946 10e-4,-37.897 0,-56.848 -2.646,0.006 -5.291,-0.009 -7.936,0.008"
       style="fill:#ffffff"
       bx:origin="-3.952 -0.29"
       inkscape:connector-curvature="0" />
    <path
       id="path44"
       d="m 41.046,16.514 c -10e-4,3.106 0,6.212 0,9.317 -0.035,5.488 0.151,10.985 0.648,16.454 0.257,2.529 0.539,5.076 1.202,7.536 0.722,2.448 1.645,4.848 2.91,7.072 1.617,2.855 3.768,5.373 6.173,7.593 1.459,1.341 2.977,2.626 4.647,3.698 2.288,1.49 4.779,2.647 7.354,3.546 2.163,0.734 4.385,1.317 6.651,1.628 -0.002,-2.833 -0.001,-5.665 0,-8.497 C 69.478,64.693 68.343,64.413 67.233,64.059 63.257,62.785 59.598,60.572 56.578,57.692 53.415,54.683 50.988,50.945 49.305,46.925 47.53,42.772 46.735,38.28 46.17,33.821 45.482,28.083 45.285,22.292 45.332,16.516 43.903,16.511 42.475,16.513 41.046,16.514"
       style="fill:#ffffff"
       bx:origin="-1.388 -0.29"
       inkscape:connector-curvature="0" />
  </g>
</svg>
