<?xml version="1.0" encoding="UTF-8" standalone="no"?>
<svg
   xmlns:bx="https://boxy-svg.com"
   xmlns:dc="http://purl.org/dc/elements/1.1/"
   xmlns:cc="http://creativecommons.org/ns#"
   xmlns:rdf="http://www.w3.org/1999/02/22-rdf-syntax-ns#"
   xmlns:svg="http://www.w3.org/2000/svg"
   xmlns="http://www.w3.org/2000/svg"
   xmlns:sodipodi="http://sodipodi.sourceforge.net/DTD/sodipodi-0.dtd"
   xmlns:inkscape="http://www.inkscape.org/namespaces/inkscape"
   id="svg2"
   enable-background="new 0 0 566.929 104.51"
   version="1.1"
   y="0px"
   x="0px"
   sodipodi:docname="atarilynx.svg"
   width="264"
   height="35"
   inkscape:version="0.92.5 (2060ec1f9f, 2020-04-08)">
  <metadata
     id="metadata17">
    <rdf:RDF>
      <cc:Work
         rdf:about="">
        <dc:format>image/svg+xml</dc:format>
        <dc:type
           rdf:resource="http://purl.org/dc/dcmitype/StillImage" />
      </cc:Work>
    </rdf:RDF>
  </metadata>
  <defs
     id="defs15" />
  <sodipodi:namedview
     pagecolor="#ffffff"
     bordercolor="#666666"
     borderopacity="1"
     objecttolerance="10"
     gridtolerance="10"
     guidetolerance="10"
     inkscape:pageopacity="0"
     inkscape:pageshadow="2"
     inkscape:window-width="532"
     inkscape:window-height="460"
     id="namedview13"
     showgrid="false"
     inkscape:zoom="2.36"
     inkscape:cx="50"
     inkscape:cy="-15"
     inkscape:window-x="72"
     inkscape:window-y="27"
     inkscape:window-maximized="0"
     inkscape:current-layer="svg2" />
  <polygon
     id="polygon12"
     points="207.83,25.969 183.182,34.883 207.987,34.883 217.424,29.69 "
     style="fill:#ffffff"
     bx:origin="-5.35 -2.913" />
  <polygon
     id="polygon14"
     points="227.043,15.026 220.412,17.715 184.813,0.242 214.093,0.242 253.084,19.954 237.791,19.954 "
     style="fill:#ffffff"
     bx:origin="-2.707 -0.012" />
  <polygon
     id="polygon16"
     points="239.346,9.273 264,0.363 239.195,0.363 229.763,5.553 "
     style="fill:#ffffff"
     bx:origin="-6.711 -0.041" />
  <polygon
     id="polygon18"
     points="220.138,20.216 226.768,17.527 262.372,35 233.088,35 194.097,15.288 209.39,15.288 "
     style="fill:#ffffff"
     bx:origin="-2.843 -0.776" />
  <rect
     id="rect20"
     height="23.653999"
     width="19.409"
     y="0.0040000002"
     style="fill:#ffffff"
     bx:origin="-0.001 0"
     x="0" />
  <rect
     id="rect22"
     height="7.2420001"
     width="49.736"
     y="26.554001"
     style="fill:#ffffff"
     bx:origin="0 -3.667"
     x="0" />
  <polygon
     id="polygon24"
     points="31.539,0.004 54.591,0.004 70.363,13.276 58.963,21.617 "
     style="fill:#ffffff"
     bx:origin="-0.813 0" />
  <polygon
     id="polygon26"
     points="114.031,0.004 97.049,0.004 61.871,22.931 60.657,22.931 60.657,33.794 78.853,33.794 78.853,22.931 "
     style="fill:#ffffff"
     bx:origin="-1.137 0" />
  <polygon
     id="polygon28"
     points="116.461,3.622 135.868,15.691 135.868,33.794 116.461,33.794 "
     style="fill:#ffffff"
     bx:origin="-6.002 -0.12" />
  <polygon
     id="polygon30"
     points="170.079,0 170.079,23.766 134.657,0.004 118.886,0.004 168.625,33.794 179.541,33.794 179.541,0 "
     style="fill:#ffffff"
     bx:origin="-1.96 0" />
</svg>
