<?xml version="1.0" encoding="UTF-8" standalone="no"?>
<svg
   xmlns:dc="http://purl.org/dc/elements/1.1/"
   xmlns:cc="http://creativecommons.org/ns#"
   xmlns:rdf="http://www.w3.org/1999/02/22-rdf-syntax-ns#"
   xmlns:svg="http://www.w3.org/2000/svg"
   xmlns="http://www.w3.org/2000/svg"
   xmlns:sodipodi="http://sodipodi.sourceforge.net/DTD/sodipodi-0.dtd"
   xmlns:inkscape="http://www.inkscape.org/namespaces/inkscape"
   version="1.0"
   id="Ebene_1"
   x="0px"
   y="0px"
   enable-background="new 0 0 466.5 167.3"
   sodipodi:docname="atari7800.svg"
   width="264"
   height="57"
   inkscape:version="0.92.5 (2060ec1f9f, 2020-04-08)">
  <metadata
     id="metadata22">
    <rdf:RDF>
      <cc:Work
         rdf:about="">
        <dc:format>image/svg+xml</dc:format>
        <dc:type
           rdf:resource="http://purl.org/dc/dcmitype/StillImage" />
      </cc:Work>
    </rdf:RDF>
  </metadata>
  <defs
     id="defs20" />
  <sodipodi:namedview
     pagecolor="#ffffff"
     bordercolor="#666666"
     borderopacity="1"
     objecttolerance="10"
     gridtolerance="10"
     guidetolerance="10"
     inkscape:pageopacity="0"
     inkscape:pageshadow="2"
     inkscape:window-width="532"
     inkscape:window-height="460"
     id="namedview18"
     showgrid="false"
     inkscape:zoom="2.36"
     inkscape:cx="50"
     inkscape:cy="7"
     inkscape:window-x="72"
     inkscape:window-y="27"
     inkscape:window-maximized="0"
     inkscape:current-layer="Ebene_1" />
  <path
     d="m 96.385,2.489 c 2.177,-2.792 6.772,-3.339 9.433,-0.911 1.088,0.911 1.874,2.246 2.297,3.582 4.959,17.239 10.038,34.54 14.996,51.779 -2.963,0 -5.926,0 -8.828,0 -1.391,-4.795 -2.721,-9.53 -4.172,-14.326 -5.684,0 -11.429,0 -17.112,0 -1.391,4.796 -2.782,9.531 -4.173,14.326 -2.963,0 -5.865,0 -8.828,0 4.777,-16.45 9.493,-32.901 14.27,-49.351 0.666,-1.761 0.907,-3.703 2.117,-5.099 m 5.2,10.562 c -2.116,7.163 -4.172,14.326 -6.228,21.489 4.172,0 8.284,0 12.456,0 -2.116,-7.163 -4.172,-14.326 -6.228,-21.489 z"
     id="path2"
     style="fill:#ffffff"
     inkscape:connector-curvature="0" />
  <path
     d="m 158.485,2.853 c 1.511,-2.246 4.535,-3.339 7.135,-2.61 2.358,0.546 4.232,2.61 4.837,4.977 4.958,17.24 10.038,34.54 14.996,51.78 -2.963,0 -5.926,0 -8.828,0 -1.331,-4.796 -2.721,-9.531 -4.112,-14.326 -5.684,0 -11.368,0 -17.112,0 -1.331,4.795 -2.721,9.53 -4.173,14.326 -2.962,0 -5.865,0 -8.828,0 4.777,-16.572 9.554,-33.083 14.331,-49.655 0.605,-1.518 0.786,-3.217 1.754,-4.492 m -0.666,31.687 c 4.173,0 8.224,0 12.396,0 -2.056,-7.163 -4.172,-14.326 -6.167,-21.489 -2.177,7.163 -4.173,14.326 -6.229,21.489 z"
     id="path4"
     style="fill:#ffffff"
     inkscape:connector-curvature="0" />
  <path
     d="m 116.46,0.182 c 10.642,0 21.345,0 31.987,0 0,2.914 0,5.828 0,8.681 -3.93,0 -7.861,0 -11.791,0 0,16.025 0,32.051 0,48.137 -2.782,0 -5.624,0 -8.405,0 0,-16.026 0,-32.051 0,-48.137 -3.93,0 -7.861,0 -11.791,0 0,-2.975 0,-5.828 0,-8.681 z"
     id="path6"
     style="fill:#ffffff"
     inkscape:connector-curvature="0" />
  <path
     d="m 194.886,0.486 c 0.786,-0.304 1.693,-0.365 2.539,-0.365 3.326,0 6.712,0 10.098,0 5.684,0.122 11.066,3.643 13.485,8.742 1.693,3.338 1.874,7.223 1.451,10.865 -0.303,3.825 -1.935,7.649 -4.777,10.138 -1.512,1.396 -3.447,2.185 -5.14,3.46 -0.907,0.728 -0.907,2.064 -0.484,2.974 4.475,6.92 9.131,13.719 13.666,20.578 -3.326,0 -6.651,0 -10.037,0 -4.354,-6.616 -8.647,-13.172 -13.061,-19.789 -1.27,-1.881 -1.633,-4.37 -0.847,-6.495 0.605,-1.639 2.056,-2.853 3.628,-3.46 3.023,-1.153 6.047,-2.974 7.74,-5.888 1.33,-2.125 1.209,-4.796 0.665,-7.224 -0.726,-3.096 -3.688,-5.463 -6.772,-5.402 -2.177,0 -4.354,0 -6.531,0 -0.967,0 -1.935,0.85 -1.935,1.821 0,15.418 0,30.898 0,46.316 -2.842,0 -5.684,0 -8.526,0 0,-16.633 0,-33.265 0,-49.898 0,-2.731 2.056,-5.463 4.838,-6.373 z"
     id="path8"
     style="fill:#ffffff"
     inkscape:connector-curvature="0" />
  <path
     d="m 230.199,0.182 c 2.963,0 5.986,0 8.949,0 0,18.939 0,37.879 0,56.818 -2.963,0 -5.986,0 -8.949,0 0,-19 0,-37.939 0,-56.818 z"
     id="path10"
     style="fill:#ffffff"
     inkscape:connector-curvature="0" />
  <path
     d="m 25.215,0 c 1.451,0 2.902,0 4.293,0 0,3.339 0,6.799 0,10.137 0,2.793 -0.06,5.646 -0.181,8.438 -0.182,4.067 -0.484,8.134 -1.089,12.201 -0.484,2.732 -1.391,5.463 -2.6,8.013 -1.935,4.128 -4.958,7.588 -8.405,10.502 C 14.149,52.022 10.521,53.965 6.712,55.3 4.535,56.029 2.298,56.636 0,56.939 0,54.086 0,51.294 0,48.441 2.721,48.016 5.382,47.045 7.8,45.77 c 2.903,-1.518 5.503,-3.582 7.74,-6.07 2.298,-2.55 4.112,-5.403 5.442,-8.56 1.633,-3.581 2.479,-7.405 3.084,-11.29 0.726,-4.917 1.028,-9.895 1.149,-14.812 0,-1.639 0,-3.338 0,-5.038 z"
     id="path12"
     style="fill:#ffffff"
     inkscape:connector-curvature="0" />
  <path
     d="m 31.201,0 c 2.661,0 5.261,0 7.921,0 0,19 0,37.939 0,56.878 -2.66,0 -5.26,0 -7.921,0 -0.06,-6.009 0,-12.14 0,-18.15 0,-12.869 0,-25.738 0,-38.728 z"
     id="path14"
     style="fill:#ffffff"
     inkscape:connector-curvature="0" />
  <path
     d="m 40.876,0 c 1.451,0 2.842,0 4.293,0 -0.06,5.827 0.121,11.594 0.847,17.361 0.544,4.431 1.33,8.984 3.144,13.112 1.693,4.006 4.112,7.77 7.256,10.805 3.023,2.914 6.651,5.099 10.642,6.374 1.089,0.364 2.237,0.667 3.386,0.789 0,2.853 0,5.645 0,8.498 C 68.147,56.636 65.97,56.029 63.853,55.3 61.314,54.39 58.835,53.236 56.537,51.719 54.844,50.626 53.393,49.351 51.881,48.016 49.523,45.831 47.346,43.281 45.713,40.367 44.443,38.121 43.536,35.754 42.811,33.326 42.146,30.837 41.904,28.348 41.601,25.799 41.118,20.335 40.876,14.811 40.936,9.348 40.876,6.252 40.876,3.157 40.876,0 Z"
     id="path16"
     style="fill:#ffffff"
     inkscape:connector-curvature="0" />
  <path
     d="m 25.215,0 c 0,1.7 0,3.339 0,5.038 -0.121,4.978 -0.423,9.895 -1.149,14.812 -0.605,3.824 -1.451,7.709 -3.084,11.29 -1.391,3.096 -3.144,6.01 -5.442,8.56 -2.177,2.428 -4.777,4.552 -7.74,6.07 -2.479,1.335 -5.079,2.246 -7.8,2.671 0,2.853 0,5.645 0,8.498 2.298,-0.303 4.535,-0.91 6.712,-1.639 3.809,-1.335 7.498,-3.339 10.521,-6.009 3.386,-2.914 6.47,-6.374 8.405,-10.502 1.149,-2.55 2.116,-5.22 2.6,-8.013 0.665,-4.006 0.907,-8.073 1.089,-12.14 0.121,-2.793 0.181,-5.646 0.181,-8.438 0,-3.339 0,-6.799 0,-10.137 C 28.057,0 26.606,0 25.215,0"
     id="path18"
     style="fill:#ffffff"
     inkscape:connector-curvature="0" />
  <path
     d="m 31.201,0 c 0,12.93 0,25.859 0,38.789 0,6.01 0,12.141 0,18.15 2.661,-0.061 5.261,0 7.921,0 0,-19 0,-38 0,-56.878 C 36.462,0 33.862,0 31.201,0"
     id="path20"
     style="fill:#ffffff"
     inkscape:connector-curvature="0" />
  <path
     d="m 40.876,0 c 0,3.096 0,6.192 0,9.288 -0.061,5.523 0.121,10.987 0.665,16.45 0.302,2.549 0.544,5.099 1.209,7.527 0.726,2.428 1.633,4.856 2.903,7.042 1.632,2.853 3.749,5.402 6.167,7.648 1.452,1.336 2.963,2.61 4.656,3.703 2.298,1.518 4.777,2.671 7.317,3.581 2.116,0.729 4.354,1.336 6.591,1.639 0,-2.853 0,-5.645 0,-8.498 C 69.235,48.198 68.086,47.894 66.998,47.591 63.067,46.316 59.379,44.07 56.355,41.217 53.211,38.243 50.792,34.479 49.099,30.412 47.346,26.224 46.56,21.732 45.955,17.3 45.29,11.655 45.109,5.827 45.169,0.061 43.718,0 42.267,0 40.876,0"
     id="path22"
     style="fill:#ffffff"
     inkscape:connector-curvature="0" />
  <path
     d="m 256.187,33.038 c -0.677,-1.05 -1.722,-1.791 -2.891,-1.791 -2.83,0 -4.122,2.965 -4.122,5.743 0,2.779 1.292,5.744 4.122,5.744 1.231,0 2.276,-0.679 2.891,-1.791 0.677,1.544 1.907,2.408 3.445,2.408 2.83,0 4.306,-3.21 4.306,-6.422 0,-3.15 -1.476,-6.423 -4.306,-6.423 -1.476,0.185 -2.707,1.049 -3.445,2.532 z m -1.784,4.076 c 0,0.68 -0.492,1.297 -1.045,1.297 -0.554,0 -1.046,-0.555 -1.046,-1.297 0,-0.679 0.492,-1.297 1.046,-1.297 0.615,-0.061 1.045,0.556 1.045,1.297 z m 3.63,0 c 0,-0.803 0.492,-1.421 1.169,-1.421 0.615,0 1.107,0.68 1.107,1.421 0,0.803 -0.492,1.42 -1.107,1.42 -0.677,-0.061 -1.169,-0.678 -1.169,-1.42 z"
     id="path41"
     style="fill:#ffffff;stroke-width:1.01736999"
     inkscape:connector-curvature="0" />
  <path
     d="m 251.573,17.167 c -1.599,1.173 -2.399,2.964 -2.399,5.063 0,2.1 0.862,3.83 2.399,5.065 1.293,0.988 3.138,1.544 5.045,1.544 3.691,0 7.382,-2.038 7.382,-6.609 0,-4.57 -3.753,-6.607 -7.382,-6.607 -1.907,0 -3.691,0.556 -5.045,1.544 z m 8.059,5.002 c 0,1.606 -2.03,1.791 -3.014,1.791 -0.984,0 -3.014,-0.185 -3.014,-1.791 0,-1.606 2.03,-1.791 3.014,-1.791 0.984,0.062 3.014,0.247 3.014,1.791 z"
     id="path43"
     style="fill:#ffffff;stroke-width:1.01736999"
     inkscape:connector-curvature="0" />
  <path
     d="m 251.573,1.604 c -1.599,1.173 -2.399,2.965 -2.399,5.064 0,2.1 0.862,3.829 2.399,5.064 1.293,0.988 3.138,1.543 5.045,1.543 3.691,0 7.382,-2.037 7.382,-6.607 0,-4.509 -3.753,-6.608 -7.382,-6.608 -1.907,0.062 -3.691,0.618 -5.045,1.544 z m 8.059,5.064 c 0,1.606 -2.03,1.791 -3.014,1.791 -0.984,0 -3.014,-0.185 -3.014,-1.791 0,-1.606 2.03,-1.791 3.014,-1.791 0.984,0 3.014,0.185 3.014,1.791 z"
     id="path45"
     style="fill:#ffffff;stroke-width:1.01736999"
     inkscape:connector-curvature="0" />
  <polygon
     points="253.911,57 253.911,50.824 263.938,55.456 263.938,50.207 249.359,43.969 249.359,57 "
     id="polygon47"
     style="fill:#ffffff" />
</svg>
