<?xml version="1.0" encoding="UTF-8" standalone="no"?>
<svg
   xmlns:dc="http://purl.org/dc/elements/1.1/"
   xmlns:cc="http://creativecommons.org/ns#"
   xmlns:rdf="http://www.w3.org/1999/02/22-rdf-syntax-ns#"
   xmlns:svg="http://www.w3.org/2000/svg"
   xmlns="http://www.w3.org/2000/svg"
   xmlns:sodipodi="http://sodipodi.sourceforge.net/DTD/sodipodi-0.dtd"
   xmlns:inkscape="http://www.inkscape.org/namespaces/inkscape"
   id="Ebene_1"
   enable-background="new 0 0 566.924 121.752"
   version="1.1"
   y="0px"
   x="0px"
   sodipodi:docname="atari2600.svg"
   width="264"
   height="57.000008"
   inkscape:version="0.92.5 (2060ec1f9f, 2020-04-08)">
  <metadata
     id="metadata24">
    <rdf:RDF>
      <cc:Work
         rdf:about="">
        <dc:format>image/svg+xml</dc:format>
        <dc:type
           rdf:resource="http://purl.org/dc/dcmitype/StillImage" />
      </cc:Work>
    </rdf:RDF>
  </metadata>
  <defs
     id="defs22" />
  <sodipodi:namedview
     pagecolor="#ffffff"
     bordercolor="#666666"
     borderopacity="1"
     objecttolerance="10"
     gridtolerance="10"
     guidetolerance="10"
     inkscape:pageopacity="0"
     inkscape:pageshadow="2"
     inkscape:window-width="640"
     inkscape:window-height="480"
     id="namedview20"
     showgrid="false"
     inkscape:zoom="2.36"
     inkscape:cx="50"
     inkscape:cy="7.0000091"
     inkscape:window-x="72"
     inkscape:window-y="27"
     inkscape:window-maximized="0"
     inkscape:current-layer="Ebene_1" />
  <g
     transform="scale(0.44,0.44232)"
     id="g17">
    <path
       id="path6"
       d="m 219.088,5.592 c 4.999,-6.396 15.347,-7.489 21.481,-2.123 2.508,2.112 4.266,5.027 5.164,8.165 11.357,39.074 22.763,78.129 34.103,117.211 -6.701,0.007 -13.406,-0.012 -20.107,0.007 -3.161,-10.774 -6.247,-21.566 -9.368,-32.35 -12.961,-0.026 -25.914,-0.006 -38.873,-0.012 -3.173,10.778 -6.306,21.568 -9.421,32.366 -6.665,-0.022 -13.331,-0.004 -19.997,-0.011 10.789,-37.275 21.59,-74.548 32.431,-111.814 1.291,-3.901 1.778,-8.258 4.582,-11.443 m 11.833,23.945 c -4.752,16.187 -9.408,32.405 -14.133,48.601 9.419,0.045 18.834,0.017 28.249,0.017 -4.71,-16.207 -9.398,-32.412 -14.118,-48.618 z"
       style="fill:#ffffff"
       inkscape:connector-curvature="0" />
    <path
       id="path8"
       d="m 360.271,6.433 c 3.493,-5.066 10.245,-7.524 16.188,-5.959 5.442,1.253 9.604,5.942 11.043,11.222 11.344,39.046 22.729,78.078 34.072,117.127 -6.712,0.052 -13.419,0 -20.13,0.027 -3.121,-10.783 -6.207,-21.577 -9.35,-32.36 -12.938,0.006 -25.873,-0.022 -38.811,0.01 -3.092,10.79 -6.281,21.556 -9.372,32.346 -6.66,0.007 -13.315,-0.006 -19.975,0.007 10.782,-37.48 21.692,-74.928 32.563,-112.386 1.132,-3.39 1.577,-7.118 3.767,-10.041 m -1.63,71.722 c 9.381,0.012 18.756,0.006 28.135,0.006 -4.666,-16.241 -9.408,-32.459 -14.059,-48.699 -4.688,16.233 -9.419,32.451 -14.076,48.693 z"
       style="fill:#ffffff"
       inkscape:connector-curvature="0" />
    <path
       id="path10"
       d="m 264.84,0.278 h 72.728 v 19.614 c -8.928,0.007 -17.849,-0.01 -26.772,0.007 0,36.314 0.007,72.63 -0.005,108.945 h -19.179 c 0,-36.312 -0.006,-72.628 0.005,-108.945 -8.928,-0.017 -17.85,0 -26.777,-0.007 0,-6.544 -0.011,-13.077 0,-19.619 z"
       style="fill:#ffffff"
       inkscape:connector-curvature="0" />
    <path
       id="path12"
       d="m 442.895,1.076 c 1.842,-0.637 3.808,-0.854 5.754,-0.809 7.644,0.027 15.288,0.007 22.931,0.011 12.873,0.238 25.16,8.224 30.731,19.811 3.858,7.524 4.255,16.274 3.283,24.528 -0.671,8.64 -4.295,17.281 -10.937,23.009 -3.507,3.125 -7.877,5.02 -11.633,7.805 -2.062,1.568 -2.167,4.62 -1.1,6.803 10.145,15.662 20.692,31.08 31.051,46.608 -7.576,0.013 -15.152,-0.017 -22.728,0.013 -9.917,-14.895 -19.731,-29.865 -29.608,-44.782 -2.903,-4.246 -3.693,-9.868 -1.953,-14.713 1.356,-3.717 4.604,-6.435 8.221,-7.838 6.906,-2.635 13.714,-6.773 17.539,-13.292 2.909,-4.897 2.758,-10.939 1.45,-16.298 -1.535,-6.958 -8.313,-12.431 -15.477,-12.192 -4.955,0.033 -9.906,-0.022 -14.853,0.022 -2.24,-0.052 -4.347,1.895 -4.318,4.164 -0.023,34.975 0.011,69.952 -0.011,104.925 -6.442,-0.013 -12.878,0 -19.32,-0.007 -0.012,-37.651 0.012,-75.305 -0.012,-112.957 0,-6.593 4.688,-12.803 10.953,-14.806 z"
       style="fill:#ffffff"
       inkscape:connector-curvature="0" />
    <path
       id="path14"
       d="m 523.097,0.278 h 20.33 c -0.006,42.859 0.013,85.711 -0.012,128.567 -6.769,-0.019 -13.543,0 -20.318,-0.006 V 0.282 Z"
       style="fill:#ffffff"
       inkscape:connector-curvature="0" />
    <path
       id="path18"
       d="m 57.334,0.015 c 3.255,-0.01 6.512,0 9.767,-0.008 0.014,7.656 0,15.313 0.005,22.967 0.034,6.391 -0.147,12.781 -0.411,19.163 -0.436,9.22 -1.013,18.457 -2.54,27.571 -1.049,6.283 -3.222,12.343 -5.919,18.096 -4.398,9.271 -11.309,17.115 -19.078,23.713 -6.951,6.116 -15.246,10.569 -23.971,13.583 -4.936,1.699 -10.015,3.01 -15.187,3.739 0.005,-6.42 0.005,-12.845 0,-19.265 6.226,-0.934 12.211,-3.144 17.771,-6.064 6.596,-3.488 12.535,-8.18 17.532,-13.709 5.162,-5.71 9.275,-12.32 12.398,-19.339 3.676,-8.07 5.644,-16.786 6.981,-25.516 1.677,-11.093 2.375,-22.318 2.635,-33.532 0.037,-3.792 0.005,-7.594 0.017,-11.391 z"
       style="fill:#ffffff"
       inkscape:connector-curvature="0" />
    <path
       id="path20"
       d="m 71.032,0.028 c 5.992,-0.039 11.989,-0.006 17.983,-0.017 0.002,42.941 0.002,85.885 0,128.832 -5.98,0.013 -11.962,-0.028 -17.942,0.023 C 70.997,115.173 71.062,101.477 71.041,87.785 71.034,58.533 71.053,29.284 71.032,0.033 Z"
       style="fill:#ffffff"
       inkscape:connector-curvature="0" />
    <path
       id="path22"
       d="m 93.016,0.011 c 3.238,-0.002 6.475,-0.008 9.711,0.002 -0.105,13.093 0.341,26.211 1.902,39.219 1.277,10.104 3.079,20.282 7.102,29.696 3.816,9.107 9.315,17.573 16.481,24.396 6.843,6.526 15.136,11.543 24.146,14.431 2.514,0.804 5.085,1.434 7.698,1.815 -0.003,6.418 -0.006,12.836 0,19.252 -5.135,-0.696 -10.17,-2.019 -15.07,-3.685 -5.836,-2.03 -11.48,-4.659 -16.664,-8.031 -3.785,-2.435 -7.226,-5.348 -10.533,-8.386 C 112.34,103.695 107.462,97.982 103.799,91.516 100.933,86.48 98.843,81.038 97.206,75.487 95.705,69.908 95.065,64.145 94.483,58.411 93.356,46.018 92.935,33.564 93.016,21.125 93.022,14.088 93.02,7.047 93.022,0.011 Z"
       style="fill:#ffffff"
       inkscape:connector-curvature="0" />
    <path
       id="path24"
       d="m 57.334,0.015 c -0.011,3.798 0.021,7.599 -0.017,11.399 -0.26,11.214 -0.957,22.438 -2.635,33.532 -1.337,8.73 -3.306,17.446 -6.981,25.516 -3.123,7.022 -7.236,13.63 -12.398,19.339 -4.997,5.532 -10.936,10.221 -17.532,13.709 -5.56,2.923 -11.545,5.131 -17.771,6.064 0.005,6.42 0.005,12.845 0,19.265 5.172,-0.729 10.251,-2.04 15.187,-3.739 8.725,-3.014 17.02,-7.467 23.971,-13.583 7.769,-6.598 14.68,-14.442 19.078,-23.713 2.696,-5.753 4.87,-11.813 5.919,-18.096 1.527,-9.113 2.105,-18.351 2.54,-27.571 C 66.959,35.755 67.14,29.365 67.106,22.974 67.101,15.313 67.115,7.656 67.101,0 63.845,0.008 60.589,-0.003 57.334,0.008"
       style="fill:#ffffff"
       inkscape:connector-curvature="0" />
    <path
       id="path26"
       d="m 71.032,0.028 c 0.021,29.254 0.002,58.5 0.01,87.754 0.022,13.693 -0.044,27.389 0.032,41.08 5.98,-0.054 11.961,-0.012 17.942,-0.022 0.002,-42.941 0.002,-85.884 0,-128.832 -5.995,0.015 -11.992,-0.019 -17.984,0.021"
       style="fill:#ffffff"
       inkscape:connector-curvature="0" />
    <path
       id="path28"
       d="m 93.016,0.011 c -0.002,7.036 0,14.077 0,21.113 -0.081,12.44 0.34,24.893 1.467,37.286 0.582,5.734 1.222,11.496 2.723,17.076 1.637,5.55 3.727,10.993 6.593,16.028 3.662,6.466 8.541,12.18 13.99,17.205 3.307,3.038 6.748,5.951 10.533,8.384 5.184,3.374 10.828,6.003 16.664,8.033 4.9,1.666 9.935,2.989 15.07,3.685 -0.006,-6.417 -0.003,-12.834 0,-19.252 -2.614,-0.38 -5.184,-1.011 -7.698,-1.815 -9.01,-2.889 -17.304,-7.905 -24.146,-14.431 C 121.046,86.5 115.547,78.035 111.731,68.927 107.708,59.513 105.906,49.335 104.629,39.229 103.068,26.223 102.622,13.105 102.727,0.012 99.473,0.01 96.235,0.016 92.997,0.019"
       style="fill:#ffffff"
       inkscape:connector-curvature="0" />
    <path
       id="path30"
       d="m 595.011,105.104 h 4.194 v 23.758 l -19.758,-16.1 c -1.853,-1.514 -4.148,-3.271 -6.588,-3.271 -3.854,0 -7.024,3.418 -7.024,7.221 0,3.758 3.022,6.831 6.729,7.076 v 4.586 c -6.538,-0.731 -10.927,-4.977 -10.927,-11.662 0,-6.243 4.635,-11.612 11.026,-11.612 2.733,0 5.465,1.026 7.563,2.731 l 14.784,12.101 -0.011,-14.824 z"
       style="fill:#ffffff"
       inkscape:connector-curvature="0" />
    <path
       id="path32"
       d="m 563.885,84.073 13.27,9.807 0.1,-0.097 c -0.538,-1.076 -0.878,-2.293 -0.878,-3.612 0,-6.048 5.611,-10.635 11.515,-10.635 6.731,0 12.1,5.465 12.1,12.149 0,6.341 -5.27,12.247 -11.756,12.247 -3.711,0 -6.831,-1.854 -9.712,-3.999 l -16.879,-12.542 2.243,-3.318 z m 24.49,-0.147 c -4.587,0 -7.905,3.903 -7.905,7.805 0,4.002 3.66,7.808 7.659,7.808 4.247,0 7.759,-3.609 7.759,-7.808 0,-4.099 -3.407,-7.805 -7.514,-7.805 z"
       style="fill:#ffffff"
       inkscape:connector-curvature="0" />
    <path
       id="path34"
       d="m 561.641,59.545 c 0,10.536 8.639,19.106 19.257,19.106 10.534,0 19.102,-8.57 19.102,-19.106 0,-10.839 -8.424,-19.334 -19.178,-19.334 -10.764,0 -19.188,8.495 -19.188,19.334 z m 19.262,-14.817 c 8.313,0 14.82,6.613 14.82,15.053 0,7.915 -6.647,14.354 -14.82,14.354 -8.256,0 -14.972,-6.439 -14.972,-14.354 0,-8.583 6.435,-15.053 14.975,-15.053 z"
       style="fill:#ffffff"
       inkscape:connector-curvature="0" />
    <path
       id="path36"
       d="m 561.641,19.374 c 0,10.533 8.639,19.104 19.257,19.104 10.534,0 19.102,-8.571 19.102,-19.104 0,-10.842 -8.424,-19.336 -19.178,-19.336 -10.764,0 -19.188,8.494 -19.188,19.336 z M 580.903,4.555 c 8.313,0 14.82,6.61 14.82,15.052 0,7.916 -6.647,14.355 -14.82,14.355 -8.256,0 -14.972,-6.439 -14.972,-14.355 0,-8.581 6.435,-15.052 14.975,-15.052 z"
       style="fill:#ffffff"
       inkscape:connector-curvature="0" />
  </g>
</svg>
