<?xml version="1.0" encoding="UTF-8" standalone="no"?>
<svg
   xmlns:dc="http://purl.org/dc/elements/1.1/"
   xmlns:cc="http://creativecommons.org/ns#"
   xmlns:rdf="http://www.w3.org/1999/02/22-rdf-syntax-ns#"
   xmlns:svg="http://www.w3.org/2000/svg"
   xmlns="http://www.w3.org/2000/svg"
   xmlns:sodipodi="http://sodipodi.sourceforge.net/DTD/sodipodi-0.dtd"
   xmlns:inkscape="http://www.inkscape.org/namespaces/inkscape"
   version="1.1"
   id="svg17"
   sodipodi:docname="atomiswave.svg"
   width="264"
   height="39"
   inkscape:version="0.92.5 (2060ec1f9f, 2020-04-08)">
  <metadata
     id="metadata23">
    <rdf:RDF>
      <cc:Work
         rdf:about="">
        <dc:format>image/svg+xml</dc:format>
        <dc:type
           rdf:resource="http://purl.org/dc/dcmitype/StillImage" />
      </cc:Work>
    </rdf:RDF>
  </metadata>
  <defs
     id="defs21" />
  <sodipodi:namedview
     pagecolor="#ffffff"
     bordercolor="#666666"
     borderopacity="1"
     objecttolerance="10"
     gridtolerance="10"
     guidetolerance="10"
     inkscape:pageopacity="0"
     inkscape:pageshadow="2"
     inkscape:window-width="532"
     inkscape:window-height="460"
     id="namedview19"
     showgrid="false"
     inkscape:zoom="2.36"
     inkscape:cx="50"
     inkscape:cy="-11"
     inkscape:window-x="72"
     inkscape:window-y="27"
     inkscape:window-maximized="0"
     inkscape:current-layer="svg17" />
  <path
     id="Path_13"
     data-name="Path 13"
     d="M 0,38.925 9.318,0.001 14.213,19.928 9.573,39 0.001,38.927 Z"
     style="fill:#cccccc"
     inkscape:connector-curvature="0" />
  <path
     id="Path_14"
     data-name="Path 14"
     d="m 9.317,0 h 9.463 l 8.122,32.324 H 17.328 L 9.316,0 Z"
     style="fill:#fefefe"
     inkscape:connector-curvature="0" />
  <path
     id="Path_15"
     data-name="Path 15"
     d="M 24.508,3.839 29.292,22.644 26.9,32.322 22.116,13.178 24.508,3.837 Z"
     style="fill:#cccccc"
     inkscape:connector-curvature="0" />
  <path
     id="Path_16"
     data-name="Path 16"
     d="m 24.508,3.839 6.251,24.572 h 9.448 L 33.851,3.839 Z"
     style="fill:#ffffff"
     inkscape:connector-curvature="0" />
  <path
     id="Path_17"
     data-name="Path 17"
     d="M 45.536,7.677 40.206,28.411 35.385,9.805 36.11,7.677 Z"
     style="fill:#cccccc"
     inkscape:connector-curvature="0" />
  <path
     id="Path_28"
     data-name="Path 28"
     d="m 69.905,28.119 h -7.061 l -0.627,-5.101 h -5.524 l -1.479,5.101 h -6.95 c 0,0 0,-0.612 5.581,-20.489 11.419,-0.086 11.847,-0.081 12.445,0.957 0.513,0.777 0.602,1.935 3.615,19.532 z M 59.199,10.984 v 0 l -2.027,7.757 h 4.724 l -0.615,-7.757 z"
     style="fill:#ffffff"
     inkscape:connector-curvature="0" />
  <path
     id="Path_18"
     data-name="Path 18"
     d="m 73.774,27.397 c -0.792,-1.152 -0.899,-1.754 3.195,-16.016 -6.892,0.057 -7.518,0 -7.518,0 L 70.818,7.63 h 20.046 l -1.139,3.751 h -6.151 c 0,0 0.007,0.027 -4.555,16.722 -3.993,-0.014 -4.601,0.23 -5.246,-0.706 z"
     style="fill:#ffffff"
     inkscape:connector-curvature="0" />
  <path
     id="Path_19"
     data-name="Path 19"
     d="m 109.426,8.498 c 0.684,1.038 0.342,1.614 -4.665,19.604 -15.496,0.1 -15.154,-0.014 -15.951,-0.937 -0.903,-1.044 -0.343,-1.732 4.562,-19.535 15.746,0 15.377,-0.167 16.054,0.868 z m -10.36,2.651 v 0 l -3.645,13.596 h 3.645 l 3.644,-13.596 z"
     style="fill:#ffffff"
     inkscape:connector-curvature="0" />
  <path
     id="Path_20"
     data-name="Path 20"
     d="m 109.09,28.102 c -0.393,-0.33 0.512,-1.417 5.468,-20.472 25.144,-0.085 23.776,-0.341 24.631,0.957 0.489,0.741 0.421,1.179 -4.357,19.515 -8.201,-0.07 -7.005,0 -7.005,0 l 4.101,-17.644 h -2.335 l -4.557,17.644 h -7.061 l 4.783,-17.644 h -2.278 l -4.784,17.644 z"
     style="fill:#ffffff"
     inkscape:connector-curvature="0" />
  <path
     id="Path_21"
     data-name="Path 21"
     d="m 138.334,27.339 c -0.256,-0.95 0,-0.782 4.927,-19.709 7.119,-0.171 6.834,0 6.834,0 0,0 -0.233,1.214 -5.694,20.472 -4.869,-0.07 -5.824,0.137 -6.066,-0.761 z"
     style="fill:#ffffff"
     inkscape:connector-curvature="0" />
  <path
     id="Path_22"
     data-name="Path 22"
     d="m 148.272,28.102 1.082,-3.852 h 10.849 c 0,0 0.143,-0.77 1.509,-5.956 -9.795,-0.029 -10.057,0.462 -10.82,-0.806 -0.348,-0.579 0.108,-1.044 2.392,-9.858 15.257,0.057 17.997,0 17.997,0 l -0.911,3.289 -10.252,0.086 c 0,0 -0.12,-0.202 -1.367,3.832 10.251,-0.029 9.821,0.054 10.337,0.576 0.769,0.778 0.513,1.21 -2.591,12.689 -19.251,0.101 -18.225,0 -18.225,0 z"
     style="fill:#ffffff"
     inkscape:connector-curvature="0" />
  <path
     id="Path_23"
     data-name="Path 23"
     d="m 174.984,7.63 c -5.639,19.387 -5.501,19.15 -4.87,19.969 0.598,0.777 1.538,0.448 25.543,0.52 C 200.441,9.382 201.01,7.63 201.01,7.63 h -7.062 l -4.898,17.924 h -2.506 L 191.442,7.63 h -6.834 l -4.898,17.808 h -2.506 L 182.102,7.63 Z"
     style="fill:#ffffff"
     inkscape:connector-curvature="0" />
  <path
     id="Path_24"
     data-name="Path 24"
     d="m 220.944,7.63 c 2.621,19.186 2.705,19.392 3.304,19.997 0.512,0.519 0.54,0.49 13.697,0.49 4.869,-19.444 0.255,-1.041 5.097,-20.487 h -7.062 l -4.186,17.607 h -1.51 L 228.233,7.63 c 0,0 -1.737,-0.085 -7.291,0 z"
     style="fill:#ffffff"
     inkscape:connector-curvature="0" />
  <path
     id="Path_25"
     data-name="Path 25"
     d="m 264,7.63 c 0,0 -0.769,0 -17.313,0 -4.984,19.703 -4.984,19.607 -4.557,20.141 0.429,0.534 1.025,0.346 17.313,0.331 0.371,-2.405 0.456,-3.615 0.456,-3.615 h -10.507 l 1.396,-5.962 9.197,-0.087 0.826,-3.601 h -9.113 l 1.026,-3.918 h 10.593 z"
     style="fill:#ffffff"
     inkscape:connector-curvature="0" />
  <path
     id="Path_27"
     data-name="Path 27"
     d="m 220.715,28.119 h -7.061 l -0.627,-5.101 h -5.525 l -1.48,5.101 h -6.949 c 0,0 0,-0.612 5.582,-20.489 11.419,-0.086 11.846,-0.081 12.444,0.957 0.514,0.777 0.602,1.935 3.616,19.532 z M 210.008,10.984 v 0 l -2.025,7.757 h 4.725 l -0.615,-7.757 z"
     style="fill:#ffffff"
     inkscape:connector-curvature="0" />
</svg>
