<?xml version="1.0" encoding="UTF-8" standalone="no"?>
<!-- Made by Szalik  -->

<svg
   xmlns:dc="http://purl.org/dc/elements/1.1/"
   xmlns:cc="http://creativecommons.org/ns#"
   xmlns:rdf="http://www.w3.org/1999/02/22-rdf-syntax-ns#"
   xmlns:svg="http://www.w3.org/2000/svg"
   xmlns="http://www.w3.org/2000/svg"
   xmlns:sodipodi="http://sodipodi.sourceforge.net/DTD/sodipodi-0.dtd"
   xmlns:inkscape="http://www.inkscape.org/namespaces/inkscape"
   version="1.1"
   id="build"
   x="0px"
   y="0px"
   xml:space="preserve"
   sodipodi:docname="build.svg"
   width="339.20999"
   height="140.11"
   inkscape:version="0.92.5 (2060ec1f9f, 2020-04-08)"><metadata
   id="metadata33"><rdf:RDF><cc:Work
       rdf:about=""><dc:format>image/svg+xml</dc:format><dc:type
         rdf:resource="http://purl.org/dc/dcmitype/StillImage" /></cc:Work></rdf:RDF></metadata><defs
   id="defs31" /><sodipodi:namedview
   pagecolor="#ffffff"
   bordercolor="#666666"
   borderopacity="1"
   objecttolerance="10"
   gridtolerance="10"
   guidetolerance="10"
   inkscape:pageopacity="0"
   inkscape:pageshadow="2"
   inkscape:window-width="532"
   inkscape:window-height="460"
   id="namedview29"
   showgrid="false"
   inkscape:zoom="2.36"
   inkscape:cx="-31.19"
   inkscape:cy="270.69"
   inkscape:window-x="72"
   inkscape:window-y="27"
   inkscape:window-maximized="0"
   inkscape:current-layer="build" />
<g
   id="g26"
   transform="translate(-81.19,-180.58)">
	<g
   id="g24">
		<path
   d="m 135.57,180.6 c 0,0.89 0,1.79 0,2.95 2.72,0 5.47,0 8.14,0 0.63,2.85 0.63,2.85 3.25,3.43 0.06,0.59 0.13,1.19 0.22,2.04 0.49,0 0.96,0 1.44,0 0.38,0 0.76,0 1.11,0 0.67,0.67 0.48,3.14 -0.48,5.24 0.97,0.39 1.93,0.78 3.05,1.23 0,2.46 0,5.11 0,7.92 -0.62,0.1 -1.32,0.21 -2.15,0.34 0,1.65 0,3.28 0,5.04 -0.98,0 -1.83,0 -2.89,0 -0.12,1.07 -0.23,2.02 -0.35,3.1 -1.87,0 -3.76,0 -5.96,0 0.18,2.16 -0.72,4.26 0.92,6.22 1.67,0 3.29,0 5.02,0 -0.02,2.16 0.8,3.44 3.19,3.14 0,1.77 0,3.4 0,5.16 0.73,0 1.33,0 1.78,0 0.24,0.23 0.42,0.31 0.42,0.4 0.01,3.66 0.01,7.33 0.01,11.13 -0.61,0 -1.21,0 -2.09,0 0,1.84 0,3.56 0,5.37 -1.12,0.06 -1.98,0.11 -2.99,0.17 0,0.85 0,1.71 0,2.79 -1.07,0.12 -2.01,0.22 -3.09,0.34 0,0.58 0,1.18 0,2.06 -2.86,0 -5.6,0 -8.46,0 -0.06,1.12 -0.1,1.98 -0.15,3 -18.04,0 -36.09,0 -54.23,0 0,-4.47 0,-8.9 0,-13.48 1.61,0 3.24,0 5.13,0 0.05,-1.09 0.14,-2.06 0.14,-3.02 0.01,-12.13 -0.01,-24.25 0.03,-36.38 0,-1.06 -0.53,-2.32 0.71,-3.21 -1.53,-2.32 -3.98,-0.54 -6.1,-1.55 0,-4.32 0,-8.88 0,-13.44 18.13,0.01 36.26,0.01 54.38,0.01 z m -5.37,54.24 c 2.03,0 3.65,0 5.3,0 0,-2.01 0,-3.88 0,-6.03 -1.02,0 -1.96,0 -2.88,0 -0.09,-0.87 -0.16,-1.47 -0.23,-2.1 -0.76,-0.13 -1.46,-0.24 -2.27,-0.37 0,-0.99 0,-1.85 0,-2.67 -1.26,-0.29 -2.73,-1.1 -3.43,-0.67 -1.28,0.78 -2.46,0.45 -3.64,0.46 -7.24,0.06 -14.48,0.03 -21.78,0.03 0,5.96 0,11.74 0,17.54 8.4,0 16.65,0 25.2,0 0.34,-0.97 0.7,-1.96 1.1,-3.09 0.8,0 1.66,0 2.65,0 -0.02,-0.99 -0.02,-1.84 -0.02,-3.1 z m -25.91,-22.97 c 6.77,0 13.22,0 19.66,0 0.12,-1.07 0.22,-2.02 0.35,-3.12 0.58,0.22 0.92,0.33 1.23,0.49 0.31,0.16 0.6,0.37 1.04,0.65 1.62,-2.12 4.08,-0.11 6.06,-1.41 0,-0.51 0,-1.11 0,-1.98 2.09,0 4.06,0 5.87,0 0,-2.14 0,-4.02 0,-6.01 -2.01,0 -3.89,0 -6.02,0 0,-1.07 0,-2.02 0,-3.09 -1.89,0 -3.51,0 -4.98,0 -0.43,-1.13 -0.82,-2.12 -1.12,-2.91 -8.61,0 -16.85,0 -25.18,0 0,4.78 0,9.45 0,14.48 0.88,0.32 1.86,0.68 2.89,1.06 0.05,0.53 0.12,1.13 0.2,1.84 z"
   id="path2"
   inkscape:connector-curvature="0"
   style="fill:#ffffff" />
		<path
   d="m 399.83,180.6 c 0.05,1.11 -0.41,2.41 1.68,3.03 0.92,0 2.44,0 4.23,0 0.23,1.65 0.38,3.61 3.04,3.01 0.14,0.78 0.26,1.48 0.41,2.31 0.85,0.05 1.71,0.09 2.83,0.15 0,0.93 0,1.88 0,2.91 1.12,0.05 1.98,0.09 3.11,0.14 0,1.74 0,3.47 0,5.18 0.87,0.09 1.47,0.16 2.2,0.24 0,3.69 0,7.35 0,11.23 1.07,0.08 2.02,0.16 3.07,0.24 0,4.76 0,9.45 0,14.4 -0.9,0 -1.85,0 -2.93,0 0,3.93 0,7.59 0,11.4 -0.72,0 -1.32,0 -2.2,0 0,1.84 0,3.55 0,5.39 -1.13,0 -1.98,0 -3.05,0 -0.08,1.07 -0.16,2.02 -0.24,3.09 -0.93,0.05 -1.79,0.1 -2.92,0.16 0,0.93 0,1.88 0,2.96 -1.12,0 -1.98,0 -2.97,0 0,0.73 0,1.33 0,2.13 -1.73,0 -3.34,0 -5.07,0 -0.4,0.53 -0.78,1.02 -1.26,1.66 0.19,0.37 0.45,0.87 0.77,1.47 -16.23,0 -32.39,0 -48.88,0 -0.18,-4.38 -0.02,-8.89 -0.1,-13.54 1.76,0 3.39,0 4.88,0 0.49,-0.49 0.86,-0.86 1.27,-1.27 0,-13.21 0,-26.46 0.01,-39.72 0,-1.04 0.08,-2.05 -1.28,-2.78 -1.35,0 -2.97,0 -4.85,0 0,-4.69 0,-9.24 0,-13.8 16.08,0.01 32.16,0.01 48.25,0.01 z m -2.43,19.93 c 0,-1.27 0,-2.12 0,-3.1 -1.75,0 -3.37,0 -4.87,0 -0.43,-1.14 -0.8,-2.13 -1.14,-3.05 -5.92,0 -11.52,0.01 -17.12,-0.01 -1.04,0 -2.04,-0.05 -2.6,0.99 0,14.24 0,28.44 0,42.59 6.89,0 13.6,0 20.46,0 0.05,-1.03 0.09,-1.99 0.14,-3.06 1.88,0 3.51,0 5.29,0 -0.46,-2.52 1.15,-3.01 2.97,-3.24 0.07,-0.64 0.13,-1.24 0.2,-1.94 1.02,-0.07 1.97,-0.14 2.85,-0.2 0,-7.97 0,-15.71 0,-23.54 -1.04,-0.08 -1.99,-0.15 -3.06,-0.22 0,-1.84 0,-3.46 0,-5.21 -1,-0.01 -1.86,-0.01 -3.12,-0.01 z"
   id="path4"
   inkscape:connector-curvature="0"
   style="fill:#ffffff" />
		<path
   d="m 235.91,180.6 c 0,4.46 0,8.93 0,13.67 -1.7,0 -3.42,0 -5.25,0 0,14.65 0,29.03 0,43.62 -1.06,0.09 -2.01,0.17 -3.1,0.27 0,1.68 0,3.3 0,5.05 -2.04,0.08 -3.51,0.71 -3.16,3.17 -0.73,0 -1.33,0 -2.07,0 -0.14,0.81 -0.25,1.51 -0.39,2.34 -1.63,0 -3.26,0 -5.13,0 -0.37,0.9 -0.72,1.77 -1.2,2.93 -10.01,0 -20.4,0 -30.93,0 0,-0.82 0,-1.67 0,-2.8 -1.84,0 -3.56,0 -5.31,0 -0.09,-0.86 -0.16,-1.47 -0.24,-2.22 -0.83,0 -1.69,0 -2.77,0 -0.12,-1.07 -0.22,-2.01 -0.34,-3.09 -0.84,0 -1.7,0 -2.82,0 0,-1.83 0,-3.56 0,-5.17 -1.16,-0.36 -2.05,-0.64 -3.14,-0.97 0,-14.42 0,-28.64 0,-42.99 -1.88,0 -3.5,0 -5.39,0 0,-4.69 0,-9.24 0,-13.8 8.43,0 16.85,0 25.28,0 0,4.55 0,9.11 0,13.93 -1.96,0 -3.67,0 -5.36,0 0,1.8 0,3.33 0,4.86 0,1.66 0,3.31 0,4.97 0,1.53 0,3.06 0,4.59 0,1.53 0,3.06 0,4.59 0,1.66 0,3.31 0,4.97 0,1.53 0,3.06 0,4.59 0,1.66 0.46,3.5 -0.13,4.91 -0.54,1.29 0.13,2.53 -0.51,3.64 2.32,0.29 2.32,0.29 3.51,1.62 -0.18,0.18 -0.36,0.36 -0.76,0.76 1.18,0.51 2.23,0.96 3.43,1.49 0,1.81 0,3.68 0,5.59 7.04,0 13.91,-0.01 20.79,0.01 1.04,0 2.05,0.08 2.91,-1.54 0,-1.19 0,-2.9 0,-4.74 1.12,0 1.98,0 2.96,0 0,-1.76 0,-3.38 0,-5.05 0.82,-0.12 1.52,-0.23 2.19,-0.33 0,-10.7 0,-21.24 0,-31.85 -0.77,-0.12 -1.47,-0.23 -1.87,-0.29 -0.43,-1.15 -0.76,-2.03 -1.15,-3.08 -1.92,0 -3.63,0 -5.32,0 0,-4.73 0,-9.19 0,-13.65 8.42,0 16.85,0 25.27,0 z"
   id="path6"
   inkscape:connector-curvature="0"
   style="fill:#ffffff" />
		<path
   d="m 310.98,180.6 c 0,4.46 0,8.93 0,13.66 -1.7,0 -3.41,0 -4.6,0 -1.62,0.87 -1.54,1.88 -1.54,2.92 0.02,4.85 0.01,9.69 0.01,14.54 0,8.41 0,16.82 0,25.17 0.42,0.42 0.78,0.78 1.14,1.14 6.37,0 12.75,0 19.4,0 0,-1.95 0,-3.91 0,-6 4.7,0 9.13,0 13.67,0 0.25,0.25 0.61,0.61 0.92,0.92 0,6.27 0,12.48 0,18.78 -18.06,0 -36.01,0 -54.12,0 0,-4.49 0,-9.01 0,-13.67 1.68,0 3.3,0 5.06,0 0,-14.6 0,-29.07 0,-43.68 -1.71,0 -3.34,0 -5.22,0 0,-4.69 0,-9.24 0,-13.8 8.43,0.02 16.85,0.02 25.28,0.02 z"
   id="path8"
   inkscape:connector-curvature="0"
   style="fill:#ffffff" />
		<path
   d="m 273.45,180.6 c 0,4.46 0,8.92 0,13.65 -1.69,0 -3.4,0 -5.24,0 0,14.73 0,29.19 0,43.78 1.73,0 3.36,0 5.11,0 0,4.55 0,8.98 0,13.56 0.06,-0.05 -0.03,0.05 -0.13,0.11 -0.1,0.06 -0.22,0.12 -0.33,0.12 -8.14,0.01 -16.28,0 -24.55,0 0,-4.54 0,-8.97 0,-13.66 1.57,0 3.28,0 5.11,0 0,-14.64 0,-29 0,-43.64 -1.57,0 -3.28,0 -5.24,0 0,-4.82 0,-9.38 0,-13.93 8.42,0.01 16.84,0.01 25.27,0.01 z"
   id="path10"
   inkscape:connector-curvature="0"
   style="fill:#ffffff" />
		<path
   d="m 317.24,320.69 c -5.08,0 -9.76,0 -14.57,0 0,-21.6 0,-43.13 0,-64.85 4.66,0 9.44,0 14.36,0 0.04,0.57 0.08,1.17 0.14,2.05 0.93,0 1.87,0 2.99,0 -1.15,1.83 -0.61,3.53 -0.81,5.42 0.98,0.36 1.86,0.69 2.96,1.1 0,0.33 0,0.92 0,1.77 1.07,0.11 2.01,0.21 3.09,0.33 0,1.85 0,3.74 0,5.82 1.07,0.1 2.02,0.19 3.11,0.29 0,0.9 0,1.76 0,2.75 0.81,0.13 1.51,0.24 2.34,0.37 0,1.65 0,3.27 0,5.04 0.99,0 1.84,0 2.89,0 0.12,1.07 0.23,2.02 0.35,3.1 0.85,0 1.71,0 2.74,0 0,1.73 0,3.35 0,5.27 0.99,0.43 1.95,0.84 3.11,1.35 0,0.34 0,0.94 0,1.8 1.07,0.05 2.02,0.1 3.1,0.15 0,-12.27 0,-24.35 0,-36.61 4.65,0 9.17,0 13.78,0 0,21.55 0,43.08 0,64.77 -4.48,0 -9,0 -13.62,0 -0.04,-0.9 -0.09,-1.76 -0.14,-2.76 -0.88,0 -1.73,0 -2.87,0 0,-1.84 0,-3.55 0,-5.4 -1.13,0 -1.98,0 -3.06,0 -0.08,-1.07 -0.15,-2.03 -0.23,-3.06 -0.68,-0.07 -1.29,-0.13 -2.05,-0.2 0,-1.59 0,-3.21 0,-5.08 -1.07,-0.11 -2.01,-0.21 -3.09,-0.32 0,-0.84 0,-1.7 0,-2.76 -1.07,-0.1 -2.02,-0.19 -3.11,-0.3 0,-1.91 0,-3.8 0,-5.94 -1.08,0 -2.03,0 -2.99,0 -0.1,-0.87 -0.17,-1.47 -0.24,-2.03 -1,-0.36 -1.99,-0.72 -3.03,-1.1 0,-1.92 0,-3.54 0,-5.25 -0.73,-0.07 -1.33,-0.12 -2.21,-0.21 0,-0.92 0,-1.87 0,-2.89 -1.13,0 -1.98,0 -2.97,0 0.03,12.38 0.03,24.72 0.03,37.38 z"
   id="path12"
   inkscape:connector-curvature="0"
   style="fill:#ffffff" />
		<path
   d="m 161.48,272.53 c 1.26,0 2.12,0 3.11,0 0,0.99 0,1.85 0,2.84 0.81,0.13 1.51,0.25 2.34,0.38 0,1.64 0,3.27 0,5.04 0.98,0 1.84,0 2.91,0 0.12,1.07 0.23,2.01 0.35,3.09 0.84,0 1.7,0 2.74,0 0,1.73 0,3.34 0,5.08 0.88,0.56 1.67,1.07 2.48,1.59 0,0.47 0,0.97 0,1.68 1.19,0 2.39,0 3.72,0 0,-12.03 0,-24.11 0,-36.38 4.64,0 9.16,0 13.79,0 0,21.5 0,43.03 0,64.74 -4.42,0 -8.94,0 -13.59,0 0.25,-2.2 -0.96,-3.09 -3.16,-3.02 0,-1.74 0,-3.36 0,-5.11 -0.99,0 -1.84,0 -2.92,0 -0.08,-1.07 -0.16,-2.02 -0.24,-3.09 -0.93,-0.05 -1.79,-0.1 -2.81,-0.16 0,-1.6 0,-3.22 0,-5.04 -1.78,-0.28 -3.79,-0.39 -3.1,-3.1 -0.84,-0.14 -1.54,-0.25 -2.37,-0.38 0,-1.64 0,-3.27 0,-5.14 -0.9,-0.36 -1.78,-0.72 -2.96,-1.2 -0.05,-0.3 -0.18,-1 -0.33,-1.83 -0.85,-0.05 -1.71,-0.09 -2.83,-0.15 0,-1.94 0,-3.92 0,-5.9 -0.87,-0.1 -1.47,-0.17 -2.07,-0.24 -0.77,-3.33 -1.5,-3.69 -4.09,-1.88 0,12 0,24.08 0,36.3 -4.55,0 -8.97,0 -13.43,0 -0.59,-3.24 -0.81,-49.84 -0.27,-64.83 4.42,0 8.85,0 13.46,0 0.1,0.53 0.23,1.22 0.39,2.05 0.83,0 1.69,0 2.81,0 0,2.09 0,4.07 0,6.14 1.12,0.06 1.98,0.11 2.99,0.17 0.1,0.68 0.21,1.38 0.34,2.21 0.91,0 1.76,0 2.75,0 -0.01,1.98 -0.01,3.86 -0.01,6.14 z"
   id="path14"
   inkscape:connector-curvature="0"
   style="fill:#ffffff" />
		<path
   d="m 250.23,317.7 c -1.67,0 -3.21,0 -4.95,0 -0.09,0.93 -0.19,1.89 -0.3,2.95 -9.31,0 -18.58,0 -27.89,0 -0.32,-0.9 -0.68,-1.9 -1.05,-2.93 -1.89,0 -3.51,0 -5.27,0 0,-0.73 0,-1.33 0,-2.13 -1.07,-0.1 -2.02,-0.2 -3.11,-0.31 0,-0.89 0,-1.75 0,-2.87 -1.08,0 -2.03,0 -3.11,0 0,-1.89 0,-3.51 0,-5.28 -0.73,0 -1.33,0 -1.75,0 -0.72,-0.61 -0.93,-25.41 -0.49,-37.54 0.59,0 1.19,0 2.06,0 0,-1.84 0,-3.55 0,-5.4 1.12,0 1.98,0 3.06,0 0.08,-1.07 0.14,-2.03 0.22,-3.08 0.95,-0.05 1.81,-0.1 2.94,-0.16 0,-0.95 0,-1.89 0,-2.97 2.14,0 4.02,0 6.03,0 0,-0.73 0,-1.33 0,-2.12 9.5,0 18.87,0 28.42,0 0.03,0.55 0.05,1.15 0.1,2.11 0.83,0 1.67,0 2.52,0 0.87,0 1.73,0 2.7,0 0.06,1.04 0.11,1.9 0.16,2.91 0.85,0 1.71,0 2.79,0 0.11,1.07 0.22,2.01 0.33,3.09 0.84,0 1.7,0 2.42,0 0.22,0.22 0.39,0.31 0.39,0.41 0.02,1.62 0.01,3.24 0.01,5 1.12,0 1.98,0 3,0 0,1.84 0,3.55 0,5.37 -0.89,0.05 -1.75,0.09 -2.75,0.15 0,0.87 0,1.73 0,2.41 -0.23,0.26 -0.31,0.44 -0.39,0.44 -2.64,0.01 -5.28,0.01 -8.06,0.01 0,-0.85 0,-1.7 0,-2.77 -1.07,-0.09 -2.02,-0.17 -3.09,-0.26 -0.05,-0.66 -0.1,-1.26 -0.16,-1.98 -1.89,-0.09 -3.37,-0.71 -3.02,-3.15 -5.83,0 -11.54,0 -17.56,0 0.17,0.6 0.33,1.21 0.55,2.01 -0.17,0.14 -0.56,0.44 -1.23,0.97 -1.25,0 -2.88,0 -4.63,0 0,1.75 0,3.37 0,5.27 -1.08,0 -2.03,0 -3.06,0 0,6.99 0,13.72 0,20.71 0.93,0 1.88,0 2.96,0 0,1.89 0,3.51 0,5.27 1.75,0 3.37,0 4.95,0 0.43,1.12 0.8,2.11 1.18,3.11 3.89,0 7.55,0 11.36,0 0,-0.85 0,-1.7 0,-2.83 1.84,0 3.55,0 5.38,0 0,-3.17 0,-6.07 0,-9.23 -2.61,0 -5.35,0 -8.21,0 -0.06,-0.86 -0.1,-1.46 -0.17,-2.34 -0.93,0 -1.87,0 -2.91,0 0,-2.91 0,-5.55 0,-8.34 0.86,0 1.71,0 2.77,0 0.12,-1.07 0.23,-2.02 0.35,-3.09 3.4,0 6.81,0 10.59,0 0.3,0.78 0.67,1.76 1.11,2.91 1.49,0 3.11,0 4.85,0 -0.01,2.13 0.77,3.45 3.01,3.17 0.57,2.66 0.57,2.66 3.18,3.04 0,1.66 0,3.38 0,5.22 1.12,0.06 1.98,0.1 3,0.15 0,3.38 0,6.79 0,10.62 -0.67,0.28 -1.64,0.68 -2.79,1.16 0,1.39 0,3.02 0,4.86 -1.07,0.08 -2.02,0.16 -3.09,0.24 -0.05,0.93 -0.1,1.79 -0.17,2.92 -0.93,0 -1.88,0 -2.78,0 -0.14,0.93 -0.27,1.63 -0.4,2.3 z"
   id="path16"
   inkscape:connector-curvature="0"
   style="fill:#ffffff" />
		<path
   d="m 415.07,306.98 c 0,4.7 0,9.12 0,13.67 -16.24,0 -32.41,0 -48.76,0 0,-21.51 0,-43.13 0,-64.87 16.13,0 32.3,0 48.65,0 0,4.15 0,8.42 0,12.66 -0.67,1.34 -1.91,1 -3.02,1 -8.29,0.01 -16.59,0.01 -24.88,0.01 -2.29,0 -4.57,0 -7,0 0,3.84 0,7.59 0,11.48 7.58,0 15.07,0 22.7,0 0,4.56 0,8.99 0,13.56 0.05,-0.05 -0.03,0.06 -0.14,0.13 -0.1,0.06 -0.22,0.11 -0.33,0.11 -7.12,0.01 -14.25,0 -21.69,0 -0.24,0.84 -0.63,1.62 -0.66,2.41 -0.08,2.92 -0.03,5.85 -0.03,8.63 0.7,1.11 1.59,1.25 2.69,1.24 6.12,-0.05 12.25,-0.03 18.37,-0.03 4.6,0 9.2,0 14.1,0 z"
   id="path18"
   inkscape:connector-curvature="0"
   style="fill:#ffffff" />
		<path
   d="m 129.37,255.79 c 0,4.56 0,8.99 0,13.55 -11.4,0 -22.72,0 -34.22,0 0,3.88 0,7.64 0,11.53 7.51,0 15,0 22.65,0 0,4.65 0,9.17 0,13.83 -7.31,0 -14.55,0 -22.11,0 -0.25,0.82 -0.67,1.6 -0.69,2.39 -0.08,3.18 -0.03,6.37 -0.03,9.82 11.46,0 22.87,0 34.38,0 0,4.7 0,9.13 0,13.71 -16,0 -32.01,0 -48.09,0 0,-21.62 0,-43.16 0,-64.82 15.96,-0.01 31.88,-0.01 48.11,-0.01 z"
   id="path20"
   inkscape:connector-curvature="0"
   style="fill:#ffffff" />
		<path
   d="m 274.08,269.42 c -2.01,0 -3.89,0 -5.88,0 0,-4.56 0,-8.99 0,-13.6 8.54,0 17.14,0 25.84,0 0,4.46 0,8.89 0,13.47 -1.86,0 -3.74,0 -5.6,0 -0.61,3.23 -0.79,26.88 -0.3,37.57 1.86,0 3.75,0 5.81,0 0,4.65 0,9.17 0,13.8 -8.51,0 -17.03,0 -25.7,0 0,-4.49 0,-9.01 0,-13.66 1.94,0 3.82,0 5.83,0 0,-12.48 0,-24.82 0,-37.58 z"
   id="path22"
   inkscape:connector-curvature="0"
   style="fill:#ffffff" />
	</g>
</g>
</svg>