<?xml version="1.0" encoding="UTF-8" standalone="no"?>
<svg
   xmlns:bx="https://boxy-svg.com"
   xmlns:dc="http://purl.org/dc/elements/1.1/"
   xmlns:cc="http://creativecommons.org/ns#"
   xmlns:rdf="http://www.w3.org/1999/02/22-rdf-syntax-ns#"
   xmlns:svg="http://www.w3.org/2000/svg"
   xmlns="http://www.w3.org/2000/svg"
   xmlns:sodipodi="http://sodipodi.sourceforge.net/DTD/sodipodi-0.dtd"
   xmlns:inkscape="http://www.inkscape.org/namespaces/inkscape"
   version="1.1"
   id="svg18"
   sodipodi:docname="c64.svg"
   width="264"
   height="37.999969"
   inkscape:version="0.92.5 (2060ec1f9f, 2020-04-08)">
  <metadata
     id="metadata24">
    <rdf:RDF>
      <cc:Work
         rdf:about="">
        <dc:format>image/svg+xml</dc:format>
        <dc:type
           rdf:resource="http://purl.org/dc/dcmitype/StillImage" />
      </cc:Work>
    </rdf:RDF>
  </metadata>
  <defs
     id="defs22" />
  <sodipodi:namedview
     pagecolor="#ffffff"
     bordercolor="#666666"
     borderopacity="1"
     objecttolerance="10"
     gridtolerance="10"
     guidetolerance="10"
     inkscape:pageopacity="0"
     inkscape:pageshadow="2"
     inkscape:window-width="532"
     inkscape:window-height="460"
     id="namedview20"
     showgrid="false"
     inkscape:zoom="2.36"
     inkscape:cx="50"
     inkscape:cy="-12.000032"
     inkscape:window-x="72"
     inkscape:window-y="27"
     inkscape:window-maximized="0"
     inkscape:current-layer="svg18" />
  <g
     transform="scale(0.408101,0.406804)"
     id="g14">
    <path
       id="path1922"
       d="m 60.855,26.64 h 38.94 L 82.746,44.415 H 60.855 Z"
       style="fill:#ffffff;fill-opacity:1"
       bx:origin="-1.563 -1.499"
       inkscape:connector-curvature="0" />
    <path
       id="path3805"
       d="M 60.819,66.777 H 99.756 L 82.71,49.002 H 60.819 Z"
       style="fill:#ffffff;fill-opacity:1"
       bx:origin="-1.562 -2.757"
       inkscape:connector-curvature="0" />
    <path
       id="path4382"
       d="m 60.009,1.833 v 22.395 c -3.981,-2.463 -8.406,-3.681 -13.284,-3.681 -4.653,0 -8.973,1.167 -12.951,3.519 -3.984,2.331 -7.116,5.523 -9.405,9.57 -2.289,4.023 -3.435,8.361 -3.435,12.969 0,4.662 1.149,8.967 3.435,12.945 2.289,3.966 5.433,7.116 9.435,9.441 3.996,2.319 8.301,3.492 12.921,3.492 4.833,0 9.264,-1.179 13.281,-3.516 v 22.494 c -4.314,1.302 -8.742,1.95 -13.281,1.95 -8.331,0 -16.107,-2.1 -23.31,-6.303 C 16.218,82.905 10.506,77.187 6.303,69.99 2.1,62.793 0,54.993 0,46.608 0,40.395 1.215,34.41 3.654,28.659 6.093,22.917 9.477,17.892 13.818,13.587 18.147,9.285 23.121,5.949 28.713,3.573 34.32,1.191 40.32,0 46.725,0 51.15,0 55.578,0.624 60.009,1.833"
       style="fill:#ffffff;fill-opacity:1"
       bx:origin="0 0"
       inkscape:connector-curvature="0" />
    <path
       id="path4340"
       d="m 163.659,50.055 c -0.198,5.556 -0.891,7.947 -3.066,10.125 -3.165,3.216 -7.224,4.065 -20.292,4.065 -10.173,0 -14.454,-0.705 -17.748,-3.093 -3.231,-2.241 -4.284,-5.829 -4.284,-14.601 0,-7.998 0.984,-11.511 3.927,-13.89 3.156,-2.595 7.512,-3.363 18.732,-3.363 11.01,0 15.855,0.837 19.023,3.432 2.67,2.103 3.561,4.707 3.759,10.944 h -12.609 c -0.423,-3.78 -2.871,-5.052 -10.173,-5.052 -8.631,0 -10.239,1.332 -10.239,8.277 0,4.356 0.702,6.039 2.949,6.954 1.47,0.636 4.137,0.981 7.431,0.981 7.296,0 9.402,-0.981 9.963,-4.776 z"
       style="fill:#ffffff;fill-opacity:1"
       bx:origin="-2.603 -0.838"
       inkscape:connector-curvature="0" />
    <path
       id="path4342"
       d="m 208.971,32.379 c 3.363,2.454 4.302,5.466 4.302,13.821 0,9.123 -0.843,12.219 -3.858,14.739 -3.165,2.601 -7.32,3.309 -19.587,3.309 -12.417,0 -16.572,-0.708 -19.689,-3.309 -3.117,-2.52 -3.909,-5.613 -3.909,-15.234 0,-7.779 0.99,-10.938 4.305,-13.326 3.066,-2.244 7.911,-3.021 19.242,-3.021 11.328,0 16.125,0.774 19.194,3.021 m -30.324,14.667 c 0,4.419 0.594,5.892 2.817,6.807 1.536,0.699 4.353,1.05 8.361,1.05 9.399,0 11.031,-1.197 11.031,-8.217 0,-4.488 -0.744,-6.099 -3.018,-7.005 -1.581,-0.633 -4.503,-0.99 -8.013,-0.99 -9.495,0 -11.178,1.263 -11.178,8.355"
       style="fill:#ffffff;fill-opacity:1"
       bx:origin="-3.534 -0.841"
       inkscape:connector-curvature="0" />
    <path
       id="path4344"
       d="m 227.469,30.207 v 4.977 h 0.645 c 1.83,-3.993 6.036,-5.826 13.404,-5.826 8.016,0 12.417,2.037 15.09,6.954 2.127,-4.986 6.183,-6.954 14.295,-6.954 6.873,0 10.98,1.269 13.848,4.281 2.868,2.946 3.513,5.685 3.513,14.235 V 63.396 H 275.847 V 47.874 c -0.099,-5.532 -0.249,-6.159 -1.437,-7.359 -1.236,-1.26 -3.363,-1.824 -6.972,-1.824 -3.759,0 -6.084,0.633 -7.371,2.109 -1.434,1.542 -1.83,3.507 -1.83,8.904 V 63.396 H 245.82 V 47.874 c 0,-5.181 -0.147,-6.096 -1.332,-7.359 -1.14,-1.26 -3.315,-1.824 -6.879,-1.824 -3.759,0 -6.183,0.633 -7.566,2.034 -1.434,1.404 -1.83,3.51 -1.83,8.979 V 63.396 H 215.796 V 30.207 Z"
       style="fill:#ffffff;fill-opacity:1"
       bx:origin="-2.978 -0.863"
       inkscape:connector-curvature="0" />
    <path
       id="path4346"
       d="m 302.856,30.207 v 4.977 h 0.594 c 1.83,-3.993 6.033,-5.826 13.404,-5.826 8.016,0 12.417,2.037 15.09,6.954 2.127,-4.986 6.183,-6.954 14.343,-6.954 6.876,0 10.932,1.269 13.8,4.281 2.868,2.946 3.513,5.685 3.513,14.235 V 63.396 H 351.186 V 47.874 c -0.051,-5.532 -0.201,-6.159 -1.386,-7.359 -1.287,-1.26 -3.366,-1.824 -7.026,-1.824 -3.708,0 -6.033,0.633 -7.371,2.109 -1.431,1.542 -1.827,3.507 -1.827,8.904 V 63.396 H 321.159 V 47.874 c 0,-5.181 -0.15,-6.096 -1.335,-7.359 -1.14,-1.26 -3.315,-1.824 -6.876,-1.824 -3.711,0 -6.186,0.633 -7.569,2.034 -1.434,1.404 -1.83,3.51 -1.83,8.979 V 63.396 H 291.135 V 30.207 Z"
       style="fill:#ffffff;fill-opacity:1"
       bx:origin="-4.018 -0.863"
       inkscape:connector-curvature="0" />
    <path
       id="path4348"
       d="m 409.014,32.379 c 3.36,2.454 4.251,5.466 4.251,13.821 0,9.123 -0.84,12.219 -3.855,14.739 -3.168,2.601 -7.272,3.309 -19.59,3.309 -12.417,0 -16.521,-0.708 -19.686,-3.309 -3.069,-2.52 -3.861,-5.613 -3.861,-15.234 0,-7.779 0.99,-10.938 4.305,-13.326 3.066,-2.244 7.914,-3.021 19.191,-3.021 11.379,0 16.128,0.774 19.245,3.021 M 378.69,47.046 c 0,4.419 0.543,5.892 2.817,6.807 1.536,0.699 4.353,1.05 8.31,1.05 9.447,0 11.031,-1.197 11.031,-8.217 0,-4.488 -0.693,-6.099 -3.018,-7.005 -1.533,-0.633 -4.5,-0.99 -8.013,-0.99 -9.447,0 -11.127,1.263 -11.127,8.355"
       style="fill:#ffffff;fill-opacity:1"
       bx:origin="-7.795 -0.841"
       inkscape:connector-curvature="0" />
    <path
       id="path4350"
       d="m 462.783,63.396 h -11.676 v -4.353 h -0.645 c -2.373,4.002 -5.685,5.202 -14.688,5.202 -8.958,0 -13.257,-0.918 -16.128,-3.51 -2.724,-2.529 -3.561,-5.904 -3.561,-14.184 0,-8.424 1.335,-12.417 4.845,-14.727 3.018,-1.974 6.432,-2.526 14.988,-2.526 8.706,0 11.574,1.119 13.95,5.334 h 0.495 V 16.59 h 12.414 V 63.396 Z M 428.499,46.413 c 0,7.29 1.386,8.418 10.737,8.418 4.551,0 7.914,-0.558 9.348,-1.542 1.386,-0.921 1.878,-2.679 1.878,-6.534 0,-6.861 -1.632,-8.133 -10.485,-8.133 -9.792,0 -11.478,1.128 -11.478,7.791"
       style="fill:#ffffff;fill-opacity:1"
       bx:origin="-8.91 -0.348"
       inkscape:connector-curvature="0" />
    <path
       id="path4352"
       d="m 507.747,32.379 c 3.363,2.454 4.302,5.466 4.302,13.821 0,9.123 -0.84,12.219 -3.858,14.739 -3.168,2.601 -7.32,3.309 -19.59,3.309 -12.414,0 -16.521,-0.708 -19.689,-3.309 -3.114,-2.52 -3.855,-5.613 -3.855,-15.234 0,-7.779 0.99,-10.938 4.254,-13.326 3.117,-2.244 7.965,-3.021 19.245,-3.021 11.376,0 16.122,0.774 19.191,3.021 m -30.276,14.667 c 0,4.419 0.546,5.892 2.823,6.807 1.482,0.699 4.299,1.05 8.307,1.05 9.396,0 11.031,-1.197 11.031,-8.217 0,-4.488 -0.693,-6.099 -3.018,-7.005 -1.533,-0.633 -4.5,-0.99 -8.013,-0.99 -9.447,0 -11.13,1.263 -11.13,8.355"
       style="fill:#ffffff;fill-opacity:1"
       bx:origin="-9.897 -0.841"
       inkscape:connector-curvature="0" />
    <path
       id="path4354"
       d="m 526.296,30.207 v 4.977 h 0.645 c 2.274,-4.215 5.787,-5.826 12.762,-5.826 9.99,0 13.356,3.372 13.356,13.335 v 2.244 h -11.676 c 0,-4.917 -1.434,-6.246 -6.528,-6.246 -2.82,0 -5.145,0.846 -6.333,2.388 -1.188,1.614 -1.533,3.438 -1.533,8.562 V 63.396 H 514.572 V 30.207 Z"
       style="fill:#ffffff;fill-opacity:1"
       bx:origin="-13.37 -0.863"
       inkscape:connector-curvature="0" />
    <path
       id="path4356"
       d="m 599.751,52.8 c -0.939,9.195 -5.49,11.445 -23.25,11.445 -9.594,0 -14.148,-0.849 -17.166,-3.093 -3.264,-2.454 -4.203,-5.763 -4.203,-14.253 0,-8.91 0.936,-12.21 4.452,-14.658 3.264,-2.244 7.371,-2.943 18.201,-2.943 11.181,0 15.138,0.699 18.156,3.147 2.919,2.457 4.059,6.177 4.059,13.686 0,0.42 0,1.959 -0.051,3.36 h -32.451 c 0,3.375 0.399,4.491 1.584,5.412 1.335,0.984 3.909,1.41 8.409,1.41 7.914,0 9.396,-0.564 9.894,-3.51 z M 587.535,42.693 c -0.102,-2.598 -0.246,-3.225 -0.993,-4.002 -1.137,-1.197 -3.657,-1.683 -8.553,-1.683 -8.361,0 -10.338,1.053 -10.488,5.685 z"
       style="fill:#ffffff;fill-opacity:1"
       bx:origin="-12.373 -0.838"
       inkscape:connector-curvature="0" />
  </g>
  <path
     d="m 253.419,23.24 c -0.517,0 -0.992,-0.113 -1.424,-0.338 -0.43,-0.222 -0.769,-0.545 -1.016,-0.968 -0.248,-0.421 -0.372,-0.912 -0.372,-1.473 0,-0.396 0.062,-0.785 0.184,-1.167 0.122,-0.385 0.381,-0.939 0.775,-1.66 0.397,-0.722 1.03,-1.795 1.898,-3.222 l 1.098,0.639 c -0.746,1.122 -1.336,2.063 -1.771,2.823 -0.03,0.054 -0.06,0.107 -0.09,0.159 -0.033,0.053 -0.06,0.092 -0.082,0.113 0.123,-0.113 0.286,-0.204 0.49,-0.272 0.207,-0.068 0.444,-0.102 0.71,-0.102 0.503,0 0.95,0.119 1.339,0.358 0.386,0.238 0.684,0.557 0.893,0.956 0.21,0.399 0.315,0.83 0.315,1.294 0,0.593 -0.126,1.107 -0.376,1.537 -0.25,0.435 -0.599,0.763 -1.045,0.985 -0.446,0.225 -0.955,0.338 -1.526,0.338 z m 0.082,-1.116 c 0.478,0 0.857,-0.151 1.134,-0.455 0.278,-0.304 0.417,-0.696 0.417,-1.175 0,-0.502 -0.143,-0.898 -0.429,-1.189 -0.286,-0.293 -0.649,-0.438 -1.09,-0.438 -0.486,0 -0.877,0.147 -1.171,0.442 -0.294,0.297 -0.441,0.699 -0.441,1.209 0,0.464 0.151,0.847 0.453,1.151 0.3,0.304 0.675,0.455 1.127,0.455 z m 7.997,0.944 v -2.095 h -3.84 l 2.412,-6.561 1.188,0.444 -1.817,4.922 h 2.057 l 0.07,-1.904 h 1.265 v 1.904 H 264 v 1.195 h -1.167 v 2.095 z"
     style="white-space:pre;fill:#ffffff"
     id="path16"
     inkscape:connector-curvature="0" />
</svg>
