<?xml version="1.0" encoding="UTF-8" standalone="no"?>
<svg
   xmlns:dc="http://purl.org/dc/elements/1.1/"
   xmlns:cc="http://creativecommons.org/ns#"
   xmlns:rdf="http://www.w3.org/1999/02/22-rdf-syntax-ns#"
   xmlns:svg="http://www.w3.org/2000/svg"
   xmlns="http://www.w3.org/2000/svg"
   xmlns:sodipodi="http://sodipodi.sourceforge.net/DTD/sodipodi-0.dtd"
   xmlns:inkscape="http://www.inkscape.org/namespaces/inkscape"
   version="1.1"
   id="svg5"
   sodipodi:docname="colecovision.svg"
   width="264"
   height="77.999947"
   inkscape:version="0.92.5 (2060ec1f9f, 2020-04-08)">
  <metadata
     id="metadata11">
    <rdf:RDF>
      <cc:Work
         rdf:about="">
        <dc:format>image/svg+xml</dc:format>
        <dc:type
           rdf:resource="http://purl.org/dc/dcmitype/StillImage" />
      </cc:Work>
    </rdf:RDF>
  </metadata>
  <defs
     id="defs9" />
  <sodipodi:namedview
     pagecolor="#ffffff"
     bordercolor="#666666"
     borderopacity="1"
     objecttolerance="10"
     gridtolerance="10"
     guidetolerance="10"
     inkscape:pageopacity="0"
     inkscape:pageshadow="2"
     inkscape:window-width="640"
     inkscape:window-height="480"
     id="namedview7"
     showgrid="false"
     inkscape:zoom="2.36"
     inkscape:cx="50"
     inkscape:cy="27.999947"
     inkscape:window-x="72"
     inkscape:window-y="27"
     inkscape:window-maximized="0"
     inkscape:current-layer="svg5" />
  <g
     transform="scale(0.44,0.439179)"
     id="g3">
    <path
       d="m 295.2,91.202 v 24.801 h -70.4 c -8.048,0 -7.597,7.999 0,7.999 0,0 30.933,0 46.399,0 36.151,0 36.141,53.599 0,53.599 -24.267,0 -72.799,0 -72.799,0 v -23.999 c 0,0 46.399,0 69.599,0 8.331,0 7.766,-8 0,-8 -14.4,0 -43.199,0 -43.199,0 -37.148,0 -37.017,-54.4 0,-54.4 23.466,0 70.4,0 70.4,0 z m 161.601,0 H 539.2 c 14.789,0 27.966,11.483 28,27.201 v 59.199 h -29.6 v -51.197 c 0,-8.547 -5.082,-10.278 -11.202,-10.401 H 486.4 v 61.598 h -29.601 v -86.4 z m -77.599,24.095 c -7.866,0.047 -11.201,4.986 -11.201,11.104 v 16.001 c 0,6.646 5.714,11.199 11.201,11.199 h 32.8 c 3.891,0 10.402,-2.633 10.402,-11.199 v -16.001 c 0,-5.384 -3.274,-11.339 -10.402,-11.3 z M 368.001,91.202 h 55.201 c 17.524,0 28.799,11.934 28.799,26.398 v 31.998 c 0,22.691 -19.605,28.001 -28.799,28.001 h -55.201 c -20.735,0 -29.6,-16.685 -29.6,-28.001 V 117.6 c 0,-18.425 16.489,-26.398 29.6,-26.398 z m -64.8,0 h 29.6 v 86.399 h -29.6 z m -142.402,0 h 29.6 v 86.399 h -29.6 z m -134.4,0 h 32.8 l 31.999,56 37.601,-56 h 27.2 l -51.2,86.402 H 77.906 Z M 290.401,0.001 H 384 v 21.601 h -64.8 v 8 H 384 v 21.601 h -64.8 c 0,7.941 5.835,11.2 11.999,11.2 H 384 v 23.199 h -68 c -15.236,0 -25.711,-12.647 -25.675,-26.399 z m -75.202,0 H 244 v 51.2 c 0,7.354 5.543,11.275 12,11.199 h 31.201 V 85.6 H 242.4 c -12.72,0 -27.199,-5.717 -27.199,-26.399 z M 480.802,0 H 416 c -18.643,0 -26.356,17.149 -26.398,26.399 v 31.999 c 0,20.753 17.073,28.121 26.398,28.001 h 64.802 v -24 H 431.2 c -3.531,0 -11.999,-2.613 -11.999,-10.4 V 35.2 c 0,-8.003 6.024,-11.201 11.999,-11.201 h 49.602 V 0 Z m 46.399,24.097 C 519.336,24.142 516,29.082 516,35.2 v 16.001 c 0,6.647 5.714,11.199 11.201,11.199 h 32.801 c 3.89,0 10.401,-2.634 10.401,-11.199 V 35.202 c 0,-5.381 -3.278,-11.339 -10.401,-11.297 z M 516,0.001 h 55.203 C 588.723,0.001 600,11.935 600,26.4 V 58.399 C 600,81.09 580.395,86.4 571.203,86.4 H 516 c -20.733,0 -29.6,-16.684 -29.6,-28.001 V 26.4 C 486.401,7.975 502.89,0.001 516,0.001 Z M 136.799,24.097 c -7.865,0.046 -11.2,4.985 -11.2,11.104 v 16.001 c 0,6.647 5.715,11.199 11.2,11.199 h 32.8 c 3.889,0 10.4,-2.634 10.4,-11.199 v -16 c 0,-5.381 -3.279,-11.339 -10.4,-11.297 z M 125.599,0.001 H 180.8 c 17.52,0 28.801,11.934 28.801,26.399 V 58.399 C 209.601,81.09 189.995,86.4 180.8,86.4 h -55.201 c -20.734,0 -28.8,-16.684 -28.8,-28.001 V 26.4 c 0,-18.425 15.689,-26.399 28.8,-26.399 z m -34.399,0 H 26.4 C 7.755,0.001 0.042,17.15 0,26.4 V 58.399 C 0,79.152 17.072,86.52 26.4,86.4 H 91.2 V 62.401 H 40.799 c -3.528,0 -12,-2.614 -12,-10.4 V 35.202 c 0,-8.002 6.025,-11.201 12,-11.201 H 91.2 Z"
       id="path20"
       style="fill:#ffffff;fill-opacity:1"
       inkscape:connector-curvature="0" />
  </g>
</svg>
