<?xml version="1.0" encoding="UTF-8" standalone="no"?>
<svg
   xmlns:dc="http://purl.org/dc/elements/1.1/"
   xmlns:cc="http://creativecommons.org/ns#"
   xmlns:rdf="http://www.w3.org/1999/02/22-rdf-syntax-ns#"
   xmlns:svg="http://www.w3.org/2000/svg"
   xmlns="http://www.w3.org/2000/svg"
   xmlns:sodipodi="http://sodipodi.sourceforge.net/DTD/sodipodi-0.dtd"
   xmlns:inkscape="http://www.inkscape.org/namespaces/inkscape"
   version="1.1"
   id="svg13"
   sodipodi:docname="dreamcast.svg"
   width="264"
   height="44.999989"
   inkscape:version="0.92.5 (2060ec1f9f, 2020-04-08)">
  <metadata
     id="metadata19">
    <rdf:RDF>
      <cc:Work
         rdf:about="">
        <dc:format>image/svg+xml</dc:format>
        <dc:type
           rdf:resource="http://purl.org/dc/dcmitype/StillImage" />
      </cc:Work>
    </rdf:RDF>
  </metadata>
  <defs
     id="defs17" />
  <sodipodi:namedview
     pagecolor="#ffffff"
     bordercolor="#666666"
     borderopacity="1"
     objecttolerance="10"
     gridtolerance="10"
     guidetolerance="10"
     inkscape:pageopacity="0"
     inkscape:pageshadow="2"
     inkscape:window-width="532"
     inkscape:window-height="460"
     id="namedview15"
     showgrid="false"
     inkscape:zoom="2.36"
     inkscape:cx="50"
     inkscape:cy="-5.0003962"
     inkscape:window-x="72"
     inkscape:window-y="27"
     inkscape:window-maximized="0"
     inkscape:current-layer="svg13" />
  <g
     transform="matrix(0.44,0,0,0.436879,0,1.6863544e-4)"
     id="g11">
    <path
       d="m 133.461,21.019 c 0,-2.616 -0.498,-6.007 -1.657,-7.432 7.58,0 23.95,0.048 30.968,0.048 16.149,0 40.51,8.962 40.51,39.177 0,22.426 -17.199,39.129 -40.51,39.129 -5.113,0 -24.634,-0.06 -31.562,-0.06 1.42,-2.622 2.251,-6.178 2.251,-8.986 z m 11.611,63.244 c 7.454,0.969 14.334,1.266 20.557,0.378 6.025,-0.861 26.26,-5.221 26.134,-32.087 -0.117,-25.465 -15.843,-31.286 -27.962,-31.997 -6.322,-0.375 -12.428,-0.135 -18.729,0.957 z"
       id="path11"
       style="fill:#ffffff;fill-opacity:1"
       inkscape:connector-curvature="0" />
    <path
       d="m 209.934,37.645 11.602,-1.813 c 0,2.377 0,9.341 0,10.217 2.974,-7.354 12.236,-13.265 25.39,-8.143 l -3.081,8.077 c -12.044,-5.716 -22.309,-0.702 -22.309,12.671 v 27.595 c 0,1.314 0.285,3.964 1.072,5.665 h -12.053 c 1.218,-1.5 1.782,-4.351 1.782,-5.665 V 46.445 c -0.003,-2.889 -0.591,-7.357 -2.403,-8.8 z"
       id="path13"
       style="fill:#ffffff;fill-opacity:1"
       inkscape:connector-curvature="0" />
    <path
       d="m 576.725,43.181 c 0,0.753 0,32.852 0,35.246 0,11.066 7.628,14.024 13.28,14.024 2.386,0.117 5.773,-0.441 8.138,-0.966 l 1.452,-6.829 c -2.754,1.053 -5.956,1.302 -7.879,1.302 -3.541,0 -6.103,-2.352 -6.103,-6.031 0,-3.3 -0.084,-35.654 0,-36.686 h -0.039 c 0.471,0 7.822,-0.027 8.563,0 2.409,0.084 4.261,0.231 5.854,0.873 L 600,37.681 c 0,0 -14.111,-0.018 -14.387,-0.018 l 0.057,-16.497 -10.691,2.953 c 1.473,1.38 1.953,5.416 1.953,8.077 0,0 -0.009,4.927 -0.009,5.521 -0.48,0 -5.91,0.03 -6.808,0.03 v 5.434 c 0.952,-0.003 6.61,0 6.61,0 z"
       id="path15"
       style="fill:#ffffff;fill-opacity:1"
       inkscape:connector-curvature="0" />
    <path
       d="m 530.515,80.452 c 4.597,3.283 11.807,6.199 17.097,6.199 7.336,0 12.593,-3.57 12.593,-10.288 0,-12.404 -28.28,-10.349 -28.28,-26.086 0,-10.643 9.515,-14.646 18.582,-14.646 2.914,0 9.569,0.634 13.8,2.269 l -0.037,7.27 c -3.756,-3.214 -9.493,-3.988 -13.271,-3.988 -5.998,0 -10.504,2.977 -10.504,8.816 0,8.569 28.255,8.074 28.255,25.669 0,11.377 -9.856,16.682 -20.706,16.682 -5.287,0 -10.802,-0.936 -15.389,-2.25 z"
       id="path17"
       style="fill:#ffffff;fill-opacity:1"
       inkscape:connector-curvature="0" />
    <path
       d="m 359.81,43.292 c 0,-0.642 0.024,-6.406 0.024,-7.144 l -11.747,1.815 c 1.416,1.485 2.502,6.112 2.502,9.418 v 38.484 c 0,1.314 -0.561,4.501 -1.782,6.001 h 12.806 c -1.215,-1.5 -1.779,-4.687 -1.779,-6.001 V 56.911 c 0,-10.595 6.553,-14.303 13.079,-14.303 5.905,0 11.24,2.553 11.24,14.303 v 28.957 c 0,1.314 -0.565,4.501 -1.78,5.998 h 12.419 c -1.218,-1.5 -1.779,-4.687 -1.779,-5.998 V 56.911 c 0,-11.747 7.258,-14.303 13.175,-14.303 5.902,0 12.074,3.705 12.074,14.303 v 28.957 c 0,1.314 -0.558,4.501 -1.782,5.998 h 11.962 c -1.227,-1.5 -1.782,-4.687 -1.782,-5.998 V 51.414 c 0,-5.875 -5.995,-15.284 -19.986,-15.284 -8.14,0 -12.842,3.621 -16.409,6.739 -3.037,-3.544 -7.979,-6.865 -15.918,-6.865 -7.735,-0.003 -12.305,4.53 -14.537,7.288 z"
       id="path19"
       style="fill:#ffffff;fill-opacity:1"
       inkscape:connector-curvature="0" />
    <path
       d="m 332.115,61.345 c -1.677,1.579 -5.187,2.803 -8.809,3.28 -9.523,1.248 -17.772,2.829 -17.772,12.104 0,5.5 6.001,9.832 10.751,9.832 12.581,0 15.834,-9.079 15.834,-16.229 V 61.345 Z M 302.393,38.653 c 4.801,-1.923 12.551,-2.809 17.409,-2.809 12.409,0 20.655,6.202 20.655,20.593 v 23.877 c 0,4.423 0.066,8.612 1.644,11.552 h -9.974 l -0.36,-6.28 c -3.774,4.876 -8.29,7.057 -15.95,7.057 -15.113,0 -18.414,-10.327 -18.414,-15.287 0,-17.712 16.857,-17.916 24.178,-18.96 4.05,-0.573 9.259,-1.719 10.045,-5.515 1.291,-6.28 -3.198,-10.991 -12.371,-10.991 -6.736,0 -12.25,2.05 -16.859,4.804 z M 516.8,61.345 c -1.677,1.579 -5.188,2.803 -8.812,3.28 -9.521,1.248 -17.766,2.829 -17.766,12.104 0,5.5 5.995,9.832 10.745,9.832 12.578,0 15.833,-9.079 15.833,-16.229 z M 487.078,38.653 c 4.803,-1.923 12.556,-2.809 17.414,-2.809 12.401,0 20.649,6.202 20.649,20.593 v 23.877 c 0,4.423 -0.966,8.522 1.639,11.552 h -9.974 l -0.363,-6.28 c -3.778,4.876 -8.284,7.057 -15.944,7.057 -15.108,0 -18.411,-10.327 -18.411,-15.287 0,-17.712 16.856,-17.916 24.174,-18.96 4.051,-0.573 9.266,-1.719 10.043,-5.515 1.293,-6.28 -3.195,-10.991 -12.374,-10.991 -6.73,0 -12.245,2.05 -16.857,4.804 v -8.041 z"
       id="path21"
       style="fill:#ffffff;fill-opacity:1"
       inkscape:connector-curvature="0" />
    <path
       d="m 476.459,45.974 c -3.742,-2.184 -9.647,-3.916 -13.766,-3.916 -14.465,0 -21.097,8.894 -21.097,21.706 0,12.692 6.481,22.413 20.632,22.413 4.845,0 11.446,-2.178 16.571,-5.326 l -2.085,9.338 c -5.215,1.551 -9.608,2.289 -15.425,2.289 -19.882,0 -29.201,-14.099 -29.201,-28.774 0,-16.215 12.5,-27.619 29.42,-27.619 7.393,0 12.791,1.812 14.969,2.43 z"
       id="path23"
       style="fill:#ffffff;fill-opacity:1"
       inkscape:connector-curvature="0" />
    <path
       d="m 253.899,64.442 c 0.009,-1.338 0.189,-2.616 0.339,-3.856 h 38.469 c 0,-13.223 -6.616,-24.567 -22.281,-24.567 -16.263,0 -25.918,12.718 -25.918,28.939 0,14.666 10.748,27.775 29.158,27.775 5.818,0 10.685,-1.434 15.939,-3.273 l 1.848,-9.38 c -4.492,3.7 -11.753,5.89 -18.309,5.89 -11.779,0 -19.296,-8.53 -19.245,-21.528 z m 1.558,-9.722 c 1.248,-6.433 7.201,-12.986 14.327,-12.986 10.886,0 14.036,8.495 14.036,12.986 -0.003,0 -28.363,0.021 -28.363,0 z"
       id="path25"
       style="fill:#ffffff;fill-opacity:1"
       inkscape:connector-curvature="0" />
    <path
       d="m 70.697,1.399 c 4.315,0.648 8.722,2.154 11.021,2.857 4.629,1.416 12.146,5.814 14.801,7.924 1.257,0.999 3.898,3.612 4.921,4.927 0.996,1.281 2.898,4.056 4.11,5.766 1.936,2.824 4.21,7.028 6.139,10.895 2.155,4.324 2.305,5.575 2.956,9.188 l 1.425,6.37 c 0.135,1.101 0.246,5.142 -2.127,5.706 -2.368,0.568 -4.561,-0.525 -5.596,-2.124 -1.428,-2.211 -1.23,-5.353 -2.851,-8.947 -1.26,-2.908 -1.809,-7.129 -3.825,-10.166 l -1.578,-2.673 C 97.296,26.819 94.383,23.405 92.648,21.175 91.115,19.303 88.256,16.762 85.549,14.952 83.044,13.431 78.996,11.7 76.074,10.809 75.144,10.506 71.159,9.332 68.687,9.002 65.323,8.627 63.115,8.096 59.922,7.871 55.98,7.592 54.092,7.241 48.977,7.841 c -1.939,0.525 -5.005,0.732 -7.769,1.788 -2.229,0.91 -5.328,2.38 -8.368,4.165 -3.273,1.794 -8.236,5.461 -11.531,8.593 -3.318,3.544 -4.977,5.449 -7.264,9.941 -1.014,2.223 -2.973,5.665 -3.765,8.095 -0.54,2.464 -1.57,7.063 -1.399,9.296 0.081,3.999 -0.27,4.827 0.03,8.098 0.012,2.943 0.979,4.984 1.381,7.393 0.342,1.665 1.941,7.42 2.928,8.761 4.486,9.671 10.514,13.86 17.229,16.884 1.893,0.966 7.816,2.55 9.526,3.003 2.926,0.526 6.769,0.88 10.469,0.952 3.894,0.075 9.262,-0.45 12.515,-1.654 3.525,-1.296 7.603,-3.138 7.558,-3.084 1.632,-0.903 4.132,-2.376 4.906,-3.022 1.503,-0.963 2.409,-1.335 3.297,-2.262 1.287,-1.122 2.062,-1.77 3.037,-3.162 0.54,-0.784 1.404,-1.984 2.238,-3.046 0.9,-1.479 1.419,-3.036 2.298,-4.96 1.054,-2.85 0.889,-2.712 1.09,-5.737 0.192,-0.876 -0.021,-3.822 -0.177,-4.323 -0.475,-2.719 -0.31,-5.116 -0.931,-7.756 -0.837,-3.571 -1.539,-6.244 -2.61,-9.671 -1.011,-3.859 -3.973,-7.432 -6.196,-9.985 -1.377,-1.585 -5.653,-5.32 -11.582,-7.655 -1.671,-0.561 -4.401,-1.197 -6.136,-1.515 -3.708,-0.387 -4.311,-0.138 -7.858,0.12 -1.221,0.213 -4.054,0.792 -5.098,1.158 -3.045,1.071 -4.167,1.753 -7.282,3.658 -1.449,0.843 -2.544,1.488 -4.026,2.877 -1.183,1.095 -2.032,2.956 -2.986,4.048 -1.314,1.785 -2.775,4.168 -3.757,6.739 -1.062,2.556 -1.404,6.154 -1.242,8.47 0,1.762 0.48,4.996 0.669,5.701 0.192,0.708 0.669,2.902 0.771,3.343 0.106,0.441 1.246,2.763 1.405,3.099 0.645,1.371 1.875,3.337 3.948,5.347 1.534,1.671 4.492,3.313 6.709,3.949 1.987,1.092 5.338,1.275 7.195,1.278 0.91,-0.054 3.241,-0.198 4.459,-0.489 2.467,-0.591 2.92,-0.606 5.464,-1.711 2.28,-1.059 3.829,-1.44 5.416,-2.613 0,0 2.181,-1.707 3.174,-2.958 0.522,-0.657 1.42,-3.805 1.261,-5.752 -0.075,-2.668 0.315,-4.18 -0.232,-6.373 -0.546,-2.194 -1.473,-4.735 -2.481,-6.301 -1.02,-1.587 -3.21,-3.133 -5.704,-4.366 -1.401,-0.69 -4.711,-1.329 -6.115,-1.494 -2.667,-0.318 -4.896,0.894 -6.253,2.277 -1.176,1.344 -3.498,4.132 -2.574,7.018 0.837,2.608 1.851,5.389 5.764,5.182 2.688,0.558 5.794,-0.249 6.829,0.225 1.533,0.87 2.124,2.797 1.566,4.141 -0.39,2.589 -2.871,2.898 -5.515,3.099 -2.37,0.396 -8.383,-0.765 -9.703,-1.755 -0.888,-0.525 -2.248,-1.788 -3.202,-2.643 -0.69,-0.619 -1.464,-1.99 -1.998,-2.974 -0.648,-1.209 -0.981,-2.1 -1.146,-2.886 -0.201,-0.936 -0.612,-2.725 -0.456,-4.51 0.108,-1.203 0.429,-1.719 0.747,-3.481 0.639,-1.998 1.434,-3.519 2.715,-5.253 1.665,-1.69 3.781,-3.703 5.845,-4.639 1.821,-0.963 5.014,-1.314 7.897,-1.146 2.344,0.222 5.11,0.51 6.943,1.122 3.136,1.119 4.03,1.341 6.604,2.967 2.173,1.345 4.36,3.82 5.581,5.869 2.599,5.314 4.087,11.225 3.007,19.182 -0.09,1.344 -0.507,2.659 -1.347,4.441 -0.775,1.641 -2.128,3.639 -4.171,5.143 -0.819,0.759 -2.112,1.695 -3.166,2.241 -1.494,0.906 -2.499,1.377 -4.056,2.16 -1.371,0.645 -2.968,1.381 -5.05,1.96 -2.256,0.891 -3.988,0.927 -6.826,1.35 -2.79,0.702 -10.433,0.204 -14.987,-1.806 -3.106,-1.309 -6.589,-3.61 -9.242,-6.415 -1.47,-1.546 -2.913,-4.342 -3.336,-4.915 -2.107,-4.054 -2.518,-7.861 -2.857,-8.665 -0.459,-1.087 -0.687,-3.526 -0.996,-5.194 -0.348,-1.873 -0.132,-9.716 1.755,-14.751 1.069,-2.004 1.693,-3.792 2.41,-4.728 1.296,-1.846 1.923,-2.995 3.024,-4.3 1.659,-2.013 2.869,-3.658 4.486,-4.816 4.12,-3.351 7.561,-5.118 12.218,-7.33 5.785,-2.358 7.525,-1.869 13.001,-1.782 2.463,0.021 6.049,0.795 7.813,1.116 3.274,0.435 5.149,1.224 7.36,1.842 2.368,0.66 3.733,1.717 5.68,2.89 1.596,1.029 3.478,2.445 4.72,3.594 3.18,2.332 4.714,4.783 6.664,7.793 0.354,0.504 2.667,5.436 3.036,6.808 0.171,0.69 0.693,2.661 1.029,3.816 0.433,1.83 0.643,3.451 1.129,5.518 0.429,2.127 1.164,6.142 1.482,9.899 0.537,3.222 -0.324,9.796 -0.828,11.812 -1.122,3.763 -3.097,8.357 -6.985,12.782 -1.651,1.96 -3.406,3.475 -5.437,5.125 -1.548,1.293 -2.881,2.05 -5.281,3.478 -3.256,1.944 -5.734,3.186 -10.298,4.972 -1.86,0.597 -4.203,1.38 -6.727,1.902 -4.887,0.447 -9.913,0.879 -15.395,0.228 -5.485,-0.654 -10.979,-2.2 -14.225,-3.193 -1.792,-0.672 -5.26,-2.127 -6.712,-2.913 -0.948,-0.477 -4.123,-2.65 -4.66,-3.172 C 17.142,92.049 12.275,87.473 9.133,83.207 8.446,81.884 5.971,77.932 5.431,76.198 4.006,73.269 3.009,69.723 2.427,68.207 1.809,64.67 0.765,62.396 0.36,58.849 0.405,58.015 0.192,56.05 0,54.96 0.276,52.533 -0.093,50.247 0.39,47.6 0.813,45.371 1.371,44.438 1.506,42.421 1.638,41.557 2.745,38.965 3.045,37.81 c 0.898,-1.903 1.12,-3.469 2.29,-5.596 1.683,-3.31 3.447,-7.12 6.151,-10.451 0.774,-1.032 2.967,-3.507 3.711,-4.362 1.768,-1.768 2.803,-2.047 4.807,-3.817 0.204,-0.129 1.53,-1.638 2.917,-2.157 2.295,-1.774 4.278,-2.422 6.463,-4.036 4.38,-2.181 5.973,-2.919 10.321,-4.729 2.515,-0.897 6.013,-1.389 7.273,-1.878 2.401,-0.15 4.837,-0.915 7.36,-0.765 2.833,-0.024 5.689,0.177 8.537,0.435 1.92,0.114 4.425,0.207 7.822,0.945 z"
       id="path27"
       style="fill:#ffffff;fill-opacity:1"
       inkscape:connector-curvature="0" />
  </g>
</svg>
