<?xml version="1.0" encoding="UTF-8" standalone="no"?>
<svg
   xmlns:dc="http://purl.org/dc/elements/1.1/"
   xmlns:cc="http://creativecommons.org/ns#"
   xmlns:rdf="http://www.w3.org/1999/02/22-rdf-syntax-ns#"
   xmlns:svg="http://www.w3.org/2000/svg"
   xmlns="http://www.w3.org/2000/svg"
   xmlns:sodipodi="http://sodipodi.sourceforge.net/DTD/sodipodi-0.dtd"
   xmlns:inkscape="http://www.inkscape.org/namespaces/inkscape"
   version="1.1"
   id="svg6"
   sodipodi:docname="easyrpg.svg"
   width="264"
   height="66"
   inkscape:version="0.92.5 (2060ec1f9f, 2020-04-08)">
  <metadata
     id="metadata12">
    <rdf:RDF>
      <cc:Work
         rdf:about="">
        <dc:format>image/svg+xml</dc:format>
        <dc:type
           rdf:resource="http://purl.org/dc/dcmitype/StillImage" />
      </cc:Work>
    </rdf:RDF>
  </metadata>
  <defs
     id="defs10" />
  <sodipodi:namedview
     pagecolor="#ffffff"
     bordercolor="#666666"
     borderopacity="1"
     objecttolerance="10"
     gridtolerance="10"
     guidetolerance="10"
     inkscape:pageopacity="0"
     inkscape:pageshadow="2"
     inkscape:window-width="640"
     inkscape:window-height="480"
     id="namedview8"
     showgrid="false"
     inkscape:zoom="2.36"
     inkscape:cx="50"
     inkscape:cy="16"
     inkscape:window-x="72"
     inkscape:window-y="27"
     inkscape:window-maximized="0"
     inkscape:current-layer="svg6" />
  <path
     d="m 23.393,45.364 c -4.943,0 -9.165,-1.023 -12.667,-3.069 C 7.223,40.249 4.562,37.476 2.737,33.978 0.911,30.48 0,26.595 0,22.326 0,18.235 0.839,14.484 2.516,11.074 4.193,7.665 6.636,4.966 9.843,2.98 13.049,0.994 16.832,0 21.186,0 c 5.533,0 10.02,1.63 13.462,4.892 3.443,3.263 5.164,7.768 5.164,13.52 0,1.483 -0.117,2.907 -0.353,4.269 H 8.121 c 0.53,5.633 2.236,9.636 5.12,12.009 2.885,2.372 6.592,3.558 11.123,3.558 4.531,0 8.68,-0.86 12.447,-2.579 l 1.059,6.314 c -5.003,2.253 -9.827,3.381 -14.477,3.381 z M 8.828,17.167 h 22.775 c 0,-3.142 -0.883,-5.604 -2.649,-7.383 -1.765,-1.778 -4.413,-2.668 -7.944,-2.668 -3.414,0 -6.091,0.845 -8.033,2.535 -1.943,1.69 -3.326,4.196 -4.149,7.516 z M 51.95,45.364 c -4.001,0 -7.223,-1.186 -9.666,-3.558 -2.443,-2.373 -3.663,-5.397 -3.663,-9.073 0,-5.515 2.588,-9.457 7.768,-11.83 5.18,-2.373 11.211,-3.618 18.097,-3.736 0,-3.914 -0.751,-6.567 -2.252,-7.96 -1.5,-1.395 -3.899,-2.091 -7.194,-2.091 -1.825,0 -3.648,0.282 -5.473,0.845 -1.825,0.562 -3.796,1.585 -5.915,3.068 L 42.505,4.536 C 44.27,3.173 46.449,2.075 49.037,1.245 51.626,0.416 54.334,0 57.159,0 c 3.707,0 6.664,0.652 8.871,1.957 2.207,1.306 3.825,3.469 4.856,6.493 1.03,3.025 1.544,7.176 1.544,12.453 v 8.894 c 0,2.373 0.104,4.166 0.309,5.382 0.206,1.216 0.662,2.15 1.369,2.802 0.706,0.651 1.794,0.979 3.266,0.979 h 0.794 l -1.236,6.404 h -0.618 c -2.471,0 -4.413,-0.238 -5.826,-0.712 -1.412,-0.474 -2.487,-1.156 -3.222,-2.046 -0.735,-0.89 -1.428,-2.106 -2.074,-3.646 -3.648,4.269 -8.062,6.404 -13.242,6.404 z m 1.501,-6.404 c 2.119,0 4.164,-0.534 6.135,-1.602 1.971,-1.067 3.604,-2.49 4.9,-4.269 V 22.681 c -6.356,0.238 -10.903,1.084 -13.639,2.536 -2.737,1.452 -4.105,3.809 -4.105,7.071 0,2.253 0.603,3.93 1.81,5.026 1.207,1.096 2.84,1.646 4.899,1.646 z m 37.12,6.404 c -3.414,0 -6.4,-0.401 -8.96,-1.201 -2.56,-0.801 -4.517,-1.675 -5.87,-2.624 l 0.971,-7.738 c 1.176,1.067 2.986,2.074 5.429,3.023 2.443,0.951 5.135,1.424 8.077,1.424 2.765,0 4.899,-0.473 6.4,-1.424 1.501,-0.949 2.251,-2.283 2.251,-4.002 0,-2.017 -0.823,-3.543 -2.472,-4.58 -1.648,-1.039 -3.707,-1.913 -6.179,-2.625 -2.708,-0.712 -4.988,-1.467 -6.841,-2.268 -1.854,-0.801 -3.443,-2.03 -4.767,-3.691 -1.324,-1.662 -1.987,-3.855 -1.987,-6.582 0,-3.736 1.325,-6.85 3.973,-9.34 C 83.244,1.245 87.334,0 92.866,0 c 2.532,0 4.679,0.251 6.444,0.756 1.766,0.505 3.531,1.201 5.297,2.091 l -0.971,7.293 C 102.223,8.955 100.663,8.021 98.957,7.338 97.251,6.655 95.278,6.316 93.043,6.316 c -2.589,0 -4.635,0.488 -6.135,1.467 -1.501,0.978 -2.251,2.446 -2.251,4.403 0,1.305 0.353,2.357 1.059,3.158 0.706,0.8 1.706,1.467 3.001,2.001 1.296,0.533 3.295,1.216 6.003,2.046 3.354,1.007 6.252,2.43 8.695,4.269 2.443,1.839 3.664,4.744 3.664,8.717 0,3.558 -1.252,6.612 -3.752,9.162 -2.501,2.55 -6.753,3.825 -12.756,3.825 z M 112.154,66 122.13,42.517 104.121,0.89 h 8.828 L 126.455,33.267 138.637,0.89 h 8.828 L 120.982,66 Z"
     style="white-space:pre;fill:#ffffff"
     id="path2"
     inkscape:connector-curvature="0" />
  <path
     d="M 151.757,47.632 V 0.934 h 16.949 c 4.944,0 8.843,1.194 11.697,3.58 2.84,2.373 4.259,5.893 4.259,10.563 0,3.247 -0.684,5.908 -2.052,7.983 -1.369,2.061 -3.311,3.713 -5.827,4.959 l 10.461,19.613 h -9.467 l -8.938,-17.345 h -0.331 -8.276 v 17.345 z m 8.475,-24.483 h 6.223 c 6.224,0 9.335,-2.535 9.335,-7.605 0,-2.446 -0.706,-4.299 -2.118,-5.56 -1.413,-1.274 -3.708,-1.912 -6.886,-1.912 h -6.554 z m 30.764,24.483 V 0.934 h 16.485 c 10.991,0 16.486,5.025 16.486,15.077 0,5.203 -1.39,9.073 -4.171,11.608 -2.781,2.535 -6.819,3.802 -12.116,3.802 h -8.21 v 16.211 z m 8.474,-23.349 h 7.217 c 2.913,0 5.091,-0.667 6.532,-2.002 1.428,-1.334 2.141,-3.379 2.141,-6.137 0,-2.757 -0.728,-4.796 -2.185,-6.115 -1.456,-1.305 -3.685,-1.957 -6.687,-1.957 h -7.018 z m 49.369,24.283 c -4.856,0 -9.033,-1 -12.536,-3.003 -3.515,-2.001 -6.201,-4.831 -8.055,-8.494 -1.854,-3.676 -2.78,-7.961 -2.78,-12.853 0,-4.803 1.021,-9.043 3.067,-12.719 2.059,-3.663 4.922,-6.493 8.585,-8.495 C 240.783,1.001 244.977,0 249.699,0 c 2.384,0 4.701,0.245 6.952,0.734 2.251,0.489 4.193,1.156 5.826,2.001 l -0.927,8.139 c -3.84,-1.779 -7.79,-2.669 -11.851,-2.669 -4.943,0 -8.673,1.461 -11.189,4.381 -2.516,2.906 -3.773,6.738 -3.773,11.497 0,4.936 1.235,8.888 3.707,11.852 2.472,2.951 6.047,4.425 10.726,4.425 1.898,0 4.016,-0.245 6.356,-0.733 V 31.288 H 249.17 V 24.216 H 264 V 45.03 c -1.721,1.023 -3.922,1.868 -6.599,2.536 -2.663,0.667 -5.517,1 -8.562,1 z"
     style="white-space:pre;fill:#ffffff"
     id="path4"
     inkscape:connector-curvature="0" />
</svg>
