<?xml version="1.0" encoding="UTF-8" standalone="no"?>
<svg
   xmlns:dc="http://purl.org/dc/elements/1.1/"
   xmlns:cc="http://creativecommons.org/ns#"
   xmlns:rdf="http://www.w3.org/1999/02/22-rdf-syntax-ns#"
   xmlns:svg="http://www.w3.org/2000/svg"
   xmlns="http://www.w3.org/2000/svg"
   xmlns:sodipodi="http://sodipodi.sourceforge.net/DTD/sodipodi-0.dtd"
   xmlns:inkscape="http://www.inkscape.org/namespaces/inkscape"
   id="Warstwa_1"
   data-name="Warstwa 1"
   version="1.1"
   sodipodi:docname="ecwolf.svg"
   width="264.00043"
   height="47"
   inkscape:version="0.92.5 (2060ec1f9f, 2020-04-08)">
  <metadata
     id="metadata37">
    <rdf:RDF>
      <cc:Work
         rdf:about="">
        <dc:format>image/svg+xml</dc:format>
        <dc:type
           rdf:resource="http://purl.org/dc/dcmitype/StillImage" />
      </cc:Work>
    </rdf:RDF>
  </metadata>
  <defs
     id="defs35" />
  <sodipodi:namedview
     pagecolor="#ffffff"
     bordercolor="#666666"
     borderopacity="1"
     objecttolerance="10"
     gridtolerance="10"
     guidetolerance="10"
     inkscape:pageopacity="0"
     inkscape:pageshadow="2"
     inkscape:window-width="532"
     inkscape:window-height="460"
     id="namedview33"
     showgrid="false"
     inkscape:zoom="2.36"
     inkscape:cx="50"
     inkscape:cy="-3"
     inkscape:window-x="72"
     inkscape:window-y="27"
     inkscape:window-maximized="0"
     inkscape:current-layer="Warstwa_1" />
  <title
     id="title2">ecwolf</title>
  <path
     d="m 252.27,47 c -2.338,-0.135 -3.566,-1.785 -4.754,-3.499 -1.49,-2.176 -2.908,-4.401 -4.414,-6.569 -1.075,-1.549 -1.65,-3.394 -1.648,-5.285 -0.039,-3.021 -0.095,-6.05 0,-9.072 0.034,-0.953 0.306,-1.883 0.793,-2.702 1.299,-2.072 2.702,-4.074 4.167,-6.034 1.165,-1.595 1.585,-1.595 3.273,-0.654 1.513,0.861 2.971,1.81 4.476,2.694 0.451,0.239 0.913,0.453 1.387,0.638 1.418,-4.48 0,-7.971 -3.375,-10.73 L 258.094,0 c 1.505,1.379 3.169,2.942 4.864,4.44 0.733,0.654 1.115,1.618 1.031,2.599 -0.04,10.227 0,20.455 -0.048,30.683 -0.017,0.617 -0.219,1.213 -0.578,1.713 -1.886,2.552 -3.835,5.047 -5.769,7.565 z m 3.803,-20.79 c -0.111,-1.339 -0.119,-2.495 -0.325,-3.61 -0.102,-1.137 -1.226,-1.884 -2.306,-1.531 -0.554,0.109 -1.089,0.306 -1.584,0.582 -1.853,1.069 -3.343,2.675 -4.279,4.608 -1.03,2.064 -0.792,4.256 -0.848,6.457 -0.055,2.933 1.466,4.783 3.732,6.185 1.284,0.798 2.457,0.686 3.336,-0.573 0.648,-0.891 1.092,-1.915 1.299,-2.998 0.428,-3.085 0.666,-6.194 0.975,-9.12 z"
     id="path4"
     inkscape:connector-curvature="0"
     style="fill:#ffffff" />
  <path
     d="m 62.603,3.218 c 2.05,3.204 3.088,6.955 2.979,10.762 -0.103,4.783 0,9.566 0.071,14.349 0.04,3.405 0.072,3.405 1.87,6.672 l -3.724,4.744 C 63.395,40.263 63.007,40.271 62.547,39.8 61.303,38.486 60.036,37.186 58.808,35.814 58.648,35.607 58.6,35.331 58.681,35.081 60.194,32.69 60.266,29.956 60.329,27.246 60.392,23.711 60.416,20.18 60.4,16.651 60.384,14.386 59.424,12.232 57.754,10.712 57.413,10.386 57.12,10.01 56.708,9.549 l 5.705,-6.378 z"
     id="path6"
     inkscape:connector-curvature="0"
     style="fill:#ffffff" />
  <path
     d="m 13.351,11.326 6.03,-6.338 c 1.584,2.033 3.169,3.923 4.603,5.924 1.197,1.673 0.658,3.643 0.476,5.484 -0.317,3.133 -0.793,6.258 -1.141,9.383 -0.35,2.187 0.677,4.365 2.583,5.476 2.036,-2.631 4.152,-5.23 4.136,-8.833 0,-1.905 -0.19,-3.81 -0.357,-5.715 C 29.506,14.978 28.877,13.328 27.859,11.924 27.669,11.661 27.612,11.326 27.7,11.016 28.738,9.341 29.784,7.667 30.941,6.081 31.63,5.14 32.129,5.14 32.85,6.032 c 2.75,3.389 4.509,7.119 3.851,11.671 -0.582,4.199 -1.781,8.288 -3.557,12.133 -0.639,1.16 -1.35,2.279 -2.132,3.349 l -0.554,0.876 c 0.911,0 1.584,0 2.282,0 0.697,0 1.362,-0.199 2.305,-0.343 -1.18,1.97 -2.218,3.739 -3.328,5.477 -0.261,0.276 -0.613,0.449 -0.99,0.486 -2.623,0.414 -5.245,0.798 -7.876,1.172 -1.603,0.194 -3.204,-0.37 -4.334,-1.53 -1.331,-1.213 -1.458,-1.197 -3.098,-0.407 -1.196,0.582 -2.377,1.155 -3.613,1.681 C 10.439,41.234 8.824,40.966 7.733,39.92 5.747,38.267 4.18,36.164 3.161,33.782 2.851,32.878 2.711,31.924 2.749,30.968 c 0,-3.882 -0.063,-7.772 0,-11.662 C 2.902,16.871 2.253,14.453 0.903,12.426 0.586,11.963 0.341,11.438 0,10.831 L 6.046,5.323 c 2.329,2.862 4.936,5.525 4.817,9.566 -0.071,2.615 -0.301,5.213 -0.42,7.828 -0.095,1.938 -0.15,3.875 -0.15,5.819 0.033,1.355 0.577,2.645 1.521,3.612 1.022,1.148 2.306,1.179 3.724,0.797 0.043,-0.138 0.075,-0.279 0.095,-0.422 0,-4.56 0,-9.12 0,-13.68 0.082,-2.338 -0.554,-4.646 -1.822,-6.608 -0.159,-0.295 -0.286,-0.583 -0.46,-0.909 z"
     id="path8"
     inkscape:connector-curvature="0"
     style="fill:#ffffff" />
  <path
     d="m 238.111,3.157 -8.978,11.519 c 0.729,0.454 1.292,0.845 1.894,1.18 6.117,3.419 7.567,6.376 6.339,13.296 -0.645,4.168 -2.157,8.153 -4.437,11.695 -1.198,1.844 -2.756,3.426 -4.58,4.647 -1.25,0.911 -2.828,1.238 -4.334,0.9 -4.271,-0.996 -8.248,-2.79 -12.416,-4.559 l 4.358,-3.564 c 0.792,-0.645 1.584,-1.323 2.377,-1.896 0.346,-0.216 0.764,-0.279 1.157,-0.176 1.854,0.646 3.676,1.371 5.546,2.049 0.482,0.158 0.975,0.281 1.474,0.366 1.309,0.328 2.671,-0.292 3.288,-1.499 2.417,-3.786 1.949,-7.908 -1.323,-11.224 -1.899,-1.785 -4.089,-3.231 -6.474,-4.272 l -1.759,-0.885 c 2.671,-3.252 5.301,-6.449 7.924,-9.646 l -0.135,-0.334 c -1.299,-0.088 -2.591,-0.223 -3.898,-0.256 -1.957,-0.047 -3.922,0 -5.887,-0.047 -1.965,-0.048 -2.298,-0.534 -1.252,-2.256 0.956,-1.594 1.947,-3.149 2.971,-4.664 0.187,-0.262 0.474,-0.436 0.792,-0.478 5.666,0 11.339,0 17.012,0 0.127,-0.016 0.182,0.032 0.341,0.104 z"
     id="path10"
     inkscape:connector-curvature="0"
     style="fill:#ffffff" />
  <path
     d="m 57.627,23.331 c 0,3.986 -0.412,7.438 -1.862,10.674 -2.163,4.831 -5.586,6.577 -10.815,6.122 -4.263,-0.367 -8.249,-5.213 -8.13,-9.279 0.017,-4.29 1.26,-8.485 3.582,-12.085 2.043,-3.03 5.286,-5.026 8.898,-5.476 2.527,-0.383 4.555,1.004 6.148,2.949 1.632,1.982 2.415,4.534 2.179,7.095 z m -6.553,6.314 h -0.111 c 0,-0.351 0,-0.702 0,-1.044 -0.062,-2.906 -1.381,-5.639 -3.613,-7.485 -1.355,-1.093 -2.02,-0.91 -2.765,0.644 -1.131,2.257 -1.062,4.933 0.182,7.128 0.743,1.7 1.995,3.124 3.582,4.073 0.94,0.575 2.163,0.033 2.377,-1.052 0.172,-0.747 0.298,-1.503 0.38,-2.264 z"
     id="path12"
     inkscape:connector-curvature="0"
     style="fill:#ffffff" />
  <path
     d="m 71.541,18.524 h -2.084 c -0.614,0.087 -1.137,-0.444 -1.046,-1.059 -0.048,-0.577 0.416,-1.067 0.99,-1.045 2.029,-0.247 2.029,-0.255 2.282,-2.304 0,-0.319 0.087,-0.63 0.111,-0.948 0.044,-2.43 1.647,-4.552 3.962,-5.246 2.107,-0.797 4.128,-1.786 6.275,-2.392 2.908,-0.86 6.703,1.595 7.313,4.6 0.024,0.323 -0.109,0.638 -0.356,0.845 -1.315,0.797 -2.662,1.475 -4.025,2.144 -0.198,0.104 -0.594,0 -0.84,-0.183 -0.737,-0.438 -1.41,-0.988 -2.163,-1.371 -0.983,-0.502 -1.648,-0.12 -1.854,0.981 -0.073,0.408 -0.11,0.821 -0.111,1.235 0,2.201 0.261,2.144 1.862,2.121 1.117,0 1.268,0.23 1.268,1.506 0,1.435 -0.135,1.634 -1.3,1.682 -0.911,0 -1.83,0 -2.884,0 v 1.077 c 0,5.866 0,11.734 -0.048,17.601 0,2.16 -0.221,4.32 -0.324,6.48 0.058,0.845 -0.593,1.57 -1.435,1.595 -1.537,0.088 -3.09,0 -4.635,0 -0.665,0 -0.697,-0.55 -0.713,-1.028 -0.087,-2.328 -0.206,-4.647 -0.222,-6.975 -0.039,-6.091 0,-12.181 -0.039,-18.272 z"
     id="path14"
     inkscape:connector-curvature="0"
     style="fill:#ffffff" />
  <path
     d="m 116.981,40.813 c -1.584,-1.866 -3.169,-3.675 -4.754,-5.509 -0.412,-0.367 -0.335,-1.037 0.151,-1.299 0.77,-0.495 1.201,-1.381 1.117,-2.295 0,-2.448 0,-4.903 -0.127,-7.343 -0.103,-1.713 -0.792,-2.391 -2.496,-2.806 -3.05,-0.797 -3.866,-0.183 -3.961,2.997 -0.072,1.97 0,3.986 0,5.916 -0.072,1.421 0.512,2.795 1.584,3.723 0.373,0.343 0.682,0.749 1.086,1.203 l -4.667,5.485 c -1.474,-1.69 -2.876,-3.237 -4.191,-4.863 -0.303,-0.431 -0.397,-0.975 -0.254,-1.482 1.212,-2.759 1.054,-5.66 1.014,-8.554 0.023,-2.172 -0.406,-4.325 -1.26,-6.322 -0.084,-0.272 -0.034,-0.568 0.135,-0.797 0.885,-0.866 1.816,-1.683 2.789,-2.447 1.339,-1.021 2.258,-0.869 3.36,0.423 1.275,1.49 1.267,1.482 2.884,0.326 1.03,-0.741 2.06,-1.49 3.122,-2.168 1.218,-0.79 2.796,-0.74 3.961,0.127 2.512,1.547 3.265,3.93 3.352,6.665 0.089,2.891 0.142,5.787 0.158,8.689 0,1.427 0.286,2.638 1.68,3.347 0.666,0.343 0.713,0.894 0.396,1.54 -1.125,2.296 -3.05,3.826 -5.079,5.444 z"
     id="path16"
     inkscape:connector-curvature="0"
     style="fill:#ffffff" />
  <path
     d="m 198.553,34.914 c 2.805,-2.304 2.163,-5.453 2.187,-8.426 0,-0.414 -0.095,-0.797 -0.071,-1.243 0.171,-1.491 -0.759,-2.887 -2.195,-3.292 -0.721,-0.315 -1.472,-0.551 -2.243,-0.703 -1.099,-0.293 -2.202,0.459 -2.337,1.595 -0.175,0.646 -0.278,1.309 -0.309,1.977 -0.071,1.522 -0.079,3.053 -0.111,4.576 -0.032,1.905 0.702,3.741 2.036,5.093 0.649,0.467 0.649,1.438 0,1.906 -0.935,0.988 -1.727,2.12 -2.63,3.133 -0.903,1.012 -1.498,1.02 -2.377,0.055 -1.133,-1.243 -2.203,-2.55 -3.265,-3.858 -0.119,-0.252 -0.119,-0.545 0,-0.797 1.965,-3.922 1.767,-8.011 0.88,-12.125 -0.283,-1.044 -0.676,-2.054 -1.173,-3.013 -0.246,-0.384 -0.123,-0.896 0.27,-1.124 1.038,-0.797 2.075,-1.595 3.058,-2.432 1.268,-1.1 2.67,-0.159 3.225,0.869 0.792,1.404 0.911,1.451 2.242,0.51 1.238,-0.935 2.523,-1.805 3.851,-2.606 1.743,-0.972 2.662,-0.797 4.12,0.55 2.908,2.639 2.9,2.639 2.908,6.553 0,2.454 0.079,4.91 0.055,7.365 -0.148,1.777 0.599,3.51 1.989,4.616 0.579,0.455 0.595,0.861 0.222,1.522 -1.02,1.807 -2.451,3.344 -4.176,4.488 -0.525,0.521 -1.394,0.416 -1.782,-0.215 -1.434,-1.746 -2.924,-3.379 -4.374,-4.974 z"
     id="path18"
     inkscape:connector-curvature="0"
     style="fill:#ffffff" />
  <path
     d="m 134.254,13.526 c 1.688,0.287 3.384,0.511 5.048,0.869 1.315,0.279 1.465,0.845 0.523,1.818 -0.943,0.972 -2.1,2.032 -3.209,2.981 -0.3,0.182 -0.662,0.231 -0.999,0.136 -1.402,-0.367 -2.773,-0.894 -4.191,-1.196 -1.419,-0.303 -2.005,0.087 -2.338,1.148 -0.531,1.674 -0.269,2.638 1.054,3.189 1.094,0.486 2.258,0.797 3.399,1.187 1.141,0.39 2.1,0.701 3.17,1.093 2.048,0.696 3.445,2.607 3.494,4.782 0.143,1.594 0.246,3.245 0.325,4.863 -0.026,0.293 -0.139,0.57 -0.325,0.797 -3.597,4.528 -8.494,5.707 -13.937,5.373 -0.943,-0.066 -1.873,-0.259 -2.766,-0.574 -1.141,-0.407 -1.323,-1.004 -0.634,-1.969 0.789,-1.08 1.638,-2.112 2.544,-3.093 0.166,-0.191 0.689,-0.183 0.998,-0.096 1.981,0.566 3.962,1.276 6.038,1.045 0.933,-0.1 1.837,-0.39 2.654,-0.853 0.923,-0.641 1.347,-1.795 1.062,-2.886 -0.155,-0.919 -0.907,-1.617 -1.83,-1.698 -1.823,-0.39 -3.669,-0.701 -5.499,-1.044 -0.127,0 -0.254,0 -0.381,-0.064 -4.754,-1.06 -6.489,-4.528 -4.611,-9.064 1.753,-4.196 5.89,-6.875 10.411,-6.744 z"
     id="path20"
     inkscape:connector-curvature="0"
     style="fill:#ffffff" />
  <path
     d="m 88.711,34.244 c 1.838,0 3.605,0 5.372,0 1.196,0 2.377,0.215 3.589,0.304 0.666,0.047 0.792,0.374 0.602,0.964 -0.499,1.706 -0.966,3.419 -1.489,5.285 -2.94,-0.104 -5.856,-0.056 -8.716,-0.351 -2.232,-0.193 -4.112,-1.759 -4.715,-3.929 -1.933,-5.979 -1.584,-11.743 1.934,-17.108 1.553,-2.286 3.883,-3.922 6.552,-4.6 1.236,-0.457 2.625,-0.059 3.431,0.989 0.755,0.9 1.443,1.854 2.06,2.854 0.604,0.915 0.523,2.125 -0.198,2.95 -0.67,0.854 -1.407,1.654 -2.203,2.391 -1.584,1.443 -3.24,2.853 -4.928,4.201 -1.082,0.716 -1.644,2.006 -1.434,3.292 0.095,0.789 0.079,1.626 0.143,2.758 z m -0.603,-7.628 c 1.189,-0.941 2.219,-1.715 3.17,-2.535 1.505,-1.268 1.474,-1.691 -0.095,-2.91 -0.103,-0.072 -0.206,-0.152 -0.317,-0.215 -0.533,-0.436 -1.33,-0.266 -1.64,0.351 -0.914,1.608 -1.305,3.465 -1.118,5.309 z"
     id="path22"
     inkscape:connector-curvature="0"
     style="fill:#ffffff" />
  <path
     d="m 162.05,34.914 c 2.084,0 4.072,0 6.061,0 1.395,0 2.781,0.175 4.168,0.247 0.602,0 0.753,0.319 0.634,0.877 -0.333,1.594 -0.634,3.189 -0.999,4.783 -0.127,0.252 -0.37,0.425 -0.649,0.462 -2.567,0 -5.127,-0.048 -7.694,-0.072 -1.81,-0.054 -3.467,-1.038 -4.39,-2.606 -1.39,-2.103 -2.21,-4.535 -2.377,-7.055 -0.286,-2.573 -0.045,-5.177 0.706,-7.653 0.386,-1.489 1.179,-2.839 2.29,-3.898 1.667,-1.505 3.418,-2.913 5.245,-4.217 1.751,-1.18 3.304,-0.964 4.841,0.51 0.832,0.82 1.523,1.774 2.044,2.823 0.793,1.593 0.563,2.678 -0.729,3.874 -2.076,1.912 -4.215,3.754 -6.338,5.627 -0.405,0.359 -0.793,0.798 -1.197,1.093 -1.703,1.291 -1.814,3.108 -1.616,5.205 z m -0.349,-9.223 c 0.206,1.028 0.618,1.53 1.101,1.148 1.435,-1.117 2.79,-2.336 4.152,-3.555 0.132,-0.202 0.159,-0.454 0.072,-0.678 -0.61,-1.252 -3.407,-1.467 -4.057,-0.247 -0.495,1.071 -0.918,2.173 -1.268,3.3 z"
     id="path24"
     inkscape:connector-curvature="0"
     style="fill:#ffffff" />
  <path
     d="m 150.933,17.536 v 7.406 c 0,2.391 0,4.783 0,7.174 -0.035,0.338 0.052,0.677 0.246,0.957 1.141,0.988 2.377,1.904 3.502,2.877 0.204,0.187 0.317,0.455 0.309,0.734 -0.112,0.431 -0.308,0.835 -0.578,1.188 -1.03,1.323 -2.1,2.622 -3.17,3.985 -3.47,-2.12 -6.132,-4.647 -6.085,-9.04 0.063,-5.032 0.124,-10.063 0.182,-15.09 V 17.05 c -0.57,0 -1.125,-0.04 -1.679,-0.08 -1.007,-0.072 -1.197,-0.343 -1.189,-1.594 0.008,-1.252 0.214,-1.499 1.149,-1.595 1.371,-0.119 1.497,-0.207 1.466,-1.594 -0.073,-1.102 0.413,-2.166 1.291,-2.829 L 150.87,5.81 v 7.971 h 3.122 c 1.489,0 1.632,0.175 1.632,1.642 0,2.081 0,2.113 -2.108,2.153 -0.808,-0.032 -1.6,-0.04 -2.583,-0.04 z"
     id="path26"
     inkscape:connector-curvature="0"
     style="fill:#ffffff" />
  <path
     d="m 184.647,35.345 -4.476,4.782 c -1.585,-1.507 -3.09,-2.949 -4.58,-4.416 -0.107,-0.204 -0.107,-0.449 0,-0.653 1.482,-2.503 1.585,-5.27 1.585,-8.052 0,-2.455 0,-4.919 0,-7.365 -0.054,-0.639 0.252,-1.255 0.792,-1.595 1.117,-0.797 2.187,-1.713 3.534,-2.782 0.349,1.177 0.614,2.38 0.792,3.595 0.167,2.503 0.182,5.022 0.254,7.542 0,0.796 0,1.53 0,2.295 -0.157,2.403 0.592,4.777 2.099,6.649 z"
     id="path28"
     inkscape:connector-curvature="0"
     style="fill:#ffffff" />
  <path
     d="m 176.138,8.728 c 1.3,-1.168 3.252,-1.206 4.595,-0.089 0.903,0.662 1.862,1.26 2.805,1.898 -1.03,1.212 -2.131,1.53 -3.256,0.869 -1.427,-0.821 -2.758,-1.77 -4.144,-2.678 z"
     id="path30"
     inkscape:connector-curvature="0"
     style="fill:#ffffff" />
</svg>
