<?xml version="1.0" encoding="UTF-8" standalone="no"?>
<svg
   xmlns:dc="http://purl.org/dc/elements/1.1/"
   xmlns:cc="http://creativecommons.org/ns#"
   xmlns:rdf="http://www.w3.org/1999/02/22-rdf-syntax-ns#"
   xmlns:svg="http://www.w3.org/2000/svg"
   xmlns="http://www.w3.org/2000/svg"
   xmlns:sodipodi="http://sodipodi.sourceforge.net/DTD/sodipodi-0.dtd"
   xmlns:inkscape="http://www.inkscape.org/namespaces/inkscape"
   version="1.1"
   id="svg36"
   sodipodi:docname="famicom.svg"
   width="264"
   height="27.000013"
   inkscape:version="0.92.5 (2060ec1f9f, 2020-04-08)">
  <metadata
     id="metadata42">
    <rdf:RDF>
      <cc:Work
         rdf:about="">
        <dc:format>image/svg+xml</dc:format>
        <dc:type
           rdf:resource="http://purl.org/dc/dcmitype/StillImage" />
      </cc:Work>
    </rdf:RDF>
  </metadata>
  <defs
     id="defs40" />
  <sodipodi:namedview
     pagecolor="#ffffff"
     bordercolor="#666666"
     borderopacity="1"
     objecttolerance="10"
     gridtolerance="10"
     guidetolerance="10"
     inkscape:pageopacity="0"
     inkscape:pageshadow="2"
     inkscape:window-width="532"
     inkscape:window-height="460"
     id="namedview38"
     showgrid="false"
     inkscape:zoom="2.36"
     inkscape:cx="50"
     inkscape:cy="-22.999986"
     inkscape:window-x="72"
     inkscape:window-y="27"
     inkscape:window-maximized="0"
     inkscape:current-layer="svg36" />
  <g
     transform="scale(0.44,0.438725)"
     id="g34">
    <polygon
       points="31.857,11.103 11.16,11.103 11.16,24.573 31.857,24.573 31.857,36.027 11.16,36.027 11.16,59.964 0,59.964 0,0 31.857,0 "
       style="fill:#ffffff"
       id="polygon2" />
    <path
       d="M 68.085,59.964 H 57.234 V 50.631 H 36.21 l -6.228,9.333 H 17.205 L 59.247,0 h 8.838 z M 57.234,39.3 V 21.804 L 44.394,39.3 Z"
       style="fill:#ffffff"
       id="path4"
       inkscape:connector-curvature="0" />
    <polygon
       points="102.672,40.308 120.546,0 133.26,0 133.26,59.964 122.058,59.964 122.058,29.733 108.21,59.964 96.882,59.964 83.541,29.733 83.541,59.964 72.336,59.964 72.336,0 84.924,0 "
       style="fill:#ffffff"
       id="polygon6" />
    <polygon
       points="372.486,40.308 390.36,0 403.074,0 403.074,59.964 391.872,59.964 391.872,29.733 378.024,59.964 366.696,59.964 353.352,29.733 353.352,59.964 342.15,59.964 342.15,0 354.738,0 "
       style="fill:#ffffff"
       id="polygon8" />
    <rect
       x="136.79401"
       width="11.595"
       height="59.964001"
       style="fill:#ffffff"
       id="rect10"
       y="0" />
    <polygon
       points="163.176,49.035 178.284,49.035 178.284,59.964 151.584,59.964 151.584,0 163.176,0 "
       style="fill:#ffffff"
       id="polygon12" />
    <polygon
       points="190.467,24.573 202.296,0 215.061,0 195.852,38.142 195.852,59.964 184.611,59.964 184.611,38.142 165.402,0 178.284,0 "
       style="fill:#ffffff"
       id="polygon14" />
    <path
       d="M 278.247,44.484"
       style="fill:#ffffff"
       id="path16"
       inkscape:connector-curvature="0" />
    <path
       d="m 278.082,16.539 c -5.091,-9.702 -15.264,-16.32 -26.979,-16.32 -16.818,0 -30.45,13.635 -30.45,30.453 0,16.815 13.632,30.45 30.45,30.45 11.799,0 22.032,-6.711 27.087,-16.527 l -13.797,0.114 c -3.402,3.135 -7.947,5.052 -12.939,5.052 -10.542,0 -19.089,-8.547 -19.089,-19.092 0,-10.545 8.547,-19.089 19.089,-19.089 4.92,0 9.408,1.863 12.795,4.92 z"
       style="fill:#ffffff"
       id="path18"
       inkscape:connector-curvature="0" />
    <path
       d="m 308.214,61.281 c -16.905,0 -30.609,-13.704 -30.609,-30.609 0,-16.908 13.704,-30.612 30.609,-30.612 16.905,0 30.612,13.704 30.612,30.612 0,16.905 -13.707,30.609 -30.612,30.609 z m 19.485,-30.609 c 0,-10.698 -8.673,-19.368 -19.368,-19.368 -10.695,0 -19.368,8.67 -19.368,19.368 0,10.695 8.673,19.365 19.368,19.365 10.695,0 19.368,-8.67 19.368,-19.365 z"
       style="fill:#ffffff"
       id="path20"
       inkscape:connector-curvature="0" />
    <path
       d="m 426.957,0.006 c 10.146,0.816 18.126,9.312 18.126,19.668 0,10.356 -7.98,18.852 -18.126,19.665 L 418.191,39.3 V 59.964 H 406.95 V 0 h 11.241 z m -8.766,11.535 v 16.266 l 8.766,-0.009 c 3.837,-0.714 6.738,-4.08 6.738,-8.124 0,-4.044 -2.901,-7.407 -6.738,-8.124 z"
       style="fill:#ffffff"
       id="path22"
       inkscape:connector-curvature="0" />
    <path
       d="M 568.611,60.744 H 557.487 V 0.516 l 15.459,-0.021 8.763,0.006 c 10.146,0.816 18.129,9.309 18.129,19.668 0,8.463 -5.328,15.681 -12.813,18.483 L 600,60.744 H 587.82 L 569.637,29.679 h -1.026 z m -6.909,-0.282 m 11.244,0 m 8.766,-32.169 c 3.834,-0.717 6.738,-4.08 6.738,-8.124 0,-4.044 -2.904,-7.41 -6.738,-8.127 h -13.101 v 16.26 z"
       style="fill:#ffffff"
       id="path24"
       inkscape:connector-curvature="0" />
    <path
       d="m 476.031,23.406 m 0,0 m -16.254,0 m -0.039,11.244 m 0,0 0.006,8.766 c 0.717,3.834 4.083,6.735 8.124,6.735 4.044,0 7.41,-2.901 8.127,-6.735 l 0.009,-8.766 0.027,-34.134 h 11.514 V 34.65 l -0.009,8.766 c -0.816,10.146 -9.309,18.126 -19.668,18.126 -10.356,0 -18.849,-7.98 -19.665,-18.126 l 0.042,-8.766 -0.021,-34.134 h 11.553 z"
       style="fill:#ffffff"
       id="path26"
       inkscape:connector-curvature="0" />
    <polygon
       points="510.405,11.868 520.593,11.868 520.593,0.516 489.207,0.516 489.207,11.868 499.044,11.868 499.044,60.744 510.405,60.744 "
       style="fill:#ffffff"
       id="polygon28" />
    <polygon
       points="523.347,0.516 554.559,0.516 554.559,11.541 534.531,11.541 534.531,25.842 554.559,25.842 554.559,37.086 534.531,37.086 534.531,49.62 554.559,49.62 554.559,60.744 523.347,60.744 "
       style="fill:#ffffff"
       id="polygon30" />
    <path
       d="M 568.611,29.733"
       style="fill:#ffffff"
       id="path32"
       inkscape:connector-curvature="0" />
  </g>
</svg>
