<?xml version="1.0" encoding="UTF-8" standalone="no"?>
<svg
   xmlns:dc="http://purl.org/dc/elements/1.1/"
   xmlns:cc="http://creativecommons.org/ns#"
   xmlns:rdf="http://www.w3.org/1999/02/22-rdf-syntax-ns#"
   xmlns:svg="http://www.w3.org/2000/svg"
   xmlns="http://www.w3.org/2000/svg"
   xmlns:sodipodi="http://sodipodi.sourceforge.net/DTD/sodipodi-0.dtd"
   xmlns:inkscape="http://www.inkscape.org/namespaces/inkscape"
   id="svg"
   version="1.1"
   sodipodi:docname="fbn.svg"
   width="264"
   height="82"
   inkscape:version="0.92.5 (2060ec1f9f, 2020-04-08)">
  <metadata
     id="metadata13">
    <rdf:RDF>
      <cc:Work
         rdf:about="">
        <dc:format>image/svg+xml</dc:format>
        <dc:type
           rdf:resource="http://purl.org/dc/dcmitype/StillImage" />
      </cc:Work>
    </rdf:RDF>
  </metadata>
  <defs
     id="defs11" />
  <sodipodi:namedview
     pagecolor="#ffffff"
     bordercolor="#666666"
     borderopacity="1"
     objecttolerance="10"
     gridtolerance="10"
     guidetolerance="10"
     inkscape:pageopacity="0"
     inkscape:pageshadow="2"
     inkscape:window-width="532"
     inkscape:window-height="460"
     id="namedview9"
     showgrid="false"
     inkscape:zoom="2.36"
     inkscape:cx="50"
     inkscape:cy="32"
     inkscape:window-x="72"
     inkscape:window-y="27"
     inkscape:window-maximized="0"
     inkscape:current-layer="svg" />
  <path
     id="path3"
     d="m 0,0 h 20.696 c 18.384,0 20.785,0.023 21.485,0.203 3.134,0.807 5.905,3.647 7.106,7.287 0.252,0.761 0.274,1.116 0.274,4.554 v 3.728 H 33.674 L 27.341,13.776 C 10.87,8.585 2.054,5.823 1.073,5.544 L 0,5.239 Z m 16.687,11.184 c 0.225,0.078 3.294,1.047 7.833,2.471 2.146,0.674 4.269,1.342 4.716,1.487 l 0.813,0.263 v 6.485 l -0.001,6.486 h 4.358 l -0.037,1.356 c -0.052,1.983 -0.252,5.918 -0.339,6.793 0.088,-0.849 0.297,-4.548 0.342,-6.15 0.017,-0.602 0.047,1.204 0.067,4.011 0.019,2.809 0.007,5.18 -0.027,5.268 -0.049,0.129 -2.542,0.162 -11.908,0.162 H 10.659 l 0.012,-3.022 0.013,-3.022 0.542,-0.242 c 0.297,-0.134 0.586,-0.227 0.641,-0.21 0.055,0.018 0.101,-0.029 0.101,-0.104 0,-0.076 0.058,-0.101 0.129,-0.057 0.072,0.044 0.131,0.014 0.131,-0.065 0,-0.079 0.058,-0.109 0.13,-0.064 0.071,0.043 0.129,0.02 0.129,-0.054 0,-0.072 0.098,-0.095 0.217,-0.05 0.057,0.022 0.099,0.032 0.123,0.029 -0.154,0.136 -0.442,0.317 -0.834,0.514 0.873,-0.437 1.21,-0.658 0.911,-0.59 -0.014,0.016 -0.03,0.033 -0.049,0.05 0,-0.01 -0.002,-0.021 -0.009,-0.036 -0.02,0.006 -0.042,0.012 -0.066,0.019 -0.068,0.019 -0.047,-0.006 0.041,-0.063 -0.048,-0.08 -0.058,-0.142 -0.024,-0.142 0.099,0 0.149,0.022 0.157,0.06 0.063,-0.035 0.137,-0.077 0.221,-0.123 0.343,-0.185 0.688,-0.295 0.768,-0.245 0.096,0.057 0.109,0.03 0.039,-0.083 -0.078,-0.125 -0.046,-0.148 0.117,-0.086 0.129,0.049 0.191,0.034 0.146,-0.038 -0.042,-0.069 0.443,-0.384 1.078,-0.701 l 1.154,-0.575 -0.003,-0.373 c -0.011,0.215 -0.028,0.349 -0.048,0.37 -0.056,0.056 -0.072,-0.842 -0.036,-1.994 l 0.063,-2.055 -0.034,-5.708 c -0.031,-5.368 -0.02,-9.819 0.026,-9.893 0.046,-0.074 0.155,-0.11 0.242,-0.079 z m 14.789,5.751 H 49.561 V 27.019 L 40.553,26.986 31.544,26.954 31.51,21.945 Z M 51.121,0 h 23.805 v 5.885 l -5.849,2.903 -0.035,3.372 -0.034,3.372 -1.366,0.433 c -0.751,0.238 -2.508,0.79 -3.902,1.228 -1.396,0.437 -3.782,1.198 -5.303,1.691 -1.52,0.492 -2.831,0.895 -2.913,0.895 -0.11,0 -0.131,-1.093 -0.077,-4.201 l 0.072,-4.202 h -4.398 z m 17.854,16.94 c 0.054,-0.003 0.098,2.569 0.098,5.716 l -10e-4,5.72 2.226,-0.039 2.225,-0.038 -0.08,1.396 c -0.004,0.063 -0.008,0.135 -0.012,0.211 l 0.033,4.739 c 0.019,2.666 0.006,4.92 -0.028,5.009 -0.049,0.129 -2.533,0.162 -11.908,0.162 H 49.683 l 0.013,-3.022 0.012,-3.022 0.542,-0.242 c 0.297,-0.134 0.586,-0.227 0.641,-0.21 0.055,0.018 0.101,-0.029 0.101,-0.104 0,-0.076 0.058,-0.101 0.129,-0.057 0.072,0.044 0.131,0.014 0.131,-0.065 0,-0.079 0.053,-0.111 0.119,-0.071 0.065,0.04 0.142,0.003 0.171,-0.083 0.039,-0.118 0.075,-0.119 0.146,-0.006 0.043,0.07 -0.086,0.196 -0.374,0.369 0.263,-0.156 0.428,-0.282 0.405,-0.319 -0.089,-0.144 1.34,-0.819 1.512,-0.712 0.08,0.048 0.105,0.027 0.057,-0.05 -0.05,-0.08 0.409,-0.39 1.105,-0.747 l 1.19,-0.611 -0.052,-4.852 -0.052,-4.852 3.837,-1.192 c 2.111,-0.655 5.126,-1.604 6.7,-2.108 1.574,-0.502 2.906,-0.917 2.959,-0.92 z M 76.487,0 l 11.935,0.003 11.935,0.003 1.366,1.322 c 0.752,0.727 2.566,2.456 4.033,3.842 1.466,1.386 3.398,3.231 4.292,4.098 l 1.626,1.579 -0.001,0.308 c 0.008,-0.013 0.017,0.005 0.028,0.058 0.03,0.159 0.031,0.45 0.001,0.646 -0.012,0.078 -0.023,0.105 -0.032,0.085 l -0.023,6.187 c 0.01,-0.353 0.02,-0.55 0.029,-0.55 0.035,0 0.063,2.677 0.063,5.947 0,3.271 -0.044,5.946 -0.098,5.946 -0.032,0 -0.054,-0.95 -0.064,-2.411 -0.026,1.452 -0.057,2.272 -0.091,2.26 -0.065,-0.024 -0.784,-0.683 -1.595,-1.464 -0.813,-0.783 -2.034,-1.946 -2.714,-2.586 -3.244,-3.054 -6.45,-6.091 -7.926,-7.511 -0.894,-0.86 -2.006,-1.917 -2.471,-2.348 L 95.934,14.629 95.9,18.69 c -0.023,2.675 -0.08,4.062 -0.168,4.062 -0.074,0 -0.849,-0.229 -1.722,-0.509 -2.455,-0.789 -9.252,-2.912 -10.611,-3.315 L 82.18,18.566 82.232,13.703 82.284,8.842 79.385,7.372 76.487,5.901 Z m 8.586,20.8 c 0.894,0.29 3.689,1.178 6.211,1.973 l 4.585,1.446 v 2.632 L 91.544,25.5 c -2.379,-0.744 -5.437,-1.688 -6.797,-2.099 l -2.471,-0.747 -0.038,-1.202 c -0.021,-0.661 -0.01,-1.273 0.025,-1.362 0.069,-0.18 0.051,-0.184 2.81,0.71 z m -1.874,3.25 c 0.422,0.145 3.285,1.05 6.361,2.011 3.077,0.96 5.759,1.811 5.96,1.888 l 0.367,0.142 -0.061,2.017 c -0.022,0.752 -0.051,1.512 -0.084,2.237 0.062,-0.137 0.103,1.165 0.112,3.497 l 0.015,3.976 -13.593,-0.066 -0.005,-6.722 c -0.004,-5.644 0.01,-6.163 0.085,-3.232 0.082,3.203 0.143,4.99 0.267,5.979 -0.017,-0.21 -0.033,-0.456 -0.051,-0.744 -0.135,-2.121 -0.368,-10.877 -0.296,-11.086 0.071,-0.202 0.015,-0.208 0.923,0.103 z M 113.04,0 h 13.53 l -0.049,16.45 c -0.025,8.432 -0.065,13.666 -0.14,16.718 0.003,-0.016 0.006,-0.031 0.009,-0.042 0.158,-0.585 0.178,-0.223 0.178,3.2 v 3.49 H 113.04 l 0.002,-3.264 c 0.001,-1.883 0.055,-3.345 0.128,-3.458 -0.082,0.127 -0.127,-5.656 -0.128,-16.45 z m 15.05,0 h 24.624 v 6.443 l 2.894,1.486 2.895,1.486 0.038,0.98 0.038,0.981 h -10.938 v 5.687 c 0,3.915 -0.043,5.689 -0.138,5.689 -0.075,0 -2.636,-0.782 -5.69,-1.738 -3.055,-0.955 -6.066,-1.89 -6.692,-2.076 L 133.983,18.6 V 8.792 L 131.121,7.369 128.259,5.946 V 4.35 c 0,-0.877 -0.038,-2.215 -0.084,-2.973 z m 6.12,19.967 c 0.126,0.049 2.247,0.729 4.716,1.511 2.468,0.783 5.423,1.724 6.566,2.092 l 2.079,0.669 -0.033,3.62 c -0.029,3.149 -0.188,7.126 -0.33,8.438 0.145,-1.3 0.308,-5.042 0.334,-7.873 0.018,-1.804 0.047,-0.051 0.067,3.894 0.019,3.947 0.007,7.248 -0.028,7.336 -0.048,0.127 -1.535,0.162 -6.83,0.162 h -6.768 l 0.002,-3.587 c 10e-4,-2.423 0.063,-3.757 0.14,-3.731 -0.011,-0.031 -0.021,-0.04 -0.031,-0.025 -0.059,0.093 -0.108,-2.703 -0.109,-6.212 -0.002,-6.024 0.011,-6.375 0.225,-6.294 z M 154.145,0 h 19.39 l -0.049,15.998 c -0.025,8.201 -0.073,13.649 -0.156,16.915 0.057,-0.996 0.112,-1.717 0.139,-1.743 0.034,-0.033 0.047,1.883 0.027,4.26 l -0.034,4.322 -13.593,0.066 0.025,-6.108 c 0.021,-5.186 0.033,-5.764 0.107,-3.613 -0.012,-0.748 -0.02,-1.567 -0.023,-2.4 l -0.009,-2.527 c -0.001,0.025 -0.003,0.048 -0.004,0.07 -0.026,0.374 -0.048,0.069 -0.048,-0.677 0,-0.747 0.022,-1.053 0.048,-0.681 l -0.004,-1.13 h -10.889 v -3.619 h 10.797 v -2.436 c 0,-1.34 0.035,-3.651 0.079,-5.138 l 0.079,-2.703 -2.941,-1.474 -2.941,-1.473 z m 20.941,0 h 13.531 v 9.885 c 0,7.851 -0.034,9.875 -0.163,9.832 -0.09,-0.03 -2.797,-0.875 -6.016,-1.878 -3.22,-1.004 -6.176,-1.928 -6.569,-2.054 l -0.716,-0.229 -0.033,-7.779 z m -0.002,16.928 0.299,0.075 c 0.164,0.042 3.195,0.991 6.734,2.11 l 6.435,2.035 0.033,4.939 0.035,4.938 h 14.182 l -6.069,-0.032 -6.621,-0.034 6.688,-0.031 6.686,-0.032 -0.092,4.359 c -0.05,2.397 -0.109,4.377 -0.131,4.397 -0.021,0.022 -6.37,0.078 -14.107,0.124 l -14.068,0.083 0.009,-3.803 c 0.005,-2.243 0.055,-3.696 0.121,-3.544 0.013,0.032 0.027,0.092 0.04,0.179 -0.059,-2.039 -0.102,-4.765 -0.123,-8.035 z"
     style="fill:#ffffff"
     inkscape:connector-curvature="0" />
  <path
     id="path4"
     d="m 203.733,72.174 c 0.551,0.169 4.319,1.365 5.341,1.695 l 1.007,0.326 v 0.571 c 0,0.739 0.167,0.756 -3.512,-0.39 l -3.056,-0.954 -0.04,-0.669 c -0.038,-0.646 -0.03,-0.667 0.26,-0.579 z m 2.671,-9.765 h 5.696 l 2.763,2.611 2.763,2.61 v 9.048 l -0.357,-0.33 c -0.197,-0.181 -1.875,-1.763 -3.729,-3.515 -1.853,-1.752 -3.387,-3.169 -3.408,-3.148 -0.021,0.021 -0.05,0.864 -0.064,1.875 -0.02,1.409 -0.065,1.838 -0.195,1.838 -0.093,0 -0.889,-0.227 -1.769,-0.504 -0.88,-0.276 -2.288,-0.717 -3.128,-0.976 l -1.529,-0.474 V 69.093 66.74 l -1.398,-0.71 -1.398,-0.712 -0.038,-1.284 c -0.021,-0.705 -0.008,-1.359 0.029,-1.454 0.053,-0.138 1.161,-0.171 5.762,-0.171 z m -2.957,11.523 0.944,0.308 c 0.518,0.168 1.982,0.633 3.252,1.032 l 2.309,0.724 v 5.675 h -6.505 z m 14.829,-11.523 h 6.635 v 19.262 h -6.635 z m 7.415,7.757 h 13.528 v 1.68 h -13.528 z m 0,2.198 h 13.528 v 1.68 h -7.024 v 7.627 h -6.504 z m 13.528,4.395 h 4.163 v 4.912 h -10.666 v -3.878 h 6.503 z m -6.503,-14.35 h 10.666 v 4.913 h -4.163 v -1.034 h -6.503 z m -7.025,0 h 6.504 v 7.369 h -6.504 z m 18.468,-10e-4 9.921,0.033 9.92,0.033 -0.004,7.523 c -0.002,4.138 -0.034,7.554 -0.072,7.592 -0.037,0.036 -1.499,-0.383 -3.248,-0.933 l -3.18,-0.998 -0.069,-7.819 h -6.63 v 2.845 c 0,1.564 -0.044,2.842 -0.098,2.842 -0.053,-10e-4 -1.531,-0.453 -3.285,-1.005 l -3.187,-1.005 -0.034,-4.553 z m 0.152,9.826 c 0.163,0 6.205,1.912 6.378,2.018 0.059,0.036 0.108,0.528 0.108,1.093 v 1.026 l 3.349,0.002 3.35,0.003 3.187,1.008 3.187,1.009 0.036,1.627 0.036,1.629 -9.077,0.044 c -4.992,0.023 -9.442,0.023 -9.889,-0.001 l -0.814,-0.044 v -4.706 c 0,-3.436 0.04,-4.708 0.149,-4.708 z"
     style="fill:#ffffff"
     inkscape:connector-curvature="0" />
  <path
     id="path6"
     d="m 8.06,42.014 h 23.421 l -0.033,7.594 -0.033,7.596 -6.795,0.033 -6.794,0.033 -0.035,-2.867 -0.035,-2.868 -4.032,-1.26 C 11.505,49.582 9.34,48.906 8.91,48.771 L 8.13,48.528 8.095,45.27 Z m 24.46,0 h 8.753 c 9.633,0 9.678,0.004 10.914,0.791 0.851,0.543 1.494,1.292 1.974,2.295 l 0.408,0.856 0.074,15.449 H 17.821 v -3.378 l 3.089,0.09 c 0.789,0.024 2.441,0.035 4.513,0.036 -0.627,-0.003 -1.215,-0.007 -1.716,-0.012 -1.842,-0.021 -0.335,-0.037 3.349,-0.037 3.168,0 4.726,0.012 3.932,0.028 0.87,-0.006 1.747,-0.014 2.613,-0.022 l 9.601,-0.098 -0.04,-3.313 c -0.061,-4.97 0.329,-4.67 -6.084,-4.67 H 32.52 Z m -14.699,20.389 1.073,0.081 c 0.117,0.009 0.538,0.018 1.212,0.026 0.096,-0.012 0.508,-0.019 1.162,-0.019 0.986,0 1.451,0.017 1.121,0.039 3.406,0.021 8.92,0.036 14.931,0.037 l 17.353,10e-4 -0.09,3.911 c -0.01,0.455 -0.02,0.891 -0.03,1.31 0.013,-0.266 0.029,-0.167 0.049,0.273 0.161,3.654 -0.037,9.825 -0.339,10.573 -0.422,1.046 -1.502,2.171 -2.597,2.708 l -0.864,0.422 -18.282,0.072 v -7.764 h 4.565 c 5.444,0 5.651,-0.051 5.975,-1.483 l 0.089,-0.391 0.073,0.265 c 0.05,-0.69 0.008,-1.638 -0.009,-2.947 l -0.042,-3.458 c 0,0 -11.756,0 -11.756,0 0.035,0 0.065,3.548 0.065,7.885 V 81.83 H 14.699 v -5.917 l 1.528,-0.778 1.529,-0.777 0.078,-1.437 c 0.032,-0.593 0.068,-1.006 0.102,-1.243 -0.049,-0.206 -0.092,-2.06 -0.1,-4.441 z m 38.553,-0.222 c 0.04,0 1.466,0.44 3.167,0.98 1.701,0.538 4.703,1.488 6.67,2.109 l 3.577,1.132 -0.03,2.221 -0.026,1.917 0.016,-0.506 0.024,-0.808 0.047,0.742 0.047,0.742 6.985,0.035 6.986,0.034 -7.057,0.032 -7.052,0.031 7.054,0.004 7.055,0.004 1.461,0.494 c 0.804,0.271 1.429,0.525 1.389,0.564 -0.039,0.04 0.006,0.068 0.1,0.064 0.505,-0.022 0.765,0.045 0.684,0.177 -0.061,0.097 0.004,0.113 0.203,0.05 0.213,-0.067 0.266,-0.049 0.195,0.065 -0.07,0.114 -0.017,0.132 0.195,0.064 0.22,-0.069 0.267,-0.05 0.19,0.073 -0.015,0.026 -0.026,0.047 -0.032,0.064 0.009,-0.014 0.023,-0.03 0.039,-0.049 0.144,-0.156 0.714,-0.062 0.714,0.118 0,0.06 0.088,0.076 0.195,0.035 0.107,-0.041 0.195,-0.012 0.195,0.064 0,0.077 0.088,0.107 0.195,0.065 0.107,-0.041 0.195,-0.015 0.195,0.057 0,0.072 0.109,0.103 0.241,0.068 0.133,-0.033 0.323,0.02 0.424,0.12 0.055,0.054 0.122,0.099 0.183,0.124 0.035,-0.015 0.053,-0.009 0.047,0.015 0.032,0.008 0.06,0.01 0.082,0.003 0.071,-0.022 1.563,0.413 3.316,0.968 l 3.187,1.007 0.034,3.45 0.035,3.449 H 56.195 l 0.026,-9.921 c 0.025,-9.688 0.028,-9.79 0.119,-4.299 0.063,3.792 0.111,6.129 0.198,7.565 -0.078,-1.414 -0.116,-3.704 -0.164,-7.403 -0.041,-3.146 -0.041,-5.72 0,-5.72 z M 56.195,42.143 H 69.853 V 53.52 c 0,8.792 -0.035,11.375 -0.157,11.375 -0.086,0 -2.208,-0.644 -4.715,-1.432 -5.12,-1.608 -8.22,-2.576 -8.559,-2.671 -0.213,-0.06 -0.227,-0.617 -0.227,-9.356 z m 27.446,0 h 13.702 l -0.088,15.028 c -0.015,2.577 -0.027,4.741 -0.039,6.558 l 0.019,-1.613 0.034,5.676 c 0.018,3.121 0.009,5.7 -0.021,5.73 -0.091,0.091 -1.509,-0.392 -1.509,-0.514 0,-0.061 -0.056,-0.078 -0.124,-0.037 -0.23,0.141 -0.824,-0.077 -0.65,-0.238 0.01,-0.01 0.019,-0.018 0.028,-0.025 -0.016,0.004 -0.033,0.008 -0.051,0.013 -0.198,0.063 -0.248,0.044 -0.179,-0.07 0.071,-0.113 0.018,-0.131 -0.194,-0.064 -0.213,0.066 -0.267,0.049 -0.196,-0.065 0.071,-0.112 0.02,-0.132 -0.178,-0.069 -0.161,0.05 -0.277,0.03 -0.277,-0.047 0,-0.074 -0.088,-0.1 -0.195,-0.06 -0.107,0.041 -0.195,0.007 -0.195,-0.076 0,-0.083 -0.053,-0.119 -0.118,-0.079 -0.064,0.04 -1.894,-0.476 -4.065,-1.147 -2.171,-0.67 -4.328,-1.332 -4.793,-1.471 l -0.845,-0.252 z m 15.22,0 h 20.353 c 20.272,0 20.355,0.002 21.073,0.268 1.436,0.534 2.543,1.694 3.053,3.197 0.264,0.778 0.447,18.641 0.191,18.641 -0.07,0 -2.979,-0.918 -8.117,-2.564 -2.109,-0.675 -6.805,-2.124 -8.423,-2.6 -0.839,-0.245 -0.943,-0.312 -0.943,-0.594 v -0.318 h 3.902 v -3.328 c 0,-5.107 0.503,-4.738 -6.536,-4.79 l -5.171,-0.037 v 8.537 c 0,4.696 -0.044,8.537 -0.097,8.535 -0.054,-0.001 -1.181,-0.343 -2.505,-0.758 -1.323,-0.417 -4.221,-1.32 -6.438,-2.008 -2.219,-0.687 -4.168,-1.306 -4.333,-1.374 l -0.3,-0.124 0.04,-5.926 0.04,-5.927 -2.895,-1.474 -2.894,-1.474 v -2.941 z m 5.739,21.823 0.285,0.078 c 0.157,0.043 3.212,1.004 6.789,2.135 l 6.504,2.055 -0.008,1.724 c -0.003,0.641 -0.024,1.5 -0.056,2.421 0.053,0.266 0.101,1.78 0.11,4.295 l 0.019,5.121 -6.732,0.065 c -3.702,0.036 -6.775,0.04 -6.829,0.01 -0.054,-0.031 -0.086,-3.528 -0.07,-7.772 0.014,-4.13 0.025,-5.921 0.05,-5.954 z m 14.681,-5.793 h 0.617 c 0.577,0 4.155,1.055 10.508,3.098 1.072,0.346 3.648,1.162 5.723,1.815 2.075,0.653 4.095,1.29 4.488,1.415 l 0.715,0.227 v 2.12 c 0,0.625 -0.007,1.489 -0.019,2.354 0.046,-0.623 0.085,0.091 0.085,2.118 0,1.101 -0.032,1.996 -0.077,2.236 0.015,0.027 0.031,0.036 0.05,0.033 0.086,-0.018 0.156,0.032 0.156,0.112 0,0.071 0.09,0.105 0.211,0.087 -0.281,-0.139 -0.308,-0.231 -0.015,-0.231 0.107,0 0.195,0.043 0.195,0.096 0,0.054 0.159,0.106 0.353,0.117 0.195,0.012 0.376,0.085 0.402,0.163 0.009,0.028 0.024,0.05 0.042,0.066 0.003,-0.002 0.007,-0.004 0.009,-0.006 0.075,-0.047 0.103,-0.033 0.071,0.029 0.011,-0.002 0.022,-0.006 0.034,-0.013 0.059,-0.037 0.259,-0.009 0.444,0.061 l 0.336,0.127 v 7.633 l -5.886,0.001 c -3.238,0 -6.809,0.038 -7.935,0.085 L 127.739,82 v -4.077 c 0,-2.242 0.044,-4.272 0.097,-4.511 0.058,-0.263 0.121,0.42 0.173,1.871 -0.002,-0.147 -0.005,-0.292 -0.008,-0.434 -0.017,-1.16 -0.068,-1.75 -0.132,-1.551 -0.064,0.199 -0.11,-0.345 -0.119,-1.422 l -0.015,-1.745 -4.193,-1.307 -4.193,-1.308 -0.035,-4.671 z m 36.295,5.337 c 4.717,1.515 8.817,2.807 8.904,2.807 0.039,0 0.072,0.589 0.072,1.309 0,1.184 -0.022,1.301 -0.228,1.241 -0.125,-0.038 -1.75,-0.543 -3.61,-1.125 -1.86,-0.581 -4.772,-1.486 -6.47,-2.008 -1.699,-0.523 -3.14,-0.983 -3.203,-1.022 -0.127,-0.078 -0.204,-2.336 -0.086,-2.526 0.085,-0.137 -0.066,-0.181 4.621,1.324 z m -4.508,2.419 c 0.06,0 1.553,0.462 3.317,1.027 1.764,0.565 4.759,1.512 6.654,2.106 l 3.448,1.077 -0.015,1.289 c -0.004,0.441 -0.021,1.037 -0.045,1.698 0.056,-0.102 0.099,1.478 0.109,4.066 l 0.016,4.604 -6.732,0.063 c -3.702,0.035 -6.775,0.04 -6.829,0.01 -0.054,-0.03 -0.085,-3.585 -0.07,-7.9 0.019,-5.345 0.03,-6.89 0.067,-5.794 0.007,-1.324 0.036,-2.246 0.08,-2.246 z m -5.899,-23.786 23.871,0.013 1.85,1.771 c 1.018,0.975 3.545,3.371 5.615,5.326 l 3.764,3.555 0.011,9.357 0.011,9.279 c 0.001,0 0.002,-0.001 0.002,-0.001 l -0.002,0.098 -0.064,-0.059 c 0.005,-0.001 0.011,-0.003 0.016,-0.004 l -0.57,-0.514 c -0.287,-0.259 -0.954,-0.879 -1.776,-1.647 0.123,0.138 0.193,0.232 0.169,0.232 -0.036,0 -0.264,-0.203 -0.506,-0.452 -0.229,-0.235 -0.393,-0.43 -0.381,-0.452 -1.324,-1.241 -2.853,-2.682 -3.846,-3.629 -0.245,-0.233 -0.531,-0.505 -0.829,-0.788 0.078,0.092 0.118,0.15 0.099,0.15 -0.036,0 -0.264,-0.204 -0.507,-0.452 -0.218,-0.225 -0.377,-0.412 -0.381,-0.446 -0.395,-0.375 -0.767,-0.728 -1.05,-0.993 -0.679,-0.641 -2.318,-2.196 -3.642,-3.459 l -2.406,-2.293 -0.035,4.08 c -0.019,2.244 -0.068,4.08 -0.109,4.08 -0.042,0 -2.69,-0.818 -5.885,-1.819 -3.195,-1 -6.218,-1.945 -6.719,-2.1 l -0.911,-0.282 v -9.776 l -5.787,-2.893 -0.001,-2.941 z m 36.553,0 h 13.531 l -0.048,15.998 c -0.023,7.674 -0.067,13.029 -0.136,16.42 0.006,-0.047 0.012,-0.086 0.019,-0.116 0.054,-0.239 0.113,1.304 0.132,3.43 0.019,2.125 0.019,3.879 0,3.894 -0.019,0.016 -3.063,0.056 -6.766,0.089 l -6.732,0.059 v -3.72 c 0,-2.341 0.049,-3.75 0.131,-3.801 -0.087,0.054 -0.131,-5.341 -0.131,-16.086 z"
     style="fill:#ffffff"
     inkscape:connector-curvature="0" />
</svg>
