<?xml version="1.0" encoding="utf-8"?>
<!-- Generator: Adobe Illustrator 25.4.1, SVG Export Plug-In . SVG Version: 6.00 Build 0)  -->
<svg version="1.1" id="svg" xmlns="http://www.w3.org/2000/svg" xmlns:xlink="http://www.w3.org/1999/xlink" x="0px" y="0px"
	 viewBox="0 0 263.9 81.6" style="enable-background:new 0 0 263.9 81.6;" xml:space="preserve">
<style type="text/css">
	.st0{fill:#FFFFFF;}
</style>
<path id="path3" class="st0" d="M0,0h20.7c18.4,0,20.8,0,21.5,0.2c3.1,0.8,5.9,3.6,7.1,7.3c0.3,0.8,0.3,1.1,0.3,4.6v3.7H33.7l-6.3-2
	C10.9,8.6,2.1,5.8,1.1,5.5L0,5.2V0z M16.7,11.2c0.2,0.1,3.3,1,7.8,2.5c2.1,0.7,4.3,1.3,4.7,1.5l0.8,0.3v6.5l0,6.5h4.4l0,1.4
	c-0.1,2-0.3,5.9-0.3,6.8c0.1-0.8,0.3-4.5,0.3-6.2c0-0.6,0,1.2,0.1,4c0,2.8,0,5.2,0,5.3c0,0.1-2.5,0.2-11.9,0.2H10.7l0-3l0-3l0.5-0.2
	c0.3-0.1,0.6-0.2,0.6-0.2c0.1,0,0.1,0,0.1-0.1c0-0.1,0.1-0.1,0.1-0.1c0.1,0,0.1,0,0.1-0.1c0-0.1,0.1-0.1,0.1-0.1
	c0.1,0,0.1,0,0.1-0.1c0-0.1,0.1-0.1,0.2-0.1c0.1,0,0.1,0,0.1,0c-0.2,0.1-0.4,0.3-0.8,0.5c0.9-0.4,1.2-0.7,0.9-0.6c0,0,0,0,0,0
	c0,0,0,0,0,0c0,0,0,0-0.1,0c-0.1,0,0,0,0-0.1c0-0.1-0.1-0.1,0-0.1c0.1,0,0.1,0,0.2,0.1c0.1,0,0.1-0.1,0.2-0.1
	c0.3-0.2,0.7-0.3,0.8-0.2c0.1,0.1,0.1,0,0-0.1c-0.1-0.1,0-0.1,0.1-0.1c0.1,0,0.2,0,0.1,0c0-0.1,0.4-0.4,1.1-0.7l1.2-0.6l0-0.4
	c0,0.2,0,0.3,0,0.4c-0.1,0.1-0.1-0.8,0-2l0.1-2.1l0-5.7c0-5.4,0-9.8,0-9.9C16.5,11.2,16.6,11.2,16.7,11.2z M31.5,16.9h18.1V27l-9,0
	l-9,0l0-5L31.5,16.9z M51.1,0h23.8v5.9l-5.8,2.9l0,3.4l0,3.4L67.6,16c-0.8,0.2-2.5,0.8-3.9,1.2c-1.4,0.4-3.8,1.2-5.3,1.7
	c-1.5,0.5-2.8,0.9-2.9,0.9c-0.1,0-0.1-1.1-0.1-4.2l0.1-4.2h-4.4V0z M69,16.9c0.1,0,0.1,2.6,0.1,5.7l0,5.7l2.2,0l2.2,0l-0.1,1.4
	c0,0.1,0,0.1,0,0.2l0,4.7c0,2.7,0,4.9,0,5c0,0.1-2.5,0.2-11.9,0.2H49.7l0-3l0-3l0.5-0.2c0.3-0.1,0.6-0.2,0.6-0.2
	c0.1,0,0.1,0,0.1-0.1c0-0.1,0.1-0.1,0.1-0.1c0.1,0,0.1,0,0.1-0.1c0-0.1,0.1-0.1,0.1-0.1c0.1,0,0.1,0,0.2-0.1c0-0.1,0.1-0.1,0.1,0
	c0,0.1-0.1,0.2-0.4,0.4c0.3-0.2,0.4-0.3,0.4-0.3c-0.1-0.1,1.3-0.8,1.5-0.7c0.1,0,0.1,0,0.1,0c0-0.1,0.4-0.4,1.1-0.7l1.2-0.6L55.5,26
	l-0.1-4.9l3.8-1.2c2.1-0.7,5.1-1.6,6.7-2.1C67.6,17.4,68.9,16.9,69,16.9z M76.5,0l11.9,0l11.9,0l1.4,1.3c0.8,0.7,2.6,2.5,4,3.8
	c1.5,1.4,3.4,3.2,4.3,4.1l1.6,1.6l0,0.3c0,0,0,0,0,0.1c0,0.2,0,0.4,0,0.6c0,0.1,0,0.1,0,0.1l0,6.2c0-0.4,0-0.6,0-0.6
	c0,0,0.1,2.7,0.1,5.9c0,3.3,0,5.9-0.1,5.9c0,0-0.1-1-0.1-2.4c0,1.5-0.1,2.3-0.1,2.3c-0.1,0-0.8-0.7-1.6-1.5c-0.8-0.8-2-1.9-2.7-2.6
	c-3.2-3.1-6.5-6.1-7.9-7.5c-0.9-0.9-2-1.9-2.5-2.3l-0.8-0.8l0,4.1c0,2.7-0.1,4.1-0.2,4.1c-0.1,0-0.8-0.2-1.7-0.5
	c-2.5-0.8-9.3-2.9-10.6-3.3l-1.2-0.4l0.1-4.9l0.1-4.9l-2.9-1.5l-2.9-1.5V0z M85.1,20.8c0.9,0.3,3.7,1.2,6.2,2l4.6,1.4v2.6l-4.3-1.4
	c-2.4-0.7-5.4-1.7-6.8-2.1l-2.5-0.7l0-1.2c0-0.7,0-1.3,0-1.4C82.3,19.9,82.3,19.9,85.1,20.8z M83.2,24c0.4,0.1,3.3,1.1,6.4,2
	c3.1,1,5.8,1.8,6,1.9l0.4,0.1l-0.1,2c0,0.8-0.1,1.5-0.1,2.2c0.1-0.1,0.1,1.2,0.1,3.5l0,4l-13.6-0.1l0-6.7c0-5.6,0-6.2,0.1-3.2
	c0.1,3.2,0.1,5,0.3,6c0-0.2,0-0.5-0.1-0.7c-0.1-2.1-0.4-10.9-0.3-11.1C82.3,23.7,82.3,23.7,83.2,24z M113,0h13.5l0,16.5
	c0,8.4-0.1,13.7-0.1,16.7c0,0,0,0,0,0c0.2-0.6,0.2-0.2,0.2,3.2v3.5H113l0-3.3c0-1.9,0.1-3.3,0.1-3.5c-0.1,0.1-0.1-5.7-0.1-16.5
	L113,0z M128.1,0h24.6v6.4l2.9,1.5l2.9,1.5l0,1l0,1h-10.9v5.7c0,3.9,0,5.7-0.1,5.7c-0.1,0-2.6-0.8-5.7-1.7c-3.1-1-6.1-1.9-6.7-2.1
	l-1.1-0.3V8.8l-2.9-1.4l-2.9-1.4V4.3c0-0.9,0-2.2-0.1-3L128.1,0z M134.2,20c0.1,0,2.2,0.7,4.7,1.5c2.5,0.8,5.4,1.7,6.6,2.1l2.1,0.7
	l0,3.6c0,3.1-0.2,7.1-0.3,8.4c0.1-1.3,0.3-5,0.3-7.9c0-1.8,0-0.1,0.1,3.9c0,3.9,0,7.2,0,7.3c0,0.1-1.5,0.2-6.8,0.2H134l0-3.6
	c0-2.4,0.1-3.8,0.1-3.7c0,0,0,0,0,0c-0.1,0.1-0.1-2.7-0.1-6.2C134,20.2,134,19.9,134.2,20z M154.1,0h19.4l0,16
	c0,8.2-0.1,13.6-0.2,16.9c0.1-1,0.1-1.7,0.1-1.7c0,0,0,1.9,0,4.3l0,4.3l-13.6,0.1l0-6.1c0-5.2,0-5.8,0.1-3.6c0-0.7,0-1.6,0-2.4
	l0-2.5c0,0,0,0,0,0.1c0,0.4,0,0.1,0-0.7c0-0.7,0-1.1,0-0.7l0-1.1h-10.9v-3.6h10.8v-2.4c0-1.3,0-3.7,0.1-5.1l0.1-2.7l-2.9-1.5
	l-2.9-1.5V0z M175.1,0h13.5v9.9c0,7.9,0,9.9-0.2,9.8c-0.1,0-2.8-0.9-6-1.9c-3.2-1-6.2-1.9-6.6-2.1l-0.7-0.2l0-7.8L175.1,0z
	 M175.1,16.9l0.3,0.1c0.2,0,3.2,1,6.7,2.1l6.4,2l0,4.9l0,4.9h14.2l-6.1,0l-6.6,0l6.7,0l6.7,0l-0.1,4.4c-0.1,2.4-0.1,4.4-0.1,4.4
	c0,0-6.4,0.1-14.1,0.1l-14.1,0.1l0-3.8c0-2.2,0.1-3.7,0.1-3.5c0,0,0,0.1,0,0.2c-0.1-2-0.1-4.8-0.1-8L175.1,16.9z"/>
<path id="path3_00000175297956449289378660000000078320989018962077_" class="st0" d="M203.7,72.2c0.6,0.2,4.3,1.4,5.3,1.7l1,0.3
	v0.6c0,0.7,0.2,0.8-3.5-0.4l-3.1-1l0-0.7C203.4,72.1,203.4,72.1,203.7,72.2z M206.4,62.4h5.7l2.8,2.6l2.8,2.6v9l-0.4-0.3
	c-0.2-0.2-1.9-1.8-3.7-3.5c-1.9-1.8-3.4-3.2-3.4-3.1c0,0-0.1,0.9-0.1,1.9c0,1.4-0.1,1.8-0.2,1.8c-0.1,0-0.9-0.2-1.8-0.5
	c-0.9-0.3-2.3-0.7-3.1-1l-1.5-0.5v-2.4v-2.4L202,66l-1.4-0.7l0-1.3c0-0.7,0-1.4,0-1.5C200.7,62.4,201.8,62.4,206.4,62.4z
	 M203.4,73.9l0.9,0.3c0.5,0.2,2,0.6,3.3,1L210,76v5.7h-6.5V73.9z M218.3,62.4h6.6v19.3h-6.6V62.4z M225.7,70.2h13.5v1.7h-13.5V70.2z
	 M225.7,72.4h13.5V74h-7v7.6h-6.5V72.4z M239.2,76.8h4.2v4.9h-10.7v-3.9h6.5V76.8z M232.7,62.4h10.7v4.9h-4.2v-1h-6.5V62.4z
	 M225.7,62.4h6.5v7.4h-6.5V62.4z M244.2,62.4l9.9,0l9.9,0l0,7.5c0,4.1,0,7.6-0.1,7.6c0,0-1.5-0.4-3.2-0.9l-3.2-1l-0.1-7.8h-6.6v2.8
	c0,1.6,0,2.8-0.1,2.8c-0.1,0-1.5-0.5-3.3-1l-3.2-1l0-4.6L244.2,62.4z M244.3,72.2c0.2,0,6.2,1.9,6.4,2c0.1,0,0.1,0.5,0.1,1.1v1
	l3.3,0l3.4,0l3.2,1l3.2,1l0,1.6l0,1.6l-9.1,0c-5,0-9.4,0-9.9,0l-0.8,0v-4.7C244.2,73.5,244.2,72.2,244.3,72.2z"/>
<path id="path3_00000101103005194179978030000006584283679243468452_" class="st0" d="M8.1,42h23.4l0,7.6l0,7.6l-6.8,0l-6.8,0l0-2.9
	l0-2.9l-4-1.3c-2.2-0.7-4.4-1.4-4.8-1.5l-0.8-0.2l0-3.3L8.1,42z M32.5,42h8.8c9.6,0,9.7,0,10.9,0.8c0.9,0.5,1.5,1.3,2,2.3l0.4,0.9
	l0.1,15.4H17.8V58l3.1,0.1c0.8,0,2.4,0,4.5,0c-0.6,0-1.2,0-1.7,0c-1.8,0-0.3,0,3.3,0c3.2,0,4.7,0,3.9,0c0.9,0,1.7,0,2.6,0l9.6-0.1
	l0-3.3c-0.1-5,0.3-4.7-6.1-4.7h-4.6V42z M17.8,62.4l1.1,0.1c0.1,0,0.5,0,1.2,0c0.1,0,0.5,0,1.2,0c1,0,1.5,0,1.1,0
	c3.4,0,8.9,0,14.9,0l17.4,0l-0.1,3.9c0,0.5,0,0.9,0,1.3c0-0.3,0-0.2,0,0.3c0.2,3.7,0,9.8-0.3,10.6c-0.4,1-1.5,2.2-2.6,2.7l-0.9,0.4
	l-18.3,0.1v-7.8h4.6c5.4,0,5.7-0.1,6-1.5l0.1-0.4l0.1,0.3c0-0.7,0-1.6,0-2.9l0-3.5H31.4c0,0,0.1,3.5,0.1,7.9v7.9H14.7v-5.9l1.5-0.8
	l1.5-0.8l0.1-1.4c0-0.6,0.1-1,0.1-1.2c0-0.2-0.1-2.1-0.1-4.4L17.8,62.4z M56.4,62.2c0,0,1.5,0.4,3.2,1c1.7,0.5,4.7,1.5,6.7,2.1
	l3.6,1.1l0,2.2l0,1.9l0-0.5l0-0.8l0,0.7l0,0.7l7,0l7,0l-7.1,0l-7.1,0l7.1,0l7.1,0l1.5,0.5c0.8,0.3,1.4,0.5,1.4,0.6
	c0,0,0,0.1,0.1,0.1c0.5,0,0.8,0,0.7,0.2c-0.1,0.1,0,0.1,0.2,0c0.2-0.1,0.3,0,0.2,0.1c-0.1,0.1,0,0.1,0.2,0.1
	c0.2-0.1,0.3-0.1,0.2,0.1c0,0,0,0,0,0.1c0,0,0,0,0,0c0.1-0.2,0.7-0.1,0.7,0.1c0,0.1,0.1,0.1,0.2,0c0.1,0,0.2,0,0.2,0.1
	c0,0.1,0.1,0.1,0.2,0.1c0.1,0,0.2,0,0.2,0.1c0,0.1,0.1,0.1,0.2,0.1c0.1,0,0.3,0,0.4,0.1c0.1,0.1,0.1,0.1,0.2,0.1c0,0,0.1,0,0,0
	c0,0,0.1,0,0.1,0c0.1,0,1.6,0.4,3.3,1l3.2,1l0,3.5l0,3.4H56.2l0-9.9c0-9.7,0-9.8,0.1-4.3c0.1,3.8,0.1,6.1,0.2,7.6
	c-0.1-1.4-0.1-3.7-0.2-7.4C56.3,64.8,56.3,62.2,56.4,62.2z M56.2,42.1h13.7v11.4c0,8.8,0,11.4-0.2,11.4c-0.1,0-2.2-0.6-4.7-1.4
	c-5.1-1.6-8.2-2.6-8.6-2.7c-0.2-0.1-0.2-0.6-0.2-9.4V42.1z M83.6,42.1h13.7l-0.1,15c0,2.6,0,4.7,0,6.6l0-1.6l0,5.7
	c0,3.1,0,5.7,0,5.7c-0.1,0.1-1.5-0.4-1.5-0.5c0-0.1-0.1-0.1-0.1,0c-0.2,0.1-0.8-0.1-0.7-0.2c0,0,0,0,0,0c0,0,0,0-0.1,0
	c-0.2,0.1-0.2,0-0.2-0.1c0.1-0.1,0-0.1-0.2-0.1c-0.2,0.1-0.3,0-0.2-0.1c0.1-0.1,0-0.1-0.2-0.1c-0.2,0-0.3,0-0.3,0
	c0-0.1-0.1-0.1-0.2-0.1c-0.1,0-0.2,0-0.2-0.1s-0.1-0.1-0.1-0.1c-0.1,0-1.9-0.5-4.1-1.1c-2.2-0.7-4.3-1.3-4.8-1.5l-0.8-0.3L83.6,42.1
	z M98.9,42.1h20.4c20.3,0,20.4,0,21.1,0.3c1.4,0.5,2.5,1.7,3.1,3.2c0.3,0.8,0.4,18.6,0.2,18.6c-0.1,0-3-0.9-8.1-2.6
	c-2.1-0.7-6.8-2.1-8.4-2.6c-0.8-0.2-0.9-0.3-0.9-0.6v-0.3h3.9v-3.3c0-5.1,0.5-4.7-6.5-4.8l-5.2,0v8.5c0,4.7,0,8.5-0.1,8.5
	c-0.1,0-1.2-0.3-2.5-0.8c-1.3-0.4-4.2-1.3-6.4-2c-2.2-0.7-4.2-1.3-4.3-1.4l-0.3-0.1l0-5.9l0-5.9l-2.9-1.5L98.9,48v-2.9V42.1z
	 M104.6,64l0.3,0.1c0.2,0,3.2,1,6.8,2.1l6.5,2.1l0,1.7c0,0.6,0,1.5-0.1,2.4c0.1,0.3,0.1,1.8,0.1,4.3l0,5.1l-6.7,0.1
	c-3.7,0-6.8,0-6.8,0c-0.1,0-0.1-3.5-0.1-7.8c0-4.1,0-5.9,0.1-6L104.6,64z M119.3,58.2h0.6c0.6,0,4.2,1.1,10.5,3.1
	c1.1,0.3,3.6,1.2,5.7,1.8s4.1,1.3,4.5,1.4l0.7,0.2v2.1c0,0.6,0,1.5,0,2.4c0-0.6,0.1,0.1,0.1,2.1c0,1.1,0,2-0.1,2.2c0,0,0,0,0.1,0
	c0.1,0,0.2,0,0.2,0.1c0,0.1,0.1,0.1,0.2,0.1c-0.3-0.1-0.3-0.2,0-0.2c0.1,0,0.2,0,0.2,0.1c0,0.1,0.2,0.1,0.4,0.1
	c0.2,0,0.4,0.1,0.4,0.2c0,0,0,0.1,0,0.1c0,0,0,0,0,0c0.1,0,0.1,0,0.1,0c0,0,0,0,0,0c0.1,0,0.3,0,0.4,0.1l0.3,0.1v7.6l-5.9,0
	c-3.2,0-6.8,0-7.9,0.1l-2,0.1v-4.1c0-2.2,0-4.3,0.1-4.5c0.1-0.3,0.1,0.4,0.2,1.9c0-0.1,0-0.3,0-0.4c0-1.2-0.1-1.8-0.1-1.6
	c-0.1,0.2-0.1-0.3-0.1-1.4l0-1.7l-4.2-1.3l-4.2-1.3l0-4.7L119.3,58.2z M155.6,63.5c4.7,1.5,8.8,2.8,8.9,2.8c0,0,0.1,0.6,0.1,1.3
	c0,1.2,0,1.3-0.2,1.2c-0.1,0-1.8-0.5-3.6-1.1c-1.9-0.6-4.8-1.5-6.5-2c-1.7-0.5-3.1-1-3.2-1c-0.1-0.1-0.2-2.3-0.1-2.5
	C151,62,150.9,62,155.6,63.5z M151.1,65.9c0.1,0,1.6,0.5,3.3,1c1.8,0.6,4.8,1.5,6.7,2.1l3.4,1.1l0,1.3c0,0.4,0,1,0,1.7
	c0.1-0.1,0.1,1.5,0.1,4.1l0,4.6l-6.7,0.1c-3.7,0-6.8,0-6.8,0c-0.1,0-0.1-3.6-0.1-7.9c0-5.3,0-6.9,0.1-5.8
	C151,66.9,151,65.9,151.1,65.9z M145.2,42.1l23.9,0l1.9,1.8c1,1,3.5,3.4,5.6,5.3l3.8,3.6l0,9.4l0,9.3c0,0,0,0,0,0l0,0.1l-0.1-0.1
	c0,0,0,0,0,0l-0.6-0.5c-0.3-0.3-1-0.9-1.8-1.6c0.1,0.1,0.2,0.2,0.2,0.2c0,0-0.3-0.2-0.5-0.5c-0.2-0.2-0.4-0.4-0.4-0.5
	c-1.3-1.2-2.9-2.7-3.8-3.6c-0.2-0.2-0.5-0.5-0.8-0.8c0.1,0.1,0.1,0.2,0.1,0.2c0,0-0.3-0.2-0.5-0.5c-0.2-0.2-0.4-0.4-0.4-0.4
	c-0.4-0.4-0.8-0.7-1.1-1c-0.7-0.6-2.3-2.2-3.6-3.5l-2.4-2.3l0,4.1c0,2.2-0.1,4.1-0.1,4.1c0,0-2.7-0.8-5.9-1.8
	c-3.2-1-6.2-1.9-6.7-2.1l-0.9-0.3v-9.8l-5.8-2.9l0-2.9L145.2,42.1z M181.7,42.1h13.5l0,16c0,7.7-0.1,13-0.1,16.4c0,0,0-0.1,0-0.1
	c0.1-0.2,0.1,1.3,0.1,3.4c0,2.1,0,3.9,0,3.9c0,0-3.1,0.1-6.8,0.1l-6.7,0.1v-3.7c0-2.3,0-3.8,0.1-3.8c-0.1,0.1-0.1-5.3-0.1-16.1V42.1
	z"/>
</svg>
