<?xml version="1.0" encoding="UTF-8" standalone="no"?>
<svg
   xmlns:dc="http://purl.org/dc/elements/1.1/"
   xmlns:cc="http://creativecommons.org/ns#"
   xmlns:rdf="http://www.w3.org/1999/02/22-rdf-syntax-ns#"
   xmlns:svg="http://www.w3.org/2000/svg"
   xmlns="http://www.w3.org/2000/svg"
   xmlns:sodipodi="http://sodipodi.sourceforge.net/DTD/sodipodi-0.dtd"
   xmlns:inkscape="http://www.inkscape.org/namespaces/inkscape"
   version="1.2"
   id="Layer_2"
   x="0px"
   y="0px"
   sodipodi:docname="fds.svg"
   width="263.99982"
   height="47"
   inkscape:version="0.92.5 (2060ec1f9f, 2020-04-08)">
  <metadata
     id="metadata41">
    <rdf:RDF>
      <cc:Work
         rdf:about="">
        <dc:format>image/svg+xml</dc:format>
        <dc:type
           rdf:resource="http://purl.org/dc/dcmitype/StillImage" />
      </cc:Work>
    </rdf:RDF>
  </metadata>
  <defs
     id="defs39" />
  <sodipodi:namedview
     pagecolor="#ffffff"
     bordercolor="#666666"
     borderopacity="1"
     objecttolerance="10"
     gridtolerance="10"
     guidetolerance="10"
     inkscape:pageopacity="0"
     inkscape:pageshadow="2"
     inkscape:window-width="640"
     inkscape:window-height="480"
     id="namedview37"
     showgrid="false"
     inkscape:zoom="2.36"
     inkscape:cx="50"
     inkscape:cy="-3.0000017"
     inkscape:window-x="72"
     inkscape:window-y="27"
     inkscape:window-maximized="0"
     inkscape:current-layer="Layer_2" />
  <g
     transform="scale(0.44,0.440636)"
     id="g34">
    <path
       d="m 170.924,37.234 c 1.758,1.215 3.075,2.535 3.954,3.951 0.945,1.692 1.521,3.582 1.722,5.677 v 46.726 c 0,2.839 -0.522,5.053 -1.569,6.64 -1.047,1.587 -2.214,2.853 -3.498,3.801 -1.485,1.08 -3.177,1.824 -5.068,2.23 H 134.941 V 35.202 h 28.482 c 3.246,0.138 5.746,0.814 7.501,2.032 z m 2.232,9.424 c -0.204,-1.486 -0.642,-2.836 -1.317,-4.054 -0.543,-1.011 -1.386,-1.941 -2.535,-2.787 -1.149,-0.846 -2.707,-1.2 -4.663,-1.065 l -26.456,0.102 v 64.161 h 26.861 c 1.419,-0.27 2.704,-0.741 3.853,-1.419 0.945,-0.54 1.857,-1.35 2.736,-2.433 0.876,-1.08 1.386,-2.565 1.521,-4.459 z m -14.902,4.107 c 0.609,0.573 1.08,1.2 1.419,1.875 0.339,0.744 0.54,1.587 0.609,2.532 v 29.397 c 0.066,1.69 -0.084,2.992 -0.456,3.901 -0.372,0.915 -0.828,1.572 -1.368,1.977 -0.609,0.54 -1.284,0.843 -2.029,0.912 h -6.081 L 150.147,49.7 h 5.472 c 1.15,0.135 2.029,0.489 2.635,1.065 z m -1.215,4.407 c -0.135,-0.54 -0.339,-0.978 -0.607,-1.317 -0.609,-0.741 -1.656,-0.945 -3.144,-0.609 v 34.87 c 0.606,0.201 1.182,0.27 1.722,0.201 0.474,-0.066 0.897,-0.267 1.266,-0.606 0.376,-0.336 0.628,-0.981 0.763,-1.927 z"
       id="path7"
       style="fill:#ffffff;fill-opacity:1"
       inkscape:connector-curvature="0" />
    <path
       d="m 200.726,35.509 v 70.548 H 181.062 V 35.509 Z m -3.447,4.056 h -12.974 v 62.64 h 12.974 z"
       id="path9"
       style="fill:#ffffff;fill-opacity:1"
       inkscape:connector-curvature="0" />
    <path
       d="m 226.573,58.62 v -2.94 c 0.066,-1.351 -0.237,-2.161 -0.912,-2.434 -0.27,-0.132 -0.642,-0.132 -1.113,0 -0.543,0 -0.93,0.12 -1.167,0.357 -0.237,0.237 -0.39,0.522 -0.456,0.861 -0.138,0.336 -0.138,0.741 0,1.216 v 3.852 l 15.608,10.138 c 1.959,1.08 3.462,2.229 4.512,3.444 1.047,1.218 1.773,2.367 2.178,3.448 0.474,1.218 0.711,2.499 0.711,3.852 v 15.505 c -0.135,2.233 -0.711,4.042 -1.725,5.425 -1.011,1.386 -2.16,2.451 -3.444,3.192 -1.488,0.879 -3.145,1.521 -4.969,1.927 h -20.474 c -2.568,-0.066 -4.578,-0.709 -6.03,-1.927 -1.452,-1.212 -2.518,-2.499 -3.193,-3.849 -0.813,-1.623 -1.317,-3.447 -1.521,-5.476 V 72.1 l 18.449,11.254 v 3.952 c 0,0.609 0.081,1.065 0.252,1.368 0.168,0.303 0.387,0.525 0.657,0.66 0.27,0.201 0.609,0.303 1.014,0.303 1.014,-0.069 1.59,-0.474 1.725,-1.218 0.066,-0.267 0.033,-0.639 -0.102,-1.113 v -4.663 l -13.48,-8.107 c -2.367,-1.284 -4.14,-2.655 -5.322,-4.107 -1.183,-1.452 -2.047,-2.754 -2.584,-3.903 -0.609,-1.351 -0.912,-2.704 -0.912,-4.054 V 45.851 c 0.132,-2.569 0.741,-4.561 1.824,-5.98 1.081,-1.419 2.299,-2.466 3.649,-3.144 1.554,-0.741 3.276,-1.182 5.169,-1.317 h 18.143 c 3.108,0.135 5.509,0.711 7.198,1.725 1.689,1.011 2.973,2.16 3.852,3.444 0.945,1.488 1.554,3.144 1.824,4.969 v 25.844 z m -1.623,-8.818 c 1.08,0.135 1.911,0.387 2.485,0.762 0.576,0.372 1.032,0.792 1.368,1.266 0.339,0.54 0.576,1.149 0.711,1.824 v 2.938 l 13.177,7.905 -0.204,-17.329 c 0.066,-1.759 -0.321,-3.193 -1.167,-4.309 -0.843,-1.116 -1.773,-1.977 -2.787,-2.583 -1.216,-0.744 -2.602,-1.218 -4.156,-1.422 h -19.664 c -1.554,0.138 -2.772,0.561 -3.648,1.269 -0.879,0.708 -1.554,1.434 -2.028,2.178 -0.54,0.948 -0.912,1.962 -1.116,3.042 v 16.421 c -0.066,1.35 0.204,2.532 0.813,3.546 0.606,1.015 1.284,1.891 2.025,2.635 0.813,0.879 1.791,1.656 2.94,2.331 l 16.625,10.744 v 6.589 c 0,1.284 -0.273,2.283 -0.813,2.991 -0.54,0.711 -1.149,1.233 -1.824,1.569 -0.745,0.408 -1.621,0.678 -2.635,0.813 -1.284,-0.135 -2.265,-0.42 -2.94,-0.861 -0.675,-0.438 -1.182,-0.927 -1.521,-1.47 -0.405,-0.606 -0.675,-1.317 -0.81,-2.13 V 85.28 l -11.86,-7.095 -0.201,16.621 c 0.066,1.96 0.489,3.463 1.266,4.513 0.777,1.047 1.638,1.839 2.583,2.382 1.08,0.606 2.331,0.978 3.75,1.113 h 19.766 c 1.959,-0.066 3.43,-0.507 4.411,-1.317 0.978,-0.81 1.704,-1.689 2.178,-2.634 0.54,-1.149 0.813,-2.433 0.813,-3.853 V 79.907 c 0.066,-0.813 -0.135,-1.623 -0.609,-2.436 -0.474,-0.81 -1.014,-1.518 -1.62,-2.128 -0.744,-0.744 -1.557,-1.452 -2.433,-2.13 L 219.781,61.557 v -7.501 c 0.066,-1.149 0.387,-1.992 0.963,-2.532 0.573,-0.54 1.167,-0.948 1.773,-1.218 0.747,-0.267 1.557,-0.435 2.433,-0.504 z"
       id="path11"
       style="fill:#ffffff;fill-opacity:1"
       inkscape:connector-curvature="0" />
    <path
       d="m 289.418,62.067 -7.297,8.41 7.297,8.92 v 26.66 H 270.666 V 86.394 l -2.634,-2.434 v 22.299 H 249.076 V 35.41 h 18.956 v 22.298 l 2.634,-3.145 V 35.41 h 18.752 z m -3.244,-22.604 h -11.758 l -0.102,16.928 -9.529,9.73 -0.405,-27.063 h -11.86 v 63.045 h 11.758 V 75.95 l 9.226,8.718 v 17.534 h 12.466 v -22.4 l -8.008,-9.325 8.212,-9.526 z"
       id="path13"
       style="fill:#ffffff;fill-opacity:1"
       inkscape:connector-curvature="0" />
    <path
       d="m 344.458,58.62 v -2.94 c 0.066,-1.351 -0.237,-2.161 -0.912,-2.434 -0.27,-0.132 -0.642,-0.132 -1.116,0 -0.543,0 -0.93,0.12 -1.167,0.357 -0.237,0.237 -0.387,0.522 -0.456,0.861 -0.135,0.336 -0.135,0.741 0,1.216 v 3.852 l 15.61,10.138 c 1.959,1.08 3.463,2.229 4.513,3.444 1.047,1.218 1.773,2.367 2.178,3.448 0.471,1.218 0.711,2.499 0.711,3.852 v 15.505 c -0.138,2.233 -0.711,4.042 -1.725,5.425 -1.014,1.386 -2.163,2.451 -3.448,3.192 -1.485,0.879 -3.141,1.521 -4.965,1.927 h -20.474 c -2.568,-0.066 -4.578,-0.709 -6.034,-1.927 -1.452,-1.212 -2.514,-2.499 -3.192,-3.849 -0.81,-1.623 -1.317,-3.447 -1.521,-5.476 V 72.1 l 18.449,11.254 v 3.952 c 0,0.609 0.084,1.065 0.255,1.368 0.165,0.303 0.387,0.525 0.657,0.66 0.27,0.201 0.609,0.303 1.014,0.303 1.014,-0.069 1.587,-0.474 1.722,-1.218 0.069,-0.267 0.033,-0.639 -0.102,-1.113 v -4.663 l -13.48,-8.107 c -2.364,-1.284 -4.141,-2.655 -5.323,-4.107 -1.179,-1.452 -2.043,-2.754 -2.583,-3.903 -0.606,-1.351 -0.912,-2.704 -0.912,-4.054 V 45.851 c 0.135,-2.569 0.744,-4.561 1.827,-5.98 1.08,-1.419 2.298,-2.466 3.648,-3.144 1.555,-0.741 3.277,-1.182 5.17,-1.317 h 18.143 c 3.108,0.135 5.505,0.711 7.197,1.725 1.69,1.011 2.974,2.16 3.853,3.444 0.945,1.488 1.554,3.144 1.824,4.969 v 25.844 z m -1.623,-8.818 c 1.08,0.135 1.911,0.387 2.484,0.762 0.573,0.372 1.032,0.792 1.368,1.266 0.339,0.54 0.573,1.149 0.711,1.824 v 2.938 l 13.175,7.905 -0.201,-17.329 c 0.066,-1.759 -0.321,-3.193 -1.164,-4.309 -0.847,-1.116 -1.777,-1.977 -2.791,-2.583 -1.215,-0.744 -2.601,-1.218 -4.155,-1.422 h -19.664 c -1.554,0.138 -2.772,0.561 -3.651,1.269 -0.877,0.708 -1.555,1.434 -2.026,2.178 -0.543,0.948 -0.912,1.962 -1.113,3.042 v 16.421 c -0.069,1.35 0.201,2.532 0.81,3.546 0.606,1.015 1.281,1.891 2.026,2.635 0.813,0.879 1.791,1.656 2.94,2.331 l 16.624,10.744 v 6.589 c 0,1.284 -0.273,2.283 -0.813,2.991 -0.54,0.711 -1.146,1.233 -1.824,1.569 -0.744,0.408 -1.62,0.678 -2.634,0.813 -1.284,-0.135 -2.265,-0.42 -2.94,-0.861 -0.675,-0.438 -1.182,-0.927 -1.522,-1.47 -0.405,-0.606 -0.678,-1.317 -0.81,-2.13 V 85.28 l -11.86,-7.095 -0.201,16.621 c 0.066,1.96 0.489,3.463 1.266,4.513 0.777,1.047 1.638,1.839 2.584,2.382 1.08,0.606 2.331,0.978 3.75,1.113 h 19.766 c 1.959,-0.066 3.429,-0.507 4.41,-1.317 0.978,-0.81 1.705,-1.689 2.179,-2.634 0.543,-1.149 0.813,-2.433 0.813,-3.853 V 79.907 c 0.066,-0.813 -0.138,-1.623 -0.609,-2.436 -0.474,-0.81 -1.014,-1.518 -1.621,-2.128 -0.744,-0.744 -1.557,-1.452 -2.433,-2.13 L 337.665,61.557 v -7.501 c 0.066,-1.149 0.387,-1.992 0.964,-2.532 0.573,-0.54 1.164,-0.948 1.773,-1.218 0.744,-0.267 1.554,-0.435 2.433,-0.504 z"
       id="path15"
       style="fill:#ffffff;fill-opacity:1"
       inkscape:connector-curvature="0" />
    <path
       d="M 409.531,35.611 V 95.82 c -0.069,2.365 -0.558,4.24 -1.47,5.626 -0.912,1.386 -1.941,2.448 -3.09,3.192 -1.287,0.813 -2.772,1.386 -4.461,1.723 H 370.609 V 89.13 h 19.055 V 85.784 H 376.69 c -2.499,-0.132 -4.392,-0.741 -5.676,-1.824 -1.284,-1.08 -2.196,-2.298 -2.737,-3.648 -0.678,-1.554 -1.014,-3.276 -1.014,-5.17 V 35.611 h 19.463 v 32.334 h 3.346 V 35.611 Z m -3.345,3.75 h -12.262 v 27.675 c -0.069,0.876 -0.306,1.653 -0.711,2.328 -0.339,0.609 -0.861,1.149 -1.572,1.623 -0.711,0.474 -1.74,0.744 -3.091,0.81 -1.014,0.069 -1.893,-0.033 -2.637,-0.303 -0.675,-0.27 -1.281,-0.744 -1.824,-1.419 -0.54,-0.678 -0.846,-1.758 -0.909,-3.243 V 39.364 h -11.86 v 35.982 c 0.066,1.351 0.372,2.569 0.912,3.649 0.471,0.945 1.197,1.806 2.178,2.583 0.978,0.777 2.415,1.167 4.308,1.167 h 15.104 v 5.269 c -0.138,0.879 -0.441,1.656 -0.915,2.331 -0.405,0.543 -1.014,1.047 -1.824,1.521 -0.813,0.474 -1.894,0.711 -3.244,0.711 h -13.582 v 10.033 h 25.848 c 1.149,-0.135 2.163,-0.471 3.042,-1.011 0.741,-0.474 1.434,-1.182 2.076,-2.13 0.642,-0.945 0.963,-2.229 0.963,-3.853 z"
       id="path17"
       style="fill:#ffffff;fill-opacity:1"
       inkscape:connector-curvature="0" />
    <path
       d="m 435.277,58.62 v -2.94 c 0.069,-1.351 -0.237,-2.161 -0.912,-2.434 -0.27,-0.132 -0.642,-0.132 -1.113,0 -0.543,0 -0.93,0.12 -1.167,0.357 -0.237,0.237 -0.39,0.522 -0.456,0.861 -0.135,0.336 -0.135,0.741 0,1.216 v 3.852 l 15.607,10.138 c 1.959,1.08 3.463,2.229 4.513,3.444 1.047,1.218 1.773,2.367 2.181,3.448 0.471,1.218 0.708,2.499 0.708,3.852 v 15.505 c -0.135,2.233 -0.708,4.042 -1.725,5.425 -1.011,1.386 -2.16,2.451 -3.445,3.192 -1.485,0.879 -3.141,1.521 -4.965,1.927 h -20.477 c -2.568,-0.066 -4.578,-0.709 -6.031,-1.927 -1.452,-1.212 -2.517,-2.499 -3.192,-3.849 -0.81,-1.623 -1.317,-3.447 -1.521,-5.476 V 72.1 l 18.449,11.254 v 3.952 c 0,0.609 0.081,1.065 0.252,1.368 0.168,0.303 0.387,0.525 0.657,0.66 0.273,0.201 0.609,0.303 1.017,0.303 1.011,-0.069 1.584,-0.474 1.722,-1.218 0.066,-0.267 0.033,-0.639 -0.102,-1.113 v -4.663 l -13.48,-8.107 c -2.367,-1.284 -4.141,-2.655 -5.323,-4.107 -1.182,-1.452 -2.046,-2.754 -2.583,-3.903 -0.609,-1.351 -0.912,-2.704 -0.912,-4.054 V 45.851 c 0.132,-2.569 0.744,-4.561 1.824,-5.98 1.08,-1.419 2.298,-2.466 3.648,-3.144 1.555,-0.741 3.277,-1.182 5.17,-1.317 h 18.143 c 3.108,0.135 5.508,0.711 7.197,1.725 1.69,1.011 2.974,2.16 3.853,3.444 0.945,1.488 1.554,3.144 1.824,4.969 v 25.844 z m -1.62,-8.818 c 1.08,0.135 1.908,0.387 2.484,0.762 0.573,0.372 1.029,0.792 1.368,1.266 0.336,0.54 0.573,1.149 0.708,1.824 v 2.938 l 13.178,7.905 -0.204,-17.329 c 0.069,-1.759 -0.321,-3.193 -1.164,-4.309 -0.847,-1.116 -1.774,-1.977 -2.788,-2.583 -1.218,-0.744 -2.601,-1.218 -4.155,-1.422 h -19.667 c -1.554,0.138 -2.769,0.561 -3.648,1.269 -0.877,0.708 -1.555,1.434 -2.026,2.178 -0.543,0.948 -0.915,1.962 -1.116,3.042 v 16.421 c -0.069,1.35 0.201,2.532 0.813,3.546 0.606,1.015 1.281,1.891 2.025,2.635 0.811,0.879 1.792,1.656 2.941,2.331 l 16.621,10.744 v 6.589 c 0,1.284 -0.27,2.283 -0.81,2.991 -0.543,0.711 -1.149,1.233 -1.827,1.569 -0.741,0.408 -1.62,0.678 -2.634,0.813 -1.284,-0.135 -2.262,-0.42 -2.937,-0.861 -0.678,-0.438 -1.182,-0.927 -1.522,-1.47 -0.408,-0.606 -0.678,-1.317 -0.813,-2.13 V 85.28 l -11.86,-7.095 -0.201,16.621 c 0.069,1.96 0.489,3.463 1.266,4.513 0.777,1.047 1.638,1.839 2.587,2.382 1.08,0.606 2.328,0.978 3.75,1.113 h 19.766 c 1.959,-0.066 3.429,-0.507 4.407,-1.317 0.981,-0.81 1.707,-1.689 2.182,-2.634 0.54,-1.149 0.81,-2.433 0.81,-3.853 V 79.907 c 0.069,-0.813 -0.135,-1.623 -0.606,-2.436 -0.474,-0.81 -1.018,-1.518 -1.624,-2.128 -0.744,-0.744 -1.554,-1.452 -2.433,-2.13 L 428.487,61.557 v -7.501 c 0.066,-1.149 0.387,-1.992 0.964,-2.532 0.573,-0.54 1.164,-0.948 1.773,-1.218 0.741,-0.267 1.554,-0.435 2.433,-0.504 z"
       id="path19"
       style="fill:#ffffff;fill-opacity:1"
       inkscape:connector-curvature="0" />
    <path
       d="M 495.184,35.815 V 54.26 h -8.719 v 51.999 H 465.991 V 54.26 h -8.314 V 35.41 Z m -3.954,3.648 h -29.901 v 10.744 h 8.514 v 52.403 h 12.365 v -52.1 h 9.022 z"
       id="path21"
       style="fill:#ffffff;fill-opacity:1"
       inkscape:connector-curvature="0" />
    <path
       d="m 518.295,54.059 v 8.209 h 12.974 V 80.717 H 517.89 v 7.804 h 13.379 v 18.044 l -32.944,-0.204 V 35.41 h 33.349 v 18.649 z m -3.954,11.96 v -15.71 h 13.378 V 39.565 h -25.643 v 64.059 h 25.643 V 92.373 H 514.137 V 76.967 H 527.92 V 66.019 Z"
       id="path23"
       style="fill:#ffffff;fill-opacity:1"
       inkscape:connector-curvature="0" />
    <path
       d="m 596.24,37.993 c 1.35,1.116 2.298,2.28 2.838,3.498 0.678,1.419 0.981,2.973 0.912,4.663 v 60.51 H 580.731 V 55.782 c -0.069,-0.742 -0.336,-1.216 -0.81,-1.42 -0.273,-0.066 -0.543,-0.102 -0.813,-0.102 -0.405,0 -0.726,0.102 -0.963,0.306 -0.237,0.201 -0.42,0.405 -0.555,0.606 -0.204,0.27 -0.306,0.544 -0.306,0.814 v 50.477 H 558.229 V 56.085 c 0,-0.742 -0.27,-1.318 -0.81,-1.723 -0.27,-0.201 -0.54,-0.336 -0.813,-0.405 -0.471,0 -0.843,0.102 -1.116,0.303 -0.27,0.204 -0.471,0.441 -0.606,0.711 -0.201,0.27 -0.303,0.606 -0.303,1.012 v 50.174 H 536.132 V 35.509 h 23.618 c 1.486,-0.135 2.788,-0.018 3.901,0.354 1.116,0.372 2.079,0.828 2.889,1.368 0.879,0.609 1.689,1.32 2.433,2.13 0.405,-0.744 0.912,-1.335 1.521,-1.773 0.607,-0.441 1.216,-0.795 1.825,-1.065 0.678,-0.27 1.386,-0.507 2.13,-0.711 h 15.913 c 2.566,0.339 4.528,1.068 5.878,2.181 z m 0.204,7.654 c -0.069,-1.15 -0.339,-2.164 -0.81,-3.043 -0.408,-0.744 -1.101,-1.434 -2.079,-2.079 -0.981,-0.639 -2.349,-0.96 -4.108,-0.96 h -13.885 c -1.08,0.066 -2.094,0.336 -3.039,0.81 -0.813,0.405 -1.642,1.014 -2.485,1.824 -0.846,0.813 -1.506,1.893 -1.977,3.243 -0.543,-1.281 -1.182,-2.397 -1.926,-3.345 -0.744,-0.81 -1.656,-1.554 -2.736,-2.229 -1.083,-0.675 -2.503,-0.978 -4.258,-0.909 l -18.953,0.201 v 63.45 H 551.44 V 55.58 c -0.069,-0.948 0.099,-1.791 0.504,-2.535 0.339,-0.678 0.897,-1.284 1.674,-1.824 0.777,-0.543 1.944,-0.813 3.498,-0.813 0.81,0 1.587,0.204 2.331,0.609 0.54,0.336 1.065,0.927 1.569,1.773 0.508,0.846 0.763,2.079 0.763,3.7 v 46.12 h 11.962 V 55.577 c 0,-0.81 0.201,-1.587 0.606,-2.331 0.336,-0.609 0.879,-1.167 1.623,-1.671 0.741,-0.507 1.857,-0.762 3.345,-0.762 0.81,-0.066 1.587,0.033 2.329,0.303 0.609,0.273 1.167,0.744 1.671,1.422 0.507,0.675 0.762,1.755 0.762,3.241 v 46.828 h 12.367 z"
       id="path25"
       style="fill:#ffffff;fill-opacity:1"
       inkscape:connector-curvature="0" />
    <polygon
       points="147.564,4.326 139.499,4.326 139.499,9.574 147.564,9.574 147.564,14.038 139.499,14.038 139.499,23.366 135.151,23.366 135.151,0 147.564,0 "
       id="polygon27"
       style="fill:#ffffff;fill-opacity:1" />
    <path
       d="m 161.68,23.366 h -4.23 v -3.639 h -8.191 l -2.427,3.639 h -4.978 L 158.236,0 h 3.444 z m -4.23,-8.052 v -6.82 l -5.002,6.82 z"
       id="path29"
       style="fill:#ffffff;fill-opacity:1"
       inkscape:connector-curvature="0" />
    <polygon
       points="175.157,15.707 182.121,0 187.075,0 187.075,23.366 182.709,23.366 182.709,11.584 177.315,23.366 172.901,23.366 167.702,11.584 167.702,23.366 163.336,23.366 163.336,0 168.242,0 "
       id="polygon31"
       style="fill:#ffffff;fill-opacity:1" />
    <polygon
       points="280.288,15.707 287.251,0 292.208,0 292.208,23.366 287.842,23.366 287.842,11.584 282.445,23.366 278.031,23.366 272.832,11.584 272.832,23.366 268.467,23.366 268.467,0 273.372,0 "
       id="polygon33"
       style="fill:#ffffff;fill-opacity:1" />
    <rect
       x="188.452"
       width="4.5180001"
       height="23.365999"
       id="rect35"
       style="fill:#ffffff;fill-opacity:1"
       y="0" />
    <polygon
       points="198.731,19.106 204.617,19.106 204.617,23.366 194.212,23.366 194.212,0 198.731,0 "
       id="polygon37"
       style="fill:#ffffff;fill-opacity:1" />
    <polygon
       points="209.364,9.574 213.972,0 218.947,0 211.464,14.86 211.464,23.366 207.083,23.366 207.083,14.86 199.598,0 204.617,0 "
       id="polygon39"
       style="fill:#ffffff;fill-opacity:1" />
    <path
       d="M 243.567,17.333"
       id="path41"
       style="fill:#ffffff;fill-opacity:1;stroke:#231f20;stroke-width:0.34509999"
       inkscape:connector-curvature="0" />
    <path
       d="m 243.504,6.445 c -1.986,-3.781 -5.946,-6.361 -10.513,-6.361 -6.553,0 -11.866,5.314 -11.866,11.866 0,6.553 5.31,11.863 11.866,11.863 4.597,0 8.584,-2.613 10.555,-6.438 l -5.376,0.045 c -1.327,1.221 -3.097,1.968 -5.044,1.968 -4.107,0 -7.438,-3.33 -7.438,-7.438 0,-4.11 3.331,-7.441 7.438,-7.441 1.92,0 3.666,0.727 4.987,1.921 z"
       id="path43"
       style="fill:#ffffff;fill-opacity:1"
       inkscape:connector-curvature="0" />
    <path
       d="m 255.244,23.876 c -6.588,0 -11.926,-5.34 -11.926,-11.926 0,-6.585 5.341,-11.926 11.926,-11.926 6.589,0 11.926,5.341 11.926,11.926 0.003,6.589 -5.337,11.926 -11.926,11.926 z m 7.594,-11.926 c 0,-4.167 -3.381,-7.546 -7.549,-7.546 -4.167,0 -7.546,3.379 -7.546,7.546 0,4.168 3.379,7.546 7.546,7.546 4.168,0 7.549,-3.378 7.549,-7.546 z"
       id="path45"
       style="fill:#ffffff;fill-opacity:1"
       inkscape:connector-curvature="0" />
    <path
       d="m 301.512,0.003 c 3.954,0.318 7.063,3.627 7.063,7.663 0,4.035 -3.109,7.344 -7.063,7.663 l -3.417,-0.015 v 8.052 h -4.381 V 0 h 4.381 z m -3.414,4.494 v 6.337 l 3.414,-0.003 c 1.494,-0.279 2.625,-1.59 2.625,-3.165 0,-1.575 -1.131,-2.887 -2.625,-3.166 z"
       id="path47"
       style="fill:#ffffff;fill-opacity:1"
       inkscape:connector-curvature="0" />
    <path
       d="M 356.708,23.669 H 352.37 V 0.201 l 6.024,-0.009 3.415,0.003 c 3.954,0.318 7.065,3.627 7.065,7.663 0,3.297 -2.076,6.108 -4.992,7.2 l 5.056,8.608 h -4.747 l -7.084,-12.103 h -0.399 z m -2.694,-0.111 m 4.383,0 m 3.415,-12.535 c 1.494,-0.279 2.625,-1.59 2.625,-3.165 0,-1.575 -1.131,-2.887 -2.625,-3.166 h -5.104 v 6.337 z"
       id="path49"
       style="fill:#ffffff;fill-opacity:1"
       inkscape:connector-curvature="0" />
    <path
       d="m 320.633,9.118 m 0,0 m -6.334,0 m -0.015,4.383 m 0,0 0.003,3.415 c 0.282,1.497 1.59,2.625 3.165,2.625 1.576,0 2.887,-1.131 3.169,-2.625 l 0.003,-3.415 0.009,-13.3 h 4.488 v 13.3 l -0.006,3.415 c -0.318,3.954 -3.627,7.062 -7.663,7.062 -4.035,0 -7.344,-3.108 -7.662,-7.062 l 0.018,-3.415 -0.009,-13.3 h 4.503 z"
       id="path51"
       style="fill:#ffffff;fill-opacity:1"
       inkscape:connector-curvature="0" />
    <polygon
       points="334.026,4.623 337.995,4.623 337.995,0.201 325.766,0.201 325.766,4.623 329.601,4.623 329.601,23.669 334.026,23.669 "
       id="polygon53"
       style="fill:#ffffff;fill-opacity:1" />
    <polygon
       points="339.07,0.201 351.23,0.201 351.23,4.497 343.429,4.497 343.429,10.069 351.23,10.069 351.23,14.452 343.429,14.452 343.429,19.334 351.23,19.334 351.23,23.669 339.07,23.669 "
       id="polygon55"
       style="fill:#ffffff;fill-opacity:1" />
    <path
       d="M 356.708,11.584"
       id="path57"
       style="fill:#ffffff;fill-opacity:1;stroke:#231f20;stroke-width:0.34509999"
       inkscape:connector-curvature="0" />
    <path
       d="M 3.159,94.524 C 3.165,89.727 5.941,85.58 9.979,83.609 v 0 c 0,-2.034 0,-4.194 0,-6.513 v 0 C 4.026,73.768 0.003,67.402 0,60.099 v 0 C 0.003,52.796 4.026,46.427 9.979,43.102 v 0 c 0,-14.62 0,-27.056 0,-29.406 v 0 C 9.982,6.256 16.01,0.225 23.45,0.225 v 0 h 72.289 c 7.441,0 13.472,6.031 13.472,13.471 v 0 c 0,2.35 0,14.786 0,29.406 v 0 c 5.952,3.325 9.976,9.694 9.979,16.997 v 0 c -0.003,7.303 -4.027,13.669 -9.979,16.997 v 0 c 0,2.319 0,4.479 0,6.513 v 0 c 4.041,1.971 6.816,6.118 6.819,10.915 v 0 c -0.003,6.706 -5.433,12.14 -12.142,12.14 v 0 H 69.133 v -2.662 C 69.124,98.77 64.887,94.533 59.655,94.524 v 0 -2.664 -2.661 c 7.267,0.003 13.306,5.238 14.56,12.145 v 0 h 29.676 c 3.766,-0.009 6.814,-3.057 6.817,-6.82 v 0 c 0.006,-3.096 -2.067,-5.709 -4.888,-6.543 v 0 l -1.101,-0.324 -0.828,-1.635 v -0.637 c 0,-2.976 0,-6.219 0,-9.853 v 0 -0.594 l 0.717,-1.533 0.903,-0.402 c 4.927,-2.214 8.362,-7.155 8.359,-12.907 v 0 c 0.003,-5.725 -3.399,-10.645 -8.287,-12.874 v 0 l -0.192,-0.087 -1.5,-0.993 v -1.429 c 0,-15.307 0,-28.583 0,-31.02 v 0 c -0.009,-4.5 -3.651,-8.139 -8.152,-8.148 v 0 H 23.45 c -4.5,0.009 -8.139,3.648 -8.148,8.148 v 0 c 0,2.437 0,15.713 0,31.02 v 0 1.429 l -1.195,0.789 -0.309,0.204 -0.189,0.087 C 8.719,49.451 5.32,54.374 5.323,60.096 v 0 c -0.003,5.752 3.432,10.693 8.358,12.907 v 0 l 0.9,0.402 0.721,1.533 v 0.594 c 0,3.634 0,6.88 0,9.853 v 0 0.637 l -0.832,1.635 -1.101,0.324 c -2.82,0.834 -4.893,3.447 -4.887,6.543 v 0 c 0.006,3.766 3.051,6.811 6.817,6.82 v 0 h 29.675 c 1.258,-6.907 7.297,-12.142 14.564,-12.145 v 0 h 0.111 v 2.661 2.664 h -0.108 c -5.236,0.009 -9.469,4.246 -9.481,9.478 v 0 2.662 H 15.302 C 8.596,106.661 3.162,101.23 3.159,94.524 Z"
       id="path65"
       style="fill:#ffffff;fill-opacity:1"
       inkscape:connector-curvature="0" />
    <path
       d="M 12.64,96.964"
       id="path67"
       style="fill:#ffffff;fill-opacity:1"
       inkscape:connector-curvature="0" />
    <path
       d="M 17.573,40.525 C 17.576,29.472 26.535,20.516 37.588,20.513 v 0 C 48.641,20.516 57.6,29.472 57.6,40.525 v 0 c 0,11.053 -8.959,20.012 -20.012,20.012 v 0 c -11.053,0 -20.012,-8.959 -20.015,-20.012 z m 3.327,0 c 0.018,9.217 7.471,16.67 16.688,16.688 v 0 c 9.214,-0.018 16.669,-7.471 16.687,-16.688 v 0 C 54.257,31.311 46.802,23.855 37.588,23.84 v 0 C 28.371,23.855 20.918,31.311 20.9,40.525 Z"
       id="path69"
       style="fill:#ffffff;fill-opacity:1"
       inkscape:connector-curvature="0" />
    <circle
       cx="22.245001"
       cy="54.786999"
       r="1.552"
       id="circle71"
       style="fill:#ffffff;fill-opacity:1"
       transform="matrix(3.000294,0,0,3.000291,-16.236731,-123.79446)" />
    <path
       d="m 61.593,40.525 v 0 c 0,-11.053 8.959,-20.009 20.012,-20.012 v 0 c 11.053,0.003 20.012,8.959 20.012,20.012 v 0 c 0,11.053 -8.959,20.012 -20.012,20.012 v 0 c -11.053,0 -20.012,-8.959 -20.012,-20.012 z m 20.012,16.688 c 9.214,-0.015 16.67,-7.471 16.685,-16.685 v 0 C 98.275,31.314 90.819,23.858 81.605,23.84 v 0 c -9.214,0.018 -16.673,7.474 -16.688,16.688 v 0 c 0.018,9.214 7.474,16.667 16.688,16.685 z"
       id="path73"
       style="fill:#ffffff;fill-opacity:1"
       inkscape:connector-curvature="0" />
    <circle
       cx="28.305"
       cy="54.786999"
       r="1.552"
       id="circle75"
       style="fill:#ffffff;fill-opacity:1"
       transform="matrix(3.000297,0,0,3.000291,-16.236814,-123.79446)" />
  </g>
</svg>
