<?xml version="1.0" encoding="UTF-8" standalone="no"?>
<svg
   xmlns:dc="http://purl.org/dc/elements/1.1/"
   xmlns:cc="http://creativecommons.org/ns#"
   xmlns:rdf="http://www.w3.org/1999/02/22-rdf-syntax-ns#"
   xmlns:svg="http://www.w3.org/2000/svg"
   xmlns="http://www.w3.org/2000/svg"
   xmlns:sodipodi="http://sodipodi.sourceforge.net/DTD/sodipodi-0.dtd"
   xmlns:inkscape="http://www.inkscape.org/namespaces/inkscape"
   id="svg2"
   version="1.1"
   enable-background="new 0 0 566.929 98.574"
   y="0px"
   x="0px"
   sodipodi:docname="gb.svg"
   width="263.99985"
   height="45.999981"
   inkscape:version="0.92.5 (2060ec1f9f, 2020-04-08)">
  <metadata
     id="metadata13">
    <rdf:RDF>
      <cc:Work
         rdf:about="">
        <dc:format>image/svg+xml</dc:format>
        <dc:type
           rdf:resource="http://purl.org/dc/dcmitype/StillImage" />
      </cc:Work>
    </rdf:RDF>
  </metadata>
  <defs
     id="defs11" />
  <sodipodi:namedview
     pagecolor="#ffffff"
     bordercolor="#666666"
     borderopacity="1"
     objecttolerance="10"
     gridtolerance="10"
     guidetolerance="10"
     inkscape:pageopacity="0"
     inkscape:pageshadow="2"
     inkscape:window-width="532"
     inkscape:window-height="460"
     id="namedview9"
     showgrid="false"
     inkscape:zoom="2.36"
     inkscape:cx="50.00748"
     inkscape:cy="-4.0000208"
     inkscape:window-x="72"
     inkscape:window-y="27"
     inkscape:window-maximized="0"
     inkscape:current-layer="svg2" />
  <g
     id="g4"
     transform="matrix(0.465655,0,0,0.46666,0.00607224,-2.9906593e-4)"
     style="fill:#ffffff">
    <polygon
       id="_43443024"
       points="532.22,54.913 526.59,97.041 504.34,97.041 510.86,48.973 488.61,0.917 512.64,0.917 524.51,28.215 542.31,0.917 566.93,0.917 " />
    <polygon
       id="_43441624"
       points="315.36,37.706 286.29,37.706 288.37,22.276 322.18,22.276 325.45,0.917 269.38,0.917 256.03,97.041 311.8,97.041 314.77,75.671 280.95,75.671 283.03,59.066 312.39,59.066 " />
    <path
       id="_43775888"
       d="m 112.15,49.565 7.416,-19.874 2.375,19.874 h -9.79 z m -8.01,18.987 h 20.172 l 3.563,28.48 h 36.488 l 16.91,-52.213 8.309,52.213 h 19.283 l 21.359,-55.179 3.561,55.179 h 21.359 L 249.21,0.913 H 223.696 L 203.816,51.64 196.101,0.913 H 173.259 L 147.154,79.825 137.363,0.913 h -28.48 l -31.744,79.8 4.154,-31.149 H 42.722 L 40.05,68.551 h 16.912 l -1.188,6.526 c -2.967,1.778 -9.789,2.076 -12.459,2.076 -2.67,0 -22.545,-1.779 -21.656,-23.14 C 22.541,32.655 51.021,12.779 84.84,23.755 L 88.106,3.285 C 65.558,-4.427 6.34,-0.111 0.291,52.828 -3.268,83.977 25.212,98.811 44.197,98.516 55.174,99.11 67.635,94.955 72.084,92.581 l -1.482,4.451 h 22.547 l 10.977,-28.48 z"
       inkscape:connector-curvature="0" />
    <path
       id="_44102912"
       d="m 464.58,0.028 c -15.428,-0.594 -37.678,8.306 -45.094,44.204 -7.416,35.894 12.459,50.431 30.852,52.804 18.396,2.373 44.205,-9.196 48.951,-43.609 4.75,-34.414 -12.17,-52.508 -34.71,-53.399 z m -2.37,20.47 c 6.229,0 19.578,4.154 16.314,29.071 -3.262,24.92 -18.688,27.887 -24.326,27.293 -5.637,-0.594 -17.207,-4.448 -13.943,-27.293 3.27,-22.841 15.43,-29.368 21.96,-29.071 z"
       inkscape:connector-curvature="0" />
    <path
       id="_44104296"
       d="m 370.83,37.706 h 12.461 c 9.197,0 10.977,-5.934 11.271,-8.305 0.297,-2.375 -2.371,-7.122 -7.117,-7.122 h -14.537 l -2.07,15.427 z m -5.34,37.971 h 16.912 c 9.195,0 11.271,-7.119 11.566,-9.493 0.299,-2.373 -2.371,-7.118 -7.117,-7.118 h -18.986 l -2.37,16.611 z M 340.58,97.038 353.93,0.92 h 40.938 c 9.793,0 24.031,11.274 22.252,26.403 -1.779,15.13 -6.527,16.02 -9.791,18.393 5.045,4.447 10.088,11.568 8.012,24.918 -2.078,13.352 -13.055,26.403 -32.338,26.403 l -42.42,10e-4 z"
       inkscape:connector-curvature="0" />
  </g>
</svg>
