<?xml version="1.0" encoding="UTF-8" standalone="no"?>
<svg
   xmlns:dc="http://purl.org/dc/elements/1.1/"
   xmlns:cc="http://creativecommons.org/ns#"
   xmlns:rdf="http://www.w3.org/1999/02/22-rdf-syntax-ns#"
   xmlns:svg="http://www.w3.org/2000/svg"
   xmlns="http://www.w3.org/2000/svg"
   xmlns:sodipodi="http://sodipodi.sourceforge.net/DTD/sodipodi-0.dtd"
   xmlns:inkscape="http://www.inkscape.org/namespaces/inkscape"
   id="svg2"
   version="1.1"
   enable-background="new 0 0 566.929 98.574"
   y="0px"
   x="0px"
   sodipodi:docname="gbah.svg"
   width="263.99979"
   height="87.000076"
   inkscape:version="0.92.5 (2060ec1f9f, 2020-04-08)">
  <metadata
     id="metadata20">
    <rdf:RDF>
      <cc:Work
         rdf:about="">
        <dc:format>image/svg+xml</dc:format>
        <dc:type
           rdf:resource="http://purl.org/dc/dcmitype/StillImage" />
      </cc:Work>
    </rdf:RDF>
  </metadata>
  <defs
     id="defs18" />
  <sodipodi:namedview
     pagecolor="#ffffff"
     bordercolor="#666666"
     borderopacity="1"
     objecttolerance="10"
     gridtolerance="10"
     guidetolerance="10"
     inkscape:pageopacity="0"
     inkscape:pageshadow="2"
     inkscape:window-width="640"
     inkscape:window-height="480"
     id="namedview16"
     showgrid="false"
     inkscape:zoom="2.36"
     inkscape:cx="49.999507"
     inkscape:cy="37"
     inkscape:window-x="72"
     inkscape:window-y="27"
     inkscape:window-maximized="0"
     inkscape:current-layer="svg2" />
  <g
     transform="matrix(0.44,0,0,0.440765,-2.1684066e-4,3.1971017e-5)"
     id="g11">
    <polygon
       id="_43443024"
       points="563.266,58.114 557.307,102.696 533.76,102.696 540.661,51.826 517.114,0.968 542.544,0.968 555.107,29.858 573.944,0.968 600,0.968 "
       style="fill:#ffffff" />
    <polygon
       id="_43441624"
       points="333.761,39.902 302.997,39.902 305.2,23.573 340.981,23.573 344.442,0.968 285.102,0.968 270.973,102.696 329.995,102.696 333.136,80.082 297.346,80.082 299.546,62.507 330.62,62.507 "
       style="fill:#ffffff" />
    <path
       id="_43775888"
       d="m 118.703,52.454 7.85,-21.033 2.514,21.033 h -10.361 z m -8.476,20.094 h 21.347 l 3.772,30.139 h 38.614 l 17.898,-55.257 8.792,55.257 h 20.409 l 22.605,-58.395 3.768,58.395 h 22.602 L 263.755,0.965 H 236.754 L 215.715,54.65 207.551,0.965 H 183.377 L 155.748,84.478 145.387,0.965 H 115.248 L 81.651,85.417 86.047,52.454 H 45.227 L 42.4,72.545 h 17.898 l -1.258,6.907 c -3.138,1.882 -10.358,2.199 -13.185,2.199 -2.824,0 -23.86,-1.882 -22.919,-24.49 C 23.871,34.559 54.01,13.522 89.801,25.139 L 93.258,3.475 C 69.395,-4.686 6.725,-0.118 0.322,55.905 c -3.765,32.967 26.377,48.665 46.468,48.354 11.616,0.628 24.805,-3.768 29.512,-6.282 l -1.569,4.71 h 23.863 l 11.616,-30.139 z"
       style="fill:#ffffff"
       inkscape:connector-curvature="0" />
    <path
       id="_44102912"
       d="m 491.682,0.029 c -16.326,-0.63 -39.875,8.79 -47.723,46.779 -7.848,37.987 13.185,53.372 32.652,55.885 19.467,2.511 46.782,-9.733 51.803,-46.151 5.03,-36.421 -12.878,-55.571 -36.732,-56.513 z m -2.507,21.664 c 6.593,0 20.719,4.396 17.264,30.764 -3.451,26.373 -19.777,29.514 -25.742,28.887 -5.969,-0.631 -18.212,-4.71 -14.758,-28.887 3.461,-24.171 16.33,-31.081 23.242,-30.764 z"
       style="fill:#ffffff"
       inkscape:connector-curvature="0" />
    <path
       id="_44104296"
       d="m 392.467,39.902 h 13.188 c 9.731,0 11.617,-6.279 11.927,-8.789 0.314,-2.513 -2.51,-7.537 -7.531,-7.537 h -15.384 l -2.191,16.326 z m -5.651,40.186 h 17.898 c 9.73,0 11.927,-7.534 12.241,-10.047 0.314,-2.51 -2.511,-7.534 -7.534,-7.534 h -20.092 l -2.51,17.581 z m -26.365,22.605 14.13,-101.722 h 43.324 c 10.364,0 25.432,11.933 23.55,27.942 -1.883,16.013 -6.907,16.957 -10.362,19.467 5.341,4.707 10.675,12.241 8.479,26.371 -2.2,14.13 -13.816,27.942 -34.221,27.942 h -44.897 z"
       style="fill:#ffffff"
       inkscape:connector-curvature="0" />
    <path
       id="path12"
       d="m 123.79,113.833 h -13.321 l -31.395,52.859 h 37.378 v -11.719 h -15.234 l 15.234,-27.324 22.083,39.106 h 17.023 v -0.124 h 26.582 c 23.006,0 34.541,-8.882 34.541,-26.458 0,-3.023 -0.371,-5.859 -1.174,-8.511 l 21.217,34.972 h 10.177 l 30.531,-52.735 h -16.16 l -19.063,34.535 -20.106,-34.538 h -17.392 l 4.81,7.893 c -5.609,-5.304 -13.692,-7.893 -24.237,-7.893 h -34.973 v 43.85 z m 41.571,11.963 h 20.049 c 10.419,0 15.723,4.565 15.723,13.692 0,5.492 -1.662,9.502 -4.809,11.596 -3.024,2.16 -8.759,3.207 -16.776,3.207 h -14.124 v -28.495 z"
       style="fill:#ffffff;fill-opacity:1"
       inkscape:connector-curvature="0" />
    <polygon
       id="polygon14"
       points="255.286,166.689 271.078,166.689 271.078,166.565 292.663,166.565 292.663,154.786 277.556,154.786 292.543,127.588 314.623,166.689 331.83,166.689 331.83,166.565 340.589,166.565 340.589,134.679 380.495,166.565 390.856,166.565 390.856,113.833 377.04,113.833 377.04,145.348 336.763,113.833 326.462,113.833 326.462,157.685 299.944,113.833 286.56,113.833 "
       style="fill:#ffffff;fill-opacity:1" />
    <path
       id="path16"
       d="m 398.752,116.79 c -2.16,1.916 -3.268,5.367 -3.268,10.304 v 26.15 c 0,5.057 1.108,8.511 3.205,10.424 2.036,1.913 5.735,2.9 11.166,2.9 h 31.023 c 5.368,0 9.251,-0.987 11.288,-2.9 2.033,-1.91 3.207,-5.367 3.207,-10.424 v -7.341 l -15.234,-0.244 v 8.14 h -29.484 v -27.692 h 29.484 v 7.217 h 15.234 v -6.23 c 0,-5.181 -1.171,-8.636 -3.207,-10.304 -2.037,-2.034 -5.612,-3.02 -11.288,-3.02 h -31.023 c -5.367,0.063 -9.07,0.989 -11.103,3.02 z"
       style="fill:#ffffff;fill-opacity:1"
       inkscape:connector-curvature="0" />
    <polygon
       id="polygon18"
       points="516.801,125.796 516.801,113.833 460.43,113.833 460.43,166.565 517.479,166.565 517.479,154.354 475.664,154.354 475.664,144.98 499.78,144.98 499.78,133.385 475.664,133.385 475.664,125.796 "
       style="fill:#ffffff;fill-opacity:1" />
  </g>
  <path
     d="m 83.596507,86.816073 h -2.464 v -2.729 h -1.848 v 2.729 h -2.464 v -7.714 h 2.464 v 2.728 h 1.848 v -2.728 h 2.464 z m 3.353,-1.222 -0.286,1.222 h -2.601 l 1.998,-7.714 h 3.806 l 1.997,7.714 h -2.6 l -0.282,-1.222 z m 1.082,-4.121 h -0.136 l -0.506,2.16 h 1.135 z m 9.412,3.134 0.185,2.071 c -0.516,0.216 -1.164,0.322 -1.945,0.322 -0.78,0 -1.406,-0.082 -1.879,-0.246 -0.472,-0.165 -0.845,-0.423 -1.117,-0.776 -0.27,-0.355 -0.459,-0.771 -0.568,-1.248 -0.106,-0.479 -0.158,-1.068 -0.158,-1.767 0,-0.699 0.052,-1.288 0.158,-1.767 0.109,-0.482 0.298,-0.901 0.568,-1.256 0.525,-0.683 1.49,-1.023 2.895,-1.023 0.314,0 0.682,0.031 1.104,0.092 0.423,0.062 0.737,0.138 0.942,0.229 l -0.37,1.887 c -0.533,-0.114 -1.022,-0.172 -1.465,-0.172 -0.443,0 -0.751,0.042 -0.924,0.124 -0.173,0.082 -0.26,0.246 -0.26,0.494 v 3.234 c 0.32,0.065 0.645,0.097 0.973,0.097 0.698,0 1.319,-0.098 1.861,-0.295 z m 3.560003,-1.15 h -0.049 v 3.359 h -2.464003 v -7.714 h 2.464003 v 3.147 h 0.049 c 0.017,-0.247 0.058,-0.444 0.123,-0.59 l 1.21,-2.557 h 2.657 l -1.848,3.791 1.91,3.923 h -2.658 l -1.271,-2.764 c -0.065,-0.15 -0.106,-0.349 -0.123,-0.595 z m 4.485,3.221 0.343,-2.036 c 0.757,0.191 1.437,0.286 2.041,0.286 0.605,0 1.092,-0.025 1.461,-0.074 v -0.617 l -1.109,-0.102 c -1.003,-0.088 -1.691,-0.327 -2.063,-0.718 -0.376,-0.391 -0.563,-0.97 -0.563,-1.736 0,-1.053 0.228,-1.777 0.686,-2.174 0.455,-0.393 1.228,-0.59 2.319,-0.59 1.094,0 2.08,0.102 2.957,0.308 l -0.308,1.975 c -0.763,-0.123 -1.375,-0.185 -1.835,-0.185 -0.461,0 -0.851,0.021 -1.171,0.062 v 0.604 l 0.889,0.088 c 1.077,0.105 1.82,0.362 2.231,0.771 0.411,0.405 0.616,0.971 0.616,1.697 0,0.517 -0.07,0.955 -0.211,1.313 -0.141,0.359 -0.307,0.631 -0.497,0.816 -0.194,0.185 -0.468,0.325 -0.823,0.423 -0.352,0.1 -0.662,0.16 -0.929,0.181 -0.267,0.02 -0.621,0.03 -1.064,0.03 -1.068,0 -2.058,-0.106 -2.97,-0.322 z m 11.446,-2.825 h -1.909 v -1.776 h 1.909 v -1.913 h 1.773 v 1.913 h 1.923 v 1.776 h -1.923 v 1.927 h -1.773 z m 13.833,2.963 h -2.464 v -2.729 h -1.848 v 2.729 h -2.464 v -7.714 h 2.464 v 2.728 h 1.848 v -2.728 h 2.464 z m 0.862,-3.853 c 0,-1.405 0.263,-2.43 0.788,-3.076 0.525,-0.648 1.474,-0.97 2.847,-0.97 1.373,0 2.322,0.322 2.847,0.97 0.524,0.646 0.787,1.671 0.787,3.076 0,0.699 -0.056,1.288 -0.167,1.767 -0.111,0.477 -0.302,0.893 -0.572,1.248 -0.27,0.353 -0.644,0.611 -1.122,0.776 -0.475,0.164 -1.066,0.246 -1.773,0.246 -0.707,0 -1.298,-0.082 -1.773,-0.246 -0.479,-0.165 -0.853,-0.423 -1.122,-0.776 -0.27,-0.355 -0.461,-0.771 -0.572,-1.248 -0.112,-0.479 -0.168,-1.068 -0.168,-1.767 z m 2.649,-1.282 v 3.208 h 1.021 c 0.337,0 0.582,-0.038 0.735,-0.115 0.152,-0.079 0.229,-0.258 0.229,-0.537 v -3.209 h -1.034 c -0.329,0 -0.569,0.039 -0.722,0.115 -0.153,0.079 -0.229,0.258 -0.229,0.538 z m 7.898,1.396 -0.15,3.739 h -2.574 l 0.467,-7.714 h 3.216 l 0.964,3.923 h 0.083 l 0.964,-3.923 h 3.212 l 0.471,7.714 h -2.574 l -0.15,-3.739 h -0.088 l -0.933,3.739 h -1.887 l -0.946,-3.739 z m 12.503,-0.965 v 1.79 h -2.464 v 0.938 h 3.019 v 1.976 h -5.483 v -7.714 h 5.421 l -0.308,1.975 h -2.649 v 1.035 z m 6.023,4.704 h -4.422 v -7.714 h 3.991 c 0.739,0 1.267,0.144 1.584,0.432 0.317,0.287 0.475,0.708 0.475,1.26 0,0.55 -0.101,0.975 -0.303,1.274 -0.2,0.303 -0.468,0.498 -0.805,0.586 v 0.076 c 0.994,0.173 1.491,0.851 1.491,2.036 0,0.617 -0.164,1.114 -0.493,1.49 -0.328,0.373 -0.834,0.56 -1.518,0.56 z m -0.998,-3.073 h -0.96 v 1.256 h 0.951 c 0.343,0 0.515,-0.208 0.515,-0.626 0,-0.419 -0.169,-0.63 -0.506,-0.63 z m -0.185,-2.949 h -0.775 v 1.146 h 0.766 c 0.311,0 0.466,-0.19 0.466,-0.573 0,-0.382 -0.152,-0.573 -0.457,-0.573 z m 9.44,3.456 1.329,2.566 h -2.71 l -1.012,-2.297 h -0.528 v 2.297 h -2.464 v -7.714 h 3.881 c 1.765,0 2.648,0.901 2.648,2.702 0,1.234 -0.381,2.049 -1.144,2.446 z m -2.354,-3.173 h -0.567 v 1.542 h 0.567 c 0.297,0 0.512,-0.031 0.647,-0.093 0.135,-0.061 0.203,-0.203 0.203,-0.427 v -0.502 c 0,-0.224 -0.068,-0.366 -0.203,-0.428 -0.135,-0.061 -0.35,-0.092 -0.647,-0.092 z m 9.473,1.035 v 1.79 h -2.464 v 0.938 h 3.019 v 1.976 h -5.483 v -7.714 h 5.421 l -0.308,1.975 h -2.649 v 1.035 z m 7.933,1.296 0.594,-4.306 h 2.574 l -1.21,7.714 h -3.212 l -0.568,-2.839 h -0.149 l -0.555,2.839 h -3.216 l -1.206,-7.714 h 2.574 l 0.581,4.306 h 0.075 l 0.884,-4.306 h 1.888 l 0.871,4.306 z"
     style="white-space:pre;fill:#ffffff"
     id="path13"
     inkscape:connector-curvature="0" />
</svg>
