<?xml version="1.0" encoding="UTF-8" standalone="no"?>
<svg
   xmlns:dc="http://purl.org/dc/elements/1.1/"
   xmlns:cc="http://creativecommons.org/ns#"
   xmlns:rdf="http://www.w3.org/1999/02/22-rdf-syntax-ns#"
   xmlns:svg="http://www.w3.org/2000/svg"
   xmlns="http://www.w3.org/2000/svg"
   xmlns:sodipodi="http://sodipodi.sourceforge.net/DTD/sodipodi-0.dtd"
   xmlns:inkscape="http://www.inkscape.org/namespaces/inkscape"
   id="svg2"
   version="1.1"
   sodipodi:docname="gbc.svg"
   width="264"
   height="73.000038"
   inkscape:version="0.92.5 (2060ec1f9f, 2020-04-08)">
  <metadata
     id="metadata19">
    <rdf:RDF>
      <cc:Work
         rdf:about="">
        <dc:format>image/svg+xml</dc:format>
        <dc:type
           rdf:resource="http://purl.org/dc/dcmitype/StillImage" />
      </cc:Work>
    </rdf:RDF>
  </metadata>
  <defs
     id="defs17" />
  <sodipodi:namedview
     pagecolor="#ffffff"
     bordercolor="#666666"
     borderopacity="1"
     objecttolerance="10"
     gridtolerance="10"
     guidetolerance="10"
     inkscape:pageopacity="0"
     inkscape:pageshadow="2"
     inkscape:window-width="532"
     inkscape:window-height="460"
     id="namedview15"
     showgrid="false"
     inkscape:zoom="2.36"
     inkscape:cx="49.999672"
     inkscape:cy="22.999504"
     inkscape:window-x="72"
     inkscape:window-y="27"
     inkscape:window-maximized="0"
     inkscape:current-layer="svg2" />
  <g
     transform="matrix(0.880001,0,0,0.875297,-2.8857383e-4,4.6938106e-4)"
     id="g12">
    <path
       id="path5256"
       d="m 144.397,67.576 c -0.482,-1.463 -1.758,-2.857 -1.758,-2.857 0,0 -1.915,-2.486 -5.679,-3.336 -3.223,-0.674 -5.754,0.747 -5.754,0.747 0,0 -2.299,0.921 -4.027,2.826 -2.752,2.648 -3.544,6.515 -3.544,6.515 0,0 -1.055,3.366 0.616,6.033 l 1.815,2.196 c 2.563,2.138 5.301,2.355 5.301,2.355 0,0 2.21,0.499 4.789,-0.173 2.254,-0.456 3.894,-1.569 3.894,-1.569 0,0 3.733,-2.064 4.758,-6.279 z m -5.815,7.012 c 0,0 -1.492,2.607 -4.771,2.298 -3.851,-0.394 -4.304,-3.776 -4.304,-3.776 0,0 -0.528,-2.489 1.844,-4.657 2.402,-2.018 4.906,-1.712 4.906,-1.712 0,0 1.682,0.16 2.548,2.943 1.112,3.543 -0.223,4.904 -0.223,4.904"
       style="fill:#ffffff;fill-opacity:1"
       inkscape:connector-curvature="0" />
    <path
       id="path5262"
       d="m 156.841,74.632 c -1.232,-0.271 -3.207,0.234 -3.207,0.234 0,0 -2.751,1.01 -3.176,0.995 -0.162,-0.233 -0.511,-4.729 -0.411,-6.529 0.06,-3.177 -0.206,-5.769 -0.206,-5.769 0,0 -0.131,-3.061 -1.771,-4.875 -1.932,-1.948 -3.28,-1.112 -4.055,-0.646 -1.86,1.671 -0.995,3.704 -0.995,3.704 l 0.966,2.74 c 0,0 0.468,1.171 0.411,3.088 l 0.409,6.458 c 0,0.864 0.703,6.677 0.703,6.677 0,0 0.072,1.889 1.888,2.225 1.861,0.308 3.69,-0.616 4.466,-0.983 0.776,-0.364 1.801,-0.686 1.801,-0.686 0,0 0.849,-0.191 1.698,-0.263 1.992,-0.192 2.708,-0.541 2.708,-0.541 0,0 0.77,-0.117 1.29,-0.851 0.518,-0.733 1.144,-4.171 -2.519,-4.978"
       style="fill:#ffffff;fill-opacity:1"
       inkscape:connector-curvature="0" />
    <path
       id="path5264"
       d="m 124.251,77.501 c -1.31,-0.391 -2.81,-0.13 -2.81,-0.13 0,0 -4.247,0.409 -6.458,-0.059 -3.425,-0.6 -3.311,-4.29 -3.311,-4.29 0,0 -0.114,-2.447 1.949,-5.755 2.548,-4.085 5.36,-4.817 5.36,-4.817 0,0 0.7,-0.263 1.36,0.088 0.41,2.37 2.707,2.355 2.707,2.355 0,0 3.312,0.222 3.148,-3.79 -0.38,-3.295 -3.556,-3.747 -4.889,-4.056 -3.995,-0.718 -6.59,1.421 -6.59,1.421 0,0 -2.678,1.448 -5.884,6.499 -2.184,3.133 -2.447,5.595 -2.447,5.595 0,0 -0.262,0.584 -0.161,3.192 -0.057,2.034 0.705,3.513 0.705,3.513 0,0 1.156,3.502 4.817,4.936 2.225,0.922 5.475,0.908 5.475,0.908 0,0 3.148,-0.045 5.563,-0.176 1.319,0.102 1.948,-0.587 1.948,-0.587 0,0 1.477,-0.966 1.332,-2.65 0,0 -0.286,-1.739 -1.814,-2.197"
       style="fill:#ffffff;fill-opacity:1"
       inkscape:connector-curvature="0" />
    <path
       id="path5258"
       d="m 177.442,66.799 c -2.56,-4.186 -7.071,-4.816 -7.071,-4.816 0,0 -1.435,-0.485 -4.509,-0.076 -5.768,1.1 -7.775,5.536 -7.775,5.536 0,0 -2.065,3.25 -1.245,7.189 l 2.521,4.978 c 1.859,1.743 2.62,1.743 2.736,1.847 2.461,1.112 5.315,0.468 5.315,0.468 0,0 3.604,-0.352 6.898,-2.915 2.634,-1.932 3.777,-4.772 3.777,-4.772 l 0.349,-3.812 z m -7.011,8.549 c -4.143,2.491 -6.752,-0.233 -6.752,-0.233 0,0 -1.156,-0.762 -1.406,-3.075 -0.177,-2.679 2.491,-4.07 2.491,-4.07 0,0 1.405,-0.865 3.162,-0.732 1.756,0.131 2.311,0.015 3.734,1.07 1.345,1.214 1.257,2.106 1.257,2.106 0,0 0.484,3.018 -2.486,4.934"
       style="fill:#ffffff;fill-opacity:1"
       inkscape:connector-curvature="0" />
    <path
       id="path5260"
       d="m 178.087,74.238 c 0,0 0.088,2.342 -0.278,2.914 -0.498,1.068 -0.424,2.106 -0.424,2.106 0,0 -0.339,3.164 3.325,3.689 2.515,-0.013 2.823,-2.108 2.867,-3.001 0.145,-0.702 0.088,-3.967 0.088,-3.967 l 3.266,2.664 c 0,0 2.371,1.991 3.764,3.147 1.449,1.142 1.814,1.348 1.814,1.348 0,0 0.308,0.365 1.42,0.233 0.895,0.016 1.715,-0.791 1.715,-0.791 0,0 1.037,-0.759 1.301,-2.093 0.321,-1.581 -0.908,-2.357 -0.908,-2.357 0,0 -4.537,-3.661 -7.611,-6.179 2.062,-1.128 3.058,-1.902 3.058,-1.902 0,0 2.872,-1.904 3.485,-4.818 0.851,-3.208 -1.566,-4.466 -1.566,-4.466 0,0 -1.509,-1.083 -2.781,-1.655 -3.208,-1.566 -6.194,-1.245 -6.194,-1.245 0,0 -4.246,-0.292 -7.012,3.121 -1.275,1.653 -0.483,3.821 -0.483,3.821 0,0 0.157,0.347 0.512,1.99 0.709,3.309 0.642,7.441 0.642,7.441 z m 5.564,-6.502 -0.278,-3.821 c 0,0 2.679,-0.059 3.792,0.132 2.197,0.335 2.078,0.952 2.078,0.952 0,0 -0.073,0.776 -1.741,1.537 -1.814,0.878 -3.851,1.2 -3.851,1.2"
       style="fill:#ffffff;fill-opacity:1"
       inkscape:connector-curvature="0" />
    <path
       d="M 286.97198,0.48400003 H 300 L 281.633,29.056999 278.65399,51.348 H 266.88 L 270.33099,25.913 258.55701,0.48400003 H 271.272 L 277.55399,14.929 Z"
       id="_43443024"
       style="fill:#ffffff"
       inkscape:connector-curvature="0" />
    <path
       d="M 149.77299,31.253 H 165.31 l 1.571,-11.302 h -15.38201 l 1.10102,-8.165 H 170.491 l 1.72999,-11.30199997 h -29.67 L 135.487,51.348 h 29.511 l 1.56999,-11.307 H 148.673 Z"
       id="_43441624"
       style="fill:#ffffff"
       inkscape:connector-curvature="0" />
    <path
       id="_43775888"
       d="m 59.352,26.227 3.925,-10.517 1.257,10.517 h -5.181 z m -4.238,10.047 h 10.673 l 1.886,15.07 H 86.98 l 8.949,-27.629 4.396,27.629 h 10.205 l 11.302,-29.198 1.884,29.198 h 11.301 L 131.878,0.482 H 118.377 L 107.858,27.325 103.776,0.482 H 91.689 L 77.874,42.239 72.694,0.482 H 57.624 L 40.826,42.708 43.024,26.227 H 22.614 L 21.2,36.272 h 8.949 l -0.629,3.454 c -1.569,0.941 -5.179,1.099 -6.592,1.099 -1.412,0 -11.93,-0.941 -11.46,-12.245 C 11.936,17.279 27.005,6.761 44.901,12.569 L 46.629,1.737 C 34.698,-2.343 3.363,-0.059 0.161,27.952 -1.721,44.436 13.35,52.285 23.395,52.13 c 5.808,0.314 12.403,-1.884 14.756,-3.141 l -0.784,2.355 h 11.931 l 5.808,-15.07 z"
       style="fill:#ffffff"
       inkscape:connector-curvature="0" />
    <path
       id="_44102912"
       d="m 245.841,0.014 c -8.163,-0.315 -19.937,4.395 -23.861,23.39 -3.924,18.993 6.592,26.686 16.326,27.943 9.733,1.255 23.391,-4.867 25.901,-23.076 C 266.722,10.06 257.768,0.485 245.841,0.014 Z m -1.253,10.832 c 3.296,0 10.359,2.198 8.632,15.382 -1.726,13.187 -9.889,14.757 -12.871,14.444 -2.985,-0.316 -9.106,-2.355 -7.379,-14.444 1.73,-12.085 8.165,-15.54 11.621,-15.382 z"
       style="fill:#ffffff"
       inkscape:connector-curvature="0" />
    <path
       id="_44104296"
       d="m 196.234,19.951 h 6.594 c 4.865,0 5.808,-3.14 5.963,-4.395 0.157,-1.256 -1.255,-3.768 -3.765,-3.768 h -7.692 l -1.096,8.163 z m -2.826,20.093 h 8.949 c 4.865,0 5.964,-3.767 6.121,-5.024 0.157,-1.255 -1.256,-3.767 -3.767,-3.767 h -10.046 l -1.255,8.791 z m -13.182,11.303 7.065,-50.862 h 21.662 c 5.182,0 12.716,5.967 11.775,13.971 -0.942,8.007 -3.454,8.479 -5.181,9.734 2.67,2.353 5.337,6.12 4.239,13.185 -1.1,7.066 -6.908,13.972 -17.11,13.972 h -22.449 z"
       style="fill:#ffffff"
       inkscape:connector-curvature="0" />
  </g>
</svg>
