<?xml version="1.0" encoding="UTF-8" standalone="no"?>
<svg
   xmlns:dc="http://purl.org/dc/elements/1.1/"
   xmlns:cc="http://creativecommons.org/ns#"
   xmlns:rdf="http://www.w3.org/1999/02/22-rdf-syntax-ns#"
   xmlns:svg="http://www.w3.org/2000/svg"
   xmlns="http://www.w3.org/2000/svg"
   xmlns:sodipodi="http://sodipodi.sourceforge.net/DTD/sodipodi-0.dtd"
   xmlns:inkscape="http://www.inkscape.org/namespaces/inkscape"
   id="svg2"
   version="1.1"
   enable-background="new 0 0 566.929 98.574"
   y="0px"
   x="0px"
   sodipodi:docname="gbch.svg"
   width="263.99973"
   height="85.000069"
   inkscape:version="0.92.5 (2060ec1f9f, 2020-04-08)">
  <metadata
     id="metadata21">
    <rdf:RDF>
      <cc:Work
         rdf:about="">
        <dc:format>image/svg+xml</dc:format>
        <dc:type
           rdf:resource="http://purl.org/dc/dcmitype/StillImage" />
      </cc:Work>
    </rdf:RDF>
  </metadata>
  <defs
     id="defs19" />
  <sodipodi:namedview
     pagecolor="#ffffff"
     bordercolor="#666666"
     borderopacity="1"
     objecttolerance="10"
     gridtolerance="10"
     guidetolerance="10"
     inkscape:pageopacity="0"
     inkscape:pageshadow="2"
     inkscape:window-width="640"
     inkscape:window-height="480"
     id="namedview17"
     showgrid="false"
     inkscape:zoom="2.36"
     inkscape:cx="49.999926"
     inkscape:cy="35"
     inkscape:window-x="72"
     inkscape:window-y="27"
     inkscape:window-maximized="0"
     inkscape:current-layer="svg2" />
  <g
     transform="matrix(0.44,0,0,0.438879,1.514265e-4,3.182178e-5)"
     id="g12">
    <path
       id="path5256"
       d="m 284.502,135.059 c -0.911,-2.761 -3.319,-5.392 -3.319,-5.392 0,0 -3.615,-4.694 -10.72,-6.297 -6.083,-1.273 -10.862,1.409 -10.862,1.409 0,0 -4.339,1.738 -7.601,5.335 -5.195,4.999 -6.689,12.298 -6.689,12.298 0,0 -1.991,6.354 1.162,11.387 l 3.427,4.146 c 4.837,4.037 10.005,4.447 10.005,4.447 0,0 4.173,0.941 9.04,-0.329 4.254,-0.86 7.35,-2.96 7.35,-2.96 0,0 7.048,-3.895 8.982,-11.854 z m -10.977,13.237 c 0,0 -2.815,4.921 -9.006,4.338 -7.269,-0.745 -8.123,-7.129 -8.123,-7.129 0,0 -0.998,-4.698 3.479,-8.789 4.535,-3.811 9.26,-3.232 9.26,-3.232 0,0 3.177,0.302 4.81,5.555 2.1,6.689 -0.42,9.257 -0.42,9.257"
       style="fill:#ffffff;fill-opacity:1"
       inkscape:connector-curvature="0" />
    <path
       id="path5262"
       d="m 307.991,148.38 c -2.326,-0.513 -6.053,0.441 -6.053,0.441 0,0 -5.192,1.907 -5.995,1.879 -0.305,-0.44 -0.965,-8.928 -0.775,-12.325 0.111,-5.998 -0.39,-10.889 -0.39,-10.889 0,0 -0.247,-5.778 -3.343,-9.203 -3.647,-3.678 -6.191,-2.1 -7.654,-1.219 -3.512,3.153 -1.88,6.991 -1.88,6.991 l 1.825,5.172 c 0,0 0.884,2.211 0.776,5.829 l 0.772,12.19 c 0,1.632 1.328,12.603 1.328,12.603 0,0 0.136,3.566 3.563,4.2 3.512,0.582 6.964,-1.162 8.43,-1.853 1.464,-0.688 3.398,-1.297 3.398,-1.297 0,0 1.605,-0.359 3.207,-0.495 3.759,-0.362 5.111,-1.023 5.111,-1.023 0,0 1.454,-0.22 2.435,-1.605 0.978,-1.385 2.16,-7.875 -4.755,-9.396"
       style="fill:#ffffff;fill-opacity:1"
       inkscape:connector-curvature="0" />
    <path
       id="path5264"
       d="m 246.473,153.796 c -2.471,-0.739 -5.304,-0.247 -5.304,-0.247 0,0 -8.017,0.772 -12.19,-0.112 -6.466,-1.131 -6.249,-8.098 -6.249,-8.098 0,0 -0.217,-4.617 3.678,-10.862 4.81,-7.712 10.117,-9.094 10.117,-9.094 0,0 1.322,-0.495 2.568,0.166 0.775,4.474 5.111,4.447 5.111,4.447 0,0 6.249,0.417 5.941,-7.154 -0.718,-6.221 -6.714,-7.075 -9.23,-7.657 -7.54,-1.355 -12.437,2.682 -12.437,2.682 0,0 -5.057,2.734 -11.109,12.268 -4.122,5.914 -4.617,10.56 -4.617,10.56 0,0 -0.497,1.105 -0.304,6.026 -0.109,3.841 1.33,6.632 1.33,6.632 0,0 2.182,6.61 9.091,9.317 4.2,1.741 10.337,1.713 10.337,1.713 0,0 5.941,-0.084 10.5,-0.331 2.489,0.193 3.678,-1.108 3.678,-1.108 0,0 2.788,-1.822 2.513,-5.002 0,0 -0.54,-3.283 -3.424,-4.146"
       style="fill:#ffffff;fill-opacity:1"
       inkscape:connector-curvature="0" />
    <path
       id="path5258"
       d="m 346.88,133.593 c -4.834,-7.902 -13.348,-9.091 -13.348,-9.091 0,0 -2.71,-0.914 -8.512,-0.142 -10.889,2.076 -14.676,10.449 -14.676,10.449 0,0 -3.898,6.134 -2.35,13.571 l 4.758,9.396 c 3.509,3.289 4.945,3.289 5.166,3.485 4.643,2.1 10.032,0.884 10.032,0.884 0,0 6.801,-0.664 13.019,-5.501 4.972,-3.648 7.13,-9.009 7.13,-9.009 l 0.661,-7.196 z m -13.237,16.139 c -7.82,4.701 -12.744,-0.441 -12.744,-0.441 0,0 -2.182,-1.439 -2.653,-5.805 -0.335,-5.057 4.701,-7.682 4.701,-7.682 0,0 2.652,-1.632 5.968,-1.382 3.316,0.248 4.363,0.028 7.049,2.019 2.54,2.293 2.374,3.977 2.374,3.977 0,0 0.914,5.696 -4.695,9.314"
       style="fill:#ffffff;fill-opacity:1"
       inkscape:connector-curvature="0" />
    <path
       id="path5260"
       d="m 348.096,147.635 c 0,0 0.166,4.42 -0.525,5.5 -0.939,2.016 -0.8,3.977 -0.8,3.977 0,0 -0.639,5.971 6.276,6.964 4.749,-0.027 5.328,-3.98 5.413,-5.667 0.274,-1.324 0.166,-7.488 0.166,-7.488 l 6.164,5.029 c 0,0 4.475,3.76 7.106,5.941 2.736,2.155 3.424,2.544 3.424,2.544 0,0 0.582,0.688 2.679,0.44 1.69,0.03 3.238,-1.493 3.238,-1.493 0,0 1.958,-1.433 2.456,-3.95 0.606,-2.984 -1.714,-4.45 -1.714,-4.45 0,0 -8.563,-6.91 -14.368,-11.665 3.895,-2.127 5.775,-3.59 5.775,-3.59 0,0 5.419,-3.594 6.578,-9.094 1.605,-6.056 -2.957,-8.43 -2.957,-8.43 0,0 -2.848,-2.043 -5.25,-3.123 -6.056,-2.957 -11.692,-2.351 -11.692,-2.351 0,0 -8.014,-0.552 -13.236,5.89 -2.405,3.123 -0.912,7.214 -0.912,7.214 0,0 0.296,0.655 0.966,3.757 1.34,6.245 1.213,14.045 1.213,14.045 z m 10.503,-12.274 -0.525,-7.211 c 0,0 5.057,-0.112 7.157,0.247 4.148,0.634 3.925,1.798 3.925,1.798 0,0 -0.139,1.464 -3.289,2.903 -3.424,1.656 -7.268,2.263 -7.268,2.263"
       style="fill:#ffffff;fill-opacity:1"
       inkscape:connector-curvature="0" />
    <polygon
       id="_43443024"
       points="563.265,58.115 557.307,102.697 533.759,102.697 540.661,51.827 517.113,0.969 542.543,0.969 555.107,29.859 573.943,0.969 599.999,0.969 "
       style="fill:#ffffff" />
    <polygon
       id="_43441624"
       points="333.761,39.903 302.997,39.903 305.199,23.573 340.981,23.573 344.441,0.969 285.101,0.969 270.973,102.697 329.995,102.697 333.135,80.083 297.345,80.083 299.545,62.507 330.619,62.507 "
       style="fill:#ffffff" />
    <path
       id="_43775888"
       d="m 118.703,52.455 7.85,-21.034 2.514,21.034 h -10.362 z m -8.476,20.094 h 21.346 l 3.772,30.14 h 38.614 l 17.898,-55.258 8.792,55.258 h 20.41 l 22.604,-58.396 3.768,58.396 h 22.602 L 263.755,0.965 H 236.753 L 215.715,54.651 207.551,0.965 h -24.174 l -27.63,83.514 -10.36,-83.514 h -30.14 L 81.651,85.417 86.047,52.455 h -40.82 l -2.828,20.09 h 17.898 l -1.258,6.908 c -3.138,1.882 -10.358,2.198 -13.184,2.198 -2.824,0 -23.86,-1.882 -22.92,-24.49 C 23.871,34.559 54.009,13.523 89.801,25.139 L 93.257,3.475 C 69.395,-4.685 6.725,-0.117 0.321,55.905 c -3.764,32.968 26.378,48.666 46.468,48.356 11.616,0.628 24.806,-3.768 29.512,-6.282 l -1.568,4.71 h 23.862 l 11.616,-30.14 z"
       style="fill:#ffffff"
       inkscape:connector-curvature="0" />
    <path
       id="_44102912"
       d="m 491.681,0.029 c -16.326,-0.63 -39.874,8.79 -47.722,46.78 -7.848,37.986 13.184,53.372 32.652,55.886 19.466,2.51 46.782,-9.734 51.802,-46.152 5.03,-36.422 -12.878,-55.572 -36.732,-56.514 z m -2.506,21.664 c 6.592,0 20.718,4.396 17.264,30.764 -3.452,26.374 -19.778,29.514 -25.742,28.888 -5.97,-0.632 -18.212,-4.71 -14.758,-28.888 3.46,-24.17 16.33,-31.08 23.242,-30.764 z"
       style="fill:#ffffff"
       inkscape:connector-curvature="0" />
    <path
       id="_44104296"
       d="m 392.467,39.903 h 13.188 c 9.73,0 11.616,-6.28 11.926,-8.79 0.314,-2.512 -2.51,-7.536 -7.53,-7.536 h -15.384 l -2.192,16.326 z m -5.652,40.186 h 17.898 c 9.73,0 11.928,-7.534 12.242,-10.048 0.314,-2.51 -2.512,-7.534 -7.534,-7.534 h -20.092 l -2.51,17.582 z m -26.364,22.606 14.13,-101.724 h 43.324 c 10.364,0 25.432,11.934 23.55,27.942 -1.884,16.014 -6.908,16.958 -10.362,19.468 5.34,4.706 10.674,12.24 8.478,26.37 -2.2,14.132 -13.816,27.944 -34.22,27.944 h -44.898 z"
       style="fill:#ffffff"
       inkscape:connector-curvature="0" />
  </g>
  <path
     d="m 83.596926,84.815072 h -2.464 v -2.717 h -1.848 v 2.717 h -2.464 v -7.68 h 2.464 v 2.716 h 1.848 v -2.716 h 2.464 z m 3.352,-1.215 -0.286,1.215 h -2.6 l 1.998,-7.68 h 3.806 l 1.997,7.68 h -2.6 l -0.282,-1.215 z m 1.083,-4.104 h -0.137 l -0.506,2.151 h 1.136 z m 9.412,3.12 0.185,2.063 c -0.516,0.213 -1.164,0.321 -1.945,0.321 -0.78,0 -1.406,-0.083 -1.879,-0.246 -0.472,-0.164 -0.844,-0.421 -1.117,-0.772 -0.27,-0.356 -0.46,-0.768 -0.568,-1.242 -0.105,-0.478 -0.158,-1.065 -0.158,-1.761 0,-0.696 0.053,-1.283 0.158,-1.759 0.108,-0.481 0.298,-0.898 0.568,-1.251 0.525,-0.679 1.49,-1.019 2.895,-1.019 0.314,0 0.682,0.031 1.104,0.092 0.423,0.062 0.737,0.138 0.942,0.229 l -0.37,1.878 c -0.534,-0.114 -1.022,-0.171 -1.465,-0.171 -0.442,0 -0.75,0.04 -0.924,0.123 -0.173,0.082 -0.259,0.245 -0.259,0.492 v 3.221 c 0.319,0.064 0.644,0.096 0.972,0.096 0.698,0 1.318,-0.097 1.861,-0.294 z m 3.560004,-1.145 h -0.049 v 3.344 h -2.464004 v -7.68 h 2.464004 v 3.133 h 0.049 c 0.017,-0.245 0.058,-0.442 0.123,-0.587 l 1.21,-2.546 h 2.658 l -1.848,3.774 1.909,3.906 h -2.657 l -1.272,-2.752 c -0.065,-0.149 -0.106,-0.347 -0.123,-0.592 z m 4.484,3.208 0.344,-2.027 c 0.756,0.189 1.437,0.285 2.041,0.285 0.605,0 1.091,-0.026 1.461,-0.075 v -0.614 l -1.109,-0.101 c -1.003,-0.088 -1.69,-0.327 -2.063,-0.716 -0.375,-0.389 -0.564,-0.965 -0.564,-1.729 0,-1.048 0.229,-1.768 0.687,-2.163 0.455,-0.393 1.227,-0.589 2.319,-0.589 1.094,0 2.08,0.102 2.956,0.308 l -0.308,1.966 c -0.762,-0.123 -1.373,-0.185 -1.834,-0.185 -0.461,0 -0.851,0.021 -1.171,0.062 v 0.601 l 0.889,0.088 c 1.077,0.105 1.821,0.361 2.231,0.768 0.411,0.404 0.616,0.967 0.616,1.69 0,0.515 -0.071,0.951 -0.211,1.308 -0.141,0.356 -0.307,0.627 -0.498,0.812 -0.193,0.184 -0.467,0.325 -0.822,0.42 -0.352,0.1 -0.661,0.16 -0.929,0.181 -0.266,0.02 -0.621,0.031 -1.065,0.031 -1.067,0 -2.057,-0.108 -2.97,-0.321 z m 11.447,-2.813 h -1.909 v -1.769 h 1.909 v -1.905 h 1.774 v 1.905 h 1.922 v 1.769 h -1.922 v 1.918 h -1.774 z m 13.833,2.949 h -2.464 v -2.717 h -1.848 v 2.717 h -2.464 v -7.68 h 2.464 v 2.716 h 1.848 v -2.716 h 2.464 z m 0.863,-3.836 c 0,-1.398 0.262,-2.42 0.787,-3.063 0.525,-0.644 1.474,-0.966 2.847,-0.966 1.373,0 2.321,0.322 2.847,0.966 0.524,0.643 0.787,1.665 0.787,3.063 0,0.696 -0.056,1.283 -0.167,1.761 -0.112,0.474 -0.303,0.886 -0.572,1.242 -0.27,0.351 -0.644,0.608 -1.122,0.772 -0.475,0.163 -1.066,0.246 -1.773,0.246 -0.708,0 -1.298,-0.083 -1.773,-0.246 -0.479,-0.164 -0.853,-0.421 -1.122,-0.772 -0.27,-0.356 -0.461,-0.768 -0.572,-1.242 -0.112,-0.478 -0.167,-1.065 -0.167,-1.761 z m 2.648,-1.277 v 3.195 h 1.021 c 0.337,0 0.582,-0.039 0.735,-0.113 0.152,-0.08 0.229,-0.259 0.229,-0.536 v -3.195 h -1.034 c -0.329,0 -0.57,0.037 -0.722,0.114 -0.153,0.079 -0.229,0.257 -0.229,0.535 z m 7.897,1.392 -0.149,3.721 h -2.574 l 0.466,-7.68 h 3.217 l 0.963,3.906 h 0.084 l 0.963,-3.906 h 3.212 l 0.471,7.68 h -2.574 l -0.149,-3.721 h -0.088 l -0.933,3.721 h -1.888 l -0.946,-3.721 z m 12.504,-0.962 v 1.782 h -2.464 v 0.935 h 3.019 v 1.966 h -5.483 v -7.68 h 5.421 l -0.308,1.966 h -2.649 v 1.031 z m 6.023,4.683 h -4.422 v -7.68 h 3.991 c 0.739,0 1.267,0.143 1.584,0.43 0.317,0.286 0.475,0.705 0.475,1.255 0,0.547 -0.101,0.97 -0.303,1.268 -0.199,0.302 -0.468,0.496 -0.806,0.584 v 0.075 c 0.995,0.172 1.492,0.848 1.492,2.028 0,0.614 -0.164,1.108 -0.493,1.483 -0.328,0.371 -0.834,0.557 -1.518,0.557 z m -0.999,-3.059 h -0.959 v 1.251 h 0.951 c 0.343,0 0.514,-0.208 0.514,-0.623 0,-0.419 -0.168,-0.628 -0.506,-0.628 z m -0.184,-2.936 h -0.775 v 1.141 h 0.766 c 0.311,0 0.466,-0.191 0.466,-0.571 0,-0.38 -0.152,-0.57 -0.457,-0.57 z m 9.44,3.441 1.329,2.554 h -2.71 l -1.012,-2.287 h -0.528 v 2.287 h -2.464 v -7.68 h 3.88 c 1.767,0 2.649,0.896 2.649,2.69 0,1.229 -0.381,2.041 -1.144,2.436 z m -2.354,-3.16 h -0.567 v 1.536 h 0.567 c 0.297,0 0.512,-0.031 0.647,-0.092 0.135,-0.062 0.202,-0.204 0.202,-0.426 v -0.5 c 0,-0.223 -0.067,-0.364 -0.202,-0.426 -0.135,-0.061 -0.35,-0.092 -0.647,-0.092 z m 9.473,1.031 v 1.782 h -2.464 v 0.935 h 3.019 v 1.966 h -5.483 v -7.68 h 5.421 l -0.308,1.966 h -2.649 v 1.031 z m 7.933,1.291 0.594,-4.288 h 2.574 l -1.21,7.68 h -3.212 l -0.568,-2.826 h -0.149 l -0.555,2.826 h -3.216 l -1.206,-7.68 h 2.574 l 0.581,4.288 h 0.075 l 0.884,-4.288 h 1.888 l 0.871,4.288 z"
     style="white-space:pre;fill:#ffffff"
     id="path14"
     inkscape:connector-curvature="0" />
</svg>
