<?xml version="1.0" encoding="UTF-8" standalone="no"?>
<svg
   xmlns:dc="http://purl.org/dc/elements/1.1/"
   xmlns:cc="http://creativecommons.org/ns#"
   xmlns:rdf="http://www.w3.org/1999/02/22-rdf-syntax-ns#"
   xmlns:svg="http://www.w3.org/2000/svg"
   xmlns="http://www.w3.org/2000/svg"
   xmlns:sodipodi="http://sodipodi.sourceforge.net/DTD/sodipodi-0.dtd"
   xmlns:inkscape="http://www.inkscape.org/namespaces/inkscape"
   version="1.1"
   id="svg19"
   sodipodi:docname="genesis.svg"
   width="264"
   height="63.000999"
   inkscape:version="0.92.5 (2060ec1f9f, 2020-04-08)">
  <metadata
     id="metadata25">
    <rdf:RDF>
      <cc:Work
         rdf:about="">
        <dc:format>image/svg+xml</dc:format>
        <dc:type
           rdf:resource="http://purl.org/dc/dcmitype/StillImage" />
      </cc:Work>
    </rdf:RDF>
  </metadata>
  <defs
     id="defs23" />
  <sodipodi:namedview
     pagecolor="#ffffff"
     bordercolor="#666666"
     borderopacity="1"
     objecttolerance="10"
     gridtolerance="10"
     guidetolerance="10"
     inkscape:pageopacity="0"
     inkscape:pageshadow="2"
     inkscape:window-width="640"
     inkscape:window-height="480"
     id="namedview21"
     showgrid="false"
     inkscape:zoom="2.36"
     inkscape:cx="50.00001"
     inkscape:cy="13.001"
     inkscape:window-x="72"
     inkscape:window-y="27"
     inkscape:window-maximized="0"
     inkscape:current-layer="svg19" />
  <g
     transform="translate(-208.504,-398.761)"
     id="g3">
    <path
       d="m 212.402,429.325 14.814,-8.577 h 72.9 l 13.177,-18.869 h 53.098 l 13.332,18.869 h 73.993 l 14.89,8.656 v 20.113 l -15.75,9.123 H 228.151 l -15.749,-9.123 z m 241.39,32.437 18.712,-10.839 V 427.999 L 454.573,417.63 h -73.292 l -13.177,-18.869 h -56.37 l -13.255,18.869 h -72.12 l -17.855,10.291 v 23.002 l 18.791,10.839 z"
       id="polygon9"
       style="fill:#ffffff;fill-rule:evenodd"
       inkscape:connector-curvature="0" />
    <path
       d="m 330.066,416.168 c 0,0.988 0.805,1.771 1.771,1.761 h 7.233 v -2.203 h -6.793 v -0.617 h 5.353 v -2.192 h -7.553 z"
       id="path11"
       style="fill:#ffffff;fill-rule:evenodd"
       inkscape:connector-curvature="0" />
    <path
       d="m 330.077,408.907 c 0,-0.911 0.784,-1.756 1.76,-1.752 h 7.233 v 2.192 h -6.793 v 0.617 h 5.353 v 2.222 h -7.564 z"
       id="path13"
       style="fill:#ffffff;fill-rule:evenodd"
       inkscape:connector-curvature="0" />
    <polygon
       points="401.32,446.244 393.134,451.78 367.832,451.78 376.214,446.165 391.027,446.165 391.027,442.735 368.104,442.735 368.104,433.806 376.566,428.077 376.566,428.077 401.827,428.077 393.483,433.689 378.397,433.689 378.397,437.122 401.32,437.122 "
       id="polygon15"
       style="fill:#ffffff;fill-rule:evenodd" />
    <polygon
       points="414.809,428.077 414.809,451.78 404.518,451.78 404.518,428.077 "
       id="polygon17"
       style="fill:#ffffff;fill-rule:evenodd" />
    <polygon
       points="452,446.244 443.811,451.78 418.512,451.78 426.894,446.165 441.708,446.165 441.708,442.735 418.785,442.735 418.785,433.806 427.244,428.077 427.244,428.077 452.507,428.077 444.163,433.689 429.077,433.689 429.077,437.122 452,437.122 "
       id="polygon19"
       style="fill:#ffffff;fill-rule:evenodd" />
    <polygon
       points="355.668,442.735 364.05,437.122 345.807,437.122 345.807,433.689 360.658,433.689 369.002,428.077 344.481,428.077 335.515,433.575 335.515,433.575 335.515,451.78 360.465,451.78 368.885,446.165 345.807,446.165 345.807,442.735 "
       id="polygon21"
       style="fill:#ffffff;fill-rule:evenodd" />
    <polygon
       points="283.627,442.735 292.008,437.122 273.764,437.122 273.764,433.689 288.616,433.689 296.959,428.077 272.437,428.077 263.473,433.575 263.473,433.575 263.473,451.78 288.422,451.78 296.843,446.165 273.764,446.165 273.764,442.735 "
       id="polygon23"
       style="fill:#ffffff;fill-rule:evenodd" />
    <polygon
       points="309.551,451.78 299.258,451.78 299.258,428.077 309.706,428.077 322.338,435.016 322.338,428.077 322.338,428.077 332.63,428.077 332.63,451.78 322.338,451.78 322.338,443.905 309.551,435.951 "
       id="polygon25"
       style="fill:#ffffff;fill-rule:evenodd" />
    <polygon
       points="250.528,446.165 250.528,442.735 240.081,442.735 248.424,437.122 260.821,437.122 260.821,446.479 252.945,451.78 227.451,451.78 227.451,433.848 227.451,433.848 235.988,428.077 263.901,428.077 255.597,433.689 237.742,433.689 237.742,446.165 "
       id="polygon27"
       style="fill:#ffffff;fill-rule:evenodd" />
    <path
       d="m 331.579,404.2 c -2.455,0 -4.446,1.991 -4.446,4.445 v 7.781 c 0,2.455 1.991,4.445 4.446,4.445 h 7.493 v -2.191 h -7.307 c -1.289,0 -2.432,-1.222 -2.432,-2.51 v -7.271 c 0,-1.289 1.143,-2.48 2.432,-2.48 h 7.307 v -2.222 h -7.493 z"
       id="path29"
       style="fill:#ffffff;fill-rule:evenodd"
       inkscape:connector-curvature="0" />
    <path
       d="m 345.765,415.786 v -6.439 h 7.145 v -2.192 h -7.546 c -0.976,-0.004 -1.76,0.841 -1.76,1.752 l -0.009,7.261 c 0,0.988 0.803,1.771 1.769,1.761 h 4.603 l -0.012,-5.051 h -3.463 v 2.172 h 1.28 v 0.735 h -2.007 z"
       id="path31"
       style="fill:#ffffff;fill-rule:evenodd"
       inkscape:connector-curvature="0" />
    <path
       d="m 325.014,404.179 h -7.178 c -3.024,0 -5.477,2.452 -5.477,5.476 0,3.025 2.453,5.418 5.477,5.392 h 2.187 v 0.739 h -7.616 v 2.144 h 7.368 c 1.385,0 2.509,-1.124 2.509,-2.507 0,-1.385 -1.124,-2.489 -2.509,-2.489 l -1.909,-0.008 c -1.797,0 -3.254,-1.457 -3.254,-3.253 0,-1.797 1.456,-3.254 3.254,-3.254 h 7.153 z"
       id="path33"
       style="fill:#ffffff;fill-rule:evenodd"
       inkscape:connector-curvature="0" />
    <path
       d="m 325.014,409.288 h -7.461 v 0.735 l 2.238,0.004 c 3.026,0 5.477,2.393 5.477,5.417 0,3.025 -2.451,5.424 -5.477,5.424 l -7.384,-0.015 v -2.179 h 7.368 c 1.797,0 3.254,-1.456 3.254,-3.253 0,-1.796 -1.457,-3.234 -3.254,-3.234 l -1.909,-0.007 c -1.385,0 -2.509,-1.124 -2.509,-2.509 0,-1.385 1.124,-2.508 2.509,-2.508 h 7.153 z"
       id="path35"
       style="fill:#ffffff;fill-rule:evenodd"
       inkscape:connector-curvature="0" />
    <path
       d="m 361.257,406.78 c -0.089,-0.209 -0.12,-0.259 -0.36,-0.259 -0.241,0 -0.299,0.125 -0.391,0.334 l -4.55,14.016 2.394,0.003 2.574,-7.77 0.847,2.624 h -1.699 v 2.211 h 4.835 z"
       id="path37"
       style="fill:#ffffff;fill-rule:evenodd"
       inkscape:connector-curvature="0" />
    <path
       d="m 345.106,420.873 c -2.455,0 -4.447,-1.991 -4.447,-4.445 v -7.781 c 0,-2.455 1.992,-4.445 4.447,-4.445 h 7.804 v 2.222 h -7.616 c -1.291,0 -2.434,1.191 -2.434,2.48 v 7.27 c 0,1.289 1.142,2.51 2.434,2.51 h 5.395 v -6.536 h -4.195 v -2.182 h 6.425 v 10.395 l 4.577,-14.163 c 0.492,-1.403 1.828,-2.409 3.401,-2.409 1.604,0 2.966,1.05 3.429,2.502 l 4.753,14.583 h -9.007 v -2.191 h 5.851 l -3.967,-12.163 c -0.232,-0.669 -0.646,-0.748 -1.059,-0.748 -0.432,0 -0.831,0.177 -1.056,0.788 l -4.657,14.314 h -10.078 z"
       id="path39"
       style="fill:#ffffff;fill-rule:evenodd"
       inkscape:connector-curvature="0" />
  </g>
</svg>
