<?xml version="1.0" encoding="UTF-8" standalone="no"?>
<svg
   xmlns:dc="http://purl.org/dc/elements/1.1/"
   xmlns:cc="http://creativecommons.org/ns#"
   xmlns:rdf="http://www.w3.org/1999/02/22-rdf-syntax-ns#"
   xmlns:svg="http://www.w3.org/2000/svg"
   xmlns="http://www.w3.org/2000/svg"
   xmlns:sodipodi="http://sodipodi.sourceforge.net/DTD/sodipodi-0.dtd"
   xmlns:inkscape="http://www.inkscape.org/namespaces/inkscape"
   version="1.1"
   id="Layer_1"
   x="0px"
   y="0px"
   enable-background="new -1 -1 568.929 116.145"
   sodipodi:docname="genh.svg"
   width="264"
   height="62"
   inkscape:version="0.92.5 (2060ec1f9f, 2020-04-08)">
  <metadata
     id="metadata21">
    <rdf:RDF>
      <cc:Work
         rdf:about="">
        <dc:format>image/svg+xml</dc:format>
        <dc:type
           rdf:resource="http://purl.org/dc/dcmitype/StillImage" />
      </cc:Work>
    </rdf:RDF>
  </metadata>
  <defs
     id="defs19" />
  <sodipodi:namedview
     pagecolor="#ffffff"
     bordercolor="#666666"
     borderopacity="1"
     objecttolerance="10"
     gridtolerance="10"
     guidetolerance="10"
     inkscape:pageopacity="0"
     inkscape:pageshadow="2"
     inkscape:window-width="640"
     inkscape:window-height="480"
     id="namedview17"
     showgrid="false"
     inkscape:zoom="2.36"
     inkscape:cx="50"
     inkscape:cy="12"
     inkscape:window-x="72"
     inkscape:window-y="27"
     inkscape:window-maximized="0"
     inkscape:current-layer="Layer_1" />
  <g
     transform="scale(0.44,0.44044)"
     id="g12">
    <path
       id="path16"
       d="m 332.787,4.932 -8.481,25.83 h 4.188 L 336.99,5.82 c 0.309,-1.14 1.239,-1.974 2.334,-1.974 1.107,0 2.037,0.834 2.346,1.974 l 7.182,21.099 h -11.268 v 3.843 h 16.77 L 345.873,4.932 C 345.06,2.082 342.435,0 339.324,0 336.222,0 333.6,2.082 332.787,4.932 Z m 4.965,16.041 1.485,-4.407 1.548,4.407 z M 337.14,8.325 329.544,30.762 h 4.896 l 3.141,-9.3 v 4.398 h 9.864 L 341.589,8.325 c -0.3,-0.975 -1.185,-3.783 -2.229,-3.783 -1.047,0 -1.935,2.805 -2.22,3.783 z M 310.329,4.896 h 14.676 V 0.699 h -15.027 c -4.053,0 -7.338,3.294 -7.338,7.347 v 15.381 c 0,4.053 3.285,7.338 7.338,7.338 h 15.027 V 11.181 h -11.88 v 3.846 h 7.683 v 11.535 h -10.479 c -1.935,0 -3.492,-1.563 -3.492,-3.492 V 8.385 c 0,-1.923 1.557,-3.489 3.492,-3.489 z m 2.796,11.181 v 4.2 h 2.442 v 1.047 h -2.442 c -0.579,0 -1.05,-0.471 -1.05,-1.047 v -9.093 c 0,-0.579 0.471,-1.05 1.05,-1.05 h 11.88 V 5.943 h -13.626 c -1.935,0 -3.504,1.566 -3.504,3.495 v 12.585 c 0,1.926 1.569,3.492 3.504,3.492 h 8.388 V 16.077 Z M 286.218,4.896 h 14.676 V 0.699 h -15.03 c -4.053,0 -7.335,3.294 -7.335,7.347 v 15.21 c 0,4.05 3.282,7.344 7.335,7.344 h 15.03 v -4.197 h -14.676 c -1.929,0 -3.495,-1.563 -3.495,-3.492 V 8.388 c 0,-1.926 1.566,-3.492 3.495,-3.492 z m 11.526,10.131 v -3.843 h -9.783 c 0,-0.579 0.471,-1.05 1.05,-1.05 h 11.88 V 5.943 h -13.626 c -1.926,0 -3.489,1.566 -3.489,3.495 v 5.589 z m 0,1.404 v 3.843 h -9.783 c 0,0.579 0.471,1.05 1.05,1.05 h 11.88 v 4.188 h -13.626 c -1.926,0 -3.489,-1.563 -3.489,-3.495 v -5.589 z m -35.91,5.238 h -8.814 v 3.846 h 13.452 0.174 c 2.523,-0.093 4.542,-2.172 4.542,-4.716 0,-2.604 -2.109,-4.722 -4.716,-4.722 h -5.301 c -2.142,-0.816 -3.963,-2.943 -3.963,-5.421 0,-3.186 2.934,-5.766 6.117,-5.766 h 13.11 V 0.696 H 262.8 c -5.4,0 -9.78,4.389 -9.78,9.789 0,5.409 4.731,9.789 10.131,9.789 v -0.045 l 0.027,0.045 h 3.123 c 0.378,0 0.696,0.309 0.696,0.699 0,0.387 -0.318,0.696 -0.696,0.696 z m 5.781,-11.88 h 8.823 V 5.943 h -13.455 -0.18 c -2.526,0.09 -4.542,2.172 -4.542,4.716 0,2.613 2.115,4.725 4.725,4.725 h 5.301 c 2.145,0.822 3.954,2.94 3.954,5.418 0,3.186 -2.931,5.766 -6.117,5.766 h -13.101 v 4.197 h 13.626 c 5.403,0 9.789,-4.38 9.789,-9.789 0,-5.4 -4.731,-9.789 -10.134,-9.789 v 0.054 l -0.033,-0.054 h -3.114 c -0.39,0 -0.699,-0.306 -0.699,-0.696 0,-0.378 0.309,-0.696 0.699,-0.696 z"
       style="fill:#fffdfd;fill-opacity:1"
       inkscape:connector-curvature="0" />
    <polygon
       id="polygon37"
       points="253.887,107.346 253.887,84.429 213.855,61.647 213.855,107.346 192.966,107.346 192.966,45.312 214.725,45.312 253.887,67.593 253.887,45.312 274.776,45.312 274.776,107.346 "
       style="fill:#fffdfd;fill-opacity:1" />
    <rect
       id="rect58"
       x="479.96701"
       y="45.012001"
       width="21.714001"
       height="62.43"
       style="fill:#fffdfd;fill-opacity:1" />
    <polygon
       id="polygon79"
       points="310.74,69.984 353.547,69.984 333.033,82.47 310.74,82.47 310.74,94.956 368.709,94.956 348.195,107.442 289.335,107.442 289.335,59.283 310.74,45.012 366.924,45.012 346.413,57.498 310.74,57.498 "
       style="fill:#fffdfd;fill-opacity:1" />
    <polygon
       id="polygon100"
       points="121.275,70.143 163.842,70.143 143.445,82.563 121.275,82.563 121.275,94.977 178.92,94.977 158.52,107.394 99.99,107.394 99.99,59.505 121.275,45.312 177.147,45.312 156.747,57.732 121.275,57.732 "
       style="fill:#fffdfd;fill-opacity:1" />
    <polygon
       id="polygon121"
       points="86.055,45.312 65.649,57.738 21.291,57.738 21.291,94.995 61.215,94.995 61.215,79.914 36.375,79.914 56.778,67.494 82.509,67.494 82.509,93.222 61.215,107.418 0,107.418 0,59.508 21.291,45.312 "
       style="fill:#fffdfd;fill-opacity:1" />
    <polygon
       points="381.648,107.442 402.459,94.776 443.172,94.776 443.172,82.11 381.648,82.11 381.648,57.681 402.459,45.012 467.604,45.012 446.793,57.681 404.268,57.681 404.268,69.441 466.698,69.441 466.698,94.776 445.887,107.442 "
       id="polygon170"
       style="fill:#fffdfd;fill-opacity:1" />
    <polygon
       id="polygon142"
       points="381.648,82.11 381.648,57.681 402.459,45.012 467.604,45.012 446.793,57.681 404.268,57.681 404.268,69.441 466.698,69.441 466.698,94.776 445.887,107.442 381.648,107.442 402.459,94.776 443.172,94.776 443.172,82.11 "
       style="fill:#fffdfd;fill-opacity:1" />
    <polygon
       points="514.047,107.442 534.858,94.776 575.574,94.776 575.574,82.11 514.047,82.11 514.047,57.681 534.858,45.012 600,45.012 579.192,57.681 536.667,57.681 536.667,69.441 599.097,69.441 599.097,94.776 578.286,107.442 "
       id="polygon202"
       style="fill:#fffdfd;fill-opacity:1" />
    <polygon
       id="polygon163"
       points="514.047,82.11 514.047,57.681 534.858,45.012 600,45.012 579.192,57.681 536.667,57.681 536.667,69.441 599.097,69.441 599.097,94.776 578.286,107.442 514.047,107.442 534.858,94.776 575.574,94.776 575.574,82.11 "
       style="fill:#fffdfd;fill-opacity:1" />
  </g>
  <path
     d="m 83.596,61.815 h -2.464 v -2.726 h -1.848 v 2.726 H 76.82 v -7.708 h 2.464 v 2.727 h 1.848 v -2.727 h 2.464 z m 3.353,-1.22 -0.286,1.22 h -2.601 l 1.998,-7.708 h 3.806 l 1.998,7.708 h -2.601 l -0.281,-1.22 z m 1.082,-4.119 h -0.136 l -0.506,2.159 h 1.135 z m 9.412,3.133 0.185,2.07 C 97.112,61.893 96.464,62 95.683,62 c -0.78,0 -1.406,-0.082 -1.879,-0.246 -0.472,-0.165 -0.844,-0.424 -1.117,-0.776 -0.27,-0.355 -0.459,-0.771 -0.568,-1.246 -0.105,-0.479 -0.158,-1.067 -0.158,-1.766 0,-0.7 0.053,-1.288 0.158,-1.767 0.109,-0.481 0.298,-0.9 0.568,-1.255 0.525,-0.682 1.49,-1.022 2.895,-1.022 0.314,0 0.682,0.031 1.104,0.093 0.423,0.061 0.737,0.137 0.942,0.229 l -0.37,1.885 c -0.533,-0.115 -1.022,-0.172 -1.465,-0.172 -0.442,0 -0.75,0.041 -0.924,0.123 -0.173,0.083 -0.259,0.247 -0.259,0.494 v 3.233 c 0.32,0.064 0.644,0.097 0.972,0.097 0.698,0 1.319,-0.099 1.861,-0.295 z m 3.56,-1.151 h -0.049 v 3.357 H 98.49 v -7.708 h 2.464 v 3.145 h 0.049 c 0.017,-0.247 0.058,-0.443 0.123,-0.59 l 1.21,-2.555 h 2.658 l -1.848,3.788 1.909,3.92 h -2.657 l -1.272,-2.762 c -0.065,-0.149 -0.106,-0.347 -0.123,-0.595 z m 4.485,3.221 0.343,-2.035 c 0.757,0.19 1.437,0.286 2.042,0.286 0.604,0 1.091,-0.025 1.46,-0.075 v -0.617 l -1.108,-0.101 c -1.004,-0.088 -1.691,-0.327 -2.064,-0.718 -0.375,-0.391 -0.563,-0.969 -0.563,-1.735 0,-1.051 0.229,-1.775 0.686,-2.171 0.455,-0.394 1.228,-0.591 2.319,-0.591 1.094,0 2.08,0.103 2.957,0.308 l -0.308,1.974 c -0.763,-0.124 -1.374,-0.185 -1.835,-0.185 -0.461,0 -0.851,0.02 -1.17,0.061 v 0.604 l 0.888,0.088 c 1.077,0.106 1.821,0.362 2.231,0.771 0.411,0.405 0.616,0.97 0.616,1.695 0,0.517 -0.07,0.955 -0.211,1.313 -0.141,0.358 -0.307,0.63 -0.497,0.814 -0.194,0.186 -0.468,0.327 -0.823,0.424 -0.352,0.1 -0.661,0.159 -0.928,0.18 -0.267,0.021 -0.622,0.031 -1.065,0.031 -1.068,0 -2.058,-0.107 -2.97,-0.321 z m 11.446,-2.824 h -1.909 V 57.08 h 1.909 v -1.911 h 1.774 v 1.911 h 1.922 v 1.775 h -1.922 v 1.925 h -1.774 z m 13.834,2.96 h -2.464 v -2.726 h -1.848 v 2.726 h -2.464 v -7.708 h 2.464 v 2.727 h 1.848 v -2.727 h 2.464 z m 0.862,-3.849 c 0,-1.404 0.262,-2.428 0.787,-3.075 0.525,-0.646 1.474,-0.969 2.847,-0.969 1.373,0 2.322,0.323 2.847,0.969 0.525,0.647 0.787,1.671 0.787,3.075 0,0.699 -0.056,1.287 -0.167,1.766 -0.111,0.475 -0.302,0.891 -0.572,1.246 -0.27,0.352 -0.644,0.611 -1.122,0.776 -0.475,0.164 -1.066,0.246 -1.773,0.246 -0.707,0 -1.298,-0.082 -1.773,-0.246 -0.479,-0.165 -0.853,-0.424 -1.122,-0.776 -0.27,-0.355 -0.461,-0.771 -0.572,-1.246 -0.112,-0.479 -0.167,-1.067 -0.167,-1.766 z m 2.648,-1.282 v 3.206 h 1.021 c 0.338,0 0.582,-0.038 0.735,-0.114 0.153,-0.079 0.229,-0.258 0.229,-0.538 v -3.206 h -1.034 c -0.329,0 -0.569,0.038 -0.722,0.114 -0.153,0.08 -0.229,0.259 -0.229,0.538 z m 7.898,1.396 -0.15,3.735 h -2.574 l 0.467,-7.708 h 3.216 l 0.964,3.92 h 0.083 l 0.964,-3.92 h 3.212 l 0.471,7.708 h -2.574 l -0.15,-3.735 h -0.088 l -0.933,3.735 h -1.887 l -0.946,-3.735 z m 12.503,-0.965 v 1.789 h -2.464 v 0.938 h 3.019 v 1.973 h -5.483 v -7.708 h 5.421 l -0.308,1.973 h -2.649 v 1.035 z m 6.024,4.7 h -4.422 v -7.708 h 3.99 c 0.74,0 1.268,0.144 1.584,0.432 0.317,0.288 0.476,0.707 0.476,1.26 0,0.548 -0.102,0.973 -0.304,1.272 -0.199,0.303 -0.468,0.499 -0.805,0.587 v 0.074 c 0.994,0.173 1.491,0.852 1.491,2.035 0,0.616 -0.164,1.113 -0.492,1.488 -0.329,0.374 -0.835,0.56 -1.518,0.56 z m -0.999,-3.07 h -0.959 V 60 h 0.95 c 0.343,0 0.515,-0.208 0.515,-0.625 0,-0.42 -0.169,-0.63 -0.506,-0.63 z m -0.185,-2.946 h -0.774 v 1.145 h 0.765 c 0.311,0 0.467,-0.191 0.467,-0.573 0,-0.382 -0.153,-0.572 -0.458,-0.572 z m 9.441,3.452 1.328,2.564 h -2.71 l -1.012,-2.294 h -0.528 v 2.294 h -2.464 v -7.708 h 3.881 c 1.765,0 2.649,0.9 2.649,2.7 0,1.233 -0.382,2.048 -1.144,2.444 z m -2.354,-3.171 h -0.568 v 1.542 h 0.568 c 0.296,0 0.511,-0.03 0.646,-0.092 0.135,-0.063 0.203,-0.205 0.203,-0.428 v -0.501 c 0,-0.225 -0.068,-0.367 -0.203,-0.428 -0.135,-0.062 -0.35,-0.093 -0.646,-0.093 z m 9.472,1.035 v 1.789 h -2.464 v 0.938 h 3.019 v 1.973 h -5.483 v -7.708 h 5.421 l -0.308,1.973 h -2.649 v 1.035 z m 7.933,1.295 0.594,-4.303 h 2.574 l -1.21,7.708 h -3.212 l -0.568,-2.836 h -0.149 l -0.555,2.836 h -3.216 l -1.206,-7.708 h 2.574 l 0.581,4.303 h 0.075 l 0.884,-4.303 h 1.888 l 0.871,4.303 z"
     style="white-space:pre;fill:#ffffff"
     id="path14"
     inkscape:connector-curvature="0" />
</svg>
