<?xml version="1.0" encoding="UTF-8" standalone="no"?>
<svg
   xmlns:dc="http://purl.org/dc/elements/1.1/"
   xmlns:cc="http://creativecommons.org/ns#"
   xmlns:rdf="http://www.w3.org/1999/02/22-rdf-syntax-ns#"
   xmlns:svg="http://www.w3.org/2000/svg"
   xmlns="http://www.w3.org/2000/svg"
   xmlns:sodipodi="http://sodipodi.sourceforge.net/DTD/sodipodi-0.dtd"
   xmlns:inkscape="http://www.inkscape.org/namespaces/inkscape"
   version="1.1"
   id="Layer_1"
   x="0px"
   y="0px"
   enable-background="new 0 0 566.929 67.639"
   sodipodi:docname="ggh.svg"
   width="264.00009"
   height="43.999676"
   inkscape:version="0.92.5 (2060ec1f9f, 2020-04-08)">
  <metadata
     id="metadata22">
    <rdf:RDF>
      <cc:Work
         rdf:about="">
        <dc:format>image/svg+xml</dc:format>
        <dc:type
           rdf:resource="http://purl.org/dc/dcmitype/StillImage" />
      </cc:Work>
    </rdf:RDF>
  </metadata>
  <defs
     id="defs20" />
  <sodipodi:namedview
     pagecolor="#ffffff"
     bordercolor="#666666"
     borderopacity="1"
     objecttolerance="10"
     gridtolerance="10"
     guidetolerance="10"
     inkscape:pageopacity="0"
     inkscape:pageshadow="2"
     inkscape:window-width="640"
     inkscape:window-height="480"
     id="namedview18"
     showgrid="false"
     inkscape:zoom="2.36"
     inkscape:cx="50.000193"
     inkscape:cy="-6"
     inkscape:window-x="72"
     inkscape:window-y="27"
     inkscape:window-maximized="0"
     inkscape:current-layer="Layer_1" />
  <g
     transform="matrix(0.44,0,0,0.435372,8.4593059e-5,-1.4089256e-4)"
     id="g13">
    <path
       id="path5"
       d="m 225.74,59.585 c -5.057,6.87 -10.066,8.822 -12.257,9.875 -2.187,1.056 -5.503,1.883 -8.403,1.883 -8.137,0 -14.486,-2.652 -19.051,-7.938 -4.565,-5.308 -6.846,-12.748 -6.846,-22.401 0,-11.408 2.878,-21.085 8.659,-29.072 5.779,-7.962 13.442,-11.93 22.992,-11.93 7.245,0 13.171,2.034 17.811,6.125 4.638,4.071 6.946,10.47 6.946,19.175 h -14.015 c 0,-4.167 -0.92,-7.094 -2.758,-8.78 -1.832,-1.663 -4.466,-2.508 -7.911,-2.508 -5.631,0 -9.973,2.755 -13.074,8.238 -3.075,5.506 -4.641,11.755 -4.641,18.776 0,4.789 1.02,8.708 3.002,11.732 2.01,3.053 5.009,4.565 9.007,4.565 4.167,0 7.389,-1.192 9.722,-3.549 2.308,-2.329 4.019,-5.358 5.111,-9.055 h -13.05 l 2.112,-12.699 h 25.448 l -2.157,12.301 c 0.003,0.006 -1.611,8.391 -6.647,15.262 z"
       style="fill:#ffffff;fill-opacity:1"
       inkscape:connector-curvature="0" />
    <polygon
       id="polygon9"
       points="323.102,69.684 332.751,17.044 311.467,69.684 301.423,69.684 296.785,17.068 289.462,69.684 277.064,69.684 288.397,1.764 305.789,1.764 309.684,49.588 329.23,1.637 346.74,1.764 335.355,69.684 "
       style="fill:#ffffff;fill-opacity:1" />
    <polygon
       id="polygon11"
       points="377.646,41.23 357.629,41.23 355.052,55.692 377.646,55.692 375.419,69.684 339.797,69.684 351.057,1.689 386.254,1.689 384.1,15.777 361.947,15.777 359.714,28.057 379.734,28.057 "
       style="fill:#ffffff;fill-opacity:1" />
    <path
       id="path13"
       d="m 253.028,1.637 -27.385,68.047 h 13.346 l 4.885,-13.273 h 17.464 l 1.14,13.273 h 12.923 L 267.662,1.64 h -14.634 z m -4.912,43.166 9.924,-27.065 2.305,27.065 z"
       style="fill:#ffffff;fill-opacity:1"
       inkscape:connector-curvature="0" />
    <path
       id="path5_1_"
       d="m 455.384,59.585 c -5.06,6.87 -10.063,8.822 -12.254,9.875 -2.19,1.056 -5.506,1.883 -8.406,1.883 -8.134,0 -14.486,-2.652 -19.048,-7.935 -4.568,-5.311 -6.849,-12.751 -6.849,-22.401 0,-11.411 2.878,-21.085 8.659,-29.072 5.778,-7.962 13.442,-11.933 22.995,-11.933 7.242,0 13.171,2.037 17.808,6.128 4.641,4.071 6.946,10.47 6.946,19.175 h -14.012 c 0,-4.167 -0.917,-7.094 -2.755,-8.78 -1.835,-1.663 -4.466,-2.505 -7.914,-2.505 -5.631,0 -9.973,2.752 -13.071,8.235 -3.078,5.506 -4.641,11.755 -4.641,18.776 0,4.789 1.017,8.708 2.999,11.732 2.013,3.053 5.012,4.565 9.007,4.565 4.17,0 7.392,-1.189 9.725,-3.549 2.308,-2.329 4.019,-5.355 5.111,-9.054 h -13.05 l 2.109,-12.7 h 25.451 l -2.16,12.304 c 0,0 -1.614,8.385 -6.65,15.256 z"
       style="fill:#ffffff;fill-opacity:1"
       inkscape:connector-curvature="0" />
    <polygon
       id="polygon15"
       points="499.466,41.23 479.447,41.23 476.846,55.692 499.466,55.692 497.234,69.705 461.611,69.705 472.875,1.689 508.075,1.689 505.917,15.777 483.761,15.777 481.532,28.081 501.524,28.081 "
       style="fill:#ffffff;fill-opacity:1" />
    <path
       id="path17"
       d="m 525.783,1.665 -27.385,68.043 h 13.373 l 4.858,-13.273 h 17.488 l 1.141,13.273 h 12.899 l -7.74,-68.043 z m -4.888,43.135 9.9,-27.062 2.332,27.062 z"
       style="fill:#ffffff;fill-opacity:1"
       inkscape:connector-curvature="0" />
    <path
       id="path19"
       d="m 568.846,31.578 2.978,-16.743 h 7.142 c 2.628,0 4.59,0.471 5.905,1.415 1.313,0.966 1.958,2.876 1.958,5.754 0,3.226 -1.065,5.606 -3.174,7.193 -2.136,1.591 -4.837,2.381 -8.11,2.381 z M 560.784,1.689 549.523,69.705 h 13.02 l 4.369,-25.922 h 6.026 l 10.071,25.922 h 14.933 L 586.778,41.004 c 3.895,-1.982 7.245,-5.283 9.577,-8.729 C 598.784,28.727 600,24.584 600,19.847 600,13.423 598.561,8.807 595.658,5.955 592.783,3.104 588.685,1.689 583.429,1.689 Z"
       style="fill:#ffffff;fill-opacity:1"
       inkscape:connector-curvature="0" />
    <path
       id="path21"
       d="M 10.872,27.816 C 22.361,8.544 38.181,-3.486 46.204,0.907 54.209,5.319 51.388,24.515 39.874,43.774 28.384,63.049 12.567,75.076 4.562,70.682 -3.461,66.274 -0.621,47.072 10.872,27.816 Z"
       style="fill:#ffffff;fill-opacity:1"
       inkscape:connector-curvature="0" />
    <path
       id="path21_2_"
       d="M 62.277,27.816 C 73.77,8.544 89.587,-3.486 97.607,0.907 105.612,5.319 102.791,24.515 91.28,43.774 79.787,63.049 63.97,75.076 55.968,70.682 47.945,66.274 50.784,47.072 62.277,27.816 Z"
       style="fill:#ffffff;fill-opacity:1"
       inkscape:connector-curvature="0" />
    <path
       id="path21_3_"
       d="m 113.683,27.816 c 11.49,-19.275 27.31,-31.302 35.33,-26.912 8.005,4.412 5.183,23.611 -6.328,42.87 -11.492,19.275 -27.306,31.302 -35.311,26.905 -8.026,-4.405 -5.184,-23.607 6.309,-42.863 z"
       style="fill:#ffffff;fill-opacity:1"
       inkscape:connector-curvature="0" />
  </g>
  <path
     d="m 83.596193,43.816674 h -2.464 v -2.695 h -1.848 v 2.695 h -2.464 v -7.619 h 2.464 v 2.696 h 1.848 v -2.696 h 2.464 z m 3.353,-1.206 -0.286,1.206 h -2.601 l 1.998,-7.619 h 3.806 l 1.998,7.619 h -2.601 l -0.281,-1.206 z m 1.082,-4.071 h -0.136 l -0.506,2.134 h 1.135 z m 9.412,3.096 0.185,2.047 c -0.516,0.211 -1.164,0.317 -1.945,0.317 -0.78,0 -1.406,-0.081 -1.879,-0.244 -0.472,-0.162 -0.844,-0.418 -1.117,-0.766 -0.27,-0.351 -0.459,-0.762 -0.568,-1.232 -0.105,-0.473 -0.158,-1.055 -0.158,-1.746 0,-0.691 0.053,-1.273 0.158,-1.746 0.109,-0.476 0.298,-0.889 0.568,-1.241 0.525,-0.673 1.49,-1.01 2.895,-1.01 0.314,0 0.682,0.031 1.104,0.092 0.423,0.061 0.737,0.136 0.942,0.226 l -0.37,1.864 c -0.533,-0.114 -1.022,-0.17 -1.465,-0.17 -0.442,0 -0.75,0.04 -0.924,0.122 -0.173,0.082 -0.259,0.244 -0.259,0.487 v 3.196 c 0.319,0.064 0.644,0.095 0.972,0.095 0.698,0 1.319,-0.097 1.861,-0.291 z m 3.559997,-1.136 h -0.049 v 3.317 h -2.463997 v -7.619 h 2.463997 v 3.109 h 0.049 c 0.017,-0.244 0.058,-0.438 0.123,-0.584 l 1.21,-2.525 h 2.658 l -1.848,3.744 1.909,3.875 h -2.657 l -1.272,-2.73 c -0.065,-0.147 -0.106,-0.343 -0.123,-0.587 z m 4.485,3.183 0.343,-2.012 c 0.757,0.188 1.437,0.283 2.041,0.283 0.605,0 1.092,-0.025 1.461,-0.074 v -0.61 l -1.109,-0.1 c -1.003,-0.087 -1.69,-0.323 -2.063,-0.709 -0.375,-0.387 -0.563,-0.958 -0.563,-1.716 0,-1.039 0.228,-1.754 0.686,-2.146 0.455,-0.389 1.228,-0.584 2.319,-0.584 1.094,0 2.08,0.102 2.957,0.305 l -0.308,1.95 c -0.763,-0.121 -1.374,-0.182 -1.835,-0.182 -0.461,0 -0.851,0.02 -1.171,0.061 v 0.596 l 0.889,0.087 c 1.077,0.105 1.821,0.358 2.231,0.762 0.411,0.401 0.616,0.959 0.616,1.676 0,0.511 -0.07,0.944 -0.211,1.298 -0.141,0.354 -0.307,0.622 -0.497,0.805 -0.194,0.183 -0.468,0.323 -0.823,0.419 -0.352,0.098 -0.661,0.157 -0.929,0.178 -0.267,0.02 -0.621,0.03 -1.064,0.03 -1.068,0 -2.058,-0.106 -2.97,-0.317 z m 11.446,-2.792 h -1.909 v -1.754 h 1.909 v -1.89 h 1.773 v 1.89 h 1.923 v 1.754 h -1.923 v 1.903 h -1.773 z m 13.833,2.926 h -2.464 v -2.695 h -1.848 v 2.695 h -2.464 v -7.619 h 2.464 v 2.696 h 1.848 v -2.696 h 2.464 z m 0.862,-3.805 c 0,-1.388 0.263,-2.4 0.788,-3.039 0.525,-0.638 1.474,-0.958 2.847,-0.958 1.373,0 2.322,0.32 2.847,0.958 0.524,0.639 0.787,1.651 0.787,3.039 0,0.691 -0.056,1.273 -0.167,1.746 -0.111,0.47 -0.302,0.881 -0.572,1.232 -0.27,0.348 -0.644,0.604 -1.122,0.766 -0.475,0.163 -1.066,0.244 -1.773,0.244 -0.707,0 -1.298,-0.081 -1.773,-0.244 -0.479,-0.162 -0.853,-0.418 -1.122,-0.766 -0.27,-0.351 -0.461,-0.762 -0.572,-1.232 -0.112,-0.473 -0.168,-1.055 -0.168,-1.746 z m 2.649,-1.267 v 3.169 h 1.021 c 0.337,0 0.582,-0.037 0.735,-0.112 0.152,-0.078 0.229,-0.256 0.229,-0.532 v -3.169 h -1.034 c -0.329,0 -0.569,0.038 -0.722,0.113 -0.153,0.078 -0.229,0.256 -0.229,0.531 z m 7.898,1.381 -0.15,3.691 h -2.574 l 0.467,-7.619 h 3.216 l 0.964,3.875 h 0.083 l 0.964,-3.875 h 3.212 l 0.471,7.619 h -2.574 l -0.15,-3.691 h -0.088 l -0.933,3.691 h -1.887 l -0.946,-3.691 z m 12.503,-0.954 v 1.768 h -2.464 v 0.927 h 3.019 v 1.95 h -5.483 v -7.619 h 5.421 l -0.308,1.951 h -2.649 v 1.023 z m 6.023,4.645 h -4.422 v -7.619 h 3.991 c 0.739,0 1.267,0.143 1.584,0.427 0.317,0.285 0.475,0.699 0.475,1.245 0,0.543 -0.101,0.962 -0.303,1.258 -0.2,0.3 -0.468,0.492 -0.805,0.579 v 0.074 c 0.994,0.171 1.491,0.842 1.491,2.012 0,0.609 -0.164,1.1 -0.493,1.471 -0.328,0.369 -0.834,0.553 -1.518,0.553 z m -0.998,-3.034 h -0.96 v 1.24 h 0.951 c 0.343,0 0.515,-0.205 0.515,-0.618 0,-0.415 -0.169,-0.622 -0.506,-0.622 z m -0.185,-2.913 h -0.775 v 1.132 h 0.766 c 0.311,0 0.466,-0.189 0.466,-0.566 0,-0.378 -0.152,-0.566 -0.457,-0.566 z m 9.44,3.413 1.329,2.534 h -2.71 l -1.012,-2.268 h -0.528 v 2.268 h -2.464 v -7.619 h 3.881 c 1.765,0 2.648,0.89 2.648,2.669 0,1.219 -0.381,2.024 -1.144,2.416 z m -2.354,-3.134 h -0.567 v 1.523 h 0.567 c 0.297,0 0.512,-0.03 0.647,-0.091 0.135,-0.061 0.203,-0.202 0.203,-0.422 v -0.497 c 0,-0.221 -0.068,-0.361 -0.203,-0.421 -0.135,-0.062 -0.35,-0.092 -0.647,-0.092 z m 9.473,1.023 v 1.768 h -2.464 v 0.927 h 3.019 v 1.95 h -5.483 v -7.619 h 5.421 l -0.308,1.951 h -2.649 v 1.023 z m 7.933,1.28 0.594,-4.254 h 2.574 l -1.21,7.619 h -3.212 l -0.568,-2.804 h -0.149 l -0.555,2.804 h -3.216 l -1.206,-7.619 h 2.574 l 0.581,4.254 h 0.075 l 0.884,-4.254 h 1.888 l 0.871,4.254 z"
     style="white-space:pre;fill:#ffffff"
     id="path15"
     inkscape:connector-curvature="0" />
</svg>
