<?xml version="1.0" encoding="UTF-8" standalone="no"?>
<svg
   xmlns:dc="http://purl.org/dc/elements/1.1/"
   xmlns:cc="http://creativecommons.org/ns#"
   xmlns:rdf="http://www.w3.org/1999/02/22-rdf-syntax-ns#"
   xmlns:svg="http://www.w3.org/2000/svg"
   xmlns="http://www.w3.org/2000/svg"
   xmlns:sodipodi="http://sodipodi.sourceforge.net/DTD/sodipodi-0.dtd"
   xmlns:inkscape="http://www.inkscape.org/namespaces/inkscape"
   version="1.1"
   id="demo"
   x="0px"
   y="0px"
   viewBox="0 0 168.07887 27"
   sodipodi:docname="homebrew.svg"
   width="168.07887"
   height="27"
   inkscape:version="0.92.5 (2060ec1f9f, 2020-04-08)">
  <metadata
     id="metadata13">
    <rdf:RDF>
      <cc:Work
         rdf:about="">
        <dc:format>image/svg+xml</dc:format>
        <dc:type
           rdf:resource="http://purl.org/dc/dcmitype/StillImage" />
      </cc:Work>
    </rdf:RDF>
  </metadata>
  <defs
     id="defs11" />
  <sodipodi:namedview
     pagecolor="#ffffff"
     bordercolor="#666666"
     borderopacity="1"
     objecttolerance="10"
     gridtolerance="10"
     guidetolerance="10"
     inkscape:pageopacity="0"
     inkscape:pageshadow="2"
     inkscape:window-width="532"
     inkscape:window-height="460"
     id="namedview9"
     showgrid="false"
     inkscape:zoom="1.915"
     inkscape:cx="84.039876"
     inkscape:cy="16.388"
     inkscape:window-x="72"
     inkscape:window-y="27"
     inkscape:window-maximized="0"
     inkscape:current-layer="demo" />
  <path
     d="m 23.270876,19.987 1.14,-6.63 h -4.29 l -1.14,6.63 h -5.7 l 3.3,-18.75 h 5.7 l -1.17,6.63 h 4.29 l 1.17,-6.63 h 5.7 l -3.3,18.75 z m 16.98,-12.48 -1.38,7.8 h 2.37 c 0.78,0 1.36,-0.095 1.74,-0.285 0.38,-0.19 0.63,-0.625 0.75,-1.305 l 1.38,-7.8 h -2.4 c -0.76,0 -1.33,0.095 -1.71,0.285 -0.38,0.19 -0.63,0.625 -0.75,1.305 z m 3.45,-6.72 c 2.54,0 4.35,0.495 5.43,1.485 1.08,0.99 1.62,2.515 1.62,4.575 0,2.06 -0.325,4.215 -0.975,6.465 -0.65,2.25 -1.68,4 -3.09,5.25 -1.41,1.25 -3.47,1.875 -6.18,1.875 -2.71,0 -4.605,-0.495 -5.685,-1.485 -1.08,-0.99 -1.62,-2.515 -1.62,-4.575 0,-0.98 0.14,-2.275 0.42,-3.885 0.28,-1.61 0.65,-3 1.11,-4.17 0.46,-1.17 1.08,-2.185 1.86,-3.045 1.5,-1.66 3.87,-2.49 7.11,-2.49 z m 13.38,19.2 h -5.94 l 4.38,-18.75 h 7.44 l 0.54,9.54 h 0.21 l 3.9,-9.54 h 7.44 l -2.22,18.75 h -5.97 l 1.26,-9.09 h -0.21 l -3.75,9.09 h -4.35 l -0.63,-9.09 h -0.15 z m 31.559,-7.08 h -5.7 l -0.39,2.28 h 6.99 l -0.84,4.8 h -12.69 l 3.3,-18.75 h 12.54 l -1.56,4.8 h -6.15 l -0.42,2.52 h 5.7 z m 3.27,7.08 3.3,-18.75 h 9.240004 c 1.44,0 2.485,0.25 3.135,0.75 0.65,0.5 0.975,1.27 0.975,2.31 0,1.52 -0.335,2.77 -1.005,3.75 -0.67,0.98 -1.485,1.59 -2.445,1.83 l -0.03,0.18 c 1.8,0.34 2.7,1.53 2.7,3.57 0,1.8 -0.49,3.31 -1.47,4.53 -0.98,1.22 -2.36,1.83 -4.14,1.83 z m 9.240004,-7.47 h -2.250004 l -0.54,3.06 h 2.220004 c 0.5,0 0.88,-0.2 1.14,-0.6 0.26,-0.4 0.39,-0.91 0.39,-1.53 0,-0.62 -0.32,-0.93 -0.96,-0.93 z m 0.84,-7.17 h -1.8 l -0.510004,2.79 h 1.770004 c 0.92,0 1.38,-0.65 1.38,-1.95 0,-0.56 -0.28,-0.84 -0.84,-0.84 z m 22.799,14.64 h -6.27 l -1.38,-5.58 h -1.23 l -0.96,5.58 h -5.7 l 3.3,-18.75 h 9 c 3.42,0 5.13,1.53 5.13,4.59 0,1.26 -0.19,2.46 -0.57,3.6 -0.7,2.16 -1.8,3.6 -3.3,4.32 z m -7.41,-13.95 -0.66,3.75 h 1.32 c 0.68,0 1.195,-0.075 1.545,-0.225 0.35,-0.15 0.59,-0.58 0.72,-1.29 0.13,-0.71 0.195,-1.145 0.195,-1.305 0,-0.4 -0.155,-0.655 -0.465,-0.765 -0.31,-0.11 -0.815,-0.165 -1.515,-0.165 z m 22.47,6.87 h -5.7 l -0.39,2.28 h 6.99 l -0.84,4.8 h -12.69 l 3.3,-18.75 h 12.54 l -1.56,4.8 h -6.15 l -0.42,2.52 h 5.7 z m 22.26,-11.67 h 5.97 l -6.09,18.75 h -7.56 v -6.9 h -0.33 l -2.49,6.9 h -6.93 V 1.237 h 5.97 l -0.54,10.47 h 0.18 l 3.9,-10.47 h 4.53 v 10.47 h 0.18 z"
     style="white-space:pre;fill:#ffffff"
     id="path2"
     inkscape:connector-curvature="0" />
  <path
     d="m 11.663876,10.639 -8.787,8.787 c -0.424,0.424 -1.111,0.424 -1.535,0 l -1.024,-1.024 c -0.423,-0.423 -0.424,-1.109 -0.002,-1.533 l 6.964,-6.997 -6.964,-6.996 c -0.422,-0.424 -0.421,-1.11 0.002,-1.533 l 1.024,-1.025 c 0.424,-0.424 1.111,-0.424 1.535,0 l 8.787,8.787 c 0.424,0.424 0.424,1.111 0,1.534 z"
     style="fill:#cccccc"
     id="path4"
     inkscape:connector-curvature="0" />
  <path
     d="m 28.936876,25.915 v -1.447 c 0,-0.599 -0.486,-1.085 -1.086,-1.085 h -13.745 c -0.599,0 -1.085,0.486 -1.085,1.085 v 1.447 c 0,0.599 0.486,1.085 1.085,1.085 h 13.745 c 0.6,0 1.086,-0.486 1.086,-1.085 z"
     style="fill:#cccccc"
     id="path6"
     inkscape:connector-curvature="0" />
</svg>
