<?xml version="1.0" encoding="UTF-8" standalone="no"?>
<svg
   xmlns:dc="http://purl.org/dc/elements/1.1/"
   xmlns:cc="http://creativecommons.org/ns#"
   xmlns:rdf="http://www.w3.org/1999/02/22-rdf-syntax-ns#"
   xmlns:svg="http://www.w3.org/2000/svg"
   xmlns="http://www.w3.org/2000/svg"
   xmlns:sodipodi="http://sodipodi.sourceforge.net/DTD/sodipodi-0.dtd"
   xmlns:inkscape="http://www.inkscape.org/namespaces/inkscape"
   version="1.1"
   id="svg6"
   sodipodi:docname="imageviewer.svg"
   width="264"
   height="30"
   inkscape:version="0.92.5 (2060ec1f9f, 2020-04-08)">
  <metadata
     id="metadata12">
    <rdf:RDF>
      <cc:Work
         rdf:about="">
        <dc:format>image/svg+xml</dc:format>
        <dc:type
           rdf:resource="http://purl.org/dc/dcmitype/StillImage" />
      </cc:Work>
    </rdf:RDF>
  </metadata>
  <defs
     id="defs10" />
  <sodipodi:namedview
     pagecolor="#ffffff"
     bordercolor="#666666"
     borderopacity="1"
     objecttolerance="10"
     gridtolerance="10"
     guidetolerance="10"
     inkscape:pageopacity="0"
     inkscape:pageshadow="2"
     inkscape:window-width="532"
     inkscape:window-height="460"
     id="namedview8"
     showgrid="false"
     inkscape:zoom="2.36"
     inkscape:cx="50"
     inkscape:cy="-20"
     inkscape:window-x="72"
     inkscape:window-y="27"
     inkscape:window-maximized="0"
     inkscape:current-layer="svg6" />
  <path
     d="m 48.3,25.182 1.912,-5.544 c 1.911,0.516 3.664,0.773 5.257,0.773 1.593,0 2.879,-0.066 3.857,-0.2 l 0.273,-1.679 -2.833,-0.271 c -2.162,-0.201 -3.695,-0.682 -4.597,-1.444 -0.895,-0.761 -1.342,-1.835 -1.342,-3.224 0,-0.605 0.067,-1.276 0.204,-2.016 0.524,-2.866 1.471,-4.837 2.845,-5.912 1.38,-1.073 3.516,-1.611 6.406,-1.611 2.89,0 5.439,0.279 7.646,0.839 l -1.775,5.375 C 64.173,9.932 62.58,9.763 61.374,9.763 c -1.206,0 -2.23,0.058 -3.072,0.169 l -0.273,1.645 2.287,0.235 c 2.321,0.247 3.971,0.791 4.949,1.636 0.979,0.835 1.469,1.959 1.469,3.369 0,1.433 -0.319,2.913 -0.956,4.435 -0.319,0.784 -0.669,1.44 -1.047,1.97 -0.372,0.523 -0.85,0.967 -1.434,1.333 -0.577,0.372 -1.104,0.653 -1.582,0.839 -0.478,0.194 -1.081,0.335 -1.809,0.426 -1.069,0.157 -2.378,0.234 -3.925,0.234 -2.822,0 -5.382,-0.29 -7.681,-0.872 z m 34.921,-5.643 -0.547,5.643 c -1.456,0.582 -3.299,0.872 -5.53,0.872 -2.867,0 -4.923,-0.548 -6.167,-1.645 -1.237,-1.098 -1.854,-2.788 -1.854,-5.072 0,-0.963 0.159,-2.385 0.478,-4.266 0.683,-3.851 1.858,-6.65 3.527,-8.396 1.676,-1.748 4.324,-2.621 7.942,-2.621 0.842,0 1.806,0.086 2.89,0.257 1.078,0.165 1.866,0.37 2.367,0.616 l -1.912,5.139 C 83.073,9.752 81.818,9.595 80.649,9.595 c -1.175,0 -2.014,0.113 -2.514,0.337 -0.501,0.224 -0.808,0.672 -0.922,1.343 l -1.57,8.8 c 0.818,0.18 1.661,0.27 2.525,0.27 1.843,0 3.528,-0.27 5.053,-0.806 z m 17.818,-0.975 2.253,6.987 h -7.134 l -1.57,-6.247 h -1.4 l -1.092,6.247 H 85.61 L 89.365,4.558 h 10.24 c 3.892,0 5.838,1.713 5.838,5.139 0,1.411 -0.217,2.755 -0.649,4.031 -0.797,2.417 -2.048,4.031 -3.755,4.836 z M 96.158,9.932 H 94.86 l -0.75,4.2 h 1.501 c 0.774,0 1.358,-0.083 1.753,-0.248 0.402,-0.171 0.675,-0.653 0.819,-1.443 0.152,-0.798 0.228,-1.29 0.228,-1.468 0,-0.448 -0.175,-0.736 -0.523,-0.862 C 97.531,9.99 96.955,9.932 96.158,9.932 Z m 25.158,2.822 -0.888,4.87 h -6.485 l -0.445,2.553 h 7.954 l -0.956,5.374 h -14.439 l 3.755,-20.993 h 14.268 l -1.775,5.374 h -6.997 l -0.478,2.822 z m 18.091,0 -0.888,4.87 h -6.485 l -0.444,2.553 h 7.954 l -0.956,5.374 h -14.44 l 3.755,-20.993 h 14.269 l -1.775,5.374 h -6.998 l -0.477,2.822 z m 20.856,12.797 h -6.11 l -3.481,-7.456 c -0.092,-0.157 -0.137,-0.378 -0.137,-0.662 0,-0.276 0.023,-0.593 0.068,-0.95 h -0.273 l -1.604,9.068 h -6.486 l 3.755,-20.993 h 6.11 l 3.482,7.457 c 0.068,0.157 0.102,0.377 0.102,0.661 0,0.276 -0.022,0.592 -0.068,0.95 h 0.273 l 1.639,-9.068 h 6.485 z m 3.721,-0.369 1.912,-5.544 c 1.911,0.516 3.664,0.773 5.257,0.773 1.592,0 2.878,-0.066 3.857,-0.2 l 0.273,-1.679 -2.834,-0.271 c -2.161,-0.201 -3.694,-0.682 -4.596,-1.444 -0.896,-0.761 -1.343,-1.835 -1.343,-3.224 0,-0.605 0.068,-1.276 0.205,-2.016 0.523,-2.866 1.471,-4.837 2.845,-5.912 1.38,-1.073 3.515,-1.611 6.406,-1.611 2.89,0 5.438,0.279 7.646,0.839 l -1.775,5.375 c -1.98,-0.336 -3.573,-0.505 -4.779,-0.505 -1.206,0 -2.23,0.058 -3.073,0.169 l -0.272,1.645 2.286,0.235 c 2.322,0.247 3.972,0.791 4.95,1.636 0.979,0.835 1.468,1.959 1.468,3.369 0,1.433 -0.318,2.913 -0.956,4.435 -0.318,0.784 -0.668,1.44 -1.046,1.97 -0.373,0.523 -0.851,0.967 -1.434,1.333 -0.577,0.372 -1.104,0.653 -1.582,0.839 -0.478,0.194 -1.081,0.335 -1.809,0.426 -1.069,0.157 -2.378,0.234 -3.926,0.234 -2.821,0 -5.382,-0.29 -7.68,-0.872 z m 38.095,0.369 h -6.486 l 1.297,-7.423 h -4.881 l -1.297,7.423 h -6.486 l 3.755,-20.993 h 6.486 l -1.332,7.422 h 4.882 l 1.331,-7.422 h 6.486 z m 12.835,-13.974 -1.571,8.734 h 2.697 c 0.888,0 1.548,-0.105 1.98,-0.313 0.432,-0.217 0.717,-0.705 0.853,-1.466 l 1.57,-8.734 h -2.73 c -0.865,0 -1.513,0.104 -1.946,0.313 -0.433,0.217 -0.717,0.706 -0.853,1.466 z m 3.926,-7.523 c 2.889,0 4.949,0.557 6.178,1.668 1.229,1.106 1.843,2.811 1.843,5.117 0,2.306 -0.372,4.722 -1.115,7.244 -0.736,2.516 -1.909,4.471 -3.516,5.867 -1.601,1.404 -3.945,2.104 -7.032,2.104 -3.08,0 -5.234,-0.552 -6.463,-1.656 -1.229,-1.113 -1.843,-2.821 -1.843,-5.128 0,-1.097 0.159,-2.545 0.478,-4.345 0.319,-1.805 0.739,-3.363 1.263,-4.668 0.523,-1.314 1.229,-2.452 2.116,-3.415 1.707,-1.858 4.404,-2.788 8.091,-2.788 z m 27.171,0.504 -0.99,5.374 h -4.71 l -2.766,15.619 h -6.486 l 2.766,-15.619 h -4.677 l 0.99,-5.374 z m -1.639,20.624 1.912,-5.544 c 1.911,0.516 3.664,0.773 5.257,0.773 1.592,0 2.878,-0.066 3.857,-0.2 l 0.273,-1.679 -2.833,-0.271 c -2.162,-0.201 -3.695,-0.682 -4.597,-1.444 -0.896,-0.761 -1.343,-1.835 -1.343,-3.224 0,-0.605 0.068,-1.276 0.205,-2.016 0.523,-2.866 1.471,-4.837 2.845,-5.912 1.38,-1.073 3.515,-1.611 6.406,-1.611 2.89,0 5.438,0.279 7.646,0.839 l -1.775,5.375 c -1.98,-0.336 -3.573,-0.505 -4.779,-0.505 -1.206,0 -2.23,0.058 -3.072,0.169 l -0.273,1.645 2.287,0.235 c 2.321,0.247 3.971,0.791 4.949,1.636 0.979,0.835 1.468,1.959 1.468,3.369 0,1.433 -0.318,2.913 -0.955,4.435 -0.319,0.784 -0.669,1.44 -1.047,1.97 -0.373,0.523 -0.851,0.967 -1.434,1.333 -0.577,0.372 -1.104,0.653 -1.582,0.839 -0.478,0.194 -1.081,0.335 -1.809,0.426 -1.069,0.157 -2.378,0.234 -3.926,0.234 -2.821,0 -5.381,-0.29 -7.68,-0.872 z"
     style="white-space:pre;fill:#ffffff"
     id="path2"
     inkscape:connector-curvature="0" />
  <path
     d="M 35.727,0 H 2.749 C 1.23,0 0,1.221 0,2.728 V 27.272 C 0,28.778 1.23,30 2.749,30 h 32.978 c 1.518,0 2.748,-1.222 2.748,-2.728 V 2.728 C 38.475,1.221 37.245,0 35.727,0 Z M 8.245,5.454 c 2.115,0 3.437,2.273 2.38,4.091 -1.057,1.818 -3.703,1.818 -4.76,0 C 5.623,9.131 5.496,8.66 5.496,8.182 5.496,6.677 6.728,5.454 8.245,5.454 Z M 32.979,24.545 H 5.496 v -2.728 l 5.497,-5.453 2.748,2.727 10.993,-10.909 8.245,8.182 z"
     style="fill:#ffffff"
     id="path4"
     inkscape:connector-curvature="0" />
</svg>
