<svg height="982" viewBox="0 0 4689.0001 982" width="4689" xmlns="http://www.w3.org/2000/svg"><g clip-rule="evenodd" fill="#fff" fill-rule="evenodd" transform="matrix(6.3149202 0 0 6.3149202 -1808.9749 -4903.7453)"><g transform="matrix(4.2249535 0 0 4.2249535 286.4604 776.57085)"><path d="M 5.7451172 0 L 15.874512 0 L 12.246094 21.316895 L 2.4189453 21.316895 Z"/><path d="M 11.490234 26.910645 L 19.805664 26.910645 L 18.595703 35.527832 L 0 35.527832 L 1.8144531 24.492676 L 11.79248 24.492676 Z"/><path d="M 131.83398 1.8144531 L 141.05566 1.8144531 L 140.14941 7.8613281 L 130.92676 7.8613281 Z"/><path d="M 130.54883 10.431641 L 139.77051 10.431641 L 138.1084 21.619629 L 128.88574 21.619629 Z"/><path d="M 128.43262 24.492676 L 137.6543 24.492676 L 135.99121 35.527832 L 126.76855 35.527832 Z"/><path d="M 86.251465 24.492676 L 95.473633 24.492676 L 93.810547 35.527832 L 84.588379 35.527832 Z"/></g><path d="m 412.61076 880.05129 c -.32786 3.01192 -.55495 6.84903 -.21674 10.29832 c .46415 4.20844 2.09802 7.57522 6.09191 7.57522 c 5.26058 0 8.42929 -4.62933 10.24674 -10.09207 c 1.02738 -2.84685 1.76181 -5.19867 2.29402 -7.88051 l 36.31027 -.0989 l -7.39777 46.95309 h -32.28131 l 1.89587 -9.34935 c -7.99809 10.17453 -14.40363 12.62534 -27.86446 12.62534 c -25.70664 0 -29.81397 -28.51844 -28.18424 -50.02277 l 39.10558 -.008 z"/><path d="m 432.64629 867.91279 c .0296 -2.6736 -.004 -4.25796 -.13393 -6.13113 c -.3756 -4.84387 -1.89177 -9.04613 -6.72735 -9.04613 c -5.04806 0 -8.06827 5.0481 -10.18282 11.15033 c -.30124 .94896 -.56526 1.86493 -1.75145 4.01041 l -39.44387 -.0254 c 5.23581 -22.48407 17.01946 -48.78689 42.69514 -49.31708 c 7.00996 -.1445 20.10359 .81283 25.22593 10.82851 l 1.11813 .21674 l 1.65656 -9.05023 h 31.63557 l -7.2864 47.36363 z"/><path d="m 479.0465 867.91279 c -2.35592 -4.70356 -3.33995 -10.33133 -2.40336 -17.02978 c 3.20378 -22.92781 20.43986 -34.56502 46.30946 -34.56502 c 11.14619 0 18.89471 2.61791 27.8067 8.08479 l -4.2435 29.44057 c -6.46946 -5.41322 -18.18505 -8.28898 -25.12694 -8.28898 c -2.94386 0 -6.60149 .69522 -7.50094 4.18989 c -1.30999 5.07282 4.3735 7.86196 11.2865 10.30449 c 5.71644 2.02173 10.57476 4.52201 14.4531 7.81452 l -60.58102 .0494 z"/><path d="m 548.46528 880.15028 c 1.75973 4.82735 2.28578 10.63666 1.42964 16.76778 c -3.50084 25.02791 -24.97839 34.4433 -47.90206 34.4433 c -15.14422 0 -21.51469 -2.82214 -33.55619 -9.97651 l 5.38432 -32.94145 c 4.10121 5.25647 17.99941 13.64034 27.29925 13.16174 c 3.57097 -.18167 10.78309 -2.64059 11.34011 -6.63449 c .55905 -3.99393 -1.15941 -6.93982 -10.13123 -9.79496 c -4.19812 -1.32858 -8.18792 -2.73963 -11.72175 -4.91814 l 57.85791 -.10731 z"/><path d="m 591.11297 880.06777 c -1.55136 9.39063 -1.90617 24.13669 6.65515 25.17645 c 5.51428 .67663 11.2617 -3.79587 13.00491 -15.12567 h 34.63309 c -6.03628 35.59853 -26.89901 42.05975 -51.71652 41.8782 c -27.03928 -.19815 -43.22736 -22.21404 -41.24281 -51.9785 l 38.66618 .0494 z"/><path d="m 954.57246 867.90455 c 5.07898 -27.90574 18.67395 -50.70152 57.54844 -51.58656 c 7.6289 -.17322 13.694 2.40958 16.8668 4.25385 l -5.0254 30.21628 c -15.4268 -6.25492 -23.8189 6.02385 -26.78135 17.16594 z"/><path d="m 996.28973 880.06777 c 1.03972 6.95634 5.04597 13.44228 12.84817 13.44228 l 8.4829 -.64363 l -4.9429 33.8161 c -6.0238 1.59264 -11.7713 2.54985 -19.56926 2.44257 c -29.67781 -.4208 -41.84107 -22.23876 -40.11644 -49.09856 l 43.29753 .0422 z"/><path d="m 777.05013 880.06777 c -4.6458 7.52569 -9.2916 13.07095 -19.82922 12.11374 l 1.81952 -12.14674 l -41.03237 .0254 l -7.41843 46.61476 h 41.51925 c 34.35661 0 57.94456 -15.02664 69.50543 -46.71379 l -44.56418 .10731 z"/><path d="m 760.58765 867.93754 l 8.13223 -52.40138 c 16.60685 0 20.43572 12.77385 17.24224 35.7677 c -.79627 5.74948 -1.91441 11.81457 -3.41211 16.72444 l 43.2026 .0494 c 1.56374 -6.46946 2.24865 -13.65062 3.00783 -21.24442 c 5.74742 -57.48865 -25.54779 -70.26254 -56.84709 -70.26254 h -38.96531 l -5.42974 40.87972 c -6.3869 1.27699 -22.0366 3.19347 -30.34209 14.3727 c -1.59674 1.59674 -2.55395 .95721 -2.23623 -.95928 l 1.59674 -10.21995 h -36.72495 l -7.02643 47.26874 h 38.96526 c 1.59264 -6.70876 19.16084 -16.60893 30.02028 -11.49897 l -1.82365 11.45769 l 40.64042 .0659 z"/><path d="m 878.907 867.91279 c -2.35591 -4.70356 -3.34202 -10.33133 -2.40543 -17.02978 c 3.20585 -22.92781 20.43986 -34.56502 46.30946 -34.56502 c 11.14826 0 18.89674 2.61791 27.80877 8.08479 l -4.24557 29.44057 c -6.46946 -5.41322 -18.18711 -8.28898 -25.12694 -8.28898 c -2.94179 0 -6.60149 .69522 -7.50094 4.18989 c -1.30792 5.07282 4.3735 7.86196 11.28853 10.30449 c 5.71442 2.02173 10.57476 4.52201 14.44904 7.81452 l -60.57692 .0494 z"/><path d="m 948.32164 880.15028 c 1.7618 4.82735 2.28578 10.63666 1.43171 16.76778 c -3.49877 25.02791 -24.97839 34.4433 -47.90206 34.4433 c -15.14629 0 -21.51672 -2.82214 -33.55619 -9.97651 l 5.38433 -32.94145 c 4.10116 5.25647 17.99733 13.64034 27.29717 13.16174 c 3.57304 -.18167 10.78516 -2.64059 11.34218 -6.63449 c .56112 -3.99393 -1.15941 -6.93982 -10.12916 -9.79496 c -4.20019 -1.32858 -8.18998 -2.73963 -11.72179 -4.91814 l 57.85381 -.10731 z"/><path d="M 171.85938 7.105957 L 171.54199 7.105957 L 171.54199 5.0429688 L 170.74902 5.0429688 L 170.74902 4.762207 L 172.65234 4.762207 L 172.65234 5.0429688 L 171.85938 5.0429688 Z" transform="matrix(4.2249535 0 0 4.2249535 286.4604 776.57085)"/><path d="m 1025.2992 806.5932 v -5.84644 c 0 -.29068 .03 -1.54515 .03 -2.46936 h -.03 l -2.7851 8.3158 h -1.3244 l -2.785 -8.3014 h -.025 c 0 .90981 .025 2.16407 .025 2.45496 v 5.84644 h -1.2955 v -9.90223 h 1.9185 l 2.8263 8.36942 h .025 l 2.814 -8.36942 h 1.902 v 9.90223 z"/><path d="m 606.75848 816.31799 c -31.26423 .21252 -46.64982 22.15215 -52.72112 51.57828 l 94.39923 .0254 c 1.04386 -13.65269 .55081 -26.87426 -3.57511 -32.87542 c -7.1956 -10.46952 -16.66875 -18.87198 -38.103 -18.72758 z m .60861 24.64834 c 7.3627 0 8.55925 7.99192 7.91764 14.09005 h -19.14018 c .58381 -5.67728 4.28271 -14.09005 11.22254 -14.09005 z"/></g></svg>