<?xml version="1.0" encoding="UTF-8" standalone="no"?>
<svg
   xmlns:dc="http://purl.org/dc/elements/1.1/"
   xmlns:cc="http://creativecommons.org/ns#"
   xmlns:rdf="http://www.w3.org/1999/02/22-rdf-syntax-ns#"
   xmlns:svg="http://www.w3.org/2000/svg"
   xmlns="http://www.w3.org/2000/svg"
   xmlns:sodipodi="http://sodipodi.sourceforge.net/DTD/sodipodi-0.dtd"
   xmlns:inkscape="http://www.inkscape.org/namespaces/inkscape"
   version="1.1"
   id="TEXT"
   x="0px"
   y="0px"
   enable-background="new 0 -0.001 566.929 157.78"
   sodipodi:docname="mame.svg"
   width="264"
   height="72.039436"
   inkscape:version="0.92.5 (2060ec1f9f, 2020-04-08)">
  <metadata
     id="metadata10">
    <rdf:RDF>
      <cc:Work
         rdf:about="">
        <dc:format>image/svg+xml</dc:format>
        <dc:type
           rdf:resource="http://purl.org/dc/dcmitype/StillImage" />
      </cc:Work>
    </rdf:RDF>
  </metadata>
  <defs
     id="defs8" />
  <sodipodi:namedview
     pagecolor="#ffffff"
     bordercolor="#666666"
     borderopacity="1"
     objecttolerance="10"
     gridtolerance="10"
     guidetolerance="10"
     inkscape:pageopacity="0"
     inkscape:pageshadow="2"
     inkscape:window-width="640"
     inkscape:window-height="480"
     id="namedview6"
     showgrid="false"
     inkscape:zoom="2.36"
     inkscape:cx="50"
     inkscape:cy="22.03944"
     inkscape:window-x="72"
     inkscape:window-y="27"
     inkscape:window-maximized="0"
     inkscape:current-layer="TEXT" />
  <g
     transform="scale(0.44)"
     id="g3">
    <polygon
       points="600,0.312 514.344,0 433.86,80.8 422.59,81.42 422.904,3.69 377.654,49.872 366.832,51.156 366.832,4.098 274.184,95.76 262.668,96.986 263.646,2.672 182.678,84.888 172.044,84.94 170.798,5.982 127.116,49.978 114.966,50.598 115.426,3.622 0,119.978 38.016,119.358 87.86,70.98 97.422,70.98 96.96,119.59 136.662,78.96 146.154,78.96 146.154,120.348 102.462,163.726 144.332,163.104 226.712,79.792 237.81,79.792 237.81,120.72 289.158,121.032 338.814,71.064 348.4,70.444 348.252,117.678 387.93,77.996 397.304,77.996 397.926,118.012 397.116,120.092 517.008,120.092 539.96,96.832 465.418,95.562 464.738,84.744 476.356,72.51 504.48,72.508 528.912,47.76 514.142,47.136 514.142,36.724 526.69,24.184 576.75,24.496 "
       id="polygon8"
       style="fill:#ffffff;fill-opacity:1" />
  </g>
</svg>
