<?xml version="1.0" encoding="UTF-8" standalone="no"?>
<svg
   xmlns:dc="http://purl.org/dc/elements/1.1/"
   xmlns:cc="http://creativecommons.org/ns#"
   xmlns:rdf="http://www.w3.org/1999/02/22-rdf-syntax-ns#"
   xmlns:svg="http://www.w3.org/2000/svg"
   xmlns="http://www.w3.org/2000/svg"
   xmlns:sodipodi="http://sodipodi.sourceforge.net/DTD/sodipodi-0.dtd"
   xmlns:inkscape="http://www.inkscape.org/namespaces/inkscape"
   version="1.1"
   id="svg23"
   sodipodi:docname="mastersystem.svg"
   width="264"
   height="97.041"
   inkscape:version="0.92.5 (2060ec1f9f, 2020-04-08)">
  <metadata
     id="metadata29">
    <rdf:RDF>
      <cc:Work
         rdf:about="">
        <dc:format>image/svg+xml</dc:format>
        <dc:type
           rdf:resource="http://purl.org/dc/dcmitype/StillImage" />
      </cc:Work>
    </rdf:RDF>
  </metadata>
  <defs
     id="defs27" />
  <sodipodi:namedview
     pagecolor="#ffffff"
     bordercolor="#666666"
     borderopacity="1"
     objecttolerance="10"
     gridtolerance="10"
     guidetolerance="10"
     inkscape:pageopacity="0"
     inkscape:pageshadow="2"
     inkscape:window-width="640"
     inkscape:window-height="480"
     id="namedview25"
     showgrid="false"
     inkscape:zoom="2.36"
     inkscape:cx="50"
     inkscape:cy="47.041"
     inkscape:window-x="72"
     inkscape:window-y="27"
     inkscape:window-maximized="0"
     inkscape:current-layer="svg23" />
  <path
     d="m 63.098,45.537 h 19.834 c 8.108,0 14.704,-6.598 14.704,-14.704 0,-8.104 -6.596,-14.663 -14.704,-14.663 h -5.171 c -0.407,0 -0.735,-0.325 -0.735,-0.733 0,-0.448 0.326,-0.773 0.735,-0.773 H 97.556 L 97.597,8.472 H 77.761 c -3.83,0 -6.925,3.096 -6.925,6.925 0,3.87 3.095,7.006 6.925,7.006 h 5.171 c 4.644,0 8.433,3.789 8.433,8.431 0,4.644 -3.789,8.391 -8.433,8.391 H 63.098 Z"
     id="path5"
     style="fill:#ffffff;fill-opacity:1"
     inkscape:connector-curvature="0" />
  <path
     d="m 63.098,37.799 h 19.834 c 3.87,0 6.967,-3.137 6.967,-6.966 0,-3.828 -3.096,-6.964 -6.967,-6.964 h -5.171 c -4.643,0 -8.391,-3.829 -8.391,-8.473 0,-4.643 3.748,-8.389 8.391,-8.389 H 97.596 L 97.555,0.734 H 77.759 c -8.105,0 -14.663,6.557 -14.663,14.703 0,8.106 6.558,14.663 14.663,14.663 h 5.132 c 0.407,0 0.734,0.327 0.734,0.733 0,0.408 -0.327,0.733 -0.734,0.733 H 63.096 Z"
     id="path7"
     style="fill:#ffffff;fill-opacity:1"
     inkscape:connector-curvature="0" />
  <path
     d="m 112.992,39.265 c -3.42,0 -6.23,-2.729 -6.23,-6.232 V 13.115 c 0,-3.339 2.81,-6.15 6.23,-6.15 h 21.181 V 0.734 h -21.181 c -6.882,0 -12.463,5.58 -12.463,12.463 v 19.836 c 0,6.884 5.58,12.464 12.463,12.464 h 21.1 v -6.231 z"
     id="path9"
     style="fill:#ffffff;fill-opacity:1"
     inkscape:connector-curvature="0" />
  <path
     d="m 108.267,13.196 c 0,-2.606 2.118,-4.766 4.725,-4.766 h 21.181 v 6.233 h -18.247 c -1.468,0 -1.468,1.466 -1.468,1.466 h 15.234 v 6.232 h -21.425 z"
     id="path11"
     style="fill:#ffffff;fill-opacity:1"
     inkscape:connector-curvature="0" />
  <path
     d="m 112.992,37.759 c -2.607,0 -4.725,-2.119 -4.725,-4.726 v -9.166 h 21.424 v 6.232 h -15.233 c 0,1.467 1.466,1.467 1.466,1.467 h 18.166 v 6.191 z"
     id="path13"
     style="fill:#ffffff;fill-opacity:1"
     inkscape:connector-curvature="0" />
  <path
     d="m 149.039,39.265 c -3.461,0 -6.273,-2.812 -6.273,-6.232 V 13.197 c 0,-3.421 2.812,-6.232 6.233,-6.232 h 20.529 V 0.734 h -20.57 c -6.884,0 -12.463,5.58 -12.463,12.463 v 19.836 c 0,6.884 5.619,12.464 12.504,12.464 h 20.529 V 16.13 h -17.637 v 6.232 h 11.405 v 16.903 z"
     id="path15"
     style="fill:#ffffff;fill-opacity:1"
     inkscape:connector-curvature="0" />
  <path
     d="m 144.231,33.033 c 0,2.606 2.161,4.766 4.767,4.766 h 12.83 V 23.828 H 151.89 V 30.1 h 3.707 v 1.466 h -3.665 c -0.816,0 -1.467,-0.69 -1.467,-1.466 V 16.13 c 0,0 0,-1.467 1.467,-1.467 h 17.595 V 8.43 h -20.529 c -2.606,0 -4.766,2.159 -4.766,4.766 z"
     id="path17"
     style="fill:#ffffff;fill-opacity:1"
     inkscape:connector-curvature="0" />
  <path
     d="m 188.793,8.351 c 0.284,-0.815 1.018,-1.385 1.914,-1.385 0.896,0 1.631,0.571 1.916,1.385 l 9.938,29.489 h -14.539 v -6.925 h 4.888 l -2.2,-6.558 -7.17,21.14 h -7.331 z"
     id="path19"
     style="fill:#ffffff;fill-opacity:1"
     inkscape:connector-curvature="0" />
  <path
     d="m 204.597,39.265 h -16.578 v 6.231 h 25.213 L 200.116,6.598 C 198.975,2.811 195.187,0 190.706,0 c -4.479,0 -8.267,2.77 -9.408,6.598 l -13.24,38.898 h 6.599 L 187.486,7.658 c 0.53,-1.263 1.751,-2.118 3.217,-2.118 1.427,0 2.65,0.855 3.179,2.118 z"
     id="path21"
     style="fill:#ffffff;fill-opacity:1"
     inkscape:connector-curvature="0" />
  <path
     id="path6717"
     d="M 43.152,86.145 H 27.761 v -1.743 c 0.557,-0.014 1.273,-0.073 2.148,-0.173 0.877,-0.097 1.477,-0.236 1.805,-0.418 0.508,-0.309 0.88,-0.664 1.117,-1.067 0.238,-0.402 0.356,-0.904 0.356,-1.51 V 55.904 H 32.819 L 20.938,85.58 H 19.712 L 8.395,55.29 H 8.077 v 20.79 c 0,2.012 0.126,3.543 0.38,4.59 0.254,1.048 0.642,1.8 1.167,2.257 0.36,0.342 1.103,0.673 2.232,0.985 1.129,0.31 1.866,0.475 2.21,0.488 v 1.743 H 0 V 84.4 C 0.737,84.336 1.509,84.213 2.32,84.034 3.129,83.854 3.755,83.585 4.198,83.224 4.77,82.768 5.163,82.063 5.376,81.113 5.59,80.166 5.694,78.577 5.694,76.351 V 58.53 C 5.694,57.499 5.572,56.657 5.327,56.003 5.082,55.349 4.73,54.817 4.272,54.408 3.765,53.965 3.142,53.639 2.406,53.425 1.669,53.214 0.942,53.091 0.222,53.057 v -1.742 h 11.881 l 9.964,26.116 8.518,-21.846 c 0.311,-0.799 0.578,-1.638 0.798,-2.516 0.221,-0.875 0.341,-1.461 0.357,-1.754 h 11.364 v 1.742 c -0.458,0.017 -1.044,0.091 -1.755,0.221 -0.711,0.133 -1.232,0.255 -1.559,0.368 -0.555,0.195 -0.933,0.525 -1.13,0.983 -0.196,0.457 -0.294,0.956 -0.294,1.496 v 25.11 c 0,0.573 0.098,1.055 0.294,1.448 0.197,0.392 0.573,0.737 1.13,1.029 0.296,0.166 0.819,0.317 1.572,0.456 0.752,0.137 1.35,0.218 1.791,0.231 v 1.745 h -10e-4 z"
     style="fill:#ffffff;fill-opacity:1"
     inkscape:connector-curvature="0" />
  <path
     id="path6719"
     d="m 64.936,85.702 c -0.768,0.281 -1.443,0.504 -2.025,0.676 -0.581,0.172 -1.239,0.257 -1.975,0.257 -1.278,0 -2.295,-0.296 -3.057,-0.895 -0.761,-0.596 -1.247,-1.467 -1.46,-2.613 h -0.148 c -1.063,1.176 -2.205,2.079 -3.424,2.699 -1.22,0.623 -2.689,0.932 -4.407,0.932 -1.816,0 -3.309,-0.552 -4.479,-1.669 -1.17,-1.111 -1.754,-2.568 -1.754,-4.369 0,-0.933 0.131,-1.769 0.393,-2.504 0.261,-0.737 0.655,-1.399 1.177,-1.988 0.41,-0.488 0.95,-0.926 1.62,-1.313 0.672,-0.383 1.301,-0.689 1.89,-0.92 0.738,-0.277 2.231,-0.794 4.48,-1.547 2.25,-0.75 3.767,-1.34 4.553,-1.766 v -2.43 c 0,-0.213 -0.044,-0.622 -0.136,-1.227 -0.09,-0.605 -0.281,-1.179 -0.576,-1.719 -0.328,-0.603 -0.789,-1.132 -1.388,-1.583 -0.596,-0.448 -1.443,-0.675 -2.539,-0.675 -0.754,0 -1.452,0.128 -2.099,0.381 -0.647,0.256 -1.101,0.52 -1.362,0.798 0,0.329 0.078,0.809 0.234,1.447 0.155,0.638 0.233,1.228 0.233,1.767 0,0.574 -0.259,1.097 -0.775,1.57 -0.514,0.479 -1.231,0.712 -2.147,0.712 -0.817,0 -1.419,-0.287 -1.805,-0.87 -0.383,-0.579 -0.575,-1.23 -0.575,-1.952 0,-0.751 0.265,-1.472 0.797,-2.16 0.533,-0.687 1.223,-1.3 2.075,-1.84 0.737,-0.456 1.629,-0.848 2.675,-1.166 1.048,-0.32 2.07,-0.479 3.069,-0.479 1.375,0 2.572,0.094 3.596,0.282 1.023,0.19 1.951,0.593 2.786,1.215 0.834,0.607 1.468,1.429 1.902,2.466 0.433,1.041 0.651,2.377 0.651,4.014 0,2.34 -0.026,4.414 -0.074,6.221 -0.05,1.809 -0.072,3.786 -0.072,5.929 0,0.638 0.11,1.147 0.33,1.524 0.221,0.377 0.561,0.696 1.019,0.955 0.246,0.149 0.634,0.23 1.166,0.246 0.532,0.016 1.076,0.026 1.632,0.026 v 1.568 z M 56.37,72.742 c -1.391,0.41 -2.609,0.808 -3.657,1.203 -1.048,0.392 -2.021,0.882 -2.92,1.473 -0.819,0.556 -1.465,1.214 -1.94,1.974 -0.474,0.761 -0.712,1.668 -0.712,2.713 0,1.359 0.355,2.356 1.068,2.994 0.712,0.637 1.615,0.958 2.711,0.958 1.163,0 2.185,-0.283 3.069,-0.848 0.883,-0.565 1.629,-1.228 2.233,-2.001 z"
     style="fill:#ffffff;fill-opacity:1"
     inkscape:connector-curvature="0" />
  <path
     id="path6721"
     d="m 78.106,74.289 c 0.671,0.589 1.186,1.269 1.547,2.035 0.36,0.772 0.54,1.713 0.54,2.823 0,2.244 -0.84,4.076 -2.515,5.499 -1.678,1.423 -3.851,2.136 -6.518,2.136 -1.408,0 -2.705,-0.255 -3.891,-0.762 -1.187,-0.507 -2.034,-0.972 -2.541,-1.399 l -0.49,1.596 h -1.841 l -0.245,-8.421 h 1.693 c 0.131,0.638 0.409,1.385 0.834,2.232 0.426,0.852 0.942,1.619 1.547,2.307 0.638,0.722 1.403,1.327 2.295,1.818 0.892,0.489 1.895,0.737 3.007,0.737 1.571,0 2.783,-0.356 3.634,-1.069 0.85,-0.711 1.277,-1.73 1.277,-3.057 0,-0.688 -0.135,-1.277 -0.405,-1.778 -0.27,-0.498 -0.668,-0.934 -1.191,-1.314 -0.54,-0.376 -1.203,-0.714 -1.989,-1.018 -0.785,-0.302 -1.66,-0.602 -2.626,-0.897 -0.77,-0.228 -1.624,-0.542 -2.565,-0.945 -0.941,-0.402 -1.747,-0.873 -2.418,-1.412 -0.72,-0.571 -1.309,-1.277 -1.768,-2.11 -0.458,-0.835 -0.687,-1.817 -0.687,-2.946 0,-1.98 0.736,-3.656 2.209,-5.032 1.474,-1.375 3.445,-2.063 5.916,-2.063 0.948,0 1.918,0.123 2.909,0.367 0.989,0.247 1.795,0.54 2.417,0.883 l 0.565,-1.276 h 1.767 l 0.368,7.78 h -1.693 c -0.343,-1.734 -1.085,-3.145 -2.222,-4.235 -1.138,-1.087 -2.525,-1.632 -4.161,-1.632 -1.341,0 -2.398,0.338 -3.167,1.008 -0.77,0.673 -1.153,1.483 -1.153,2.431 0,0.736 0.126,1.35 0.38,1.84 0.254,0.492 0.633,0.907 1.142,1.253 0.489,0.328 1.108,0.635 1.853,0.92 0.745,0.286 1.664,0.612 2.762,0.969 1.08,0.343 2.099,0.746 3.056,1.203 0.957,0.466 1.745,0.974 2.368,1.529 z"
     style="fill:#ffffff;fill-opacity:1"
     inkscape:connector-curvature="0" />
  <path
     id="path6723"
     d="m 93.558,85.088 c -1.064,0.443 -2.07,0.816 -3.019,1.117 -0.949,0.304 -2.111,0.454 -3.486,0.454 -2.029,0 -3.457,-0.509 -4.283,-1.533 -0.827,-1.023 -1.24,-2.468 -1.24,-4.331 V 64.398 h -4.37 v -2.357 h 4.468 v -7.536 h 4.468 v 7.536 h 6.946 v 2.357 h -6.897 v 13.524 c 0,1.016 0.036,1.863 0.111,2.543 0.073,0.678 0.249,1.275 0.527,1.778 0.261,0.475 0.655,0.835 1.178,1.08 0.523,0.245 1.227,0.368 2.111,0.368 0.408,0 1.009,-0.037 1.804,-0.113 0.794,-0.073 1.354,-0.165 1.682,-0.282 z"
     style="fill:#ffffff;fill-opacity:1"
     inkscape:connector-curvature="0" />
  <path
     id="path6725"
     d="m 112.275,80.45 c -1.015,1.932 -2.373,3.469 -4.075,4.614 -1.702,1.147 -3.658,1.717 -5.867,1.717 -1.946,0 -3.652,-0.343 -5.119,-1.03 -1.463,-0.687 -2.669,-1.62 -3.62,-2.798 -0.948,-1.177 -1.657,-2.551 -2.123,-4.122 -0.467,-1.572 -0.699,-3.229 -0.699,-4.982 0,-1.571 0.249,-3.114 0.748,-4.628 0.5,-1.511 1.232,-2.875 2.197,-4.086 0.933,-1.16 2.09,-2.098 3.474,-2.811 1.382,-0.713 2.934,-1.068 4.651,-1.068 1.767,0 3.281,0.281 4.54,0.835 1.261,0.557 2.283,1.317 3.069,2.281 0.753,0.92 1.313,2 1.682,3.242 0.367,1.243 0.552,2.594 0.552,4.049 v 1.62 H 95.657 c 0,1.589 0.151,3.029 0.453,4.322 0.304,1.293 0.782,2.429 1.436,3.412 0.637,0.95 1.472,1.698 2.504,2.246 1.03,0.55 2.258,0.82 3.682,0.82 1.456,0 2.711,-0.339 3.767,-1.02 1.057,-0.675 2.075,-1.901 3.056,-3.667 z m -5.425,-9.229 c 0,-0.916 -0.078,-1.898 -0.233,-2.945 -0.156,-1.048 -0.405,-1.922 -0.749,-2.627 -0.375,-0.752 -0.891,-1.363 -1.547,-1.841 -0.653,-0.473 -1.497,-0.711 -2.527,-0.711 -1.72,0 -3.147,0.715 -4.284,2.149 -1.137,1.432 -1.755,3.423 -1.853,5.975 z"
     style="fill:#ffffff;fill-opacity:1"
     inkscape:connector-curvature="0" />
  <path
     id="path6727"
     d="m 128.438,65.059 c 0,0.834 -0.204,1.575 -0.613,2.221 -0.409,0.649 -1.038,0.969 -1.889,0.969 -0.918,0 -1.617,-0.237 -2.101,-0.713 -0.481,-0.472 -0.723,-0.997 -0.723,-1.569 0,-0.36 0.028,-0.687 0.085,-0.982 0.058,-0.296 0.111,-0.591 0.16,-0.884 -0.769,0 -1.67,0.311 -2.7,0.933 -1.031,0.623 -1.906,1.505 -2.627,2.65 v 14.089 c 0,0.576 0.112,1.041 0.332,1.401 0.22,0.362 0.568,0.631 1.043,0.811 0.409,0.163 0.937,0.286 1.583,0.365 0.646,0.085 1.206,0.14 1.682,0.173 v 1.62 h -12.764 v -1.62 c 0.376,-0.032 0.765,-0.063 1.165,-0.097 0.401,-0.031 0.749,-0.096 1.044,-0.198 0.457,-0.147 0.798,-0.404 1.018,-0.771 0.221,-0.368 0.332,-0.848 0.332,-1.436 V 67.073 c 0,-0.507 -0.119,-1.008 -0.356,-1.497 -0.238,-0.492 -0.57,-0.884 -0.995,-1.178 -0.31,-0.198 -0.677,-0.338 -1.104,-0.43 -0.426,-0.089 -0.884,-0.15 -1.374,-0.183 v -1.596 l 8.05,-0.541 0.343,0.344 v 3.412 h 0.122 c 1.017,-1.326 2.146,-2.332 3.388,-3.019 1.245,-0.688 2.382,-1.031 3.412,-1.031 1.032,0 1.87,0.337 2.517,1.007 0.648,0.67 0.97,1.569 0.97,2.698 z"
     style="fill:#ffffff;fill-opacity:1"
     inkscape:connector-curvature="0" />
  <path
     id="path6729"
     d="m 154.581,70.166 c 0.735,0.82 1.278,1.714 1.63,2.688 0.354,0.974 0.53,2.108 0.53,3.399 0,3.079 -1.139,5.616 -3.412,7.61 -2.275,1.999 -5.097,2.994 -8.469,2.994 -1.555,0 -3.108,-0.239 -4.663,-0.723 -1.554,-0.481 -2.897,-1.068 -4.026,-1.754 l -1.055,1.792 h -1.962 L 132.81,74.243 h 1.988 c 0.41,1.471 0.888,2.803 1.437,3.988 0.549,1.189 1.272,2.294 2.172,3.327 0.851,0.966 1.845,1.734 2.981,2.307 1.138,0.574 2.459,0.859 3.963,0.859 1.13,0 2.114,-0.147 2.959,-0.442 0.842,-0.296 1.527,-0.715 2.049,-1.253 0.523,-0.54 0.91,-1.173 1.166,-1.901 0.255,-0.727 0.381,-1.567 0.381,-2.518 0,-1.386 -0.391,-2.687 -1.176,-3.89 -0.785,-1.204 -1.955,-2.115 -3.511,-2.737 -1.064,-0.426 -2.283,-0.897 -3.658,-1.411 -1.373,-0.515 -2.56,-1.002 -3.558,-1.462 -1.964,-0.883 -3.49,-2.041 -4.579,-3.473 -1.088,-1.431 -1.631,-3.302 -1.631,-5.61 0,-1.324 0.27,-2.559 0.809,-3.706 0.54,-1.145 1.309,-2.169 2.308,-3.069 0.948,-0.849 2.07,-1.518 3.362,-2.001 1.293,-0.482 2.644,-0.723 4.05,-0.723 1.604,0 3.039,0.244 4.308,0.737 1.267,0.49 2.427,1.064 3.473,1.716 l 1.007,-1.669 h 1.964 l 0.197,11.56 h -1.987 c -0.359,-1.325 -0.765,-2.59 -1.216,-3.806 -0.449,-1.209 -1.033,-2.307 -1.754,-3.288 -0.703,-0.947 -1.563,-1.707 -2.577,-2.272 -1.015,-0.563 -2.259,-0.847 -3.73,-0.847 -1.553,0 -2.881,0.501 -3.977,1.497 -1.096,1.001 -1.645,2.219 -1.645,3.657 0,1.507 0.351,2.754 1.055,3.745 0.704,0.99 1.728,1.803 3.069,2.441 1.194,0.573 2.367,1.067 3.52,1.483 1.154,0.419 2.271,0.866 3.351,1.339 0.983,0.426 1.926,0.909 2.834,1.449 0.905,0.546 1.694,1.175 2.367,1.896 z"
     style="fill:#ffffff;fill-opacity:1"
     inkscape:connector-curvature="0" />
  <path
     id="path6731"
     d="m 153.391,94.049 c 0,-0.818 0.223,-1.485 0.675,-2.002 0.449,-0.516 1.008,-0.773 1.681,-0.773 0.523,0 0.972,0.096 1.351,0.295 0.375,0.197 0.711,0.452 1.006,0.76 0.245,0.244 0.509,0.581 0.785,1.006 0.279,0.427 0.5,0.779 0.662,1.056 0.82,-0.442 1.797,-1.596 2.936,-3.46 1.135,-1.866 1.961,-3.499 2.465,-4.911 -1.556,-3.876 -2.961,-7.345 -4.222,-10.407 -1.26,-3.06 -2.577,-6.226 -3.951,-9.5 -0.311,-0.751 -0.836,-1.339 -1.572,-1.756 -0.735,-0.418 -1.472,-0.682 -2.209,-0.798 v -1.62 h 11.046 v 1.718 c -0.492,0.016 -1.079,0.12 -1.768,0.306 -0.687,0.19 -1.03,0.405 -1.03,0.651 0,0.098 0.037,0.262 0.111,0.49 0.074,0.231 0.158,0.468 0.259,0.712 0.622,1.62 1.569,3.957 2.847,7.008 1.278,3.055 2.267,5.494 2.969,7.328 0.738,-1.752 1.503,-3.562 2.295,-5.436 0.795,-1.874 1.685,-4.086 2.665,-6.64 0.114,-0.309 0.281,-0.738 0.489,-1.288 0.212,-0.548 0.321,-1.019 0.321,-1.411 0,-0.424 -0.371,-0.822 -1.117,-1.191 -0.745,-0.367 -1.452,-0.593 -2.124,-0.676 v -1.57 h 8.984 v 1.523 c -0.492,0.084 -1.14,0.364 -1.94,0.847 -0.803,0.484 -1.4,1.166 -1.793,2.048 -1.948,4.518 -3.681,8.633 -5.192,12.347 -1.514,3.716 -2.662,6.448 -3.447,8.198 -1.032,2.294 -1.952,4.079 -2.762,5.364 -0.81,1.286 -1.601,2.294 -2.37,3.03 -0.753,0.689 -1.436,1.152 -2.047,1.389 -0.613,0.235 -1.251,0.355 -1.901,0.355 -1.277,0 -2.279,-0.302 -3.008,-0.906 -0.731,-0.603 -1.094,-1.301 -1.094,-2.086 z"
     style="fill:#ffffff;fill-opacity:1"
     inkscape:connector-curvature="0" />
  <path
     id="path6733"
     d="m 190.738,74.289 c 0.669,0.589 1.186,1.269 1.546,2.035 0.361,0.772 0.54,1.713 0.54,2.823 0,2.244 -0.84,4.076 -2.514,5.499 -1.68,1.423 -3.851,2.136 -6.519,2.136 -1.406,0 -2.705,-0.255 -3.889,-0.762 -1.188,-0.507 -2.035,-0.972 -2.542,-1.399 l -0.491,1.596 h -1.841 l -0.245,-8.421 h 1.693 c 0.129,0.638 0.408,1.385 0.835,2.232 0.426,0.852 0.941,1.619 1.548,2.307 0.636,0.722 1.401,1.327 2.294,1.818 0.891,0.489 1.893,0.737 3.006,0.737 1.57,0 2.783,-0.356 3.633,-1.069 0.849,-0.711 1.277,-1.73 1.277,-3.057 0,-0.688 -0.136,-1.277 -0.406,-1.778 -0.27,-0.498 -0.668,-0.934 -1.191,-1.314 -0.539,-0.376 -1.202,-0.714 -1.986,-1.018 -0.786,-0.302 -1.663,-0.602 -2.628,-0.897 -0.771,-0.228 -1.626,-0.542 -2.565,-0.945 -0.944,-0.402 -1.747,-0.873 -2.419,-1.412 -0.718,-0.571 -1.31,-1.277 -1.768,-2.11 -0.459,-0.835 -0.687,-1.817 -0.687,-2.946 0,-1.98 0.738,-3.656 2.211,-5.032 1.474,-1.375 3.442,-2.063 5.915,-2.063 0.948,0 1.919,0.123 2.908,0.367 0.989,0.247 1.797,0.54 2.419,0.883 l 0.566,-1.276 h 1.766 l 0.368,7.78 h -1.694 c -0.343,-1.734 -1.085,-3.145 -2.219,-4.235 -1.139,-1.087 -2.524,-1.632 -4.162,-1.632 -1.342,0 -2.399,0.338 -3.167,1.008 -0.77,0.673 -1.153,1.483 -1.153,2.431 0,0.736 0.126,1.35 0.38,1.84 0.254,0.492 0.634,0.907 1.141,1.253 0.492,0.328 1.112,0.635 1.855,0.92 0.742,0.286 1.664,0.612 2.761,0.969 1.082,0.343 2.1,0.746 3.058,1.203 0.954,0.466 1.743,0.974 2.366,1.529 z"
     style="fill:#ffffff;fill-opacity:1"
     inkscape:connector-curvature="0" />
  <path
     id="path6735"
     d="m 206.189,85.088 c -1.063,0.443 -2.069,0.816 -3.021,1.117 -0.947,0.304 -2.107,0.454 -3.483,0.454 -2.029,0 -3.457,-0.509 -4.284,-1.533 -0.826,-1.023 -1.24,-2.468 -1.24,-4.331 V 64.398 h -4.368 v -2.357 h 4.465 v -7.536 h 4.469 v 7.536 h 6.947 v 2.357 h -6.899 v 13.524 c 0,1.016 0.038,1.863 0.112,2.543 0.073,0.679 0.25,1.275 0.53,1.778 0.259,0.475 0.655,0.835 1.175,1.08 0.523,0.245 1.227,0.368 2.11,0.368 0.409,0 1.01,-0.037 1.805,-0.113 0.793,-0.073 1.354,-0.165 1.681,-0.282 z"
     style="fill:#ffffff;fill-opacity:1"
     inkscape:connector-curvature="0" />
  <path
     id="path6737"
     d="m 224.906,80.45 c -1.014,1.932 -2.372,3.469 -4.075,4.614 -1.702,1.147 -3.658,1.717 -5.867,1.717 -1.943,0 -3.651,-0.343 -5.117,-1.03 -1.465,-0.687 -2.67,-1.62 -3.623,-2.798 -0.946,-1.177 -1.657,-2.551 -2.123,-4.122 -0.467,-1.572 -0.698,-3.229 -0.698,-4.982 0,-1.571 0.251,-3.114 0.748,-4.628 0.499,-1.511 1.232,-2.875 2.197,-4.086 0.932,-1.16 2.09,-2.098 3.473,-2.811 1.382,-0.713 2.934,-1.068 4.65,-1.068 1.769,0 3.281,0.281 4.541,0.835 1.26,0.557 2.282,1.317 3.068,2.281 0.754,0.92 1.313,2 1.682,3.242 0.366,1.243 0.551,2.594 0.551,4.049 v 1.62 h -16.027 c 0,1.589 0.153,3.029 0.454,4.322 0.301,1.293 0.779,2.429 1.437,3.412 0.635,0.95 1.474,1.698 2.502,2.246 1.03,0.55 2.257,0.82 3.683,0.82 1.457,0 2.71,-0.339 3.768,-1.02 1.055,-0.675 2.074,-1.901 3.058,-3.667 z m -5.426,-9.229 c 0,-0.916 -0.077,-1.898 -0.232,-2.945 -0.154,-1.048 -0.406,-1.922 -0.749,-2.627 -0.375,-0.752 -0.89,-1.363 -1.546,-1.841 -0.656,-0.473 -1.498,-0.711 -2.53,-0.711 -1.716,0 -3.146,0.715 -4.283,2.149 -1.136,1.432 -1.754,3.423 -1.853,5.975 z"
     style="fill:#ffffff;fill-opacity:1"
     inkscape:connector-curvature="0" />
  <path
     id="path6739"
     d="m 263.996,86.145 h -11.807 v -1.622 c 0.377,-0.031 0.757,-0.063 1.142,-0.096 0.384,-0.031 0.722,-0.097 1.017,-0.197 0.458,-0.148 0.798,-0.406 1.019,-0.773 0.222,-0.367 0.333,-0.848 0.333,-1.435 V 69.528 c 0,-1.701 -0.39,-3.015 -1.168,-3.94 -0.778,-0.924 -1.745,-1.386 -2.907,-1.386 -0.801,0 -1.555,0.121 -2.258,0.367 -0.704,0.245 -1.35,0.588 -1.938,1.031 -0.477,0.361 -0.873,0.748 -1.194,1.166 -0.318,0.417 -0.56,0.766 -0.725,1.042 v 13.966 c 0,0.576 0.1,1.045 0.297,1.412 0.197,0.367 0.531,0.652 1.007,0.848 0.376,0.147 0.716,0.258 1.019,0.331 0.301,0.073 0.698,0.127 1.189,0.159 v 1.62 h -11.558 v -1.62 c 0.378,-0.032 0.738,-0.064 1.092,-0.097 0.35,-0.031 0.675,-0.097 0.967,-0.199 0.459,-0.147 0.798,-0.404 1.019,-0.772 0.222,-0.367 0.334,-0.847 0.334,-1.436 V 69.526 c 0,-1.701 -0.39,-3.014 -1.169,-3.939 -0.776,-0.924 -1.747,-1.387 -2.906,-1.387 -0.802,0 -1.557,0.127 -2.26,0.381 -0.703,0.257 -1.35,0.603 -1.939,1.044 -0.474,0.361 -0.875,0.766 -1.202,1.215 -0.327,0.453 -0.572,0.791 -0.738,1.019 v 13.868 c 0,0.557 0.116,1.025 0.345,1.4 0.229,0.378 0.571,0.663 1.028,0.86 0.343,0.165 0.697,0.285 1.055,0.366 0.363,0.084 0.761,0.14 1.203,0.174 v 1.621 h -11.759 v -1.621 c 0.377,-0.032 0.765,-0.064 1.168,-0.098 0.4,-0.03 0.746,-0.097 1.043,-0.197 0.458,-0.147 0.799,-0.405 1.017,-0.774 0.221,-0.366 0.331,-0.845 0.331,-1.435 V 66.977 c 0,-0.523 -0.115,-0.995 -0.355,-1.411 -0.238,-0.419 -0.569,-0.775 -0.993,-1.07 -0.312,-0.197 -0.695,-0.355 -1.153,-0.478 -0.458,-0.123 -0.933,-0.199 -1.424,-0.234 V 62.19 l 8.102,-0.541 0.343,0.343 v 3.461 h 0.172 c 0.409,-0.407 0.908,-0.892 1.497,-1.449 0.592,-0.553 1.138,-1.007 1.646,-1.349 0.572,-0.391 1.289,-0.718 2.15,-0.982 0.858,-0.26 1.787,-0.392 2.785,-0.392 1.57,0 2.919,0.421 4.05,1.262 1.131,0.844 1.941,1.863 2.429,3.057 0.591,-0.571 1.11,-1.074 1.56,-1.509 0.449,-0.433 1.043,-0.895 1.779,-1.387 0.623,-0.425 1.353,-0.769 2.197,-1.031 0.842,-0.26 1.778,-0.392 2.811,-0.392 2.045,0 3.665,0.674 4.861,2.012 1.193,1.343 1.791,3.406 1.791,6.187 v 12.298 c 0,0.573 0.097,1.041 0.297,1.411 0.197,0.366 0.53,0.653 1.006,0.846 0.378,0.148 0.748,0.258 1.116,0.332 0.369,0.073 0.781,0.127 1.24,0.159 v 1.621 h -0.003 v -0.002 z"
     style="fill:#ffffff;fill-opacity:1"
     inkscape:connector-curvature="0" />
</svg>
