<?xml version="1.0" encoding="UTF-8" standalone="no"?>
<svg
   xmlns:dc="http://purl.org/dc/elements/1.1/"
   xmlns:cc="http://creativecommons.org/ns#"
   xmlns:rdf="http://www.w3.org/1999/02/22-rdf-syntax-ns#"
   xmlns:svg="http://www.w3.org/2000/svg"
   xmlns="http://www.w3.org/2000/svg"
   xmlns:sodipodi="http://sodipodi.sourceforge.net/DTD/sodipodi-0.dtd"
   xmlns:inkscape="http://www.inkscape.org/namespaces/inkscape"
   id="Warstwa_1"
   data-name="Warstwa 1"
   viewBox="0 0 226.59457 85.639223"
   version="1.1"
   sodipodi:docname="megacd.svg"
   width="226.59457"
   height="85.639221"
   inkscape:version="0.92.5 (2060ec1f9f, 2020-04-08)">
  <metadata
     id="metadata27">
    <rdf:RDF>
      <cc:Work
         rdf:about="">
        <dc:format>image/svg+xml</dc:format>
        <dc:type
           rdf:resource="http://purl.org/dc/dcmitype/StillImage" />
      </cc:Work>
    </rdf:RDF>
  </metadata>
  <defs
     id="defs25" />
  <sodipodi:namedview
     pagecolor="#ffffff"
     bordercolor="#666666"
     borderopacity="1"
     objecttolerance="10"
     gridtolerance="10"
     guidetolerance="10"
     inkscape:pageopacity="0"
     inkscape:pageshadow="2"
     inkscape:window-width="532"
     inkscape:window-height="460"
     id="namedview23"
     showgrid="false"
     inkscape:zoom="1.6903522"
     inkscape:cx="113.29"
     inkscape:cy="42.795439"
     inkscape:window-x="72"
     inkscape:window-y="27"
     inkscape:window-maximized="0"
     inkscape:current-layer="Warstwa_1" />
  <title
     id="title2">sega32x</title>
  <path
     d="m 0,29.61378 c 2,-3 3.79,-5.75 5.62,-8.5 4,-6 8,-11.9999999 12,-18.0599999 a 6,6 0 0 1 5.39,-3.00000002 c 3.71,0.05 7.42,0 11.27,0 V 2.7937801 l 0.22,0.23 c 2.36,-3.29000002 5.78,-3.05000002 9.15,-3.00000002 3.8,0.05 7.6,0 11.4,0.05 0.35,0 0.7,0 1.12,0.07 V 29.49378 H 45.38 V 8.2937801 a 2.49,2.49 0 0 0 -2.67,1.1 C 42.02,10.27378 41.42,11.22378 40.82,12.16378 c -3.61,5.56 -7.2,11.14 -10.83,16.69 a 1.61,1.61 0 0 1 -1.07,0.74 c -3.43,0 -6.87,0 -10.31,0 a 2.34,2.34 0 0 1 -0.54,-0.22 l 14,-21.3199999 -0.13,-0.39 a 33.89,33.89 0 0 0 -5.16,0.44 4.27,4.27 0 0 0 -2.24,1.81 C 20.39,16.12378 16.31,22.38378 12.24,28.64378 a 1.79,1.79 0 0 1 -1.73,1 c -3.43,-0.06 -6.83,-0.03 -10.51,-0.03 z"
     id="path4"
     inkscape:connector-curvature="0"
     style="fill:#ffffff" />
  <path
     d="m 151.59,77.23378 a 9.07,9.07 0 0 1 -0.2,-1.27 c 0,-2.67 0,-5.35 0,-8 0,-0.8 -0.19,-1.16 -1.06,-1.14 -1.82,0 -3.65,0 -5.66,0 0,1.29 0,2.39 0,3.49 0,0.35 -0.36,1 -0.57,1 -2.06,0.07 -4.13,0 -6.3,0 v -3.66 c 0,-3.6 0,-7.2 0,-10.8 0,-1.07 0.34,-1.41 1.34,-1.39 1.6,0 3.2,0 4.79,0.06 0.29,0 0.75,0.54 0.78,0.86 0.1,1 0,2.07 0,3.45 h 4.17 c 2.53,0 2.53,0 2.53,-2.56 0,-2.08 0,-4.16 0,-6.24 0,-0.94 -0.26,-1.27 -1.2,-1.26 -5.55,0.09 -11.11,0.14 -16.66,0.2 h -0.63 c 0.3,-0.35 0.46,-0.56 0.65,-0.74 7.16,-6.62 15.15,-11.9 24.57,-14.71 3.71,-1.11 7.51,-1.74 11.36,-0.83 a 32.52,32.52 0 0 1 4.07,1.57 l 0.17,0.52 a 13.71,13.71 0 0 0 -1.22,0.9 q -9.13,8.32 -18.24,16.66 a 1.75,1.75 0 0 0 -0.55,2.16 l 22.05,-16.08 0.45,0.47 a 5.79,5.79 0 0 0 -1.12,0.63 q -9.92,9 -19.8,18 a 27,27 0 0 0 -2,2.17 l 0.38,0.38 22,-15.3 0.25,0.28 c -0.33,0.25 -0.69,0.48 -1,0.76 q -10.34,9.21 -20.66,18.46 a 7.09,7.09 0 0 0 -1,1.63 l 0.39,0.32 19.69,-14.12 0.21,0.21 c -0.36,0.38 -0.68,0.78 -1.07,1.13 q -9.09,8.28 -18.19,16.55 a 7.86,7.86 0 0 0 -1,1.29 l 0.38,0.38 q 6.39,-4.62 12.76,-9.26 l 0.22,0.24 a 59.12,59.12 0 0 1 -4.08,4.28 c -3.47,3 -7.06,5.89 -10.59,8.82 a 5.67,5.67 0 0 0 -0.5,0.48 z"
     id="path6"
     inkscape:connector-curvature="0"
     style="fill:#ffffff" />
  <path
     d="m 121.83,23.59378 v -5.68 h -7.09 c 1.47,-2.19 2.76,-4.14 4.08,-6.06 a 0.84,0.84 0 0 1 0.62,-0.25 h 12.42 v 18 c -0.43,0 -0.85,0.08 -1.27,0.08 h -29.87 c -0.48,0 -1,0 -1.43,-0.07 -2.49,-0.09 -3,-0.67 -3,-3.2 0,-5.28 -0.05,-10.55 0,-15.83 a 4.4,4.4 0 0 1 0.68,-2.1899999 c 1.52,-2.4 3.16,-4.72 4.71,-7.09 a 2.34,2.34 0 0 1 2.07,-1.19000002 h 25.74 a 4.07,4.07 0 0 1 0.51,0.07 V 6.0437801 h -20.87 c -1.75,0 -2.5,0.7 -2.53,2.54 -0.05,3.9999999 0,7.9999999 -0.05,11.9999999 a 11,11 0 0 0 0.05,2.15 c 0.06,0.33 0.55,0.82 0.85,0.82 4.75,0.05 9.51,0.04 14.38,0.04 z"
     id="path8"
     inkscape:connector-curvature="0"
     style="fill:#ffffff" />
  <path
     d="m 59.48,29.35378 c 0,-0.49 -0.06,-0.92 -0.06,-1.35 0,-5.8 0,-11.6 0,-17.4 a 4.32,4.32 0 0 1 0.62,-2.0999999 c 1.49,-2.42 3.09,-4.76 4.63,-7.15 a 2.27,2.27 0 0 1 2,-1.25000002 c 8.52,0 17,0 25.55,0 a 5.15,5.15 0 0 1 0.56,0.06 V 6.0337801 h -20 a 2,2 0 0 0 -2.07,1.84 c -0.07,1.18 0,2.3799999 0,3.6899999 h 22.24 c -1.4,2.12 -2.64,4.06 -4,5.93 -0.2,0.29 -0.83,0.39 -1.27,0.4 -5.11,0 -10.23,0 -15.35,0 h -1.52 v 5.65 h 22 v 5.78 z"
     id="path10"
     inkscape:connector-curvature="0"
     style="fill:#ffffff" />
  <path
     d="m 145.94,18.86378 v 10.64 c -0.39,0 -0.74,0.07 -1.08,0.07 -2.56,0 -5.12,0 -7.68,0 -1,0 -1.42,-0.29 -1.39,-1.36 0.08,-2.35 0.05,-4.71 0.06,-7.07 V 0.14378008 c 0.4,0 0.75,-0.08 1.09,-0.08 5.76,0 11.52,0 17.28,0 a 2,2 0 0 1 1.82,0.89 L 176.17,29.00378 a 3.48,3.48 0 0 1 0.28,0.54 c -2.36,0 -4.6,-0.16 -6.8,0 a 4.2,4.2 0 0 1 -4.58,-2.3 c -0.73,-1.31 -1.56,-2.9 -2.77,-3.52 -1.21,-0.62 -3,-0.18 -4.49,-0.19 -2.36,0 -4.72,0 -7.07,0 a 2.13,2.13 0 0 1 -1.36,-0.69 c -1.11,-1.34 -2.12,-2.76 -3.18,-4.15 z m 11.84,-1.06 a 1.85,1.85 0 0 0 -0.17,-0.42 c -2.63,-3.6 -5.25,-7.21 -7.91,-10.7999999 a 1.3,1.3 0 0 0 -0.85,-0.5 c -0.9,-0.07 -1.81,0 -2.8,0 V 17.83378 Z"
     id="path12"
     inkscape:connector-curvature="0"
     style="fill:#ffffff" />
  <path
     d="m 170.47,64.88378 c 1.47,-1.35 2.81,-2.61 4.18,-3.82 5,-4.48 10.11,-9 15.21,-13.41 a 2.4,2.4 0 0 0 0.84,-2.75 l -22.67,16.59 -0.21,-0.25 c 0.23,-0.24 0.45,-0.49 0.69,-0.71 q 10.77,-9.73 21.57,-19.44 a 1.87,1.87 0 0 0 0.63,-2.16 l -22.43,16.11 -0.24,-0.26 c 0.52,-0.5 1,-1 1.56,-1.48 q 10.23,-9 20.44,-18 a 6.57,6.57 0 0 0 1,-1.65 l -0.46,-0.41 -19.77,14.25 -0.25,-0.24 a 18.9,18.9 0 0 1 1.57,-1.77 q 8.93,-7.83 17.86,-15.65 a 7.15,7.15 0 0 0 1.06,-1.63 l -0.46,-0.41 -12.65,9.4 c 0.61,-2.21 10.45,-11.09 14.76,-13.43 v 3.51 c 0,7.4 0,14.8 0,22.2 0,1.13 0.28,1.51 1.46,1.5 4.92,-0.07 9.84,0 14.76,0 0.72,0 1.43,-0.07 2.22,-0.11 a 2.62,2.62 0 0 1 -0.38,0.56 c -7.42,6.89 -15.69,12.37 -25.57,15.07 -3.5,1 -7.06,1.47 -10.66,0.53 a 7.86,7.86 0 0 1 -4.06,-2.14 z"
     id="path14"
     inkscape:connector-curvature="0"
     style="fill:#ffffff" />
  <path
     d="m 151.59,77.23378 c -0.82,0.48 -1.65,0.94 -2.47,1.43 -5.21,3.11 -10.63,5.75 -16.69,6.68 a 26.12,26.12 0 0 1 -6.67,0.15 c -5.53,-0.63 -8.57,-4.64 -8,-10.22 a 25,25 0 0 1 2.36,-8.38 51.75,51.75 0 0 1 9.92,-14.12 c 0,0.46 0.12,0.75 0.12,1 0,5.68 0,11.36 0,17 a 11.9,11.9 0 0 0 0.21,2.38 4.67,4.67 0 0 0 4.77,3.88 h 15.03 c 0.47,0 1,0.09 1.42,0.13 z"
     id="path16"
     inkscape:connector-curvature="0"
     style="fill:#ffffff" />
  <path
     d="m 214.42,47.81378 v -4.81 c 0,-4.68 0,-9.36 0,-14 0,-3.54 -2,-5.46 -5.54,-5.46 h -15.6 c 0.1,-0.21 0.12,-0.34 0.19,-0.38 5.72,-3.69 11.74,-6.71 18.54,-7.78 a 22.46,22.46 0 0 1 6,-0.18 c 6.18,0.68 9.26,4.81 8.46,11 a 27.35,27.35 0 0 1 -2.87,8.85 53.79,53.79 0 0 1 -9.18,12.76 z"
     id="path18"
     inkscape:connector-curvature="0"
     style="fill:#ffffff" />
  <path
     d="m 200.14,37.17378 c 0,-2.19 0.06,-4.39 0,-6.58 0,-1.14 0.38,-1.45 1.44,-1.38 a 21.52,21.52 0 0 0 3.59,0 c 1,-0.1 1.33,0.31 1.33,1.27 0,3.91 0,7.82 0,11.73 0,3 0,3 -3,3 -3.32,0 -3.32,0 -3.32,-3.37 v -4.67 z"
     id="path20"
     inkscape:connector-curvature="0"
     style="fill:#ffffff" />
</svg>
