<?xml version="1.0" encoding="UTF-8" standalone="no"?>
<svg
   xmlns:dc="http://purl.org/dc/elements/1.1/"
   xmlns:cc="http://creativecommons.org/ns#"
   xmlns:rdf="http://www.w3.org/1999/02/22-rdf-syntax-ns#"
   xmlns:svg="http://www.w3.org/2000/svg"
   xmlns="http://www.w3.org/2000/svg"
   xmlns:sodipodi="http://sodipodi.sourceforge.net/DTD/sodipodi-0.dtd"
   xmlns:inkscape="http://www.inkscape.org/namespaces/inkscape"
   id="Warstwa_1"
   data-name="Warstwa 1"
   viewBox="0 0 263.21976 64.81801"
   version="1.1"
   sodipodi:docname="megadrive.svg"
   width="263.21976"
   height="64.818008"
   inkscape:version="0.92.5 (2060ec1f9f, 2020-04-08)">
  <metadata
     id="metadata73">
    <rdf:RDF>
      <cc:Work
         rdf:about="">
        <dc:format>image/svg+xml</dc:format>
        <dc:type
           rdf:resource="http://purl.org/dc/dcmitype/StillImage" />
      </cc:Work>
    </rdf:RDF>
  </metadata>
  <defs
     id="defs71" />
  <sodipodi:namedview
     pagecolor="#ffffff"
     bordercolor="#666666"
     borderopacity="1"
     objecttolerance="10"
     gridtolerance="10"
     guidetolerance="10"
     inkscape:pageopacity="0"
     inkscape:pageshadow="2"
     inkscape:window-width="532"
     inkscape:window-height="460"
     id="namedview69"
     showgrid="false"
     inkscape:zoom="1.4552778"
     inkscape:cx="131.63"
     inkscape:cy="32.405287"
     inkscape:window-x="72"
     inkscape:window-y="27"
     inkscape:window-maximized="0"
     inkscape:current-layer="Warstwa_1" />
  <title
     id="title2">megadrive</title>
  <path
     d="m 162.74,39.272718 v -16.83 h -11.23 v -6.23 h 17.54 v 24 l 0.3,0.06 c 0.42,-1.2 0.86,-2.4 1.27,-3.61 q 5.06,-14.91 10.11,-29.8199996 a 10,10 0 0 1 19,0.07 Q 206,25.532718 212.29,44.132718 c 0.15,0.45 0.28,0.9 0.44,1.44 H 187.6 v -6.16 h 16.5 c -0.69,-2 -1.31,-3.91 -1.95,-5.79 L 193.54,8.2127184 a 3.4,3.4 0 0 0 -4.5,-2.39 3.76,3.76 0 0 0 -2.26,2.62 l -8.46,25.0799996 c -1.36,4 -2.73,8 -4.11,12.09 h -25.07 c -7.5,0 -12.85,-4.88 -13.08,-12.37 -0.21,-7 -0.16,-13.92 0.05,-20.87 A 12.11,12.11 0 0 1 147.85,0.79271835 c 6.88,-0.15 13.76,0 20.64,0 a 3.16,3.16 0 0 1 0.52,0.08 V 7.0427184 h -19.87 c -4.19,0 -6.81,2.62 -6.81,6.8099996 v 19 a 6.29,6.29 0 0 0 6.56,6.57 h 12.72 c 0.35,-0.08 0.7,-0.12 1.13,-0.15 z"
     id="path4"
     inkscape:connector-curvature="0"
     style="fill:#ffffff" />
  <path
     d="m 62.74,37.922718 v -6.26 h 18.6 a 2.3,2.3 0 0 0 0.95,0 4.2,4.2 0 0 0 0.85,-0.79 c -0.29,-0.21 -0.57,-0.59 -0.87,-0.6 -1.64,-0.06 -3.28,0 -4.92,0 A 14.7,14.7 0 0 1 71.25,2.1927184 15.09,15.09 0 0 1 76.79,0.87271835 c 6.59,-0.16 13.19,-0.06 19.79,-0.06 a 5,5 0 0 1 0.55,0.06 V 7.0627184 c -0.46,0 -0.93,0.08 -1.39,0.08 -6.11,0 -12.23,0 -18.35,0 a 8.38,8.38 0 0 0 -2.06,16.5099996 35,35 0 0 0 5.72,0.32 18.26,18.26 0 0 1 3.33,0.27 7,7 0 0 1 -1.75,13.72 c -4.28,0.08 -8.56,0 -12.84,0 z"
     id="path6"
     inkscape:connector-curvature="0"
     style="fill:#ffffff" />
  <path
     d="m 62.74,45.612718 v -6.34 h 1.47 c 6.12,0 12.24,0 18.36,0 a 8.36,8.36 0 0 0 1.57,-16.57 46.23,46.23 0 0 0 -6.46,-0.17 6.91,6.91 0 0 1 -5.9,-2.88 6.77,6.77 0 0 1 -0.71,-7.15 6.43,6.43 0 0 1 6,-3.9999996 c 6.59,-0.11 13.19,0 19.79,0 a 1.27,1.27 0 0 1 0.3,0.11 V 14.762718 H 78.34 a 3.15,3.15 0 0 0 -1.07,0.05 1.16,1.16 0 0 0 -0.61,0.73 c 0,0.16 0.34,0.56 0.57,0.6 a 10.69,10.69 0 0 0 1.79,0.1 c 2.79,0 5.58,-0.18 8.31,0.77 a 14.73,14.73 0 0 1 9.77,15.6 c -1.06,7.4 -6.74,12.82 -13.91,13 -6.79,0.12 -13.59,0 -20.45,0 z"
     id="path8"
     inkscape:connector-curvature="0"
     style="fill:#ffffff" />
  <path
     d="M 133.67,0.74271835 V 7.0027184 h -20.52 c -4.21,0 -6.82,2.6 -6.82,6.7899996 v 18.95 a 6.25,6.25 0 0 0 6.63,6.6 h 20.6 v 6.26 h -20.82 a 12.41,12.41 0 0 1 -12.63,-12.59 q 0,-9.84 0,-19.67 A 12.41,12.41 0 0 1 112.74,0.74271835 h 21 z"
     id="path10"
     inkscape:connector-curvature="0"
     style="fill:#ffffff" />
  <path
     d="m 202.06,37.862718 h -14.53 v -4.46 l -0.25,-0.06 c -0.26,0.73 -0.53,1.45 -0.78,2.18 -1,3.06 -2.09,6.12 -3.09,9.19 a 1.08,1.08 0 0 1 -1.25,0.91 c -2.11,-0.05 -4.22,0 -6.45,0 1.31,-3.87 2.57,-7.61 3.84,-11.34 q 4.31,-12.77 8.63,-25.5299996 a 2.13,2.13 0 0 1 2,-1.74 2.09,2.09 0 0 1 2.11,1.78 c 0,0.11 0.09,0.22 0.13,0.33 l 5.79,17.2599996 q 1.74,5.17 3.47,10.33 c 0.15,0.36 0.25,0.74 0.38,1.15 z m -11.82,-13.37 -2.15,6.44 h 4.29 c -0.7,-2.09 -1.36,-4.08 -2.14,-6.44 z"
     id="path12"
     inkscape:connector-curvature="0"
     style="fill:#ffffff" />
  <path
     d="m 155.05,31.662718 v -1.45 h -3.53 v -6.34 h 9.8 v 14 c -0.35,0 -0.66,0.07 -1,0.07 -3.8,0 -7.6,0 -11.4,0 -3.2,0 -5.18,-2 -5.19,-5.15 q 0,-9.6 0,-19.2 c 0,-3.19 2,-5.1099996 5.2,-5.1099996 h 20 v 6.2899996 h -16.72 c -1.85,0 -2.19,0.33 -2.2,2.15 v 12.59 c 0,1.64 0.51,2.15 2.14,2.17 0.92,-0.01 1.83,-0.02 2.9,-0.02 z"
     id="path14"
     inkscape:connector-curvature="0"
     style="fill:#ffffff" />
  <path
     d="m 133.67,8.6027184 v 6.1499996 h -1.45 c -5.43,0 -10.87,0 -16.3,0 -0.92,0 -1.66,0.16 -1.87,1.39 h 1.35 c 4.24,0 8.47,0 12.71,0 0.91,0 1.18,0.27 1.15,1.16 -0.06,1.66 0,3.33 0,5.07 h -21.47 v -6.58 c 0,-0.92 0,-1.84 0,-2.76 a 4.67,4.67 0 0 1 4.42,-4.5299996 c 7,0 14.07,0 21.1,0 a 1.55,1.55 0 0 1 0.36,0.1 z"
     id="path16"
     inkscape:connector-curvature="0"
     style="fill:#ffffff" />
  <path
     d="m 107.79,23.962718 h 21.35 v 6.19 h -15 l -0.22,0.33 a 5.14,5.14 0 0 0 1.14,1 3.27,3.27 0 0 0 1.41,0.16 h 17.07 v 6.22 h -20.4 c -3.52,0 -5.39,-1.88 -5.39,-5.41 z"
     id="path18"
     inkscape:connector-curvature="0"
     style="fill:#ffffff" />
  <path
     d="m 65.68,53.742718 h 6.38 c 0,1.6 0,3.14 0,4.68 0,2.15 0.37,2.53 2.49,2.53 h 9.47 a 2.74,2.74 0 0 0 1.39,-0.23 c 0.4,-0.26 0.87,-0.83 0.82,-1.21 a 1.48,1.48 0 0 0 -1.13,-0.89 c -2.11,-0.09 -4.23,0 -6.35,-0.05 h -1.41 v -3.26 c 0.4,0 0.82,-0.05 1.24,-0.05 h 9.47 c 3.13,0 4.79,1.49 4.88,4.34 a 4.54,4.54 0 0 1 -4.61,5 c -2,0.11 -3.92,0.05 -5.87,0.05 -3.72,0 -7.44,0 -11.15,0 a 11.84,11.84 0 0 1 -2.72,-0.33 3.48,3.48 0 0 1 -2.88,-3.4 c -0.08,-2.36 -0.02,-4.71 -0.02,-7.18 z"
     id="path20"
     inkscape:connector-curvature="0"
     style="fill:#ffffff" />
  <path
     d="m 240.01,53.542718 c 2.13,0 4,0 5.88,0 0.2,0 0.52,0.12 0.58,0.28 0.5,1.11 1.48,1.08 2.45,1.08 l 11.27,0.06 h 1.38 v 3.34 H 248.5 a 2.53,2.53 0 0 0 -1.18,0.08 c -0.4,0.24 -0.89,0.7 -0.91,1.09 -0.02,0.39 0.49,0.82 0.87,1 a 2.72,2.72 0 0 0 1.29,0.17 c 4.44,0 8.87,0.06 13.31,0 1,0 1.41,0.22 1.33,1.33 -0.17,2.45 -0.12,2.46 -2.57,2.47 -5,0 -10.07,0 -15.11,0 a 5.21,5.21 0 0 1 -5.52,-5.46 c -0.01,-1.69 0,-3.48 0,-5.44 z"
     id="path22"
     inkscape:connector-curvature="0"
     style="fill:#ffffff" />
  <path
     d="m 45.67,58.532718 c -0.26,1.74 0.15,2.26 1.77,2.28 4.4,0.07 8.8,0.11 13.19,0.16 h 1.51 v 3.51 c -0.32,0 -0.67,0.06 -1,0.06 -5.6,0 -11.2,-0.07 -16.79,-0.14 -3.65,0 -5.26,-1.7 -5.25,-5.32 v -5.51 c 2,0 3.9,0 5.77,0 a 0.82,0.82 0 0 1 0.58,0.44 c 0.3,1.07 1.09,1.26 2,1.26 h 12.72 c 0.23,0 0.47,0 0.81,0.06 v 3.18 z"
     id="path24"
     inkscape:connector-curvature="0"
     style="fill:#ffffff" />
  <path
     d="m 222.74,59.802718 c 0.73,-1 1.29,-1.73 1.84,-2.49 0.88,-1.24 1.5,-3 2.69,-3.58 1.19,-0.58 3,-0.17 4.47,-0.18 h 2.49 c -0.28,0.51 -0.42,0.81 -0.6,1.09 -2.1,3.06 -4.17,6.14 -6.33,9.16 a 2.23,2.23 0 0 1 -1.53,0.81 c -2.07,0.09 -4.15,0.07 -6.23,0 a 1.77,1.77 0 0 1 -1.31,-0.54 c -2.19,-3.38 -4.3,-6.81 -6.62,-10.5 a 22.25,22.25 0 0 0 3.49,0 c 2.6,-0.44 4.28,0.55 5.39,2.9 a 29.3,29.3 0 0 0 2.25,3.33 z"
     id="path26"
     inkscape:connector-curvature="0"
     style="fill:#ffffff" />
  <path
     d="m 122.3,64.562718 h -6.56 l -0.15,-3.14 H 104 v -4.51 h 11.67 v -3.23 h 6.63 z"
     id="path28"
     inkscape:connector-curvature="0"
     style="fill:#ffffff" />
  <path
     d="m 177.02,56.892718 h 8.72 c 2.34,0 2.69,-0.34 2.83,-2.66 a 4.59,4.59 0 0 1 0.08,-0.53 h 6.83 c 0.35,2.63 -0.24,4.76 -2.63,6.29 l 4.46,4.31 -0.2,0.36 c -0.37,0 -0.75,0.06 -1.12,0.06 a 19.24,19.24 0 0 0 -2.4,0 c -3,0.39 -5.45,-0.38 -7.24,-3 a 1.82,1.82 0 0 0 -1.34,-0.51 c -2.64,0 -5.27,0 -8,0 z"
     id="path30"
     inkscape:connector-curvature="0"
     style="fill:#ffffff" />
  <path
     d="m 0.08,52.302718 c 0,-1 0,-1.95 0,-2.89 0,-0.23 0.39,-0.49 0.66,-0.62 a 1.67,1.67 0 0 1 0.71,0 q 13.85,0 27.69,0 a 20.26,20.26 0 0 1 3.22,0.2 3.27,3.27 0 0 1 2.84,3.3 z"
     id="path32"
     inkscape:connector-curvature="0"
     style="fill:#ffffff" />
  <path
     d="m 164.44,53.662718 a 75.05,75.05 0 0 1 -0.06,7.52 3.91,3.91 0 0 1 -3.84,3.52 c -5.1,0.09 -10.21,0 -15.41,0 v -3.76 h 2.54 c 2.79,0 5.59,0 8.38,0 1.71,0 2.24,-0.53 2.27,-2.21 0.03,-1.68 0,-3.33 0,-5.07 z"
     id="path34"
     inkscape:connector-curvature="0"
     style="fill:#ffffff" />
  <path
     d="M 164.18,52.492718 H 137.8 v -3.65 h 20.17 a 19.67,19.67 0 0 1 2.87,0.18 4.12,4.12 0 0 1 3.34,3.47 z"
     id="path36"
     inkscape:connector-curvature="0"
     style="fill:#ffffff" />
  <path
     d="m 66.07,52.482718 a 3.61,3.61 0 0 1 3.11,-3.46 15.71,15.71 0 0 1 2.74,-0.18 c 6.28,0 12.55,0.05 18.83,0.08 a 8,8 0 0 1 0.87,0.09 v 3.47 z"
     id="path38"
     inkscape:connector-curvature="0"
     style="fill:#ffffff" />
  <path
     d="m 195.09,52.462718 h -25.73 a 4.33,4.33 0 0 1 3.83,-3.5 c 1.27,-0.13 2.56,-0.11 3.84,-0.12 4.43,0 8.87,0 13.3,0 a 4.62,4.62 0 0 1 4.76,3.62 z"
     id="path40"
     inkscape:connector-curvature="0"
     style="fill:#ffffff" />
  <path
     d="m 96.56,52.492718 a 3.72,3.72 0 0 1 3.81,-3.56 c 3.27,-0.1 6.54,-0.09 9.82,-0.1 2.51,0 5,0 7.54,0.09 a 4.46,4.46 0 0 1 4.14,3.57 z"
     id="path42"
     inkscape:connector-curvature="0"
     style="fill:#ffffff" />
  <path
     d="m 240.08,52.212718 v -3.33 h 22.89 v 3.33 z"
     id="path44"
     inkscape:connector-curvature="0"
     style="fill:#ffffff" />
  <path
     d="m 39.24,52.372718 c -0.34,-3.53 -0.34,-3.51 3,-3.5 6.15,0 12.3,0 18.45,0 h 1.52 v 3.45 z"
     id="path46"
     inkscape:connector-curvature="0"
     style="fill:#ffffff" />
  <path
     d="m 168.82,64.512718 c 0,-3.54 0,-6.92 0,-10.31 a 0.92,0.92 0 0 1 0.68,-0.58 c 2,-0.05 4,0 6,0 v 10.89 z"
     id="path48"
     inkscape:connector-curvature="0"
     style="fill:#ffffff" />
  <path
     d="m 199.37,64.532718 v -10.95 h 6.53 v 10.95 z"
     id="path50"
     inkscape:connector-curvature="0"
     style="fill:#ffffff" />
  <path
     d="m 102.74,64.522718 c -2,0 -3.81,0 -5.64,0 -0.26,0 -0.73,-0.33 -0.74,-0.51 0,-3.42 0,-6.85 0,-10.3 h 6.38 z"
     id="path52"
     inkscape:connector-curvature="0"
     style="fill:#ffffff" />
  <path
     d="m 14.43,53.552718 h 6.22 v 10.66 h -6.22 z"
     id="path54"
     inkscape:connector-curvature="0"
     style="fill:#ffffff" />
  <path
     d="m 35.21,53.662718 v 10.64 h -6 v -10.64 z"
     id="path56"
     inkscape:connector-curvature="0"
     style="fill:#ffffff" />
  <path
     d="m 143.81,64.552718 h -6 v -10.82 h 6 z"
     id="path58"
     inkscape:connector-curvature="0"
     style="fill:#ffffff" />
  <path
     d="M 6,64.212718 H 0 c 0,-3.43 0,-6.69 0,-10 a 0.9,0.9 0 0 1 0.61,-0.64 c 1.75,-0.05 3.5,0 5.32,0 z"
     id="path60"
     inkscape:connector-curvature="0"
     style="fill:#ffffff" />
  <path
     d="m 228.05,52.132718 c 0.65,-1 1.29,-2 2,-3 a 1,1 0 0 1 0.67,-0.39 c 2.17,0 4.35,0 6.88,0 -0.93,1.34 -1.65,2.41 -2.4,3.46 a 0.87,0.87 0 0 1 -0.6,0.3 c -2.15,0 -4.29,0 -6.44,0 z"
     id="path62"
     inkscape:connector-curvature="0"
     style="fill:#ffffff" />
  <path
     d="m 208.61,48.792718 c 2.19,0 4.06,0 5.93,0 a 1.24,1.24 0 0 1 0.9,0.42 c 0.71,1 1.35,2 2.12,3.22 -2.21,0 -4.22,0 -6.23,0 a 0.86,0.86 0 0 1 -0.58,-0.34 c -0.68,-1 -1.33,-2.04 -2.14,-3.3 z"
     id="path64"
     inkscape:connector-curvature="0"
     style="fill:#ffffff" />
  <path
     d="m 199.48,52.382718 v -3.51 h 6.4 v 3.51 z"
     id="path66"
     inkscape:connector-curvature="0"
     style="fill:#ffffff" />
</svg>
