<?xml version="1.0" encoding="UTF-8" standalone="no"?>
<svg
   xmlns:dc="http://purl.org/dc/elements/1.1/"
   xmlns:cc="http://creativecommons.org/ns#"
   xmlns:rdf="http://www.w3.org/1999/02/22-rdf-syntax-ns#"
   xmlns:svg="http://www.w3.org/2000/svg"
   xmlns="http://www.w3.org/2000/svg"
   xmlns:sodipodi="http://sodipodi.sourceforge.net/DTD/sodipodi-0.dtd"
   xmlns:inkscape="http://www.inkscape.org/namespaces/inkscape"
   id="Warstwa_1"
   data-name="Warstwa 1"
   viewBox="0 0 429.93938 88.740011"
   version="1.1"
   sodipodi:docname="megaduck.svg"
   width="429.93939"
   height="88.740013"
   inkscape:version="0.92.5 (2060ec1f9f, 2020-04-08)">
  <metadata
     id="metadata25">
    <rdf:RDF>
      <cc:Work
         rdf:about="">
        <dc:format>image/svg+xml</dc:format>
        <dc:type
           rdf:resource="http://purl.org/dc/dcmitype/StillImage" />
      </cc:Work>
    </rdf:RDF>
  </metadata>
  <defs
     id="defs23" />
  <sodipodi:namedview
     pagecolor="#ffffff"
     bordercolor="#666666"
     borderopacity="1"
     objecttolerance="10"
     gridtolerance="10"
     guidetolerance="10"
     inkscape:pageopacity="0"
     inkscape:pageshadow="2"
     inkscape:window-width="532"
     inkscape:window-height="460"
     id="namedview21"
     showgrid="false"
     inkscape:zoom="0.89073908"
     inkscape:cx="214.94999"
     inkscape:cy="44.360016"
     inkscape:window-x="72"
     inkscape:window-y="27"
     inkscape:window-maximized="0"
     inkscape:current-layer="Warstwa_1" />
  <title
     id="title2">megaduck</title>
  <path
     d="m 65.059982,0 c 0.91,0.11 1.83,0.16 2.72,0.34 2.3,0.44 3.45,1.72 3.49,4.31 0,3.23 -0.08,6.47 -0.28,9.7 a 98.58,98.58 0 0 0 0,16.39 128.52,128.52 0 0 1 0.51,13.17 c 0,7.87 -0.15,15.75 -0.26,23.62 a 27.18,27.18 0 0 1 -0.24,3 3.53,3.53 0 0 1 -3.44,3.09 3.26,3.26 0 0 1 -3.6,-2.65 83.26,83.26 0 0 1 -1,-8.32 c -0.8,-12.2 -1.48,-24.41 -2.28,-36.61 -0.23,-3.62 -0.69,-7.24 -1.13,-10.84 -0.13,-1 -0.19,-2.35 -1.59,-2.51 -1.4,-0.16 -1.85,1 -2.26,2 -1.7,3.92 -3.4,7.84 -4.91,11.84 -4,10.56 -8,21.13 -11.76,31.78 a 25.24,25.24 0 0 1 -7.53,11.17 c -3.06,2.59 -5.87,1.86 -7.24,-1.95 -0.53,-1.48 -0.48,-3.15 -0.85,-4.69 q -2.59,-10.71 -5.29,-21.39 c -0.76,-3 -1.62,-6 -2.51,-9 a 11.47,11.47 0 0 0 -1.23,-2.71 c -0.23,-0.36 -0.81,-0.51 -1.22,-0.76 a 3.8,3.8 0 0 0 -0.57,1.21 c -0.3,3.67 -0.62,7.33 -0.79,11 -0.36,7.54 -0.62,15.09 -0.95,22.64 -0.06,1.35 -0.22,2.7 -0.41,4.05 a 2.29,2.29 0 0 1 -2.6899998,2.21 c -2.46,-0.07 -5.83,-2.63 -6.2,-5.06 a 89.5,89.5 0 0 1 -0.93,-9.65 c -0.3,-7.11 -0.61,-14.22 -0.61,-21.33 a 159.66,159.66 0 0 1 1.7,-25.09 8.08,8.08 0 0 1 5.7,-6.84 24.63,24.63 0 0 1 9.9999998,-1.15 2.45,2.45 0 0 1 2.26,2.15 c 0.55,2.33 1,4.69 1.47,7 a 209,209 0 0 0 9.34,32.58 25.71,25.71 0 0 0 1.13,2.37 5.8,5.8 0 0 0 0.65,0.78 21.4,21.4 0 0 0 1.43,-2.52 c 2.93,-7.34 5.94,-14.64 7.64,-22.42 a 42.52,42.52 0 0 1 7,-15.52 c 2.35,-3.34 5.39,-5.22 9.58,-5.12 2,0 4,-0.17 6,-0.27 z"
     id="path4"
     inkscape:connector-curvature="0"
     style="fill:#ffffff" />
  <path
     d="m 283.46998,40.7 c -0.33,3.62 -0.56,7.24 -1,10.84 a 10.14,10.14 0 0 1 -4.09,6.81 44.56,44.56 0 0 1 -12.31,6.85 c -9.82,3.64 -19.36,7.91 -28.77,12.5 -2.18,1.07 -4.49,1.88 -6.76,2.75 a 7,7 0 0 1 -2,0.41 c -1.73,0.11 -2.5,-0.57 -2.43,-2.3 0.11,-2.87 0.19,-5.76 0.57,-8.61 1.55,-11.6 3.21,-23.19 4.85,-34.77 a 17.38,17.38 0 0 0 -0.59,-8.16 15.39,15.39 0 0 1 -0.07,-9.56 c 1,-3.38 4.55,-4.22 6.76,-1.47 3.43,4.28 5.72,9.1 5.14,14.78 -0.9,8.78 -1.94,17.54 -2.88,26.32 a 26.84,26.84 0 0 0 -0.12,4.3 1.63,1.63 0 0 0 2.09,1.71 11.45,11.45 0 0 0 2.78,-0.7 106.34,106.34 0 0 0 21.37,-11.56 c 4.4,-3 5.64,-7.32 5.33,-12.33 -0.05,-0.92 -0.11,-1.83 -0.14,-2.75 a 13.74,13.74 0 0 0 -2.6,-8.09 c -2.05,-2.7 -4.14,-5.38 -6.33,-8 a 11.84,11.84 0 0 0 -5.62,-3.52 104.49,104.49 0 0 0 -19.09,-4 45.55,45.55 0 0 1 -5.4,-1 4.62,4.62 0 0 1 -2,-1.17 11.58,11.58 0 0 1 -3.28,-7.41 c -0.13,-1.83 0.36,-2.45 2.16,-2.31 a 83.15,83.15 0 0 1 10,1.21 c 8.72,1.78 17.41,3.7 26.09,5.69 8.93,2 14,8 16.2,16.62 1.36,5.56 1.61,11.23 2.14,16.92 z"
     id="path6"
     inkscape:connector-curvature="0"
     style="fill:#ffffff" />
  <path
     d="m 157.59998,44.84 c -0.37,8.14 -0.72,16.28 -1.12,24.42 -0.09,1.8 -0.3,3.59 -0.51,5.37 -0.47,3.89 -2.8,6.53 -5.92,8.59 a 32.85,32.85 0 0 1 -12.62,4.6 68.13,68.13 0 0 1 -20.9,0.22 10.59,10.59 0 0 1 -2.85,-0.83 2.9,2.9 0 0 1 -1.85,-3.06 c 0.09,-1.34 1,-1.92 2.12,-2.32 a 19.27,19.27 0 0 1 8.05,-0.86 c 4.27,0.26 8.53,0.67 12.76,-0.35 5.09,-1.23 8.62,-4.06 9.63,-9.45 a 0.35,0.35 0 0 1 0,-0.11 c 0.59,-3.05 -0.2,-4 -3.3,-3.93 a 87.28,87.28 0 0 1 -9.57,0 42.23,42.23 0 0 1 -8.5,-1.88 c -7.64,-2.41 -11.64,-10.36 -10.08,-18.26 a 24.24,24.24 0 0 1 7.92,-13.38 38.09,38.09 0 0 1 17.52,-9.45 7.93,7.93 0 0 1 2.38,-0.12 2,2 0 0 1 1.71,3.18 5,5 0 0 1 -1.24,1.6 c -2.66,2.1 -5.33,4.19 -8.08,6.18 a 32.52,32.52 0 0 0 -7.69,7 10.3,10.3 0 0 0 -1.8,8.52 c 0.92,4.33 4.33,6.78 9.35,6.67 a 27.76,27.76 0 0 0 9.43,-2.07 c 3.13,-1.19 3.74,-3.95 4,-6.82 0.32,-3.78 0.45,-7.58 0.76,-11.36 0.39,-4.79 1,-9.54 3.07,-14 a 15.55,15.55 0 0 1 2.06,-3.35 5.48,5.48 0 0 1 5.05,-1.75 c 1,0.09 1.15,0.85 1.13,1.65 -0.07,3.24 -0.11,6.48 -0.24,9.71 -0.2,5.23 -0.46,10.46 -0.69,15.69 z"
     id="path8"
     inkscape:connector-curvature="0"
     style="fill:#ffffff" />
  <path
     d="m 193.79998,21.14 a 39.1,39.1 0 0 1 1.83,-4 18.68,18.68 0 0 1 2.82,-3.82 c 1.82,-1.78 4.19,-1 4.54,1.46 a 82.3,82.3 0 0 1 0.75,9.54 c 0.2,8.2 0.17,16.39 0.42,24.58 0.16,5 0.64,10 1.06,14.94 0.12,1.42 0.57,2.81 0.82,4.22 a 3.07,3.07 0 0 1 -1.43,3.2 2.88,2.88 0 0 1 -3.39,0.08 11.37,11.37 0 0 1 -2.71,-2.31 c -1.29,-1.62 -2.38,-3.4 -3.53,-5.12 -0.25,-0.36 -0.42,-0.77 -0.66,-1.14 -1.12,-1.77 -1.26,-1.8 -2.83,-0.38 -0.82,0.75 -1.56,1.6 -2.37,2.37 a 14.37,14.37 0 0 1 -21.53,-1.92 c -3.33,-4.5 -5,-9.69 -6,-15.12 -0.83,-4.43 -1.25,-8.92 0,-13.31 a 20,20 0 0 1 2.85,-6 49,49 0 0 1 6.17,-7.31 c 4.71,-4.47 10.32,-5.07 16.28,-2.94 2.3,0.87 4.49,1.96 6.91,2.98 z m -23.2,24.22 a 35.24,35.24 0 0 0 1.37,6.15 27.47,27.47 0 0 0 3.66,6.39 c 1.48,2 3.24,1.93 5,0.11 a 24.09,24.09 0 0 0 1.92,-2.45 c 5.89,-8.14 8.56,-17.59 11,-27.13 0.36,-1.42 0.26,-1.65 -1.22,-1.74 -3.95,-0.23 -7.9,-0.33 -11.85,-0.47 a 3.22,3.22 0 0 0 -3.06,1.68 30.08,30.08 0 0 1 -2.19,2.86 c -3.14,3.92 -4.46,8.44 -4.63,14.6 z"
     id="path10"
     inkscape:connector-curvature="0"
     style="fill:#ffffff" />
  <path
     d="m 380.37998,22.97 a 13.09,13.09 0 0 1 2.17,-7.58 7.2,7.2 0 0 1 1.91,-1.94 c 1.43,-1 2.73,-0.44 2.93,1.25 0.47,3.92 0.74,7.87 1.2,11.79 0.38,3.25 0.93,6.48 1.41,9.71 a 2.7,2.7 0 0 0 0.12,0.47 c 1,3.17 1.75,3.69 4.94,2.83 4.09,-1.11 8.11,-2.45 12.18,-3.6 a 14.48,14.48 0 0 1 16.35,7.34 c 1.23,2.5 1.21,4.92 -0.68,7.16 -0.75,0.89 -1.39,1.86 -2.14,2.74 a 1.27,1.27 0 0 0 0.13,2 c 1.92,1.75 3.86,3.49 5.7,5.32 a 19.91,19.91 0 0 1 2.81,3.41 c 1.05,1.67 0.51,2.78 -1.37,3.33 a 8.51,8.51 0 0 1 -5.76,-0.39 c -3.86,-1.62 -7.64,-3.43 -11.49,-5.08 -4.59,-2 -9.17,-3.93 -13.82,-5.72 -3.06,-1.18 -4.34,-0.4 -5,2.83 -0.33,1.64 -0.25,3.35 -0.56,5 a 9,9 0 0 1 -1.22,3.32 3.62,3.62 0 0 1 -2.23,1.34 c -2.17,0.35 -3.21,-0.52 -3.44,-2.72 -0.52,-5.13 -1,-10.26 -1.46,-15.39 -0.85,-8.59 -1.73,-17.17 -2.59,-25.76 -0.09,-0.61 -0.09,-1.25 -0.09,-1.66 z m 27.42,26.87 a 8.67,8.67 0 0 0 6.07,-2.35 c 1.12,-1 1.13,-1.23 -0.06,-2.19 -2.53,-2 -8.44,-2.06 -11.48,0.08 a 2.77,2.77 0 0 0 -1.19,2 c 0,0.54 0.94,1.3 1.59,1.48 1.88,0.48 3.82,0.75 5.07,0.98 z"
     id="path12"
     inkscape:connector-curvature="0"
     style="fill:#ffffff" />
  <path
     d="m 74.589982,42.09 c 0.22,-1.76 0.52,-4.86 1,-7.91 a 7.33,7.33 0 0 1 3.3,-4.81 q 3.87,-2.73 7.65,-5.59 a 11.31,11.31 0 0 1 7.7,-2.45 c 1.79,0.1 3.59,0.11 5.37,0.29 a 3.75,3.75 0 0 1 1.999998,0.8 c 4.08,3.6 5.64,7.4 4.34,12 a 20.29,20.29 0 0 1 -2.21,5.28 8.76,8.76 0 0 1 -3.28,3 c -3.399998,1.76 -6.939998,3.25 -10.419998,4.84 l -0.55,0.23 c -4.48,2 -4.74,2.12 -4.25,7.59 0.19,2 1.53,3.28 3.16,4.27 a 44,44 0 0 0 13.399998,5.65 c 4.91,1.1 9.88,1.93 14.81,2.91 1.21,0.24 2.4,0.58 3.59,0.91 a 1.92,1.92 0 0 1 1.44,2.19 c 0,2.08 -1.07,3.52 -3.16,3.65 -4.14,0.25 -8.29,0.33 -12.44,0.32 -6.599998,0 -12.489998,-2.77 -18.499998,-5 -1.91,-0.71 -3.74,-1.62 -5.64,-2.36 a 7.87,7.87 0 0 1 -4.6,-5 44.24,44.24 0 0 1 -2.13,-11.15 c -0.24,-2.79 -0.33,-5.55 -0.58,-9.66 z m 18.09,-10.53 -0.06,-0.13 a 33.84,33.84 0 0 0 -4.14,1 5.08,5.08 0 0 0 -3.38,5.25 c 0.09,1 0.6,1.38 1.48,1.29 a 34.6,34.6 0 0 0 3.79,-0.55 8.15,8.15 0 0 0 5.65,-4.43 c 0.6,-1.14 0.28,-1.83 -1,-2.14 a 20.77,20.77 0 0 0 -2.34,-0.29 z"
     id="path14"
     inkscape:connector-curvature="0"
     style="fill:#ffffff" />
  <path
     d="m 295.21998,36.27 c 0.35,5.07 0.49,10.15 1.9,15.08 0.18,0.65 0.44,1.28 0.65,1.92 2.91,9 15.26,8.78 19.68,3.79 a 13.7,13.7 0 0 0 2.94,-7.33 c 0.83,-5.29 1.46,-10.6 2.19,-15.9 0.13,-0.91 0.32,-1.81 0.5,-2.71 a 2.61,2.61 0 0 1 2.09,-2.2 2.87,2.87 0 0 1 2.91,0.92 6.34,6.34 0 0 1 1.82,5.71 36.71,36.71 0 0 0 0.8,14.27 c 0.73,2.86 1.39,5.74 2.05,8.61 q 0.78,3.39 1.49,6.79 a 6,6 0 0 1 -1.6,5.73 c -1.36,1.39 -2.69,1.55 -4.09,0.23 a 18,18 0 0 1 -2.58,-3.12 c -1.11,-1.71 -2.18,-2.37 -4.2,-1.94 a 57.37,57.37 0 0 0 -5.63,1.6 c -3.25,1.06 -6.5,2 -10,1.67 -8,-0.67 -15.44,-7.16 -16.9,-15.06 a 141.87,141.87 0 0 1 -2.15,-28.49 c 0.06,-3 2.19,-4.22 4.89,-2.87 a 5.22,5.22 0 0 1 3.22,4.69 c 0.08,2.86 0.02,5.73 0.02,8.61 z"
     id="path16"
     inkscape:connector-curvature="0"
     style="fill:#ffffff" />
  <path
     d="m 335.13998,40.12 c -0.66,-7.83 2.35,-14.41 7.07,-20.32 a 15.68,15.68 0 0 1 14,-6.16 24.94,24.94 0 0 1 16.41,7.2 4.16,4.16 0 0 1 1.2,2.13 c 0.22,1.41 -1.14,2.42 -2.91,2.1 a 52.5,52.5 0 0 1 -5.3,-1.42 c -1.68,-0.51 -3.32,-1.14 -5,-1.6 -4.23,-1.16 -7.62,0.25 -10.59,3.33 a 22.26,22.26 0 0 0 -6.39,16.5 c 0.07,6.41 3,11.43 7.18,15.84 2.55,2.71 6.1,3.15 9.6,2.61 4.33,-0.68 8.6,-1.71 12.9,-2.58 0.78,-0.15 1.58,-0.27 2.36,-0.38 a 3,3 0 0 1 2.82,1.24 1.36,1.36 0 0 1 0.07,2 16.72,16.72 0 0 1 -2.42,2.48 c -6.67,4.84 -14.19,7 -22.29,5.56 -9.78,-1.79 -15.32,-8.44 -17.7,-17.75 -0.88,-3.48 -0.93,-7.18 -1.37,-10.78 z"
     id="path18"
     inkscape:connector-curvature="0"
     style="fill:#ffffff" />
</svg>
