<?xml version="1.0" encoding="UTF-8" standalone="no"?>
<svg
   xmlns:dc="http://purl.org/dc/elements/1.1/"
   xmlns:cc="http://creativecommons.org/ns#"
   xmlns:rdf="http://www.w3.org/1999/02/22-rdf-syntax-ns#"
   xmlns:svg="http://www.w3.org/2000/svg"
   xmlns="http://www.w3.org/2000/svg"
   xmlns:sodipodi="http://sodipodi.sourceforge.net/DTD/sodipodi-0.dtd"
   xmlns:inkscape="http://www.inkscape.org/namespaces/inkscape"
   version="1.0"
   viewBox="0 0 262.936 59.97068"
   width="262.936"
   height="59.97068"
   id="svg10"
   sodipodi:docname="mplayer.svg"
   inkscape:version="0.92.5 (2060ec1f9f, 2020-04-08)">
  <metadata
     id="metadata16">
    <rdf:RDF>
      <cc:Work
         rdf:about="">
        <dc:format>image/svg+xml</dc:format>
        <dc:type
           rdf:resource="http://purl.org/dc/dcmitype/StillImage" />
      </cc:Work>
    </rdf:RDF>
  </metadata>
  <defs
     id="defs14" />
  <sodipodi:namedview
     pagecolor="#ffffff"
     bordercolor="#666666"
     borderopacity="1"
     objecttolerance="10"
     gridtolerance="10"
     guidetolerance="10"
     inkscape:pageopacity="0"
     inkscape:pageshadow="2"
     inkscape:window-width="532"
     inkscape:window-height="460"
     id="namedview12"
     showgrid="false"
     inkscape:zoom="1.4507576"
     inkscape:cx="132"
     inkscape:cy="30"
     inkscape:window-x="72"
     inkscape:window-y="27"
     inkscape:window-maximized="0"
     inkscape:current-layer="svg10" />
  <path
     d="m 6.734,8.9706821 h 7.264 L 23.012,36.172682 32.158,8.9706821 h 7.158 l 6.576,38.9999999 h -7.159 l -4.188,-24.632 -8.299,24.632 h -6.548 l -8.191,-24.632 -4.268,24.632 H 0 L 6.734,8.9706821 m 45.095,0 h 7.874 c 4.26,0 7.326,0.396 9.199,1.1919999 1.891,0.778 3.377,2.051 4.455,3.817 1.096,1.751 1.643,3.855 1.643,6.311 0,2.722 -0.715,4.984 -2.147,6.788 -1.414,1.802 -3.341,3.057 -5.78,3.765 -1.431,0.406 -4.038,0.61 -7.821,0.61 v 16.517 H 51.829 V 8.9706821 m 7.423,15.2449999 h 2.36 c 1.856,0 3.147,-0.133 3.871,-0.399 0.724,-0.264 1.29,-0.697 1.696,-1.299 0.424,-0.618 0.636,-1.362 0.636,-2.227 0,-1.502 -0.582,-2.598 -1.75,-3.287 -0.847,-0.513 -2.42,-0.769 -4.719,-0.769 h -2.094 v 7.981"
     style="fill:#ffffff"
     id="path2"
     inkscape:connector-curvature="0" />
  <path
     d="m 84.784,12.667682 -5.315,29.059 c -0.214,1.257 -0.375,2.186 -0.375,2.895 0,2.623 1.718,4.043 4.778,4.043 1.771,0 4.563,-0.766 8.429,-2.185 v -2.131 c -1.665,0.546 -3.114,0.82 -4.349,0.82 -1.235,0 -2.201,-1.093 -2.201,-2.786 0,-1.093 0.268,-2.404 0.59,-3.988 L 91.924,7.9706821 h -2.362 l -9.18,2.0749999 v 1.912 l 4.402,0.71 m 33.265,8.576 -1.986,1.31 c -2.201,-0.873 -4.24,-1.365 -6.227,-1.365 -4.778,0 -9.234,2.459 -11.918,6.609 -2.148,3.333 -3.222,6.937 -3.222,10.871 0,6.281 2.9,9.941 7.731,9.941 2.631,0 5.53,-1.475 8.536,-4.37 0,0.109 0,0.219 0,0.273 0,2.622 1.396,3.987 4.026,3.987 2.041,0 4.725,-0.655 8.107,-1.911 v -2.021 c -1.289,0.382 -2.469,0.601 -3.544,0.601 -1.233,0 -2.254,-1.093 -2.254,-2.951 0,-0.71 0.161,-2.02 0.483,-3.823 l 1.611,-8.849 c 0.805,-4.534 1.503,-7.319 1.825,-8.302 h -3.168 m -6.602,2.622 2.147,3.277 -2.524,14.475 c -2.039,1.694 -3.758,2.567 -5.421,2.567 -2.631,0 -4.081,-2.13 -4.081,-6.282 0,-8.301 4.187,-14.092 9.18,-14.092 0.269,0 0.484,0.055 0.699,0.055 m 20.521,-2.677 -8.267,1.912 v 1.804 l 4.67,0.435 c 0.591,1.147 1.074,2.568 1.343,4.098 l 3.22,17.315 h 2.04 c -2.898,5.626 -5.582,8.575 -7.999,8.793 l -3.597,-3.441 c -1.933,0.383 -3.114,1.803 -3.114,3.661 0,2.185 1.933,4.205 4.511,4.205 4.401,0 8.858,-4.315 13.581,-12.945 4.134,-7.538 6.282,-15.404 10.469,-21.085 l 3.168,-1.802 v -1.475 l -4.241,-1.42 h -1.665 c -3.328,7.866 -6.012,14.638 -8.214,20.264 l -1.825,-11.906 c -0.805,-5.245 -1.771,-7.976 -4.08,-8.413 m 26.581,14.585 c 0.591,0 1.129,0.054 1.665,0.054 8.966,0 13.905,-3.332 13.905,-8.521 0,-3.606 -2.47,-5.954 -6.658,-5.954 -3.22,0 -6.656,1.311 -9.394,3.659 -3.973,3.442 -6.066,8.139 -6.066,13.275 0,6.499 3.542,10.378 9.502,10.378 3.22,0 7.086,-1.476 11.005,-4.589 l 0.108,-3.331 c -3.222,2.567 -6.121,3.823 -8.429,3.823 -3.597,0 -5.744,-2.513 -5.744,-7.155 0,-0.492 0.054,-1.039 0.106,-1.639 m 0.43,-2.295 c 1.503,-6.172 4.295,-9.394 7.087,-9.394 1.611,0 2.63,1.092 2.63,2.784 0,3.169 -3.704,6.337 -9.717,6.61 m 27.586,-12.235 -9.234,2.239 v 1.857 l 4.457,0.656 -4.295,22.177 h 6.603 l 2.094,-12.672 c 0.805,-4.862 2.792,-7.866 7.14,-9.723 l 1.45,4.151 c 0.053,0 0.107,0 0.107,0 3.167,0 5.207,-2.021 5.207,-4.643 0,-2.404 -1.664,-3.987 -3.973,-3.987 -2.522,0 -5.744,2.402 -9.18,7.264 l 1.503,-7.319 h -1.879"
     style="fill:#ffffff"
     id="path4"
     inkscape:connector-curvature="0" />
  <path
     d="m 210,27.466682 c 0.002,-19.6009999 21.254,-31.8479999 38.253,-22.0449999 16.999,9.8029999 16.995,34.3029999 -0.006,44.1019999 -16.978,9.784 -38.204,-2.423 -38.247,-21.996"
     style="color:#000000;display:inline;overflow:visible;visibility:visible;opacity:1;fill:none;fill-opacity:0;fill-rule:nonzero;stroke:#ffffff;stroke-width:4px;stroke-linejoin:bevel;stroke-miterlimit:0;stroke-opacity:1;marker:none;paint-order:fill"
     id="path6"
     inkscape:connector-curvature="0" />
  <path
     d="m 225.054,10.970682 29.946,17.464 -30,16.536 z"
     style="fill:#ffffff;fill-opacity:1;fill-rule:evenodd;stroke:none;stroke-width:1px;stroke-linecap:butt;stroke-linejoin:miter;stroke-opacity:1"
     id="path8"
     inkscape:connector-curvature="0" />
</svg>
