<?xml version="1.0" encoding="UTF-8" standalone="no"?>
<svg
   xmlns:bx="https://boxy-svg.com"
   xmlns:dc="http://purl.org/dc/elements/1.1/"
   xmlns:cc="http://creativecommons.org/ns#"
   xmlns:rdf="http://www.w3.org/1999/02/22-rdf-syntax-ns#"
   xmlns:svg="http://www.w3.org/2000/svg"
   xmlns="http://www.w3.org/2000/svg"
   xmlns:sodipodi="http://sodipodi.sourceforge.net/DTD/sodipodi-0.dtd"
   xmlns:inkscape="http://www.inkscape.org/namespaces/inkscape"
   version="1.1"
   id="svg2"
   sodipodi:docname="msx2.svg"
   width="264"
   height="73.999916"
   inkscape:version="0.92.5 (2060ec1f9f, 2020-04-08)">
  <metadata
     id="metadata12">
    <rdf:RDF>
      <cc:Work
         rdf:about="">
        <dc:format>image/svg+xml</dc:format>
        <dc:type
           rdf:resource="http://purl.org/dc/dcmitype/StillImage" />
      </cc:Work>
    </rdf:RDF>
  </metadata>
  <defs
     id="defs10" />
  <sodipodi:namedview
     pagecolor="#ffffff"
     bordercolor="#666666"
     borderopacity="1"
     objecttolerance="10"
     gridtolerance="10"
     guidetolerance="10"
     inkscape:pageopacity="0"
     inkscape:pageshadow="2"
     inkscape:window-width="532"
     inkscape:window-height="460"
     id="namedview8"
     showgrid="false"
     inkscape:zoom="2.36"
     inkscape:cx="50"
     inkscape:cy="23.999913"
     inkscape:window-x="72"
     inkscape:window-y="27"
     inkscape:window-maximized="0"
     inkscape:current-layer="svg2" />
  <g
     transform="scale(0.363481,0.359892)"
     id="g3">
    <path
       id="path2830"
       d="M 0,204.888 52.05,0 h 48.267 L 125.397,89.433 151.422,0 h 45.426 l 42.585,150.945 103.905,-0.195 c 10.905,-0.108 11.577,-22.662 -0.807,-22.656 l -60.513,-0.807 C 256.035,127.536 228.633,99.426 229.968,61.986 230.247,27.645 260.19,0.603 298.5,0.612 L 452.838,0.474 492.114,53.943 530.442,0 594.321,0.474 524.292,98.898 600,205.617 536.454,205.419 492.39,144.186 450.471,205.419 385.647,205.362 459.465,99.843 427.287,52.998 293.121,53.193 c -14.64,0.135 -14.103,23.169 0.117,22.737 l 56.526,0.867 c 23.892,0.153 57.54,24.981 56.703,63.741 0.363,45.06 -40.221,65.646 -59.76,64.548 l -147.966,0.195 -24.606,-92.187 -24.606,91.992 h -46.71 L 77.13,113.565 54.555,205.224 Z"
       style="fill:#ffffff"
       bx:origin="0 0"
       inkscape:connector-curvature="0" />
  </g>
  <path
     d="m 244.154,23.575 c 3.926,0 7.33,0.612 10.214,1.836 2.883,1.223 5.113,2.962 6.688,5.218 1.575,2.255 2.362,4.87 2.362,7.845 0,2.784 -0.702,5.302 -2.108,7.558 -1.405,2.256 -3.174,4.247 -5.307,5.974 -2.132,1.728 -5.064,3.839 -8.796,6.334 -2.084,1.344 -3.78,2.495 -5.089,3.456 H 264 V 73.96 h -41.437 v -3.455 c 0,-2.544 0.594,-4.811 1.781,-6.802 1.188,-1.991 2.92,-3.994 5.198,-6.01 2.326,-2.015 5.67,-4.751 10.032,-8.205 3.49,-2.736 5.937,-4.823 7.342,-6.263 1.406,-1.44 2.109,-2.855 2.109,-4.247 0,-1.487 -0.521,-2.734 -1.563,-3.742 -1.042,-1.008 -2.605,-1.512 -4.689,-1.512 -2.181,0 -3.902,0.624 -5.162,1.871 -1.26,1.249 -1.89,2.879 -1.89,4.895 v 1.44 h -12.94 c -0.048,-0.384 -0.072,-0.912 -0.072,-1.584 0,-5.183 1.829,-9.273 5.488,-12.272 3.659,-2.999 8.978,-4.499 15.957,-4.499 z"
     style="white-space:pre;fill:#ffffff"
     id="path5"
     inkscape:connector-curvature="0" />
</svg>
