<?xml version="1.0" encoding="UTF-8" standalone="no"?>
<svg
   xmlns:dc="http://purl.org/dc/elements/1.1/"
   xmlns:cc="http://creativecommons.org/ns#"
   xmlns:rdf="http://www.w3.org/1999/02/22-rdf-syntax-ns#"
   xmlns:svg="http://www.w3.org/2000/svg"
   xmlns="http://www.w3.org/2000/svg"
   xmlns:sodipodi="http://sodipodi.sourceforge.net/DTD/sodipodi-0.dtd"
   xmlns:inkscape="http://www.inkscape.org/namespaces/inkscape"
   version="1.1"
   id="svg6"
   sodipodi:docname="naomi.svg"
   width="264"
   height="58"
   inkscape:version="0.92.5 (2060ec1f9f, 2020-04-08)">
  <metadata
     id="metadata12">
    <rdf:RDF>
      <cc:Work
         rdf:about="">
        <dc:format>image/svg+xml</dc:format>
        <dc:type
           rdf:resource="http://purl.org/dc/dcmitype/StillImage" />
      </cc:Work>
    </rdf:RDF>
  </metadata>
  <defs
     id="defs10" />
  <sodipodi:namedview
     pagecolor="#ffffff"
     bordercolor="#666666"
     borderopacity="1"
     objecttolerance="10"
     gridtolerance="10"
     guidetolerance="10"
     inkscape:pageopacity="0"
     inkscape:pageshadow="2"
     inkscape:window-width="640"
     inkscape:window-height="480"
     id="namedview8"
     showgrid="false"
     inkscape:zoom="2.36"
     inkscape:cx="50"
     inkscape:cy="8"
     inkscape:window-x="72"
     inkscape:window-y="27"
     inkscape:window-maximized="0"
     inkscape:current-layer="svg6" />
  <path
     d="M 49.042,54.248 V 1.298 H 40.294 L 40.439,35.348 0,1.732 0.142,54.827 H 7.744 V 20.488 Z m 5.593,0.865 6.74,-11.542 H 55.208 V 35.493 H 65.39 L 83.888,1.732 113.43,55.113 H 102.961 L 96.939,43.571 H 70.697 L 64.388,55.113 Z M 74.281,35.348 H 93.21 L 83.746,17.89 Z m 114.005,19.765 h -8.603 V 1.874 l 29.253,34.195 29.539,-34.914 v 53.958 h -9.179 L 229.155,26.114 208.792,50.787 188.286,26.258 Z m 66.824,0 0.143,-54.536 H 264 l -0.143,54.536 z"
     style="fill:#ffffff"
     id="path2"
     inkscape:connector-curvature="0" />
  <path
     d="M 113.143,29.001 C 113.143,12.985 126.049,0 141.969,0 157.885,0 170.791,12.985 170.791,29.001 170.791,45.014 157.885,58 141.969,58 126.049,58 113.143,45.014 113.143,29.001 Z m 28.826,20.342 c 11.185,0 20.216,-9.09 20.216,-20.342 0,-11.109 -9.032,-20.2 -20.216,-20.2 -11.043,0 -20.079,9.091 -20.079,20.2 0,11.252 9.034,20.342 20.079,20.342 z"
     style="fill:#ffffff"
     id="path4"
     inkscape:connector-curvature="0" />
</svg>
