<?xml version="1.0" encoding="UTF-8" standalone="no"?>
<svg
   xmlns:dc="http://purl.org/dc/elements/1.1/"
   xmlns:cc="http://creativecommons.org/ns#"
   xmlns:rdf="http://www.w3.org/1999/02/22-rdf-syntax-ns#"
   xmlns:svg="http://www.w3.org/2000/svg"
   xmlns="http://www.w3.org/2000/svg"
   xmlns:sodipodi="http://sodipodi.sourceforge.net/DTD/sodipodi-0.dtd"
   xmlns:inkscape="http://www.inkscape.org/namespaces/inkscape"
   version="1.0"
   id="svg15"
   sodipodi:docname="nds.svg"
   width="264"
   height="38.000015"
   inkscape:version="0.92.5 (2060ec1f9f, 2020-04-08)">
  <metadata
     id="metadata21">
    <rdf:RDF>
      <cc:Work
         rdf:about="">
        <dc:format>image/svg+xml</dc:format>
        <dc:type
           rdf:resource="http://purl.org/dc/dcmitype/StillImage" />
      </cc:Work>
    </rdf:RDF>
  </metadata>
  <defs
     id="defs19" />
  <sodipodi:namedview
     pagecolor="#ffffff"
     bordercolor="#666666"
     borderopacity="1"
     objecttolerance="10"
     gridtolerance="10"
     guidetolerance="10"
     inkscape:pageopacity="0"
     inkscape:pageshadow="2"
     inkscape:window-width="532"
     inkscape:window-height="460"
     id="namedview17"
     showgrid="false"
     inkscape:zoom="2.36"
     inkscape:cx="50"
     inkscape:cy="-11.999984"
     inkscape:window-x="72"
     inkscape:window-y="27"
     inkscape:window-maximized="0"
     inkscape:current-layer="svg15" />
  <g
     transform="scale(0.44,0.442643)"
     id="g13">
    <path
       d="m 381.537,77.19 c 0,0.912 -0.747,1.731 -1.668,1.731 h -31.914 c -0.93,0 -1.677,-0.819 -1.677,-1.731 V 54.132 c 0,-0.909 0.747,-1.638 1.677,-1.638 h 31.914 c 0.921,0 1.668,0.729 1.668,1.638 z m -1.386,-31.623 h -32.487 c -4.704,0 -8.541,3.828 -8.541,8.565 V 77.28 c 0,4.65 3.837,8.568 8.541,8.568 h 32.487 c 4.713,0 8.541,-3.918 8.541,-8.568 V 54.132 c 0,-4.737 -3.828,-8.565 -8.541,-8.565"
       style="fill:#ffffff;fill-rule:nonzero;stroke:none"
       id="path100608"
       inkscape:connector-curvature="0" />
    <path
       d="m 7.455,10.935 c 0,0 0,29.346 0,29.802 -0.393,0 -7.053,0 -7.455,0 0,-0.456 0,-39.825 0,-40.281 0.42,0 6.18,0 6.369,0 l 30.195,29.346 c 0,0 0,-28.89 0,-29.346 0.408,0 5.967,0 5.967,0 0,0 1.059,0 1.386,0 0,0.456 0,39.825 0,40.281 -0.402,0 -5.622,0 -5.823,0 L 7.455,10.935"
       style="fill:#ffffff;fill-rule:nonzero;stroke:none"
       id="path100618"
       inkscape:connector-curvature="0" />
    <path
       d="m 82.194,10.935 c 0,0 0,29.346 0,29.802 -0.402,0 -7.047,0 -7.455,0 0,-0.456 0,-39.825 0,-40.281 0.417,0 6.168,0 6.36,0 l 30.192,29.346 c 0,0 0,-28.89 0,-29.346 0.411,0 5.979,0 5.979,0 0,0 1.065,0 1.386,0 0,0.456 0,39.825 0,40.281 -0.411,0 -5.625,0 -5.823,0 L 82.194,10.935"
       style="fill:#ffffff;fill-rule:nonzero;stroke:none;stroke-width:0.05;stroke-linecap:butt;stroke-linejoin:miter;stroke-miterlimit:4;stroke-dasharray:none"
       id="path100622"
       inkscape:connector-curvature="0" />
    <path
       d="m 237.09,10.935 c 0,0 0,29.346 0,29.802 -0.408,0 -7.044,0 -7.452,0 0,-0.456 0,-39.825 0,-40.281 0.417,0 6.177,0 6.36,0 l 30.192,29.346 c 0,0 0,-28.89 0,-29.346 0.411,0 5.979,0 5.979,0 0,0 1.065,0 1.386,0 0,0.456 0,39.825 0,40.281 -0.411,0 -5.625,0 -5.817,0 L 237.09,10.935"
       style="fill:#ffffff;fill-rule:nonzero;stroke:none;stroke-width:0.05;stroke-linecap:butt;stroke-linejoin:miter;stroke-miterlimit:4;stroke-dasharray:none"
       id="path100626"
       inkscape:connector-curvature="0" />
    <path
       d="m 61.671,0.456 c 0,0 1.056,0 1.374,0 0,0.456 0,39.825 0,40.281 -0.39,0 -7.053,0 -7.455,0 0,-0.456 0,-39.825 0,-40.281 0.411,0 6.081,0 6.081,0"
       style="fill:#ffffff;fill-rule:nonzero;stroke:none;stroke-width:0.05;stroke-linecap:butt;stroke-linejoin:miter;stroke-miterlimit:4;stroke-dasharray:none"
       id="path100630"
       inkscape:connector-curvature="0" />
    <path
       d="m 169.425,0.456 c 0,0 1.038,0 1.368,0 0,0.366 0,6.561 0,6.927 -0.438,0 -17.973,0 -17.973,0 0,0 0,32.898 0,33.354 -0.399,0 -7.344,0 -7.746,0 0,-0.456 0,-33.354 0,-33.354 0,0 -17.532,0 -17.97,0 0,-0.366 0,-6.561 0,-6.927 0.447,0 42.321,0 42.321,0"
       style="fill:#ffffff;fill-rule:nonzero;stroke:none;stroke-width:0.05;stroke-linecap:butt;stroke-linejoin:miter;stroke-miterlimit:4;stroke-dasharray:none"
       id="path100634"
       inkscape:connector-curvature="0" />
    <path
       d="m 217.179,0.456 c 0,0 1.074,0 1.395,0 0,0.366 0,6.561 0,6.927 -0.429,0 -31.953,0 -31.953,0 v 9.021 c 0,0 24.297,0 24.717,0 0,0.456 0,6.471 0,6.927 -0.42,0 -24.717,0 -24.717,0 V 33.81 c 0,0 31.524,0 31.953,0 0,0.366 0,6.471 0,6.927 -0.429,0 -38.904,0 -39.333,0 0,-0.456 0,-39.825 0,-40.281 0.429,0 37.938,0 37.938,0"
       style="fill:#ffffff;fill-rule:nonzero;stroke:none;stroke-width:0.05;stroke-linecap:butt;stroke-linejoin:miter;stroke-miterlimit:4;stroke-dasharray:none"
       id="path100638"
       inkscape:connector-curvature="0" />
    <path
       d="M 315,33.81 H 292.107 V 7.383 H 315 c 7.164,0 9.708,7.107 9.708,13.212 0,6.015 -2.544,13.215 -9.708,13.215 z M 327.231,6.381 C 324.315,2.46 320.004,0.456 314.79,0.456 c 0,0 -29.436,0 -29.871,0 0,0.456 0,39.825 0,40.281 0.435,0 29.871,0 29.871,0 5.214,0 9.525,-2.097 12.441,-5.925 2.733,-3.552 4.182,-8.475 4.182,-14.217 0,-5.739 -1.449,-10.662 -4.182,-14.214"
       style="fill:#ffffff;fill-rule:nonzero;stroke:none;stroke-width:0.05;stroke-linecap:butt;stroke-linejoin:miter;stroke-miterlimit:4;stroke-dasharray:none"
       id="path100642"
       inkscape:connector-curvature="0" />
    <path
       d="m 381.537,32.169 c 0,0.822 -0.747,1.641 -1.668,1.641 h -31.914 c -0.93,0 -1.677,-0.819 -1.677,-1.641 V 9.021 c 0,-0.909 0.747,-1.638 1.677,-1.638 h 31.914 c 0.921,0 1.668,0.729 1.668,1.638 z M 380.151,0.456 h -32.487 c -4.704,0 -8.541,3.828 -8.541,8.565 v 23.148 c 0,4.74 3.837,8.568 8.541,8.568 h 32.487 c 4.713,0 8.541,-3.828 8.541,-8.568 V 9.021 c 0,-4.737 -3.828,-8.565 -8.541,-8.565"
       style="fill:#ffffff;fill-rule:nonzero;stroke:none;stroke-width:0.05;stroke-linecap:butt;stroke-linejoin:miter;stroke-miterlimit:4;stroke-dasharray:none"
       id="path100646"
       inkscape:connector-curvature="0" />
    <path
       d="m 515.484,68.805 c 7.728,3.099 24.051,5.559 36.792,5.559 13.941,0 19.71,-4.737 19.71,-10.752 0,-5.469 -5.358,-8.568 -20.751,-14.217 C 530.649,41.829 515.547,35.817 515.547,22.236 515.547,8.292 533.721,0 561.414,0 c 14.874,0 19.977,0.912 29.418,2.643 l 0.075,13.305 c -9.279,-1.731 -17.499,-4.737 -30.267,-4.737 -13.686,0 -19.521,4.374 -19.521,8.838 0,6.471 8.988,9.57 24.744,15.219 21.936,7.839 34.137,13.854 34.137,27.066 0,13.671 -15.282,23.514 -49.749,23.514 -14.151,0 -23.913,-0.912 -34.767,-2.733 v -14.31"
       style="fill:#ffffff;fill-rule:nonzero;stroke:none;stroke-width:0.05;stroke-linecap:butt;stroke-linejoin:miter;stroke-miterlimit:4;stroke-dasharray:none"
       id="path100656"
       inkscape:connector-curvature="0" />
    <path
       d="m 442.122,11.757 h -16.404 v 62.151 h 16.404 c 25.179,0 41.064,-10.845 41.064,-30.984 0,-20.139 -15.885,-31.167 -41.064,-31.167 z M 486.15,79.65 c -8.112,3.645 -23.46,6.015 -36.873,6.015 H 398.004 V 0.183 h 51.273 c 13.413,0 28.761,2.37 36.891,6.015 19.746,8.931 26.181,23.238 26.181,36.726 0,13.488 -6.378,27.795 -26.199,36.726"
       style="fill:#ffffff;fill-rule:nonzero;stroke:none;stroke-width:0.05;stroke-linecap:butt;stroke-linejoin:miter;stroke-miterlimit:4;stroke-dasharray:none"
       id="path100660"
       inkscape:connector-curvature="0" />
  </g>
</svg>
