<?xml version="1.0" encoding="UTF-8" standalone="no"?>
<svg
   xmlns:dc="http://purl.org/dc/elements/1.1/"
   xmlns:cc="http://creativecommons.org/ns#"
   xmlns:rdf="http://www.w3.org/1999/02/22-rdf-syntax-ns#"
   xmlns:svg="http://www.w3.org/2000/svg"
   xmlns="http://www.w3.org/2000/svg"
   xmlns:sodipodi="http://sodipodi.sourceforge.net/DTD/sodipodi-0.dtd"
   xmlns:inkscape="http://www.inkscape.org/namespaces/inkscape"
   version="1.1"
   id="svg9"
   sodipodi:docname="neogeo.svg"
   width="264"
   height="45"
   inkscape:version="0.92.5 (2060ec1f9f, 2020-04-08)">
  <metadata
     id="metadata15">
    <rdf:RDF>
      <cc:Work
         rdf:about="">
        <dc:format>image/svg+xml</dc:format>
        <dc:type
           rdf:resource="http://purl.org/dc/dcmitype/StillImage" />
      </cc:Work>
    </rdf:RDF>
  </metadata>
  <defs
     id="defs13" />
  <sodipodi:namedview
     pagecolor="#ffffff"
     bordercolor="#666666"
     borderopacity="1"
     objecttolerance="10"
     gridtolerance="10"
     guidetolerance="10"
     inkscape:pageopacity="0"
     inkscape:pageshadow="2"
     inkscape:window-width="640"
     inkscape:window-height="480"
     id="namedview11"
     showgrid="false"
     inkscape:zoom="2.36"
     inkscape:cx="50"
     inkscape:cy="-5.002"
     inkscape:window-x="72"
     inkscape:window-y="27"
     inkscape:window-maximized="0"
     inkscape:current-layer="svg9" />
  <path
     d="m 14.629,41.349 h -0.974 c -1.397,0 -2.636,-0.427 -3.721,-1.283 C 8.852,39.21 8.309,37.564 8.309,35.12 V 9.42 l 27.898,34.706 1.809,0.003 V 8.731 c 0,-2.013 0.168,-2.596 0.501,-3.425 0.332,-0.827 0.797,-1.425 1.391,-1.792 0.595,-0.368 1.763,-0.665 3.498,-0.895 V 0.816 H 29.567 v 1.803 c 2.282,-0.043 3.91,0.543 4.877,1.76 0.705,0.901 1.059,1.794 1.059,4.354 V 27.269 L 13.786,0.816 H 0.572 v 1.429 c 1.255,0.042 1.301,0.461 1.97,0.817 L 6.08,6.616 6.078,35.117 c 0,2.257 -0.447,3.851 -1.338,4.79 C 3.849,40.844 2.267,41.325 0,41.345 v 1.723 h 14.622 v -1.723 z"
     id="path19"
     style="fill:#ffffff"
     inkscape:connector-curvature="0" />
  <path
     d="M 83.823,29.847 H 81.81 c -1.049,3.766 -2.779,6.569 -5.183,8.404 -2.403,1.834 -5.601,2.753 -9.586,2.753 h -2.274 c -1.219,0 -2.099,-0.168 -2.646,-0.499 C 61.577,40.17 61.203,39.741 61.003,39.218 60.805,38.696 60.705,37.267 60.705,34.93 V 22.965 c 2.047,0 4.448,0.267 5.525,0.8 1.076,0.532 2.021,1.575 2.834,3.121 0.814,1.548 1.346,3.258 1.6,5.684 h 1.73 V 10.549 h -1.73 c -0.338,3.307 -1.121,5.529 -2.344,7.224 -1.224,1.697 -3.2,2.543 -5.921,2.543 H 60.702 V 5.547 C 60.688,2.979 62.985,3.275 62.985,3.275 h 2.675 c 3.243,0 5.451,0.189 6.629,0.566 2.02,0.627 3.582,1.611 4.688,2.946 1.104,1.339 1.96,3.544 2.571,6.615 h 1.449 V 0.813 H 44.946 v 1.735 h 1.136 c 1.386,0 2.478,0.292 3.275,0.874 0.567,0.398 0.956,0.964 1.163,1.693 0.106,0.44 0.16,1.618 0.16,3.539 v 26.612 c 0,2.129 -0.116,3.444 -0.347,3.944 -0.294,0.71 -0.715,1.212 -1.258,1.504 -0.757,0.439 -1.753,0.658 -2.993,0.658 h -1.136 v 2.002 h 36.662 l 2.204,-13.532 z"
     id="path17"
     style="fill:#ffffff"
     inkscape:connector-curvature="0" />
  <path
     d="m 105.475,44.754 c 7.472,0 13.259,-2.744 17.358,-8.232 3.091,-4.136 4.639,-8.922 4.639,-14.37 0,-6.371 -2.075,-11.677 -6.219,-15.921 -4.147,-4.241 -9.537,-6.234 -16.174,-5.98 -6.144,-0.252 -11.322,1.747 -15.525,5.999 -4.213,4.25 -6.313,9.564 -6.313,15.935 0,5.675 1.616,10.582 4.854,14.718 4.093,5.231 9.889,7.851 17.387,7.851 M 96.685,8.31 c 1.985,-4.006 4.882,-6.008 8.692,-6.008 2.07,0 3.897,0.58 5.484,1.741 1.587,1.159 2.893,3.147 3.917,5.961 1.023,2.818 1.536,7.059 1.536,12.733 0,4.765 -0.501,8.631 -1.506,11.595 -1.002,2.962 -2.404,5.12 -4.207,6.471 -1.414,1.054 -3.175,1.581 -5.287,1.581 -3.134,0 -5.569,-1.222 -7.314,-3.668 -2.498,-3.501 -3.748,-8.909 -3.748,-16.228 0,-6.162 0.809,-10.885 2.426,-14.174"
     id="path15"
     style="fill:#ffffff"
     inkscape:connector-curvature="0" />
  <path
     d="m 139.377,22.5 c 0,2.829 -2.298,5.12 -5.13,5.12 -2.835,0 -5.132,-2.292 -5.132,-5.12 0,-2.829 2.298,-5.119 5.132,-5.119 2.834,0 5.13,2.293 5.13,5.119 z"
     id="path21"
     style="fill:#ffffff"
     inkscape:connector-curvature="0" />
  <path
     d="m 164.758,27.052 h 1.045 c 0.978,0 2.646,0.201 3.333,0.603 0.688,0.398 1.141,0.848 1.36,1.343 0.219,0.495 0.33,1.588 0.33,3.276 v 6.631 c 0,1.999 -2.119,3.02 -3.138,3.241 -1.026,0.219 -2.021,0.331 -2.99,0.331 -2.799,0 -5.212,-0.726 -7.247,-2.179 -2.035,-1.454 -3.507,-3.729 -4.422,-6.827 -0.911,-3.096 -1.366,-6.693 -1.366,-10.806 0,-3.389 0.416,-6.696 1.251,-9.917 0.834,-3.224 2.255,-5.733 4.261,-7.535 2.009,-1.8 4.522,-2.702 7.542,-2.702 3.161,0 5.01,0.799 7.335,3.211 2.379,2.467 4.662,5.267 5.994,9.382 h 1.946 V 0 h -1.109 c -0.397,1.21 -0.834,2.032 -1.31,2.466 -0.479,0.436 -0.995,0.652 -1.551,0.652 -0.357,0 -1.518,-0.395 -3.475,-1.179 C 170.592,1.15 169.175,0.673 168.301,0.505 166.693,0.169 165.441,0 163.437,0 c -6.481,0 -11.857,2.221 -16.132,6.666 -4.273,4.446 -6.409,9.889 -6.409,16.332 0,3.601 0.695,6.855 2.086,9.761 1.093,2.254 2.607,4.278 4.545,6.08 1.938,1.8 4.178,3.254 6.708,4.361 2.536,1.104 5.72,1.657 9.555,1.657 3.004,0 5.896,-0.308 8.691,-0.927 2.793,-0.622 5.478,-1.54 8.069,-2.757 v -8.908 c 0,-1.562 0.088,-2.543 0.267,-2.942 0.317,-0.76 0.767,-1.303 1.353,-1.632 0.584,-0.329 2.183,-0.543 3.671,-0.65 v -1.458 h -21.09 v 1.458 z"
     id="path9"
     style="fill:#ffffff"
     inkscape:connector-curvature="0" />
  <path
     d="m 213.234,38.591 c -2.404,1.835 -5.602,2.753 -9.591,2.753 h -2.274 c -1.22,0 -2.1,-0.165 -2.646,-0.5 -0.543,-0.335 -0.92,-0.762 -1.118,-1.285 -0.199,-0.521 -0.299,-1.951 -0.299,-4.288 V 23.306 c 2.05,0 4.448,0.266 5.526,0.8 1.075,0.533 2.02,1.574 2.831,3.122 0.815,1.547 1.349,3.256 1.602,5.682 h 1.728 V 10.889 h -1.728 c -0.34,3.311 -1.119,5.53 -2.345,7.225 -1.223,1.696 -3.199,2.544 -5.922,2.544 h -1.695 V 5.887 c -0.012,-2.568 2.281,-2.269 2.281,-2.269 h 2.679 c 3.239,0 5.446,0.188 6.624,0.564 2.019,0.627 3.582,1.61 4.686,2.948 1.106,1.337 1.961,3.541 2.572,6.615 h 1.449 V 1.167 H 181.543 V 2.89 h 1.137 c 1.384,0 2.478,0.292 3.272,0.875 0.569,0.398 0.959,0.963 1.168,1.694 0.105,0.436 0.158,1.617 0.158,3.538 v 26.61 c 0,2.13 -0.116,3.446 -0.347,3.948 -0.294,0.71 -0.716,1.212 -1.259,1.504 -0.758,0.439 -1.755,0.658 -2.991,0.658 h -1.138 v 2.002 h 36.661 l 2.204,-13.531 h -2.013 c -1.049,3.765 -2.776,6.568 -5.179,8.403"
     id="path11"
     style="fill:#ffffff"
     inkscape:connector-curvature="0" />
  <path
     d="m 241.601,0.5 c -6.145,-0.255 -11.322,1.745 -15.526,5.998 -4.213,4.249 -6.314,9.565 -6.314,15.935 0,5.676 1.618,10.58 4.855,14.717 4.095,5.23 9.89,7.85 17.387,7.85 7.472,0 13.262,-2.741 17.358,-8.23 C 262.453,32.64 264,27.845 264,22.401 264,16.03 261.925,10.722 257.781,6.48 253.634,2.236 248.244,0.242 241.608,0.5 m 9.801,34.056 c -1.005,2.963 -2.406,5.12 -4.21,6.466 -1.412,1.057 -3.174,1.584 -5.286,1.584 -3.133,0 -5.567,-1.225 -7.312,-3.669 -2.498,-3.501 -3.749,-8.91 -3.749,-16.229 0,-6.161 0.808,-10.884 2.426,-14.173 1.987,-4.005 4.884,-6.01 8.692,-6.01 2.069,0 3.897,0.582 5.485,1.741 1.586,1.16 2.893,3.148 3.916,5.964 1.025,2.817 1.537,7.058 1.537,12.735 0,4.765 -0.502,8.631 -1.506,11.596"
     id="path13"
     style="fill:#ffffff"
     inkscape:connector-curvature="0" />
</svg>
