<?xml version="1.0" encoding="UTF-8" standalone="no"?>
<svg
   xmlns:dc="http://purl.org/dc/elements/1.1/"
   xmlns:cc="http://creativecommons.org/ns#"
   xmlns:rdf="http://www.w3.org/1999/02/22-rdf-syntax-ns#"
   xmlns:svg="http://www.w3.org/2000/svg"
   xmlns="http://www.w3.org/2000/svg"
   xmlns:sodipodi="http://sodipodi.sourceforge.net/DTD/sodipodi-0.dtd"
   xmlns:inkscape="http://www.inkscape.org/namespaces/inkscape"
   id="Warstwa_1"
   data-name="Warstwa 1"
   viewBox="0 0 264.19958 95.798817"
   version="1.1"
   sodipodi:docname="nesh.svg"
   width="264.19958"
   height="95.79882"
   inkscape:version="0.92.5 (2060ec1f9f, 2020-04-08)">
  <metadata
     id="metadata95">
    <rdf:RDF>
      <cc:Work
         rdf:about="">
        <dc:format>image/svg+xml</dc:format>
        <dc:type
           rdf:resource="http://purl.org/dc/dcmitype/StillImage" />
      </cc:Work>
    </rdf:RDF>
  </metadata>
  <defs
     id="defs93" />
  <sodipodi:namedview
     pagecolor="#ffffff"
     bordercolor="#666666"
     borderopacity="1"
     objecttolerance="10"
     gridtolerance="10"
     guidetolerance="10"
     inkscape:pageopacity="0"
     inkscape:pageshadow="2"
     inkscape:window-width="532"
     inkscape:window-height="460"
     id="namedview91"
     showgrid="false"
     inkscape:zoom="1.450373"
     inkscape:cx="133.47085"
     inkscape:cy="44.451133"
     inkscape:window-x="72"
     inkscape:window-y="27"
     inkscape:window-maximized="0"
     inkscape:current-layer="Warstwa_1" />
  <title
     id="title2">nesh</title>
  <path
     d="m 132.15689,2.9942253e-4 h 99.47 a 32.54,32.54 0 0 1 3.81,64.85999957747 30.63,30.63 0 0 1 -3.7,0.23 H 32.436891 a 32.56,32.56 0 0 1 -4.77,-64.74999958 30.26,30.26 0 0 1 4.66,-0.33999999747 z m -0.06,7.69999997747 q -49.559999,0 -99.109999,0 a 28.45,28.45 0 0 0 -5.12,0.48 24.83,24.83 0 0 0 5.12,49.2499996 q 99.099999,0 198.199999,0 a 29.29,29.29 0 0 0 5.12,-0.48 24.83,24.83 0 0 0 -5,-49.1999996 z"
     id="path4"
     inkscape:connector-curvature="0"
     style="fill:#ffffff" />
  <path
     d="m 257.33689,83.930299 h -3.34 v -5.93 c 0,-1.69 -0.18,-1.86 -1.85,-1.86 -1.67,0 -1.76,0.19 -1.77,1.81 v 5.94 h -3.21 v -10 c 0.44,0 0.83,-0.05 1.22,-0.05 h 12.36 c 2.29,0 3.35,1.07 3.35,3.38 v 6.66 h -3.14 c 0,-2.07 0,-4.09 0,-6.12 0,-0.52 -0.34,-1.39 -0.67,-1.46 a 6.24,6.24 0 0 0 -2.54,0.11 c -0.2,0 -0.35,0.75 -0.36,1.16 -0.05,2.08 -0.05,4.16 -0.05,6.36 z"
     id="path6"
     inkscape:connector-curvature="0"
     style="fill:#ffffff" />
  <path
     d="m 119.55689,83.930299 h -3 v -10 c 0.34,0 0.69,-0.09 1,-0.09 h 12.48 c 2.25,0 3.4,1.16 3.41,3.39 0.01,2.23 0,4.38 0,6.66 h -3.26 v -5.82 c 0,-1.77 -1.33,-2.64 -2.91,-1.81 a 1.74,1.74 0 0 0 -0.61,1.28 c -0.06,2.07 0,4.15 0,6.42 -1,0 -1.9,0.05 -2.79,0 -0.2,0 -0.5,-0.55 -0.51,-0.85 0,-1.76 0,-3.52 0,-5.28 0,-1.41 -0.3,-1.66 -1.83,-1.66 -1.53,0 -1.78,0.21 -1.79,1.68 0,1.92 0,3.84 0,5.76 a 2.09,2.09 0 0 1 -0.19,0.32 z"
     id="path8"
     inkscape:connector-curvature="0"
     style="fill:#ffffff" />
  <path
     d="m 66.336891,83.920299 h -2.63 c -0.08,-0.12 -0.15,-0.18 -0.15,-0.25 -0.08,-2.54 0.11,-2.52 -2.68,-2.49 h -0.36 c -3,0 -2.74,-0.35 -3,2.8 h -3.09 v -10.13 h 3.7 a 42.07,42.07 0 0 0 5.27,0 3.14,3.14 0 0 1 3.29,4.1 c -0.67,1.66 -0.3,3.16 -0.36,4.74 0.01,0.34 0.01,0.74 0.01,1.23 z m -5.74,-5 h 1.74 c 0.9,0 1.16,-0.48 1.14,-1.29 -0.02,-0.81 -0.14,-1.48 -1.14,-1.49 -1,-0.01 -2.15,0 -3.22,0 -1.07,0 -1.5,0.4 -1.51,1.48 -0.01,1.08 0.61,1.32 1.53,1.28 0.49,-0.03 0.97,-0.01 1.45,-0.01 z"
     id="path10"
     inkscape:connector-curvature="0"
     style="fill:#ffffff" />
  <path
     d="m 93.476891,83.910299 h -3.23 v -2.64 h -5.91 v 2.61 h -3.31 c 0,-2.2 -0.07,-4.42 0,-6.64 a 4.27,4.27 0 0 1 0.88,-2.37 3.09,3.09 0 0 1 2,-1 c 2.19,-0.12 4.39,-0.05 6.59,0 a 3,3 0 0 1 2.91,2.64 c 0.12,2.41 0.07,4.85 0.07,7.4 z m -3.4,-5.1 c 0.43,-2.23 0.08,-2.67 -2,-2.67 h -2.54 a 1.07,1.07 0 0 0 -1.2,1.17 c 0,0.48 0,1 0,1.5 z"
     id="path12"
     inkscape:connector-curvature="0"
     style="fill:#ffffff" />
  <path
     d="m 135.84689,73.770299 h 10.91 v 2.37 h -6.14 a 2.71,2.71 0 0 0 -1.07,0 4.3,4.3 0 0 0 -1,0.86 c 0.33,0.26 0.66,0.75 1,0.76 1.76,0.08 3.52,0 5.27,0 h 1.4 v 2.1 h -5.47 a 2.93,2.93 0 0 0 -1.07,0 5.91,5.91 0 0 0 -1.13,0.82 c 0.37,0.32 0.74,0.91 1.13,0.93 1.83,0.1 3.67,0.05 5.51,0.05 h 1.51 v 2.12 c -3,0 -5.93,0.1 -8.86,-0.05 -1.5,-0.07 -2.12,-1 -2.13,-2.54 0,-2.36 0,-4.71 0,-7.07 a 2.7,2.7 0 0 1 0.14,-0.35 z"
     id="path14"
     inkscape:connector-curvature="0"
     style="fill:#ffffff" />
  <path
     d="m 10.606891,77.840299 v 2.1 H 6.3368909 c -0.64,0 -1.27,0 -1.91,0 -0.64,0 -1.5,0 -1.48,0.94 0.02,0.94 0.74,0.89 1.42,0.89 h 6.7500001 v 2.13 c -0.33,0 -0.67,0.07 -1,0.07 -2.2800001,0 -4.5600001,0 -6.8300001,0 -2.27,0 -3.18999996,-0.85 -3.18999996,-3.14 v -7 H 11.096891 v 2.33 c -2.0800001,0 -4.1900001,0 -6.2900001,0 -0.75,0 -1.86,-0.26 -1.84,0.91 0.02,1.17 1.12,0.75 1.81,0.77 1.88,0.03 3.79,0 5.8300001,0 z"
     id="path16"
     inkscape:connector-curvature="0"
     style="fill:#ffffff" />
  <path
     d="m 244.82689,73.780299 v 2.36 h -6 a 2.67,2.67 0 0 0 -1.06,0 5.49,5.49 0 0 0 -1.11,0.82 c 0.36,0.28 0.71,0.79 1.08,0.81 1.75,0.09 3.51,0 5.27,0 h 1.33 v 2.1 c -2.1,0 -4.17,0 -6.24,0 -0.67,0 -1.42,0 -1.44,0.85 -0.02,0.85 0.74,1 1.46,1 h 6.67 v 2.09 c -3,0 -5.95,0.06 -8.93,0 a 2,2 0 0 1 -2,-1.87 c -0.08,-2.7 0,-5.41 0,-8.18 z"
     id="path18"
     inkscape:connector-curvature="0"
     style="fill:#ffffff" />
  <path
     d="m 52.056891,73.920299 v 2.38 h -6.14 a 2.87,2.87 0 0 0 -1.06,0 5.1,5.1 0 0 0 -1.05,0.78 c 0.36,0.3 0.7,0.83 1.07,0.85 1.83,0.09 3.67,0 5.51,0 h 1.16 v 2 c -0.49,0 -1,0.09 -1.56,0.1 -1.64,0 -3.28,-0.05 -4.92,0 -0.43,0 -0.83,0.54 -1.25,0.83 0.42,0.33 0.82,0.93 1.25,0.95 1.87,0.11 3.75,0.05 5.63,0.05 h 1.36 v 2.09 c -3,0 -6,0.07 -9,0 a 2,2 0 0 1 -2,-1.87 c -0.1,-2.7 0,-5.41 0,-8.19 z"
     id="path20"
     inkscape:connector-curvature="0"
     style="fill:#ffffff" />
  <path
     d="m 151.96689,83.920299 h -3.23 v -10 c 0.31,0 0.65,-0.09 1,-0.09 h 9 a 3,3 0 0 1 3.33,3.34 c 0,2.19 0,4.39 0,6.68 h -3.26 v -5.95 c 0,-1.58 -0.2,-1.78 -1.81,-1.78 -1.2,0 -2.4,0 -3.59,0 -1,0 -1.44,0.43 -1.43,1.44 0.01,2.08 -0.01,4.15 -0.01,6.36 z"
     id="path22"
     inkscape:connector-curvature="0"
     style="fill:#ffffff" />
  <path
     d="m 219.41689,73.930299 v 2.28 c -2.41,0 -4.75,0 -7.1,0 -0.74,0 -1.9,-0.3 -1.9,0.84 0,1.14 1.16,0.84 1.91,0.86 1.31,0 2.63,0 3.95,0 a 3.045,3.045 0 1 1 0,6.09 h -8.69 v -2.34 c 2.42,0 4.81,0 7.19,0 0.79,0 2,0.29 2,-0.92 0,-1.21 -1.2,-0.91 -2,-0.93 -1.39,0 -2.8,0 -4.19,0 a 2.9305332,2.9305332 0 0 1 -0.36,-5.85 c 3.01,-0.08 6.04,-0.03 9.19,-0.03 z"
     id="path24"
     inkscape:connector-curvature="0"
     style="fill:#ffffff" />
  <path
     d="m 192.77689,73.930299 v 2.28 c -2.46,0 -4.85,0 -7.23,0 -0.7,0 -1.78,-0.29 -1.8,0.82 -0.02,1.11 1,0.87 1.76,0.88 1.4,0 2.8,0 4.2,0 a 3,3 0 0 1 3.14,3 3,3 0 0 1 -3.11,3.06 c -2.91,0 -5.83,0 -8.83,0 v -2.34 h 4.85 a 22.91,22.91 0 0 0 3,0 c 0.5,-0.06 1.28,-0.49 1.33,-0.83 0.09,-0.78 -0.65,-1 -1.33,-1 -1.64,0 -3.28,0 -4.92,0 a 3,3 0 0 1 -3,-3.17 3,3 0 0 1 2.74,-2.68 c 3.03,-0.06 6.06,-0.02 9.2,-0.02 z"
     id="path26"
     inkscape:connector-curvature="0"
     style="fill:#ffffff" />
  <path
     d="m 16.686891,83.910299 h -3.27 v -10 c 0.4,0 0.78,-0.09 1.16,-0.09 h 8.88 c 2.19,0 3.3,1.14 3.31,3.33 v 6.7 h -3.18 v -5.69 c 0,-1.87 -0.18,-2 -2,-2 -1.12,0 -2.24,0 -3.36,0 -1.12,0 -1.51,0.47 -1.5,1.52 -0.02,2.03 -0.04,4.1 -0.04,6.23 z"
     id="path28"
     inkscape:connector-curvature="0"
     style="fill:#ffffff" />
  <path
     d="m 104.11689,83.900299 h -3.25 v -9.95 a 9.6,9.6 0 0 1 1,-0.1 h 9 a 3,3 0 0 1 3.29,3.24 c 0,1.92 0,3.84 0,5.75 0,0.89 -0.24,1.25 -1.15,1.15 a 20.28,20.28 0 0 0 -2.08,0 v -5.89 c 0,-1.74 -0.2,-1.95 -1.9,-1.95 -1.2,0 -2.4,0 -3.6,0 -1,0 -1.38,0.41 -1.37,1.37 0,1.68 0,3.35 0,5 z"
     id="path30"
     inkscape:connector-curvature="0"
     style="fill:#ffffff" />
  <path
     d="m 203.03689,73.990299 h 3.15 c 0,1.57 0.08,3.08 0,4.58 a 2.64,2.64 0 0 1 -2.53,2.13 h -1.88 v 3.23 h -3.44 v -3.23 h -1.74 a 2.62,2.62 0 0 1 -2.8,-2.85 v -3.86 h 3.17 c 0,1 0,2 0,2.94 0,0.94 0.37,1.5 1.39,1.48 1.02,-0.02 2.16,0 3.24,0 1.08,0 1.43,-0.5 1.41,-1.48 -0.02,-0.98 0.03,-1.9 0.03,-2.94 z"
     id="path32"
     inkscape:connector-curvature="0"
     style="fill:#ffffff" />
  <path
     d="m 183.01689,87.940299 c 0.26,1.19 0.51,2.35 0.77,3.51 h 0.2 l 0.57,-3.52 h 2.55 c -0.28,1.88 -0.54,3.71 -0.82,5.54 -0.33,2.1 -1,2.57 -3.16,2.07 a 1,1 0 0 1 -0.57,-0.61 10.22,10.22 0 0 0 -0.57,-1.79 l -0.55,2.36 c -0.27,0 -0.51,0.06 -0.74,0.06 h -2.49 l -0.61,-3.81 c -0.2,-1.26 -0.39,-2.52 -0.6,-3.84 h 2.59 c 0.18,1.26 0.36,2.48 0.54,3.69 h 0.16 l 0.82,-3.7 z"
     id="path34"
     inkscape:connector-curvature="0"
     style="fill:#ffffff" />
  <path
     d="m 148.33689,87.930299 c 0.14,2.57 0.29,5 0.43,7.54 h -2.55 c -0.07,-1 -0.15,-2 -0.22,-3 h -0.15 c -0.18,0.68 -0.4,1.35 -0.53,2 -0.13,0.65 -0.36,1.1 -1.22,1.08 -0.86,-0.02 -1.15,-0.26 -1.25,-1.05 a 5.14,5.14 0 0 0 -0.66,-1.86 c -0.09,0.89 -0.18,1.79 -0.27,2.78 h -2.58 c 0.15,-2.49 0.3,-4.94 0.45,-7.5 h 3.27 l 0.85,3.27 0.21,0.05 c 0.31,-1.12 0.61,-2.24 0.92,-3.37 z"
     id="path36"
     inkscape:connector-curvature="0"
     style="fill:#ffffff" />
  <path
     d="m 228.33689,83.920299 h -3.26 c 0,-2.21 0,-4.36 0,-6.5 0,-1 -0.22,-1.39 -1.26,-1.3 -1.04,0.09 -1.82,0 -2.81,0 v -2.18 h 11.33 v 2.18 a 20,20 0 0 1 -2.57,0 c -1.28,-0.17 -1.56,0.38 -1.51,1.55 0.08,2.03 0.08,4.07 0.08,6.25 z"
     id="path38"
     inkscape:connector-curvature="0"
     style="fill:#ffffff" />
  <path
     d="m 39.586891,73.940299 v 2.2 c -0.61,0 -1.22,0 -1.84,0 -2.56,0 -2.25,-0.36 -2.26,2.33 0,1.78 0,3.57 0,5.43 h -3.22 c 0,-2.23 0,-4.41 0,-6.6 0,-0.88 -0.24,-1.24 -1.15,-1.18 -0.91,0.06 -1.9,0 -2.92,0 v -2.2 z"
     id="path40"
     inkscape:connector-curvature="0"
     style="fill:#ffffff" />
  <path
     d="m 171.16689,83.910299 h -3.17 v -6.13 c 0,-1.64 0,-1.64 -1.64,-1.64 h -2.45 v -2.19 h 11.35 v 2.19 c -1,0 -2,0 -3,0 -0.83,0 -1.13,0.28 -1.12,1.1 0.05,2.19 0.03,4.37 0.03,6.67 z"
     id="path42"
     inkscape:connector-curvature="0"
     style="fill:#ffffff" />
  <path
     d="m 72.336891,83.900299 c 0,-2.14 0,-4.24 0,-6.34 0,-1.07 -0.24,-1.56 -1.39,-1.44 a 26.61,26.61 0 0 1 -2.69,0 v -2.18 h 11.27 v 2.18 a 25.21,25.21 0 0 1 -2.61,0 c -1.19,-0.12 -1.5,0.38 -1.45,1.5 0.08,2.07 0,4.14 0,6.28 z"
     id="path44"
     inkscape:connector-curvature="0"
     style="fill:#ffffff" />
  <path
     d="m 156.21689,95.560299 v -7.67 c 1.57,0 3.08,-0.06 4.59,0 1.19,0.07 1.77,1.13 1.39,2.39 a 7,7 0 0 1 -0.63,1.2 2.05,2.05 0 0 1 1,2.71 2.23,2.23 0 0 1 -1.45,1.29 46,46 0 0 1 -4.9,0.08 z m 2.56,-1.54 a 13.3,13.3 0 0 0 1.31,-0.75 c 0,0 -0.14,-0.57 -0.31,-0.63 a 3,3 0 0 0 -1,0 z"
     id="path46"
     inkscape:connector-curvature="0"
     style="fill:#ffffff" />
  <path
     d="m 83.496891,87.960299 v 7.52 h -2.45 v -2.51 h -1.77 v 2.53 h -2.51 v -7.53 h 2.46 v 2.52 h 1.77 v -2.53 z"
     id="path48"
     inkscape:connector-curvature="0"
     style="fill:#ffffff" />
  <path
     d="m 131.58689,91.740299 v -0.48 c 0,-1.28 0.19,-2.56 1.49,-3.16 a 4.76,4.76 0 0 1 4.49,0.14 2.24,2.24 0 0 1 1,1.43 13.33,13.33 0 0 1 0.12,3.78 c -0.29,1.84 -1.62,2.5 -4.08,2.32 a 2.83,2.83 0 0 1 -3,-2.83 c 0,-0.4 0,-0.8 0,-1.2 z m 2.66,2 c 0.77,-0.38 1.8,0.35 1.92,-0.91 0.08,-1 0,-2 0,-2.92 -1.85,-0.27 -1.93,-0.21 -1.93,1.41 z"
     id="path50"
     inkscape:connector-curvature="0"
     style="fill:#ffffff" />
  <path
     d="m 163.58689,87.880299 c 1.26,0 2.41,0 3.56,0 1.15,0 2.14,0.1 2.61,1.25 a 3.44,3.44 0 0 1 -0.32,3.52 5.5,5.5 0 0 1 -0.42,0.45 l 1.09,2.31 c -2.14,0.86 -3.14,-0.35 -3.76,-2.25 l -0.31,0.23 -0.12,2.12 h -2.33 z m 2.86,1.76 -0.39,0.31 v 1.32 l 0.28,0.26 1,-0.83 z"
     id="path52"
     inkscape:connector-curvature="0"
     style="fill:#ffffff" />
  <path
     d="m 89.826891,87.970299 2,7.54 h -2.54 c -0.15,-1 -0.82,-1.34 -1.82,-1.12 -0.18,0 -0.49,0.09 -0.51,0.2 -0.43,1.77 -1.8,0.68 -3,1.09 0.38,-1.51 0.71,-2.8 1,-4.09 0,-0.19 0.09,-0.38 0.14,-0.58 0.93,-3.45 0.94,-3.45 4.73,-3.04 z"
     id="path54"
     inkscape:connector-curvature="0"
     style="fill:#ffffff" />
  <path
     d="m 126.39689,92.970299 v 2.51 h -2.39 v -7.52 h 2.33 v 2.47 h 1.87 v -2.52 h 2.42 v 7.56 h -2.29 l -0.12,-2.54 z"
     id="path56"
     inkscape:connector-curvature="0"
     style="fill:#ffffff" />
  <path
     d="m 111.51689,87.700299 -0.33,2.24 h -2.91 v 0.34 c 0.4,0.09 0.8,0.2 1.21,0.27 2,0.3 2.79,1.38 2.44,3.21 -0.2,1 -0.73,1.83 -1.85,1.89 -1.49,0.08 -3,0 -4.63,0 l 0.31,-2.12 h 3.49 l 0.07,-0.33 a 7.75,7.75 0 0 0 -1.22,-0.3 c -2.25,-0.24 -3.36,-2.17 -2.2,-4.11 a 2.84,2.84 0 0 1 1.85,-1.06 28.23,28.23 0 0 1 3.77,-0.03 z"
     id="path58"
     inkscape:connector-curvature="0"
     style="fill:#ffffff" />
  <path
     d="m 104.89689,95.430299 c -2.35,0.86 -3.25,-0.45 -4,-2.26 v 2.36 h -2.439999 v -7.53 h 2.329999 v 2.19 l 0.25,0.07 c 0.38,-0.75 0.58,-1.77 1.19,-2.17 0.61,-0.4 1.61,-0.16 2.65,-0.21 -0.52,1.11 -1,2 -1.38,3 a 2.57,2.57 0 0 0 0,1.62 31.83,31.83 0 0 0 1.4,2.93 z"
     id="path60"
     inkscape:connector-curvature="0"
     style="fill:#ffffff" />
  <path
     d="m 171.11689,87.920299 h 5.38 l -0.25,1.74 c -0.9,0.15 -1.77,0.28 -2.63,0.46 a 4.46,4.46 0 0 0 0,0.71 l 2.29,0.11 v 1.76 c -0.58,0 -1.17,0 -1.75,0 -0.21,0 -0.4,0.25 -0.6,0.39 0.21,0.16 0.41,0.45 0.63,0.47 0.75,0.06 1.5,0 2.31,0 v 1.88 h -5.42 z"
     id="path62"
     inkscape:connector-curvature="0"
     style="fill:#ffffff" />
  <path
     d="m 155.11689,93.600299 v 1.89 h -5.39 v -7.53 h 5.35 l -0.24,1.79 -2.49,0.12 c -0.26,0.67 -0.15,1 0.61,1 0.52,0 1,0 1.62,0 v 1.82 a 16.13,16.13 0 0 0 -1.7,0 c -0.23,0 -0.43,0.31 -0.64,0.47 0.2,0.14 0.39,0.37 0.6,0.39 0.71,0.08 1.43,0.05 2.28,0.05 z"
     id="path64"
     inkscape:connector-curvature="0"
     style="fill:#ffffff" />
  <path
     d="m 95.836891,73.850299 h 3.07 v 10.06 h -3.07 z"
     id="path66"
     inkscape:connector-curvature="0"
     style="fill:#ffffff" />
  <path
     d="m 97.566891,88.030299 -0.33,1.63 c -0.11,0.06 -0.18,0.13 -0.25,0.14 -0.76,0.09 -2.07,0 -2.19,0.29 a 8.48,8.48 0 0 0 -0.23,3 c 0,0.17 0.41,0.47 0.64,0.48 a 21.48,21.48 0 0 0 2.15,-0.11 l 0.2,1.87 c -1.84,0.73 -4.07,0.47 -4.91,-0.53 -1,-1.18 -1.11,-4.54 -0.2,-5.94 0.78,-1.16 2.63,-1.51 5.12,-0.83 z"
     id="path68"
     inkscape:connector-curvature="0"
     style="fill:#ffffff" />
  <path
     d="m 118.65689,88.980299 v 1.75 l 1.84,0.13 v 1.74 l -1.82,0.12 v 1.78 h -1.73 l -0.14,-1.77 -1.75,-0.12 v -1.73 l 1.71,-0.14 0.21,-1.76 z"
     id="path70"
     inkscape:connector-curvature="0"
     style="fill:#ffffff" />
  <path
     d="m 58.106891,47.640299 c -2.9,0 -5.77,0 -8.63,0 -0.34,0 -0.74,-0.54 -1,-0.91 q -6.26,-9.64 -12.49,-19.32 c -0.21,-0.32 -0.44,-0.63 -0.84,-1.21 v 21.4 h -9 v -30 h 1.26 c 2.47,0 5,0 7.43,0 a 1.54,1.54 0 0 1 1.5,0.83 c 3.89,6.18 7.82,12.35 11.73,18.52 0.25,0.38 0.52,0.76 1,1.44 v -20.75 h 9 z"
     id="path72"
     inkscape:connector-curvature="0"
     style="fill:#ffffff" />
  <path
     d="m 199.64689,28.430299 v -10.8 h 9 v 30 c -0.43,0 -0.85,0.07 -1.27,0.07 a 37.05,37.05 0 0 1 -5.87,-0.06 c -2.08,-0.33 -3.94,0.22 -5.9,0.57 -5.93,1.07 -11.3,-2.93 -12.54,-9.26 a 10.58,10.58 0 0 1 8.39,-12.1 10.26,10.26 0 0 1 6.74,1 z m -7,9.35 v 4 c 0.06,1.81 0.76,2.62 2.57,2.85 a 8.24,8.24 0 0 0 1.79,0 c 1.79,-0.17 2.6,-1 2.62,-2.79 0,-2.72 0.06,-5.43 0,-8.15 0,-2.26 -1.44,-3.69 -3.42,-3.68 -1.98,0.01 -3.47,1.43 -3.55,3.71 -0.01,1.38 0.03,2.71 0.02,4.1 z"
     id="path74"
     inkscape:connector-curvature="0"
     style="fill:#ffffff" />
  <path
     d="m 77.896891,27.360299 h 9 l 0.15,1.9 c 1,-0.52 1.83,-1 2.69,-1.45 5.18,-2.87 11.169999,-0.63 14.239999,4 a 3,3 0 0 1 0.55,1.56 c 0,4.71 0,9.42 0,14.2 -0.38,0 -0.68,0.11 -1,0.11 -2.4,0 -4.799999,0 -7.199999,0 -0.89,0 -1.17,-0.24 -1.16,-1.15 0,-4 0,-8.07 0,-12.11 a 3.76,3.76 0 0 0 -4.72,-3.49 7.31,7.31 0 0 0 -2.52,1.31 3.13,3.13 0 0 0 -1,2 c -0.09,4 0,8 0,12 v 1.35 h -9 z"
     id="path76"
     inkscape:connector-curvature="0"
     style="fill:#ffffff" />
  <path
     d="m 180.10689,48.310299 h -9.23 v -13.2 a 3.84,3.84 0 0 0 -4.76,-3.5 10.91,10.91 0 0 0 -1.86,0.81 2.92,2.92 0 0 0 -1.72,3 c 0.1,3.84 0,7.68 0,11.52 v 1.37 h -9 v -20.21 h 9 l 0.09,1.9 c 1,-0.57 2,-1.1 2.9,-1.59 a 10.82,10.82 0 0 1 14.15,4.28 3.89,3.89 0 0 1 0.51,1.93 c 0,4.36 0,8.72 0,13.08 a 5.7,5.7 0 0 1 -0.08,0.61 z"
     id="path78"
     inkscape:connector-curvature="0"
     style="fill:#ffffff" />
  <path
     d="m 225.60689,49.020299 a 14.82,14.82 0 0 1 -8.37,-2.48 c -6.5,-4.39 -6.57,-12.88 -0.14,-17.38 a 15.46,15.46 0 0 1 17.83,0.58 c 5.31,4.26 5.49,11.28 0.39,15.8 a 14.7,14.7 0 0 1 -9.71,3.48 z m -3.52,-11.29 c 0,1.92 0,3.84 0,5.76 a 2.43,2.43 0 0 0 2.36,2.66 8.53,8.53 0 0 0 2,0.05 2.49,2.49 0 0 0 2.57,-2.73 c 0,-3.8 0.06,-7.6 0,-11.4 a 3.2,3.2 0 0 0 -3.53,-3.37 3.25,3.25 0 0 0 -3.41,3.52 c -0.01,1.83 0.01,3.67 0.01,5.51 z"
     id="path80"
     inkscape:connector-curvature="0"
     style="fill:#ffffff" />
  <path
     d="m 140.22689,40.660299 h 9.25 a 11.44,11.44 0 0 1 -0.4,1.21 11.21,11.21 0 0 1 -4.11,4.73 15.33,15.33 0 0 1 -17.62,-0.75 c -5.53,-4.49 -5.44,-11.93 0.2,-16.26 6.22,-4.78 16.07,-3.66 20.49,2.33 a 8.37,8.37 0 0 1 1.78,5.78 h -16.48 c 0,2.25 0,4.43 0,6.6 a 1.72,1.72 0 0 0 0.32,0.77 c 0.66,1.06 2.53,1.5 4.4,1 a 2.58,2.58 0 0 0 2.14,-2.67 c 0.06,-0.86 0.03,-1.77 0.03,-2.74 z m -6.95,-6.42 h 6.89 c 0.13,-1.94 0.3,-3.82 -1.57,-5 a 3.41,3.41 0 0 0 -3.95,0 c -1.79,1.29 -1.37,3.19 -1.37,5 z"
     id="path82"
     inkscape:connector-curvature="0"
     style="fill:#ffffff" />
  <path
     d="m 119.21689,24.580299 h 4.68 v 2.73 h -4.63 v 20.23 h -9.31 v -20.2 h -4.71 v -2.76 h 4.66 v -4.25 h 9.31 z"
     id="path84"
     inkscape:connector-curvature="0"
     style="fill:#ffffff" />
  <path
     d="m 63.916891,27.340299 h 8.84 v 20.21 h -8.84 z"
     id="path86"
     inkscape:connector-curvature="0"
     style="fill:#ffffff" />
  <path
     d="m 63.906891,22.980299 v -5.42 h 8.88 v 5.42 z"
     id="path88"
     inkscape:connector-curvature="0"
     style="fill:#ffffff" />
</svg>
