<?xml version="1.0" encoding="UTF-8" standalone="no"?>
<svg
   xmlns:dc="http://purl.org/dc/elements/1.1/"
   xmlns:cc="http://creativecommons.org/ns#"
   xmlns:rdf="http://www.w3.org/1999/02/22-rdf-syntax-ns#"
   xmlns:svg="http://www.w3.org/2000/svg"
   xmlns="http://www.w3.org/2000/svg"
   xmlns:sodipodi="http://sodipodi.sourceforge.net/DTD/sodipodi-0.dtd"
   xmlns:inkscape="http://www.inkscape.org/namespaces/inkscape"
   version="1.1"
   id="svg20"
   sodipodi:docname="ngp.svg"
   width="264"
   height="57.999992"
   inkscape:version="0.92.5 (2060ec1f9f, 2020-04-08)">
  <metadata
     id="metadata26">
    <rdf:RDF>
      <cc:Work
         rdf:about="">
        <dc:format>image/svg+xml</dc:format>
        <dc:type
           rdf:resource="http://purl.org/dc/dcmitype/StillImage" />
      </cc:Work>
    </rdf:RDF>
  </metadata>
  <defs
     id="defs24" />
  <sodipodi:namedview
     pagecolor="#ffffff"
     bordercolor="#666666"
     borderopacity="1"
     objecttolerance="10"
     gridtolerance="10"
     guidetolerance="10"
     inkscape:pageopacity="0"
     inkscape:pageshadow="2"
     inkscape:window-width="532"
     inkscape:window-height="460"
     id="namedview22"
     showgrid="false"
     inkscape:zoom="2.36"
     inkscape:cx="50"
     inkscape:cy="7.999993"
     inkscape:window-x="72"
     inkscape:window-y="27"
     inkscape:window-maximized="0"
     inkscape:current-layer="svg20" />
  <g
     transform="scale(0.44,0.438935)"
     id="g18">
    <path
       d="M 35.961,115.284 35.889,71.271 h 5.7 v 52.701 h -5.7 L 5.556,79.602 5.697,123.972 H 0 V 71.271 h 5.982 z"
       id="path7"
       style="fill:#ffffff;fill-opacity:1"
       inkscape:connector-curvature="0" />
    <path
       d="m 47.952,71.271 h 27.96 V 76.47 H 53.793 v 18.303 h 21.978 v 5.199 H 53.793 v 18.801 h 22.119 v 5.199 h -27.96 z"
       id="path9"
       style="fill:#ffffff;fill-opacity:1"
       inkscape:connector-curvature="0" />
    <path
       d="m 78.573,97.764 c 0,-16.236 12.606,-27.42 27.492,-27.42 15.453,0 27.489,11.823 27.489,27.276 0,15.456 -11.964,27.279 -27.489,27.279 -15.597,0 -27.492,-12.036 -27.492,-27.063 z m 5.91,-0.144 c 0,12.393 9.33,22.08 21.651,22.08 12.465,0 21.582,-10.041 21.582,-22.08 0,-12.036 -9.117,-22.077 -21.651,-22.077 -12.393,0 -21.582,9.828 -21.582,22.005 z"
       id="path11"
       style="fill:#ffffff;fill-opacity:1"
       inkscape:connector-curvature="0" />
    <path
       d="m 182.202,84.945 c -1.638,-2.28 -3.633,-4.203 -5.91,-5.697 -3.42,-2.352 -7.551,-3.705 -12.249,-3.705 -11.538,0 -21.579,8.832 -21.579,22.005 0,13.389 10.113,22.221 21.648,22.221 5.556,0 10.47,-1.92 14.103,-4.77 3.705,-2.922 6.267,-6.909 7.122,-11.043 h -28.686 v -4.842 h 35.523 c -0.072,3.063 -0.783,6.909 -2.352,10.185 -4.557,9.9 -15.099,15.669 -25.71,15.669 -15.381,0 -27.561,-11.823 -27.561,-27.42 0,-15.81 12.393,-27.207 27.633,-27.207 10.683,0 20.583,5.985 24.714,14.601 h -6.696 z"
       id="path13"
       style="fill:#ffffff;fill-opacity:1"
       inkscape:connector-curvature="0" />
    <path
       d="m 195,71.271 h 29.199 v 5.199 h -23.358 v 18.303 h 23.214 v 5.199 h -23.214 v 18.801 h 23.358 v 5.199 H 195 Z"
       id="path15"
       style="fill:#ffffff;fill-opacity:1"
       inkscape:connector-curvature="0" />
    <path
       d="m 226.548,97.764 c 0,-16.236 12.606,-27.42 27.492,-27.42 15.453,0 27.489,11.823 27.489,27.276 0,15.456 -11.964,27.279 -27.489,27.279 -15.597,0 -27.492,-12.036 -27.492,-27.063 z m 5.913,-0.144 c 0,12.393 9.327,22.08 21.648,22.08 12.465,0 21.579,-10.041 21.579,-22.08 0,-12.036 -9.114,-22.077 -21.648,-22.077 -12.393,0 -21.579,9.828 -21.579,22.005 z"
       id="path17"
       style="fill:#ffffff;fill-opacity:1"
       inkscape:connector-curvature="0" />
    <path
       d="m 346.569,97.764 c 0,-16.236 12.606,-27.42 27.492,-27.42 15.456,0 27.492,11.823 27.492,27.276 0,15.456 -11.964,27.279 -27.492,27.279 -15.597,0 -27.492,-12.036 -27.492,-27.063 z m 5.91,-0.144 c 0,12.393 9.33,22.08 21.654,22.08 12.462,0 21.579,-10.041 21.579,-22.08 0,-12.036 -9.114,-22.077 -21.651,-22.077 -12.39,0 -21.582,9.828 -21.582,22.005 z"
       id="path21"
       style="fill:#ffffff;fill-opacity:1"
       inkscape:connector-curvature="0" />
    <path
       d="m 460.377,109.8 c -3.417,8.121 -12.603,15.102 -24.213,15.102 -15.597,0 -27.489,-12.039 -27.489,-27.279 0,-15.027 11.607,-27.276 27.417,-27.276 13.032,0 21.222,8.688 24.285,15.384 h -6.339 c -1.782,-3.135 -7.764,-10.185 -17.946,-10.185 -12.321,0 -21.579,9.756 -21.579,22.005 0,12.465 9.327,22.149 21.579,22.149 11.04,0 16.665,-7.905 17.946,-9.9 z"
       id="path23"
       style="fill:#ffffff;fill-opacity:1"
       inkscape:connector-curvature="0" />
    <path
       d="m 518.208,71.271 h 29.202 v 5.199 h -23.358 v 18.303 h 23.214 v 5.199 h -23.214 v 18.801 h 23.358 v 5.199 h -29.202 z"
       id="path25"
       style="fill:#ffffff;fill-opacity:1"
       inkscape:connector-curvature="0" />
    <path
       d="M 577.035,76.47 H 560.052 V 71.271 H 600 v 5.199 h -17.052 v 47.502 h -5.913 z"
       id="path27"
       style="fill:#ffffff;fill-opacity:1"
       inkscape:connector-curvature="0" />
    <path
       d="m 503.319,123.972 h 7.335 l -27.381,-26.424 25.17,-26.28 h -6.408 L 474.408,99.843 V 93.072 71.271 h -5.841 v 52.701 h 5.841 v -17.175 l 5.376,-5.616 z"
       id="path29"
       style="fill:#ffffff;fill-opacity:1"
       inkscape:connector-curvature="0" />
    <path
       d="M 320.457,128.001 C 308.988,105.189 297.549,82.44 286.104,59.673 c 0.063,-0.045 0.114,-0.087 0.171,-0.117 2.856,-1.461 5.712,-2.919 8.565,-4.38 4.032,-2.058 8.07,-4.107 12.099,-6.177 4.236,-2.178 8.688,-3.486 13.494,-3.33 3.273,0.105 6.27,1.056 8.904,3.063 2.322,1.773 3.963,4.074 5.223,6.675 1.194,2.466 2.046,5.037 2.094,7.806 0.069,3.849 -1.095,7.329 -3.159,10.56 -1.38,2.16 -2.958,4.149 -4.809,5.91 -1.275,1.212 -2.637,2.331 -3.957,3.492 -4.836,-3.432 -9.567,-6.786 -14.319,-10.155 0.9,-3.294 1.791,-6.558 2.685,-9.831 4.617,0 9.168,0 13.695,0 0,-3.468 0,-6.909 0,-10.398 -7.071,0.069 -14.064,0.135 -21.057,0.204 -2.547,7.2 -5.082,14.358 -7.62,21.531 8.187,6.771 16.344,13.518 24.51,20.274 3.246,-1.239 6.324,-2.763 9.222,-4.644 4.617,-3 8.466,-6.768 11.292,-11.514 2.628,-4.413 3.945,-9.219 4.017,-14.352 0.045,-3.18 -0.438,-6.288 -1.374,-9.336 -1.239,-4.041 -3.159,-7.695 -6.09,-10.758 -5.49,-5.751 -12.225,-8.841 -20.193,-9.126 -4.71,-0.165 -9.165,0.897 -13.368,3.009 -1.893,0.951 -3.747,1.98 -5.655,2.904 -4.242,2.052 -8.508,4.062 -12.765,6.084 -3.753,1.785 -7.509,3.561 -11.262,5.34 -1.269,0.603 -2.541,1.206 -3.81,1.812 12.747,25.992 25.482,51.957 38.208,77.919 3.228,-1.389 6.39,-2.751 9.612,-4.137 z"
       id="path31"
       style="fill:#ffffff;fill-opacity:1"
       inkscape:connector-curvature="0" />
    <path
       d="m 320.457,128.001 c -3.225,1.386 -6.384,2.748 -9.615,4.137 -12.726,-25.962 -25.461,-51.927 -38.211,-77.919 1.272,-0.603 2.541,-1.209 3.81,-1.809 3.756,-1.782 7.509,-3.558 11.265,-5.343 4.254,-2.022 8.52,-4.032 12.765,-6.084 1.905,-0.921 3.759,-1.95 5.652,-2.904 4.203,-2.112 8.658,-3.174 13.368,-3.006 7.968,0.282 14.703,3.372 20.196,9.123 2.928,3.063 4.848,6.717 6.09,10.758 0.936,3.048 1.419,6.159 1.374,9.339 -0.075,5.13 -1.389,9.936 -4.017,14.349 -2.829,4.746 -6.675,8.514 -11.295,11.517 -2.898,1.878 -5.976,3.402 -9.219,4.641 -8.166,-6.756 -16.326,-13.503 -24.513,-20.274 2.538,-7.173 5.073,-14.331 7.623,-21.528 6.993,-0.069 13.986,-0.138 21.057,-0.204 0,3.486 0,6.927 0,10.395 -4.527,0 -9.078,0 -13.695,0 -0.894,3.273 -1.785,6.537 -2.688,9.834 4.752,3.369 9.486,6.723 14.322,10.152 1.32,-1.158 2.682,-2.28 3.957,-3.492 1.848,-1.761 3.426,-3.747 4.809,-5.91 2.061,-3.231 3.225,-6.711 3.159,-10.56 -0.051,-2.769 -0.9,-5.337 -2.094,-7.806 -1.257,-2.601 -2.904,-4.902 -5.226,-6.675 -2.631,-2.004 -5.631,-2.955 -8.901,-3.063 -4.806,-0.156 -9.258,1.152 -13.494,3.33 -4.029,2.07 -8.067,4.119 -12.102,6.18 -2.853,1.458 -5.709,2.919 -8.562,4.38 -0.057,0.03 -0.111,0.072 -0.174,0.114 11.451,22.767 22.89,45.516 34.359,68.328 z"
       id="path33"
       style="fill:#ffffff;fill-opacity:1"
       inkscape:connector-curvature="0" />
    <path
       d="m 328.548,28.074 c -2.286,-0.471 -4.512,-0.93 -6.798,-1.401 1.332,-8.886 2.661,-17.769 3.996,-26.673 4.164,0.606 8.289,1.212 12.477,1.824 -3.231,8.772 -6.447,17.493 -9.675,26.25 z"
       id="path35"
       style="fill:#ffffff;fill-opacity:1"
       inkscape:connector-curvature="0" />
    <path
       d="m 365.697,20.826 c 2.211,3.579 4.389,7.113 6.606,10.704 -7.218,4.467 -14.433,8.931 -21.666,13.41 -1.518,-2.265 -3.006,-4.488 -4.53,-6.765 6.525,-5.778 13.038,-11.544 19.59,-17.349 z"
       id="path37"
       style="fill:#ffffff;fill-opacity:1"
       inkscape:connector-curvature="0" />
    <path
       d="m 348.267,6.861 c 3.192,2.205 6.327,4.374 9.474,6.549 -5.688,6.786 -11.364,13.554 -17.076,20.364 -1.998,-1.233 -3.978,-2.457 -6.015,-3.714 4.521,-7.698 9.048,-15.417 13.617,-23.199 z"
       id="path39"
       style="fill:#ffffff;fill-opacity:1"
       inkscape:connector-curvature="0" />
  </g>
</svg>
