<?xml version="1.0" encoding="UTF-8" standalone="no"?>
<svg
   xmlns:dc="http://purl.org/dc/elements/1.1/"
   xmlns:cc="http://creativecommons.org/ns#"
   xmlns:rdf="http://www.w3.org/1999/02/22-rdf-syntax-ns#"
   xmlns:svg="http://www.w3.org/2000/svg"
   xmlns="http://www.w3.org/2000/svg"
   xmlns:sodipodi="http://sodipodi.sourceforge.net/DTD/sodipodi-0.dtd"
   xmlns:inkscape="http://www.inkscape.org/namespaces/inkscape"
   version="1.1"
   id="svg25"
   sodipodi:docname="ngpc.svg"
   width="264"
   height="77.984283"
   inkscape:version="0.92.5 (2060ec1f9f, 2020-04-08)">
  <metadata
     id="metadata31">
    <rdf:RDF>
      <cc:Work
         rdf:about="">
        <dc:format>image/svg+xml</dc:format>
        <dc:type
           rdf:resource="http://purl.org/dc/dcmitype/StillImage" />
      </cc:Work>
    </rdf:RDF>
  </metadata>
  <defs
     id="defs29" />
  <sodipodi:namedview
     pagecolor="#ffffff"
     bordercolor="#666666"
     borderopacity="1"
     objecttolerance="10"
     gridtolerance="10"
     guidetolerance="10"
     inkscape:pageopacity="0"
     inkscape:pageshadow="2"
     inkscape:window-width="640"
     inkscape:window-height="480"
     id="namedview27"
     showgrid="false"
     inkscape:zoom="2.36"
     inkscape:cx="50"
     inkscape:cy="27.98428"
     inkscape:window-x="72"
     inkscape:window-y="27"
     inkscape:window-maximized="0"
     inkscape:current-layer="svg25" />
  <g
     transform="scale(0.44)"
     id="g23">
    <path
       d="M 35.961,115.284 35.889,71.271 h 5.7 v 52.701 h -5.7 L 5.556,79.602 5.697,123.972 H 0 V 71.271 h 5.982 z"
       id="path7"
       style="fill:#ffffff;fill-opacity:1"
       inkscape:connector-curvature="0" />
    <path
       d="m 47.952,71.271 h 27.96 V 76.47 H 53.793 v 18.303 h 21.978 v 5.199 H 53.793 v 18.801 h 22.119 v 5.199 h -27.96 z"
       id="path9"
       style="fill:#ffffff;fill-opacity:1"
       inkscape:connector-curvature="0" />
    <path
       d="m 78.573,97.764 c 0,-16.236 12.606,-27.42 27.492,-27.42 15.453,0 27.489,11.823 27.489,27.276 0,15.456 -11.964,27.279 -27.489,27.279 -15.597,0 -27.492,-12.039 -27.492,-27.066 z m 5.91,-0.144 c 0,12.393 9.33,22.08 21.651,22.08 12.465,0 21.582,-10.041 21.582,-22.08 0,-12.036 -9.117,-22.077 -21.651,-22.077 -12.393,0 -21.582,9.828 -21.582,22.005 z"
       id="path11"
       style="fill:#ffffff;fill-opacity:1"
       inkscape:connector-curvature="0" />
    <path
       d="m 182.202,84.945 c -1.638,-2.28 -3.633,-4.203 -5.91,-5.697 -3.42,-2.352 -7.551,-3.705 -12.249,-3.705 -11.538,0 -21.579,8.832 -21.579,22.005 0,13.389 10.113,22.221 21.648,22.221 5.556,0 10.47,-1.92 14.103,-4.77 3.705,-2.922 6.267,-6.909 7.122,-11.043 h -28.686 v -4.842 h 35.523 c -0.072,3.063 -0.783,6.909 -2.352,10.185 -4.557,9.9 -15.099,15.669 -25.71,15.669 -15.381,0 -27.561,-11.823 -27.561,-27.42 0,-15.81 12.393,-27.207 27.633,-27.207 10.683,0 20.583,5.985 24.714,14.601 h -6.696 z"
       id="path13"
       style="fill:#ffffff;fill-opacity:1"
       inkscape:connector-curvature="0" />
    <path
       d="m 195,71.271 h 29.199 v 5.199 h -23.358 v 18.303 h 23.214 v 5.199 h -23.214 v 18.801 h 23.358 v 5.199 H 195 Z"
       id="path15"
       style="fill:#ffffff;fill-opacity:1"
       inkscape:connector-curvature="0" />
    <path
       d="m 226.548,97.764 c 0,-16.236 12.606,-27.42 27.492,-27.42 15.453,0 27.489,11.823 27.489,27.276 0,15.456 -11.964,27.279 -27.489,27.279 -15.597,0 -27.492,-12.039 -27.492,-27.066 z m 5.913,-0.144 c 0,12.393 9.327,22.08 21.648,22.08 12.465,0 21.579,-10.041 21.579,-22.08 0,-12.036 -9.114,-22.077 -21.648,-22.077 -12.393,0 -21.579,9.828 -21.579,22.005 z"
       id="path17"
       style="fill:#ffffff;fill-opacity:1"
       inkscape:connector-curvature="0" />
    <path
       d="m 346.569,97.764 c 0,-16.236 12.606,-27.42 27.492,-27.42 15.456,0 27.492,11.823 27.492,27.276 0,15.456 -11.964,27.279 -27.492,27.279 -15.597,0 -27.492,-12.039 -27.492,-27.066 z m 5.91,-0.144 c 0,12.393 9.33,22.08 21.654,22.08 12.462,0 21.579,-10.041 21.579,-22.08 0,-12.036 -9.114,-22.077 -21.651,-22.077 -12.39,0 -21.582,9.828 -21.582,22.005 z"
       id="path21"
       style="fill:#ffffff;fill-opacity:1"
       inkscape:connector-curvature="0" />
    <path
       d="m 460.377,109.8 c -3.417,8.121 -12.603,15.102 -24.213,15.102 -15.597,0 -27.492,-12.039 -27.492,-27.276 0,-15.03 11.61,-27.279 27.417,-27.279 13.032,0 21.225,8.691 24.285,15.384 h -6.339 c -1.782,-3.132 -7.761,-10.185 -17.946,-10.185 -12.321,0 -21.579,9.756 -21.579,22.005 0,12.465 9.327,22.152 21.579,22.152 11.043,0 16.665,-7.908 17.946,-9.9 z"
       id="path23"
       style="fill:#ffffff;fill-opacity:1"
       inkscape:connector-curvature="0" />
    <path
       d="m 518.208,71.271 h 29.202 v 5.199 h -23.358 v 18.303 h 23.214 v 5.199 h -23.214 v 18.801 h 23.358 v 5.199 h -29.202 z"
       id="path25"
       style="fill:#ffffff;fill-opacity:1"
       inkscape:connector-curvature="0" />
    <path
       d="M 577.035,76.47 H 560.052 V 71.271 H 600 v 5.199 h -17.052 v 47.502 h -5.913 z"
       id="path27"
       style="fill:#ffffff;fill-opacity:1"
       inkscape:connector-curvature="0" />
    <path
       d="m 226.743,164.583 c -2.172,7.389 -9.129,12.654 -17.484,12.654 -10.917,0 -18.741,-8.646 -18.741,-18.594 0,-9.513 7.389,-18.498 18.693,-18.498 10.287,0.051 16.131,7.632 17.532,12.849 h -7.584 c -1.11,-2.463 -4.296,-6.471 -9.996,-6.519 -6.957,0 -11.448,5.841 -11.448,12.171 0,6.519 4.686,12.27 11.496,12.27 6.375,0 9.273,-5.025 9.948,-6.33 z"
       id="path29"
       style="fill:#ffffff;fill-opacity:1"
       inkscape:connector-curvature="0" />
    <path
       d="m 246.015,158.979 c 0,-11.445 8.79,-18.837 18.741,-18.837 10.818,0 18.789,8.403 18.789,18.546 0,10.143 -7.923,18.546 -18.837,18.546 -10.965,0 -18.693,-8.646 -18.693,-18.207 z m 7.197,-0.288 c 0,6.522 4.686,12.219 11.64,12.219 7.248,0 11.496,-6.279 11.496,-12.171 0,-5.988 -4.248,-12.27 -11.544,-12.27 -7.149,0 -11.592,5.892 -11.592,12.174 z"
       id="path31"
       style="fill:#ffffff;fill-opacity:1"
       inkscape:connector-curvature="0" />
    <path
       d="m 304.797,140.82 h 7.197 v 29.415 h 11.736 v 6.327 h -18.933 z"
       id="path33"
       style="fill:#ffffff;fill-opacity:1"
       inkscape:connector-curvature="0" />
    <path
       d="m 341.427,158.979 c 0,-11.445 8.79,-18.837 18.738,-18.837 10.821,0 18.792,8.403 18.792,18.546 0,10.143 -7.923,18.546 -18.84,18.546 -10.962,0 -18.69,-8.646 -18.69,-18.207 z m 7.197,-0.288 c 0,6.522 4.686,12.219 11.637,12.219 7.248,0 11.496,-6.279 11.496,-12.171 0,-5.988 -4.251,-12.27 -11.541,-12.27 -7.149,0 -11.592,5.892 -11.592,12.174 z"
       id="path35"
       style="fill:#ffffff;fill-opacity:1"
       inkscape:connector-curvature="0" />
    <path
       d="m 503.319,123.972 h 7.335 l -27.381,-26.424 25.17,-26.28 h -6.408 L 474.408,99.843 V 93.072 71.271 h -5.841 v 52.701 h 5.841 v -17.175 l 5.376,-5.616 z"
       id="path37"
       style="fill:#ffffff;fill-opacity:1"
       inkscape:connector-curvature="0" />
    <path
       d="m 408.315,140.82 c 4.02,0.102 7.572,0.309 10.77,2.988 0.822,0.672 1.599,1.545 2.163,2.421 1.65,2.529 1.803,5.358 1.803,6.339 0,0.873 -0.102,3.297 -1.44,5.514 -0.363,0.564 -0.825,1.338 -1.908,2.316 -1.185,1.032 -2.421,1.596 -2.886,1.803 -0.876,0.36 -1.752,0.618 -3.657,1.032 l 10.512,13.962 h -8.091 L 405.48,163.437 v 13.758 h -7.263 v -36.378 z m -2.835,17.262 h 3.609 c 0.411,0 0.771,0 1.185,-0.051 0.771,0 3.348,-0.105 5.049,-2.163 0.411,-0.519 1.134,-1.599 1.134,-3.351 0,-0.567 -0.051,-1.959 -0.981,-3.243 -1.599,-2.166 -4.071,-2.373 -6.546,-2.424 h -3.453 v 11.232 z"
       id="path39"
       style="fill:#ffffff;fill-opacity:1"
       inkscape:connector-curvature="0" />
    <path
       d="M 320.457,128.001 C 308.988,105.189 297.549,82.44 286.104,59.673 c 0.063,-0.045 0.114,-0.09 0.171,-0.117 2.856,-1.461 5.712,-2.922 8.565,-4.38 4.032,-2.058 8.07,-4.11 12.099,-6.18 4.236,-2.175 8.688,-3.483 13.494,-3.33 3.273,0.108 6.27,1.059 8.904,3.066 2.322,1.77 3.963,4.071 5.223,6.672 1.194,2.469 2.046,5.037 2.094,7.809 0.069,3.846 -1.095,7.326 -3.159,10.557 -1.38,2.163 -2.958,4.152 -4.809,5.91 -1.275,1.215 -2.637,2.334 -3.957,3.492 -4.836,-3.429 -9.567,-6.783 -14.319,-10.152 0.903,-3.294 1.791,-6.561 2.685,-9.834 4.617,0 9.168,0 13.695,0 0,-3.468 0,-6.906 0,-10.395 -7.071,0.069 -14.064,0.135 -21.057,0.204 -2.547,7.197 -5.082,14.358 -7.62,21.528 8.187,6.771 16.344,13.521 24.51,20.274 3.246,-1.236 6.324,-2.76 9.222,-4.641 4.617,-3 8.466,-6.771 11.292,-11.517 2.628,-4.41 3.948,-9.216 4.02,-14.349 0.042,-3.18 -0.438,-6.291 -1.374,-9.339 -1.242,-4.038 -3.162,-7.692 -6.093,-10.758 -5.49,-5.748 -12.225,-8.838 -20.193,-9.123 -4.71,-0.168 -9.165,0.897 -13.368,3.009 -1.893,0.951 -3.747,1.98 -5.652,2.904 -4.245,2.052 -8.511,4.059 -12.768,6.081 -3.753,1.785 -7.509,3.564 -11.262,5.343 -1.269,0.603 -2.538,1.206 -3.81,1.809 12.75,25.995 25.482,51.957 38.211,77.922 3.225,-1.389 6.387,-2.751 9.609,-4.137 z"
       id="path41"
       style="fill:#ffffff;fill-opacity:1"
       inkscape:connector-curvature="0" />
    <path
       d="m 320.457,128.001 c -3.225,1.386 -6.384,2.748 -9.615,4.137 -12.726,-25.962 -25.461,-51.927 -38.211,-77.919 1.272,-0.606 2.541,-1.209 3.81,-1.812 3.756,-1.779 7.509,-3.558 11.265,-5.34 4.254,-2.022 8.52,-4.032 12.765,-6.084 1.905,-0.924 3.759,-1.953 5.652,-2.904 4.203,-2.112 8.658,-3.174 13.368,-3.009 7.968,0.285 14.703,3.375 20.196,9.126 2.928,3.063 4.848,6.717 6.09,10.758 0.936,3.045 1.419,6.156 1.374,9.336 -0.072,5.133 -1.389,9.939 -4.017,14.352 -2.829,4.743 -6.678,8.514 -11.298,11.514 -2.895,1.881 -5.973,3.405 -9.219,4.641 -8.163,-6.753 -16.323,-13.5 -24.51,-20.271 2.538,-7.173 5.073,-14.331 7.62,-21.531 6.993,-0.069 13.989,-0.135 21.06,-0.204 0,3.489 0,6.93 0,10.398 -4.53,0 -9.081,0 -13.695,0 -0.897,3.273 -1.788,6.537 -2.688,9.831 4.752,3.369 9.483,6.723 14.319,10.155 1.323,-1.161 2.685,-2.28 3.957,-3.492 1.851,-1.761 3.429,-3.75 4.809,-5.91 2.064,-3.231 3.228,-6.711 3.162,-10.56 -0.051,-2.769 -0.903,-5.34 -2.097,-7.806 -1.257,-2.601 -2.901,-4.902 -5.223,-6.675 -2.631,-2.007 -5.631,-2.958 -8.901,-3.063 -4.806,-0.156 -9.261,1.152 -13.497,3.33 -4.026,2.07 -8.064,4.119 -12.099,6.177 -2.856,1.461 -5.709,2.919 -8.562,4.38 -0.06,0.03 -0.111,0.075 -0.174,0.117 11.451,22.767 22.89,45.516 34.359,68.328 z"
       id="path43"
       style="fill:#ffffff;fill-opacity:1"
       inkscape:connector-curvature="0" />
    <path
       d="m 328.548,28.074 c -2.286,-0.471 -4.512,-0.93 -6.798,-1.401 1.332,-8.886 2.661,-17.769 3.996,-26.673 4.164,0.606 8.289,1.212 12.477,1.824 -3.231,8.772 -6.447,17.493 -9.675,26.25 z"
       id="path45"
       style="fill:#ffffff;fill-opacity:1"
       inkscape:connector-curvature="0" />
    <path
       d="m 365.697,20.826 c 2.211,3.579 4.389,7.113 6.606,10.704 -7.218,4.467 -14.433,8.931 -21.666,13.41 -1.518,-2.265 -3.006,-4.488 -4.53,-6.765 6.525,-5.778 13.038,-11.544 19.59,-17.349 z"
       id="path47"
       style="fill:#ffffff;fill-opacity:1"
       inkscape:connector-curvature="0" />
    <path
       d="m 348.267,6.861 c 3.192,2.205 6.327,4.374 9.474,6.549 -5.688,6.786 -11.364,13.554 -17.076,20.364 -1.998,-1.233 -3.978,-2.457 -6.015,-3.714 4.521,-7.698 9.048,-15.417 13.617,-23.199 z"
       id="path49"
       style="fill:#ffffff;fill-opacity:1"
       inkscape:connector-curvature="0" />
  </g>
</svg>
