<?xml version="1.0" encoding="UTF-8" standalone="no"?>
<svg
   xmlns:dc="http://purl.org/dc/elements/1.1/"
   xmlns:cc="http://creativecommons.org/ns#"
   xmlns:rdf="http://www.w3.org/1999/02/22-rdf-syntax-ns#"
   xmlns:svg="http://www.w3.org/2000/svg"
   xmlns="http://www.w3.org/2000/svg"
   xmlns:sodipodi="http://sodipodi.sourceforge.net/DTD/sodipodi-0.dtd"
   xmlns:inkscape="http://www.inkscape.org/namespaces/inkscape"
   version="1.1"
   id="svg13"
   sodipodi:docname="odyssey2.svg"
   width="599.99945"
   height="181.52954"
   inkscape:version="0.92.5 (2060ec1f9f, 2020-04-08)">
  <metadata
     id="metadata19">
    <rdf:RDF>
      <cc:Work
         rdf:about="">
        <dc:format>image/svg+xml</dc:format>
        <dc:type
           rdf:resource="http://purl.org/dc/dcmitype/StillImage" />
      </cc:Work>
    </rdf:RDF>
  </metadata>
  <defs
     id="defs17" />
  <sodipodi:namedview
     pagecolor="#ffffff"
     bordercolor="#666666"
     borderopacity="1"
     objecttolerance="10"
     gridtolerance="10"
     guidetolerance="10"
     inkscape:pageopacity="0"
     inkscape:pageshadow="2"
     inkscape:window-width="640"
     inkscape:window-height="480"
     id="namedview15"
     showgrid="false"
     inkscape:zoom="2.36"
     inkscape:cx="49.999638"
     inkscape:cy="131.529"
     inkscape:window-x="72"
     inkscape:window-y="27"
     inkscape:window-maximized="0"
     inkscape:current-layer="svg13" />
  <g
     id="g11"
     transform="translate(-3.622779e-4,5.4571547e-4)">
    <path
       style="fill:#ffffff;fill-opacity:1"
       id="path7"
       d="M 77.616,26.761 C 67.45,13.01 65.025,14.417 59.121,14.417 H 33.18 4.266 c -4.422,0 -5.404,3.31 -2.955,6.6 1.379,1.867 4.34,4.886 6.708,7.238 l 57.241,57.41 h 56.422 C 108.826,68.67 94.223,49.223 77.616,26.761 Z m 8.203,44.831 c -1.72,0.024 -4.546,0.087 -6.242,0.06 -1.919,-0.03 -2.464,-0.464 -3.66,-1.792 L 49.747,40.735 c -1.178,-1.311 -1.039,-2.802 1.136,-2.805 l 8.054,-0.006 c 1.085,-0.003 1.606,0.109 3.609,2.534 l 23.562,28.474 c 1.334,1.612 0.446,2.651 -0.289,2.66 z"
       inkscape:connector-curvature="0" />
    <path
       style="fill:#ffffff;fill-opacity:1"
       id="path9"
       d="m 83.49,14.426 h 28.906 18.079 c 5.898,0 11.606,-2.051 18.48,12.329 l 28.164,58.913 h -49.84 l -26.212,-36.24 c -1.082,-1.494 -1.226,-1.69 -1.895,-2.825 -0.585,-0.991 0.15,-2.112 1.714,-2.208 6.365,-0.061 12.726,-0.124 19.088,-0.184 3.127,0.057 4.226,0.093 5.98,3.003 5.021,7.443 9.515,15.146 14.537,22.589 0.997,1.843 2.455,1.919 5.467,1.955 3.482,0.042 5.563,-0.38 3.425,-3.952 L 132.87,40.22 c -2.485,-4.148 -9.805,-3.449 -10.89,-3.449 H 97.298 c -2.913,0 -5.133,0.174 -6.961,-2.217 L 80.514,21.011 C 78.113,17.7 79.065,14.426 83.49,14.426 Z"
       inkscape:connector-curvature="0" />
    <path
       style="fill:#ffffff;fill-opacity:1"
       id="path11"
       d="m 155.838,14.426 c 7.518,0 15.624,0 23.14,0 1.196,0.114 1.87,0.491 2.03,1.13 3.446,8.56 6.052,17.121 9.501,25.682 0.638,1.651 1.217,2.392 2.117,2.223 1.919,0.012 3.506,0.024 5.425,0.036 1.753,-0.069 2.238,-1.051 1.651,-2.946 -2.235,-8.139 -4.714,-15.793 -6.952,-23.932 -0.6,-2.009 0.62,-2.196 2.693,-2.196 h 15.844 c 7.931,0 9.211,-1.157 12.166,12.329 2.332,10.645 4.465,21.293 6.796,31.939 0.551,3.524 -0.88,6.38 -4.765,6.277 l -7.41,-0.027 5.66,20.724 h -27.448 l -8.332,-20.673 c -3.205,0.003 -4.886,0.003 -8.091,0.003 -4.828,-0.033 -7.22,-3.175 -9.217,-7.458 L 153.287,21.011 c -1.579,-3.32 -1.871,-6.585 2.551,-6.585 z"
       inkscape:connector-curvature="0" />
    <path
       style="fill:#ffffff;fill-opacity:1"
       id="path13"
       d="m 235.409,14.426 h 30.417 25.818 c 5.895,0 10.145,-0.596 9.438,8.097 l -0.651,8.042 c -0.109,1.32 -0.226,2.498 -0.566,3.745 -0.741,2.72 -3.275,3.129 -6.094,3.172 h -31.873 c -1.445,0 -1.927,0.084 -1.93,1.075 l -0.03,4.943 c -0.006,1.124 0.783,0.973 2.575,0.973 h 24.375 c 1.786,0 3.524,-0.084 5.277,0.337 3.269,0.783 5.031,2.705 5.937,5.166 0.754,2.052 0.443,3.744 0.272,5.883 l -2.422,29.806 h -54.735 l -1.736,-9.952 c -0.301,-1.732 0.232,-2.82 2.335,-2.82 h 28.851 c 5.006,-0.723 5.172,-4.181 4.666,-8.036 h -30.782 c -3.154,0.141 -5.184,-0.826 -6.536,-2.383 -1.254,-1.443 -1.326,-2.774 -1.642,-4.594 l -6.055,-34.761 c -0.888,-5.102 0.672,-8.693 5.091,-8.693 z"
       inkscape:connector-curvature="0" />
    <path
       style="fill:#ffffff;fill-opacity:1"
       id="path15"
       d="m 317.049,14.426 h 28.544 25.14 c 5.742,0 9.989,-0.584 7.203,7.883 l -2.826,8.57 c -0.428,1.283 -0.831,2.431 -1.467,3.645 -1.388,2.647 -3.952,3.045 -6.711,3.087 h -28.399 c -1.407,0 -1.886,0.081 -2.145,1.045 l -1.452,5.446 c -0.289,1.091 0.524,0.946 2.268,0.946 h 21.104 c 1.732,0 3.446,-0.078 5.048,0.329 2.986,0.762 4.236,2.632 4.513,5.03 0.229,2 -0.485,3.645 -1.178,5.729 l -10.525,29.529 h -52.461 l 1.142,-9.606 c 0.132,-1.687 0.913,-2.744 2.967,-2.741 h 21.712 c 5.049,-0.708 6.064,-4.075 6.516,-7.829 h -19.613 c -7.055,0.317 -10.359,-4.346 -9.898,-10.549 l 2.358,-32.053 c 0.368,-4.967 3.856,-8.464 8.16,-8.464 v 0 z"
       inkscape:connector-curvature="0" />
    <path
       style="fill:#ffffff;fill-opacity:1"
       id="path17"
       d="m 396.138,14.426 h 30.141 26.538 c 6.063,0 10.708,-0.584 5.473,7.883 l -5.305,8.57 c -0.798,1.283 -1.536,2.431 -2.533,3.645 -2.19,2.647 -5.006,3.045 -7.928,3.087 h -22.643 c -1.488,0 -3.431,-0.138 -3.389,0.699 l 0.226,4.518 c 0.048,0.949 1.03,1.684 2.874,1.684 h 12.347 l 8.639,0.06 c 1.901,0.012 2.69,1.744 1.795,3.238 l -3.422,5.73 -8.018,12.389 c -0.341,0.018 -0.678,0.027 -1.021,0.033 h -24.204 c -1.545,0 -3.575,-0.141 -3.515,0.934 l 0.235,4.283 c 0.057,0.946 1.069,1.681 2.979,1.681 h 13.522 l 7.482,0.051 -8.253,12.754 h -54.961 c 5.28,-13.308 5.081,-14.151 22.031,-62.775 1.735,-4.967 6.365,-8.464 10.91,-8.464 z"
       inkscape:connector-curvature="0" />
    <path
       style="fill:#ffffff;fill-opacity:1"
       id="path19"
       d="m 545.47,14.426 c -8.254,0 -17.155,0 -25.405,0 -1.362,0.114 -2.269,0.491 -2.705,1.13 -7.407,8.56 -13.893,17.121 -21.3,25.682 -1.404,1.651 -2.346,2.392 -3.262,2.223 -2.115,0.012 -3.862,0.024 -5.976,0.036 -1.895,-0.069 -2.006,-1.051 -0.564,-2.946 5.901,-8.139 11.86,-15.793 17.761,-23.932 1.509,-2.009 0.253,-2.196 -2.028,-2.196 h -19.173 c -8.699,0 -9.618,-1.157 -18.57,12.329 -7.064,10.645 -13.913,21.293 -20.977,31.939 -2.1,3.524 -1.735,6.38 2.575,6.277 l 9.926,-0.027 -14.986,20.724 h 30.134 l 17.899,-20.673 c 3.518,0.003 5.365,0.003 8.88,0.003 5.316,-0.033 9.274,-3.175 13.278,-7.458 l 34.52,-36.529 c 3.127,-3.317 4.829,-6.582 -0.027,-6.582 z"
       inkscape:connector-curvature="0" />
    <path
       style="fill:#ffffff;fill-opacity:1"
       id="path21"
       d="m 584.367,28.845 c -1.642,1.534 -3.244,3.118 -4.853,4.688 -1.28,1.253 -2.259,0.978 -4.063,0.978 h -26.478 c -1.578,0 -2.636,-0.096 -3.208,-0.548 -0.837,-0.659 -0.648,-1.882 0.44,-2.979 4.111,-4.365 8.229,-8.729 12.341,-13.094 1.964,-1.807 3.795,-3.663 7.54,-4.877 2.289,-0.744 4.316,-0.916 6.687,-0.916 h 10.907 c 2.693,0.251 5.169,-5.039 2.295,-6.045 h -17.862 c -2.35,0.169 -3.019,-0.669 -2.012,-2.518 1.936,-2.259 3.072,-3.642 4.03,-3.528 h 20.721 c 2.094,0 5.082,0.22 6.793,1.642 3.662,3.036 2.551,8.684 0.069,12.338 -2.148,3.148 -6.94,5.338 -10.585,5.461 h -14.245 c -3.479,0.253 -8.009,7.425 -1.738,7.507 h 12.492 c 1.795,0.003 1.84,0.852 0.729,1.891"
       inkscape:connector-curvature="0" />
    <path
       style="fill:#cccccc;fill-opacity:1"
       id="path28"
       d="m 117.604,80.27 c 16.254,21.484 33.788,44.452 44.942,59.221 12.483,16.54 22.902,30.36 31.716,42.035 h -33.433 c -9.784,-9.813 -21.004,-21.064 -33.975,-34.077 L 59.88,80.27 Z m 357.422,0.651 -30.339,-0.651 -73.219,101.259 h 16.444 z M 365.296,80.27 c -4.446,11.188 -14.862,36.593 -40.541,101.256 h 31.366 l 64.7,-99.976 z m -7.886,1.907 -53.322,0.268 -11.778,99.081 h 29.707 z m -61.223,0.587 -55.374,0.594 17.094,98.171 h 30.249 z m -73.466,-0.807 h -27.929 l 40.144,99.569 h 14.977 L 223.731,85.668 Z M 174.538,80.27 h -51.163 l 73.239,101.256 H 222.95 L 177.122,85.668"
       inkscape:connector-curvature="0" />
  </g>
</svg>
