<?xml version="1.0" encoding="UTF-8" standalone="no"?>
<svg
   xmlns:dc="http://purl.org/dc/elements/1.1/"
   xmlns:cc="http://creativecommons.org/ns#"
   xmlns:rdf="http://www.w3.org/1999/02/22-rdf-syntax-ns#"
   xmlns:svg="http://www.w3.org/2000/svg"
   xmlns="http://www.w3.org/2000/svg"
   xmlns:sodipodi="http://sodipodi.sourceforge.net/DTD/sodipodi-0.dtd"
   xmlns:inkscape="http://www.inkscape.org/namespaces/inkscape"
   version="1.0"
   width="799.58136"
   height="80.153145"
   viewBox="0 0 799.58136 80.153145"
   preserveAspectRatio="xMidYMid meet"
   id="svg18"
   sodipodi:docname="openbor.svg"
   inkscape:version="0.92.5 (2060ec1f9f, 2020-04-08)">
  <metadata
     id="metadata24">
    <rdf:RDF>
      <cc:Work
         rdf:about="">
        <dc:format>image/svg+xml</dc:format>
        <dc:type
           rdf:resource="http://purl.org/dc/dcmitype/StillImage" />
      </cc:Work>
    </rdf:RDF>
  </metadata>
  <defs
     id="defs22" />
  <sodipodi:namedview
     pagecolor="#ffffff"
     bordercolor="#666666"
     borderopacity="1"
     objecttolerance="10"
     gridtolerance="10"
     guidetolerance="10"
     inkscape:pageopacity="0"
     inkscape:pageshadow="2"
     inkscape:window-width="640"
     inkscape:window-height="480"
     id="namedview20"
     showgrid="false"
     inkscape:zoom="0.47875"
     inkscape:cx="399.93451"
     inkscape:cy="40.053148"
     inkscape:window-x="72"
     inkscape:window-y="27"
     inkscape:window-maximized="0"
     inkscape:current-layer="svg18" />
  <g
     id="g16"
     style="fill:#ffffff"
     transform="translate(-0.06548799,0.1)">
    <path
       d="m 767,78.8 c -0.6,-0.7 -7.6,-11.2 -15.5,-23.3 l -14.4,-22 14.4,-0.3 14.5,-0.3 V 26 19 H 740.5 715 V 49 79 H 699.5 684 V 39.5 -0.1 l 49.3,0.3 c 54,0.3 51.9,0.1 57.8,6.5 4.9,5.2 5.9,8.5 5.9,18.8 0,5.9 -0.5,10.8 -1.4,12.8 -2,4.7 -6.8,8.7 -12.6,10.6 l -5.1,1.7 10.2,13.4 c 5.7,7.4 10.7,13.7 11.1,13.8 0.5,0.2 0.6,0.8 0.2,1.3 -0.9,1.5 -31.1,1.1 -32.4,-0.3 z"
       id="path2"
       inkscape:connector-curvature="0" />
    <path
       d="m 129.4,77.5 c -0.3,-0.6 -0.3,-14.1 -0.2,-30 l 0.3,-29 h 39.1 39 l 4.2,2.7 c 5.6,3.8 7.6,7.8 7.7,15.8 0,8.2 -2.3,13.6 -7.2,17 -3.6,2.5 -3.7,2.5 -31,2.8 l -27.4,0.3 0.2,10.5 0.2,10.5 -12.3,0.2 c -7.5,0.1 -12.4,-0.2 -12.6,-0.8 z M 194,38 v -5 h -19.4 -19.4 l -0.4,4.3 c -0.3,2.3 -0.3,4.5 -0.1,5 0.2,0.4 9.2,0.7 19.9,0.7 H 194 Z"
       id="path4"
       inkscape:connector-curvature="0" />
    <path
       d="M 326.4,78.1 C 326.2,77.9 326,64.2 326,47.8 V 18 h 37.5 c 40.8,0 41.5,0.1 46.7,5.6 1.5,1.6 3.1,4.9 3.7,7.4 1,4.2 1.6,46.2 0.7,47.1 -0.2,0.2 -5.4,0.3 -11.5,0.1 L 392,77.9 391.8,55.7 391.5,33.5 372,33.2 c -10.7,-0.1 -20.5,0 -21.7,0.3 C 348,34 348,34.1 348,56 v 21.9 l -10.6,0.3 c -5.8,0.2 -10.8,0.1 -11,-0.1 z"
       id="path6"
       inkscape:connector-curvature="0" />
    <path
       d="m 427.4,77.5 c -0.3,-0.6 -0.3,-11.4 -0.2,-24 l 0.3,-23 43,-0.2 43,-0.2 0.9,-4 C 516.1,18.5 519.1,19 470.5,19 H 427 V 9.5 0 h 49.4 c 35.1,0 50.3,0.3 52.7,1.2 5.2,1.8 8.5,4.6 11.3,9.8 3.4,6.3 3.7,17.7 0.6,22.8 l -2,3.3 2,3.9 c 2.6,5 2.8,18.8 0.4,24.6 -1.7,4.1 -5.6,8.8 -8.9,10.7 -2.7,1.6 -104.6,2.7 -105.1,1.2 z M 511.5,53 V 46.5 H 481 450.5 l -0.3,5.4 c -0.2,2.9 -0.1,6 0.2,6.7 0.5,1.2 5.8,1.4 30.8,1.2 l 30.3,-0.3 z"
       id="path8"
       inkscape:connector-curvature="0" />
    <path
       d="M 9.8,75.4 C 7.7,74.1 4.8,71.1 3.3,68.8 L 0.5,64.7 0.2,40.7 C -0.1,16.8 -0.1,16.7 2.4,11.6 5.1,6.2 9.4,2.6 15.1,1 c 4.7,-1.4 82.3,-1.3 87.2,0.1 2.1,0.5 5.3,2.4 7.3,4.1 6.5,5.7 6.8,7.1 7.2,29.7 0.2,11.3 0.1,22.8 -0.3,25.7 -0.7,6.1 -4,10.9 -10,14.8 L 102.6,78 58,77.9 H 13.5 Z M 86.5,39.3 V 19.5 h -28 -28 l -0.3,19 c -0.1,10.4 -0.1,19.4 0.1,20 0.3,0.7 9.9,0.9 28.3,0.8 l 27.9,-0.2 z"
       id="path10"
       inkscape:connector-curvature="0" />
    <path
       d="m 232.4,73.5 c -2.6,-2.6 -4.5,-5.8 -4.9,-7.7 -0.4,-1.9 -0.5,-10.8 -0.3,-19.9 0.3,-16.4 0.3,-16.6 3.1,-20.2 1.6,-2.1 4.6,-4.6 6.7,-5.7 3.7,-1.9 6,-2 41.5,-2 H 316 v 7.5 7.5 l -32.7,0.2 -32.8,0.3 v 4 4 l 30.8,0.3 30.8,0.2 -0.3,6.3 -0.3,6.2 -30.5,0.2 -30.5,0.2 -0.3,4 -0.3,4.1 32.8,0.2 32.8,0.3 0.3,7.3 0.3,7.2 h -39.7 -39.7 z"
       id="path12"
       inkscape:connector-curvature="0" />
    <path
       d="m 564.8,74.7 c -2.4,-1.8 -5.3,-5.2 -6.5,-7.7 -2.2,-4.2 -2.3,-5.6 -2.3,-27.5 0,-22.9 0,-23.2 2.6,-28.3 1.9,-3.9 3.8,-5.9 7.2,-8 l 4.7,-2.7 41.2,-0.3 c 28.7,-0.2 42.6,0.1 45.5,0.9 5.7,1.5 12.2,8 13.8,13.8 0.8,3 1.1,11.8 0.8,27 -0.3,21.6 -0.4,22.8 -2.6,26.3 -1.3,2 -4.2,5.1 -6.4,6.8 l -4.2,3 H 613.9 569.2 Z M 641.8,39.5 641.5,20 613.7,19.7 586,19.5 V 39.3 59 h 28 28 z"
       id="path14"
       inkscape:connector-curvature="0" />
  </g>
</svg>
