<?xml version="1.0" encoding="UTF-8" standalone="no"?>
<svg
   xmlns:dc="http://purl.org/dc/elements/1.1/"
   xmlns:cc="http://creativecommons.org/ns#"
   xmlns:rdf="http://www.w3.org/1999/02/22-rdf-syntax-ns#"
   xmlns:svg="http://www.w3.org/2000/svg"
   xmlns="http://www.w3.org/2000/svg"
   xmlns:sodipodi="http://sodipodi.sourceforge.net/DTD/sodipodi-0.dtd"
   xmlns:inkscape="http://www.inkscape.org/namespaces/inkscape"
   version="1.1"
   id="svg18"
   sodipodi:docname="pc.svg"
   width="264.00003"
   height="115.99997"
   inkscape:version="0.92.5 (2060ec1f9f, 2020-04-08)">
  <metadata
     id="metadata24">
    <rdf:RDF>
      <cc:Work
         rdf:about="">
        <dc:format>image/svg+xml</dc:format>
        <dc:type
           rdf:resource="http://purl.org/dc/dcmitype/StillImage" />
      </cc:Work>
    </rdf:RDF>
  </metadata>
  <defs
     id="defs22" />
  <sodipodi:namedview
     pagecolor="#ffffff"
     bordercolor="#666666"
     borderopacity="1"
     objecttolerance="10"
     gridtolerance="10"
     guidetolerance="10"
     inkscape:pageopacity="0"
     inkscape:pageshadow="2"
     inkscape:window-width="532"
     inkscape:window-height="460"
     id="namedview20"
     showgrid="false"
     inkscape:zoom="2.36"
     inkscape:cx="50.000032"
     inkscape:cy="66"
     inkscape:window-x="72"
     inkscape:window-y="27"
     inkscape:window-maximized="0"
     inkscape:current-layer="svg18" />
  <path
     d="m 8.505,46.559657 c -4.957,-3.824 -7.668,-9.918 -8.455,-15.991 -0.007,-2.451 0.105,-4.906 -0.05,-7.357 0.558,-5.734 2.99,-11.435 7.358,-15.3220002 3.632,-3.302 8.437,-5.116 13.292,-5.625 0.062,4.361 0.195,8.7250002 0.167,13.0850002 -3.201,0.552 -6.077,2.625 -7.609,5.471 -1.638,3.022 -2.156,6.742 -1.005,10.016 0.611,1.771 1.591,3.479 3.104,4.632 1.964,1.54 4.961,1.327 6.865,-0.202 1.927,-1.577 2.848,-3.995 3.592,-6.289 1.648,-5.477 2.349,-11.209 4.359,-16.585 1.374,-3.7220002 3.489,-7.3620002 6.851,-9.6350002 3.86,-2.599 8.783,-3.148 13.311,-2.522 4.753,0.647 9.185,3.177 12.19,6.883 4.102,4.9780002 5.87,11.5410002 5.805,17.9000002 -0.087,6.146 -1.697,12.43 -5.41,17.427 -2.488,3.367 -6.034,5.986 -10.078,7.17 -1.973,0.635 -4.052,0.807 -6.111,0.91 -0.056,-4.287 0.062,-8.573 -0.003,-12.863 3.595,-1.231 6.719,-3.892 8.167,-7.426 1.495,-3.563 1.69,-7.735 0.177,-11.328 -0.726,-1.724 -1.824,-3.377 -3.449,-4.375 -1.79,-1.111 -4.222,-1.247 -6.027,-0.096 -1.753,1.104 -2.736,3.026 -3.484,4.882 -1.355,3.527 -2.047,7.255 -2.978,10.904 -1.19,4.743 -2.553,9.597 -5.457,13.619 -2.025,2.852 -5.039,5.008 -8.452,5.877 -5.645,1.453 -12.038,0.475 -16.67,-3.16 z"
     style="opacity:1;fill:#ffffff"
     id="path2"
     inkscape:connector-curvature="0" />
  <path
     d="m 1.09698,112.94402 c -0.043,-6.256 -0.006,-12.508 -0.021,-18.763999 12.612,-3.348 25.271,-6.525 37.871,-9.905 -12.606,-2.554 -25.268,-4.861 -37.88,-7.386 0.03,-7.078 -0.003,-14.158 0.014,-21.237 22.22,-0.008 44.439,0.014 66.659,-0.011 0.015,4.268 0.037,8.532 -0.013,12.799 -12.336,0.261 -24.676,0.461 -37.006,0.838 12.349,2.482 24.676,5.088 37.022,7.592 0.015,4.534 0.019,9.067 0,13.6 -11.738,3.057 -23.491,6.049 -35.217,9.153 1.073,0.106 2.153,0.099 3.23,0.09 10.664,-0.012 21.325,0.009 31.99,-0.009 0.016,3.278999 0.002,6.555999 0.009,9.834999 -0.003,1.134 0.065,2.278 -0.13,3.405 z"
     style="opacity:1;fill:#ffffff"
     id="path4"
     inkscape:connector-curvature="0" />
  <path
     d="m 140.02203,9.8639668 c 9.547,-7.326 21.897,-10.279 33.815,-9.817 5.508,0.274 10.965,1.284 16.269,2.766 0.194,0.114 0.574,0.337 0.766,0.446 -6.482,4.537 -12.053,10.5370002 -15.544,17.6510002 -6.582,-0.742 -13.398,0.907 -18.776,4.792 -6.728,4.695 -11.611,12.186 -12.512,20.377 -1.042,8.274 -2.011,16.558 -3.043,24.832 -0.302,2.29 -0.401,4.678 -1.444,6.786 -1.453,3.047 -3.648,5.684 -5.956,8.13 -2.095,2.175 -5.279,2.528 -8.145,2.559 -6.671,-14.631 -8.031,-31.437 -4.539,-47.068 2.684,-12.149 9.005,-23.853 19.109,-31.4540002 z"
     style="opacity:1;fill:#ffffff"
     id="path6"
     inkscape:connector-curvature="0" />
  <path
     d="m 190.22103,7.8899668 c 9.839,-6.346 22.101,-7.719 33.55,-6.543 10.13,1.01 20.49,4.668 27.494,12.3040002 5.768,6.114 8.473,14.46 9.067,22.699 -7.29,0.134 -14.586,0.071 -21.876,0.03 -0.793,-4.352 -3.023,-8.507 -6.587,-11.222 -5.165,-3.979 -12.074,-5.082 -18.437,-4.274 -4.784,0.695 -9.803,2.212 -13.185,5.839 -2.022,2.243 -3.319,5.647 -2.006,8.548 1.277,3.57 2.517,7.155 3.763,10.735 1.917,5.715 1.026,11.849 0.417,17.709 -8.015,-2.14 -16.301,-5.616 -21.387,-12.45 -4.899,-6.637 -5.524,-15.434 -4.174,-23.319 1.381,-8.165 6.337,-15.61 13.361,-20.0560002 z"
     style="opacity:1;fill:#ffffff"
     id="path8"
     inkscape:connector-curvature="0" />
  <path
     d="m 77.963032,4.2379668 c 13.371,-0.358 26.748998,-0.695 40.124998,-1.011 6.624,-0.021 13.237,0.964 19.543,3.006 0.03,0.911 -0.146,1.797 -0.964,2.331 -5.488,4.7760002 -9.599,10.8430002 -13.321,17.0140002 -7.707,-0.036 -15.414,0.14 -23.126,0.145 0.156,21.791 0.036,43.592 0.187,65.388 4.675,0.373 9.359,0.71 14.039,0.969 4.528,-0.016 9.057,-0.078 13.586,-0.156 4.361,-0.145 7.858,-3.274 10.443,-6.486 3.455,-4.476 6.117,-9.776 6.566,-15.471 0.583,-6.952 1.24,-13.899 1.871,-20.847 0.26,-2.953 0.849,-5.901 2.011,-8.642 2.538,-6.196 7.733,-11.107 13.835,-13.807 8.682,14.595 9.959,32.645 5.952,48.893 -2.908,11.584 -9.766,22.391 -19.902,28.997003 -9.896,6.595 -22.106,8.962 -33.872,8.455 -12.325,-0.513 -24.659998,-0.85 -36.972998,-1.497 z"
     style="opacity:1;fill:#ffffff"
     id="path10"
     inkscape:connector-curvature="0" />
  <path
     d="m 206.71503,26.478967 c 4.815,-2.253 10.281,-2.212 15.461,-1.611 5.336,9.642 8.484,20.516 8.551,31.547 0.261,12.284 -3.095,24.475 -8.853,35.292 -5.805,0.684 -11.881,-0.456 -16.842,-3.581 -2.096,-1.305 -3.899,-3.667 -3.226,-6.252 1.36,-5.398 3.21,-10.673 4.695,-16.04 0.782,-3.083 0.453,-6.28 0.412,-9.419 -0.099,-3.7 -0.829,-7.357 -1.892,-10.896 -1.298,-4.445 -3.226,-8.807 -3.419,-13.491 0.115,-2.798 2.793,-4.523 5.113,-5.549 z"
     style="opacity:1;fill:#ffffff"
     id="path12"
     inkscape:connector-curvature="0" />
  <path
     d="m 233.74503,50.512967 c 7.984,2.161 16.263,4.798 22.46,10.502 5.128,4.653 7.546,11.579 7.795,18.351 v 3.875 c -0.354,6.399 -2.652,12.746 -6.904,17.610003 -5.654,6.57 -13.867,10.424 -22.22,12.356 -11.121,2.508 -22.872,1.949 -33.842,-1.057 -8.848,-2.486 -17.603,-7.409 -22.225,-15.599003 -3.153,-5.642 -5.909,-12.237 -4.211,-18.775 7.129,-0.084 14.263,0.052 21.397,0.103 0.792,4.86 2.814,9.823 6.884,12.864 5.065,3.813 11.71,4.394 17.854,4.455 5.586,-0.118 11.558,-0.693 16.29,-3.931 4.111,-2.705 5.727,-8.58 3.408,-12.937 -1.673,-3.047 -4.779,-4.901 -7.744,-6.517 0.193,-7.109 0.725,-14.201 1.058,-21.3 z"
     style="opacity:1;fill:#ffffff"
     id="path14"
     inkscape:connector-curvature="0" />
  <path
     d="m 165.22903,93.462967 c 2.803,-0.435 5.732,-0.01 8.582,0.047 3.7,8.393003 10.803,14.703003 18.427,19.569003 -5.602,1.891 -11.501,2.796 -17.41,2.921 h -0.329 c -8.546,-0.088 -17.004,-1.958 -24.956,-5.004 -0.01,-0.104 -0.031,-0.306 -0.042,-0.41 2.924,-2.844 5.952,-5.59 8.922,-8.393 2.861,-2.415003 4.481,-5.865003 6.806,-8.730003 z"
     style="opacity:1;fill:#ffffff"
     id="path16"
     inkscape:connector-curvature="0" />
</svg>
