<?xml version="1.0" encoding="UTF-8" standalone="no"?>
<svg
   xmlns:dc="http://purl.org/dc/elements/1.1/"
   xmlns:cc="http://creativecommons.org/ns#"
   xmlns:rdf="http://www.w3.org/1999/02/22-rdf-syntax-ns#"
   xmlns:svg="http://www.w3.org/2000/svg"
   xmlns="http://www.w3.org/2000/svg"
   xmlns:sodipodi="http://sodipodi.sourceforge.net/DTD/sodipodi-0.dtd"
   xmlns:inkscape="http://www.inkscape.org/namespaces/inkscape"
   id="Warstwa_1"
   data-name="Warstwa 1"
   viewBox="0 0 420.72276 60.421031"
   version="1.1"
   sodipodi:docname="pcenginecd.svg"
   width="420.72275"
   height="60.421032"
   inkscape:version="0.92.5 (2060ec1f9f, 2020-04-08)">
  <metadata
     id="metadata23">
    <rdf:RDF>
      <cc:Work
         rdf:about="">
        <dc:format>image/svg+xml</dc:format>
        <dc:type
           rdf:resource="http://purl.org/dc/dcmitype/StillImage" />
      </cc:Work>
    </rdf:RDF>
  </metadata>
  <defs
     id="defs21" />
  <sodipodi:namedview
     pagecolor="#ffffff"
     bordercolor="#666666"
     borderopacity="1"
     objecttolerance="10"
     gridtolerance="10"
     guidetolerance="10"
     inkscape:pageopacity="0"
     inkscape:pageshadow="2"
     inkscape:window-width="640"
     inkscape:window-height="480"
     id="namedview19"
     showgrid="false"
     inkscape:zoom="0.91036583"
     inkscape:cx="210.36059"
     inkscape:cy="30.260929"
     inkscape:window-x="72"
     inkscape:window-y="27"
     inkscape:window-maximized="0"
     inkscape:current-layer="Warstwa_1" />
  <title
     id="title2">pce-cd</title>
  <path
     d="m 194.11559,12.430101 c 7.82,0 15.65,0 23.47,0 a 15.31,15.31 0 0 1 6.74,1.54 21.66,21.66 0 0 1 5.37,3.62 15.29,15.29 0 0 1 2.57,3 9,9 0 0 1 1.48,5 c 0,1.39 0,2.78 0,4.16 a 11.09,11.09 0 0 1 -0.82,4.22 21.75,21.75 0 0 1 -1.48,3 c -0.17,0.28 -0.34,0.57 -0.53,0.84 a 0.92,0.92 0 0 0 0,1.09 c 0.21,0.33 0.4,0.66 0.6,1 a 20.57,20.57 0 0 1 1.42,3 12,12 0 0 1 0.78,4.23 c 0,2.83 0,5.66 0,8.49 0,0.17 0,0.34 0,0.5 a 2.74,2.74 0 0 1 -1.48,2.6 7.8,7.8 0 0 1 -2.32,0.89 13.57,13.57 0 0 1 -5.95,0.06 8.16,8.16 0 0 1 -2,-0.71 2.92,2.92 0 0 1 -1.73,-2.8 c 0,-2.27 0,-4.55 0,-6.82 0,-0.5 0,-1 0,-1.5 a 6.14,6.14 0 0 0 -1.05,-2.95 4,4 0 0 0 -3.48,-1.93 h -31 c -0.61,0 -1.23,0 -1.83,0 a 3.13,3.13 0 0 0 -3,3 c 0,0.44 0,0.89 0,1.33 q 0,4.08 0,8.16 c 0,0.39 0,0.77 0,1.16 a 2.34,2.34 0 0 1 -0.87,1.73 5.53,5.53 0 0 1 -1.9,1 13.5,13.5 0 0 1 -6.25,0.47 8.4,8.4 0 0 1 -2.09,-0.51 5.27,5.27 0 0 1 -1.58,-0.9 2.38,2.38 0 0 1 -0.85,-1.75 c 0,-0.39 0,-0.77 0,-1.16 v -39.39 c 0,-0.38 0,-0.77 0,-1.16 a 4.5,4.5 0 0 1 0.19,-1 2.06,2.06 0 0 1 1.67,-1.45 3.74,3.74 0 0 1 0.82,-0.08 h 25.14 z m 5.21,18.82 h 17.62 a 1.67,1.67 0 0 0 1.64,-1.18 5.55,5.55 0 0 0 -0.16,-4.36 1.21,1.21 0 0 0 -0.18,-0.28 1.43,1.43 0 0 0 -1.11,-0.64 h -1.49 -33.75 a 1.69,1.69 0 0 0 -1.49,0.9 5.18,5.18 0 0 0 0.08,4.78 1.55,1.55 0 0 0 1.22,0.76 c 0.5,0 1,0 1.49,0 z"
     id="path4"
     inkscape:connector-curvature="0"
     style="fill:#ffffff" />
  <path
     d="m 354.57559,13.050101 h 20.3 a 21.11,21.11 0 0 1 4.63,0.41 16.74,16.74 0 0 1 6.09,2.57 12.65,12.65 0 0 1 3.55,3.7 7.59,7.59 0 0 1 1.24,4.24 c 0,1.17 0,2.33 0,3.5 v 27.45 c 0,0.56 0,1.11 0,1.67 a 2.86,2.86 0 0 1 -1,2.18 5.39,5.39 0 0 1 -2,1.1 10.32,10.32 0 0 1 -4.93,0.36 8.78,8.78 0 0 1 -2.08,-0.57 5.59,5.59 0 0 1 -1.42,-0.87 3.13,3.13 0 0 1 -1.11,-2.33 c 0,-0.5 0,-1 0,-1.5 v -24.29 c 0,-0.5 0,-1 0,-1.5 a 4.09,4.09 0 0 0 -4.11,-4.13 h -7 a 12.29,12.29 0 0 0 -1.49,0.06 3.58,3.58 0 0 0 -3,2.32 5.4,5.4 0 0 0 -0.42,1.94 q 0,0.91 0,1.83 v 25.46 a 2.72,2.72 0 0 1 -1.19,2.26 6,6 0 0 1 -2.27,1 12.42,12.42 0 0 1 -6.57,-0.22 5.53,5.53 0 0 1 -1.64,-0.79 2.7,2.7 0 0 1 -1.28,-2.38 c 0,-0.5 0,-1 0,-1.5 v -25 q 0,-0.91 0,-1.83 a 4.25,4.25 0 0 0 -0.37,-1.61 2.37,2.37 0 0 0 -2,-1.54 11.14,11.14 0 0 0 -1.16,0 h -7.32 c -0.33,0 -0.67,0 -1,0 a 3.76,3.76 0 0 0 -3.43,2.7 6,6 0 0 0 -0.32,1.79 c 0,0.56 0,1.11 0,1.67 v 24.29 c 0,0.5 0,1 0,1.5 a 2.29,2.29 0 0 1 -0.71,1.63 4.78,4.78 0 0 1 -1.52,1 8.41,8.41 0 0 1 -2.24,0.63 12.88,12.88 0 0 1 -5.28,-0.23 6.1,6.1 0 0 1 -2,-0.91 2.81,2.81 0 0 1 -1.18,-2.11 c 0,-0.33 0,-0.66 0,-1 v -29.26 a 14,14 0 0 1 2.3,-7.87 12.09,12.09 0 0 1 10.29,-5.77 c 3.05,-0.08 6.1,0 9.16,0 h 12.48 z"
     id="path6"
     inkscape:connector-curvature="0"
     style="fill:#ffffff" />
  <path
     d="m 276.36559,13.330101 c 5.6,0 11.2,0.05 16.8,0 a 18.52,18.52 0 0 1 9,2.19 22.22,22.22 0 0 1 10.42,11 22.83,22.83 0 0 1 1.73,10.89 26,26 0 0 1 -1.21,6.53 21.81,21.81 0 0 1 -13.9,14.2 12.92,12.92 0 0 1 -4.4,0.75 h -3.5 c -10.48,0 -21,0 -31.44,0 a 21.07,21.07 0 0 1 -13.38,-4.68 20.18,20.18 0 0 1 -6.9,-10.36 23.73,23.73 0 0 1 -1.06,-6.37 c 0,-1.33 0,-2.67 0,-4 a 21,21 0 0 1 1.85,-7.9 20.78,20.78 0 0 1 12.2,-11.1 19,19 0 0 1 6.68,-1.16 c 5.38,0 10.75,0 16.13,0 z m 0.57,33.62 h 15 a 7.28,7.28 0 0 0 5.46,-2.43 10.07,10.07 0 0 0 2.1,-3.55 16.45,16.45 0 0 0 0.87,-5.73 10.67,10.67 0 0 0 -0.41,-2.62 10.84,10.84 0 0 0 -5.72,-6.79 6,6 0 0 0 -3,-0.72 h -28.19 c -0.33,0 -0.67,0 -1,0 -0.49,0.05 -1,0.1 -1.48,0.2 a 10.74,10.74 0 0 0 -4.71,2.34 9.66,9.66 0 0 0 -3.66,8 11.63,11.63 0 0 0 4.74,9.29 8.55,8.55 0 0 0 5.86,2 c 0.33,0 0.66,0 1,0 z"
     id="path8"
     inkscape:connector-curvature="0"
     style="fill:#ffffff" />
  <path
     d="m 99.745595,58.730101 h -20.48 c -0.66,0 -1.33,0 -2,0 a 5.6,5.6 0 0 1 -1.29,-0.28 1.82,1.82 0 0 1 -1.27,-1.43 15.58,15.58 0 0 1 -0.25,-1.8 11.42,11.42 0 0 1 0,-1.17 v -35.47 a 10.87,10.87 0 0 1 0.18,-2.48 3.16,3.16 0 0 1 2.84,-2.64 13.78,13.78 0 0 1 1.82,-0.1 h 40.949995 a 20.93,20.93 0 0 1 9.11,2.29 18.85,18.85 0 0 1 9.54,10.84 24.93,24.93 0 0 1 1.39,7 40.08,40.08 0 0 1 0,5.48 25.36,25.36 0 0 1 -1.89,8.06 19.38,19.38 0 0 1 -18,11.73 q -10.33,-0.04 -20.649995,-0.03 z m 5.179995,-11.35 h 5.49 c 2.77,0 5.55,0 8.32,0 a 5.52,5.52 0 0 0 3.14,-0.92 12.09,12.09 0 0 0 1.45,-1.11 10.53,10.53 0 0 0 1.91,-2.3 14,14 0 0 0 2.05,-10 9.44,9.44 0 0 0 -2,-4.51 9.07,9.07 0 0 0 -7.39,-3.49 q -12.9,0 -25.799995,0 c -0.39,0 -0.78,0 -1.17,0 a 3.73,3.73 0 0 0 -3.61,3.66 c 0,0.38 0,0.77 0,1.16 v 13.81 a 11.73,11.73 0 0 0 0.06,1.33 2.27,2.27 0 0 0 1.81,2.12 8.18,8.18 0 0 0 2.31,0.24 z"
     id="path10"
     inkscape:connector-curvature="0"
     style="fill:#ffffff" />
  <path
     d="m 40.175595,13.810101 h 24 a 2,2 0 0 1 1.57,0.8 4.23,4.23 0 0 1 0.77,1.47 10.68,10.68 0 0 1 0.08,6.38 4,4 0 0 1 -0.75,1.48 2,2 0 0 1 -1.57,0.79 h -41.14 c -0.5,0 -1,0 -1.5,0 a 6.12,6.12 0 0 0 -2.88,0.69 9.72,9.72 0 0 0 -2.45,1.71 12.41,12.41 0 0 0 -3.86,8.45 10.19,10.19 0 0 0 1.13,5.29 14.56,14.56 0 0 0 5.48,5.9 8.75,8.75 0 0 0 4.73,1.32 q 19.47,0 38.94,0 h 1.66 a 1.51,1.51 0 0 1 1.15,0.58 4.15,4.15 0 0 1 0.77,1.47 12.59,12.59 0 0 1 0.52,4.27 8.41,8.41 0 0 1 -0.49,2.94 6.19,6.19 0 0 1 -0.61,1.17 1.63,1.63 0 0 1 -1.25,0.73 c -0.5,0 -1,0 -1.5,0 h -45.59 a 6.84,6.84 0 0 1 -2.75,-0.57 13.52,13.52 0 0 1 -2.49,-1.33 28,28 0 0 1 -11.0000004,-14.22 20.38,20.38 0 0 1 -1.11999999,-6.19 23.93,23.93 0 0 1 4.83999999,-15.57 21.75,21.75 0 0 1 5.8300004,-5.4 15.33,15.33 0 0 1 3.27,-1.62 9,9 0 0 1 3.25,-0.58 c 1.06,0 2.11,0 3.17,0 z"
     id="path12"
     inkscape:connector-curvature="0"
     style="fill:#ffffff" />
  <path
     d="m 408.84559,25.390101 h -9.64 a 11.75,11.75 0 0 1 -1.33,0 1.81,1.81 0 0 1 -1.72,-1.73 c 0,-2.27 0,-4.54 0,-6.81 a 3.21,3.21 0 0 1 0.48,-1.58 6.25,6.25 0 0 1 1.72,-2 3.63,3.63 0 0 1 2.16,-0.76 c 3.49,0 7,-0.44 10.46,-0.4 h 0.17 a 2.59,2.59 0 0 0 2.64,-1.88 4.37,4.37 0 0 0 -0.17,-3.3999998 3.86,3.86 0 0 0 -0.7,-0.92 1.59,1.59 0 0 0 -1,-0.49 c -0.5,0 -1,-0.06 -1.49,-0.06 -3.39,0 -6.77,0 -10.15,0 -0.44,0 -0.89,0 -1.33,0 a 1.22,1.22 0 0 1 -1.06,-0.7 4.2,4.2 0 0 1 -0.11,-3.83999997 1.29,1.29 0 0 1 1,-0.75 4.87,4.87 0 0 1 0.66,0 c 3.83,0 7.65,-0.06 11.48,-0.070000003 a 9.87,9.87 0 0 1 4.78,1.20999997297 8.7,8.7 0 0 1 4.27,4.68 7.45,7.45 0 0 1 -0.91,7.4199998 10.12,10.12 0 0 1 -7,4.3 17.14,17.14 0 0 1 -2.15,0.16 c -1.5,0 -3,0 -4.49,0 -0.45,0 -0.89,0 -1.33,0 a 1.4,1.4 0 0 0 -1.26,0.94 2,2 0 0 0 0.14,1.91 1.14,1.14 0 0 0 0.93,0.62 c 0.5,0 1,0 1.49,0 4.22,0 8.43,0 12.64,0 0.5,0 1,0 1.5,0 a 1.07,1.07 0 0 1 1.11,1 5.78,5.78 0 0 1 0,2 3,3 0 0 1 -0.07,0.32 1,1 0 0 1 -0.92,0.81 c -0.44,0 -0.88,0 -1.33,0 z"
     id="path14"
     inkscape:connector-curvature="0"
     style="fill:#ffffff" />
  <path
     d="m 153.63559,30.380101 a 6.93,6.93 0 0 1 3.19,0.72 6.85,6.85 0 0 1 1.66,1.1 5.37,5.37 0 0 1 0,8.08 6.9,6.9 0 0 1 -3.37,1.7 7.93,7.93 0 0 1 -4.26,-0.29 6.58,6.58 0 0 1 -2.51,-1.57 5.26,5.26 0 0 1 0,-7.71 7.11,7.11 0 0 1 5.29,-2.03 z"
     id="path16"
     inkscape:connector-curvature="0"
     style="fill:#ffffff" />
</svg>
