<?xml version="1.0" encoding="UTF-8" standalone="no"?>
<svg
   xmlns:dc="http://purl.org/dc/elements/1.1/"
   xmlns:cc="http://creativecommons.org/ns#"
   xmlns:rdf="http://www.w3.org/1999/02/22-rdf-syntax-ns#"
   xmlns:svg="http://www.w3.org/2000/svg"
   xmlns="http://www.w3.org/2000/svg"
   xmlns:sodipodi="http://sodipodi.sourceforge.net/DTD/sodipodi-0.dtd"
   xmlns:inkscape="http://www.inkscape.org/namespaces/inkscape"
   version="1.1"
   id="svg84"
   sodipodi:docname="pcfx.svg"
   width="264"
   height="101.99997"
   inkscape:version="0.92.5 (2060ec1f9f, 2020-04-08)">
  <metadata
     id="metadata90">
    <rdf:RDF>
      <cc:Work
         rdf:about="">
        <dc:format>image/svg+xml</dc:format>
        <dc:type
           rdf:resource="http://purl.org/dc/dcmitype/StillImage" />
      </cc:Work>
    </rdf:RDF>
  </metadata>
  <defs
     id="defs88" />
  <sodipodi:namedview
     pagecolor="#ffffff"
     bordercolor="#666666"
     borderopacity="1"
     objecttolerance="10"
     gridtolerance="10"
     guidetolerance="10"
     inkscape:pageopacity="0"
     inkscape:pageshadow="2"
     inkscape:window-width="532"
     inkscape:window-height="460"
     id="namedview86"
     showgrid="false"
     inkscape:zoom="2.36"
     inkscape:cx="50"
     inkscape:cy="51.999973"
     inkscape:window-x="72"
     inkscape:window-y="27"
     inkscape:window-maximized="0"
     inkscape:current-layer="svg84" />
  <g
     transform="scale(0.44,0.439602)"
     id="g82">
    <path
       d="m 42.527,140.618 c 10.758,-0.004 21.47,-0.661 31.576,-4.508 27.03,-9.314 44.938,-37.878 44.044,-66.076 C 117.363,56.212 112.68,42.535 104.325,31.457 91.883,13.869 70.213,3.894 48.837,4.427 L 0.754,4.406 v 40.63 L 0.626,45.594 0.754,45.586 V 194.039 H 20.32 V 140.618 M 20.128,21.93 c 11.018,-0.021 22.032,-0.256 33.029,0.252 16.374,1.086 32.284,10.23 40.298,24.733 10.039,17.163 8.893,40.388 -3.485,56.063 -8.636,11.632 -22.693,19.076 -37.218,19.31 -10.805,0.149 -21.389,0.068 -32.432,0.068 z"
       style="fill:#ffffff"
       id="path2"
       inkscape:connector-curvature="0" />
    <path
       d="M 46.647,140.579"
       style="fill:#ffffff"
       id="path4"
       inkscape:connector-curvature="0" />
    <path
       d="M 330.801,113.477 V 76.625 h -28.786 c 1.956,6.958 3.025,14.291 3.025,21.875 0,5.122 -0.498,10.12 -1.41,14.977 z"
       style="fill:#ffffff"
       id="path6"
       inkscape:connector-curvature="0" />
    <path
       d="m 296.591,134.444 c -13.221,26.527 -40.6,44.755 -72.254,44.755 -44.571,0 -80.703,-36.131 -80.703,-80.703 0,-44.568 36.132,-80.703 80.703,-80.703 28.829,0 54.108,15.126 68.381,37.861 h 20.294 C 297.077,22.727 263.375,0 224.333,0 c -54.397,0 -98.496,44.099 -98.496,98.496 0,54.401 44.099,98.5 98.496,98.5 41.709,0 77.333,-25.935 91.696,-62.552 z"
       style="fill:#ffffff"
       id="path8"
       inkscape:connector-curvature="0" />
    <polygon
       points="382.241,4.406 365.65,4.406 346.212,4.406 346.212,194.103 382.241,194.103 382.241,113.477 438.377,113.477 438.377,76.625 382.241,76.625 382.241,42.003 441.087,42.003 441.087,4.406 "
       style="fill:#ffffff"
       id="polygon10" />
    <polygon
       points="587.891,4.406 544.529,4.406 514.103,57.618 483.681,4.406 440.32,4.406 492.424,95.539 436.067,194.103 479.429,194.103 514.103,133.46 548.781,194.103 592.143,194.103 535.786,95.539 "
       style="fill:#ffffff"
       id="polygon12" />
    <path
       d="M 20.643,231.64 V 212.041 L 12.36,231.64 H 10.456 L 2.203,212.041 V 231.64 H 0 v -22.015 h 3.426 l 8.014,18.739 7.981,-18.739 h 3.429 v 22.015 z"
       style="fill:#ffffff"
       id="path14"
       inkscape:connector-curvature="0" />
    <path
       d="m 34.657,232.028 c -4.435,0 -7.478,-2.68 -7.478,-8.666 v -13.737 h 2.207 v 13.737 c 0,4.495 1.85,6.642 5.301,6.642 3.396,0 5.275,-2.143 5.275,-6.642 v -13.737 h 2.202 v 13.737 c 0,5.986 -3.037,8.666 -7.507,8.666 z"
       style="fill:#ffffff"
       id="path16"
       inkscape:connector-curvature="0" />
    <path
       d="m 46.502,231.64 v -22.015 h 2.207 v 20.017 h 9.114 v 1.998 z"
       style="fill:#ffffff"
       id="path18"
       inkscape:connector-curvature="0" />
    <path
       d="m 63.924,211.623 v 20.017 h -2.203 v -20.017 h -5.036 v -1.994 H 68.96 v 1.994 z"
       style="fill:#ffffff"
       id="path20"
       inkscape:connector-curvature="0" />
    <path
       d="m 71.244,231.64 v -22.015 h 2.207 v 22.015 z"
       style="fill:#ffffff"
       id="path22"
       inkscape:connector-curvature="0" />
    <path
       d="M 98.441,231.64 V 212.041 L 90.158,231.64 H 88.253 L 80,212.041 v 19.599 h -2.203 v -22.015 h 3.426 l 8.01,18.739 7.985,-18.739 h 3.425 v 22.015 z"
       style="fill:#ffffff"
       id="path24"
       inkscape:connector-curvature="0" />
    <path
       d="m 104.981,231.64 v -22.015 h 12.032 v 1.994 h -9.829 v 7.895 h 9.501 v 1.994 h -9.501 v 8.134 h 9.829 v 1.998 z"
       style="fill:#ffffff"
       id="path26"
       inkscape:connector-curvature="0" />
    <path
       d="m 126.689,231.64 h -5.931 v -22.015 h 5.186 c 3.992,0 6.314,0.477 8.402,1.73 3.276,1.934 5.002,5.211 5.002,9.352 0,6.349 -4.052,10.933 -12.659,10.933 z m 6.434,-18.589 c -1.67,-1.01 -3.754,-1.428 -7.09,-1.428 h -3.068 v 18.023 h 3.068 c 3.903,0 6.166,-0.566 7.925,-1.964 2.024,-1.64 3.157,-4.171 3.157,-7.06 0,-3.281 -1.461,-6.05 -3.992,-7.571 z"
       style="fill:#ffffff"
       id="path28"
       inkscape:connector-curvature="0" />
    <path
       d="m 142.731,231.64 v -22.015 h 2.207 v 22.015 z"
       style="fill:#ffffff"
       id="path30"
       inkscape:connector-curvature="0" />
    <path
       d="m 166.323,231.64 -3.191,-7.418 h -10.247 l -3.217,7.418 h -2.322 l 9.441,-22.015 h 2.476 l 9.472,22.015 z m -8.283,-19.51 -4.32,10.098 h 8.551 z"
       style="fill:#ffffff"
       id="path32"
       inkscape:connector-curvature="0" />
    <path
       d="m 179.203,231.64 v -22.015 h 12.037 v 1.994 h -9.834 v 7.895 h 9.506 v 1.994 h -9.506 v 8.134 h 9.834 v 1.998 z"
       style="fill:#ffffff"
       id="path34"
       inkscape:connector-curvature="0" />
    <path
       d="m 210.298,231.64 -13.11,-19.361 v 19.361 h -2.207 v -22.015 h 2.982 l 12.331,18.262 v -18.262 h 2.207 v 22.015 z"
       style="fill:#ffffff"
       id="path36"
       inkscape:connector-curvature="0" />
    <path
       d="m 222.02,211.623 v 20.017 h -2.203 v -20.017 h -5.036 v -1.994 h 12.275 v 1.994 z"
       style="fill:#ffffff"
       id="path38"
       inkscape:connector-curvature="0" />
    <path
       d="m 229.34,231.64 v -22.015 h 12.036 v 1.994 h -9.829 v 7.895 h 9.501 v 1.994 h -9.501 v 8.134 h 9.829 v 1.998 z"
       style="fill:#ffffff"
       id="path40"
       inkscape:connector-curvature="0" />
    <path
       d="m 253.553,223.417 6.166,8.223 h -2.74 l -7.418,-9.978 c 6.165,0 8.249,-1.07 8.249,-5.032 0,-3.665 -2.262,-5.007 -7.388,-5.007 h -3.098 v 20.017 h -2.203 v -22.015 h 5.45 c 6.911,0 9.472,2.505 9.472,7.09 0.004,3.903 -2.263,6.259 -6.49,6.702 z"
       style="fill:#ffffff"
       id="path42"
       inkscape:connector-curvature="0" />
    <path
       d="m 268.202,211.623 v 20.017 h -2.207 v -20.017 h -5.032 v -1.994 h 12.271 v 1.994 z"
       style="fill:#ffffff"
       id="path44"
       inkscape:connector-curvature="0" />
    <path
       d="m 291.074,231.64 -3.187,-7.418 h -10.252 l -3.217,7.418 h -2.322 l 9.442,-22.015 h 2.476 l 9.471,22.015 z m -8.283,-19.51 -4.321,10.098 h 8.547 z"
       style="fill:#ffffff"
       id="path46"
       inkscape:connector-curvature="0" />
    <path
       d="m 295.884,231.64 v -22.015 h 2.207 v 22.015 z"
       style="fill:#ffffff"
       id="path48"
       inkscape:connector-curvature="0" />
    <path
       d="M 317.746,231.64 304.64,212.279 v 19.361 h -2.207 v -22.015 h 2.978 l 12.335,18.262 v -18.262 h 2.207 v 22.015 z"
       style="fill:#ffffff"
       id="path50"
       inkscape:connector-curvature="0" />
    <path
       d="m 344.934,231.64 v -19.599 l -8.283,19.599 h -1.905 l -8.253,-19.599 v 19.599 h -2.202 v -22.015 h 3.425 l 8.015,18.739 7.98,-18.739 h 3.426 v 22.015 z"
       style="fill:#ffffff"
       id="path52"
       inkscape:connector-curvature="0" />
    <path
       d="m 351.474,231.64 v -22.015 h 12.033 v 1.994 h -9.83 v 7.895 h 9.502 v 1.994 h -9.502 v 8.134 h 9.83 v 1.998 z"
       style="fill:#ffffff"
       id="path54"
       inkscape:connector-curvature="0" />
    <path
       d="m 382.565,231.64 -13.11,-19.361 v 19.361 h -2.203 v -22.015 h 2.978 l 12.335,18.262 v -18.262 h 2.203 v 22.015 z"
       style="fill:#ffffff"
       id="path56"
       inkscape:connector-curvature="0" />
    <path
       d="m 394.291,211.623 v 20.017 h -2.207 v -20.017 h -5.032 v -1.994 h 12.271 v 1.994 z"
       style="fill:#ffffff"
       id="path58"
       inkscape:connector-curvature="0" />
    <path
       d="m 416.114,222.735 h -4.231 v 8.905 h -2.207 v -22.015 h 6.08 c 6.046,0 8.488,2.054 8.488,6.672 0.004,4.172 -2.143,6.438 -8.13,6.438 z m -1.103,-11.112 h -3.128 v 9.114 h 4.078 c 4.38,0 6.05,-1.248 6.05,-4.44 0,-4.465 -2.799,-4.674 -7,-4.674 z"
       style="fill:#ffffff"
       id="path60"
       inkscape:connector-curvature="0" />
    <path
       d="m 427.124,231.64 v -22.015 h 2.207 v 20.017 h 9.118 v 1.998 z"
       style="fill:#ffffff"
       id="path62"
       inkscape:connector-curvature="0" />
    <path
       d="m 458.786,231.64 -3.192,-7.418 h -10.247 l -3.217,7.418 h -2.322 l 9.442,-22.015 h 2.476 l 9.471,22.015 z m -8.283,-19.51 -4.321,10.098 h 8.552 z"
       style="fill:#ffffff"
       id="path64"
       inkscape:connector-curvature="0" />
    <path
       d="m 468.99,224.282 v 7.358 h -2.203 v -7.358 l -7.626,-14.657 h 2.441 l 6.255,12.335 6.408,-12.335 h 2.412 z"
       style="fill:#ffffff"
       id="path66"
       inkscape:connector-curvature="0" />
    <path
       d="m 478.811,231.64 v -22.015 h 12.037 v 1.994 h -9.834 v 7.895 h 9.506 v 1.994 h -9.506 v 8.134 h 9.834 v 1.998 z"
       style="fill:#ffffff"
       id="path68"
       inkscape:connector-curvature="0" />
    <path
       d="m 503.021,223.417 6.165,8.223 h -2.739 l -7.418,-9.978 c 6.165,0 8.253,-1.07 8.253,-5.032 0,-3.665 -2.263,-5.007 -7.389,-5.007 h -3.097 v 20.017 h -2.207 v -22.015 h 5.449 c 6.911,0 9.476,2.505 9.476,7.09 0.005,3.903 -2.262,6.259 -6.493,6.702 z"
       style="fill:#ffffff"
       id="path70"
       inkscape:connector-curvature="0" />
    <path
       d="m 526.988,222.735 h -4.231 v 8.905 h -2.203 v -22.015 h 6.076 c 6.046,0 8.491,2.054 8.491,6.672 0,4.172 -2.143,6.438 -8.133,6.438 z m -1.1,-11.112 h -3.131 v 9.114 h 4.082 c 4.38,0 6.05,-1.248 6.05,-4.44 0,-4.465 -2.804,-4.674 -7.001,-4.674 z"
       style="fill:#ffffff"
       id="path72"
       inkscape:connector-curvature="0" />
    <path
       d="m 548.607,232.028 c -6.583,0 -11.56,-4.887 -11.56,-11.321 0,-6.583 4.858,-11.47 11.411,-11.47 4.559,0 8.432,2.327 10.127,6.11 h -2.475 c -1.875,-2.952 -4.465,-4.082 -7.567,-4.082 -5.241,0 -9.263,4.052 -9.263,9.353 0,5.155 4.201,9.382 9.293,9.382 3.221,0 5.334,-1.219 7.656,-4.141 h 2.442 c -2.199,4.086 -5.595,6.169 -10.064,6.169 z"
       style="fill:#ffffff"
       id="path74"
       inkscape:connector-curvature="0" />
    <path
       d="m 572.301,211.623 v 7.955 h 8.641 v 1.994 h -8.641 v 10.068 h -2.203 v -22.015 h 11.172 v 1.994 h -8.969 z"
       style="fill:#ffffff"
       id="path76"
       inkscape:connector-curvature="0" />
    <path
       d="m 597.405,231.64 -6.225,-9.412 -6.255,9.412 h -2.59 l 7.478,-11.261 -7.061,-10.754 h 2.591 l 5.842,8.82 5.807,-8.82 h 2.561 l -7.06,10.754 7.507,11.261 z"
       style="fill:#ffffff"
       id="path78"
       inkscape:connector-curvature="0" />
    <path
       d="m 563.656,222.616 c -0.895,0 -1.607,-0.711 -1.607,-1.606 0,-0.891 0.712,-1.607 1.607,-1.607 0.865,0 1.606,0.716 1.606,1.607 0,0.895 -0.741,1.606 -1.606,1.606 z"
       style="fill:#ffffff"
       id="path80"
       inkscape:connector-curvature="0" />
  </g>
</svg>
