<?xml version="1.0" encoding="utf-8"?>
<!-- Generator: Adobe Illustrator 25.4.1, SVG Export Plug-In . SVG Version: 6.00 Build 0)  -->
<svg version="1.1" id="Layer_1" xmlns="http://www.w3.org/2000/svg" xmlns:xlink="http://www.w3.org/1999/xlink" x="0px" y="0px"
	 viewBox="0 0 264 43.9" style="enable-background:new 0 0 264 43.9;" xml:space="preserve">
<style type="text/css">
	.st0{fill:#FFFFFF;}
</style>
<path class="st0" d="M17.6,8.8h9.3v9.1h-9.3V8.8z M0,44h17.4l0.1-17.6l26.5,0L43.9,0L9.1,0L0,9.1L0,44z"/>
<path class="st0" d="M53,0h34.9v8.6h-8.6v26.6h8.6V44H53v-8.6h8.9l0-27l-9,0L53,0z"/>
<path class="st0" d="M96.8,9.4l9.4-9.4h25.7v8.7h-17.4v26.6h17.2v8.7H97L96.8,9.4z"/>
<path class="st0" d="M158.6,8.8h8.8v26.3h-8.8V8.8z M140.9,43.8h34.6l9.3-9.3V0h-34.5L141,9.2L140.9,43.8z"/>
<path class="st0" d="M193.8,17.5h17.5v8.8h-17.5V17.5z"/>
<path class="st0" d="M237.7,8.8h17.9v8.8h-17.9V8.8z M237.8,26.3h17.9v8.8h-17.9V26.3z M264,43.9V0h-35v9.4l-8.7,8.7v25.8L264,43.9z
	"/>
</svg>
