<?xml version="1.0" encoding="UTF-8" standalone="no"?>
<svg
   xmlns:dc="http://purl.org/dc/elements/1.1/"
   xmlns:cc="http://creativecommons.org/ns#"
   xmlns:rdf="http://www.w3.org/1999/02/22-rdf-syntax-ns#"
   xmlns:svg="http://www.w3.org/2000/svg"
   xmlns="http://www.w3.org/2000/svg"
   xmlns:sodipodi="http://sodipodi.sourceforge.net/DTD/sodipodi-0.dtd"
   xmlns:inkscape="http://www.inkscape.org/namespaces/inkscape"
   version="1.1"
   id="svg14"
   sodipodi:docname="pico-8.svg"
   width="264"
   height="44"
   inkscape:version="0.92.5 (2060ec1f9f, 2020-04-08)">
  <metadata
     id="metadata20">
    <rdf:RDF>
      <cc:Work
         rdf:about="">
        <dc:format>image/svg+xml</dc:format>
        <dc:type
           rdf:resource="http://purl.org/dc/dcmitype/StillImage" />
      </cc:Work>
    </rdf:RDF>
  </metadata>
  <defs
     id="defs18" />
  <sodipodi:namedview
     pagecolor="#ffffff"
     bordercolor="#666666"
     borderopacity="1"
     objecttolerance="10"
     gridtolerance="10"
     guidetolerance="10"
     inkscape:pageopacity="0"
     inkscape:pageshadow="2"
     inkscape:window-width="532"
     inkscape:window-height="460"
     id="namedview16"
     showgrid="false"
     inkscape:zoom="2.36"
     inkscape:cx="50.02"
     inkscape:cy="-5.997"
     inkscape:window-x="72"
     inkscape:window-y="27"
     inkscape:window-maximized="0"
     inkscape:current-layer="svg14" />
  <path
     d="m 17.592,8.76 h 9.264 v 9.061 H 17.592 Z M 0.022,44 H 17.466 L 17.538,26.355 44.02,26.365 43.916,0.028 9.122,0.03 0,9.121 Z"
     style="fill:#ffffff"
     id="path2"
     inkscape:connector-curvature="0" />
  <path
     d="m 52.983,0.041 h 34.911 v 8.563 h -8.612 v 26.571 h 8.587 v 8.783 H 52.976 v -8.627 h 8.879 L 61.841,8.348 52.883,8.362 Z"
     style="fill:#ffffff"
     id="path4"
     inkscape:connector-curvature="0" />
  <path
     d="M 96.853,9.398 106.255,0 h 25.686 V 8.703 H 114.522 V 35.27 h 17.235 v 8.676 H 97.043 Z"
     style="fill:#ffffff"
     id="path6"
     inkscape:connector-curvature="0" />
  <path
     d="m 158.588,8.767 h 8.769 v 26.305 h -8.769 z m -17.696,35.057 h 34.553 l 9.322,-9.305 V 0.03 h -34.509 l -9.234,9.216 z"
     style="fill:#ffffff"
     id="path8"
     inkscape:connector-curvature="0" />
  <path
     d="m 193.807,17.495 h 17.521 v 8.797 h -17.521 z"
     style="fill:#ffffff"
     id="path10"
     inkscape:connector-curvature="0" />
  <path
     d="m 237.743,8.806 h 17.871 v 8.826 h -17.871 z m 0.031,17.512 h 17.87 v 8.826 h -17.87 z M 264,43.877 V 0 h -34.984 v 9.426 l -8.699,8.681 v 25.837 z"
     style="fill:#ffffff"
     id="path12"
     inkscape:connector-curvature="0" />
</svg>
