<?xml version="1.0" encoding="UTF-8" standalone="no"?>
<svg
   xmlns:dc="http://purl.org/dc/elements/1.1/"
   xmlns:cc="http://creativecommons.org/ns#"
   xmlns:rdf="http://www.w3.org/1999/02/22-rdf-syntax-ns#"
   xmlns:svg="http://www.w3.org/2000/svg"
   xmlns="http://www.w3.org/2000/svg"
   xmlns:sodipodi="http://sodipodi.sourceforge.net/DTD/sodipodi-0.dtd"
   xmlns:inkscape="http://www.inkscape.org/namespaces/inkscape"
   version="1.1"
   id="svg16"
   sodipodi:docname="pokemini.svg"
   width="264.00043"
   height="35.999828"
   inkscape:version="0.92.5 (2060ec1f9f, 2020-04-08)">
  <metadata
     id="metadata22">
    <rdf:RDF>
      <cc:Work
         rdf:about="">
        <dc:format>image/svg+xml</dc:format>
        <dc:type
           rdf:resource="http://purl.org/dc/dcmitype/StillImage" />
      </cc:Work>
    </rdf:RDF>
  </metadata>
  <defs
     id="defs20" />
  <sodipodi:namedview
     pagecolor="#ffffff"
     bordercolor="#666666"
     borderopacity="1"
     objecttolerance="10"
     gridtolerance="10"
     guidetolerance="10"
     inkscape:pageopacity="0"
     inkscape:pageshadow="2"
     inkscape:window-width="532"
     inkscape:window-height="460"
     id="namedview18"
     showgrid="false"
     inkscape:zoom="2.36"
     inkscape:cx="50"
     inkscape:cy="-14.000171"
     inkscape:window-x="72"
     inkscape:window-y="27"
     inkscape:window-maximized="0"
     inkscape:current-layer="svg16" />
  <path
     d="m 33.899,12.062 c -2.041,-0.003 -10.213,0.652 -10.213,11.896 0,12.847 10.664,12.018 10.664,12.018 0,0 10.418,-0.109 10.418,-12.018 0,-11.91 -10.301,-11.886 -10.418,-11.896 0,0 -0.16,0.002 -0.451,0 z m 0.451,6.093 c 0,0 3.815,-0.622 3.815,5.803 0,5.949 -3.815,5.305 -3.815,5.305 0,0 -3.978,0.044 -3.978,-5.305 0,-6.448 3.978,-5.728 3.978,-5.803 z"
     id="path3667"
     style="fill:#ffffff;fill-opacity:1;stroke:none;stroke-width:5.91784;stroke-linecap:butt;stroke-linejoin:round;stroke-miterlimit:4;stroke-dasharray:none;stroke-opacity:1;paint-order:markers stroke"
     inkscape:connector-curvature="0" />
  <path
     d="m 48.845,2.679 h 6.679 v 18.195 l 5.169,-8.808 h 7.136 l -7.136,10.548 7.136,13.379 H 60.693 L 55.524,24.857 v 11.136 h -6.679 z"
     id="path3678"
     style="fill:#ffffff;fill-opacity:1;stroke:none;stroke-width:5.91784;stroke-linecap:butt;stroke-linejoin:round;stroke-miterlimit:4;stroke-dasharray:none;stroke-opacity:1;paint-order:markers stroke"
     inkscape:connector-curvature="0" />
  <path
     d="m 71.914,5.92 2.524,3.606 9.6,-5.804 L 81.079,0 72.029,5.862 Z"
     id="path3711"
     style="fill:#ffffff;fill-opacity:1;stroke:none;stroke-width:5.91784;stroke-linecap:butt;stroke-linejoin:round;stroke-miterlimit:4;stroke-dasharray:none;stroke-opacity:1;paint-order:markers stroke"
     inkscape:connector-curvature="0" />
  <path
     d="m 92.299,35.993 h 5.906 V 22.241 c 0,0 0.246,-3.616 3.281,-3.616 3.035,0 3.035,3.616 3.035,3.616 v 13.752 h 5.578 V 22.241 c 0,0 0.124,-3.616 3.16,-3.616 3.034,0 3.034,3.616 3.034,3.616 v 13.752 h 5.783 V 18.625 c 0,0 0.411,-6.559 -5.783,-6.559 -6.194,0 -6.194,3.902 -6.194,3.902 0,0 0.739,-3.902 -5.578,-3.902 -6.316,0 -6.316,3.902 -6.316,3.902 0,0 0.902,-3.902 -2.502,-3.902 -3.404,0 -3.404,0 -3.404,0 z"
     id="path3727"
     style="fill:#ffffff;fill-opacity:1;stroke:none;stroke-width:5.91784;stroke-linecap:butt;stroke-linejoin:round;stroke-miterlimit:4;stroke-dasharray:none;stroke-opacity:1;paint-order:markers stroke"
     inkscape:connector-curvature="0" />
  <path
     d="m 136.171,12.076 c -2.041,-0.004 -10.212,0.652 -10.212,11.893 0,12.849 10.664,12.02 10.664,12.02 0,0 10.419,-0.11 10.419,-12.02 0,-11.908 -10.302,-11.886 -10.419,-11.893 0,0 -0.16,0 -0.452,0 z m 0.452,6.091 c 0,0 3.814,-0.621 3.814,5.802 0,5.951 -3.814,5.306 -3.814,5.306 0,0 -3.978,0.046 -3.978,-5.306 0,-6.445 3.978,-5.726 3.978,-5.802 z"
     id="path3667-1"
     style="fill:#ffffff;fill-opacity:1;stroke:none;stroke-width:5.91784;stroke-linecap:butt;stroke-linejoin:round;stroke-miterlimit:4;stroke-dasharray:none;stroke-opacity:1;paint-order:markers stroke"
     inkscape:connector-curvature="0" />
  <path
     d="m 150.742,35.993 h 6.439 V 22.241 c 0,0 -0.164,-3.616 3.405,-3.616 3.569,0 3.569,3.616 3.569,3.616 v 13.752 h 5.987 V 18.625 c 0,0 0.041,-6.559 -5.987,-6.559 -6.03,0 -6.974,3.902 -6.974,3.902 0,0 0.575,-3.902 -1.805,-3.902 -2.378,0 -4.634,0 -4.634,0 z"
     id="path3759"
     style="fill:#ffffff;fill-opacity:1;stroke:none;stroke-width:5.91784;stroke-linecap:butt;stroke-linejoin:round;stroke-miterlimit:4;stroke-dasharray:none;stroke-opacity:1;paint-order:markers stroke"
     inkscape:connector-curvature="0" />
  <path
     d="m 185.01,12.066 h 27.639 c 0,0 2.668,-0.103 2.668,2.549 0,2.653 0,19.996 0,19.996 0,0 0.059,1.382 -1.276,1.382 -1.333,0 -4.001,0 -4.001,0 0,0 -1.335,-0.033 -1.335,-1.382 0,-1.347 0,-12.37 0,-12.37 0,0 -0.116,-1.579 -1.276,-1.579 -1.16,0 -4.002,0 -4.002,0 0,0 -1.335,-0.156 -1.335,1.579 0,1.735 0,12.37 0,12.37 0,0 -0.174,1.382 -1.333,1.382 -1.161,0 -3.771,0 -3.771,0 0,0 -1.451,0.084 -1.451,-1.382 0,-1.465 0,-12.37 0,-12.37 0,0 0.406,-1.579 -1.392,-1.579 -1.798,0 -3.77,0 -3.77,0 0,0 -1.335,-0.156 -1.335,1.579 0,1.735 0,12.37 0,12.37 0,0 0,1.382 -1.333,1.382 -1.335,0 -4.002,0 -4.002,0 0,0 -1.219,-0.093 -1.219,-1.382 0,-1.289 0,-19.996 0,-19.996 0,0 0.059,-2.356 2.524,-2.549 z"
     id="path3775"
     style="fill:#ffffff;fill-opacity:1;stroke:none;stroke-width:5.91784;stroke-linecap:butt;stroke-linejoin:round;stroke-miterlimit:4;stroke-dasharray:none;stroke-opacity:1;paint-order:markers stroke"
     inkscape:connector-curvature="0" />
  <path
     d="m 225.752,23.976 c 0,0 1.284,-0.098 1.284,1.28 0,1.377 0,9.355 0,9.355 0,0 -0.136,1.382 -1.242,1.382 -1.108,0 -2.708,0 -2.708,0 0,0 -1.329,-0.036 -1.329,-1.382 0,-1.346 0,-9.355 0,-9.355 0,0 0.057,-1.28 1.37,-1.28 1.312,0 2.544,0.047 2.625,0 z"
     id="path3787"
     style="fill:#ffffff;fill-opacity:1;stroke:none;stroke-width:5.91784;stroke-linecap:butt;stroke-linejoin:round;stroke-miterlimit:4;stroke-dasharray:none;stroke-opacity:1;paint-order:markers stroke"
     inkscape:connector-curvature="0" />
  <path
     d="m 223.127,19.958 c 0,0 -1.37,0.025 -1.37,-1.333 0,-1.357 0,-4.01 0,-4.01 0,0 -0.003,-1.326 1.391,-1.326 1.394,0 2.625,0 2.625,0 0,0 1.263,-0.027 1.263,1.326 0,1.353 0,4.01 0,4.01 0,0 0.131,1.333 -1.242,1.333 -1.374,0 -2.625,-0.018 -2.667,0 z"
     id="path3789"
     style="fill:#ffffff;fill-opacity:1;stroke:none;stroke-width:5.91784;stroke-linecap:butt;stroke-linejoin:round;stroke-miterlimit:4;stroke-dasharray:none;stroke-opacity:1;paint-order:markers stroke"
     inkscape:connector-curvature="0" />
  <path
     d="m 233.586,34.611 c 0,0 0.041,1.382 1.354,1.382 1.312,0 3.856,0 3.856,0 0,0 1.353,-0.077 1.353,-1.382 0,-1.304 0,-12.37 0,-12.37 0,0 0.041,-1.579 1.313,-1.579 1.271,0 3.937,0 3.937,0 0,0 1.353,-0.156 1.353,1.579 0,1.735 0,12.37 0,12.37 0,0 -0.081,1.382 1.313,1.382 1.395,0 2.667,0 2.667,0 0,0 1.23,-0.077 1.23,-1.382 0,-1.304 0,-18.643 0,-18.643 0,0 -0.041,-2.679 -2.625,-2.679 -2.585,0 -13.085,0 -13.085,0 0,0 -2.666,0.023 -2.666,2.679 0,2.657 0.124,18.789 0,18.643 z"
     id="path3807"
     style="fill:#ffffff;fill-opacity:1;stroke:none;stroke-width:5.91784;stroke-linecap:butt;stroke-linejoin:round;stroke-miterlimit:4;stroke-dasharray:none;stroke-opacity:1;paint-order:markers stroke"
     inkscape:connector-curvature="0" />
  <path
     d="m 262.714,23.976 c 0,0 1.283,-0.098 1.283,1.28 0,1.377 0,9.355 0,9.355 0,0 -0.134,1.382 -1.242,1.382 -1.108,0 -2.707,0 -2.707,0 0,0 -1.329,-0.036 -1.329,-1.382 0,-1.346 0,-9.355 0,-9.355 0,0 0.058,-1.28 1.37,-1.28 1.313,0 2.543,0.047 2.625,0 z"
     id="path3787-7"
     style="fill:#ffffff;fill-opacity:1;stroke:none;stroke-width:5.91784;stroke-linecap:butt;stroke-linejoin:round;stroke-miterlimit:4;stroke-dasharray:none;stroke-opacity:1;paint-order:markers stroke"
     inkscape:connector-curvature="0" />
  <path
     d="m 260.089,19.958 c 0,0 -1.37,0.025 -1.37,-1.333 0,-1.357 0,-4.01 0,-4.01 0,0 -0.003,-1.326 1.391,-1.326 1.394,0 2.625,0 2.625,0 0,0 1.262,-0.027 1.262,1.326 0,1.353 0,4.01 0,4.01 0,0 0.132,1.333 -1.242,1.333 -1.374,0 -2.625,-0.018 -2.666,0 z"
     id="path3789-4"
     style="fill:#ffffff;fill-opacity:1;stroke:none;stroke-width:5.91784;stroke-linecap:butt;stroke-linejoin:round;stroke-miterlimit:4;stroke-dasharray:none;stroke-opacity:1;paint-order:markers stroke"
     inkscape:connector-curvature="0" />
  <path
     d="m 78.617,12.062 c -7.878,0 -9.68,6.078 -9.68,11.896 0,5.818 3.485,12.018 10.213,12.018 6.729,0 7.342,-1.367 7.342,-1.367 v -4.021 c -0.047,-0.014 -5.509,0 -8.408,0 -2.901,0 -2.339,-3.937 -2.339,-3.937 h 12.511 v -4.393 c 0,0 0.003,-10.196 -9.639,-10.196 z m 0.451,5.223 c 3.328,0 3.363,1.326 3.363,1.326 v 3.647 h -6.686 v -3.647 c 0,0 -0.005,-1.326 3.323,-1.326 z"
     id="path3696"
     style="fill:#ffffff;fill-opacity:1;stroke:none;stroke-width:5.91784;stroke-linecap:butt;stroke-linejoin:round;stroke-miterlimit:4;stroke-dasharray:none;stroke-opacity:1;paint-order:markers stroke"
     inkscape:connector-curvature="0" />
  <path
     d="M 0,4.52 V 35.976 H 7.383 V 24.868 h 5.742 c 0,0 7.424,-0.621 7.424,-6.713 v -6.093 c 0,0 -0.046,-7.542 -7.424,-7.542 C 5.821,4.52 0.032,4.625 0,4.52 Z m 7.383,6.092 c 0.011,0.002 2.766,0 3.938,0 2.021,0.604 1.804,2.695 1.804,2.695 v 2.652 c 0,2.205 -1.804,2.652 -1.804,2.652 H 7.383 Z"
     id="path2870"
     style="fill:#ffffff;fill-opacity:1;stroke:none;stroke-width:5.91784;stroke-linecap:butt;stroke-linejoin:round;stroke-miterlimit:4;stroke-dasharray:none;stroke-opacity:1;paint-order:markers stroke"
     inkscape:connector-curvature="0" />
</svg>
