<?xml version="1.0" encoding="UTF-8" standalone="no"?>
<svg
   xmlns:dc="http://purl.org/dc/elements/1.1/"
   xmlns:cc="http://creativecommons.org/ns#"
   xmlns:rdf="http://www.w3.org/1999/02/22-rdf-syntax-ns#"
   xmlns:svg="http://www.w3.org/2000/svg"
   xmlns="http://www.w3.org/2000/svg"
   xmlns:sodipodi="http://sodipodi.sourceforge.net/DTD/sodipodi-0.dtd"
   xmlns:inkscape="http://www.inkscape.org/namespaces/inkscape"
   version="1.1"
   id="svg10"
   sodipodi:docname="ports.svg"
   width="264"
   height="70.000061"
   inkscape:version="0.92.5 (2060ec1f9f, 2020-04-08)">
  <metadata
     id="metadata16">
    <rdf:RDF>
      <cc:Work
         rdf:about="">
        <dc:format>image/svg+xml</dc:format>
        <dc:type
           rdf:resource="http://purl.org/dc/dcmitype/StillImage" />
      </cc:Work>
    </rdf:RDF>
  </metadata>
  <defs
     id="defs14" />
  <sodipodi:namedview
     pagecolor="#ffffff"
     bordercolor="#666666"
     borderopacity="1"
     objecttolerance="10"
     gridtolerance="10"
     guidetolerance="10"
     inkscape:pageopacity="0"
     inkscape:pageshadow="2"
     inkscape:window-width="640"
     inkscape:window-height="480"
     id="namedview12"
     showgrid="false"
     inkscape:zoom="2.36"
     inkscape:cx="50"
     inkscape:cy="20.00006"
     inkscape:window-x="72"
     inkscape:window-y="27"
     inkscape:window-maximized="0"
     inkscape:current-layer="svg10" />
  <g
     transform="scale(0.44,0.438465)"
     id="g8">
    <path
       d="m 84.453,80.481 c 8.799,-10.287 21.867,-16.812 36.465,-16.812 2.928,0 5.793,0.279 8.577,0.777 1.878,-5.133 2.901,-10.677 2.901,-16.464 C 132.396,21.483 110.907,0 84.408,0 57.903,0 36.42,21.483 36.42,47.985 c 0,5.793 1.032,11.343 2.913,16.479 2.808,-0.51 5.697,-0.795 8.655,-0.795 14.598,0.003 27.663,6.528 36.465,16.812 z m 45.042,-16.032 c -5.76,15.768 -19.554,27.657 -36.423,30.738 1.875,5.136 2.904,10.689 2.904,16.47 0,11.907 -4.344,22.791 -11.523,31.176 8.802,10.287 21.867,16.815 36.465,16.815 26.505,0 47.988,-21.486 47.988,-47.991 0,-23.574 -17.001,-43.161 -39.411,-47.208 z M 75.834,95.196 C 58.929,92.145 45.105,80.244 39.333,64.467 16.965,68.541 0,88.113 0,111.657 c 0,26.505 21.486,47.991 47.988,47.991 14.598,0 27.663,-6.528 36.465,-16.812 -7.176,-8.388 -11.52,-19.272 -11.52,-31.176 0,-5.784 1.026,-11.331 2.901,-16.464 z m 0,0 c 2.784,0.504 5.646,0.774 8.574,0.774 2.961,0 5.853,-0.273 8.664,-0.786 -1.983,-5.433 -4.932,-10.392 -8.619,-14.706 -3.69,4.314 -6.636,9.288 -8.619,14.718 z"
       id="path9"
       style="fill:#ffffff;fill-opacity:1"
       inkscape:connector-curvature="0" />
    <path
       d="m 267.966,59.187 c 0,9.423 -3.201,16.647 -9.6,21.672 -6.402,5.022 -15.468,7.533 -27.204,7.533 h -15.066 v 40.269 h -6.801 V 31.185 h 23.868 c 23.202,0 34.803,9.333 34.803,28.002 z m -51.87,23.337 h 13.401 c 10.977,0 18.912,-1.812 23.802,-5.436 4.887,-3.621 7.332,-9.501 7.332,-17.634 0,-7.512 -2.31,-13.077 -6.933,-16.701 C 249.075,39.132 241.92,37.32 232.23,37.32 h -16.134 z"
       id="path13"
       style="fill:#ffffff;fill-opacity:1"
       inkscape:connector-curvature="0" />
    <path
       d="m 371.109,79.791 c 0,15.468 -3.864,27.702 -11.601,36.702 -7.737,9.006 -18.402,13.506 -32.001,13.506 -13.56,0 -24.204,-4.5 -31.938,-13.506 -7.734,-9 -11.601,-21.276 -11.601,-36.837 0,-15.51 3.9,-27.723 11.7,-36.636 7.803,-8.913 18.459,-13.368 31.971,-13.368 13.605,0 24.246,4.479 31.938,13.434 7.686,8.958 11.532,21.192 11.532,36.705 z m -79.74,0 c 0,13.956 3.111,24.744 9.333,32.37 6.222,7.623 15.159,11.436 26.805,11.436 11.733,0 20.703,-3.777 26.901,-11.337 6.198,-7.557 9.3,-18.375 9.3,-32.469 0,-14.046 -3.102,-24.813 -9.3,-32.301 -6.198,-7.491 -15.123,-11.235 -26.769,-11.235 -11.601,0 -20.547,3.777 -26.835,11.334 -6.291,7.554 -9.435,18.291 -9.435,32.202 z"
       id="path15"
       style="fill:#ffffff;fill-opacity:1"
       inkscape:connector-curvature="0" />
    <path
       d="m 400.314,86.19 v 42.471 H 393.51 V 31.185 h 23.202 c 12.093,0 21.027,2.232 26.808,6.699 5.778,4.467 8.667,11.193 8.667,20.169 0,6.537 -1.722,12.048 -5.166,16.536 -3.447,4.491 -8.676,7.713 -15.702,9.669 l 26.469,44.406 h -8.133 L 424.515,86.19 Z m 0,-5.868 h 18.6 c 8.223,0 14.601,-1.83 19.137,-5.499 4.533,-3.666 6.804,-9.075 6.804,-16.236 0,-7.422 -2.226,-12.819 -6.669,-16.2 -4.446,-3.378 -11.694,-5.067 -21.741,-5.067 h -16.131 z"
       id="path17"
       style="fill:#ffffff;fill-opacity:1"
       inkscape:connector-curvature="0" />
    <path
       d="m 500.055,128.661 h -6.864 V 37.587 h -31.674 v -6.402 h 70.209 v 6.402 h -31.671 z"
       id="path19"
       style="fill:#ffffff;fill-opacity:1"
       inkscape:connector-curvature="0" />
    <path
       d="m 600,103.524 c 0,8.139 -2.991,14.583 -8.97,19.338 -5.979,4.755 -13.923,7.134 -23.835,7.134 -11.913,0 -21.048,-1.314 -27.405,-3.939 v -6.801 c 7.026,2.979 15.978,4.47 26.868,4.47 8.004,0 14.349,-1.833 19.038,-5.496 4.689,-3.672 7.032,-8.484 7.032,-14.439 0,-3.687 -0.777,-6.744 -2.337,-9.168 -1.554,-2.421 -4.086,-4.632 -7.596,-6.633 -3.516,-2.001 -8.667,-4.158 -15.471,-6.468 -9.954,-3.42 -16.833,-7.122 -20.634,-11.097 -3.804,-3.981 -5.703,-9.282 -5.703,-15.903 0,-7.29 2.856,-13.233 8.571,-17.835 5.712,-4.602 13.053,-6.9 22.032,-6.9 9.156,0 17.757,1.734 25.803,5.199 l -2.466,5.868 c -8.091,-3.378 -15.825,-5.07 -23.202,-5.07 -7.2,0 -12.933,1.668 -17.199,5.004 -4.272,3.333 -6.402,7.869 -6.402,13.602 0,3.6 0.651,6.558 1.962,8.868 1.308,2.313 3.459,4.389 6.432,6.237 2.979,1.842 8.091,4.056 15.336,6.633 7.599,2.625 13.311,5.166 17.133,7.635 3.816,2.466 6.609,5.268 8.364,8.4 1.77,3.129 2.649,6.918 2.649,11.361 z"
       id="path21"
       style="fill:#ffffff;fill-opacity:1"
       inkscape:connector-curvature="0" />
  </g>
</svg>
