<?xml version="1.0" encoding="UTF-8" standalone="no"?>
<svg
   xmlns:dc="http://purl.org/dc/elements/1.1/"
   xmlns:cc="http://creativecommons.org/ns#"
   xmlns:rdf="http://www.w3.org/1999/02/22-rdf-syntax-ns#"
   xmlns:svg="http://www.w3.org/2000/svg"
   xmlns="http://www.w3.org/2000/svg"
   xmlns:sodipodi="http://sodipodi.sourceforge.net/DTD/sodipodi-0.dtd"
   xmlns:inkscape="http://www.inkscape.org/namespaces/inkscape"
   version="1.2"
   id="svg27"
   sodipodi:docname="psp.svg"
   width="264"
   height="85.999931"
   inkscape:version="0.92.5 (2060ec1f9f, 2020-04-08)">
  <metadata
     id="metadata33">
    <rdf:RDF>
      <cc:Work
         rdf:about="">
        <dc:format>image/svg+xml</dc:format>
        <dc:type
           rdf:resource="http://purl.org/dc/dcmitype/StillImage" />
      </cc:Work>
    </rdf:RDF>
  </metadata>
  <defs
     id="defs31" />
  <sodipodi:namedview
     pagecolor="#ffffff"
     bordercolor="#666666"
     borderopacity="1"
     objecttolerance="10"
     gridtolerance="10"
     guidetolerance="10"
     inkscape:pageopacity="0"
     inkscape:pageshadow="2"
     inkscape:window-width="532"
     inkscape:window-height="460"
     id="namedview29"
     showgrid="false"
     inkscape:zoom="2.36"
     inkscape:cx="50"
     inkscape:cy="35.99893"
     inkscape:window-x="72"
     inkscape:window-y="27"
     inkscape:window-maximized="0"
     inkscape:current-layer="svg27" />
  <g
     transform="matrix(0.44,0,0,0.4391,0,4.391e-4)"
     id="g25">
    <path
       id="path6905"
       d="m 109.269,170.297 c 5.643,0 9.027,-1.149 9.027,-6.513 0,-3.972 -2.46,-6.096 -8.103,-6.096 h -7.797 v 12.609 z m -9.849,16.569 v -31.734 h 11.595 c 8.205,0 10.362,4.104 10.362,8.865 0,7.089 -6.363,8.853 -12.21,8.853 h -6.771 v 14.016 H 99.42"
       style="fill:#ffffff;fill-opacity:1"
       inkscape:connector-curvature="0" />
    <path
       id="path6907"
       d="m 125.376,186.866 h 2.565 v -31.734 h -2.565 z"
       style="fill:#ffffff;fill-opacity:1"
       inkscape:connector-curvature="0" />
    <path
       id="path6909"
       d="m 149.487,174.872 c -2.256,0.924 -4.617,1.107 -6.873,1.284 -4.002,0.306 -6.462,1.764 -6.462,4.842 0,2.79 2.463,4.104 4.926,4.104 4.206,0 8.412,-2.031 8.412,-6.66 z m -4.512,-1.314 c 1.023,-0.093 2.667,-0.357 3.486,-0.759 0.924,-0.39 1.026,-1.581 1.026,-2.37 0,-2.688 -1.641,-4.626 -5.745,-4.626 -3.591,0 -6.153,1.188 -6.669,5.151 h -2.667 c 0.411,-5.379 4.41,-7.542 9.438,-7.542 4.617,0 8.208,1.815 8.208,7.098 v 12.426 c 0,2.073 0.615,2.556 2.772,1.764 v 2.073 c -0.309,0.135 -1.233,0.441 -2.052,0.441 -0.411,0 -0.72,-0.039 -1.128,-0.132 -1.848,-0.255 -2.157,-1.806 -2.157,-3.399 -2.154,2.475 -5.232,3.798 -8.514,3.798 -4.002,0 -7.593,-2.166 -7.593,-6.564 0,-3.828 2.667,-6.168 8.001,-6.876 l 3.594,-0.483"
       style="fill:#ffffff;fill-opacity:1"
       inkscape:connector-curvature="0" />
    <path
       id="path6911"
       d="m 158.619,193.073 c 0.717,0.132 1.434,0.276 2.154,0.276 3.078,0 3.489,-4.326 4.515,-6.309 l -8.928,-23.001 h 2.976 l 7.389,19.617 7.284,-19.617 h 2.871 l -8.514,22.518 c -2.157,5.724 -3.591,9.297 -7.287,9.297 -0.921,0 -1.743,-0.132 -2.46,-0.306 v -2.475"
       style="fill:#ffffff;fill-opacity:1"
       inkscape:connector-curvature="0" />
    <path
       id="path6913"
       d="m 183.138,177.386 c 0.516,5.685 4.209,7.755 9.132,7.755 5.643,0 8.004,-3.075 8.004,-6.564 0,-9.831 -19.29,-3.303 -19.29,-15.768 0,-4.413 3.591,-8.508 10.773,-8.508 7.08,0 10.671,4.308 10.569,9.483 h -2.772 c 0,-4.854 -3.795,-6.927 -7.797,-6.927 -6.156,0 -8.31,3.744 -7.797,7.008 1.332,8.187 19.392,2.286 19.392,14.577 0,5.829 -4.311,9.258 -11.595,9.258 -6.669,0 -11.595,-3.429 -11.595,-10.314 h 2.976"
       style="fill:#ffffff;fill-opacity:1"
       inkscape:connector-curvature="0" />
    <path
       id="path6915"
       d="m 217.101,186.95 c -0.615,0.132 -1.743,0.534 -3.078,0.534 -2.565,0 -4.002,-1.149 -4.002,-4.545 v -16.704 h -3.285 v -2.196 h 3.285 v -6.351 h 2.667 v 6.351 h 4.209 v 2.196 h -4.209 v 15.648 c 0,2.256 0,3.219 2.256,3.219 0.72,0 1.437,-0.132 2.157,-0.306 v 2.154"
       style="fill:#ffffff;fill-opacity:1"
       inkscape:connector-curvature="0" />
    <path
       id="path6917"
       d="m 236.901,174.872 c -2.256,0.924 -4.512,1.107 -6.771,1.284 -4.002,0.306 -6.465,1.764 -6.465,4.842 0,2.79 2.463,4.104 4.929,4.104 4.203,0 8.307,-2.031 8.307,-6.66 z m -4.413,-1.314 c 0.924,-0.093 2.568,-0.357 3.492,-0.759 0.819,-0.39 0.921,-1.581 0.921,-2.37 0,-2.688 -1.539,-4.626 -5.643,-4.626 -3.693,0 -6.156,1.188 -6.669,5.151 h -2.667 c 0.411,-5.379 4.41,-7.542 9.336,-7.542 4.617,0 8.31,1.815 8.31,7.098 v 12.426 c 0,2.073 0.516,2.556 2.772,1.764 v 2.073 c -0.411,0.135 -1.335,0.441 -2.052,0.441 -0.411,0 -0.819,-0.039 -1.233,-0.132 -1.743,-0.255 -2.052,-1.806 -2.052,-3.399 -2.256,2.475 -5.229,3.798 -8.514,3.798 -4.002,0 -7.695,-2.166 -7.695,-6.564 0,-3.828 2.667,-6.168 8.004,-6.876 l 3.69,-0.483"
       style="fill:#ffffff;fill-opacity:1"
       inkscape:connector-curvature="0" />
    <path
       id="path6919"
       d="m 255.165,186.95 c -0.615,0.132 -1.746,0.534 -3.078,0.534 -2.565,0 -4.002,-1.149 -4.002,-4.545 v -16.704 h -3.18 v -2.196 h 3.18 v -6.351 h 2.67 v 6.351 h 4.206 v 2.196 h -4.206 v 15.648 c 0,2.256 0,3.219 2.256,3.219 0.717,0 1.437,-0.132 2.154,-0.306 v 2.154"
       style="fill:#ffffff;fill-opacity:1"
       inkscape:connector-curvature="0" />
    <path
       id="path6921"
       d="m 263.067,186.866 h -2.568 v -22.827 h 2.568 z m -2.772,-27.816 v -3.918 h 2.976 v 3.918 h -2.976"
       style="fill:#ffffff;fill-opacity:1"
       inkscape:connector-curvature="0" />
    <path
       id="path6923"
       d="m 278.661,165.803 c -5.541,0 -7.695,4.707 -7.695,9.642 0,5.685 2.667,9.657 7.695,9.657 5.538,0 7.797,-4.761 7.797,-9.657 0,-5.376 -2.154,-9.642 -7.797,-9.642 z m -10.569,9.642 c 0,-6.648 3.591,-12.033 10.569,-12.033 7.179,0 10.668,5.334 10.668,12.033 0,7.236 -4.206,12.036 -10.668,12.036 -5.745,-0.09 -10.569,-4.053 -10.569,-12.036"
       style="fill:#ffffff;fill-opacity:1"
       inkscape:connector-curvature="0" />
    <path
       id="path6925"
       d="m 295.692,186.866 h -2.667 v -22.827 h 2.667 v 3.168 c 2.052,-2.244 4.206,-3.795 7.284,-3.795 2.871,0 5.337,0.882 6.978,3.264 1.125,1.641 1.23,3.354 1.23,5.241 v 14.949 h -2.67 v -14.898 c 0,-4.092 -1.743,-6.165 -5.949,-6.165 -3.285,0 -5.541,2.112 -6.363,4.44 -0.513,1.458 -0.513,2.742 -0.513,4.332 v 12.291"
       style="fill:#ffffff;fill-opacity:1"
       inkscape:connector-curvature="0" />
    <path
       id="path6927"
       d="m 321.546,179.45 c -0.309,-0.144 -0.717,-0.216 -1.332,-0.216 h -0.822 v 2.112 h 0.924 c 0.411,0 0.819,-0.039 1.026,-0.12 0.408,-0.165 0.615,-0.471 0.615,-0.924 0,-0.423 -0.207,-0.711 -0.411,-0.852 z m -1.128,-0.936 c 0.72,0 1.233,0.063 1.641,0.204 0.615,0.258 0.822,0.75 0.822,1.5 0,0.522 -0.105,0.903 -0.513,1.149 -0.207,0.132 -0.513,0.228 -0.819,0.288 0.408,0.069 0.717,0.276 0.921,0.585 0.204,0.318 0.309,0.627 0.309,0.924 v 0.429 c 0,0.144 0,0.297 0.102,0.444 0,0.162 0,0.264 0,0.315 v 0.072 h -0.924 c 0,-0.021 0,-0.042 0,-0.051 0,-0.024 0,-0.054 0,-0.084 l -0.102,-0.183 v -0.471 c 0,-0.699 -0.204,-1.152 -0.513,-1.365 -0.204,-0.135 -0.615,-0.195 -1.128,-0.195 h -0.819 v 2.349 h -1.026 v -5.91 h 2.049 z m -3.18,-0.306 c -0.924,0.903 -1.335,2.001 -1.335,3.27 0,1.305 0.411,2.403 1.335,3.306 0.924,0.912 1.95,1.365 3.285,1.365 1.335,0 2.358,-0.453 3.285,-1.365 0.921,-0.903 1.335,-2.001 1.335,-3.306 0,-1.269 -0.414,-2.367 -1.335,-3.27 -0.924,-0.903 -1.95,-1.356 -3.285,-1.356 -1.335,0 -2.361,0.45 -3.285,1.356 z m 7.08,7.077 c -1.026,1.047 -2.358,1.581 -3.795,1.581 -1.44,0 -2.772,-0.534 -3.795,-1.581 -1.029,-1.044 -1.539,-2.316 -1.539,-3.807 0,-1.467 0.51,-2.739 1.539,-3.774 1.023,-1.056 2.355,-1.569 3.795,-1.569 1.434,0 2.769,0.51 3.795,1.569 1.026,1.026 1.539,2.298 1.539,3.774 0,1.491 -0.516,2.763 -1.539,3.807"
       style="fill:#ffffff;fill-opacity:1"
       inkscape:connector-curvature="0" />
    <path
       id="path6929"
       d="m 343.914,170.297 c 5.643,0 9.129,-1.149 9.129,-6.513 0,-3.972 -2.562,-6.096 -8.205,-6.096 h -7.8 v 12.609 z m -9.849,16.569 v -31.734 h 11.595 c 8.208,0 10.359,4.104 10.359,8.865 0,7.089 -6.258,8.853 -12.207,8.853 h -6.774 v 14.016 h -2.973"
       style="fill:#ffffff;fill-opacity:1"
       inkscape:connector-curvature="0" />
    <path
       id="path6931"
       d="m 367.818,165.803 c -5.538,0 -7.794,4.707 -7.794,9.642 0,5.685 2.769,9.657 7.794,9.657 5.541,0 7.8,-4.761 7.8,-9.657 -0.102,-5.376 -2.157,-9.642 -7.8,-9.642 z m -10.566,9.642 c 0,-6.648 3.489,-12.033 10.566,-12.033 7.185,0 10.569,5.334 10.569,12.033 0,7.236 -4.206,12.036 -10.569,12.036 -5.847,-0.09 -10.566,-4.053 -10.566,-12.036"
       style="fill:#ffffff;fill-opacity:1"
       inkscape:connector-curvature="0" />
    <path
       id="path6933"
       d="m 384.954,186.866 h -2.667 v -22.827 h 2.667 v 4.281 h 0.105 c 1.434,-3.666 3.591,-4.908 7.386,-4.908 v 2.877 c -5.952,-0.135 -7.488,4.266 -7.488,9.375 v 11.202"
       style="fill:#ffffff;fill-opacity:1"
       inkscape:connector-curvature="0" />
    <path
       id="path6935"
       d="m 407.22,186.95 c -0.618,0.132 -1.746,0.534 -2.979,0.534 -2.667,0 -4.104,-1.149 -4.104,-4.545 v -16.704 h -3.18 v -2.196 h 3.18 v -6.351 h 2.667 v 6.351 h 4.311 v 2.196 h -4.311 v 15.648 c 0,2.256 0.105,3.219 2.259,3.219 0.72,0 1.539,-0.132 2.154,-0.306 v 2.154"
       style="fill:#ffffff;fill-opacity:1"
       inkscape:connector-curvature="0" />
    <path
       id="path6937"
       d="m 426.198,174.872 c -2.256,0.924 -4.515,1.107 -6.771,1.284 -4.002,0.306 -6.462,1.764 -6.462,4.842 0,2.79 2.463,4.104 4.923,4.104 4.209,0 8.313,-2.031 8.313,-6.66 v -3.57 z m -4.413,-1.314 c 0.921,-0.093 2.565,-0.357 3.489,-0.759 0.822,-0.39 0.924,-1.581 0.924,-2.37 0,-2.688 -1.539,-4.626 -5.643,-4.626 -3.69,0 -6.156,1.188 -6.669,5.151 h -2.667 c 0.408,-5.379 4.413,-7.542 9.336,-7.542 4.617,0 8.313,1.815 8.313,7.098 v 12.426 c 0,2.073 0.51,2.556 2.769,1.764 v 2.073 c -0.411,0.135 -1.335,0.441 -2.052,0.441 -0.411,0 -0.822,-0.039 -1.23,-0.132 -1.743,-0.255 -2.052,-1.806 -2.052,-3.399 -2.259,2.475 -5.232,3.798 -8.52,3.798 -3.999,0 -7.695,-2.166 -7.695,-6.564 0,-3.828 2.667,-6.168 8.004,-6.876 l 3.693,-0.483"
       style="fill:#ffffff;fill-opacity:1"
       inkscape:connector-curvature="0" />
    <path
       id="path6939"
       d="m 447.129,185.102 c 4.413,0 7.695,-3.222 7.8,-8.946 0.201,-5.727 -2.361,-10.353 -7.8,-10.353 -4.821,0 -7.695,4.401 -7.695,9.552 -0.003,5.52 2.67,9.747 7.695,9.747 z m -7.698,1.764 h -2.667 v -31.734 h 2.667 v 12.558 c 1.647,-2.772 4.926,-4.278 8.109,-4.278 6.972,0 10.158,5.694 10.158,12.084 0,6.732 -2.874,11.985 -10.26,11.985 -2.976,0 -6.36,-1.632 -8.001,-4.626 v 0 4.011"
       style="fill:#ffffff;fill-opacity:1"
       inkscape:connector-curvature="0" />
    <path
       id="path6941"
       d="m 463.545,186.866 h 2.667 v -31.734 h -2.667 z"
       style="fill:#ffffff;fill-opacity:1"
       inkscape:connector-curvature="0" />
    <path
       id="path6943"
       d="m 489.195,173.858 c 0,-4.443 -2.463,-8.055 -7.182,-8.055 -4.719,0 -7.182,3.744 -7.695,8.055 z m -14.877,2.214 c 0,4.926 2.667,9.03 7.695,9.03 3.384,0 6.156,-1.899 6.873,-5.241 h 2.976 c -1.335,4.305 -4.002,7.623 -9.849,7.623 -7.287,0 -10.467,-5.202 -10.467,-11.94 0,-6.66 3.9,-12.132 10.467,-12.132 6.258,0 10.053,4.464 10.053,12.66 h -17.748"
       style="fill:#ffffff;fill-opacity:1"
       inkscape:connector-curvature="0" />
    <path
       id="path6945"
       d="M 0,0.002 H 186.936 V 55.436 H 7.386 v 48.048 H 0 V 48.047 H 179.55 V 7.385 H 0 V 0.002"
       style="fill:#ffffff;fill-opacity:1"
       inkscape:connector-curvature="0" />
    <path
       id="path6947"
       d="m 420.453,55.436 v 48.048 h -7.386 V 48.047 H 592.614 V 7.385 H 413.067 V -0.001 H 600 V 55.436 H 420.453"
       style="fill:#ffffff;fill-opacity:1"
       inkscape:connector-curvature="0" />
    <path
       id="path6949"
       d="m 282.252,0.002 v 96.093 h -95.316 v 7.389 H 290.049 V 7.385 h 95.316 V -0.001 H 282.252"
       style="fill:#ffffff;fill-opacity:1"
       inkscape:connector-curvature="0" />
  </g>
</svg>
