<?xml version="1.0" encoding="UTF-8" standalone="no"?>
<svg
   xmlns:dc="http://purl.org/dc/elements/1.1/"
   xmlns:cc="http://creativecommons.org/ns#"
   xmlns:rdf="http://www.w3.org/1999/02/22-rdf-syntax-ns#"
   xmlns:svg="http://www.w3.org/2000/svg"
   xmlns="http://www.w3.org/2000/svg"
   xmlns:sodipodi="http://sodipodi.sourceforge.net/DTD/sodipodi-0.dtd"
   xmlns:inkscape="http://www.inkscape.org/namespaces/inkscape"
   version="1.2"
   id="svg23"
   sodipodi:docname="pspminis.svg"
   width="264.00027"
   height="104.00006"
   inkscape:version="0.92.5 (2060ec1f9f, 2020-04-08)">
  <metadata
     id="metadata29">
    <rdf:RDF>
      <cc:Work
         rdf:about="">
        <dc:format>image/svg+xml</dc:format>
        <dc:type
           rdf:resource="http://purl.org/dc/dcmitype/StillImage" />
      </cc:Work>
    </rdf:RDF>
  </metadata>
  <defs
     id="defs27" />
  <sodipodi:namedview
     pagecolor="#ffffff"
     bordercolor="#666666"
     borderopacity="1"
     objecttolerance="10"
     gridtolerance="10"
     guidetolerance="10"
     inkscape:pageopacity="0"
     inkscape:pageshadow="2"
     inkscape:window-width="640"
     inkscape:window-height="480"
     id="namedview25"
     showgrid="false"
     inkscape:zoom="2.36"
     inkscape:cx="50"
     inkscape:cy="53.999064"
     inkscape:window-x="72"
     inkscape:window-y="27"
     inkscape:window-maximized="0"
     inkscape:current-layer="svg23" />
  <g
     transform="matrix(0.439517,0,0,0.441672,0,4.41672e-4)"
     id="g5">
    <path
       id="path6945"
       d="M 0,0.002 H 186.936 V 55.436 H 7.386 v 48.048 H 0 V 48.047 H 179.55 V 7.385 H 0 V 0.002"
       style="fill:#ffffff;fill-opacity:1"
       inkscape:connector-curvature="0" />
    <path
       id="path6947"
       d="m 420.453,55.436 v 48.048 h -7.386 V 48.047 H 592.614 V 7.385 H 413.067 V -0.001 H 600 V 55.436 H 420.453"
       style="fill:#ffffff;fill-opacity:1"
       inkscape:connector-curvature="0" />
    <path
       id="path6949"
       d="m 282.252,0.002 v 96.093 h -95.316 v 7.389 H 290.049 V 7.385 h 95.316 V -0.001 H 282.252"
       style="fill:#ffffff;fill-opacity:1"
       inkscape:connector-curvature="0" />
  </g>
  <g
     transform="matrix(0.439517,0,0,0.441672,0,4.41672e-4)"
     id="g21">
    <path
       d="m 567.16,120.068 c -21.5,3 -34.7,14.1 -40.1,34 -0.9,3.4 -1.9,13 -2.4,22.8 -0.9,20.4 -2.5,26 -9.4,32.3 -8.1,7.5 -13.7,9.2 -32.5,10.1 l -13.3,0.6 v 7.5 7.5 l 15.4,-0.2 c 23.8,-0.2 35.9,-3.6 45.6,-12.7 10.3,-9.7 14.1,-21 15.1,-46.1 0.7,-14.3 1.1,-17.8 3,-22 5.9,-13.4 19.7,-19.5 44.2,-19.5 h 7.9 v -7.5 -7.5 l -15.2,0.1 c -8.4,0.1 -16.6,0.4 -18.3,0.6 z"
       style="fill:#ffffff"
       id="path7"
       inkscape:connector-curvature="0" />
    <path
       d="m 39.16,145.268 c -9.2,2.7 -14.4,5.8 -21.1,12.6 -11.9,12.1 -14.3,21.5 -14.4,55.2 v 22.3 h 9.9 9.9 l 0.4,-25.8 c 0.4,-23.3 0.7,-26.2 2.7,-31.3 3,-7.9 7.8,-13 15.3,-16.5 5.9,-2.7 7.2,-2.9 18.3,-2.9 10.8,0 12.5,0.3 17.5,2.6 7,3.3 11.6,7.9 14.9,14.9 2.5,5.4 2.6,6.1 3.1,32 l 0.5,26.5 10.2,0.3 10.2,0.3 0.3,-26.8 c 0.3,-26.5 0.3,-26.9 2.9,-32.3 3.4,-7 8,-11.6 14.9,-14.9 5,-2.3 6.7,-2.6 17.5,-2.6 11.6,0 12.3,0.1 18.7,3.3 7.8,3.8 11.9,8.3 15,16.2 1.9,5 2.2,8 2.6,31.2 l 0.4,25.8 h 9.9 9.9 v -22.3 c -0.1,-33.7 -2.5,-43.1 -14.4,-55.2 -10.8,-11 -20.8,-14.5 -41.8,-14.5 -20.3,0 -31.3,3.6 -41.1,13.6 l -5.1,5.2 -5.2,-5.2 c -5.8,-5.8 -13.1,-9.8 -21.9,-12.1 -8.5,-2.2 -32,-2 -40,0.4 z"
       style="fill:#ffffff"
       id="path9"
       inkscape:connector-curvature="0" />
    <path
       d="m 235.66,150.868 v 7.5 h 10 10 v -7.5 -7.5 h -10 -10 z"
       style="fill:#ffffff"
       id="path11"
       inkscape:connector-curvature="0" />
    <path
       d="m 319.96,144.868 c -8.3,2.3 -14.2,5.5 -20.3,11.2 -13.6,12.5 -16,20.6 -16.3,54.8 l -0.2,24 10.2,0.3 10.1,0.3 0.4,-26.8 c 0.4,-30.3 0.7,-31.9 8.7,-40.6 5.9,-6.4 12.3,-8.9 24.2,-9.5 21.7,-1.1 34.8,8.2 37.8,26.8 0.6,3.6 1.1,16.3 1.1,28.2 v 21.8 h 10.1 10.1 l -0.4,-26.3 c -0.4,-23.1 -0.7,-26.9 -2.5,-32.4 -5.3,-16.1 -17.5,-27.5 -34,-31.7 -7.8,-2 -31.5,-2.1 -39,-0.1 z"
       style="fill:#ffffff"
       id="path13"
       inkscape:connector-curvature="0" />
    <path
       d="m 422.66,150.868 v 7.5 h 10.5 10.5 v -7.5 -7.5 h -10.5 -10.5 z"
       style="fill:#ffffff"
       id="path15"
       inkscape:connector-curvature="0" />
    <path
       d="m 235.66,204.868 v 30.5 h 10 10 v -30.5 -30.5 h -10 -10 z"
       style="fill:#ffffff"
       id="path17"
       inkscape:connector-curvature="0" />
    <path
       d="m 422.66,204.868 v 30.5 h 10.5 10.5 l -0.2,-30.3 -0.3,-30.2 -10.2,-0.3 -10.3,-0.3 z"
       style="fill:#ffffff"
       id="path19"
       inkscape:connector-curvature="0" />
  </g>
</svg>
