<?xml version="1.0" encoding="UTF-8" standalone="no"?>
<svg
   xmlns:dc="http://purl.org/dc/elements/1.1/"
   xmlns:cc="http://creativecommons.org/ns#"
   xmlns:rdf="http://www.w3.org/1999/02/22-rdf-syntax-ns#"
   xmlns:svg="http://www.w3.org/2000/svg"
   xmlns="http://www.w3.org/2000/svg"
   xmlns:sodipodi="http://sodipodi.sourceforge.net/DTD/sodipodi-0.dtd"
   xmlns:inkscape="http://www.inkscape.org/namespaces/inkscape"
   version="1.1"
   id="svg2"
   sodipodi:docname="psx.svg"
   width="264.00003"
   height="54.000034"
   inkscape:version="0.92.5 (2060ec1f9f, 2020-04-08)">
  <metadata
     id="metadata12">
    <rdf:RDF>
      <cc:Work
         rdf:about="">
        <dc:format>image/svg+xml</dc:format>
        <dc:type
           rdf:resource="http://purl.org/dc/dcmitype/StillImage" />
      </cc:Work>
    </rdf:RDF>
  </metadata>
  <defs
     id="defs10" />
  <sodipodi:namedview
     pagecolor="#ffffff"
     bordercolor="#666666"
     borderopacity="1"
     objecttolerance="10"
     gridtolerance="10"
     guidetolerance="10"
     inkscape:pageopacity="0"
     inkscape:pageshadow="2"
     inkscape:window-width="532"
     inkscape:window-height="460"
     id="namedview8"
     showgrid="false"
     inkscape:zoom="2.36"
     inkscape:cx="50.000102"
     inkscape:cy="4.0000354"
     inkscape:window-x="72"
     inkscape:window-y="27"
     inkscape:window-maximized="0"
     inkscape:current-layer="svg2" />
  <g
     transform="matrix(0.44,0,0,0.437042,4.4278501e-5,0)"
     id="g5">
    <path
       id="path2998"
       d="m 181.056,31.612 v 31.449 31.446 h 5.509 5.508 V 66.435 38.363 h 6.761 c 4.878,0 7.079,0.132 7.907,0.477 1.636,0.685 3.318,2.765 4.008,4.942 0.363,1.144 0.66,3.623 0.766,6.373 0.219,5.635 -0.433,9.135 -2.153,11.405 -1.795,2.372 -2.891,2.744 -7.961,2.744 h -4.353 v 3.41 3.419 l 6.838,-0.132 6.842,-0.135 2.42,-1.143 c 4.422,-2.087 7.631,-6.353 8.928,-11.85 0.723,-3.068 0.711,-9.93 -0.024,-13.224 -0.706,-3.167 -2.177,-6.355 -3.831,-8.285 -0.69,-0.808 -2.029,-1.964 -2.963,-2.567 -3.206,-2.056 -4.443,-2.185 -20.066,-2.185 z m 48.681,0 v 31.449 31.446 h 5.509 5.508 V 63.061 31.612 h -5.508 z m 138.139,0 c -4.932,0 -10.009,0.174 -11.282,0.378 -2.864,0.456 -6.211,1.972 -8.105,3.686 -1.909,1.723 -3.54,4.314 -4.419,7.037 -0.549,1.693 -0.721,3.236 -0.745,6.488 -0.03,4.485 0.349,6.394 1.889,9.414 1.002,1.966 3.674,4.803 5.508,5.863 2.129,1.234 4.855,1.888 9.538,2.266 3.563,0.289 4.395,0.466 5.554,1.234 0.912,0.601 1.711,1.588 2.386,2.963 0.952,1.937 1.006,2.339 1,6.506 -0.003,4.155 -0.063,4.566 -0.979,6.31 -0.618,1.183 -1.513,2.222 -2.452,2.843 l -1.477,0.979 -9.361,0.111 -9.351,0.099 v 3.365 3.353 h 10.636 c 6.473,0 11.384,-0.159 12.528,-0.399 4.353,-0.918 7.976,-3.74 9.735,-7.586 1.483,-3.236 2.006,-6.566 1.811,-11.561 -0.202,-5.266 -0.982,-8.132 -3.087,-11.279 -2.611,-3.908 -5.532,-5.25 -12.956,-5.929 -2.747,-0.252 -5.56,-0.696 -6.254,-0.987 -1.528,-0.649 -2.957,-2.279 -3.584,-4.089 -0.624,-1.783 -0.615,-6.953 0.021,-9.135 0.624,-2.159 2.522,-4.143 4.521,-4.744 0.964,-0.291 4.209,-0.432 9.67,-0.432 h 8.228 v -3.377 -3.377 z m 126.59,0 v 4.62 4.62 h 5.509 5.509 v -4.62 -4.62 h -5.509 z m -105.924,7.105 0.114,22.654 c 0.096,22.299 0.111,22.686 0.877,24.71 0.426,1.128 1.339,2.819 2.029,3.761 1.414,1.925 3.251,3.272 5.575,4.086 1.12,0.393 3.017,0.546 6.629,0.558 l 5.064,0.021 v -3.374 -3.374 h -3.308 c -3.149,0 -3.36,-0.045 -4.254,-0.979 -0.556,-0.579 -1.099,-1.711 -1.318,-2.756 -0.243,-1.129 -0.342,-7.001 -0.279,-16.169 l 0.099,-14.389 5.953,-0.102 5.95,-0.099 v -3.362 -3.368 h -6.04 -6.04 v -3.909 -3.909 h -5.518 z m 76.075,0 v 22.375 c 0,21.641 0.027,22.455 0.736,24.61 0.84,2.564 2.554,5.107 4.419,6.527 0.711,0.543 2.119,1.276 3.131,1.621 1.408,0.486 2.984,0.636 6.727,0.645 l 4.885,0.012 V 91.13 87.756 h -3.153 c -2.635,0 -3.302,-0.114 -4.073,-0.724 -0.511,-0.399 -1.09,-1.318 -1.291,-2.041 -0.225,-0.811 -0.366,-7.199 -0.366,-16.514 V 53.286 h 6.052 6.052 l -0.099,-3.287 -0.102,-3.287 -5.953,-0.099 -5.947,-0.102 v -3.897 -3.897 h -5.509 z m -9.715,7.728 -11.762,0.192 c -12.644,0.192 -13.953,0.348 -17.667,2.23 -4.151,2.105 -7.045,6.191 -8.357,11.792 -0.55,2.339 -0.646,4.35 -0.646,13.236 0,10.093 0.03,10.562 0.811,12.495 1.576,3.891 3.92,6.295 7.295,7.46 1.489,0.516 3.041,0.633 8.15,0.642 l 6.311,0.012 v -3.377 -3.374 h -4.419 c -4.185,0 -4.47,-0.051 -5.464,-0.889 -0.661,-0.552 -1.195,-1.477 -1.444,-2.464 -0.495,-1.961 -0.519,-17.421 -0.033,-21.165 0.687,-5.32 1.888,-7.811 4.386,-9.15 0.861,-0.459 2.344,-0.625 6.529,-0.733 l 5.419,-0.144 v 20.654 20.645 h 5.689 5.683 V 81.235 c 0,-7.295 -0.114,-18.111 -0.243,-24.028 z M 288.013,46.457 276.2,46.634 c -12.84,0.198 -14.686,0.432 -18.19,2.311 -4.074,2.18 -6.979,6.488 -8.207,12.159 -0.781,3.602 -1.144,18.354 -0.544,21.918 0.523,3.113 1.979,6.247 3.72,8.018 1.282,1.303 3.407,2.591 5.184,3.131 0.49,0.15 3.807,0.282 7.373,0.3 l 6.485,0.033 v -3.377 -3.371 h -4.542 c -5.122,0 -5.794,-0.243 -6.761,-2.444 -0.432,-0.982 -0.6,-2.909 -0.711,-8.105 -0.159,-7.385 0.354,-15.398 1.155,-18.058 0.718,-2.389 2.057,-4.224 3.63,-4.995 1.15,-0.564 2.206,-0.673 6.694,-0.679 l 5.329,-0.012 0.09,20.522 0.09,20.519 h 5.509 5.509 V 70.476 Z m 11.861,0.078 c -3.2,0 -5.815,0.042 -5.809,0.09 0.006,0.048 3.659,10.774 8.117,23.842 l 8.109,23.761 -4.566,11.771 c -2.51,6.482 -4.563,11.828 -4.563,11.882 0,0.054 2.179,0.054 4.842,0 l 4.842,-0.099 14.155,-35.535 c 7.79,-19.543 14.17,-35.574 14.17,-35.622 0.003,-0.048 -2.297,-0.09 -5.119,-0.09 -3.722,0 -5.208,0.123 -5.407,0.447 -0.15,0.243 -2.873,7.151 -6.04,15.355 -3.167,8.205 -5.902,14.963 -6.085,15.026 -0.186,0.06 -2.702,-6.851 -5.584,-15.359 l -5.241,-15.469 z m 194.592,0 v 23.986 23.983 h 5.509 5.509 V 70.521 46.535 h -5.509 z m 66.628,0.177 -0.105,23.896 h 0.015 l -0.102,23.896 h 5.698 5.685 V 73.862 53.208 l 5.416,0.144 c 5.755,0.15 6.716,0.391 8.331,2.12 1.267,1.357 2.173,3.827 2.576,7.04 0.21,1.681 0.378,9.405 0.378,17.502 v 14.49 H 594.495 600 L 599.988,80.38 c 0,-14.98 -0.264,-18.535 -1.708,-22.597 -1.963,-5.523 -5.578,-8.799 -11.459,-10.393 -1.945,-0.528 -4.022,-0.621 -14.004,-0.645 z m -27.85,0.102 c -3.107,0 -6.205,0.39 -8.427,1.153 -2.963,1.02 -4.821,2.212 -6.689,4.287 -2.023,2.251 -3.488,5.301 -4.349,9.027 -0.529,2.284 -0.652,4.203 -0.622,9.771 0.03,5.86 0.147,7.358 0.778,9.673 1.071,3.93 2.47,6.577 4.596,8.73 2.095,2.116 5.19,3.741 8.676,4.53 1.567,0.354 3.74,0.465 7.061,0.378 5.727,-0.153 8.45,-0.888 11.792,-3.176 2.8,-1.915 4.92,-4.935 6.121,-8.739 1.714,-5.431 2.017,-14.383 0.699,-20.987 -0.639,-3.209 -2.197,-6.689 -3.932,-8.808 -1.631,-1.99 -4.302,-3.735 -7.16,-4.686 -2.312,-0.763 -5.44,-1.153 -8.544,-1.153 z m 0.132,6.616 c 1.612,0 3.23,0.313 4.497,0.955 1.654,0.838 2.696,2.3 3.596,5.062 0.592,1.807 0.739,3.452 0.88,9.429 0.18,7.805 -0.177,11.483 -1.39,14.257 -0.853,1.96 -2.233,3.482 -3.752,4.13 -0.649,0.277 -2.357,0.49 -3.942,0.49 -2.246,0 -3.107,-0.159 -4.362,-0.82 -0.988,-0.522 -1.939,-1.417 -2.555,-2.41 -1.606,-2.594 -2.134,-5.992 -2.155,-13.648 -0.018,-7.289 0.357,-10.219 1.702,-13.182 0.453,-1.005 1.372,-2.233 2.053,-2.756 1.294,-0.984 3.357,-1.507 5.428,-1.507 z"
       style="fill:#ffffff;fill-opacity:1"
       inkscape:connector-curvature="0" />
    <path
       id="path7"
       d="m 87.746,25.695 -0.108,97.86 -26.22,-8.526 V 0 l 33.47,8.85 c 21.423,5.758 34.533,16.95 34.319,36.565 -0.213,22.815 -10.765,31.981 -31.335,26.013 V 26.439 C 97.869,21.002 87.746,20.684 87.746,25.695 Z"
       style="fill:#ffffff;fill-opacity:1"
       inkscape:connector-curvature="0" />
    <path
       id="path11"
       d="m 148.82,102.13 -24.728,-7.677 6.824,-2.344 c 13.749,-4.371 7.991,-9.063 -6.293,-6.398 l -13.641,4.588 -23.344,-7.253 2.132,-0.748 c 13.004,-4.476 26.328,-7.46 39.864,-6.499 18.868,1.384 31.125,5.541 32.83,13.218 1.066,4.581 -3.197,9.489 -13.218,13.005 z M 61.418,68.23 v 6.716 L 51.079,71.749 Z m 49.351,47.331 -23.131,-7.355 v -1.279 l 36.451,-12.474 24.731,7.677 z M 61.418,92.001 V 99.89 L 49.374,96.05 Z m 26.217,-8.952 23.344,7.25 -23.344,7.994 z M 35.514,91.682 13.025,84.538 c 0.213,0 0.427,-0.105 0.532,-0.105 l 37.519,-12.684 10.339,3.197 v 7.46 z m 13.857,4.368 12.044,3.84 v 7.355 c -9.699,3.413 -20.36,4.479 -32.083,2.561 C 16.754,107.782 0.447,106.074 0.02,98.932 -0.409,91.896 6.097,86.885 13.022,84.538 l 22.492,7.144 -5.968,2.129 c -7.355,2.669 -0.535,9.171 7.463,6.4 z m 38.477,27.508 -0.213,-0.531 v -14.818 l 23.131,7.355 z"
       style="fill:#ffffff;fill-opacity:1"
       inkscape:connector-curvature="0" />
  </g>
</svg>
