<?xml version="1.0" encoding="UTF-8" standalone="no"?>
<svg
   xmlns:dc="http://purl.org/dc/elements/1.1/"
   xmlns:cc="http://creativecommons.org/ns#"
   xmlns:rdf="http://www.w3.org/1999/02/22-rdf-syntax-ns#"
   xmlns:svg="http://www.w3.org/2000/svg"
   xmlns="http://www.w3.org/2000/svg"
   xmlns:sodipodi="http://sodipodi.sourceforge.net/DTD/sodipodi-0.dtd"
   xmlns:inkscape="http://www.inkscape.org/namespaces/inkscape"
   width="264"
   height="45.041992"
   viewBox="0 0 264 45.041992"
   version="1.1"
   id="svg74"
   sodipodi:docname="satellaview.svg"
   style="fill:none"
   inkscape:version="0.92.5 (2060ec1f9f, 2020-04-08)">
  <metadata
     id="metadata80">
    <rdf:RDF>
      <cc:Work
         rdf:about="">
        <dc:format>image/svg+xml</dc:format>
        <dc:type
           rdf:resource="http://purl.org/dc/dcmitype/StillImage" />
      </cc:Work>
    </rdf:RDF>
  </metadata>
  <defs
     id="defs78" />
  <sodipodi:namedview
     pagecolor="#ffffff"
     bordercolor="#666666"
     borderopacity="1"
     objecttolerance="10"
     gridtolerance="10"
     guidetolerance="10"
     inkscape:pageopacity="0"
     inkscape:pageshadow="2"
     inkscape:window-width="532"
     inkscape:window-height="460"
     id="namedview76"
     showgrid="false"
     inkscape:zoom="1.4507576"
     inkscape:cx="132"
     inkscape:cy="22.520996"
     inkscape:window-x="72"
     inkscape:window-y="27"
     inkscape:window-maximized="0"
     inkscape:current-layer="svg74" />
  <path
     d="m 38.323102,32.964596 h 18.0318 v 3.0755 h -18.0318 z"
     id="path2"
     inkscape:connector-curvature="0"
     style="fill:#ffffff" />
  <path
     d="m 40.136002,31.507796 h 2.8164 v 8.3523 h -2.8164 z"
     id="path4"
     inkscape:connector-curvature="0"
     style="fill:#ffffff" />
  <path
     d="m 51.952202,37.755896 v -6.2481 h 2.5574 v 5.9891 c 0,3.9395 -2.743,7.4782 -8.3522,7.4782 h -5.9567 v -3.4316 h 6.5718 c 3.4527,0 5.1797,-1.5948 5.1797,-3.7876 z"
     id="path6"
     inkscape:connector-curvature="0"
     style="fill:#ffffff" />
  <path
     d="m 68.221502,38.641896 v 1.1393 c 0,1.1605 -0.7569,1.7623 -1.7855,1.7623 h -8.0596 v 3.4315 h 7.9909 c 2.3532,0 4.2349,-1.5901 4.2349,-3.8379 v -3.2506"
     id="path8"
     inkscape:connector-curvature="0"
     style="fill:#ffffff" />
  <path
     d="m 59.522802,31.476996 h 14.6504 v 3.2505 h -14.6504 z"
     id="path10"
     inkscape:connector-curvature="0"
     style="fill:#ffffff" />
  <path
     d="m 58.378202,36.009396 h 16.848 v 3.0675 h -16.848 z"
     id="path12"
     inkscape:connector-curvature="0"
     style="fill:#ffffff" />
  <path
     d="m 91.662102,38.641896 v 1.1393 c 0,1.1605 -0.7569,1.7623 -1.7855,1.7623 h -11.4017 v 3.4315 h 11.333 c 2.3533,0 4.2349,-1.5901 4.2349,-3.8379 v -5.1277"
     id="path14"
     inkscape:connector-curvature="0"
     style="fill:#ffffff" />
  <path
     d="m 77.011702,36.009396 h 17.0311 v 3.0675 h -17.0311 z"
     id="path16"
     inkscape:connector-curvature="0"
     style="fill:#ffffff" />
  <path
     d="m 78.202102,31.476996 h 14.8793 v 3.2505 h -14.8793 z"
     id="path18"
     inkscape:connector-curvature="0"
     style="fill:#ffffff" />
  <path
     d="M 107.96,35.047996 H 97.212502 v 3.0674 H 107.96 Z"
     id="path20"
     inkscape:connector-curvature="0"
     style="fill:#ffffff" />
  <path
     d="m 98.557302,31.454696 v 8.3265 c 0,1.1605 0.7569,1.7623 1.785698,1.7623 h 12.615 v 3.4315 h -12.547 c -2.352798,0 -4.234398,-1.5901 -4.234398,-3.8379 v -9.683"
     id="path22"
     inkscape:connector-curvature="0"
     style="fill:#ffffff" />
  <path
     d="M 112.964,36.083996 H 97.212502 v 2.4199 H 112.964 Z"
     id="path24"
     inkscape:connector-curvature="0"
     style="fill:#ffffff" />
  <path
     d="m 108.922,31.509296 h 1.625 v 3.5825 h -1.625 z"
     id="path26"
     inkscape:connector-curvature="0"
     style="fill:#ffffff" />
  <path
     d="m 111.349,31.509296 h 1.625 v 3.5825 h -1.625 z"
     id="path28"
     inkscape:connector-curvature="0"
     style="fill:#ffffff" />
  <path
     d="M 114.771,41.867196 H 129 v 3.1079 h -14.229 z"
     id="path30"
     inkscape:connector-curvature="0"
     style="fill:#ffffff" />
  <path
     d="m 116.22,35.392596 h 9.535 v 3.1078 h -9.535 z"
     id="path32"
     inkscape:connector-curvature="0"
     style="fill:#ffffff" />
  <path
     d="m 123.659,35.392596 h 2.096 v 7.9962 h -2.096 z"
     id="path34"
     inkscape:connector-curvature="0"
     style="fill:#ffffff" />
  <path
     d="m 129.68,36.363796 h 16.51 v 3.3668 h -16.51 z"
     id="path36"
     inkscape:connector-curvature="0"
     style="fill:#ffffff" />
  <path
     d="m 60.374802,11.345896 c 2.8172,0 5.101,2.2838 5.101,5.101 v 5.2666 c 0,2.8172 -2.2838,5.101 -5.101,5.101 h -22.7466 v -4.5234 h 19.7709 c 1.3574,0 2.4578,-1.1005 2.4578,-2.4579 v -1.4166 c 0,-1.3574 -1.1004,-2.4578 -2.4578,-2.4578 l -6.3975,-6e-4 h -8.2872 c -2.8171,0 -5.1008,-2.3309 -5.1008,-5.2061 v -5.37514 c 0,-2.87524 2.2837,-5.206103 5.1008,-5.206103 h 20.5706 v 4.616663 h -17.5951 c -1.3574,0 -2.4577,1.12312 -2.4577,2.50853 v 1.4457 c 0,1.38545 1.1003,2.60315 2.4577,2.60325 l 5.4484,4e-4 z"
     id="path38"
     inkscape:connector-curvature="0"
     style="fill:#ffffff" />
  <path
     d="m 68.628502,8.267816 v 4.53408 h 11.8826 c 1.0139,0 1.9352,0.8183 1.9352,1.8232 l -13.5079,3.5353 c -0.9494,0.2544 -1.6097,1.1149 -1.6097,2.0978 v 1.4835 c 0,2.8173 2.2837,5.1013 5.1009,5.1013 l 10.7938,-3e-4 c 2.8165,-10e-5 5.1002,-2.2837 5.1002,-5.101 v -8.373 c 0,-2.8172 -2.2837,-5.10089 -5.1009,-5.10089 z m 13.9093,10.53368 v 1.7793 c 0,1.0577 -0.8574,1.9151 -1.915,1.9151 h -5.894 c -0.913,0 -1.5943,-0.6339 -1.7659,-1.2744 z"
     id="path40"
     inkscape:connector-curvature="0"
     style="fill:#ffffff" />
  <path
     d="M 98.020402,12.830496 H 101.958 v -4.7496 H 98.022902 V 0.119591 h -5.657 v 8.006535 h -2.3495 v 4.70437 h 2.3498 v 11.6686 c 0,1.3265 1.0753,2.4018 2.4018,2.4018 H 101.642 v -4.752 l -3.621598,-0.0027 z"
     id="path42"
     inkscape:connector-curvature="0"
     style="fill:#ffffff" />
  <path
     d="m 124.48,26.810896 v -4.5341 h -13.226 c -1.014,0 -1.936,-0.8183 -1.936,-1.8232 l 13.508,-3.5353 c 0.95,-0.2544 1.61,-1.1149 1.61,-2.0978 v -1.4835 c 0,-2.8172 -2.284,-5.10131 -5.101,-5.10131 l -10.794,3.7e-4 c -2.816,4e-5 -5.1,2.28374 -5.1,5.10094 v 8.373 c 0,2.8172 2.284,5.1009 5.101,5.1009 z m -15.253,-10.5337 v -1.7793 c 0,-1.0577 0.857,-1.9151 1.915,-1.9151 h 5.894 c 0.913,0 1.594,0.6339 1.766,1.2744 z"
     id="path44"
     inkscape:connector-curvature="0"
     style="fill:#ffffff" />
  <path
     d="m 127.378,0.119575 h 5.476 v 26.781321 h -5.476 z"
     id="path46"
     inkscape:connector-curvature="0"
     style="fill:#ffffff" />
  <path
     d="m 135.791,0.119575 h 5.476 v 26.781321 h -5.476 z"
     id="path48"
     inkscape:connector-curvature="0"
     style="fill:#ffffff" />
  <path
     d="m 144.532,8.267816 v 4.53408 h 11.883 c 1.014,0 1.935,0.8183 1.935,1.8232 l -13.508,3.5353 c -0.949,0.2544 -1.609,1.1149 -1.609,2.0978 v 1.4835 c 0,2.8173 2.283,5.1013 5.1,5.1013 l 10.794,-3e-4 c 2.817,-10e-5 5.1,-2.2837 5.1,-5.101 v -8.373 c 0,-2.8172 -2.283,-5.10089 -5.1,-5.10089 z m 13.91,10.53368 v 1.7793 c 0,1.0577 -0.858,1.9151 -1.915,1.9151 h -5.894 c -0.913,0 -1.595,-0.6339 -1.766,-1.2744 z"
     id="path50"
     inkscape:connector-curvature="0"
     style="fill:#ffffff" />
  <path
     d="m 176.957,27.079496 c -2.179,0 -3.503,-0.7547 -4.478,-2.4427 l -8.323,-16.46544 h 6.152 l 7.418,14.33944 7.419,-14.33944 h 6.152 l -8.323,16.46544 c -0.975,1.688 -2.299,2.4427 -4.479,2.4427 h -0.769 z"
     id="path52"
     inkscape:connector-curvature="0"
     style="fill:#ffffff" />
  <path
     d="m 192.787,8.171356 h 5.476 v 18.72954 h -5.476 z"
     id="path54"
     inkscape:connector-curvature="0"
     style="fill:#ffffff" />
  <path
     d="m 195.549,6.226276 c 1.699,0 3.076,-1.37715 3.076,-3.07596 0,-1.6988 -1.377,-3.07596 -3.076,-3.07596 -1.699,0 -3.076,1.37716 -3.076,3.07596 0,1.69881 1.377,3.07596 3.076,3.07596 z"
     id="path56"
     inkscape:connector-curvature="0"
     style="fill:#ffffff" />
  <path
     d="m 222.006,26.810896 v -4.5341 H 208.78 c -1.014,0 -1.936,-0.8183 -1.936,-1.8231 l 13.508,-3.5354 c 0.95,-0.2544 1.61,-1.1149 1.61,-2.0978 v -1.4835 c 0,-2.8172 -2.284,-5.10129 -5.101,-5.10129 l -10.794,3.5e-4 c -2.816,5e-5 -5.1,2.28374 -5.1,5.10094 v 8.373 c 0,2.8172 2.284,5.1009 5.101,5.1009 z m -15.253,-10.5337 v -1.7793 c 0,-1.0577 0.857,-1.9151 1.915,-1.9151 h 5.894 c 0.913,0 1.594,0.634 1.766,1.2744 z"
     id="path58"
     inkscape:connector-curvature="0"
     style="fill:#ffffff" />
  <path
     d="m 234.326,27.079496 c -2.179,0 -3.504,-0.7548 -4.478,-2.4427 l -8.323,-16.46544 h 6.152 l 7.418,14.33944 5.112,-14.33944 h 5.111 l -5.157,16.23924 c -0.748,1.6427 -2.117,2.6689 -4.297,2.6689 h -0.769 z"
     id="path60"
     inkscape:connector-curvature="0"
     style="fill:#ffffff" />
  <path
     d="m 251.199,27.079496 c 2.179,0 3.503,-0.7548 4.478,-2.4427 L 264,8.171356 h -6.152 l -7.418,14.33944 -5.112,-14.33944 h -5.111 l 5.156,16.23924 c 0.749,1.6427 2.118,2.6689 4.298,2.6689 h 0.769 z"
     id="path62"
     inkscape:connector-curvature="0"
     style="fill:#ffffff" />
  <path
     d="M 0.81062919,44.985296 H 16.730302 c -4.6243,-1.7059 -11.6092398,-8.4912 -14.1906898,-12.5937 2.7621,7.5534 3.29629,10.8565 -1.72898301,12.5937 z"
     id="path64"
     inkscape:connector-curvature="0"
     style="fill:#ffffff" />
  <path
     d="m 26.353902,0.018069 h 6.133 v 12.956627 c -1.7522,-5.23175 -3.7722,-9.85335 -6.133,-12.956627 z"
     id="path66"
     inkscape:connector-curvature="0"
     style="fill:#ffffff" />
  <path
     d="m 20.481902,0.018069 h 3.4579 c 3.3386,5.418747 6.2522,10.489727 8.5471,16.658527 v 3.8471 c -3.555,-8.0231 -7.2471,-15.82819 -12.005,-20.505627 z"
     id="path68"
     inkscape:connector-curvature="0"
     style="fill:#ffffff" />
  <path
     d="m 32.486902,27.247396 v -3.3875 C 27.697002,12.233396 20.914602,4.195036 15.182102,0 H 8.0312322 C 20.937202,5.104936 28.432502,15.654096 32.486902,27.247396 Z"
     id="path70"
     inkscape:connector-curvature="0"
     style="fill:#ffffff" />
  <path
     d="m 30.264602,41.098496 c -3.9088,6.4263 -14.05,5.2282 -22.8913398,-5.2916 -7.07324001,-8.4158 -9.49138,-19.7415 -5.34264,-26.29271 3.85458,-6.08659 15.3640798,-3.48423 21.7591798,4.24231 6.2966,7.6079 11.5448,19.0075 6.4748,27.342 z m -7.0233,-12.064 c -2.8647,0 -5.187,1.8443 -5.187,4.1192 0,2.2751 2.3223,4.1193 5.187,4.1193 2.8647,0 5.1869,-1.8442 5.1869,-4.1193 0,-2.2749 -2.3222,-4.1192 -5.1869,-4.1192 z m -1.7936,-11.4376 c -0.9585,-0.0013 -1.8183,0.3151 -2.4479,0.9774 -1.2285,1.2921 -1.1324,3.8947 0.228,6.2268 0.2595,-0.0376 0.5214,-0.0574 0.7838,-0.0588 2.6098,0.0014 4.8314,1.7754 5.2408,4.1848 1.0707,0.0682 2.0213,-0.2167 2.6546,-0.8648 1.5487,-1.5849 1.0063,-5.3204 -1.4535,-7.9404 -1.5373,-1.6375 -3.4086,-2.5226 -5.0058,-2.525 z m -11.5187298,-2.637 c -1.0476,-0.0064 -1.9878,0.3621 -2.65022,1.1449 -1.26016,1.4888 -0.95205,4.0187 0.3864,6.2499 0.48195,-0.1055 0.97977,-0.1589 1.47986,-0.1591 2.9830898,0.0016 5.4304898,1.8674 5.5396898,4.2234 0.722,-0.1484 1.3606,-0.5028 1.8467,-1.0772 1.6307,-1.9267 0.603,-5.5602 -1.853,-8.0708 -1.4582,-1.4908 -3.2185,-2.3016 -4.7494298,-2.3111 z m 2.1229298,11.7336 c -2.8646898,0 -5.1869298,1.8442 -5.1869298,4.1193 0,2.2749 2.32224,4.1192 5.1869298,4.1192 2.8647,0 5.1869,-1.8443 5.1869,-4.1192 0,-2.2751 -2.3222,-4.1193 -5.1869,-4.1193 z"
     id="path72"
     inkscape:connector-curvature="0"
     style="fill:#ffffff" />
</svg>
