<?xml version="1.0" encoding="UTF-8" standalone="no"?>
<svg
   xmlns:dc="http://purl.org/dc/elements/1.1/"
   xmlns:cc="http://creativecommons.org/ns#"
   xmlns:rdf="http://www.w3.org/1999/02/22-rdf-syntax-ns#"
   xmlns:svg="http://www.w3.org/2000/svg"
   xmlns="http://www.w3.org/2000/svg"
   xmlns:sodipodi="http://sodipodi.sourceforge.net/DTD/sodipodi-0.dtd"
   xmlns:inkscape="http://www.inkscape.org/namespaces/inkscape"
   version="1.1"
   id="svg28"
   sodipodi:docname="saturn.svg"
   width="263.99988"
   height="29.99999"
   inkscape:version="0.92.5 (2060ec1f9f, 2020-04-08)">
  <metadata
     id="metadata34">
    <rdf:RDF>
      <cc:Work
         rdf:about="">
        <dc:format>image/svg+xml</dc:format>
        <dc:type
           rdf:resource="http://purl.org/dc/dcmitype/StillImage" />
      </cc:Work>
    </rdf:RDF>
  </metadata>
  <defs
     id="defs32" />
  <sodipodi:namedview
     pagecolor="#ffffff"
     bordercolor="#666666"
     borderopacity="1"
     objecttolerance="10"
     gridtolerance="10"
     guidetolerance="10"
     inkscape:pageopacity="0"
     inkscape:pageshadow="2"
     inkscape:window-width="532"
     inkscape:window-height="460"
     id="namedview30"
     showgrid="false"
     inkscape:zoom="2.36"
     inkscape:cx="49.99988"
     inkscape:cy="-20.00001"
     inkscape:window-x="72"
     inkscape:window-y="27"
     inkscape:window-maximized="0"
     inkscape:current-layer="svg28" />
  <path
     d="m 5.9438802,14.646 c 0.978,-0.76 2.374,-1.705 3.973,-2.529 C 11.51788,11.234 13.31988,10.44 15.31988,9.646 v 0.03 c 1.972,-0.765 4.058,-1.471 6.231,-2.088 2.202,-0.648 4.373,-1.177 6.545,-1.559 2.201,-0.441 4.316,-0.707 6.317,-0.824 2.059,-0.177 4.405,-0.013 4.996,0.029 0.591,0.042 1.435,-0.088 1.806,-0.382 0.372,-0.323 0.572,-0.706 0.629,-1.176 0.058,-0.5 -0.085,-0.941 -0.37,-1.295 -0.315,-0.382 -1.001,-0.616 -1.458,-0.646 -1.83,-0.207 -3.573,-0.207 -5.831,-0.06 -2.116,0.147 -4.345,0.441 -6.717,0.882 -2.258,0.412 -4.545,0.97 -6.832,1.618 -2.287,0.647 -4.458,1.383 -6.516,2.176 -2.144,0.854 -4.4599998,1.934 -5.7749998,2.619 -1.313,0.684 -3.006,1.667 -4.436,2.881 -1.431,1.214 -2.037,1.796 -2.99499998,3.324 -0.958,1.528 -1.178,3.261 -0.588,4.299 1.51799998,2.672 6.93399998,1.796 8.99199998,1.384 1.6569998,-0.352 3.6869998,-0.831 6.1169998,-1.536 1.771,-0.559 4.03,-1.295 6.773,-2.235 l 6.803,-2.294 c 2.487,-0.853 4.516,-1.5 6.089,-1.942 1.915,-0.588 5.316,-1.422 7.067,-1.095 -0.088,1.128 -1.45,4.152 -7.526,6.948 -2.259,1.059 -4.773,2.03 -7.546,2.971 h -0.029 c -2.142,0.706 -4.343,1.324 -6.602,1.882 -2.201,0.53 -4.26,0.912 -6.232,1.236 l 0.029,-0.03 c -3.102,0.446 -7.5619998,0.05 -8.4429998,0.168 -1.744,0.114 -2.169,1.245 -2.187,1.735 -0.019,0.489 -0.042,1.636 2.281,1.784 2.323,0.15 4.4929998,0.347 8.8349998,-0.187 2.696,-0.409 4.231,-0.735 6.489,-1.264 h 0.028 c 2.345,-0.588 4.631,-1.236 6.86,-1.971 2.916,-0.941 5.574,-2 7.945,-3.117 5.333,-2.462 7.253,-4.711 8.502,-6.646 1.25,-1.933 1.706,-4.591 0.409,-5.838 -1.485,-1.43 -4.311,-1.175 -5.281,-1.081 -1.387,0.136 -3.458,0.477 -5.544,1.094 -1.6,0.47 -3.659,1.118 -6.231,2.001 l -6.802,2.293 c -2.715,0.913 -4.917,1.649 -6.66,2.177 -2.315,0.707 -4.231,1.236 -5.8319998,1.56 -3.655,0.866 -4.83,0.381 -4.83,0.381 -0.049,-1.077 1.168,-2.446 2.144,-3.206 z"
     style="fill:#cccccc"
     id="path2"
     inkscape:connector-curvature="0" />
  <ellipse
     cx="23.13088"
     cy="14.999995"
     style="fill:#ffffff;stroke-width:1.01440525"
     id="circle4"
     rx="14.577"
     ry="14.999995" />
  <path
     d="M 9.3178802,20.859 C 10.97488,20.506 13.00488,20.028 15.43488,19.322 c 1.771,-0.559 6.773,-2.235 6.773,-2.235 l 6.803,-2.294 c 2.487,-0.852 4.516,-1.5 6.089,-1.942 0,0 2.352,-0.637 2.751,-0.71 -0.143,-1.528 -0.994,-3.362 -0.994,-3.362 -0.859,0.17 -1.778,0.389 -2.701,0.661 -1.6,0.472 -3.659,1.119 -6.231,2.001 l -6.802,2.293 c -2.716,0.913 -4.917,1.649 -6.66,2.177 -3.59,1.151 -6.0309998,1.606 -6.1279998,1.628 -0.001,0 0.323,2.187 0.983,3.32 z"
     style="fill:#cccccc"
     id="path6"
     inkscape:connector-curvature="0" />
  <path
     d="m 72.13988,7.727 c -0.267,-0.459 -0.629,-0.736 -1.077,-0.888 -8.177,-2.361 -13.45,-2.022 -15.785,1.074 -0.839,1.012 -1.349,1.993 -1.499,3.005 -0.18,1.01 -0.06,1.961 0.389,2.882 h -0.031 c 0.331,0.704 0.839,1.348 1.499,1.932 h 0.03 c 0.539,0.459 1.108,0.828 1.767,1.135 0.448,0.245 1.498,0.398 3.174,0.428 0.331,0.031 0.96,0.031 1.917,0.031 0.839,0.031 1.499,0.031 1.977,0.061 h 0.03 c 1.498,0.032 3.019,0.181 3.506,0.336 0.485,0.157 1.339,1.067 1.406,1.474 0.069,0.406 0,0 0,0 0.09,0.245 0.18,0.311 0.095,0.932 -0.088,0.62 -0.273,0.51 -0.513,0.817 0,0 0.009,-0.028 0,-0.033 -0.412,-0.276 -0.719,0.429 -1.348,0.614 -0.897,0.217 -1.978,0.368 -3.235,0.399 -1.258,0.031 -2.516,0 -3.804,-0.153 -1.228,-0.154 -2.306,-0.37 -3.205,-0.644 -0.449,-0.152 -0.928,-0.123 -1.349,0.123 -0.448,0.215 -0.749,0.583 -0.897,1.074 -0.15,0.459 -0.09,0.948 0.117,1.408 0.241,0.428 0.602,0.734 1.05,0.89 1.078,0.366 2.366,0.611 3.864,0.797 1.469,0.153 2.905,0.215 4.343,0.183 1.559,-0.062 2.907,-0.244 4.015,-0.521 1.556,-0.399 2.636,-1.012 3.205,-1.809 h 0.03 c 0.478,-0.615 0.837,-1.168 1.047,-1.658 v -0.031 c 0.241,-0.612 0.36,-1.227 0.36,-1.869 v -0.063 c -0.029,-0.459 0.008,-1.131 -0.232,-1.776 -0.09,-0.336 -0.177,-0.522 -0.659,-1.593 -0.483,-1.068 -1.597,-1.751 -3.544,-2.179 h -0.029 c -0.959,-0.186 -2.337,-0.339 -4.103,-0.4 -0.509,-0.031 -1.199,-0.031 -2.098,-0.062 -0.897,0 -1.526,0 -1.857,-0.031 -0.958,-0.029 -1.586,-0.062 -1.826,-0.122 -0.331,-0.154 -0.629,-0.337 -0.87,-0.552 -0.268,-0.245 -0.478,-0.49 -0.599,-0.734 v -0.032 c -0.12,-0.183 -0.15,-0.399 -0.09,-0.615 0.09,-0.398 0.3,-0.825 0.689,-1.225 1.797,-1.778 5.811,-1.778 12.071,0.062 0.482,0.122 0.93,0.092 1.348,-0.184 0.451,-0.244 0.749,-0.613 0.87,-1.103 0.152,-0.458 0.092,-0.919 -0.149,-1.38 z"
     style="fill:#ffffff"
     id="path8"
     inkscape:connector-curvature="0" />
  <path
     d="m 89.76488,6.173 c -0.361,-0.337 -0.779,-0.522 -1.288,-0.522 h -11.982 c -0.479,0 -0.928,0.185 -1.259,0.522 -0.359,0.366 -0.538,0.799 -0.538,1.318 v 15.333 c 0,0.49 0.18,0.951 0.538,1.288 0.331,0.371 0.779,0.553 1.259,0.553 h 11.982 c 0.509,0 0.927,-0.183 1.288,-0.553 0.329,-0.337 0.509,-0.798 0.509,-1.288 0,-0.522 -0.18,-0.95 -0.509,-1.321 -0.361,-0.336 -0.779,-0.521 -1.288,-0.521 h -10.184 v -3.985 h 7.488 c 0.508,0 0.927,-0.183 1.288,-0.551 0.328,-0.34 0.509,-0.799 0.509,-1.29 0,-0.52 -0.18,-0.949 -0.509,-1.318 -0.361,-0.34 -0.78,-0.523 -1.288,-0.523 h -7.488 V 9.33 h 10.184 c 0.509,0 0.927,-0.186 1.287,-0.554 0.33,-0.337 0.51,-0.764 0.51,-1.287 0,-0.518 -0.18,-0.95 -0.509,-1.316 z"
     style="fill:#ffffff"
     id="path10"
     inkscape:connector-curvature="0" />
  <path
     d="m 110.45088,8.342 c -0.088,-0.532 -0.359,-0.965 -0.746,-1.263 -3.288,-2.431 -6.892,-2.892 -10.376,-2.262 -1.374,0.331 -1.818,0.298 -3.319,1.064 -1.498,0.762 -2.542,2.18 -2.542,2.18 -0.717,0.801 -1.106,1.777 -1.585,3.072 -0.479,1.294 -0.476,1.937 -0.536,3.534 -0.06,1.599 0.148,3.064 0.596,4.459 0.448,1.401 1.136,2.634 2.064,3.666 v -0.036 c 0.897,1.067 2.003,1.895 3.288,2.429 1.285,0.566 2.691,0.867 4.214,0.867 3.587,0 6.191,-0.836 7.805,-2.498 1.884,-1.697 2.66,-4.258 2.362,-7.686 -0.03,-0.533 -0.238,-0.934 -0.569,-1.298 -0.358,-0.335 -0.746,-0.501 -1.226,-0.501 h -7.773 c -0.476,0 -0.924,0.197 -1.258,0.566 -0.358,0.398 -0.537,0.862 -0.537,1.43 0,0.533 0.179,1.031 0.537,1.396 0.334,0.401 0.782,0.599 1.258,0.599 h 5.981 c -0.12,0.999 -0.509,1.834 -1.108,2.464 -1.165,1.032 -2.988,1.53 -5.47,1.53 -1.047,0 -2.034,-0.199 -2.9,-0.565 l -0.03,-0.032 c -0.779,-0.334 -1.435,-0.8 -2.005,-1.466 -0.566,-0.631 -0.987,-1.398 -1.255,-2.229 -0.299,-0.898 -0.418,-1.897 -0.387,-2.962 0.029,-1.131 0.149,-1.745 0.357,-2.509 0.151,-0.568 0.389,-1.033 0.718,-1.398 0,0 0.535,-0.855 1.436,-1.317 0.902,-0.464 1.555,-0.599 2.661,-0.898 h 0.03 c 2.633,-0.666 5.143,-0.101 7.566,1.728 0.417,0.301 0.865,0.4 1.342,0.301 0.479,-0.133 0.867,-0.4 1.137,-0.865 0.27,-0.433 0.36,-0.933 0.27,-1.5 z"
     style="fill:#ffffff"
     id="path12"
     inkscape:connector-curvature="0" />
  <path
     d="m 133.08688,24.516 c 0.3,-0.429 0.418,-0.856 0.359,-1.379 -1.887,-12.787 -5.271,-19.044 -10.184,-18.736 -4.909,-0.308 -8.327,5.735 -10.154,18.122 -0.061,0.491 0.031,0.951 0.331,1.351 0.299,0.428 0.688,0.673 1.166,0.736 0.481,0.09 0.929,-0.033 1.349,-0.341 0.388,-0.306 0.63,-0.703 0.719,-1.196 0.225,-1.539 0.473,-2.961 0.738,-4.263 h 0.01 11.62 c 0.302,1.474 0.583,3.099 0.842,4.874 0.089,0.49 0.3,0.89 0.718,1.198 0.388,0.307 0.839,0.428 1.318,0.335 0.479,-0.055 0.867,-0.3 1.168,-0.701 z m -14.786,-9.381 c 1.311,-4.538 2.969,-6.888 4.96,-7.053 1.931,0.162 3.569,2.515 4.883,7.053 z"
     style="fill:#ffffff"
     id="path14"
     inkscape:connector-curvature="0" />
  <path
     d="m 161.64488,7.563 c -0.269,-0.463 -0.633,-0.741 -1.086,-0.896 -8.246,-2.381 -13.563,-2.041 -15.918,1.084 -0.847,1.019 -1.36,2.009 -1.512,3.029 -0.182,1.021 -0.061,1.978 0.392,2.907 h -0.03 c 0.333,0.711 0.847,1.358 1.511,1.947 h 0.03 c 0.543,0.463 1.118,0.834 1.782,1.145 0.453,0.248 1.511,0.403 3.201,0.432 0.334,0.03 0.969,0.03 1.933,0.03 0.847,0.032 1.512,0.032 1.994,0.064 h 0.031 c 1.51,0.032 3.044,0.182 3.535,0.338 0.489,0.159 1.351,1.076 1.418,1.489 0.07,0.409 0,0 0,0 0.09,0.245 0.183,0.31 0.094,0.937 -0.087,0.628 -0.275,0.514 -0.516,0.824 v -0.031 c -0.273,0.246 -0.726,0.43 -1.36,0.619 -0.905,0.217 -1.994,0.371 -3.263,0.401 -1.269,0.033 -2.537,0 -3.836,-0.153 -1.237,-0.156 -2.324,-0.372 -3.231,-0.651 -0.454,-0.154 -0.936,-0.121 -1.36,0.124 -0.454,0.219 -0.756,0.587 -0.905,1.081 -0.151,0.463 -0.09,0.958 0.119,1.421 0.243,0.433 0.606,0.743 1.059,0.899 1.086,0.369 2.385,0.617 3.897,0.804 1.48,0.154 2.928,0.217 4.379,0.186 1.572,-0.063 2.931,-0.249 4.049,-0.527 1.568,-0.404 2.658,-1.02 3.232,-1.825 h 0.03 c 0.483,-0.618 0.845,-1.177 1.057,-1.671 v -0.032 c 0.243,-0.617 0.363,-1.235 0.363,-1.885 v -0.062 c -0.029,-0.463 0.01,-1.14 -0.233,-1.792 -0.091,-0.34 -0.18,-0.526 -0.665,-1.604 -0.488,-1.079 -1.611,-1.769 -3.574,-2.199 h -0.031 c -0.965,-0.188 -2.355,-0.341 -4.136,-0.402 -0.513,-0.031 -1.208,-0.031 -2.115,-0.063 -0.905,0 -1.539,0 -1.873,-0.032 -0.965,-0.028 -1.6,-0.062 -1.842,-0.122 -0.333,-0.156 -0.634,-0.341 -0.877,-0.556 -0.27,-0.247 -0.483,-0.495 -0.604,-0.741 v -0.032 c -0.122,-0.185 -0.151,-0.402 -0.091,-0.619 0.091,-0.401 0.304,-0.834 0.695,-1.236 1.812,-1.794 5.86,-1.794 12.172,0.063 0.486,0.122 0.939,0.093 1.36,-0.186 0.455,-0.246 0.756,-0.619 0.878,-1.113 0.151,-0.466 0.09,-0.931 -0.153,-1.394 z"
     style="fill:#ffffff"
     id="path16"
     inkscape:connector-curvature="0" />
  <path
     d="m 166.55388,25.613 c 0.393,-0.309 0.635,-0.712 0.725,-1.207 0.229,-1.55 0.478,-2.985 0.744,-4.296 h 11.732 c 0.305,1.487 0.586,3.124 0.846,4.916 0.09,0.495 0.301,0.898 0.725,1.206 0.392,0.308 0.845,0.433 1.329,0.339 0.484,-0.061 0.876,-0.31 1.177,-0.71 0.301,-0.434 0.423,-0.868 0.363,-1.392 -1.903,-12.894 -5.317,-19.201 -10.27,-18.893 -4.954,-0.308 -8.368,5.784 -10.241,18.276 -0.09,0.495 0.03,0.957 0.331,1.36 0.304,0.434 0.695,0.682 1.18,0.741 0.514,0.094 0.936,-0.029 1.359,-0.34 z m 2.368,-9.216 c 1.324,-4.575 2.997,-6.942 5.004,-7.109 1.965,0.161 3.613,2.534 4.929,7.109 z"
     style="fill:#ffffff"
     id="path18"
     inkscape:connector-curvature="0" />
  <path
     d="m 199.69088,7.028 c -0.362,-0.338 -0.786,-0.525 -1.299,-0.525 h -15.706 c -0.485,0 -0.937,0.187 -1.27,0.525 -0.362,0.372 -0.543,0.805 -0.543,1.33 0,0.495 0.182,0.958 0.543,1.299 0.333,0.374 0.785,0.558 1.27,0.558 h 6.04 v 14.222 c 0,0.496 0.182,0.96 0.543,1.301 0.334,0.371 0.786,0.558 1.269,0.558 0.516,0 0.938,-0.187 1.298,-0.558 0.334,-0.341 0.516,-0.805 0.516,-1.301 V 10.214 h 6.04 c 0.513,0 0.937,-0.185 1.298,-0.557 0.334,-0.341 0.514,-0.804 0.514,-1.299 0,-0.525 -0.18,-0.957 -0.513,-1.33 z"
     style="fill:#ffffff"
     id="path20"
     inkscape:connector-curvature="0" />
  <path
     d="m 220.85488,6.659 c -0.361,-0.372 -0.785,-0.557 -1.299,-0.557 -0.483,0 -0.935,0.185 -1.268,0.557 -0.362,0.338 -0.544,0.803 -0.544,1.298 v 9.182 c 0,0.714 -0.121,1.394 -0.391,2.012 -0.242,0.648 -0.635,1.174 -1.089,1.669 -0.483,0.464 -0.996,0.868 -1.63,1.114 -0.603,0.278 -1.269,0.401 -1.964,0.401 h -2.688 c -0.694,0 -1.329,-0.121 -1.963,-0.401 -0.634,-0.246 -1.146,-0.65 -1.63,-1.114 -0.454,-0.495 -0.817,-1.02 -1.089,-1.639 v -0.03 c -0.239,-0.618 -0.39,-1.298 -0.39,-2.012 V 7.956 c 0,-0.494 -0.183,-0.96 -0.515,-1.297 -0.364,-0.373 -0.784,-0.557 -1.298,-0.557 -0.482,0 -0.938,0.184 -1.269,0.557 -0.363,0.337 -0.543,0.803 -0.543,1.297 v 9.183 c 0,1.208 0.24,2.352 0.665,3.464 h 0.029 c 0.423,1.084 1.058,2.01 1.843,2.846 0.814,0.804 1.722,1.452 2.777,1.917 1.06,0.464 2.177,0.681 3.385,0.681 h 2.688 c 1.208,0 2.327,-0.217 3.414,-0.681 h -0.031 c 1.056,-0.465 1.963,-1.113 2.781,-1.917 0.783,-0.836 1.418,-1.762 1.873,-2.846 v 0.032 c 0.453,-1.115 0.666,-2.257 0.666,-3.496 V 7.956 c -0.005,-0.494 -0.187,-0.96 -0.52,-1.297 z"
     style="fill:#ffffff"
     id="path22"
     inkscape:connector-curvature="0" />
  <path
     d="m 223.28888,6.677 c -0.32,0.338 -0.513,0.737 -0.513,1.227 v 15.971 c 0,0.49 0.193,0.951 0.546,1.29 0.386,0.367 0.869,0.551 1.382,0.551 0.545,0 0.994,-0.184 1.349,-0.551 0.387,-0.339 0.578,-0.8 0.578,-1.29 V 9.623 c 4.145,-0.243 7.322,-0.028 9.539,0.616 1.67,0.521 2.57,1.381 2.665,2.579 0.032,0.951 -0.352,1.628 -1.156,2.03 -1.286,0.552 -3.181,0.706 -5.684,0.428 -0.45,-0.032 -0.837,0.032 -1.222,0.276 -0.386,0.214 -0.643,0.521 -0.804,0.922 -0.161,0.369 -0.161,0.765 -0.063,1.165 0.127,0.402 0.386,0.706 0.74,0.951 l 9.638,6.758 c 0.417,0.302 0.898,0.428 1.413,0.336 0.545,-0.062 0.963,-0.307 1.284,-0.74 0.29,-0.398 0.418,-0.859 0.355,-1.35 -0.097,-0.522 -0.355,-0.92 -0.772,-1.228 l -5.107,-3.563 c 0.74,-0.182 1.38,-0.401 1.928,-0.674 2.185,-1.047 3.278,-2.825 3.312,-5.315 0.127,-2.946 -1.673,-4.973 -5.332,-6.08 -2.86,-0.92 -7.133,-1.137 -12.819,-0.674 -0.483,0.033 -0.9,0.246 -1.257,0.617 z"
     style="fill:#ffffff"
     id="path24"
     inkscape:connector-curvature="0" />
  <path
     d="m 245.60388,6.996 c -0.213,0.311 -0.332,0.652 -0.332,1.052 v 16.08 c 0,0.496 0.18,0.96 0.543,1.299 0.332,0.372 0.784,0.557 1.268,0.557 0.514,0 0.937,-0.184 1.298,-0.557 0.333,-0.339 0.515,-0.803 0.515,-1.299 v -11.47 l 11.991,12.739 c 0.272,0.277 0.572,0.464 0.938,0.555 0.361,0.063 0.693,0.031 1.056,-0.091 0.334,-0.157 0.603,-0.371 0.816,-0.711 0.212,-0.309 0.303,-0.65 0.303,-1.022 V 8.048 c 0,-0.525 -0.182,-0.958 -0.516,-1.33 -0.362,-0.338 -0.783,-0.526 -1.298,-0.526 -0.482,0 -0.935,0.189 -1.268,0.526 -0.362,0.372 -0.544,0.805 -0.544,1.33 V 19.52 l -11.96,-12.77 c -0.273,-0.246 -0.574,-0.431 -0.938,-0.525 -0.361,-0.061 -0.725,-0.031 -1.056,0.124 -0.334,0.122 -0.634,0.341 -0.816,0.647 z"
     style="fill:#ffffff"
     id="path26"
     inkscape:connector-curvature="0" />
</svg>
