<?xml version="1.0" encoding="UTF-8" standalone="no"?>
<svg
   xmlns:dc="http://purl.org/dc/elements/1.1/"
   xmlns:cc="http://creativecommons.org/ns#"
   xmlns:rdf="http://www.w3.org/1999/02/22-rdf-syntax-ns#"
   xmlns:svg="http://www.w3.org/2000/svg"
   xmlns="http://www.w3.org/2000/svg"
   xmlns:sodipodi="http://sodipodi.sourceforge.net/DTD/sodipodi-0.dtd"
   xmlns:inkscape="http://www.inkscape.org/namespaces/inkscape"
   version="1.1"
   id="svg8"
   sodipodi:docname="scummvm.svg"
   width="263.99994"
   height="67.999809"
   inkscape:version="0.92.5 (2060ec1f9f, 2020-04-08)">
  <metadata
     id="metadata14">
    <rdf:RDF>
      <cc:Work
         rdf:about="">
        <dc:format>image/svg+xml</dc:format>
        <dc:type
           rdf:resource="http://purl.org/dc/dcmitype/StillImage" />
      </cc:Work>
    </rdf:RDF>
  </metadata>
  <defs
     id="defs12" />
  <sodipodi:namedview
     pagecolor="#ffffff"
     bordercolor="#666666"
     borderopacity="1"
     objecttolerance="10"
     gridtolerance="10"
     guidetolerance="10"
     inkscape:pageopacity="0"
     inkscape:pageshadow="2"
     inkscape:window-width="532"
     inkscape:window-height="460"
     id="namedview10"
     showgrid="false"
     inkscape:zoom="2.36"
     inkscape:cx="50"
     inkscape:cy="17.999826"
     inkscape:window-x="72"
     inkscape:window-y="27"
     inkscape:window-maximized="0"
     inkscape:current-layer="svg8" />
  <path
     d="m 262.539,24.973983 -6.638,-0.026 h -0.286 l -0.074,0.277 -2.238,8.102 -0.013,0.049 v 0.052 l -0.033,11.698 h -4.744 l 1.103,-12.829 c 0.058,-0.69 -0.176,-0.763 -0.52,-0.165 l -18.45,32.068 c -0.342,0.601 -1.188,1.029 -1.874,0.956 l -5.319,-0.567 c -0.687,-0.073 -1.405,-0.676 -1.598,-1.34 l -3.832,-13.185 h 2.008 0.377 v -0.379 -13.767 h 5.183 l 3.272,12.158 c 0.179,0.666 0.596,0.717 0.929,0.112 l 17.254,-31.582 h 7.033 0.27 l 0.088,-0.259 3.171,-9.535 5.249,0.457 c 0.687,0.061 1.199,0.673 1.138,1.362 z m -2.97,33.399 h -3.218 -0.234 l -0.102,0.21 -0.623,1.265 -2.498,0.331 -0.303,0.039 -0.022,0.308 -0.486,6.911 -4.189,-0.435 c -0.685,-0.072 -1.199,-0.694 -1.14,-1.384 l 1.694,-19.738 h 5.183 0.376 l 0.001,-0.377 0.032,-12.024 2.144,-7.774 6.286,0.025 z m -2.116,9.62 -4.621,-0.478 0.467,-6.63 2.393,-0.315 0.198,-0.027 0.089,-0.18 0.61,-1.234 h 2.914 l -0.689,7.743 c -0.062,0.687 -0.675,1.193 -1.361,1.121 z m -46.204,-41.243 c -0.195,-0.663 -0.429,-0.646 -0.525,0.039 l -2.802,20.195 h -5.167 l -1.737,-0.946 -0.083,-0.047 -0.094,-10e-4 -3.221,-0.019 3.904,-26.291 h 5.13 0.275 l 0.083,-0.262 1.481,-4.669 h 11.399 l 5.492,20.416 h -5.354 -0.379 v 0.375 13.77 h -1.852 z m -6.755,35.848 -7.977,-0.699 c -0.688,-0.06 -1.168,-0.668 -1.066,-1.353 l 1.2,-8.069 10.339,1.234 -1.075,7.752 c -0.094,0.684 -0.733,1.194 -1.421,1.135 z m -3.751,-15.853 1.737,0.946 0.085,0.047 h 0.095 5.159 l -0.726,5.224 -10.332,-1.231 0.746,-5.008 z m 4.753,-45.24 9.89,0.997 c 0.688,0.07 1.396,0.673 1.575,1.341 l 2.731,10.15 h -11.47 -0.276 l -0.084,0.263 -1.481,4.67 h -4.742 l 2.424,-16.303 c 0.1,-0.684 0.746,-1.187 1.433,-1.118 z m 46.533,5.977 c 0.332,-0.608 1.166,-1.056 1.853,-0.995 l 2.955,0.257 -3.029,9.107 h -6.35 z"
     style="fill:#ffffff"
     id="path2"
     inkscape:connector-curvature="0" />
  <path
     d="m 202.442,1.015983 -4.045,23.947 h -4.198 -0.378 v 0.377 2.005 l -0.99,0.97 -0.112,0.11 -0.001,0.158 -0.024,7.951 -10e-4,0.378 h 0.377 3.308 l -1.374,8.13 -2.851,2.245 -2.664,-0.022 h -0.129 l -0.102,0.078 -2.136,1.64 -0.148,0.112 v 0.187 3.335 l -7.476,2.766 -8.343,-14.087 9.223,-7.712 4.454,7.939 c 0.339,0.603 0.692,0.535 0.785,-0.149 l 3.526,-25.665 h 3.548 0.136 l 0.106,-0.088 1.409,-1.185 0.135,-0.112 v -0.177 -5.931 l 0.899,-0.961 0.102,-0.108 v -0.149 -1.926 l 0.873,-0.775 0.126,-0.112 v -0.171 -2.991 l 4.944,-0.99799998 c 0.676,-0.138 1.135,0.31 1.021,0.99099998 z m -8.97,27.726 0.99,-0.971 0.113,-0.111 v -0.159 -1.784 h 3.695 l -1.762,10.44 h -3.057 z m -1.125,32.055 c -0.114,0.682 -0.763,1.346 -1.441,1.473 l -5.355,1.015 c -0.676,0.127 -1.522,-0.254 -1.875,-0.848 l -3.785,-6.396 7.592,-2.808 0.245,-0.091 v -0.263 -3.411 l 1.885,-1.446 2.665,0.021 0.133,10e-4 0.104,-0.081 2.305,-1.816 z m -38.771,-51.521 10.573,-2.191 c 0.673,-0.14 1.504,0.239 1.843,0.841 l 2.217,3.954 h -2.31 -0.192 l -0.115,0.155 -0.665,0.909 h -3.547 -0.378 v 0.378 4.643 h -3.662 l -4.356,-7.354 c -0.351,-0.595 -0.086,-1.196 0.592,-1.335 z m 7.805,9.443 h 0.378 v -0.379 -4.643 h 3.361 0.192 l 0.113,-0.154 0.664,-0.91 h 2.544 l 11.373,20.282 -9.237,7.722 -12.982,-21.918 z m 29.457,-15.347 c 0.094,-0.684 0.725,-1.356 1.4,-1.494 l 3.486,-0.704 v 2.67 l -0.874,0.774 -0.127,0.114 v 0.17 1.945 l -0.899,0.961 -0.101,0.11 v 0.149 5.904 l -1.17,0.982 h -3.308 z"
     style="fill:#ffffff"
     id="path4"
     inkscape:connector-curvature="0" />
  <path
     d="m 28.279,42.865983 c 0.771,1.527 1.158,3.344 1.158,5.453 0,2.035 -0.424,3.796 -1.271,5.284 -0.847,1.487 -1.949,2.711 -3.306,3.672 -1.355,0.961 -2.891,1.676 -4.604,2.148 -1.715,0.471 -3.439,0.706 -5.17,0.706 -3.466,0 -6.375,-0.64 -8.731,-1.921 -2.353,-1.279 -4.472,-3.22 -6.355,-5.82 l 4.014,-5.078 c 0.371,-0.469 1.003,-0.487 1.4,-0.042 0,0 0.462,0.516 1.252,1.137 0.793,0.623 1.649,1.168 2.572,1.639 0.921,0.471 1.864,0.857 2.825,1.16 0.961,0.299 1.854,0.452 2.683,0.452 0.828,0 1.461,-0.153 1.893,-0.452 0.433,-0.303 0.651,-0.867 0.651,-1.696 0,-0.717 -0.388,-1.394 -1.159,-2.035 -0.772,-0.639 -1.733,-1.309 -2.881,-2.006 -1.15,-0.694 -2.394,-1.449 -3.731,-2.26 -1.336,-0.809 -2.578,-1.761 -3.727,-2.854 -1.15,-1.091 -2.11,-2.344 -2.883,-3.757 -0.772,-1.413 -1.158,-3.042 -1.158,-4.887 0,-1.81 0.34,-3.391 1.017,-4.747 0.678,-1.358 1.591,-2.496 2.741,-3.42 1.147,-0.921 2.476,-1.619 3.984,-2.091 1.505,-0.469 3.106,-0.705 4.802,-0.705 3.013,0 5.715,0.556 8.108,1.666 2.392,1.111 4.661,2.76 6.809,4.944 l -3.251,5.018 c -0.325,0.504 -0.962,0.594 -1.415,0.2 0,0 -0.816,-0.708 -1.72,-1.293 -0.902,-0.583 -1.789,-1.081 -2.655,-1.496 -0.867,-0.415 -1.678,-0.725 -2.43,-0.932 -0.754,-0.208 -1.412,-0.312 -1.978,-0.312 -0.677,0 -1.177,0.17 -1.496,0.51 -0.323,0.339 -0.481,0.772 -0.481,1.299 0,0.678 0.385,1.308 1.158,1.892 0.771,0.585 1.741,1.188 2.91,1.81 1.167,0.622 2.42,1.318 3.758,2.089 1.336,0.773 2.589,1.706 3.757,2.798 1.167,1.094 2.137,2.403 2.91,3.927 z m 13.813,-2.187 c 0.43,-0.468 0.918,-0.824 1.463,-1.069 0.543,-0.242 1.078,-0.366 1.605,-0.366 1.576,0 2.747,0.396 3.518,1.183 0.768,0.789 1.117,1.593 1.117,1.593 0.237,0.548 0.903,0.878 1.481,0.735 l 6.83,-1.709 c -0.713,-3.113 -2.159,-5.629 -4.335,-7.543 -2.176,-1.914 -5.104,-2.871 -8.781,-2.871 -2.252,0 -4.259,0.348 -6.024,1.042 -1.764,0.695 -3.245,1.688 -4.446,2.984 -1.201,1.295 -2.111,2.853 -2.73,4.672 -0.62,1.822 -0.929,3.856 -0.929,6.107 0,1.953 0.281,3.811 0.844,5.575 0.563,1.765 1.436,3.312 2.619,4.644 1.18,1.332 2.671,2.393 4.474,3.181 1.801,0.787 3.959,1.181 6.472,1.181 1.426,0 2.815,-0.218 4.166,-0.647 1.351,-0.431 2.59,-1.089 3.716,-1.971 1.126,-0.882 2.11,-1.997 2.955,-3.35 0.844,-1.351 1.57,-3.745 1.57,-3.745 0.174,-0.572 -0.154,-1.173 -0.726,-1.339 l -6.614,-1.897 c -0.113,0.601 -0.356,1.144 -0.731,1.632 -0.376,0.488 -0.798,0.91 -1.267,1.266 -0.47,0.358 -0.948,0.641 -1.436,0.847 -0.488,0.206 -0.938,0.308 -1.351,0.308 -1.463,0 -2.655,-0.563 -3.573,-1.688 -0.921,-1.128 -1.38,-2.607 -1.38,-4.449 0,-0.974 0.14,-1.819 0.422,-2.534 0.282,-0.709 0.638,-1.3 1.071,-1.772 z m 46.446,4.771 c -0.095,-2.335 -0.188,-4.714 -0.283,-7.142 -0.093,-2.427 -0.221,-6.73 -0.221,-6.73 -0.018,-0.598 -0.522,-1.078 -1.119,-1.065 l -9.245,0.201 c 0.113,1.808 0.217,3.37 0.311,4.687 0.093,1.318 0.17,2.579 0.225,3.782 0.057,1.205 0.095,2.448 0.115,3.726 0.016,1.281 0.028,2.787 0.028,4.518 0,1.318 -0.433,2.361 -1.299,3.132 -0.865,0.773 -1.899,1.157 -3.104,1.157 -1.279,0 -2.24,-0.386 -2.88,-1.157 -0.641,-0.771 -0.959,-1.702 -0.959,-2.793 0,-1.954 0.089,-3.786 0.281,-5.702 0.188,-1.881 0.376,-3.612 0.566,-5.195 0.226,-1.807 0.611,-4.119 0.611,-4.119 0.097,-0.591 -0.31,-1.071 -0.908,-1.063 l -9.64,0.101 c -0.265,1.882 -0.49,3.764 -0.678,5.646 -0.188,1.619 -0.348,3.332 -0.479,5.138 -0.133,1.807 -0.197,3.425 -0.197,4.855 0,2.033 0.245,3.864 0.734,5.494 0.488,1.629 1.242,3.015 2.258,4.155 1.015,1.139 2.324,2.018 3.923,2.635 1.6,0.615 3.51,0.926 5.731,0.926 0.639,0 1.297,-0.086 1.976,-0.256 0.676,-0.169 1.325,-0.404 1.948,-0.705 0.619,-0.302 1.192,-0.649 1.721,-1.044 0.236,-0.177 0.652,-0.74 0.993,-0.622 0.442,0.156 0.193,1.15 0.193,1.48 0,0.598 0.488,1.077 1.086,1.064 l 8.849,-0.198 c -0.075,-2.768 -0.159,-5.359 -0.254,-7.778 -0.097,-2.418 -0.191,-4.794 -0.283,-7.128 z m 39.599,-9.499 c -0.863,-1.331 -2.045,-2.372 -3.545,-3.124 -1.502,-0.75 -3.453,-1.125 -5.855,-1.125 -1.802,0 -3.349,0.393 -4.645,1.181 -0.344,0.21 -0.682,0.434 -1.005,0.675 -0.292,0.218 -0.575,0.449 -0.838,0.698 -0.196,0.185 -0.366,0.469 -0.652,0.52 -0.072,0.012 -0.148,0.031 -0.225,0.023 -0.26,-0.024 -0.333,-0.199 -0.467,-0.394 -0.375,-0.545 -0.86,-1.003 -1.4,-1.381 -0.94,-0.655 -2.12,-0.986 -3.546,-0.986 -0.713,0 -1.389,0.114 -2.027,0.339 -0.64,0.224 -1.21,0.517 -1.716,0.872 -0.429,0.301 -0.798,0.665 -1.207,0.988 -0.201,0.159 -0.28,0.377 -0.563,0.36 -0.289,-0.019 -0.249,-0.391 -0.268,-0.589 -0.026,-0.237 -0.052,-0.473 -0.074,-0.709 -0.018,-0.173 -0.037,-0.346 -0.055,-0.518 -0.061,-0.594 -0.598,-1.068 -1.196,-1.054 l -8.092,0.2 c 0.113,2.289 0.198,4.484 0.255,6.587 0.056,2.101 0.093,4.23 0.112,6.387 0.018,2.159 0.018,4.438 0,6.84 -0.019,2.401 -0.026,6.851 -0.026,6.851 -0.001,0.597 0.485,1.077 1.081,1.069 l 7.853,-0.134 c 0.595,-0.01 1.093,-0.508 1.105,-1.103 l 0.317,-15.465 c 0,-0.527 0.131,-1.06 0.393,-1.604 0.261,-0.545 0.881,-0.817 1.857,-0.817 0.451,0 0.808,0.167 1.071,0.507 0.26,0.338 0.477,0.788 0.646,1.351 0.17,0.562 0.282,1.21 0.339,1.941 0.055,0.731 0.083,1.491 0.083,2.279 0,1.952 0,3.546 0,4.785 0,1.238 -0.01,2.317 -0.028,3.236 -0.019,0.923 -0.047,1.785 -0.084,2.59 -0.038,0.808 -0.072,1.703 -0.072,1.703 -0.021,0.596 0.446,1.094 1.042,1.11 l 9.219,0.199 c -0.076,-0.562 -0.141,-1.256 -0.197,-2.082 -0.056,-0.825 -0.095,-1.67 -0.113,-2.534 -0.018,-0.861 -0.037,-1.688 -0.056,-2.476 -0.02,-0.788 -0.028,-1.427 -0.028,-1.915 0,-3.601 0.149,-6.283 0.451,-8.049 0.3,-1.764 1.087,-2.647 2.363,-2.647 0.788,0 1.398,0.329 1.831,0.987 0.43,0.656 0.647,1.754 0.647,3.292 0,1.465 -0.179,3.332 -0.536,5.602 -0.356,2.271 -1.476,7.189 -1.476,7.189 -0.132,0.581 0.243,1.116 0.836,1.194 l 9.282,1.159 c 0.411,-2.326 0.759,-4.577 1.041,-6.756 0.281,-2.174 0.423,-4.296 0.423,-6.362 0,-2.213 -0.16,-4.249 -0.478,-6.108 -0.321,-1.854 -0.914,-3.45 -1.777,-4.782 z m 42.864,4.785 c -0.319,-1.857 -0.909,-3.453 -1.771,-4.785 -0.863,-1.331 -2.047,-2.372 -3.548,-3.124 -1.502,-0.75 -3.451,-1.125 -5.853,-1.125 -1.8,0 -3.348,0.393 -4.645,1.181 -0.331,0.203 -0.654,0.416 -0.968,0.645 -0.294,0.217 -0.577,0.447 -0.843,0.697 -0.219,0.205 -0.503,0.7 -0.853,0.599 -0.247,-0.073 -0.465,-0.35 -0.611,-0.551 -0.356,-0.489 -0.816,-0.904 -1.311,-1.247 -0.939,-0.657 -2.122,-0.988 -3.546,-0.988 -0.716,0 -1.389,0.114 -2.027,0.339 -0.638,0.225 -1.211,0.517 -1.716,0.872 -0.508,0.358 -0.921,0.733 -1.239,1.126 -0.051,0.064 -0.102,0.126 -0.157,0.184 -0.081,0.084 -0.207,0.198 -0.334,0.166 -0.143,-0.033 -0.228,-0.248 -0.259,-0.374 -0.058,-0.222 -0.064,-0.457 -0.086,-0.685 -0.03,-0.295 -0.059,-0.591 -0.092,-0.885 -0.062,-0.594 -0.6,-1.068 -1.194,-1.054 l -8.092,0.2 c 0.111,2.289 0.197,4.484 0.253,6.587 0.056,2.101 0.093,4.23 0.113,6.387 0.018,2.159 0.018,4.44 0,6.841 -0.019,2.402 -0.027,6.85 -0.027,6.85 -0.002,0.597 0.485,1.079 1.083,1.069 l 7.854,-0.133 c 0.595,-0.011 1.092,-0.506 1.105,-1.104 l 0.315,-15.463 c 0,-0.527 0.133,-1.06 0.395,-1.605 0.261,-0.545 0.881,-0.817 1.857,-0.817 0.45,0 0.807,0.167 1.07,0.506 0.26,0.339 0.478,0.788 0.647,1.351 0.169,0.563 0.279,1.212 0.337,1.942 0.057,0.732 0.085,1.492 0.085,2.28 0,1.953 0,3.546 0,4.785 0,1.236 -0.01,2.316 -0.028,3.235 -0.019,0.922 -0.048,1.784 -0.085,2.591 -0.037,0.808 -0.072,1.701 -0.072,1.701 -0.023,0.597 0.445,1.095 1.043,1.11 0.006,0 0.012,0 0.017,0 0.299,0.006 0.594,0.013 0.895,0.02 0.642,0.012 1.285,0.028 1.929,0.042 0.786,0.016 1.573,0.033 2.361,0.051 0.742,0.016 1.485,0.031 2.226,0.049 0.456,0.01 0.989,0.11 1.437,0.006 0.378,-0.087 0.294,-0.387 0.283,-0.689 -0.011,-0.459 -0.095,-0.904 -0.129,-1.361 -0.054,-0.825 -0.093,-1.67 -0.113,-2.533 -0.018,-0.861 -0.036,-1.689 -0.056,-2.477 -0.019,-0.788 -0.029,-1.425 -0.029,-1.914 0,-3.602 0.151,-6.284 0.45,-8.05 0.301,-1.763 1.088,-2.646 2.365,-2.646 0.788,0 1.398,0.33 1.831,0.985 0.43,0.656 0.648,1.755 0.648,3.294 0,1.463 -0.177,3.331 -0.536,5.601 -0.357,2.273 -1.476,7.188 -1.476,7.188 -0.133,0.582 0.242,1.119 0.835,1.194 0.255,0.03 0.506,0.063 0.757,0.094 1.27,0.16 2.537,0.318 3.806,0.477 0.805,0.1 1.611,0.186 2.417,0.28 0.489,0.056 0.972,0.164 1.46,0.221 0.301,0.032 0.685,0.186 0.928,-0.083 0.232,-0.259 0.218,-0.732 0.272,-1.05 0.082,-0.483 0.131,-0.968 0.171,-1.454 0.059,-0.744 0.155,-1.474 0.259,-2.214 0.09,-0.621 0.171,-1.243 0.252,-1.866 0.281,-2.176 0.422,-4.297 0.422,-6.361 -0.002,-2.215 -0.162,-4.251 -0.482,-6.108 z"
     style="fill:#ffffff"
     id="path6"
     inkscape:connector-curvature="0" />
</svg>
