<?xml version="1.0" encoding="UTF-8" standalone="no"?>
<svg
   xmlns:dc="http://purl.org/dc/elements/1.1/"
   xmlns:cc="http://creativecommons.org/ns#"
   xmlns:rdf="http://www.w3.org/1999/02/22-rdf-syntax-ns#"
   xmlns:svg="http://www.w3.org/2000/svg"
   xmlns="http://www.w3.org/2000/svg"
   xmlns:sodipodi="http://sodipodi.sourceforge.net/DTD/sodipodi-0.dtd"
   xmlns:inkscape="http://www.inkscape.org/namespaces/inkscape"
   version="1.1"
   id="Ebene_2"
   x="0px"
   y="0px"
   enable-background="new 0 0 566.929 77.199"
   sodipodi:docname="segacd.svg"
   width="264"
   height="36.999969"
   inkscape:version="0.92.5 (2060ec1f9f, 2020-04-08)">
  <metadata
     id="metadata15">
    <rdf:RDF>
      <cc:Work
         rdf:about="">
        <dc:format>image/svg+xml</dc:format>
        <dc:type
           rdf:resource="http://purl.org/dc/dcmitype/StillImage" />
      </cc:Work>
    </rdf:RDF>
  </metadata>
  <defs
     id="defs13" />
  <sodipodi:namedview
     pagecolor="#ffffff"
     bordercolor="#666666"
     borderopacity="1"
     objecttolerance="10"
     gridtolerance="10"
     guidetolerance="10"
     inkscape:pageopacity="0"
     inkscape:pageshadow="2"
     inkscape:window-width="532"
     inkscape:window-height="460"
     id="namedview11"
     showgrid="false"
     inkscape:zoom="2.36"
     inkscape:cx="50"
     inkscape:cy="-13.000031"
     inkscape:window-x="72"
     inkscape:window-y="27"
     inkscape:window-maximized="0"
     inkscape:current-layer="Ebene_2" />
  <g
     transform="scale(0.44,0.436516)"
     id="g8">
    <path
       d="m 84.033,29.22 -1.707,-0.789 c 0.108,-0.351 0.213,-0.789 0.213,-1.227 0,-1.14 -10.02,-7.284 -27.396,-7.284 -16.629,0 -23.772,4.212 -23.772,9.651 0,14.388 62.787,-6.666 62.787,25.095 0,11.58 -13.644,20.529 -40.935,20.529 -26.01,0 -33.474,-6.843 -35.925,-6.843 -0.639,0 -0.96,0.438 -1.491,0.702 l -1.386,-0.264 8.847,-14.916 1.707,0.702 c 0,0.354 -0.216,0.705 -0.216,1.404 0,5.178 13.755,8.862 27.399,8.862 19.401,0 26.01,-4.56 26.01,-9.39 0,-17.193 -61.935,4.125 -61.935,-25.002 0,-14.739 18.867,-20.88 39.549,-20.88 18.549,0 31.554,6.666 32.835,6.666 1.386,0 1.599,-0.348 1.92,-0.612 l 1.704,0.438 z"
       id="path7"
       style="fill:#ffffff;fill-opacity:1"
       inkscape:connector-curvature="0" />
    <path
       d="m 102.363,73.089 c 2.346,0 2.772,-0.702 2.772,-2.634 V 14.307 c 0,-1.932 -0.429,-2.631 -2.772,-2.631 v -1.23 h 69.186 c 2.559,0 3.624,-0.702 3.624,-1.929 h 1.491 v 14.562 h -1.491 c 0,-1.578 -1.065,-2.28 -3.624,-2.28 h -51.276 v 15.618 h 33.474 c 2.556,0 3.624,-0.702 3.624,-2.28 h 1.491 v 14.736 h -1.491 c 0,-0.702 -0.213,-1.227 -0.855,-1.578 -0.531,-0.351 -1.491,-0.528 -2.769,-0.528 h -33.474 v 17.199 h 52.236 c 2.556,0 3.624,-0.705 3.624,-2.106 h 1.491 v 14.388 h -1.491 c 0,-1.23 -1.068,-1.932 -3.624,-1.932 h -70.146 z"
       id="path9"
       style="fill:#ffffff;fill-opacity:1"
       inkscape:connector-curvature="0" />
    <path
       d="m 272.175,40.626 v 1.23 c -1.068,0.177 -2.025,0.876 -2.025,2.808 v 17.283 c 0,1.404 0.531,1.929 1.917,2.193 v 1.227 c -6.714,3.159 -23.133,9.828 -41.574,9.828 -24.519,0 -46.053,-10.005 -46.053,-32.814 0,-22.812 25.158,-32.814 47.331,-32.814 8.742,0 17.058,1.668 23.133,3.246 5.652,2.019 9.807,3.6 10.554,3.6 0.96,0 1.92,-0.441 2.346,-0.966 l 1.491,0.525 -10.338,14.388 -1.494,-0.789 c 0.105,-0.351 0.213,-0.876 0.213,-1.491 0,-2.721 -11.514,-8.16 -25.692,-8.16 -17.907,0 -32.406,7.284 -32.406,22.113 0,15.528 14.499,22.806 30.915,22.806 13.434,0 21.321,-3.771 24.519,-5.7 v -7.281 h -18.336 c -2.13,0 -3.411,0.876 -3.411,2.103 h -1.494 V 38.523 h 1.494 c 0,1.227 1.281,2.103 3.411,2.103 z"
       id="path11"
       style="fill:#ffffff;fill-opacity:1"
       inkscape:connector-curvature="0" />
    <path
       d="m 277.497,74.319 v -1.23 c 1.92,-0.087 2.559,-0.525 4.05,-3.333 L 310.65,15.888 c 0.534,-0.879 1.173,-1.845 1.173,-2.634 0,-0.963 -0.852,-1.404 -2.241,-1.578 v -1.23 h 23.241 v 1.23 c -1.596,0.174 -2.238,0.699 -2.238,1.314 0,0.702 0.426,1.404 0.96,2.283 l 30.915,54.483 c 1.491,2.721 1.917,3.333 4.155,3.333 v 1.23 h -21.213 v -1.23 c 1.386,0 1.92,-0.438 1.92,-0.876 0,-0.966 -0.96,-2.193 -8.103,-14.742 h -36.564 c -6.183,11.406 -7.782,13.161 -7.782,14.301 0,0.792 0.639,1.23 1.599,1.317 v 1.227 h -18.975 z m 55.542,-26.85 -12.792,-22.986 -12.582,22.986 z"
       id="path13"
       style="fill:#ffffff;fill-opacity:1"
       inkscape:connector-curvature="0" />
    <path
       d="M 600,84.762 H 0 V 0 H 600 Z M 5.4,79.365 H 594.6 V 5.4 H 5.4 Z"
       id="path17"
       style="fill:#ffffff;fill-opacity:1"
       inkscape:connector-curvature="0" />
    <path
       d="m 385.098,10.446 v 63.87 h 205.164 v -63.87 z m 8.697,44.835 c -1.704,-11.37 36.069,-26.529 85.281,-34.515 -1.11,0.285 -3.261,0.837 -3.261,0.837 0,0 -4.836,1.179 -6.171,1.506 -25.104,6.135 -42.693,17.187 -41.226,26.985 1.506,10.032 22.476,15.465 49.152,13.608 1.482,-0.105 6.741,-0.357 7.887,-0.408 -49.398,6.783 -89.958,3.363 -91.662,-8.013 z m 123.018,2.457 c -10.905,2.478 -24.534,4.584 -24.534,4.584 V 33.819 l 7.026,23.193 c 0,0 16.737,-2.715 29.475,-8.019 11.073,-4.611 17.94,-10.395 17.475,-16.554 -0.75,-10.008 -22.032,-15.348 -48.309,-13.659 -1.752,0.114 -7.569,0.414 -8.715,0.462 49.389,-6.786 89.943,-3.363 91.65,8.01 1.449,9.672 -25.662,22.077 -64.068,30.486 z"
       id="path25"
       style="fill:#ffffff;fill-opacity:1"
       inkscape:connector-curvature="0" />
  </g>
</svg>
