<?xml version="1.0" encoding="UTF-8" standalone="no"?>
<svg
   xmlns:dc="http://purl.org/dc/elements/1.1/"
   xmlns:cc="http://creativecommons.org/ns#"
   xmlns:rdf="http://www.w3.org/1999/02/22-rdf-syntax-ns#"
   xmlns:svg="http://www.w3.org/2000/svg"
   xmlns="http://www.w3.org/2000/svg"
   xmlns:sodipodi="http://sodipodi.sourceforge.net/DTD/sodipodi-0.dtd"
   xmlns:inkscape="http://www.inkscape.org/namespaces/inkscape"
   version="1.1"
   id="svg60"
   sodipodi:docname="sfc.svg"
   width="264"
   height="49.999947"
   inkscape:version="0.92.5 (2060ec1f9f, 2020-04-08)">
  <metadata
     id="metadata66">
    <rdf:RDF>
      <cc:Work
         rdf:about="">
        <dc:format>image/svg+xml</dc:format>
        <dc:type
           rdf:resource="http://purl.org/dc/dcmitype/StillImage" />
      </cc:Work>
    </rdf:RDF>
  </metadata>
  <defs
     id="defs64" />
  <sodipodi:namedview
     pagecolor="#ffffff"
     bordercolor="#666666"
     borderopacity="1"
     objecttolerance="10"
     gridtolerance="10"
     guidetolerance="10"
     inkscape:pageopacity="0"
     inkscape:pageshadow="2"
     inkscape:window-width="640"
     inkscape:window-height="480"
     id="namedview62"
     showgrid="false"
     inkscape:zoom="2.36"
     inkscape:cx="50"
     inkscape:cy="-5.285e-05"
     inkscape:window-x="72"
     inkscape:window-y="27"
     inkscape:window-maximized="0"
     inkscape:current-layer="svg60" />
  <g
     transform="scale(0.44,0.44245)"
     id="g58">
    <path
       d="m 438.72,66.222 h -8.472 v -28.65 c 0,0 21.204,0 31.194,0 5.391,0 9.6,3.822 9.747,9.219 v 19.431 h -7.998 c 0,0 0,-12.345 0,-17.808 0,-2.649 -1.56,-4.482 -4.185,-4.725 -1.443,-0.132 -2.901,-0.024 -4.464,-0.024 0,7.488 0,22.557 0,22.557 h -8.37 c 0,0 0,-15.114 0,-22.713 -2.511,0 -4.92,0 -7.452,0 0,7.476 0,22.713 0,22.713 z"
       style="fill:#ffffff"
       id="path2"
       inkscape:connector-curvature="0" />
    <path
       d="m 567.528,66.222 h -8.472 v -28.65 c 0,0 21.204,0 31.194,0 5.391,0 9.6,3.822 9.75,9.219 v 19.431 h -8.001 c 0,0 0,-12.345 0,-17.808 0,-2.649 -1.557,-4.482 -4.185,-4.725 -1.44,-0.132 -2.901,-0.024 -4.461,-0.024 0,7.488 0,22.557 0,22.557 h -8.373 c 0,0 0,-15.114 0,-22.713 -2.511,0 -4.92,0 -7.452,0 0,7.476 0,22.713 0,22.713 z"
       style="fill:#ffffff"
       id="path4"
       inkscape:connector-curvature="0" />
    <path
       d="m 336.168,55.293 c 2.706,3.57 5.517,7.269 8.289,10.929 -3.183,0 -9.513,0 -9.513,0 l -7.287,-10.623 h -8.103 c 0,0 0,7.092 0,10.623 -2.844,0 -5.556,0 -8.346,0 0,-9.441 0,-19.116 0,-28.65 0.405,0 0.807,0 1.212,0 7.296,0 14.589,-0.003 21.885,0 5.946,0.003 10.203,5.361 9.009,11.139 -0.66,3.192 -2.712,5.151 -5.739,6.171 -0.42,0.141 -0.846,0.252 -1.407,0.411 z m -16.593,-4.836 c 3.699,0 11.007,0 11.007,0 0.576,-0.009 1.176,-0.258 1.719,-0.489 1.212,-0.516 2.052,-1.344 2.058,-2.784 0.003,-1.524 -0.555,-2.739 -2.025,-3.294 -0.822,-0.312 -1.734,-0.504 -2.61,-0.519 h -10.152 c 0.003,0 0.003,4.761 0.003,7.086 z"
       style="fill:#ffffff"
       id="path6"
       inkscape:connector-curvature="0" />
    <path
       d="m 425.508,66.21 h -21.273 c -1.581,-0.021 -3.213,-0.306 -4.719,-0.78 -3.924,-1.233 -5.976,-4.329 -5.745,-8.331 0.237,-4.095 2.823,-7.239 6.708,-8.07 0.906,-0.195 1.851,-0.291 2.778,-0.297 h 13.572 c 0.372,0 -0.372,0 0,0 -0.048,-3.126 -2.628,-5.655 -5.931,-5.667 H 396.06 v -5.493 h 17.361 c 6.669,0 11.883,4.989 12.087,11.637 v 17.004 0 z m -8.412,-12.087 c -3.498,0 -6.954,0 -10.41,0 -2.208,0 -3.705,1.32 -3.741,3.288 -0.03,1.911 1.413,3.177 3.657,3.18 h 10.494 c 0,0 0,-4.167 0,-6.468 z"
       style="fill:#ffffff"
       id="path8"
       inkscape:connector-curvature="0" />
    <path
       d="m 174.711,66.21 v -5.625 h 18.738 c 1.728,0 2.784,-0.861 3.156,-2.559 0.273,-1.251 -0.513,-2.535 -2.022,-3.093 -0.687,-0.255 -1.449,-0.399 -2.178,-0.408 h -11.556 c -4.716,-0.069 -7.47,-2.874 -7.893,-7.86 -0.33,-3.882 2.529,-8.316 6.402,-9.09 0,0 16.671,0 24.648,0 0,1.722 0,3.954 0,5.772 -0.393,0 -0.789,0 -1.188,0 -5.496,0 -10.998,-0.006 -16.494,0.003 -0.519,0.003 -1.047,0.045 -1.557,0.138 -1.293,0.243 -2.253,1.038 -2.487,2.286 -0.234,1.224 0.312,2.367 1.335,3.141 0.315,0.237 0.825,0.351 1.248,0.354 h 12.453 c 3.087,0.087 5.988,0.879 7.557,3.915 2.736,5.298 0.627,12.909 -7.431,13.026 z"
       style="fill:#ffffff"
       id="path10"
       inkscape:connector-curvature="0" />
    <path
       d="m 537.417,36.918 c 3.201,0.105 6.309,0.471 9.219,1.812 4.05,1.863 7.074,4.797 7.935,9.249 1.077,5.604 0.09,10.842 -4.401,14.844 -2.547,2.274 -5.769,3.273 -9.066,3.84 -5.124,0.882 -10.029,0.054 -14.676,-2.292 -4.347,-2.19 -6.168,-5.985 -6.663,-10.584 -0.246,-2.313 -0.195,-4.629 0.525,-6.876 1.704,-5.292 5.652,-8.004 10.812,-9.165 2.061,-0.462 3.249,-0.759 6.315,-0.828 z m 9.327,14.976 c -0.024,-0.522 -0.045,-1.044 -0.075,-1.566 -0.243,-3.912 -2.538,-6.861 -6.12,-7.8 -2.097,-0.552 -4.23,-0.489 -6.327,-0.048 -3.048,0.636 -5.04,2.505 -5.91,5.478 -0.696,2.367 -0.693,4.806 -0.288,7.218 0.471,2.793 2.163,4.695 4.86,5.442 1.62,0.45 3.378,0.618 5.064,0.579 5.751,-0.141 8.934,-3.576 8.796,-9.303 z"
       style="fill:#ffffff"
       id="path12"
       inkscape:connector-curvature="0" />
    <path
       d="m 306.699,49.062 c 0,1.875 0,3.618 0,5.445 -6.657,0 -13.266,0 -19.875,0 0.051,3.435 2.475,5.88 5.76,5.883 4.263,0.006 13.968,0.003 13.968,0.003 v 5.802 h -16.068 c -7.992,-0.369 -12.858,-6.003 -12.591,-13.404 0.087,-2.439 0.249,-4.842 1.158,-7.143 1.962,-4.977 6.48,-8.073 11.805,-8.073 4.863,0 15.849,0 15.849,0 v 5.793 c 0,0 -10.848,-0.033 -13.464,-0.021 -3.192,0.015 -5.847,2.394 -6.27,5.715 6.564,0 13.119,0 19.728,0 z"
       style="fill:#ffffff"
       id="path14"
       inkscape:connector-curvature="0" />
    <path
       d="m 231.12,60.363 c 0,0 0,-15.315 0,-22.788 2.748,0 5.418,0 8.166,0 0,9.336 0,28.638 0,28.638 l -21.498,0.009 c -2.655,0.009 -4.794,-1.017 -6.459,-3.033 -1.581,-1.917 -2.553,-3.987 -2.481,-6.63 0.156,-5.718 0.045,-18.984 0.045,-18.984 h 8.193 l -0.033,18.306 c -0.06,2.691 1.434,4.26 3.918,4.482 z"
       style="fill:#ffffff"
       id="path16"
       inkscape:connector-curvature="0" />
    <path
       d="m 252.156,56.538 c 0,3.306 0,6.492 0,9.675 -2.688,0 -5.292,0 -7.968,0 0,-9.411 0,-28.638 0,-28.638 h 21.744 c 3.849,-0.105 7.713,2.763 8.856,7.023 1.671,6.216 -2.667,11.91 -9.144,11.937 -4.116,0.018 -8.232,0.003 -12.348,0.003 -0.33,0 -0.657,0 -1.14,0 z m 0.27,-5.574 h 11.022 c 0.444,-0.006 0.933,-0.288 1.32,-0.549 1.206,-0.81 2.043,-3.03 1.656,-4.248 -0.606,-1.899 -1.818,-2.814 -3.819,-2.82 h -10.179 z"
       style="fill:#ffffff"
       id="path18"
       inkscape:connector-curvature="0" />
    <path
       d="m 391.533,37.575 v 5.493 h -13.98 c -2.373,0.066 -4.404,1.188 -5.793,3.141 -0.474,0.669 -0.765,1.515 -0.831,2.661 6.906,0 13.536,0 20.25,0 0,2.076 0,4.032 0,6.063 -6.744,0 -13.464,0 -20.325,0 0,3.711 0,7.581 0,11.292 -2.802,0 -8.256,0 -8.256,0 0,0 0,-11.7 0,-16.935 0,-6.123 4.644,-11.514 10.782,-11.712 z"
       style="fill:#ffffff"
       id="path20"
       inkscape:connector-curvature="0" />
    <path
       d="m 517.233,60.603 v 5.619 h -15.108 c -6.261,0 -11.025,-3.681 -12.549,-9.774 -1.188,-4.755 -0.639,-9.561 2.052,-13.704 2.238,-3.444 5.52,-5.16 9.645,-5.169 h 16.122 v 5.667 h -13.689 c -2.685,0 -4.413,1.242 -5.304,3.777 -1.038,2.958 -1.218,6.255 -0.246,9.279 0.9,2.802 3.042,4.305 5.979,4.305 z"
       style="fill:#ffffff"
       id="path22"
       inkscape:connector-curvature="0" />
    <path
       d="m 335.889,92.316 c 0,-1.731 0,-3.399 0,-5.169 6.648,0 13.248,0 19.914,0 0,-2.88 0,-5.658 0,-8.547 -6.525,0 -13.011,0 -19.551,0 0,-1.704 0,-3.294 0,-4.95 7.956,0 15.864,0 23.853,0 0,6.207 0,12.42 0,18.666 -8.073,0 -16.131,0 -24.216,0 z"
       style="fill:#ffffff"
       id="path24"
       inkscape:connector-curvature="0" />
    <path
       d="m 173.628,78.474 c 0,-1.791 0,-3.387 0,-5.046 6.648,0 13.245,0 19.899,0 0.51,3.627 0.267,7.134 -0.951,10.542 -0.111,0.315 -0.306,0.873 -0.306,0.873 0,0 3.693,5.193 5.361,7.512 -1.887,0 -5.568,0 -5.568,0 0,0 -1.899,-2.565 -2.64,-3.621 -0.381,0.303 -0.726,0.576 -1.068,0.846 -2.319,1.854 -4.884,2.946 -7.932,2.82 0,0 -4.926,0 -7.467,0 v -5.109 c 0,0 3.489,0.018 5.232,-0.003 2.208,-0.027 4.389,-0.189 6.486,-1.014 3.24,-1.275 5.163,-4.179 4.992,-7.8 -5.319,0 -10.644,0 -16.038,0 z"
       style="fill:#ffffff"
       id="path26"
       inkscape:connector-curvature="0" />
    <rect
       x="476.28"
       y="37.575001"
       width="8.835"
       height="28.665001"
       style="fill:#ffffff"
       id="rect28" />
    <path
       d="m 264.6,92.328 v -5.145 h 10.284 c 4.188,0.213 7.473,-2.439 7.365,-7.608 -0.006,-0.33 -0.048,-0.66 -0.081,-1.071 -6.261,0 -12.492,0 -18.813,0 0,-1.668 0,-3.249 0,-4.875 7.572,0 22.755,0 22.755,0 v 9.204 c -0.021,0.873 -0.297,1.779 -0.606,2.61 -1.545,4.122 -4.674,6.525 -8.925,6.888 z"
       style="fill:#ffffff"
       id="path30"
       inkscape:connector-curvature="0" />
    <path
       d="m 288.03,82.35 c 0,-1.545 0,-2.985 0,-4.437 6.678,0 20.028,0 20.028,0 v 6.525 c 0,2.607 -1.833,3.735 -9.249,3.735 0,0 -0.066,1.167 -0.3,1.494 -0.783,1.941 -2.301,2.742 -4.512,2.742 h -4.875 c 0,-1.521 0,-2.979 0,-4.566 1.596,0 3.189,0 4.782,0 1.593,0 2.004,-0.351 2.265,-1.95 0.078,-0.48 0.135,-0.963 0.219,-1.533 2.055,0 4.104,0.009 6.153,-0.003 1.389,-0.006 1.806,-0.444 1.863,-2.004 C 298.965,82.35 293.526,82.35 288.03,82.35 Z"
       style="fill:#ffffff"
       id="path32"
       inkscape:connector-curvature="0" />
    <path
       d="M 386.427,73.809 V 84.33 c -0.852,5.868 -6.147,8.106 -10.038,7.986 h -13.734 v -5.169 h 14.127 c 2.907,0.147 5.862,-2.571 5.817,-5.97 -0.027,-2.13 -0.003,-4.263 -0.003,-6.396 0,-0.294 0,-0.594 0,-0.972 1.344,0 2.625,0 3.831,0 z"
       style="fill:#ffffff"
       id="path34"
       inkscape:connector-curvature="0" />
    <path
       d="m 227.073,73.413 c 1.482,0 2.853,0 4.356,0 0,2.07 0,4.11 0,6.153 0,0.411 0.024,0.825 -0.003,1.233 -0.315,4.848 3.078,6.273 6.24,6.273 0.408,0 0.816,0 1.281,0 0,1.746 0,3.45 0,5.151 -7.005,0.405 -11.58,-2.715 -11.856,-9.597 -0.111,-2.685 -0.021,-5.382 -0.021,-8.073 0.003,-0.366 0.003,-0.732 0.003,-1.14 z"
       style="fill:#ffffff"
       id="path36"
       inkscape:connector-curvature="0" />
    <polygon
       points="310.131,78.909 333.633,81.717 333.633,86.433 310.131,83.463 "
       style="fill:#ffffff"
       id="polygon38" />
    <polygon
       points="310.131,72.714 333.633,75.525 333.633,80.238 310.131,77.271 "
       style="fill:#ffffff"
       id="polygon40" />
    <path
       d="m 333.651,88.038 c 0,1.641 0,3.123 0,4.698 -7.86,-0.993 -15.663,-1.977 -23.535,-2.97 0,-1.389 0,-3.063 0,-4.623 7.818,0.858 15.648,2.028 23.535,2.895 z"
       style="fill:#ffffff"
       id="path42"
       inkscape:connector-curvature="0" />
    <path
       d="m 213.351,92.184 c 0,-1.797 0,-3.459 0,-5.124 1.029,-0.078 2.034,-0.084 3.018,-0.237 2.868,-0.453 4.539,-2.442 4.548,-5.34 0.012,-2.574 0.003,-5.151 0.003,-7.812 1.446,0 2.841,0 4.377,0 0,2.106 0.03,4.224 0,6.342 -0.021,1.416 0.048,2.865 -0.228,4.239 -0.975,4.857 -3.936,7.344 -9.024,7.776 -0.879,0.078 -1.764,0.105 -2.694,0.156 z"
       style="fill:#ffffff"
       id="path44"
       inkscape:connector-curvature="0" />
    <path
       d="m 213.702,80.484 c 0,1.62 0,3.18 0,4.782 -6.012,0 -11.976,0 -18,0 0,-1.599 0,-3.153 0,-4.782 5.985,0 11.946,0 18,0 z"
       style="fill:#ffffff"
       id="path46"
       inkscape:connector-curvature="0" />
    <path
       d="m 239.166,80.307 c 6.057,0 12.015,0 18.018,0 0,1.581 0,3.096 0,4.701 -6,0 -11.979,0 -18.018,0 0,-1.539 0,-3.093 0,-4.701 z"
       style="fill:#ffffff"
       id="path48"
       inkscape:connector-curvature="0" />
    <path
       d="m 376.896,73.65 c 0,1.62 0,3.363 0,4.95 -4.743,0 -9.447,0 -14.223,0 0,-1.545 0,-3.312 0,-4.95 4.686,0 9.405,0 14.223,0 z"
       style="fill:#ffffff"
       id="path50"
       inkscape:connector-curvature="0" />
    <path
       d="m 239.367,76.659 c -0.003,1.938 -1.569,3.495 -3.492,3.474 -1.866,-0.024 -3.411,-1.557 -3.441,-3.429 -0.033,-1.917 1.524,-3.501 3.45,-3.51 1.944,-0.006 3.486,1.527 3.483,3.465 z m -2.109,-0.045 c -0.027,-0.789 -0.729,-1.473 -1.467,-1.47 -0.78,0.006 -1.512,0.783 -1.419,1.566 0.102,0.873 0.657,1.383 1.503,1.35 0.864,-0.036 1.302,-0.636 1.383,-1.446 z"
       style="fill:#ffffff"
       id="path52"
       inkscape:connector-curvature="0" />
    <path
       id="path2842"
       d="m 68.439,68.859 c 0,9.45 -15.318,17.112 -34.218,17.112 C 15.324,85.971 0,78.312 0,68.862 c 0,0 0,0 0,-0.003 0,-9.447 15.318,-17.109 34.215,-17.109 18.897,0 34.221,7.659 34.221,17.106 0.003,0.003 0.003,0.003 0.003,0.003 z"
       style="fill:#ffffff"
       inkscape:connector-curvature="0" />
    <path
       id="path3624"
       d="m 127.368,95.898 c 0.003,9.447 -15.315,17.109 -34.212,17.109 -18.9,0 -34.221,-7.659 -34.224,-17.106 0,-0.003 0,-0.003 0,-0.003 -0.003,-9.45 15.318,-17.109 34.215,-17.109 18.9,0 34.218,7.656 34.221,17.106 0,0.003 0,0.003 0,0.003 z"
       style="fill:#ffffff"
       inkscape:connector-curvature="0" />
    <path
       id="path3644"
       d="M 69.696,0 C 52.446,0 38.43,13.785 38.022,30.951 38.739,30.9 39.453,30.87 40.179,30.87 c 17.505,0 31.695,14.205 31.695,31.725 0,0.261 -0.012,0.516 -0.018,0.774 16.5,-1.107 29.532,-14.847 29.532,-31.644 C 101.388,14.205 87.201,0 69.696,0 Z"
       style="fill:#ffffff"
       inkscape:connector-curvature="0" />
    <path
       id="path3897"
       d="m 129.693,27.789 c -17.499,0 -31.683,14.193 -31.683,31.704 0,0.39 0.006,0.783 0.021,1.167 0.42,-0.015 0.837,-0.036 1.266,-0.036 17.103,0 31.044,13.569 31.665,30.534 16.914,-0.663 30.414,-14.577 30.414,-31.662 0.003,-17.514 -14.184,-31.707 -31.683,-31.707 z"
       style="fill:#ffffff"
       inkscape:connector-curvature="0" />
  </g>
</svg>
