<?xml version="1.0" encoding="UTF-8" standalone="no"?>
<svg
   xmlns:dc="http://purl.org/dc/elements/1.1/"
   xmlns:cc="http://creativecommons.org/ns#"
   xmlns:rdf="http://www.w3.org/1999/02/22-rdf-syntax-ns#"
   xmlns:svg="http://www.w3.org/2000/svg"
   xmlns="http://www.w3.org/2000/svg"
   xmlns:sodipodi="http://sodipodi.sourceforge.net/DTD/sodipodi-0.dtd"
   xmlns:inkscape="http://www.inkscape.org/namespaces/inkscape"
   version="1.1"
   id="svg20"
   sodipodi:docname="snesmsu1.svg"
   width="264"
   height="95"
   inkscape:version="0.92.5 (2060ec1f9f, 2020-04-08)">
  <metadata
     id="metadata26">
    <rdf:RDF>
      <cc:Work
         rdf:about="">
        <dc:format>image/svg+xml</dc:format>
        <dc:type
           rdf:resource="http://purl.org/dc/dcmitype/StillImage" />
      </cc:Work>
    </rdf:RDF>
  </metadata>
  <defs
     id="defs24" />
  <sodipodi:namedview
     pagecolor="#ffffff"
     bordercolor="#666666"
     borderopacity="1"
     objecttolerance="10"
     gridtolerance="10"
     guidetolerance="10"
     inkscape:pageopacity="0"
     inkscape:pageshadow="2"
     inkscape:window-width="640"
     inkscape:window-height="480"
     id="namedview22"
     showgrid="false"
     inkscape:zoom="2.36"
     inkscape:cx="50.000001"
     inkscape:cy="45"
     inkscape:window-x="72"
     inkscape:window-y="27"
     inkscape:window-maximized="0"
     inkscape:current-layer="svg20" />
  <path
     style="fill:#ffffff;fill-opacity:1;fill-rule:evenodd;stroke:#000000;stroke-width:0;stroke-miterlimit:4;stroke-dasharray:none;stroke-opacity:1"
     d="M 61.875001,5e-7 1.2059773e-6,61.957 H 16.500001 l 41.25,-41.305 v 41.305 h 8.25 L 107.25,20.652 v 41.305 h 12.375 V 5e-7 h -8.25 L 70.125001,41.304 V 5e-7 Z m 80.437999,0 c -10.251,0 -18.563,8.323 -18.563,18.5869995 0,10.264 8.312,18.587 18.563,18.587 h 16.5 c 3.415,0 6.187,2.776001 6.187,6.196 0,3.42 -2.772,6.195 -6.187,6.195 H 123.75 v 12.392 h 35.063 c 10.25,0 18.562,-8.323 18.562,-18.587 0,-10.264 -8.312,-18.587 -18.562,-18.587 h -16.5 c -3.416,0 -6.188,-2.776 -6.188,-6.196 0,-3.42 2.772,-6.196 6.188,-6.196 h 35.062 V 5e-7 Z m 39.187,0 V 43.37 c 0,10.264 8.312,18.587 18.563,18.587 h 16.5 c 10.25,0 18.562,-8.323 18.562,-18.587 V 5e-7 H 222.75 V 43.37 c 0,3.42 -2.772,6.195 -6.187,6.195 h -16.5 c -3.416,0 -6.188,-2.775 -6.188,-6.195 V 5e-7 Z m 74.25,0 L 239.25,16.522 v 8.261 h 12.375 V 61.957 H 264 V 5e-7 Z"
     id="path3758"
     inkscape:connector-curvature="0" />
  <path
     style="fill:#ffffff;fill-opacity:1;stroke:#000000;stroke-width:0;stroke-linecap:butt;stroke-linejoin:miter;stroke-miterlimit:4;stroke-dasharray:none;stroke-opacity:1"
     d="M 1.2059773e-6,66.087001 V 74.348 H 264 v -8.260999 z"
     id="path3798"
     inkscape:connector-curvature="0" />
  <path
     d="m 17.115001,78.222 h -5.074 L 9.0010012,91.200001 5.9030012,78.222 H 0.76700121 V 94.566 H 4.0380012 V 80.704 l 3.127,13.862 h 3.4689998 l 3.209,-13.862 v 13.862 h 3.272 V 78.222"
     id="path3806"
     style="fill:#ffffff"
     inkscape:connector-curvature="0" />
  <path
     d="m 32.934001,78.222 h -12.416 v 16.344 h 12.816 v -2.891 h -9.376 v -4.234 h 8.258 V 84.55 h -8.258 v -3.435999 h 8.976 v -2.892"
     id="path3808"
     style="fill:#ffffff"
     inkscape:connector-curvature="0" />
  <path
     d="m 36.197001,94.566 h 7.314 c 1.864,0 3.498,-0.614999 4.615,-1.706 1.551,-1.569 2.409,-3.985 2.409,-6.807 0,-4.959999 -2.52,-7.831 -6.88,-7.831 h -7.458 v 16.344 m 3.444,-13.543 h 3.383 c 1.147,0 2.009,0.297 2.611,0.863 0.858,0.843 1.316,2.326 1.316,4.258 0,3.552 -1.432,5.622 -3.869,5.622 h -3.441 V 81.023"
     id="path3810"
     style="fill:#ffffff"
     inkscape:connector-curvature="0" />
  <path
     d="m 56.409001,78.222 h -3.526 v 16.344 h 3.526 V 78.222"
     id="path3812"
     style="fill:#ffffff"
     inkscape:connector-curvature="0" />
  <path
     d="m 63.306001,91.200001 h 6.225 l 1.089,3.365999 h 3.845 l -5.965,-16.344 h -4.076 l -6.022,16.344 h 3.729 l 1.175,-3.365999 m 3.127,-9.359 2.125,6.557999 h -4.303 l 2.178,-6.557999"
     id="path3814"
     style="fill:#ffffff"
     inkscape:connector-curvature="0" />
  <path
     d="m 95.663001,78.222 h -12.416 v 16.344 h 12.82 v -2.891 h -9.38 v -4.234 h 8.262 V 84.55 h -8.262 v -3.435999 h 8.976 v -2.892"
     id="path3816"
     style="fill:#ffffff"
     inkscape:connector-curvature="0" />
  <path
     d="M 109.255,89.696 102.486,78.222 H 98.785001 V 94.566 H 102.057 V 82.844 l 6.967,11.722 h 3.498 V 78.222 h -3.267 v 11.474"
     id="path3818"
     style="fill:#ffffff"
     inkscape:connector-curvature="0" />
  <path
     d="m 125.912,87.214 v 7.352 h 3.526 V 78.222 h -3.526 v 6.192 h -6.596 v -6.192 h -3.531 v 16.344 h 3.531 v -7.352 h 6.596"
     id="path3820"
     style="fill:#ffffff"
     inkscape:connector-curvature="0" />
  <path
     d="m 136.455,91.200001 h 6.225 l 1.089,3.365999 h 3.844 l -5.965,-16.343999 h -4.071 L 131.554,94.566 h 3.725 l 1.176,-3.365999 m 3.127,-9.359 2.124,6.557999 h -4.302 l 2.178,-6.557999"
     id="path3822"
     style="fill:#ffffff"
     inkscape:connector-curvature="0" />
  <path
     d="M 160.165,89.696 153.401,78.222 H 149.7 v 16.344 h 3.267 V 82.844 l 6.972,11.722 h 3.498 V 78.222 h -3.272 v 11.474"
     id="path3824"
     style="fill:#ffffff"
     inkscape:connector-curvature="0" />
  <path
     d="m 181.125,83.571 c -0.174,-1.297 -0.429,-1.979 -1.06,-2.891 -1.292,-1.842 -3.498,-2.892 -6.167,-2.892 -4.818,0 -7.83,3.326 -7.83,8.654 0,5.304 2.954,8.558 7.743,8.558 2.236,0 4.129,-0.727 5.42,-2.119 0.978,-1.045 1.436,-1.977999 1.894,-3.915999 h -3.527 c -0.26,0.912999 -0.429,1.322 -0.805,1.801 -0.688,0.843 -1.691,1.277 -2.924,1.277 -2.636,0 -4.216,-2.099 -4.216,-5.58 0,-3.598 1.605,-5.713 4.331,-5.713 1.176,0 2.178,0.409 2.781,1.091 0.375,0.478 0.573,0.842 0.833,1.73 h 3.527"
     id="path3826"
     style="fill:#ffffff"
     inkscape:connector-curvature="0" />
  <path
     d="m 196.202,78.222 h -12.417 v 16.344 h 12.821 v -2.891 h -9.38 v -4.234 h 8.262 V 84.55 h -8.262 v -3.435999 h 8.976 v -2.892"
     id="path3828"
     style="fill:#ffffff"
     inkscape:connector-curvature="0" />
  <path
     d="m 215.672,78.222 h -5.078 L 207.554,91.200001 204.46,78.222 h -5.136 v 16.344 h 3.271 V 80.704 l 3.127,13.862 h 3.469 L 212.4,80.704 v 13.862 h 3.272 V 78.222"
     id="path3830"
     style="fill:#ffffff"
     inkscape:connector-curvature="0" />
  <path
     d="m 231.491,78.222 h -12.42 v 16.344 h 12.82 v -2.891 h -9.376 v -4.234 h 8.258 V 84.55 h -8.258 v -3.435999 h 8.976 v -2.892"
     id="path3832"
     style="fill:#ffffff"
     inkscape:connector-curvature="0" />
  <path
     d="m 245.079,89.696 -6.77,-11.474 h -3.695 v 16.344 h 3.267 V 82.844 l 6.967,11.722 h 3.502 V 78.222 h -3.271 v 11.474"
     id="path3834"
     style="fill:#ffffff"
     inkscape:connector-curvature="0" />
  <path
     d="M 258.897,81.114001 H 264 v -2.892 h -13.736 v 2.892 h 5.102 V 94.566 h 3.531 V 81.114001"
     id="path3836"
     style="fill:#ffffff"
     inkscape:connector-curvature="0" />
</svg>
