<?xml version="1.0" encoding="UTF-8" standalone="no"?>
<svg
   xmlns:dc="http://purl.org/dc/elements/1.1/"
   xmlns:cc="http://creativecommons.org/ns#"
   xmlns:rdf="http://www.w3.org/1999/02/22-rdf-syntax-ns#"
   xmlns:svg="http://www.w3.org/2000/svg"
   xmlns="http://www.w3.org/2000/svg"
   xmlns:sodipodi="http://sodipodi.sourceforge.net/DTD/sodipodi-0.dtd"
   xmlns:inkscape="http://www.inkscape.org/namespaces/inkscape"
   version="1.2"
   id="Ebene_1"
   x="0px"
   y="0px"
   sodipodi:docname="snesh.svg"
   width="264.00003"
   height="78.015999"
   inkscape:version="0.92.5 (2060ec1f9f, 2020-04-08)">
  <metadata
     id="metadata12">
    <rdf:RDF>
      <cc:Work
         rdf:about="">
        <dc:format>image/svg+xml</dc:format>
        <dc:type
           rdf:resource="http://purl.org/dc/dcmitype/StillImage" />
      </cc:Work>
    </rdf:RDF>
  </metadata>
  <defs
     id="defs10" />
  <sodipodi:namedview
     pagecolor="#ffffff"
     bordercolor="#666666"
     borderopacity="1"
     objecttolerance="10"
     gridtolerance="10"
     guidetolerance="10"
     inkscape:pageopacity="0"
     inkscape:pageshadow="2"
     inkscape:window-width="532"
     inkscape:window-height="460"
     id="namedview8"
     showgrid="false"
     inkscape:zoom="2.36"
     inkscape:cx="50"
     inkscape:cy="28.016"
     inkscape:window-x="72"
     inkscape:window-y="27"
     inkscape:window-maximized="0"
     inkscape:current-layer="Ebene_1" />
  <g
     transform="scale(0.44)"
     id="g3">
    <path
       id="polyline2177"
       d="M 29.219,0 C 23.576,0 18.087,4.642 17.081,10.39 v 0.105 0.102 0.102 l -0.102,0.102 v 0.208 0.102 l -0.106,0.207 v 0.207 l -0.102,0.205 v 0.309 l -0.102,0.207 v 0.31 l -0.105,0.306 -0.102,0.31 -0.102,0.616 -0.208,0.718 -0.099,0.721 -0.207,0.718 -0.105,0.823 -0.208,0.823 -0.204,0.926 -0.207,0.823 -0.307,1.749 -0.207,0.925 -0.207,0.823 -0.099,0.824 -0.208,0.82 -0.204,0.826 -0.105,0.823 -0.102,0.718 -0.208,0.616 -0.105,0.721 v 0.31 l -0.099,0.204 v 0.31 0.207 l -0.102,0.309 v 0.205 0.207 l -0.105,0.207 v 0.102 0.103 c -0.106,2.514 0.246,5.946 1.03,6.586 0.998,5.537 19.46,31.177 18.929,35.08 -0.496,3.915 -2.674,15.435 -2.674,15.435 -0.67,3.881 -3.32,6.991 -7.199,6.991 -3.885,0 -6.535,-3.098 -5.865,-6.991 L 20.782,68.314 H 6.995 l -4.63,26.545 c -0.944,5.387 2.707,9.668 8.127,9.668 h 19.652 c 5.445,0 10.627,-4.281 11.625,-9.668 0,0 5.062,-24.794 5.038,-26.545 -0.018,-1.764 -0.51,-1.956 -0.51,-1.956 0,-2.016 -16.429,-29.138 -18.109,-30.148 -0.721,-0.42 -1.316,-3.106 -1.34,-4.729 -0.03,-1.613 2.164,-12.45 2.164,-12.45 0.667,-3.882 4.344,-6.995 8.229,-6.995 3.882,0 5.504,3.113 4.834,6.995 L 39.095,36.21 H 52.982 L 57.819,10.387 C 58.913,4.642 55.232,0 49.59,0 Z M 67.079,0 50.62,94.862 c -0.943,5.387 2.704,9.668 8.127,9.668 H 78.4 c 5.441,0 10.72,-4.281 11.727,-9.668 L 107.718,0 H 95.372 L 78.601,92.185 c -0.243,1.34 -1.544,2.469 -2.878,2.469 h -9.777 c -1.367,0 -2.28,-1.12 -2.058,-2.469 L 80.248,0 Z m 47.327,0 -19.857,104.53 h 13.169 l 9.056,-47.327 h 16.768 c 5.456,0 10.627,-4.314 11.624,-9.672 L 152.368,10.39 C 153.456,4.63 149.784,0 144.142,0 h -16.567 z m 47.018,0 -20.575,104.53 h 29.63 l 2.055,-12.964 h -14.608 l 5.97,-35.288 h 14.608 l 2.056,-10.907 h -14.605 l 6.48,-32.407 h 14.611 L 189.098,0 Z m 35.393,0 -19.752,104.53 h 13.169 l 8.951,-47.327 h 9.365 c 1.228,1.148 1.376,3.26 1.538,4.321 0.243,1.538 0.502,3.503 0.312,5.041 -0.171,1.526 -7.204,37.962 -7.204,37.962 h 13.171 c 0,0 7.407,-39.692 7.407,-40.329 0.024,-0.649 0,-2.683 -0.716,-3.807 -0.483,-0.721 -1.313,-2.377 -2.268,-2.981 -1.839,-1.18 -3.912,-1.959 -3.912,-1.959 h -0.928 c 3.77,-1.484 10.873,-3.93 11.63,-7.92 L 234.779,10.39 C 235.873,4.63 232.195,0 226.55,0 Z m 70.477,0 -19.86,104.53 h 15.125 l 12.24,-60.598 4.838,60.598 h 13.171 L 312.665,0 H 297.54 L 287.253,54.631 280.46,0 Z m 52.261,0 -19.854,104.53 H 312.87 L 332.723,0 Z m 20.058,0 -19.854,104.53 h 15.23 l 12.243,-60.598 4.834,60.598 h 13.172 L 385.092,0 H 369.865 L 359.68,54.631 352.89,0 Z m 51.037,0 -2.472,12.964 h 8.229 l -16.254,91.566 h 15.022 l 16.564,-91.566 h 7.92 L 421.717,0 Z m 36.214,0 -20.575,104.53 h 29.628 l 2.058,-12.964 h -14.608 l 6.072,-35.288 h 14.605 l 2.061,-10.907 h -14.611 l 6.376,-32.407 h 14.61 L 454.539,0 Z m 33.437,0 -19.857,104.53 h 15.224 l 12.247,-60.598 4.837,60.598 h 13.169 L 505.778,0 H 490.551 L 480.362,54.631 473.572,0 Z m 52.372,0 -19.863,104.53 h 30.042 c 5.457,0 10.72,-4.281 11.733,-9.668 L 550.527,10.393 C 551.609,4.63 547.943,0 542.298,0 Z m 56.479,0 c -5.649,0 -11.03,4.642 -12.039,10.39 l -14.716,84.469 c -0.953,5.39 2.614,9.671 8.031,9.671 h 21.707 c 5.442,0 10.718,-4.284 11.73,-9.671 L 599.807,10.39 C 600.904,4.642 597.214,0 591.581,0 Z m -45.269,12.039 h 6.072 c 3.882,0 6.532,3.11 5.862,6.995 l -12.965,68.419 c -0.676,3.881 -4.449,7.099 -8.334,7.099 h -5.967 z m 52.985,0 h 0.411 c 3.882,0 6.43,3.11 5.76,6.995 l -12.343,68.419 c -0.673,3.869 -4.251,7.099 -8.127,7.099 -3.888,0 -5.507,-3.218 -4.84,-7.099 l 12.243,-68.419 0.099,-0.31 0.105,-0.309 0.1,-0.412 0.102,-0.309 0.105,-0.412 0.099,-0.309 0.105,-0.31 0.202,-0.306 0.102,-0.31 0.21,-0.309 0.102,-0.307 0.205,-0.309 0.21,-0.208 0.201,-0.306 0.21,-0.309 0.307,-0.208 0.207,-0.207 0.208,-0.207 0.303,-0.208 0.312,-0.204 0.208,-0.204 0.306,-0.208 0.31,-0.102 0.309,-0.207 0.207,-0.102 0.409,-0.105 0.307,-0.1 h 0.309 l 0.306,-0.105 h 0.415 z m -449.81,0.412 h 6.382 c 1.4,0 4.371,3.206 4.116,4.63 L 132.1,42.905 c -0.253,1.337 -2.055,4.419 -3.389,4.419 h -7.722 -0.102 -0.102 l -0.103,-0.099 h -0.102 -0.102 -0.105 -0.102 V 47.12 h -0.105 -0.102 l -0.106,-0.099 h -0.102 l -0.102,-0.105 -0.102,-0.103 h -0.102 v -0.105 l -0.102,-0.102 -0.106,-0.102 V 46.402 L 119.24,46.3 119.135,46.194 V 46.095 45.99 l -0.102,-0.102 v -0.102 -0.102 l -0.105,-0.102 v -0.103 c 0,-0.171 -0.018,-0.429 0,-0.619 l 6.174,-31.586 c 0.568,-0.466 1.259,-0.823 1.956,-0.823 z m 81.996,0 h 0.106 0.102 0.102 0.102 5.97 c 1.403,0 4.39,3.206 4.113,4.63 l -5.456,25.718 c -0.237,1.349 -3.587,4.528 -4.933,4.528 h -5.661 c -1.169,0 -1.974,-0.769 -2.058,-1.848 0,-0.171 -0.024,-0.417 0,-0.619 l 6.072,-31.586 0.099,-0.102 0.105,-0.099 0.202,-0.105 h 0.102 l 0.102,-0.103 0.102,-0.102 h 0.102 l 0.102,-0.102 h 0.106 l 0.204,-0.102 h 0.102 0.099 0.102 v -0.102 h 0.012 z M 0,113.583 v 34.263 h 587.257 v -34.263 z m 431.704,3.602 h 0.099 0.1 0.105 0.099 0.102 4.528 c 1.223,0 2.097,0.977 1.851,2.263 l -1.133,5.762 h -2.776 l 0.613,-3.806 c 0.141,-0.86 -0.367,-1.545 -1.232,-1.545 -0.859,0 -1.71,0.682 -1.851,1.545 l -0.511,2.782 c -0.09,0.162 0.168,0.943 0.304,1.027 0.381,0.22 4.014,6.241 4.014,6.685 0.084,0.223 0.135,0.331 0.099,0.415 -0.102,0.751 -1.133,5.862 -1.133,5.862 -0.219,1.172 -1.361,2.157 -2.569,2.157 h -4.323 c -1.199,0 -1.971,-0.985 -1.749,-2.157 l 1.034,-5.862 h 2.98 l -0.715,4.218 c -0.138,0.857 0.361,1.644 1.229,1.644 0.835,0 1.722,-0.781 1.857,-1.644 l 0.616,-3.398 c -0.55,-1.418 -4.192,-6.592 -4.426,-7.821 -0.159,-0.138 -0.225,-0.88 -0.204,-1.439 0.033,-0.61 0.823,-4.425 0.823,-4.425 h 0.105 v -0.103 -0.099 -0.102 l 0.099,-0.207 v -0.099 l 0.099,-0.105 v -0.103 l 0.103,-0.099 v -0.105 l 0.102,-0.099 0.105,-0.105 v -0.099 h 0.099 l 0.105,-0.103 0.099,-0.105 0.103,-0.099 v -0.105 h 0.102 l 0.099,-0.099 0.099,-0.102 h 0.105 l 0.102,-0.102 h 0.102 l 0.103,-0.1 h 0.102 0.207 z m 23.658,0 h 3.704 l 0.514,8.746 4.732,-8.746 h 3.708 l -7.614,13.376 -1.85,9.771 h -3.293 l 1.649,-10.495 z m 33.644,0 h 0.1 0.105 0.099 0.105 0.099 4.528 c 1.22,0 2.073,0.977 1.851,2.263 l -1.133,5.762 h -2.779 l 0.619,-3.806 c 0.138,-0.86 -0.364,-1.545 -1.235,-1.545 -0.859,0 -1.716,0.682 -1.851,1.545 L 489,124.186 c -0.108,0.162 0.139,0.943 0.307,1.027 0.363,0.22 4.014,6.241 4.014,6.685 0.108,0.223 0.105,0.331 0.105,0.415 -0.141,0.751 -1.03,5.862 -1.03,5.862 -0.223,1.172 -1.377,2.157 -2.578,2.157 h -4.42 c -1.199,0 -1.974,-0.985 -1.755,-2.157 l 1.031,-5.862 h 2.986 l -0.718,4.218 c -0.141,0.86 0.394,1.647 1.232,1.647 0.856,0 1.683,-0.781 1.851,-1.647 l 0.616,-3.395 c -0.562,-1.418 -4.185,-6.592 -4.423,-7.821 -0.156,-0.141 -0.222,-0.88 -0.204,-1.439 0.03,-0.613 0.823,-4.425 0.823,-4.425 l 0.099,-0.103 v -0.099 -0.102 l 0.102,-0.207 v -0.102 l 0.103,-0.105 v -0.1 l 0.102,-0.102 v -0.105 l 0.102,-0.099 0.102,-0.105 v -0.099 h 0.105 l 0.096,-0.103 0.103,-0.105 0.102,-0.099 0.102,-0.105 0.102,-0.099 0.102,-0.102 h 0.102 l 0.105,-0.102 h 0.1 l 0.102,-0.1 h 0.099 0.204 z m 23.97,0 h 6.899 l -0.517,2.779 h -1.752 l -3.599,20.371 h -3.395 l 3.599,-20.371 h -1.748 z m 26.954,0 h 6.174 l -0.516,2.779 h -3.191 l -1.436,7.304 h 3.289 l -0.516,2.365 h -3.191 l -1.334,7.821 h 3.185 l -0.409,2.878 h -6.586 z m 25.415,0 h 3.807 l 0.613,13.376 5.865,-13.274 3.701,-0.102 -3.903,23.147 h -2.881 l 1.848,-12.24 -5.147,12.24 h -2.058 l -0.613,-12.553 -2.265,12.553 h -3.398 z m -552.588,0.826 h 6.072 l -0.414,2.876 h -3.29 l -1.337,7.205 h 3.191 l -0.415,2.472 h -3.293 l -1.232,7.818 h 3.188 l -0.514,2.881 H 8.127 Z m 28.396,0 h 2.881 l 1.542,12.139 2.262,-12.139 h 3.398 l -4.429,23.246 h -2.878 l -1.133,-13.481 -2.674,13.481 h -3.395 z m 30.865,0 h 6.791 l -0.409,2.876 h -1.752 l -3.704,20.373 h -3.287 l 3.596,-20.373 h -1.851 z m 29.94,0 h 6.172 l -0.514,2.876 h -3.191 l -1.439,7.205 h 3.188 l -0.412,2.472 h -3.188 l -1.337,7.818 h 3.191 l -0.412,2.881 h -6.582 z m 29.015,0 h 6.583 c 1.22,0 1.992,1.079 1.749,2.362 l -1.542,8.229 c -0.171,0.893 -1.739,1.62 -2.575,1.959 h 0.208 0.102 0.105 v 0.099 h 0.102 0.105 0.099 0.106 l 0.102,0.103 h 0.102 0.102 0.105 v 0.099 h 0.102 0.105 v 0.105 h 0.103 c 0.138,0.249 0.204,0.988 0.204,1.13 0,0.138 -1.65,9.157 -1.65,9.157 h -2.983 c 0,0 1.595,-8.1 1.649,-8.433 0.034,-0.361 -0.039,-0.796 -0.102,-1.13 -0.024,-0.249 -0.036,-0.676 -0.309,-0.928 h -2.058 l -1.956,10.491 h -2.984 z m 29.42,0 h 6.893 l -0.409,2.876 h -1.749 l -3.704,20.373 h -3.293 l 3.602,-20.373 h -1.851 z m 34.261,0 h 3.912 l -1.235,23.246 h -3.912 l 0.514,-5.351 h -2.365 l -1.956,5.351 h -3.494 z m 27.371,0 h 2.98 l -4.425,23.246 h -2.882 z m 26.542,0 h 2.881 l 1.541,12.139 2.269,-12.139 h 3.29 l -4.321,23.246 h -2.983 l -1.031,-13.481 -2.677,13.481 h -3.392 z m 34.056,0 h 3.807 l 0.613,13.479 5.871,-13.373 h 3.698 l -3.909,23.146 h -2.881 l 1.851,-12.243 -5.147,12.243 h -2.058 l -0.616,-12.549 -2.26,12.549 h -3.295 z m 37.346,0 h 6.069 l -0.414,2.876 h -3.29 L 321,128.092 h 3.188 l -0.415,2.472 h -3.287 l -1.337,7.818 h 3.287 l -0.514,2.881 h -6.478 z m 29.832,0 h 2.881 l 1.545,12.139 2.262,-12.139 h 3.29 l -4.317,23.246 h -2.882 l -1.132,-13.481 -2.677,13.481 h -3.396 z m 30.559,0 h 6.892 l -0.513,2.876 h -1.749 l -3.599,20.373 h -3.296 l 3.605,-20.373 h -1.851 z m -246.611,2.774 c -0.162,0 -0.297,0.096 -0.414,0.207 l -1.337,6.994 c 0,0.058 0,0.049 0,0.106 0,0.222 0.156,0.408 0.411,0.408 h 1.235 c 0.306,0 1.076,-0.616 1.133,-0.925 l 1.129,-5.763 c 0.054,-0.33 -0.513,-1.03 -0.823,-1.03 z m 60.905,6.994 -2.161,5.865 h 1.647 z"
       style="fill:#ffffff"
       inkscape:connector-curvature="0" />
  </g>
  <path
     d="m 83.597,77.832 h -2.464 v -2.724 h -1.848 v 2.724 h -2.464 v -7.7 h 2.464 v 2.723 h 1.848 v -2.723 h 2.464 z m 3.352,-1.219 -0.286,1.219 h -2.6 l 1.997,-7.7 h 3.806 l 1.998,7.7 h -2.6 l -0.282,-1.219 z m 1.083,-4.114 h -0.137 l -0.506,2.156 h 1.135 z m 9.412,3.128 0.185,2.068 c -0.517,0.214 -1.165,0.321 -1.945,0.321 -0.78,0 -1.407,-0.082 -1.879,-0.246 -0.472,-0.164 -0.845,-0.422 -1.118,-0.774 -0.269,-0.355 -0.459,-0.77 -0.567,-1.246 -0.106,-0.478 -0.159,-1.066 -0.159,-1.764 0,-0.698 0.053,-1.286 0.159,-1.764 0.108,-0.481 0.298,-0.899 0.567,-1.254 0.526,-0.681 1.491,-1.021 2.896,-1.021 0.314,0 0.682,0.031 1.104,0.092 0.422,0.062 0.736,0.138 0.942,0.229 l -0.37,1.883 c -0.534,-0.114 -1.022,-0.171 -1.465,-0.171 -0.443,0 -0.751,0.041 -0.924,0.123 -0.173,0.082 -0.26,0.246 -0.26,0.493 v 3.229 c 0.32,0.065 0.644,0.097 0.973,0.097 0.698,0 1.318,-0.098 1.861,-0.295 z m 3.559,-1.148 h -0.048 v 3.353 h -2.464 v -7.7 h 2.464 v 3.141 h 0.048 c 0.018,-0.246 0.059,-0.443 0.124,-0.589 l 1.21,-2.552 h 2.657 l -1.848,3.784 1.91,3.916 h -2.658 l -1.271,-2.759 c -0.065,-0.15 -0.106,-0.348 -0.124,-0.594 z m 4.485,3.216 0.343,-2.033 c 0.757,0.191 1.438,0.286 2.042,0.286 0.604,0 1.091,-0.025 1.461,-0.074 v -0.616 l -1.109,-0.102 c -1.003,-0.088 -1.691,-0.327 -2.064,-0.717 -0.375,-0.39 -0.563,-0.968 -0.563,-1.733 0,-1.051 0.229,-1.774 0.687,-2.17 0.454,-0.393 1.227,-0.589 2.318,-0.589 1.095,0 2.08,0.102 2.957,0.308 l -0.308,1.971 c -0.762,-0.123 -1.374,-0.185 -1.835,-0.185 -0.46,0 -0.85,0.021 -1.17,0.062 v 0.603 l 0.889,0.088 c 1.077,0.105 1.82,0.362 2.231,0.77 0.41,0.404 0.616,0.969 0.616,1.694 0,0.516 -0.071,0.953 -0.212,1.311 -0.14,0.358 -0.306,0.629 -0.497,0.814 -0.193,0.185 -0.467,0.325 -0.823,0.422 -0.352,0.1 -0.661,0.16 -0.928,0.181 -0.267,0.02 -0.622,0.03 -1.065,0.03 -1.068,0 -2.058,-0.107 -2.97,-0.321 z m 11.447,-2.82 h -1.91 v -1.773 h 1.91 v -1.91 h 1.773 v 1.91 h 1.923 v 1.773 h -1.923 v 1.923 h -1.773 z m 13.833,2.957 h -2.464 v -2.724 h -1.848 v 2.724 h -2.464 v -7.7 h 2.464 v 2.723 h 1.848 v -2.723 h 2.464 z m 0.862,-3.846 c 0,-1.402 0.263,-2.426 0.788,-3.071 0.524,-0.646 1.474,-0.968 2.846,-0.968 1.373,0 2.322,0.322 2.847,0.968 0.525,0.645 0.788,1.669 0.788,3.071 0,0.698 -0.056,1.286 -0.167,1.764 -0.112,0.476 -0.303,0.891 -0.572,1.246 -0.27,0.352 -0.644,0.61 -1.122,0.774 -0.476,0.164 -1.067,0.246 -1.774,0.246 -0.707,0 -1.298,-0.082 -1.773,-0.246 -0.478,-0.164 -0.852,-0.422 -1.122,-0.774 -0.27,-0.355 -0.461,-0.77 -0.572,-1.246 -0.111,-0.478 -0.167,-1.066 -0.167,-1.764 z m 2.649,-1.28 v 3.203 h 1.021 c 0.337,0 0.582,-0.038 0.734,-0.115 0.153,-0.079 0.229,-0.258 0.229,-0.536 v -3.204 h -1.034 c -0.329,0 -0.569,0.039 -0.721,0.115 -0.153,0.079 -0.229,0.258 -0.229,0.537 z m 7.897,1.394 -0.149,3.732 h -2.574 l 0.466,-7.7 h 3.217 l 0.963,3.916 h 0.084 l 0.963,-3.916 h 3.212 l 0.471,7.7 h -2.574 L 146.106,74.1 h -0.088 l -0.933,3.732 h -1.888 L 142.251,74.1 Z m 12.504,-0.963 v 1.786 h -2.464 v 0.937 h 3.018 v 1.972 h -5.482 v -7.7 h 5.421 l -0.308,1.971 h -2.649 v 1.034 z m 6.023,4.695 h -4.422 v -7.7 h 3.991 c 0.739,0 1.267,0.143 1.584,0.431 0.317,0.287 0.475,0.707 0.475,1.258 0,0.549 -0.101,0.973 -0.304,1.272 -0.199,0.302 -0.467,0.497 -0.805,0.585 v 0.075 c 0.995,0.173 1.492,0.85 1.492,2.033 0,0.616 -0.164,1.111 -0.493,1.487 -0.328,0.372 -0.834,0.559 -1.518,0.559 z m -0.999,-3.067 h -0.959 v 1.254 h 0.95 c 0.344,0 0.515,-0.208 0.515,-0.625 0,-0.419 -0.168,-0.629 -0.506,-0.629 z m -0.185,-2.944 h -0.774 v 1.144 h 0.766 c 0.311,0 0.466,-0.19 0.466,-0.572 0,-0.381 -0.152,-0.572 -0.458,-0.572 z m 9.441,3.45 1.329,2.561 h -2.711 l -1.012,-2.293 h -0.528 v 2.293 h -2.464 v -7.7 h 3.881 c 1.766,0 2.649,0.899 2.649,2.697 0,1.232 -0.381,2.046 -1.144,2.442 z m -2.354,-3.168 h -0.568 v 1.54 h 0.568 c 0.296,0 0.512,-0.031 0.647,-0.093 0.134,-0.061 0.202,-0.203 0.202,-0.426 v -0.502 c 0,-0.223 -0.068,-0.365 -0.202,-0.427 -0.135,-0.061 -0.351,-0.092 -0.647,-0.092 z m 9.473,1.034 v 1.786 h -2.464 v 0.937 h 3.018 v 1.972 h -5.482 v -7.7 h 5.421 l -0.308,1.971 h -2.649 v 1.034 z m 7.933,1.293 0.594,-4.298 h 2.574 l -1.21,7.7 h -3.212 l -0.568,-2.834 h -0.15 l -0.554,2.834 h -3.216 l -1.206,-7.7 h 2.574 l 0.581,4.298 h 0.075 l 0.884,-4.298 h 1.888 l 0.871,4.298 z"
     style="white-space:pre;fill:#ffffff"
     id="path5"
     inkscape:connector-curvature="0" />
</svg>
