<?xml version="1.0" encoding="UTF-8" standalone="no"?>
<svg
   xmlns:dc="http://purl.org/dc/elements/1.1/"
   xmlns:cc="http://creativecommons.org/ns#"
   xmlns:rdf="http://www.w3.org/1999/02/22-rdf-syntax-ns#"
   xmlns:svg="http://www.w3.org/2000/svg"
   xmlns="http://www.w3.org/2000/svg"
   xmlns:sodipodi="http://sodipodi.sourceforge.net/DTD/sodipodi-0.dtd"
   xmlns:inkscape="http://www.inkscape.org/namespaces/inkscape"
   version="1.1"
   id="svg68"
   sodipodi:docname="sufami.svg"
   width="264"
   height="73.000168"
   inkscape:version="0.92.5 (2060ec1f9f, 2020-04-08)">
  <metadata
     id="metadata74">
    <rdf:RDF>
      <cc:Work
         rdf:about="">
        <dc:format>image/svg+xml</dc:format>
        <dc:type
           rdf:resource="http://purl.org/dc/dcmitype/StillImage" />
      </cc:Work>
    </rdf:RDF>
  </metadata>
  <defs
     id="defs72" />
  <sodipodi:namedview
     pagecolor="#ffffff"
     bordercolor="#666666"
     borderopacity="1"
     objecttolerance="10"
     gridtolerance="10"
     guidetolerance="10"
     inkscape:pageopacity="0"
     inkscape:pageshadow="2"
     inkscape:window-width="640"
     inkscape:window-height="480"
     id="namedview70"
     showgrid="false"
     inkscape:zoom="2.36"
     inkscape:cx="50"
     inkscape:cy="23.000165"
     inkscape:window-x="72"
     inkscape:window-y="27"
     inkscape:window-maximized="0"
     inkscape:current-layer="svg68" />
  <path
     d="m 224.679,0.388 c 0,0.31 -0.336,0.387 -1.419,0.387 -1.239,0 -1.42,0.053 -1.42,0.517 0,0.465 0.181,0.517 1.936,0.517 1.367,0 1.935,-0.103 1.935,-0.335 0,-0.156 0.077,-0.569 0.155,-0.905 C 225.995,0.077 225.917,0 225.349,0 c -0.412,0 -0.67,0.129 -0.67,0.388 z"
     style="fill:#ffffff"
     id="path2"
     inkscape:connector-curvature="0" />
  <path
     d="m 229.839,0.388 c 0,0.31 -0.335,0.387 -1.419,0.387 -1.213,0 -1.419,0.078 -1.419,0.491 0,0.362 0.258,0.517 1.187,0.646 0.67,0.079 1.548,0.156 1.935,0.156 0.696,0 0.748,-0.077 0.748,-1.034 0,-0.853 -0.077,-1.034 -0.516,-1.034 -0.284,0 -0.516,0.181 -0.516,0.388 z"
     style="fill:#ffffff"
     id="path4"
     inkscape:connector-curvature="0" />
  <path
     d="m 219.26,1.292 c 0,0.388 0.181,0.517 0.645,0.517 0.465,0 0.645,-0.129 0.645,-0.517 0,-0.387 -0.18,-0.517 -0.645,-0.517 -0.464,0 -0.645,0.13 -0.645,0.517 z"
     style="fill:#ffffff"
     id="path6"
     inkscape:connector-curvature="0" />
  <path
     d="m 183.061,1.215 c -0.103,0.077 -0.181,1.861 -0.181,3.928 0,4.266 -0.309,5.274 -2.012,6.773 -1.909,1.681 -2.348,1.784 -9.392,1.784 h -6.399 v 0.646 0.646 h 7.044 c 7.895,0 8.231,-0.078 10.114,-1.938 1.729,-1.758 1.935,-2.508 1.935,-7.574 0,-4.136 -0.025,-4.446 -0.464,-4.446 -0.258,0 -0.568,0.077 -0.645,0.181 z"
     style="fill:#ffffff"
     id="path8"
     inkscape:connector-curvature="0" />
  <path
     d="m 70.541,3.671 c -0.103,1.034 -0.413,2.403 -0.697,3.024 l -0.516,1.163 0.645,0.646 0.645,0.647 0.439,-1.009 c 0.464,-1.137 0.852,-3.541 0.877,-5.247 0,-0.983 -0.051,-1.086 -0.619,-1.086 -0.568,0 -0.619,0.13 -0.774,1.862 z"
     style="fill:#ffffff"
     id="path10"
     inkscape:connector-curvature="0" />
  <path
     d="m 111.333,5.222 c -0.155,4.032 -0.464,5.118 -1.858,6.564 -1.599,1.682 -2.76,1.914 -9.211,1.914 h -5.366 v 0.646 0.672 l 6.527,-0.078 c 6.399,-0.077 6.554,-0.077 7.792,-0.723 2.606,-1.345 3.484,-3.723 3.484,-9.383 0,-3.025 0,-3.025 -0.62,-3.025 -0.619,0 -0.619,0.026 -0.748,3.413 z"
     style="fill:#ffffff"
     id="path12"
     inkscape:connector-curvature="0" />
  <path
     d="m 135.406,2.404 c 0,0.568 0.155,0.621 8.979,1.835 4.928,0.672 9.391,1.293 9.933,1.37 l 0.955,0.155 V 4.317 c 0,-1.06 -0.103,-1.448 -0.413,-1.577 -0.774,-0.311 -0.929,-0.155 -0.826,0.749 0.052,0.491 0.078,0.905 0.078,0.905 -0.026,0 -4.206,-0.568 -9.315,-1.292 -5.082,-0.698 -9.288,-1.293 -9.314,-1.293 -0.051,0 -0.077,0.259 -0.077,0.595 z"
     style="fill:#ffffff"
     id="path14"
     inkscape:connector-curvature="0" />
  <path
     d="m 167.116,3.619 c -0.439,1.473 -1.858,3.024 -3.096,3.386 -0.8,0.258 -1.007,0.44 -1.007,0.93 0,0.543 0.129,0.595 1.11,0.595 1.883,0 3.689,-1.706 4.412,-4.213 0.129,-0.388 0.619,-0.44 5.779,-0.44 h 5.651 l -0.052,-0.594 -0.051,-0.569 -6.219,-0.077 -6.218,-0.052 z"
     style="fill:#ffffff"
     id="path16"
     inkscape:connector-curvature="0" />
  <path
     d="m 54.389,3.748 v 0.646 h 6.193 6.192 V 3.748 3.102 h -6.192 -6.193 z"
     style="fill:#ffffff"
     id="path18"
     inkscape:connector-curvature="0" />
  <path
     d="m 228.549,3.748 v 0.646 h -4.644 -4.645 v 4.782 c 0,2.636 -0.077,4.756 -0.18,4.756 -0.129,-0.026 -0.929,-0.026 -1.806,0 -1.548,0.026 -1.626,0.052 -1.626,0.673 v 0.672 l 2.4,-0.078 2.373,-0.077 0.078,-4.731 0.051,-4.705 h 4.645 4.644 V 4.394 c 0,-1.214 -0.052,-1.292 -0.645,-1.292 -0.516,0 -0.645,0.129 -0.645,0.646 z"
     style="fill:#ffffff"
     id="path20"
     inkscape:connector-curvature="0" />
  <path
     d="m 93.349,4.523 v 0.646 h 7.87 7.869 V 4.523 3.877 h -7.869 -7.87 z"
     style="fill:#ffffff"
     id="path22"
     inkscape:connector-curvature="0" />
  <path
     d="m 207.134,5.04 v 0.646 h 3.741 3.741 V 5.04 4.394 h -3.741 -3.741 z"
     style="fill:#ffffff"
     id="path24"
     inkscape:connector-curvature="0" />
  <path
     d="m 131.536,6.824 c 0,3.257 -0.129,3.361 -4.309,3.516 l -3.303,0.129 -0.129,1.24 c -0.258,2.094 -0.748,2.353 -4.412,2.482 -2.993,0.077 -3.096,0.103 -3.019,0.646 0.078,0.517 0.233,0.543 2.916,0.62 1.574,0.052 3.225,0 3.715,-0.077 1.29,-0.232 2.09,-1.189 2.09,-2.455 v -1.034 h 2.709 c 2.942,0 4.283,-0.363 4.748,-1.242 0.155,-0.309 0.284,-1.757 0.284,-3.257 v -2.74 h -0.645 c -0.645,0 -0.645,0.027 -0.645,2.172 z"
     style="fill:#ffffff"
     id="path26"
     inkscape:connector-curvature="0" />
  <path
     d="m 115.59,6.514 0.078,0.594 6.398,0.078 6.373,0.051 V 6.591 5.945 h -6.476 -6.45 z"
     style="fill:#ffffff"
     id="path28"
     inkscape:connector-curvature="0" />
  <path
     d="M 87.673,7.237 V 8.271 L 80.913,8.323 74.127,8.4 v 0.646 0.648 l 7.431,0.077 7.405,0.052 v -1.81 c 0,-1.758 -0.026,-1.81 -0.645,-1.81 -0.567,0 -0.645,0.104 -0.645,1.034 z"
     style="fill:#ffffff"
     id="path30"
     inkscape:connector-curvature="0" />
  <path
     d="m 201.457,7.237 v 1.034 h -6.708 -6.708 v 0.775 0.777 h 7.353 7.353 v -1.81 c 0,-1.758 -0.025,-1.81 -0.645,-1.81 -0.567,0 -0.645,0.104 -0.645,1.034 z"
     style="fill:#ffffff"
     id="path32"
     inkscape:connector-curvature="0" />
  <path
     d="m 135.457,7.289 c 0.078,0.594 1.058,0.75 18.603,3.128 l 1.213,0.181 V 9.046 c 0,-1.472 -0.026,-1.55 -0.619,-1.55 -0.542,0 -0.645,0.155 -0.723,0.853 l -0.077,0.853 -8.773,-1.241 c -4.825,-0.672 -8.979,-1.215 -9.237,-1.241 -0.335,0 -0.464,0.156 -0.387,0.569 z"
     style="fill:#ffffff"
     id="path34"
     inkscape:connector-curvature="0" />
  <path
     d="m 211.468,9.073 c -0.671,2.766 -2.141,4.368 -4.025,4.368 -0.619,0 -0.8,0.13 -0.877,0.647 -0.129,0.62 -0.103,0.646 1.471,0.646 2.554,0 3.87,-1.189 4.67,-4.188 0.18,-0.749 0.361,-1.809 0.361,-2.352 0,-0.828 -0.077,-0.957 -0.568,-0.957 -0.516,0 -0.645,0.234 -1.032,1.836 z"
     style="fill:#ffffff"
     id="path36"
     inkscape:connector-curvature="0" />
  <path
     d="m 225.84,7.496 c -0.207,0.336 0.774,2.43 1.341,2.895 0.387,0.284 0.413,0.284 0.233,-0.18 -0.129,-0.285 -0.362,-1.035 -0.516,-1.681 -0.284,-1.138 -0.723,-1.551 -1.058,-1.034 z"
     style="fill:#ffffff"
     id="path38"
     inkscape:connector-curvature="0" />
  <path
     d="m 168.664,8.943 c -0.129,0.363 -0.232,0.699 -0.232,0.776 0,0.052 2.193,0.104 4.876,0.104 4.206,0 4.902,-0.052 5.031,-0.414 0.439,-1.163 0.413,-1.163 -4.644,-1.138 l -4.773,0.052 z"
     style="fill:#ffffff"
     id="path40"
     inkscape:connector-curvature="0" />
  <path
     d="m 66.903,11.374 c -0.103,0.154 -0.774,0.62 -1.496,1.034 l -1.342,0.775 h -5.212 -5.238 v 0.646 0.646 h 5.883 c 5.754,0 5.883,-0.026 6.889,-0.646 2.245,-1.37 2.013,-1.396 3.741,0.233 l 1.574,1.447 h 2.348 2.348 l -0.593,-0.646 c -0.568,-0.595 -0.775,-0.646 -2.89,-0.646 h -2.297 l -1.47,-1.371 c -0.8,-0.723 -1.497,-1.421 -1.548,-1.55 -0.129,-0.259 -0.516,-0.233 -0.697,0.078 z"
     style="fill:#ffffff"
     id="path42"
     inkscape:connector-curvature="0" />
  <path
     d="m 135.406,11.891 c 0,0.646 -0.465,0.542 9.675,1.938 4.696,0.62 8.902,1.214 9.366,1.293 l 0.826,0.155 V 13.7 c 0,-1.474 -0.026,-1.551 -0.619,-1.551 -0.542,0 -0.645,0.154 -0.723,0.853 l -0.077,0.853 -8.773,-1.241 c -4.825,-0.672 -8.979,-1.215 -9.211,-1.24 -0.284,0 -0.464,0.18 -0.464,0.517 z"
     style="fill:#ffffff"
     id="path44"
     inkscape:connector-curvature="0" />
  <path
     d="m 228.549,12.64 c 0,0.775 -0.026,0.801 -1.264,0.801 -0.697,0 -1.6,-0.129 -2.013,-0.284 l -0.722,-0.259 0.825,0.853 c 0.774,0.75 1.007,0.854 2.658,0.931 l 1.806,0.103 v -1.317 c 0,-0.725 -0.103,-1.319 -0.232,-1.319 -0.129,0 -0.413,-0.078 -0.645,-0.155 -0.336,-0.129 -0.413,0.026 -0.413,0.646 z"
     style="fill:#ffffff"
     id="path46"
     inkscape:connector-curvature="0" />
  <path
     d="M 19.119,21.583 C 12.978,23.496 8.463,32.646 8.772,42.52 c 0.129,4.628 0.775,5.739 4.851,8.737 2.761,2.017 3.148,6.334 0.774,8.711 -1.264,1.267 -2.451,1.551 -6.373,1.551 H 4.696 L 2.348,66.74 0,71.988 4.438,72.065 c 2.58,0.052 5.057,-0.051 5.96,-0.206 3.999,-0.776 7.689,-4.033 10.192,-9.048 3.096,-6.151 3.973,-14.837 1.935,-18.843 -0.594,-1.163 -2.142,-2.817 -4.051,-4.265 -1.239,-0.93 -1.987,-2.12 -2.168,-3.541 -0.18,-1.396 0.284,-3.257 1.007,-4.059 1.187,-1.292 1.857,-1.447 6.502,-1.601 l 4.36,-0.13 0.929,-3.878 c 0.516,-2.145 1.006,-4.186 1.109,-4.6 l 0.181,-0.698 -5.083,0.026 c -3.457,0 -5.47,0.129 -6.192,0.361 z"
     style="fill:#ffffff"
     id="path48"
     inkscape:connector-curvature="0" />
  <path
     d="m 32.845,21.506 c -0.077,0.259 -3.148,15.38 -6.631,32.776 -0.284,1.498 -0.542,4.161 -0.645,6.849 -0.155,4.886 0.103,6.54 1.368,8.479 1.78,2.714 7.018,3.852 10.578,2.249 4.025,-1.758 7.663,-6.669 9.521,-12.743 0.439,-1.5 6.554,-32.259 7.431,-37.351 0.051,-0.259 -0.645,-0.337 -3.045,-0.337 l -3.096,-0.025 -0.568,2.817 c -0.335,1.525 -1.806,8.788 -3.276,16.129 -1.497,7.316 -3.019,14.268 -3.38,15.431 -1.058,3.336 -2.839,5.274 -5.212,5.636 -1.419,0.207 -2.219,-0.129 -2.942,-1.241 -0.464,-0.775 -0.516,-1.163 -0.412,-3.955 0.103,-2.636 0.593,-5.48 3.251,-18.843 1.728,-8.66 3.122,-15.845 3.122,-15.974 0,-0.363 -5.935,-0.259 -6.064,0.103 z"
     style="fill:#ffffff"
     id="path50"
     inkscape:connector-curvature="0" />
  <path
     d="M 57.847,21.583 C 57.744,21.971 47.423,72.04 47.423,72.22 c 0,0.104 1.419,0.13 3.174,0.104 l 3.147,-0.078 2.064,-10.21 2.065,-10.21 3.689,-0.078 c 2.013,-0.025 3.664,-0.154 3.664,-0.258 0,-0.103 0.464,-2.378 1.032,-5.067 0.568,-2.687 1.032,-4.937 1.032,-4.988 0,-0.052 -1.677,-0.078 -3.741,-0.078 -2.064,0 -3.741,-0.026 -3.741,-0.077 0,-0.052 0.412,-2.12 0.903,-4.575 0.49,-2.456 0.903,-4.523 0.903,-4.576 0,-0.051 1.78,-0.077 3.973,-0.077 h 3.948 l 0.954,-4.86 c 0.516,-2.661 1.007,-5.04 1.084,-5.272 0.129,-0.414 -0.387,-0.466 -6.76,-0.517 -4.412,-0.052 -6.915,0.025 -6.966,0.18 z"
     style="fill:#ffffff"
     id="path52"
     inkscape:connector-curvature="0" />
  <path
     d="m 79.933,21.842 c -0.103,0.284 -4.644,11.632 -10.063,25.203 -5.418,13.569 -9.933,24.84 -9.985,25.02 -0.103,0.259 0.619,0.311 3.432,0.259 l 3.56,-0.078 1.574,-4.135 1.574,-4.137 h 4.644 4.619 l 0.077,3.93 0.078,3.929 7.069,0.078 c 6.141,0.077 7.121,0.025 7.225,-0.311 0.051,-0.207 1.264,-6.384 2.709,-13.7 2.348,-12.02 2.838,-14.32 2.838,-13.157 -0.026,0.802 1.574,24.996 1.703,26.03 l 0.129,1.112 1.857,-0.078 1.832,-0.077 6.089,-12.976 c 5.599,-11.917 6.786,-14.32 6.373,-12.874 -0.18,0.648 -5.599,25.642 -5.599,25.85 0,0.077 1.523,0.103 3.406,0.077 l 3.406,-0.077 4.593,-23.135 c 2.528,-12.718 4.747,-23.987 4.954,-25.021 l 0.361,-1.861 h -3.277 -3.251 l -7.328,13.441 c -4.025,7.392 -7.379,13.389 -7.43,13.337 -0.078,-0.077 -0.852,-6.151 -1.729,-13.518 l -1.6,-13.39 h -3.199 -3.225 L 92.163,46.476 C 89.299,60.149 86.899,71.445 86.796,71.522 86.719,71.626 86.641,60.356 86.641,46.502 V 21.325 H 83.39 c -3.019,0 -3.277,0.026 -3.457,0.517 z m -0.516,24.556 v 6.85 h -2.58 c -1.419,0 -2.581,-0.078 -2.581,-0.207 0,-0.207 5.006,-13.493 5.109,-13.493 0.026,0 0.052,3.077 0.052,6.85 z"
     style="fill:#ffffff"
     id="path54"
     inkscape:connector-curvature="0" />
  <path
     d="m 132.026,21.765 c 0,0.051 -2.245,11.295 -4.98,25.021 l -4.954,24.944 3.2,0.077 c 1.78,0.026 3.251,0.026 3.302,-0.025 0.103,-0.079 10.166,-49.527 10.166,-49.888 0,-0.155 -6.683,-0.285 -6.734,-0.129 z"
     style="fill:#ffffff"
     id="path56"
     inkscape:connector-curvature="0" />
  <path
     d="m 154.37,22.282 c -0.336,1.524 -2.193,10.649 -2.193,10.83 0,0.129 1.161,0.233 2.606,0.233 2.348,0 2.58,0.051 2.451,0.438 -0.232,0.828 -7.379,37.274 -7.379,37.688 0,0.336 0.49,0.388 3.225,0.388 3.122,0 3.225,-0.026 3.354,-0.595 0.232,-0.956 7.611,-37.635 7.611,-37.79 0,-0.078 1.161,-0.129 2.58,-0.129 1.42,0 2.581,-0.078 2.581,-0.156 0,-0.103 0.593,-2.662 1.29,-5.712 0.722,-3.051 1.29,-5.583 1.29,-5.661 0,-0.051 -3.896,-0.103 -8.644,-0.103 h -8.643 z"
     style="fill:#ffffff"
     id="path58"
     inkscape:connector-curvature="0" />
  <path
     d="m 173.721,22.282 c -0.155,0.646 -5.857,28.872 -6.605,32.775 -0.645,3.309 -0.929,9.539 -0.516,11.683 0.877,4.394 3.173,6.205 8.024,6.256 2.245,0.026 2.606,-0.051 4.128,-0.776 3.948,-1.886 7.199,-6.358 9.16,-12.561 0.49,-1.577 6.94,-33.94 7.405,-37.119 0.077,-0.595 0.077,-0.595 -3.019,-0.595 h -3.07 l -3.174,15.717 c -3.406,16.775 -3.87,18.817 -4.825,20.729 -1.496,2.922 -4.902,4.524 -6.682,3.128 -1.936,-1.525 -1.729,-3.851 2.115,-23.367 1.729,-8.633 3.122,-15.897 3.122,-16.078 0,-0.283 -0.619,-0.361 -2.967,-0.361 -2.864,0 -2.967,0.026 -3.096,0.569 z"
     style="fill:#ffffff"
     id="path60"
     inkscape:connector-curvature="0" />
  <path
     d="m 197.845,21.945 c 0,0.284 -9.779,48.88 -9.959,49.448 -0.129,0.44 0.155,0.466 3.457,0.466 2.658,0 3.638,-0.077 3.716,-0.311 0.077,-0.18 0.748,-3.67 1.496,-7.754 0.774,-4.11 1.471,-7.367 1.574,-7.238 0.077,0.104 0.542,3.593 1.032,7.729 l 0.851,7.574 h 4.206 c 2.322,0 4.206,-0.077 4.206,-0.156 0,-0.103 -0.8,-4.316 -1.806,-9.383 -0.981,-5.092 -1.806,-9.357 -1.806,-9.538 0,-0.154 0.516,-0.594 1.161,-0.982 2.631,-1.525 5.392,-5.506 6.811,-9.797 1.858,-5.66 2.064,-12.82 0.49,-16.491 -0.67,-1.576 -2.425,-3.127 -3.947,-3.515 -1.342,-0.336 -11.482,-0.388 -11.482,-0.052 z m 6.863,10.883 c 2.529,1.577 2.658,6.746 0.233,9.951 -1.316,1.706 -4.774,3.206 -4.774,2.068 0,-0.491 1.806,-12.045 1.961,-12.51 0.155,-0.466 1.419,-0.208 2.58,0.491 z"
     style="fill:#ffffff"
     id="path62"
     inkscape:connector-curvature="0" />
  <path
     d="m 251.177,22.308 c -7.07,2.481 -13.546,11.915 -15.92,23.185 -2.09,10.055 -0.696,19.775 3.535,24.169 1.677,1.783 3.586,2.584 6.038,2.584 1.728,0 2.193,-0.129 3.87,-0.956 6.734,-3.36 12.049,-12.148 14.603,-24.168 0.645,-2.999 0.697,-3.8 0.697,-8.737 0,-5.997 -0.31,-7.754 -1.884,-11.089 -2.244,-4.679 -6.398,-6.565 -10.939,-4.988 z m 2.399,13.234 c 1.987,1.034 2.916,3.489 2.916,7.754 0.026,13.389 -10.837,23.083 -13.907,12.407 -0.981,-3.412 -0.361,-9.253 1.419,-13.157 2.425,-5.376 6.708,-8.504 9.572,-7.004 z"
     style="fill:#ffffff"
     id="path64"
     inkscape:connector-curvature="0" />
  <path
     d="m 219.905,23.057 c -0.103,0.62 -1.883,11.812 -3.973,24.892 l -3.793,23.781 5.805,0.077 c 6.993,0.078 7.792,-0.077 9.908,-2.016 3.225,-2.972 5.341,-9.538 5.341,-16.672 0,-3.334 -0.284,-4.317 -1.729,-5.842 l -1.161,-1.241 1.058,-1.24 c 2.684,-3.051 4.154,-7.807 4.154,-13.571 0,-4.989 -1.058,-7.677 -3.457,-8.763 -0.929,-0.413 -1.755,-0.491 -6.528,-0.491 h -5.47 z m 6.812,9.797 c 0.464,0.18 0.98,0.62 1.213,1.059 0.49,0.956 0.567,3.852 0.129,5.144 -0.336,1.06 -1.652,2.403 -2.684,2.791 -1.058,0.414 -2.064,0.363 -1.909,-0.051 0.077,-0.207 0.49,-2.223 0.955,-4.472 0.438,-2.248 0.851,-4.265 0.903,-4.446 0.129,-0.388 0.335,-0.388 1.393,-0.025 z m -3.07,19.928 c 1.496,0.776 2.064,1.629 2.244,3.361 0.387,3.903 -1.78,6.72 -5.521,7.108 -1.316,0.155 -1.419,0.129 -1.29,-0.336 0.077,-0.258 0.567,-2.636 1.083,-5.273 0.516,-2.637 0.981,-4.937 1.032,-5.118 0.181,-0.491 1.187,-0.362 2.452,0.258 z"
     style="fill:#ffffff"
     id="path66"
     inkscape:connector-curvature="0" />
</svg>
