<?xml version="1.0" encoding="UTF-8" standalone="no"?>
<svg
   xmlns:dc="http://purl.org/dc/elements/1.1/"
   xmlns:cc="http://creativecommons.org/ns#"
   xmlns:rdf="http://www.w3.org/1999/02/22-rdf-syntax-ns#"
   xmlns:svg="http://www.w3.org/2000/svg"
   xmlns="http://www.w3.org/2000/svg"
   xmlns:sodipodi="http://sodipodi.sourceforge.net/DTD/sodipodi-0.dtd"
   xmlns:inkscape="http://www.inkscape.org/namespaces/inkscape"
   version="1.2"
   id="Layer_1"
   x="0px"
   y="0px"
   overflow="visible"
   sodipodi:docname="supervision.svg"
   width="264"
   height="35.00034"
   style="overflow:visible"
   inkscape:version="0.92.5 (2060ec1f9f, 2020-04-08)">
  <metadata
     id="metadata31">
    <rdf:RDF>
      <cc:Work
         rdf:about="">
        <dc:format>image/svg+xml</dc:format>
        <dc:type
           rdf:resource="http://purl.org/dc/dcmitype/StillImage" />
      </cc:Work>
    </rdf:RDF>
  </metadata>
  <defs
     id="defs29" />
  <sodipodi:namedview
     pagecolor="#ffffff"
     bordercolor="#666666"
     borderopacity="1"
     objecttolerance="10"
     gridtolerance="10"
     guidetolerance="10"
     inkscape:pageopacity="0"
     inkscape:pageshadow="2"
     inkscape:window-width="640"
     inkscape:window-height="480"
     id="namedview27"
     showgrid="false"
     inkscape:zoom="2.36"
     inkscape:cx="50"
     inkscape:cy="-14.970506"
     inkscape:window-x="72"
     inkscape:window-y="27"
     inkscape:window-maximized="0"
     inkscape:current-layer="Layer_1" />
  <path
     d="m 263.94,34.517847 c -1.865,0 -3.729,0 -5.714,0 -5.294,-7.195 -10.647,-14.45 -16.121,-21.884 0,7.434 0,14.629 0,21.884 -2.165,0 -4.21,0 -6.376,0 0,-11.332 0,-22.604 0,-33.99600005 1.805,0 3.549,0 5.474,0 5.354,7.31500005 10.767,14.69000005 16.241,22.00500005 0.06,0 0.12,-0.06 0.18,-0.06 0,-7.315 0,-14.63 0,-22.00500005 2.166,0 4.211,0 6.376,0 C 263.94,11.853847 263.94,23.125847 263.94,34.517847 Z"
     style="fill:#ffffff"
     id="path2"
     inkscape:connector-curvature="0" />
  <path
     d="m 101.053,0.52184695 c 0.18,0 0.3,-0.06 0.421,-0.06 3.97,0 7.94,-0.06 11.91,0.06 4.812,0.18 8.842,4.07700005 9.443,8.87400005 0.541,4.857 -2.586,9.533 -7.218,10.852 -0.18,0.06 -0.361,0.12 -0.601,0.18 3.248,4.677 6.496,9.293 9.804,14.03 -2.647,0 -5.173,0 -7.759,0 -3.128,-4.437 -6.256,-8.934 -9.564,-13.61 0,4.676 0,9.113 0,13.61 -2.166,0 -4.271,0 -6.376,0 -0.06,-11.332 -0.06,-22.604 -0.06,-33.93600005 z m 6.436,6.23600005 c 0,2.578 0,5.096 0,7.674 1.684,0 3.308,0.12 4.872,0 1.985,-0.179 3.429,-1.858 3.368,-3.777 0,-2.038 -1.383,-3.657 -3.368,-3.837 -1.564,-0.18 -3.188,-0.06 -4.872,-0.06 z"
     style="fill:#ffffff"
     id="path4"
     inkscape:connector-curvature="0" />
  <path
     d="m 23.399,0.46184695 c 2.165,0 4.21,0 6.375,0 0,0.36 0,0.66000005 0,0.96000005 0,6.595 0.061,13.25 0,19.846 -0.06,3.717 2.767,6.655 6.076,7.134 3.97,0.54 7.759,-2.698 7.819,-6.715 0,-6.775 0,-13.49 0,-20.265 0,-0.3 0,-0.60000005 0,-0.96000005 2.166,0 4.271,0 6.436,0 0,0.3 0,0.54000005 0,0.72000005 0,6.775 -0.06,13.55 0,20.325 0.121,6.835 -5.353,12.052 -10.526,13.131 -9.023,1.859 -16.241,-5.276 -16.241,-12.471 0,-7.075 0,-14.21 0,-21.28500005 0.061,-0.06 0.061,-0.18 0.061,-0.42 z"
     style="fill:#ffffff"
     id="path6"
     inkscape:connector-curvature="0" />
  <path
     d="m 86.015,14.311847 c 3.97,0 7.88,0 11.79,0 0,2.099 0,4.197 0,6.356 -3.91,0 -7.82,0 -11.79,0 0,2.518 0,4.976 0,7.555 3.91,0 7.82,0 11.79,0 0,2.158 0,4.197 0,6.295 -6.015,0 -12.091,0 -18.166,0 0,-11.272 0,-22.604 0,-33.93600005 6.015,0 12.09,0 18.166,0 0,2.09900005 0,4.13700005 0,6.29600005 -3.91,0 -7.82,0 -11.79,0 0,2.458 0,4.856 0,7.434 z"
     style="fill:#ffffff"
     id="path8"
     inkscape:connector-curvature="0" />
  <path
     d="m 138.406,22.406847 c 2.587,-7.315 5.173,-14.63 7.759,-21.94500005 2.406,0 4.692,0 7.158,0 -3.97,11.39200005 -7.879,22.72400005 -11.789,34.05600005 -2.166,0 -4.211,0 -6.436,0 -3.91,-11.272 -7.88,-22.604 -11.85,-33.99600005 2.406,0 4.812,0 7.218,0 2.587,7.25500005 5.173,14.57000005 7.82,21.88500005 -0.06,0 0,0 0.12,0 z"
     style="fill:#ffffff"
     id="path10"
     inkscape:connector-curvature="0" />
  <path
     d="m 60.211,20.727847 c 0,4.617 0,9.173 0,13.79 -2.166,0 -4.211,0 -6.376,0 0,-11.332 0,-22.664 0,-33.93600005 0.06,-0.06 0.18,-0.12 0.24,-0.12 4.09,0 8.181,-0.12 12.211,0.06 5.293,0.24 9.323,4.73700005 9.323,10.01300005 0,5.097 -3.669,9.413 -8.722,10.073 -1.624,0.24 -3.308,0.06 -4.932,0.06 -0.541,0.06 -1.083,0.06 -1.744,0.06 z m 0.18,-13.97 c 0,2.578 0,5.096 0,7.674 1.684,0 3.308,0.12 4.872,0 1.985,-0.179 3.429,-1.858 3.369,-3.777 0,-2.038 -1.384,-3.657 -3.369,-3.837 -1.564,-0.18 -3.188,-0.06 -4.872,-0.06 z"
     style="fill:#ffffff"
     id="path12"
     inkscape:connector-curvature="0" />
  <path
     d="m 184.12,3.759847 c -1.503,1.739 -2.526,3.118 -3.97,4.617 -0.18,-0.3 -0.842,-0.78 -1.022,-1.02 -1.203,-1.499 -2.827,-1.918 -4.632,-1.618 -1.804,0.299 -2.947,1.379 -3.428,3.117 -0.361,1.259 -0.121,2.459 0.962,3.298 0.842,0.66 1.805,1.199 2.767,1.679 1.323,0.659 2.707,1.199 4.03,1.918 3.91,2.099 5.354,5.816 4.872,9.833 -0.601,5.217 -5.112,9.114 -10.406,9.234 -3.308,0.06 -6.135,-0.9 -8.421,-3.298 -0.06,-0.06 -0.12,-0.18 -0.18,-0.24 0,-0.06 -0.782,-0.539 -0.842,-0.659 1.323,-1.439 2.406,-3.238 3.729,-4.677 0.481,0.54 1.925,1.919 2.466,2.338 1.985,1.439 4.872,1.08 6.376,-0.779 1.504,-1.919 1.263,-4.617 -0.782,-6.235 -1.022,-0.84 -2.346,-1.38 -3.489,-2.039 -1.563,-0.899 -3.308,-1.619 -4.691,-2.758 -3.369,-2.818 -3.79,-7.914 -1.263,-11.692 4.09,-5.876 13.173,-6.415 17.924,-1.019 z"
     style="fill:#ffffff"
     id="path14"
     inkscape:connector-curvature="0" />
  <path
     d="m 20.03,3.699847 c -1.383,1.499 -2.225,2.878 -3.729,4.797 -0.241,-0.36 -0.842,-1.02 -1.023,-1.259 -1.143,-1.32 -3.248,-1.919 -5.052,-1.32 -1.745,0.54 -2.767,1.739 -3.008,3.538 -0.12,1.019 0.12,2.038 0.962,2.698 0.903,0.66 1.925,1.259 2.888,1.799 1.323,0.659 2.706,1.199 4.03,1.918 3.669,1.979 5.052,5.217 4.932,9.234 -0.12,5.216 -4.992,9.773 -10.466,9.893 -3.308,0.06 -6.135,-0.96 -8.481,-3.358 -0.06,-0.12 -1.023,-0.779 -1.083,-0.899 1.564,-1.859 2.226,-2.818 3.729,-4.677 0.482,0.54 2.045,1.979 2.527,2.338 1.924,1.439 4.752,1.14 6.315,-0.659 1.564,-1.739 1.444,-4.317 -0.36,-6.056 -0.843,-0.779 -1.865,-1.379 -2.828,-1.918 -1.203,-0.66 -2.526,-1.14 -3.729,-1.799 -5.774,-2.998 -5.834,-9.773 -2.947,-13.55 4.21,-5.517 12.692,-5.996 17.323,-0.72 z"
     style="fill:#ffffff"
     id="path16"
     inkscape:connector-curvature="0" />
  <path
     d="m 161.384,34.517847 c -2.106,0 -4.211,0 -6.316,0 0,-11.332 0,-22.604 0,-33.99600005 2.105,0 4.21,0 6.316,0 0,11.33200005 0,22.60400005 0,33.99600005 z"
     style="fill:#ffffff"
     id="path18"
     inkscape:connector-curvature="0" />
  <path
     d="m 187.85,0.52184695 c 2.105,0 4.21,0 6.316,0 0,11.33200005 0,22.66400005 0,33.99600005 -2.106,0 -4.211,0 -6.316,0 0,-11.392 0,-22.664 0,-33.99600005 z"
     style="fill:#ffffff"
     id="path20"
     inkscape:connector-curvature="0" />
  <polygon
     points="227.669,34.547 214.376,12.663 201.083,34.547 "
     style="fill:#ffffff"
     id="polygon22"
     transform="translate(0,-0.02915305)" />
  <path
     d="m 196.812,18.568847 c 0,0.06 0,0.12 0,0.18 0.06,0.78 0.181,1.619 0.361,2.399 0,0.12 0.06,0.179 0.06,0.299 0.06,0.36 0.181,0.66 0.301,1.02 0.06,0.12 0.12,0.299 0.18,0.419 0.061,0.18 0.121,0.36 0.241,0.6 0.06,0.18 0.18,0.36 0.241,0.54 0.06,0.119 0.06,0.179 0.12,0.299 0.18,0.42 0.361,0.78 0.601,1.14 0.061,0.059 0.061,0.179 0.121,0.239 0.3,0.54 0.601,1.08 0.962,1.559 v 0 c 0.301,0.42 0.602,0.78 0.902,1.139 l 3.549,-5.815 c -0.902,-1.619 -1.383,-3.418 -1.383,-5.277 0,-0.479 0.06,-0.959 0.12,-1.439 0,-0.18 0.06,-0.299 0.06,-0.479 0.06,-0.18 0.06,-0.3 0.121,-0.48 0.06,-0.18 0.06,-0.36 0.12,-0.54 0.06,-0.119 0.06,-0.299 0.12,-0.419 1.504,-4.437 5.835,-7.735 10.707,-7.735 6.075,0 11.248,5.217 11.248,11.332 0,0.48 -0.06,0.959 -0.12,1.439 0,0.18 -0.06,0.3 -0.06,0.48 -0.061,0.18 -0.061,0.3 -0.121,0.479 -0.06,0.18 -0.06,0.36 -0.12,0.54 -0.06,0.12 -0.06,0.3 -0.12,0.42 -0.181,0.599 -0.482,1.139 -0.782,1.739 l 3.549,5.815 c 0.3,-0.359 0.601,-0.779 0.902,-1.139 v 0 c 1.323,-1.858 2.346,-4.017 2.827,-6.235 0.06,-0.18 0.06,-0.36 0.12,-0.54 0,-0.12 0.06,-0.3 0.06,-0.42 0.061,-0.359 0.121,-0.719 0.121,-1.079 0,-0.06 0,-0.18 0,-0.24 0.06,-0.359 0.06,-0.779 0.06,-1.139 0,0 0,0 0,0 0,0 0,0 0,0 0,-0.42 0,-0.839 -0.06,-1.199 0,-0.06 0,-0.12 0,-0.18 -0.06,-0.779 -0.181,-1.619 -0.361,-2.398 0,-0.12 -0.06,-0.18 -0.06,-0.3 -0.061,-0.36 -0.181,-0.66 -0.301,-1.019 -0.06,-0.12 -0.12,-0.3 -0.181,-0.42 -0.06,-0.18 -0.12,-0.36 -0.24,-0.6 -0.06,-0.179 -0.181,-0.359 -0.241,-0.539 -0.06,-0.12 -0.06,-0.18 -0.12,-0.3 -0.181,-0.42 -0.361,-0.779 -0.602,-1.139 -0.06,-0.06 -0.06,-0.18 -0.12,-0.24 -0.301,-0.54 -0.601,-1.079 -0.962,-1.559 v 0 c -3.309,-4.617 -8.662,-7.79400005 -14.316,-7.67400005 -5.895,-0.12 -11.128,3.17700005 -14.316,7.67400005 v 0 c -1.323,1.859 -2.346,4.017 -2.827,6.236 -0.06,0.18 -0.06,0.359 -0.12,0.539 0,0.12 -0.06,0.3 -0.06,0.42 -0.061,0.36 -0.121,0.719 -0.121,1.079 0,0.06 0,0.18 0,0.24 -0.06,0.36 -0.06,0.779 -0.06,1.139 0,0 0,0 0,0 0,0 0,0 0,0 -0.06,0.36 -0.06,0.78 0,1.139 z"
     style="fill:#ffffff"
     id="path24"
     inkscape:connector-curvature="0" />
</svg>
