<?xml version="1.0" encoding="UTF-8" standalone="no"?>
<svg
   xmlns:dc="http://purl.org/dc/elements/1.1/"
   xmlns:cc="http://creativecommons.org/ns#"
   xmlns:rdf="http://www.w3.org/1999/02/22-rdf-syntax-ns#"
   xmlns:svg="http://www.w3.org/2000/svg"
   xmlns="http://www.w3.org/2000/svg"
   xmlns:sodipodi="http://sodipodi.sourceforge.net/DTD/sodipodi-0.dtd"
   xmlns:inkscape="http://www.inkscape.org/namespaces/inkscape"
   version="1.1"
   id="svg14"
   sodipodi:docname="tic-80.svg"
   width="264"
   height="39"
   inkscape:version="0.92.5 (2060ec1f9f, 2020-04-08)">
  <metadata
     id="metadata20">
    <rdf:RDF>
      <cc:Work
         rdf:about="">
        <dc:format>image/svg+xml</dc:format>
        <dc:type
           rdf:resource="http://purl.org/dc/dcmitype/StillImage" />
      </cc:Work>
    </rdf:RDF>
  </metadata>
  <defs
     id="defs18" />
  <sodipodi:namedview
     pagecolor="#ffffff"
     bordercolor="#666666"
     borderopacity="1"
     objecttolerance="10"
     gridtolerance="10"
     guidetolerance="10"
     inkscape:pageopacity="0"
     inkscape:pageshadow="2"
     inkscape:window-width="640"
     inkscape:window-height="480"
     id="namedview16"
     showgrid="false"
     inkscape:zoom="2.36"
     inkscape:cx="50"
     inkscape:cy="-4.931"
     inkscape:window-x="72"
     inkscape:window-y="27"
     inkscape:window-maximized="0"
     inkscape:current-layer="svg14" />
  <path
     d="M 7.765,39 V 7.8 H 23.294 V 39 Z M 0,7.8 V 0 h 31.059 v 7.8 z"
     id="path2"
     inkscape:connector-curvature="0"
     style="fill:#ffffff" />
  <path
     d="m 46.588,39 v -7.799 h 31.059 v 7.798 z m 7.765,-7.798 V 7.8 H 69.882 V 31.201 Z M 46.588,7.8 V 0 h 31.059 v 7.8 z"
     id="path4"
     inkscape:connector-curvature="0"
     style="fill:#ffffff" />
  <path
     d="m 93.176,39 v -7.799 h 23.294 v 7.798 z M 116.47,31.202 V 23.4 h 7.763 v 7.801 z M 85.411,31.201 V 7.8 h 15.53 V 31.201 Z M 116.47,15.6 V 7.8 h 7.763 v 7.799 z M 93.176,7.8 V 0 h 23.294 v 7.8 z"
     id="path6"
     inkscape:connector-curvature="0"
     style="fill:#ffffff" />
  <path
     d="m 139.764,15.6 h 23.294 v 7.8 h -23.294 z"
     id="path8"
     inkscape:connector-curvature="0"
     style="fill:#ffffff" />
  <path
     d="m 186.353,39 v -7.799 h 23.294 v 7.798 z m 23.294,-7.798 V 23.4 h 7.764 v 7.801 z M 178.589,31.201 V 23.4 h 15.529 v 7.801 z m 7.764,-7.801 v -7.8 h 23.294 v 7.8 z m 23.294,-7.8 V 7.8 h 7.764 v 7.799 z m -31.058,0 V 7.8 h 15.529 v 7.799 z m 7.764,-7.8 V 0 h 23.294 v 7.8 z"
     id="path10"
     inkscape:connector-curvature="0"
     style="fill:#ffffff" />
  <path
     d="m 232.941,39 v -7.799 h 23.294 v 7.798 z m 23.294,-7.798 V 15.6 h -7.764 V 7.8 H 264 V 31.201 Z M 225.177,31.201 V 7.8 h 15.529 V 31.201 Z M 240.706,23.4 v -7.8 h 7.765 v 7.8 z M 232.941,7.8 V 0 h 23.294 v 7.8 z"
     id="path12"
     inkscape:connector-curvature="0"
     style="fill:#ffffff" />
</svg>
