<?xml version="1.0" encoding="UTF-8" standalone="no"?>
<svg
   xmlns:dc="http://purl.org/dc/elements/1.1/"
   xmlns:cc="http://creativecommons.org/ns#"
   xmlns:rdf="http://www.w3.org/1999/02/22-rdf-syntax-ns#"
   xmlns:svg="http://www.w3.org/2000/svg"
   xmlns="http://www.w3.org/2000/svg"
   xmlns:sodipodi="http://sodipodi.sourceforge.net/DTD/sodipodi-0.dtd"
   xmlns:inkscape="http://www.inkscape.org/namespaces/inkscape"
   version="1.1"
   id="svg10"
   sodipodi:docname="uzebox.svg"
   width="264"
   height="80.959999"
   inkscape:version="0.92.5 (2060ec1f9f, 2020-04-08)">
  <metadata
     id="metadata16">
    <rdf:RDF>
      <cc:Work
         rdf:about="">
        <dc:format>image/svg+xml</dc:format>
        <dc:type
           rdf:resource="http://purl.org/dc/dcmitype/StillImage" />
      </cc:Work>
    </rdf:RDF>
  </metadata>
  <defs
     id="defs14" />
  <sodipodi:namedview
     pagecolor="#ffffff"
     bordercolor="#666666"
     borderopacity="1"
     objecttolerance="10"
     gridtolerance="10"
     guidetolerance="10"
     inkscape:pageopacity="0"
     inkscape:pageshadow="2"
     inkscape:window-width="640"
     inkscape:window-height="480"
     id="namedview12"
     showgrid="false"
     inkscape:zoom="2.36"
     inkscape:cx="50"
     inkscape:cy="30.96"
     inkscape:window-x="72"
     inkscape:window-y="27"
     inkscape:window-maximized="0"
     inkscape:current-layer="svg10" />
  <path
     d="m 0,56.708 7.677,-36.23 11.276,0.118 -5.799,26.54 15.519,-0.09 5.468,-26.487 9.854,0.057 -2.44,10.366 L 110.469,0 70.105,53.845 96.629,41.241 l 4.667,-20.567 36.177,0.329 -2.375,9.198 -26.508,-0.39 -1.046,4.387 18.71,0.111 -2.191,9.049 -18.92,-0.271 -0.489,3.889 26.989,0.16 -1.936,9.781 -36.595,-0.37 1.575,-7.924 -69.27,32.337 31.831,-46.193 -17.861,8.021 -2.842,14.398 z"
     style="fill:#ffffff"
     id="path2"
     inkscape:connector-curvature="0" />
  <path
     d="m 225.418,24.805 1.038,-4.295 11.171,0.058 5.556,9.835 10.29,-9.952 10.527,0.138 -0.253,3.838 -15.784,14.004 8.605,13.91 0.137,4.344 -11.344,0.094 -5.754,-9.879 -10.202,9.772 -11.056,0.123 0.537,-3.642 15.427,-14.51 z"
     style="fill:#ffffff"
     id="path4"
     inkscape:connector-curvature="0" />
  <path
     d="m 189.057,46.85 3.411,-16.387 16.165,-0.01 -3.214,16.649 z m 23.247,10.299 8.339,-36.363 -36.274,-0.007 -7.934,36.282 z"
     style="fill:#ffffff"
     id="path6"
     inkscape:connector-curvature="0" />
  <path
     d="m 150.131,33.614 0.537,-3.335 16.934,0.048 -0.613,3.436 z m -2.422,13.262 0.537,-3.334 16.933,0.047 -0.613,3.437 z m 17.702,9.438 6.783,-5.101 1.569,-7.963 -4.536,-5.662 7.048,-4.533 1.861,-8.27 -4.56,-4.13 -30.336,-0.057 -7.776,35.73 z"
     style="fill:#ffffff"
     id="path8"
     inkscape:connector-curvature="0" />
</svg>
