<?xml version="1.0" encoding="UTF-8" standalone="no"?>
<svg
   xmlns:bx="https://boxy-svg.com"
   xmlns:dc="http://purl.org/dc/elements/1.1/"
   xmlns:cc="http://creativecommons.org/ns#"
   xmlns:rdf="http://www.w3.org/1999/02/22-rdf-syntax-ns#"
   xmlns:svg="http://www.w3.org/2000/svg"
   xmlns="http://www.w3.org/2000/svg"
   xmlns:sodipodi="http://sodipodi.sourceforge.net/DTD/sodipodi-0.dtd"
   xmlns:inkscape="http://www.inkscape.org/namespaces/inkscape"
   version="1.1"
   id="svg18"
   sodipodi:docname="vic20.svg"
   width="264.00024"
   height="40.999954"
   inkscape:version="0.92.5 (2060ec1f9f, 2020-04-08)">
  <metadata
     id="metadata24">
    <rdf:RDF>
      <cc:Work
         rdf:about="">
        <dc:format>image/svg+xml</dc:format>
        <dc:type
           rdf:resource="http://purl.org/dc/dcmitype/StillImage" />
      </cc:Work>
    </rdf:RDF>
  </metadata>
  <defs
     id="defs22" />
  <sodipodi:namedview
     pagecolor="#ffffff"
     bordercolor="#666666"
     borderopacity="1"
     objecttolerance="10"
     gridtolerance="10"
     guidetolerance="10"
     inkscape:pageopacity="0"
     inkscape:pageshadow="2"
     inkscape:window-width="640"
     inkscape:window-height="480"
     id="namedview20"
     showgrid="false"
     inkscape:zoom="2.36"
     inkscape:cx="50"
     inkscape:cy="-9.0000439"
     inkscape:window-x="72"
     inkscape:window-y="27"
     inkscape:window-maximized="0"
     inkscape:current-layer="svg18" />
  <g
     transform="scale(0.439555,0.43892)"
     id="g16">
    <path
       id="path1922"
       d="m 60.855,26.64 h 38.94 L 82.746,44.415 H 60.855 Z"
       style="fill:#ffffff;fill-opacity:1"
       bx:origin="-1.563 -1.499"
       inkscape:connector-curvature="0" />
    <path
       id="path3805"
       d="M 60.819,66.777 H 99.756 L 82.71,49.002 H 60.819 Z"
       style="fill:#ffffff;fill-opacity:1"
       bx:origin="-1.562 -2.757"
       inkscape:connector-curvature="0" />
    <path
       id="path4382"
       d="m 60.009,1.833 v 22.395 c -3.981,-2.463 -8.406,-3.681 -13.284,-3.681 -4.653,0 -8.973,1.167 -12.951,3.519 -3.984,2.331 -7.116,5.523 -9.405,9.57 -2.289,4.023 -3.435,8.361 -3.435,12.969 0,4.662 1.149,8.967 3.435,12.945 2.289,3.966 5.433,7.116 9.435,9.441 3.996,2.319 8.301,3.492 12.921,3.492 4.833,0 9.264,-1.179 13.281,-3.516 v 22.494 c -4.314,1.302 -8.742,1.95 -13.281,1.95 -8.331,0 -16.107,-2.1 -23.31,-6.303 C 16.218,82.905 10.506,77.187 6.303,69.99 2.1,62.793 0,54.993 0,46.608 0,40.395 1.215,34.41 3.654,28.659 6.093,22.917 9.477,17.892 13.818,13.587 18.147,9.285 23.121,5.949 28.713,3.573 34.32,1.191 40.32,0 46.725,0 51.15,0 55.578,0.624 60.009,1.833"
       style="fill:#ffffff;fill-opacity:1"
       bx:origin="0 0"
       inkscape:connector-curvature="0" />
    <path
       id="path4340"
       d="m 163.659,50.055 c -0.198,5.556 -0.891,7.947 -3.066,10.125 -3.165,3.216 -7.224,4.065 -20.292,4.065 -10.173,0 -14.454,-0.705 -17.748,-3.093 -3.231,-2.241 -4.284,-5.829 -4.284,-14.601 0,-7.998 0.984,-11.511 3.927,-13.89 3.156,-2.595 7.512,-3.363 18.732,-3.363 11.01,0 15.855,0.837 19.023,3.432 2.67,2.103 3.561,4.707 3.759,10.944 h -12.609 c -0.423,-3.78 -2.871,-5.052 -10.173,-5.052 -8.631,0 -10.239,1.332 -10.239,8.277 0,4.356 0.702,6.039 2.949,6.954 1.47,0.636 4.137,0.981 7.431,0.981 7.296,0 9.402,-0.981 9.963,-4.776 z"
       style="fill:#ffffff;fill-opacity:1"
       bx:origin="-2.603 -0.838"
       inkscape:connector-curvature="0" />
    <path
       id="path4342"
       d="m 208.971,32.379 c 3.363,2.454 4.302,5.466 4.302,13.821 0,9.123 -0.843,12.219 -3.858,14.739 -3.165,2.601 -7.32,3.309 -19.587,3.309 -12.417,0 -16.572,-0.708 -19.689,-3.309 -3.117,-2.52 -3.909,-5.613 -3.909,-15.234 0,-7.779 0.99,-10.938 4.305,-13.326 3.066,-2.244 7.911,-3.021 19.242,-3.021 11.328,0 16.125,0.774 19.194,3.021 m -30.324,14.667 c 0,4.419 0.594,5.892 2.817,6.807 1.536,0.699 4.353,1.05 8.361,1.05 9.399,0 11.031,-1.197 11.031,-8.217 0,-4.488 -0.744,-6.099 -3.018,-7.005 -1.581,-0.633 -4.503,-0.99 -8.013,-0.99 -9.495,0 -11.178,1.263 -11.178,8.355"
       style="fill:#ffffff;fill-opacity:1"
       bx:origin="-3.534 -0.841"
       inkscape:connector-curvature="0" />
    <path
       id="path4344"
       d="m 227.469,30.207 v 4.977 h 0.645 c 1.83,-3.993 6.036,-5.826 13.404,-5.826 8.016,0 12.417,2.037 15.09,6.954 2.127,-4.986 6.183,-6.954 14.295,-6.954 6.873,0 10.98,1.269 13.848,4.281 2.868,2.946 3.513,5.685 3.513,14.235 V 63.396 H 275.847 V 47.874 c -0.099,-5.532 -0.249,-6.159 -1.437,-7.359 -1.236,-1.26 -3.363,-1.824 -6.972,-1.824 -3.759,0 -6.084,0.633 -7.371,2.109 -1.434,1.542 -1.83,3.507 -1.83,8.904 V 63.396 H 245.82 V 47.874 c 0,-5.181 -0.147,-6.096 -1.332,-7.359 -1.14,-1.26 -3.315,-1.824 -6.879,-1.824 -3.759,0 -6.183,0.633 -7.566,2.034 -1.434,1.404 -1.83,3.51 -1.83,8.979 V 63.396 H 215.796 V 30.207 Z"
       style="fill:#ffffff;fill-opacity:1"
       bx:origin="-2.978 -0.863"
       inkscape:connector-curvature="0" />
    <path
       id="path4346"
       d="m 302.856,30.207 v 4.977 h 0.594 c 1.83,-3.993 6.033,-5.826 13.404,-5.826 8.016,0 12.417,2.037 15.09,6.954 2.127,-4.986 6.183,-6.954 14.343,-6.954 6.876,0 10.932,1.269 13.8,4.281 2.868,2.946 3.513,5.685 3.513,14.235 V 63.396 H 351.186 V 47.874 c -0.051,-5.532 -0.201,-6.159 -1.386,-7.359 -1.287,-1.26 -3.366,-1.824 -7.026,-1.824 -3.708,0 -6.033,0.633 -7.371,2.109 -1.431,1.542 -1.827,3.507 -1.827,8.904 V 63.396 H 321.159 V 47.874 c 0,-5.181 -0.15,-6.096 -1.335,-7.359 -1.14,-1.26 -3.315,-1.824 -6.876,-1.824 -3.711,0 -6.186,0.633 -7.569,2.034 -1.434,1.404 -1.83,3.51 -1.83,8.979 V 63.396 H 291.135 V 30.207 Z"
       style="fill:#ffffff;fill-opacity:1"
       bx:origin="-4.018 -0.863"
       inkscape:connector-curvature="0" />
    <path
       id="path4348"
       d="m 409.014,32.379 c 3.36,2.454 4.251,5.466 4.251,13.821 0,9.123 -0.84,12.219 -3.855,14.739 -3.168,2.601 -7.272,3.309 -19.59,3.309 -12.417,0 -16.521,-0.708 -19.686,-3.309 -3.069,-2.52 -3.861,-5.613 -3.861,-15.234 0,-7.779 0.99,-10.938 4.305,-13.326 3.066,-2.244 7.914,-3.021 19.191,-3.021 11.379,0 16.128,0.774 19.245,3.021 M 378.69,47.046 c 0,4.419 0.543,5.892 2.817,6.807 1.536,0.699 4.353,1.05 8.31,1.05 9.447,0 11.031,-1.197 11.031,-8.217 0,-4.488 -0.693,-6.099 -3.018,-7.005 -1.533,-0.633 -4.5,-0.99 -8.013,-0.99 -9.447,0 -11.127,1.263 -11.127,8.355"
       style="fill:#ffffff;fill-opacity:1"
       bx:origin="-7.795 -0.841"
       inkscape:connector-curvature="0" />
    <path
       id="path4350"
       d="m 462.783,63.396 h -11.676 v -4.353 h -0.645 c -2.373,4.002 -5.685,5.202 -14.688,5.202 -8.958,0 -13.257,-0.918 -16.128,-3.51 -2.724,-2.529 -3.561,-5.904 -3.561,-14.184 0,-8.424 1.335,-12.417 4.845,-14.727 3.018,-1.974 6.432,-2.526 14.988,-2.526 8.706,0 11.574,1.119 13.95,5.334 h 0.495 V 16.59 h 12.414 V 63.396 Z M 428.499,46.413 c 0,7.29 1.386,8.418 10.737,8.418 4.551,0 7.914,-0.558 9.348,-1.542 1.386,-0.921 1.878,-2.679 1.878,-6.534 0,-6.861 -1.632,-8.133 -10.485,-8.133 -9.792,0 -11.478,1.128 -11.478,7.791"
       style="fill:#ffffff;fill-opacity:1"
       bx:origin="-8.91 -0.348"
       inkscape:connector-curvature="0" />
    <path
       id="path4352"
       d="m 507.747,32.379 c 3.363,2.454 4.302,5.466 4.302,13.821 0,9.123 -0.84,12.219 -3.858,14.739 -3.168,2.601 -7.32,3.309 -19.59,3.309 -12.414,0 -16.521,-0.708 -19.689,-3.309 -3.114,-2.52 -3.855,-5.613 -3.855,-15.234 0,-7.779 0.99,-10.938 4.254,-13.326 3.117,-2.244 7.965,-3.021 19.245,-3.021 11.376,0 16.122,0.774 19.191,3.021 m -30.276,14.667 c 0,4.419 0.546,5.892 2.823,6.807 1.482,0.699 4.299,1.05 8.307,1.05 9.396,0 11.031,-1.197 11.031,-8.217 0,-4.488 -0.693,-6.099 -3.018,-7.005 -1.533,-0.633 -4.5,-0.99 -8.013,-0.99 -9.447,0 -11.13,1.263 -11.13,8.355"
       style="fill:#ffffff;fill-opacity:1"
       bx:origin="-9.897 -0.841"
       inkscape:connector-curvature="0" />
    <path
       id="path4354"
       d="m 526.296,30.207 v 4.977 h 0.645 c 2.274,-4.215 5.787,-5.826 12.762,-5.826 9.99,0 13.356,3.372 13.356,13.335 v 2.244 h -11.676 c 0,-4.917 -1.434,-6.246 -6.528,-6.246 -2.82,0 -5.145,0.846 -6.333,2.388 -1.188,1.614 -1.533,3.438 -1.533,8.562 V 63.396 H 514.572 V 30.207 Z"
       style="fill:#ffffff;fill-opacity:1"
       bx:origin="-13.37 -0.863"
       inkscape:connector-curvature="0" />
    <path
       id="path4356"
       d="m 599.751,52.8 c -0.939,9.195 -5.49,11.445 -23.25,11.445 -9.594,0 -14.148,-0.849 -17.166,-3.093 -3.264,-2.454 -4.203,-5.763 -4.203,-14.253 0,-8.91 0.936,-12.21 4.452,-14.658 3.264,-2.244 7.371,-2.943 18.201,-2.943 11.181,0 15.138,0.699 18.156,3.147 2.919,2.457 4.059,6.177 4.059,13.686 0,0.42 0,1.959 -0.051,3.36 h -32.451 c 0,3.375 0.399,4.491 1.584,5.412 1.335,0.984 3.909,1.41 8.409,1.41 7.914,0 9.396,-0.564 9.894,-3.51 z M 587.535,42.693 c -0.102,-2.598 -0.246,-3.225 -0.993,-4.002 -1.137,-1.197 -3.657,-1.683 -8.553,-1.683 -8.361,0 -10.338,1.053 -10.488,5.685 z"
       style="fill:#ffffff;fill-opacity:1"
       bx:origin="-12.373 -0.838"
       inkscape:connector-curvature="0" />
    <path
       d="m 523.245,90.332 -9.52,-20.58 h 3.56 l 6.16,14.14 6.19,-14.14 h 3.52 l -9.49,20.58 z m 12.015,0 v -20.58 h 3.13 v 20.58 z m 17.221,0.2 c -2.133,0 -3.976,-0.477 -5.53,-1.43 -1.56,-0.953 -2.75,-2.227 -3.57,-3.82 -0.826,-1.6 -1.24,-3.36 -1.24,-5.28 0,-2.033 0.444,-3.853 1.33,-5.46 0.887,-1.607 2.134,-2.863 3.74,-3.77 1.607,-0.907 3.427,-1.36 5.46,-1.36 0.914,0 1.767,0.1 2.56,0.3 0.794,0.193 1.454,0.417 1.98,0.67 0.52,0.253 0.864,0.463 1.03,0.63 l -1.37,2.8 c -1.14,-1.007 -2.623,-1.51 -4.45,-1.51 -1.286,0 -2.453,0.317 -3.5,0.95 -1.046,0.633 -1.866,1.54 -2.46,2.72 -0.6,1.173 -0.9,2.533 -0.9,4.08 0,1.42 0.267,2.71 0.8,3.87 0.534,1.153 1.314,2.067 2.34,2.74 1.027,0.673 2.247,1.01 3.66,1.01 1.647,0 3.234,-0.467 4.76,-1.4 l 0.93,2.66 c -0.413,0.373 -1.166,0.733 -2.26,1.08 -1.086,0.347 -2.19,0.52 -3.31,0.52 z m 15.481,-0.2 6.91,-8.65 c 0.88,-1.18 1.613,-2.273 2.2,-3.28 0.586,-1.007 0.88,-1.94 0.88,-2.8 0,-1.047 -0.274,-1.843 -0.82,-2.39 -0.554,-0.553 -1.38,-0.83 -2.48,-0.83 -1.007,0 -1.82,0.28 -2.44,0.84 -0.614,0.56 -1.127,1.243 -1.54,2.05 l -2.6,-1.4 c 0.653,-1.253 1.513,-2.31 2.58,-3.17 1.06,-0.86 2.42,-1.29 4.08,-1.29 2.073,0 3.66,0.537 4.76,1.61 1.106,1.073 1.66,2.48 1.66,4.22 0,2.26 -1.12,4.76 -3.36,7.5 l -3.81,4.82 h 7.98 v 2.77 z m 25.166,0.42 c -2.573,0 -4.466,-0.99 -5.68,-2.97 -1.213,-1.98 -1.82,-4.557 -1.82,-7.73 0,-3.267 0.587,-5.857 1.76,-7.77 1.18,-1.913 3.094,-2.87 5.74,-2.87 4.987,0 7.48,3.547 7.48,10.64 0,3.233 -0.606,5.823 -1.82,7.77 -1.213,1.953 -3.1,2.93 -5.66,2.93 z m 0,-2.86 c 1.534,0 2.594,-0.73 3.18,-2.19 0.587,-1.467 0.88,-3.35 0.88,-5.65 0,-2.407 -0.29,-4.31 -0.87,-5.71 -0.573,-1.4 -1.636,-2.1 -3.19,-2.1 -1.546,0 -2.613,0.7 -3.2,2.1 -0.593,1.4 -0.89,3.303 -0.89,5.71 0,5.227 1.364,7.84 4.09,7.84 z"
       style="white-space:pre;fill:#ffffff"
       id="path14"
       inkscape:connector-curvature="0" />
  </g>
</svg>
