<svg height="116pt" viewBox="0 0 451 116" width="451pt" xmlns="http://www.w3.org/2000/svg"><g fill="#fff" transform="translate(-94.532533 -21.618238)"><path d="m 111.66 22.57 c 5.96 -.41 11.94 -.06 17.91 -.18 c 3.72 21.93 7.29 43.88 11.06 65.8 c 1.12 -1.48 1.99 -3.11 2.83 -4.77 c 11.08 -20.33 22.22 -40.62 33.25 -60.98 c 5.88 -.1 11.76 -.02 17.65 -.04 c -15.77 29.18 -31.97 58.13 -47.82 87.26 c -6.37 .05 -12.75 -.01 -19.12 .04 c -5.36 -29.02 -10.21 -58.14 -15.76 -87.13 z"/><path d="m 428.65 27.62 c 7.79 -6.14 18.77 -7.05 27.98 -3.97 c 11.61 4.13 17.22 19.06 11.93 30.02 c -2.47 5.38 -7.31 9.31 -12.76 11.42 c 6.2 3.25 10.54 9.82 10.56 16.88 c .21 14.05 -11.56 26.81 -25.26 28.86 c -7.63 1.18 -16.01 .15 -22.33 -4.57 c -6.18 -4.48 -9.49 -12 -10.27 -19.43 c 5.45 -.56 10.87 -1.41 16.34 -1.81 c .82 4.1 1.72 9.17 5.93 11.17 c 6.42 2.98 14.68 -.61 17.19 -7.17 c 1.78 -4.95 1.49 -11.51 -2.96 -14.99 c -2.83 -2.36 -6.7 -2.44 -10.19 -2.27 c 1.08 -4.66 1.95 -9.37 3 -14.04 c 3.4 .02 6.97 -.12 10 -1.87 c 5.22 -2.94 6.95 -10.09 4.81 -15.45 c -2.16 -4.92 -9.12 -6.02 -13.2 -2.89 c -3.23 2.35 -4.79 6.26 -5.64 10.03 c -5.33 -.55 -10.53 -1.99 -15.8 -2.91 c 1.89 -6.49 5.18 -12.86 10.67 -17.01 z"/><path d="m 490.3 27.21 c 6.93 -5.3 16.27 -6.12 24.61 -4.51 c 7.9 1.46 14.94 7.25 17.38 14.98 c 2.84 8.68 .27 18.33 -5.13 25.46 c -8.65 11.49 -20.84 19.68 -29.77 30.91 c 10.03 .04 20.06 0 30.09 .02 c -.99 5.26 -2.1 10.49 -3.22 15.72 c -17.72 -.13 -35.45 .27 -53.16 -.2 c 1.29 -7.93 4.94 -15.32 10.05 -21.49 c 6.59 -7.67 14.18 -14.4 21.35 -21.52 c 4.79 -4.79 10.13 -9.4 13.01 -15.67 c 1.84 -3.94 1.96 -9.08 -1.06 -12.49 c -3.1 -3.76 -9.2 -3.86 -12.8 -.76 c -3.57 2.92 -4.54 7.71 -5.58 11.97 c -5.58 -.82 -11.17 -1.65 -16.74 -2.5 c 1.2 -7.61 4.55 -15.31 10.97 -19.92 z"/><path d="m 196.31 44.16 c 4.33 -.17 8.66 -.07 12.99 -.06 c -.75 3.95 -1.59 7.88 -2.48 11.81 c -4.29 .06 -8.58 .1 -12.87 -.04 c .72 -3.92 1.61 -7.8 2.36 -11.71 z"/><path d="m 235.72 62.73 c 3.67 -2.19 8.51 -2.27 12.18 -.05 c -1.77 3.39 -3.26 6.91 -4.96 10.34 c -3.44 -1 -7.24 -.49 -10.1 1.72 c -4.28 2.85 -6.35 7.83 -7.61 12.62 c -2 7.42 -3.22 15.02 -4.99 22.49 c -4.3 -.02 -8.59 .06 -12.89 -.06 c 3.25 -15.87 6.61 -31.72 9.9 -47.59 c 4.02 -.11 8.05 -.05 12.08 -.06 c -.5 2.94 -1.19 5.83 -1.79 8.75 c 2.34 -3.07 4.74 -6.25 8.18 -8.16 z"/><path d="m 256.46 66.31 c 7.33 -5.42 17.7 -7.05 26.07 -3.15 c 5.31 2.55 8.75 8.13 9.1 13.96 c -4.04 .46 -8.09 .89 -12.13 1.34 c -.64 -2.56 -1.37 -5.49 -3.9 -6.84 c -4.57 -2.37 -10.16 .18 -12.83 4.22 c -3.15 4.74 -4.25 10.58 -4.5 16.19 c -.3 4.02 2.35 8.57 6.74 8.7 c 5.37 .18 9.03 -4.52 10.94 -9.01 c 4.12 .78 8.28 1.35 12.41 2.11 c -2.33 6.2 -6.55 11.98 -12.69 14.81 c -6.77 3.13 -15.22 3.3 -21.72 -.59 c -5.22 -3.11 -8.13 -9.12 -8.42 -15.06 c -.7 -9.84 2.67 -20.7 10.93 -26.68 z"/><path d="m 317.51 61.54 c 7.28 -1.22 15.57 -.4 21.35 4.6 c 4.82 4.1 6.88 10.61 6.69 16.79 c .07 8.23 -3.52 16.41 -9.66 21.9 c -6.46 5.72 -15.84 7.27 -24.08 5.36 c -5.23 -1.2 -10.19 -4.33 -12.77 -9.13 c -3.82 -6.76 -3.33 -15.06 -1.18 -22.27 c 2.73 -8.78 10.5 -15.82 19.65 -17.25 m 1.89 9.98 c -5.02 1.79 -7.88 6.85 -9.15 11.76 c -1.4 4.82 -1.83 10.75 1.83 14.71 c 3.6 3.94 10.26 3.66 13.98 .05 c 4.58 -4.4 6.63 -10.9 6.65 -17.14 c .03 -2.8 -.91 -5.72 -3.04 -7.62 c -2.66 -2.64 -6.87 -2.85 -10.27 -1.76 z"/><path d="m 371.26 68.15 c 4 -3.2 8.43 -6.23 13.64 -6.87 c 4.8 -.84 10.48 .26 13.44 4.46 c 2.83 3.76 2.49 8.78 1.6 13.14 c -2.04 10.32 -4.29 20.59 -6.35 30.9 c -4.32 .13 -8.63 .05 -12.95 .07 c 2.08 -11 4.69 -21.9 6.67 -32.92 c .53 -2.23 -.24 -4.93 -2.43 -5.96 c -3.08 -1.46 -6.53 .01 -9.08 1.85 c -3.49 2.37 -5.76 6.18 -6.75 10.23 c -2.32 8.85 -3.79 17.89 -5.86 26.8 c -4.29 -.02 -8.59 .06 -12.88 -.07 c 3.27 -15.87 6.57 -31.74 9.93 -47.6 c 4.08 -.06 8.17 -.1 12.26 .03 c -.39 1.99 -.8 3.97 -1.24 5.94 z"/><path d="m 182.7 109.83 c 3.34 -15.92 6.46 -31.9 10.06 -47.76 c 4.24 .13 8.48 .06 12.72 .05 c -3.06 15.93 -6.59 31.77 -9.81 47.66 c -4.33 .13 -8.65 .07 -12.97 .05 z"/><path d="m 97.39 122.44 c 149.15 .13 298.29 .08 447.43 .03 c -.7 4.79 -1.29 9.6 -2.17 14.35 c -149.16 -.14 -298.33 -.08 -447.5 -.02 c .84 -4.77 1.26 -9.61 2.24 -14.36 z"/></g></svg>