<?xml version="1.0" encoding="UTF-8" standalone="no"?>
<svg
   xmlns:dc="http://purl.org/dc/elements/1.1/"
   xmlns:cc="http://creativecommons.org/ns#"
   xmlns:rdf="http://www.w3.org/1999/02/22-rdf-syntax-ns#"
   xmlns:svg="http://www.w3.org/2000/svg"
   xmlns="http://www.w3.org/2000/svg"
   xmlns:sodipodi="http://sodipodi.sourceforge.net/DTD/sodipodi-0.dtd"
   xmlns:inkscape="http://www.inkscape.org/namespaces/inkscape"
   version="1.1"
   id="svg14"
   sodipodi:docname="virtualboy.svg"
   width="264"
   height="67.999962"
   inkscape:version="0.92.5 (2060ec1f9f, 2020-04-08)">
  <metadata
     id="metadata20">
    <rdf:RDF>
      <cc:Work
         rdf:about="">
        <dc:format>image/svg+xml</dc:format>
        <dc:type
           rdf:resource="http://purl.org/dc/dcmitype/StillImage" />
      </cc:Work>
    </rdf:RDF>
  </metadata>
  <defs
     id="defs18" />
  <sodipodi:namedview
     pagecolor="#ffffff"
     bordercolor="#666666"
     borderopacity="1"
     objecttolerance="10"
     gridtolerance="10"
     guidetolerance="10"
     inkscape:pageopacity="0"
     inkscape:pageshadow="2"
     inkscape:window-width="640"
     inkscape:window-height="480"
     id="namedview16"
     showgrid="false"
     inkscape:zoom="2.36"
     inkscape:cx="50"
     inkscape:cy="17.999965"
     inkscape:window-x="72"
     inkscape:window-y="27"
     inkscape:window-maximized="0"
     inkscape:current-layer="svg14" />
  <g
     transform="scale(0.44,0.439174)"
     id="g12">
    <path
       id="path2952"
       d="m 0,0.018 32.286,154.8 32.118,-154.8 H 47.022 L 32.286,87.024 17.385,0.018 Z"
       style="fill:#ffffff;fill-opacity:1"
       inkscape:connector-curvature="0" />
    <path
       id="path3726"
       d="m 71.523,0.018 h 17.385 v 154.8 H 71.523 Z"
       style="fill:#ffffff;fill-opacity:1"
       inkscape:connector-curvature="0" />
    <path
       id="path3728"
       d="m 104.46,0 v 154.827 h 17.391 V 74.832 l 24.183,79.992 h 16.032 l -19.347,-73.2 c 10.749,-6.447 13.914,-14.889 13.914,-14.889 V 17.553 C 149.511,1.743 137.229,0 137.229,0 Z m 17.391,15.759 h 17.391 v 53.802 h -17.391 z"
       style="fill:#ffffff;fill-opacity:1"
       inkscape:connector-curvature="0" />
    <path
       id="path3733"
       d="m 162.087,0.018 h 51.987 V 15.744 H 196.689 V 154.818 H 179.304 V 15.747 h -17.217 z"
       style="fill:#ffffff;fill-opacity:1"
       inkscape:connector-curvature="0" />
    <path
       id="path3735"
       d="m 310.26,0 -33.585,154.662 v 0.162 h 17.226 l 3.642,-20.868 h 24.291 l 3.477,20.868 h 17.391 z m 0,66.732 7.935,53.313 H 301.02 Z"
       style="fill:#ffffff;fill-opacity:1"
       inkscape:connector-curvature="0" />
    <path
       id="path2882"
       d="m 349.668,0.018 h 17.388 v 139.071 h 25.995 v 15.729 h -43.38 z"
       style="fill:#ffffff;fill-opacity:1"
       inkscape:connector-curvature="0" />
    <path
       id="path3660"
       d="m 535.599,0.018 h 15.894 L 567.717,66.741 582.453,0.018 H 600 l -24.336,91.059 v 63.741 H 558.279 V 91.08 L 535.599,0.018 Z"
       style="fill:#ffffff;fill-opacity:1"
       inkscape:connector-curvature="0" />
    <path
       id="path3662"
       d="m 504.402,0.018 c -19.761,0 -26.112,17.538 -26.112,17.538 0.162,0.246 0,116.406 0,119.718 2.619,18.816 26.112,17.544 26.112,17.544 v 0 c 26.064,0 26.055,-17.544 26.055,-17.544 V 17.553 C 523.719,-0.849 504.402,0.018 504.402,0.018 Z m -8.724,17.535 h 17.394 v 121.512 h -17.394 z"
       style="fill:#ffffff;fill-opacity:1"
       inkscape:connector-curvature="0" />
    <path
       id="path3667"
       d="m 220.86,0.018 h 17.553 v 137.253 h 17.55 V 0.018 h 17.217 v 137.253 c 0,0 -5.628,17.547 -25.332,17.547 -19.701,0 -26.988,-17.547 -26.988,-17.547 z"
       style="fill:#ffffff;fill-opacity:1"
       inkscape:connector-curvature="0" />
    <path
       id="path3669"
       d="m 412.263,0 v 154.827 h 34.944 c 16.218,-4.224 17.223,-15.762 17.223,-15.762 0,0 -0.024,-41.352 -0.024,-52.041 -1.218,-6.75 -6.765,-6.975 -6.765,-6.975 0,0 -0.024,-1.881 0,-3.369 6.129,-0.471 6.792,-7.122 6.792,-7.122 0,0 -0.027,-41.313 0,-52.008 C 461.778,4.926 447.207,0 447.207,0 Z m 17.442,17.661 h 17.499 v 51.897 h -17.499 z m -0.051,67.605 h 17.55 v 53.799 h -17.55 z"
       style="fill:#ffffff;fill-opacity:1"
       inkscape:connector-curvature="0" />
  </g>
</svg>
