<?xml version="1.0" encoding="UTF-8" standalone="no"?>
<svg
   xmlns:dc="http://purl.org/dc/elements/1.1/"
   xmlns:cc="http://creativecommons.org/ns#"
   xmlns:rdf="http://www.w3.org/1999/02/22-rdf-syntax-ns#"
   xmlns:svg="http://www.w3.org/2000/svg"
   xmlns="http://www.w3.org/2000/svg"
   xmlns:sodipodi="http://sodipodi.sourceforge.net/DTD/sodipodi-0.dtd"
   xmlns:inkscape="http://www.inkscape.org/namespaces/inkscape"
   version="1.1"
   id="svg20"
   sodipodi:docname="wonderswancolor.svg"
   width="264.00018"
   height="75.969383"
   inkscape:version="0.92.5 (2060ec1f9f, 2020-04-08)">
  <metadata
     id="metadata26">
    <rdf:RDF>
      <cc:Work
         rdf:about="">
        <dc:format>image/svg+xml</dc:format>
        <dc:type
           rdf:resource="http://purl.org/dc/dcmitype/StillImage" />
      </cc:Work>
    </rdf:RDF>
  </metadata>
  <defs
     id="defs24" />
  <sodipodi:namedview
     pagecolor="#ffffff"
     bordercolor="#666666"
     borderopacity="1"
     objecttolerance="10"
     gridtolerance="10"
     guidetolerance="10"
     inkscape:pageopacity="0"
     inkscape:pageshadow="2"
     inkscape:window-width="640"
     inkscape:window-height="480"
     id="namedview22"
     showgrid="false"
     inkscape:zoom="2.36"
     inkscape:cx="50"
     inkscape:cy="25.969385"
     inkscape:window-x="72"
     inkscape:window-y="27"
     inkscape:window-maximized="0"
     inkscape:current-layer="svg20" />
  <g
     transform="scale(0.44)"
     id="g18">
    <polygon
       points="117.379,65.471 125.566,31.152 133.809,24.611 141.993,24.611 133.809,58.93 141.993,54.03 148.561,29.54 153.49,24.611 165.018,24.611 156.805,58.93 165.018,52.418 169.918,31.152 176.519,24.611 186.405,24.611 178.191,57.318 168.336,65.471 "
       id="polygon9"
       style="fill:#ffffff;fill-opacity:1" />
    <polygon
       points="450.199,65.471 454.38,45.877 461.816,38.738 471.372,38.738 465.761,60.275 474.002,55.375 476.091,44.235 481.591,38.738 493.058,38.738 487.442,60.275 495.211,55.078 497.42,45.877 504.586,38.738 513.13,38.738 508.351,57.318 497.15,65.471 "
       id="polygon11"
       style="fill:#ffffff;fill-opacity:1" />
    <path
       d="m 386.072,65.471 8.244,-8.153 h 35.364 c 0,0 3.044,0.897 4.779,-2.957 1.582,-3.585 -1.492,-3.585 -1.492,-3.585 H 416.54 c 0,0 -4.719,-1.077 -4.749,-6.871 -0.09,-14.245 11.621,-17.922 11.621,-17.922 h 34.523 l -6.869,6.811 h -18.099 c 0,0 -5.767,1.645 -5.887,6.454 -0.087,2.18 2.6,1.733 2.6,1.733 h 14.752 c 0,0 8.543,1.432 6.571,10.633 -2.57,12.098 -11.471,13.857 -11.471,13.857 z"
       id="path13"
       style="fill:#ffffff;fill-opacity:1"
       inkscape:connector-curvature="0" />
    <path
       d="m 357.997,65.471 h 14.752 l 4.479,-16.964 c 0.541,-1.973 5.737,-4.212 4.362,-3.972 -1.345,0.237 4.719,-0.898 4.719,-0.898 0,0 1.913,0.538 2.867,1.853 0.988,1.282 -0.954,3.197 -1.224,4.689 -0.268,1.492 1.645,1.642 1.645,1.642 h 8.243 c 0,0 4.419,-1.642 5.614,-3.284 1.168,-1.672 2.627,-3.405 2.627,-4.87 0,-1.462 -3.254,-3.284 -3.254,-3.284 l -3.315,-1.612 h -24.64 c 0,0 -11.798,6.752 -13.17,8.154 -0.48,0.417 -3.705,18.546 -3.705,18.546 z"
       id="path15"
       style="fill:#ffffff;fill-opacity:1"
       inkscape:connector-curvature="0" />
    <path
       d="m 185.537,46.745 c -1.135,1.311 -4.836,12.842 -4.032,14.721 0.835,1.826 5.407,4.002 5.407,4.002 h 24.013 c 0,0 11.198,-7.019 12.065,-8.003 0.835,-1.015 4.002,-12.215 4.002,-13.383 0,-1.165 -2.687,-5.347 -2.687,-5.347 h -28.078 c 0.003,0.003 -9.522,6.695 -10.69,8.01 z m 18.727,-2.66 h 7.379 c 0,0 -0.838,8.874 -2.687,11.38 -1.882,2.51 -6.034,4.69 -6.034,4.69 0,0 -4.659,0.477 -5.317,0 -0.687,-0.538 -0.18,-5.347 -0.18,-5.347 0,0 0.628,-5.197 1.495,-6.722 0.838,-1.492 5.344,-4.001 5.344,-4.001 z"
       id="path17"
       style="fill:#ffffff;fill-opacity:1"
       inkscape:connector-curvature="0" />
    <path
       d="m 275.081,46.745 c -1.134,1.311 -4.836,12.842 -4.001,14.721 0.837,1.826 5.376,4.002 5.376,4.002 h 33.422 c 0,0 1.105,-5.313 2.48,-10.693 1.311,-5.046 2.867,-12.81 2.867,-13.383 0,-1.195 8.303,-11.675 8.303,-11.675 h -14.515 l -7.346,9.018 h -15.892 c 0.033,0.003 -9.496,6.695 -10.694,8.01 z m 18.727,-2.66 h 7.349 c 0,0 -0.807,8.874 -2.69,11.38 -1.822,2.51 -6.004,4.69 -6.004,4.69 0,0 -4.656,0.477 -5.346,0 -0.628,-0.538 -0.178,-5.347 -0.178,-5.347 0,0 0.628,-5.197 1.522,-6.722 0.838,-1.492 5.347,-4.001 5.347,-4.001 z"
       id="path19"
       style="fill:#ffffff;fill-opacity:1"
       inkscape:connector-curvature="0" />
    <path
       d="m 223.414,65.471 7.583,-26.733 h 32.079 c 0,0 4.242,0.447 5.674,2.837 1.495,2.393 1.018,6.511 1.018,6.511 l -4.362,17.385 h -13.38 c 0,0 1.552,-8.514 3.047,-14.695 1.492,-6.184 -2.69,-6.691 -2.69,-6.691 h -8.003 l -4.599,16.04 c 0,0 -4.002,4.659 -5.674,5.346 z"
       id="path21"
       style="fill:#ffffff;fill-opacity:1"
       inkscape:connector-curvature="0" />
    <path
       d="m 552.613,65.471 8.513,-26.733 h 32.08 c 0,0 4.212,0.447 5.704,2.837 1.495,2.393 1.018,6.511 1.018,6.511 l -4.513,17.385 h -14.664 c 0,0 2.449,-7.166 4.004,-13.383 1.492,-6.151 -2.182,-8.003 -2.182,-8.003 h -8.034 l -4.482,16.037 c 0,0 -3.701,4.659 -5.343,5.349 z"
       id="path23"
       style="fill:#ffffff;fill-opacity:1"
       inkscape:connector-curvature="0" />
    <path
       d="m 319.196,46.745 c -1.165,1.311 -4.809,12.842 -4.001,14.721 0.807,1.826 5.346,4.002 5.346,4.002 h 24.043 c 0,0 4.78,-2.987 8.334,-5.346 0,0 -20.429,0.15 -21.684,0 -0.567,-0.061 -0.357,-2.537 -0.297,-3.999 h 16.427 c 0,0 3.164,-0.688 7.884,-4.602 4.779,-3.912 5.376,-4.332 5.376,-7.439 0,-3.074 -2.69,-5.347 -2.69,-5.347 h -28.072 c 0.057,0.003 -9.498,6.695 -10.666,8.01 z m 18.76,-2.66 h 10.78 c 0,0 -1.195,4.091 -7.076,6.691 h -8.991 c -0.867,-2.329 1.255,-4.182 2.45,-5.199 1.252,-1.135 2.837,-1.492 2.837,-1.492 z"
       id="path25"
       style="fill:#ffffff;fill-opacity:1"
       inkscape:connector-curvature="0" />
    <path
       d="m 535.231,65.471 c 0,0 4.539,-14.365 5.974,-18.967 0.717,-2.506 -0.955,-2.419 -4.122,-2.419 -3.167,0 -5.467,0.687 -9.856,8.003 -5.136,8.544 7.587,10.873 7.587,10.873 l -0.898,2.507 h -14.695 c 0,0 -8.033,0.33 -8.033,-9.345 0,-11.888 15.202,-17.388 15.202,-17.388 h 32.107 l -8.541,26.733 h -14.725 z"
       id="path27"
       style="fill:#ffffff;fill-opacity:1"
       inkscape:connector-curvature="0" />
    <path
       d="m 76.792,24.731 c 0.744,-0.027 1.522,-0.06 2.299,-0.06 16.725,0 31.062,16.217 32.137,24.46 0.12,0.868 0.18,1.645 0.24,2.303 C 111.258,28.912 76.164,0 47.969,0 26.223,0 16.07,8.781 12.723,18.697 c -5.017,12.515 1.585,30.317 16.997,42.98 1.642,1.314 3.254,2.536 4.926,3.674 -0.717,0.06 -1.492,0.06 -2.269,0.06 C 15.65,65.411 1.312,49.194 0.237,40.951 0.15,40.083 0.06,39.309 0,38.651 0.207,61.169 35.304,90.082 63.499,90.082 85.242,90.082 95.398,81.274 98.743,71.385 103.762,58.9 97.161,41.101 81.748,28.405 80.103,27.09 78.491,25.865 76.792,24.731 Z M 45.397,62.127 C 32.974,51.941 28.849,36.976 35.808,28.462 42.827,19.951 58.66,20.936 71.382,30.855 83.985,40.65 88.824,55.582 82.373,64.483 85.002,59.137 82.075,51.103 75.144,45.637 67.708,39.783 58.359,39.185 54.238,44.235 c -4.152,5.046 -1.673,13.947 5.616,20.008 5.644,4.692 12.483,6.332 17.382,4.632 -8.271,4.392 -21.323,1.883 -31.839,-6.748 z"
       id="path29"
       style="fill:#ffffff;fill-opacity:1"
       inkscape:connector-curvature="0" />
    <path
       style="fill:#ffffff;fill-opacity:1"
       id="path9"
       d="m 330.061,82.129 c -4.756,-1.402 -10.114,5.317 -14.689,15.569 -4.074,17.087 -13.137,42.277 -13.72,59.662 -0.267,7.715 6.857,9.976 11.693,11.684 15.317,5.401 24.272,0.117 28.835,-5.401 3.278,-3.959 -0.192,-7.259 -4.257,-6.049 -5.878,1.738 -13.062,2.918 -14.548,-2.759 -1.633,-6.262 7.079,-31.986 13.095,-51.142 3.29,-10.468 6.073,-19.144 -6.403,-21.579 z"
       inkscape:connector-curvature="0" />
    <path
       style="fill:#ffffff;fill-opacity:1"
       id="path11"
       d="m 250.708,112.438 c -10.366,1.075 -30.966,6.559 -30.966,33.208 0,1.252 -3.758,30.086 33.428,26.742 37.198,-3.341 43.457,-26.742 43.457,-26.742 0,0 9.201,-30.927 -13.371,-30.086 -13.773,0.507 -20.057,6.685 -20.057,6.685 0,0 9.19,1.805 11.174,8.403 3.768,12.513 2.378,33.623 -17.859,31.71 -20.312,-1.918 -10.39,-28.75 -3.99,-42.355 2.213,-4.677 1.672,-7.925 -1.81,-7.565 z"
       inkscape:connector-curvature="0" />
    <path
       style="fill:#ffffff;fill-opacity:1"
       id="path13-9"
       d="m 374.394,112.438 c -10.369,1.075 -30.968,6.559 -30.968,33.208 0,1.252 -3.756,30.086 33.427,26.742 37.198,-3.341 43.46,-26.742 43.46,-26.742 0,0 9.199,-30.927 -13.371,-30.086 -13.776,0.507 -20.056,6.685 -20.056,6.685 0,0 9.186,1.805 11.17,8.403 3.771,12.513 2.381,33.623 -17.859,31.71 -20.311,-1.918 -10.39,-28.75 -3.989,-42.355 2.209,-4.677 1.672,-7.925 -1.811,-7.565 z"
       inkscape:connector-curvature="0" />
    <path
       style="fill:#ffffff;fill-opacity:1"
       id="path15-7"
       d="m 129.477,132.272 c -1.666,-33.016 43.938,-47.831 60.176,-49.083 16.247,-1.264 33.43,2.282 33.43,2.282 0,0 -2.506,32.59 -10.029,33.427 -7.514,0.838 -5.848,-24.652 -20.06,-23.398 -26.021,2.291 -36.462,30.657 -36.772,40.113 -0.138,4.573 1.264,25.067 20.057,23.401 18.805,-1.678 22.986,-11.708 26.745,-13.374 3.764,-1.678 10.972,-4.977 10.027,3.344 -2.078,18.379 -36.772,23.401 -36.772,23.401 0,0 -44.628,2.465 -46.799,-40.11 z"
       inkscape:connector-curvature="0" />
    <path
       style="fill:#ffffff;fill-opacity:1"
       id="path17-8"
       d="m 437.035,169.05 c -15.878,0.838 -7.103,-18.393 -3.342,-30.089 3.765,-11.705 3.074,-24.536 16.713,-23.398 15.079,1.243 3.341,20.056 3.341,20.056 0,0 22.905,-25.117 43.46,-23.4 5.02,0.414 -10.03,33.43 -10.03,33.43 0,0 -3.758,-12.119 -13.371,-10.03 -27.633,6.014 -20.891,32.596 -36.765,33.434 z"
       inkscape:connector-curvature="0" />
  </g>
</svg>
