<?xml version="1.0" encoding="UTF-8" standalone="no"?>
<svg
   xmlns:dc="http://purl.org/dc/elements/1.1/"
   xmlns:cc="http://creativecommons.org/ns#"
   xmlns:rdf="http://www.w3.org/1999/02/22-rdf-syntax-ns#"
   xmlns:svg="http://www.w3.org/2000/svg"
   xmlns="http://www.w3.org/2000/svg"
   xmlns:sodipodi="http://sodipodi.sourceforge.net/DTD/sodipodi-0.dtd"
   xmlns:inkscape="http://www.inkscape.org/namespaces/inkscape"
   id="Warstwa_1"
   data-name="Warstwa 1"
   viewBox="0 0 1168.62 370.12"
   version="1.1"
   sodipodi:docname="x1.svg"
   width="1168.62"
   height="370.12"
   inkscape:version="0.92.5 (2060ec1f9f, 2020-04-08)">
  <metadata
     id="metadata15">
    <rdf:RDF>
      <cc:Work
         rdf:about="">
        <dc:format>image/svg+xml</dc:format>
        <dc:type
           rdf:resource="http://purl.org/dc/dcmitype/StillImage" />
      </cc:Work>
    </rdf:RDF>
  </metadata>
  <defs
     id="defs13" />
  <sodipodi:namedview
     pagecolor="#ffffff"
     bordercolor="#666666"
     borderopacity="1"
     objecttolerance="10"
     gridtolerance="10"
     guidetolerance="10"
     inkscape:pageopacity="0"
     inkscape:pageshadow="2"
     inkscape:window-width="532"
     inkscape:window-height="460"
     id="namedview11"
     showgrid="false"
     inkscape:zoom="0.32773699"
     inkscape:cx="584.31"
     inkscape:cy="185.06"
     inkscape:window-x="72"
     inkscape:window-y="27"
     inkscape:window-maximized="0"
     inkscape:current-layer="Warstwa_1" />
  <title
     id="title2">Sharp_X1_logo</title>
  <path
     d="m 109.63,0.1 h 6.2 q 136.5,0 273,-0.1 c 4.19,0 6.41,1.2 8.53,4.89 q 96.69,168.5 193.56,336.91 c 1.93,3.35 3.92,4.5 7.74,4.47 28.17,-0.17 56.33,-0.12 84.49,-0.05 2.88,0 4.76,-0.46 6.37,-3.33 q 71,-126.51 142.21,-252.9 c 0.56,-1 1,-2 1.91,-3.84 h -99.07 c 1.69,-2 2.54,-3.17 3.52,-4.19 Q 775.74,42.57 813.5,3.28 a 10.46,10.46 0 0 1 6.72,-3.05 Q 992.46,0.01 1164.69,0.1 h 3.93 c -1,1.91 -1.68,3.3 -2.44,4.63 Q 1062.23,185.48 958.36,366.28 c -1.81,3.16 -3.84,3.84 -7.12,3.84 q -311.22,-0.09 -622.45,0 c -3.11,0 -5.06,-0.65 -6.77,-3.59 Q 216.99,185.24 111.76,4.1 c -0.57,-1 -1.08,-2 -2.13,-4 z m 764.92,62.14 -159.61,283.7 c 2,0.1 3.22,0.23 4.47,0.23 q 109.48,0 219,0.11 c 3.49,0 4.93,-1.52 6.44,-4.15 q 89.94,-156.51 180,-313 c 0.87,-1.51 1.66,-3.08 2.68,-5 -1.56,-0.13 -2.38,-0.26 -3.2,-0.26 q -147.21,0 -294.42,0.1 a 9.31,9.31 0 0 0 -5.9,2.7 C 813.5,37.36 803.18,48.25 792.83,59.1 a 34,34 0 0 0 -2.24,3.08 z M 150.93,23.92 c 1.3,2.36 2.18,4.08 3.15,5.76 q 90.48,155.89 180.89,311.82 c 2,3.39 4,4.79 8.09,4.78 q 108.45,-0.21 216.91,-0.1 h 5.9 c -1.24,-2.36 -2,-4 -2.91,-5.52 Q 473.21,184.66 383.55,28.57 c -2,-3.49 -4.1,-4.75 -8.12,-4.74 q -109.45,0.18 -218.92,0.09 z"
     id="path4"
     inkscape:connector-curvature="0"
     style="fill:#ffffff" />
  <path
     d="m 177.31,195.67 103.07,174 H 0 Z m -5,38.15 -114.12,112 h 180.47 z"
     id="path6"
     inkscape:connector-curvature="0"
     style="fill:#ffffff" />
  <path
     d="M 440.52,0.33 H 697.97 C 643.04,56.03 588.72,111.1 533.84,166.73 Z m 98.6,127.26 101.86,-103.31 h -159.8 z"
     id="path8"
     inkscape:connector-curvature="0"
     style="fill:#ffffff" />
</svg>
