<?xml version="1.0" encoding="UTF-8" standalone="no"?>
<svg
   xmlns:dc="http://purl.org/dc/elements/1.1/"
   xmlns:cc="http://creativecommons.org/ns#"
   xmlns:rdf="http://www.w3.org/1999/02/22-rdf-syntax-ns#"
   xmlns:svg="http://www.w3.org/2000/svg"
   xmlns="http://www.w3.org/2000/svg"
   xmlns:sodipodi="http://sodipodi.sourceforge.net/DTD/sodipodi-0.dtd"
   xmlns:inkscape="http://www.inkscape.org/namespaces/inkscape"
   version="1.1"
   id="svg20"
   sodipodi:docname="x68000.svg"
   width="263.99985"
   height="45.000103"
   inkscape:version="0.92.5 (2060ec1f9f, 2020-04-08)">
  <metadata
     id="metadata26">
    <rdf:RDF>
      <cc:Work
         rdf:about="">
        <dc:format>image/svg+xml</dc:format>
        <dc:type
           rdf:resource="http://purl.org/dc/dcmitype/StillImage" />
      </cc:Work>
    </rdf:RDF>
  </metadata>
  <defs
     id="defs24" />
  <sodipodi:namedview
     pagecolor="#ffffff"
     bordercolor="#666666"
     borderopacity="1"
     objecttolerance="10"
     gridtolerance="10"
     guidetolerance="10"
     inkscape:pageopacity="0"
     inkscape:pageshadow="2"
     inkscape:window-width="532"
     inkscape:window-height="460"
     id="namedview22"
     showgrid="false"
     inkscape:zoom="2.36"
     inkscape:cx="50"
     inkscape:cy="-4.9999611"
     inkscape:window-x="72"
     inkscape:window-y="27"
     inkscape:window-maximized="0"
     inkscape:current-layer="svg20" />
  <g
     transform="matrix(0.44,0,0,0.439467,0,4.39467e-4)"
     id="g18">
    <path
       d="m 25.334,0.029 59.108,102.367 h 80.219 L 105.553,0.029 Z M 38,6.426 h 61.219 l 50.484,87.44 H 88.481 Z"
       style="fill:#ffffff"
       id="path2"
       inkscape:connector-curvature="0" />
    <path
       d="M 46.467,54.903 0,102.396 H 73.888 Z M 43.981,68.276 61.222,95.999 H 16.888 Z"
       style="fill:#ffffff"
       id="path4"
       inkscape:connector-curvature="0" />
    <path
       d="M 141.517,47.488 187.984,-0.001 H 114.096 Z M 144.003,34.122 126.761,6.398 h 44.331 z"
       style="fill:#ffffff"
       id="path6"
       inkscape:connector-curvature="0" />
    <path
       d="m 200.725,66.682 c -0.112,-0.152 -0.351,1.157 -0.716,3.916 -0.366,2.758 -0.571,4.812 -0.607,6.149 0.38,2.86 1.344,2.881 2.909,4.323 1.302,0.81 2.413,0.583 5.542,0.938 3.133,0.363 21.773,0.369 24.927,0.015 3.144,-0.347 5.775,-0.781 7.494,-1.925 3.35,-2.124 5.621,-5.185 6.812,-13.443 0.851,-4.458 1.223,-5.603 1.123,-7.705 -0.127,-2.817 -1.546,-4.709 -4.262,-5.66 -2.715,-0.953 -6.678,-0.492 -11.083,-0.492 h -8.699 c -9.352,0 -15.016,0.042 -17.816,1.999 -3.19,2.151 -4.455,5.017 -5.624,11.885 z m 66.871,-32.904 h -13.243 c 0.444,-3.223 0.323,-5.378 0.233,-7.346 -0.091,-2.005 -0.296,-3.763 -1.196,-4.407 -1.885,-1.641 -9.57,-1.495 -17.747,-1.495 h -7.648 c -8.134,0 -12.892,-0.048 -15.363,1.801 -3.193,2.508 -5.123,6.347 -5.79,11.51 l -2.154,8.877 c 0,0 1.435,-2.176 4.658,-2.523 5.657,-0.62 15.079,-0.043 18.619,-0.043 8.627,0.15 15.756,-0.363 20.392,0.402 4.637,0.779 9.685,1.786 12.098,4.431 2.133,2.21 3.299,5.603 3.51,10.172 0.142,3.015 -0.45,7.943 -1.767,14.766 -0.737,3.293 -1.595,6.265 -2.58,8.902 -0.978,2.642 -2.332,5.096 -4.063,7.357 -1.721,2.261 -3.775,6.177 -6.162,7.486 -3.763,1.941 -8.59,1.813 -12.955,2.331 -4.362,0.519 -11.358,0 -18.287,0 -6.186,0 -12.463,0.143 -16.967,-0.396 -4.51,-0.541 -8.225,-1.859 -11.146,-3.946 -3.568,-2.625 -5.573,-6.961 -6.002,-13.003 -0.021,-3.122 0.323,-6.668 1.033,-10.656 l 7.382,-39.134 c 1.402,-8.569 3.997,-15.249 10.168,-19.231 3.434,-2.16 7.6,-3.589 12.499,-4.285 4.903,-0.705 12.989,-1.052 20.045,-1.052 h 10.85 c 7.377,0 9.431,0.995 14.602,2.978 5.171,1.984 7.896,5.941 8.171,11.88 0.085,1.733 -0.317,9.454 -1.19,14.624 z"
       style="fill:#ffffff"
       id="path8"
       inkscape:connector-curvature="0" />
    <path
       d="m 318.479,16.804 c -8.703,0 -16.629,0.4 -19.547,1.197 -2.852,0.802 -4.64,0.732 -5.927,2.792 -1.28,2.063 -2.096,4.223 -2.446,6.491 -0.354,2.261 -0.671,5.303 -0.946,9.114 0.275,2.289 1,3.866 2.175,4.718 2.251,1.438 10.14,1.566 20.386,1.566 9.177,0 16.022,-0.193 19.61,-1.764 1.52,-0.604 2.831,-1.968 3.927,-4.086 1.106,-2.127 1.773,-3.678 2.556,-7.678 0.435,-2.423 0.625,-4.471 0.592,-6.155 -0.052,-2.142 -0.707,-3.564 -1.967,-4.275 -1.383,-0.766 -3.504,-1.279 -6.352,-1.536 -2.858,-0.255 -6.875,-0.384 -12.061,-0.384 z m 22.213,31.749 c 5.456,2.261 5.456,7.58 5.598,13.699 0.021,0.863 0.223,5.516 -0.058,7.131 -0.281,1.605 -0.19,2.845 -0.287,3.363 -1.205,5.615 -1.598,8.09 -3.477,11.41 -1.878,3.326 -2.984,5.707 -6.261,7.486 -2.858,1.635 -6.483,2.771 -10.866,3.405 -4.392,0.632 -12.082,0.952 -18.857,0.952 h -8.754 c -7.579,0 -13.506,-0.277 -17.783,-0.83 -4.271,-0.555 -6.79,-2.547 -9.303,-4.87 -2.372,-2.09 -4.622,-7.166 -5.012,-12.057 0.127,-2.282 0.529,-3.448 1.197,-7.748 0.882,-3.973 1.09,-7.175 1.788,-9.307 0.698,-2.124 2.09,-4.629 3.625,-6.583 1.525,-1.947 3.784,-3.377 6.461,-4.919 1.646,-0.952 2.138,-1.315 0.456,-2.737 -1.852,-1.557 -2.344,-3.015 -2.864,-4.92 -0.269,-0.595 -0.408,-6.396 -0.438,-6.587 0.819,-13.245 4.25,-19.991 10.394,-25.088 3.61,-3.128 5.202,-4.984 13.21,-5.56 4.108,-0.336 15.375,-0.497 21.129,-0.497 7.938,0 15.656,0.17 18.942,0.513 2.888,0.423 5.392,1.049 7.531,1.867 2.142,0.824 1.921,2.224 3.552,4.208 1.432,1.828 2.19,4.727 2.284,8.694 0.06,2.737 -0.115,5.59 -0.535,8.566 -0.417,2.973 -1.184,5.838 -2.302,8.606 -1.111,2.761 -2.555,4.967 -4.328,6.624 -2.223,2.445 -1.912,4.16 -4.857,5.133 -0.632,0.214 -0.97,0.065 -0.955,-0.036 0.006,-0.08 0.26,-0.132 0.77,0.082 z m -31.094,5.907 c -5.594,0 -11.315,-0.021 -14.333,0.322 -3.018,0.341 -5.489,0.994 -7.425,1.956 -1.779,0.808 -3.208,2.273 -4.292,4.394 -1.091,2.124 -2.048,5.081 -2.885,8.871 -0.71,4.394 -0.619,5.267 -0.752,6.546 0.269,2.331 0.752,3.704 2.498,4.479 1.752,0.775 4.271,2.128 7.739,2.277 2.646,0.287 9.551,0.433 16.484,0.433 7.198,0 12.84,0.504 16.746,-0.967 1.843,-0.819 3.875,-1.047 5.044,-3.149 1.176,-2.101 1.683,-4.273 2.577,-8.326 0.71,-3.1 1.048,-5.529 1.006,-7.293 -0.048,-2.005 -0.604,-5.666 -1.683,-6.713 -0.891,-1.016 -2.884,-1.77 -5.965,-2.268 -3.084,-0.503 -8.467,-0.562 -14.759,-0.562 z"
       style="fill:#ffffff"
       id="path10"
       inkscape:connector-curvature="0" />
    <path
       d="m 385.488,95.999 c -7.892,0 -16.266,-0.506 -20.905,-1.513 -4.637,-1.011 -8.005,-2.784 -10.126,-5.319 -2.615,-2.973 -2.132,-7.218 -2.498,-13.025 0.154,-4.647 0.734,-9.304 1.471,-13.682 l 4.779,-25.366 c 1,-5.438 2.414,-10.357 4.25,-14.763 1.831,-4.401 4.413,-8.072 7.733,-10.998 1.903,-1.856 4.398,-3.321 7.488,-4.41 3.084,-1.08 6.603,-1.791 10.542,-2.123 3.933,-0.337 8.775,-0.507 14.508,-0.507 4.335,0 8.235,0.149 11.69,0.448 3.462,0.299 6.495,0.84 9.104,1.63 2.613,0.787 4.827,1.968 6.643,3.53 3.295,3.024 5.017,7.779 5.165,14.27 0.064,2.615 -0.329,7.107 -1.175,13.479 l -4.875,25.477 c -2.637,14.48 -5.794,23.986 -13.675,28.521 -3.199,1.791 -7.05,2.963 -11.56,3.518 -4.513,0.556 -12.103,0.833 -18.559,0.833 z m 14.956,-78.575 c -6.017,0 -10.322,0.116 -12.914,0.341 -2.588,0.22 -4.818,0.705 -6.69,1.453 -1.438,0.589 -2.725,1.441 -3.873,2.542 -1.139,1.111 -2.277,2.966 -3.413,5.56 -1.13,2.603 -2.124,3.976 -2.969,8.367 l -5.404,28.969 c -0.617,4.287 -1.006,5.637 -1.154,8.319 0.163,2.402 0.556,4.159 1.196,5.273 0.64,1.117 1.592,2.005 2.836,2.667 1.589,0.83 3.619,1.365 6.087,1.599 2.471,0.235 6.546,0.355 12.225,0.355 6.902,0 12.031,-0.215 15.408,-0.627 3.38,-0.417 5.938,-1.379 7.684,-2.871 3.223,-2.927 5.081,-7.305 6.981,-16.426 l 4.996,-26.708 c 0.725,-5.105 1.054,-6.839 1,-9.472 -0.085,-3.647 -0.211,-5.551 -1.779,-6.674 -1.507,-1.154 -3.619,-1.883 -6.328,-2.197 -2.716,-0.315 -7.338,-0.47 -13.889,-0.47 z"
       style="fill:#ffffff"
       id="path12"
       inkscape:connector-curvature="0" />
    <path
       d="m 467.819,95.999 c -7.893,0 -16.266,-0.506 -20.906,-1.513 -4.636,-1.011 -8.004,-2.784 -10.125,-5.319 -2.616,-2.973 -2.132,-7.218 -2.498,-13.025 0.157,-4.647 0.731,-9.304 1.471,-13.682 l 4.779,-25.366 c 1,-5.438 2.413,-10.357 4.25,-14.763 1.83,-4.401 4.413,-8.072 7.736,-10.998 1.9,-1.856 4.398,-3.321 7.485,-4.41 3.084,-1.08 6.6,-1.791 10.542,-2.123 3.933,-0.337 8.775,-0.507 14.508,-0.507 4.335,0 8.234,0.149 11.69,0.448 3.462,0.299 6.494,0.84 9.107,1.63 2.61,0.787 4.824,1.968 6.639,3.53 3.296,3.024 5.018,7.779 5.169,14.27 0.063,2.615 -0.332,7.107 -1.178,13.479 l -4.876,25.477 c -2.637,14.48 -5.79,23.986 -13.671,28.521 -3.205,1.791 -7.05,2.963 -11.563,3.518 -4.513,0.556 -12.104,0.833 -18.559,0.833 z m 14.955,-78.575 c -6.017,0 -10.324,0.116 -12.913,0.341 -2.589,0.22 -4.821,0.705 -6.694,1.453 -1.434,0.589 -2.721,1.441 -3.869,2.542 -1.139,1.111 -2.278,2.966 -3.413,5.56 -1.13,2.603 -2.124,3.976 -2.97,8.367 l -5.404,28.969 c -0.619,4.287 -1.006,5.637 -1.154,8.319 0.164,2.402 0.556,4.159 1.197,5.273 0.64,1.117 1.592,2.005 2.836,2.667 1.589,0.83 3.616,1.365 6.087,1.599 2.471,0.235 6.545,0.355 12.224,0.355 6.902,0 12.031,-0.215 15.408,-0.627 3.378,-0.417 5.939,-1.379 7.685,-2.871 3.223,-2.927 5.081,-7.305 6.981,-16.426 l 4.996,-26.708 c 0.725,-5.105 1.054,-6.839 1,-9.472 -0.085,-3.647 -0.212,-5.551 -1.779,-6.674 -1.508,-1.154 -3.619,-1.883 -6.329,-2.197 -2.715,-0.315 -7.337,-0.47 -13.889,-0.47 z"
       style="fill:#ffffff"
       id="path14"
       inkscape:connector-curvature="0" />
    <path
       d="m 550.15,95.999 c -7.893,0 -16.269,-0.506 -20.906,-1.513 -4.637,-1.011 -8.008,-2.784 -10.125,-5.319 -2.616,-2.973 -2.133,-7.218 -2.498,-13.025 0.154,-4.647 0.731,-9.304 1.471,-13.682 l 4.778,-25.366 c 1,-5.438 2.414,-10.357 4.25,-14.763 1.831,-4.401 4.411,-8.072 7.733,-10.998 1.9,-1.856 4.398,-3.321 7.488,-4.41 3.081,-1.08 6.601,-1.791 10.539,-2.123 3.936,-0.337 8.775,-0.507 14.512,-0.507 4.334,0 8.231,0.149 11.686,0.448 3.465,0.299 6.495,0.84 9.108,1.63 2.61,0.787 4.827,1.968 6.642,3.53 3.293,3.024 5.017,7.779 5.165,14.27 0.064,2.615 -0.332,7.107 -1.175,13.479 l -4.875,25.477 c -2.64,14.48 -5.793,23.986 -13.674,28.521 -3.202,1.791 -7.051,2.963 -11.563,3.518 -4.51,0.556 -12.101,0.833 -18.556,0.833 z m 14.955,-78.575 c -6.017,0 -10.325,0.116 -12.913,0.341 -2.589,0.22 -4.818,0.705 -6.691,1.453 -1.438,0.589 -2.725,1.441 -3.872,2.542 -1.139,1.111 -2.278,2.966 -3.414,5.56 -1.129,2.603 -2.123,3.976 -2.969,8.367 l -5.404,28.969 c -0.619,4.287 -1.006,5.637 -1.154,8.319 0.163,2.402 0.556,4.159 1.196,5.273 0.641,1.117 1.592,2.005 2.837,2.667 1.589,0.83 3.615,1.365 6.086,1.599 2.468,0.235 6.546,0.355 12.222,0.355 6.905,0 12.034,-0.215 15.411,-0.627 3.38,-0.417 5.939,-1.379 7.685,-2.871 3.223,-2.927 5.08,-7.305 6.98,-16.426 l 4.997,-26.708 c 0.724,-5.105 1.054,-6.839 0.999,-9.472 -0.084,-3.647 -0.211,-5.551 -1.779,-6.674 -1.507,-1.154 -3.619,-1.883 -6.328,-2.197 -2.716,-0.315 -7.34,-0.47 -13.889,-0.47 z"
       style="fill:#ffffff"
       id="path16"
       inkscape:connector-curvature="0" />
  </g>
</svg>
