<?xml version="1.0" encoding="UTF-8" standalone="no"?>
<svg
   xmlns:dc="http://purl.org/dc/elements/1.1/"
   xmlns:cc="http://creativecommons.org/ns#"
   xmlns:rdf="http://www.w3.org/1999/02/22-rdf-syntax-ns#"
   xmlns:svg="http://www.w3.org/2000/svg"
   xmlns="http://www.w3.org/2000/svg"
   xmlns:sodipodi="http://sodipodi.sourceforge.net/DTD/sodipodi-0.dtd"
   xmlns:inkscape="http://www.inkscape.org/namespaces/inkscape"
   version="1.1"
   id="svg30"
   sodipodi:docname="zx81.svg"
   width="264"
   height="82.00013"
   inkscape:version="0.92.5 (2060ec1f9f, 2020-04-08)">
  <metadata
     id="metadata36">
    <rdf:RDF>
      <cc:Work
         rdf:about="">
        <dc:format>image/svg+xml</dc:format>
        <dc:type
           rdf:resource="http://purl.org/dc/dcmitype/StillImage" />
      </cc:Work>
    </rdf:RDF>
  </metadata>
  <defs
     id="defs34" />
  <sodipodi:namedview
     pagecolor="#ffffff"
     bordercolor="#666666"
     borderopacity="1"
     objecttolerance="10"
     gridtolerance="10"
     guidetolerance="10"
     inkscape:pageopacity="0"
     inkscape:pageshadow="2"
     inkscape:window-width="640"
     inkscape:window-height="480"
     id="namedview32"
     showgrid="false"
     inkscape:zoom="2.36"
     inkscape:cx="50"
     inkscape:cy="32.000128"
     inkscape:window-x="72"
     inkscape:window-y="27"
     inkscape:window-maximized="0"
     inkscape:current-layer="svg30" />
  <path
     d="m 47.438,3.605 v 3.606 h 4.382 4.383 V 3.605 0 H 51.82 47.438 Z"
     style="fill:#ffffff"
     id="path2"
     inkscape:connector-curvature="0" />
  <path
     d="m 209.344,3.605 v 3.606 h 4.383 4.382 V 3.605 0 h -4.382 -4.383 z"
     style="fill:#ffffff"
     id="path4"
     inkscape:connector-curvature="0" />
  <path
     d="m 152.109,18.8 v 18.285 h 4.383 4.383 V 18.8 0.515 h -4.383 -4.383 z"
     style="fill:#ffffff"
     id="path6"
     inkscape:connector-curvature="0" />
  <path
     d="m 0,17.512 v 8.757 l 18.202,0.103 c 17.737,0.154 18.15,0.154 18.15,1.184 0,1.03 -0.413,1.03 -18.15,1.185 L 0,28.844 v 3.863 3.863 H 22.688 45.375 V 27.814 19.058 H 27.328 9.281 V 17.77 16.482 H 27.328 45.375 V 12.619 8.757 H 22.688 0 Z"
     style="fill:#ffffff"
     id="path8"
     inkscape:connector-curvature="0" />
  <path
     d="M 47.438,22.663 V 36.57 h 4.382 4.383 V 22.663 8.757 H 51.82 47.438 Z"
     style="fill:#ffffff"
     id="path10"
     inkscape:connector-curvature="0" />
  <path
     d="M 58.266,22.663 V 36.57 h 4.64 4.641 V 26.526 16.482 H 80.953 94.359 V 26.526 36.57 H 99 103.641 V 22.663 8.757 H 80.953 58.266 Z"
     style="fill:#ffffff"
     id="path12"
     inkscape:connector-curvature="0" />
  <path
     d="M 105.188,22.663 V 36.57 h 22.429 22.43 V 32.707 28.844 H 132 113.953 V 22.663 16.482 H 132 150.047 V 12.619 8.757 h -22.43 -22.429 z"
     style="fill:#ffffff"
     id="path14"
     inkscape:connector-curvature="0" />
  <path
     d="m 162.938,12.619 v 3.863 l 17.685,0.103 c 17.222,0.155 17.635,0.155 17.635,1.185 0,1.03 -0.413,1.03 -17.635,1.185 l -17.685,0.103 v 8.756 8.756 h 22.429 22.43 V 22.663 8.757 h -22.43 -22.429 z m 35.32,14.937 c 0,0.979 -0.413,1.03 -13.252,1.185 -12.633,0.103 -13.303,0.051 -13.303,-0.824 0,-0.515 0.155,-1.134 0.361,-1.34 0.206,-0.153 6.136,-0.257 13.252,-0.205 12.529,0.154 12.942,0.205 12.942,1.184 z"
     style="fill:#ffffff"
     id="path16"
     inkscape:connector-curvature="0" />
  <path
     d="M 209.344,22.663 V 36.57 h 4.383 4.382 V 22.663 8.757 h -4.382 -4.383 z"
     style="fill:#ffffff"
     id="path18"
     inkscape:connector-curvature="0" />
  <path
     d="M 219.656,22.663 V 36.57 h 4.641 4.641 l 0.103,-9.941 0.154,-9.889 17.428,-0.155 L 264,16.482 V 12.619 8.757 h -22.172 -22.172 z"
     style="fill:#ffffff"
     id="path20"
     inkscape:connector-curvature="0" />
  <path
     d="m 79.406,46.356 v 3.091 h 8.766 c 4.847,0 8.766,0.155 8.766,0.36 0,0.258 -4.435,5.82 -9.797,12.413 l -9.797,12.002 v 3.605 3.555 h 15.469 15.468 V 78.291 75.2 L 97.453,75.097 86.573,74.942 97.195,61.911 107.817,48.931 107.663,46.202 107.508,43.523 93.483,43.369 79.406,43.266 Z"
     style="fill:#ffffff"
     id="path22"
     inkscape:connector-curvature="0" />
  <path
     d="m 111.323,44.244 c 0.31,0.567 2.888,4.585 5.724,8.911 2.887,4.327 5.105,8.241 5.001,8.654 -0.103,0.411 -2.887,4.892 -6.187,9.941 -3.352,5.047 -6.033,9.271 -6.033,9.374 0,0.155 2.011,0.258 4.538,0.258 h 4.486 l 4.228,-6.542 4.176,-6.541 4.228,6.541 4.229,6.542 h 4.64 c 3.558,0 4.486,-0.155 4.228,-0.619 -0.206,-0.36 -3.145,-4.79 -6.497,-9.786 L 132,61.861 l 5.93,-9.17 5.878,-9.168 -3.919,-0.154 c -2.166,-0.103 -4.228,-0.052 -4.537,0.103 -0.361,0.103 -2.218,2.781 -4.125,5.923 -1.908,3.143 -3.61,5.718 -3.816,5.718 -0.155,0 -1.959,-2.627 -3.919,-5.821 l -3.609,-5.769 -4.538,-0.154 c -4.382,-0.154 -4.537,-0.103 -4.022,0.875 z"
     style="fill:#ffffff"
     id="path24"
     inkscape:connector-curvature="0" />
  <path
     d="m 153.605,44.708 c -5.93,3.091 -6.91,10.765 -1.857,14.783 l 1.805,1.442 -1.598,1.081 c -4.899,3.297 -5.878,10.714 -2.063,15.71 1.96,2.576 6.188,4.327 10.416,4.275 4.331,0 7.322,-1.184 9.539,-3.76 3.97,-4.635 3.867,-11.383 -0.206,-15.091 -1.135,-1.031 -2.321,-1.855 -2.682,-1.855 -0.309,0 0.361,-0.875 1.496,-1.957 2.372,-2.163 3.454,-5.099 2.939,-7.88 -1.031,-5.408 -4.899,-8.19 -11.499,-8.19 -2.887,0 -4.073,0.257 -6.29,1.442 z m 9.59,5.511 c 0.877,0.824 1.289,1.803 1.289,3.04 0,2.472 -0.412,3.347 -2.114,4.171 -2.062,1.082 -3.815,0.927 -5.465,-0.463 -1.135,-0.979 -1.444,-1.648 -1.444,-3.4 0,-1.751 0.309,-2.42 1.444,-3.399 1.959,-1.648 4.64,-1.648 6.29,0.051 z m -0.773,14.423 c 3.558,1.854 4.125,7.417 1.083,10.147 -4.95,4.429 -11.344,-2.37 -7.786,-8.242 1.598,-2.575 4.022,-3.296 6.703,-1.905 z"
     style="fill:#ffffff"
     id="path26"
     inkscape:connector-curvature="0" />
  <path
     d="m 178.922,62.324 v 19.058 h 3.867 3.867 V 62.324 43.266 h -3.867 -3.867 z"
     style="fill:#ffffff"
     id="path28"
     inkscape:connector-curvature="0" />
</svg>
