<?xml version="1.0" encoding="UTF-8" standalone="no"?>
<svg
   xmlns:dc="http://purl.org/dc/elements/1.1/"
   xmlns:cc="http://creativecommons.org/ns#"
   xmlns:rdf="http://www.w3.org/1999/02/22-rdf-syntax-ns#"
   xmlns:svg="http://www.w3.org/2000/svg"
   xmlns="http://www.w3.org/2000/svg"
   xmlns:sodipodi="http://sodipodi.sourceforge.net/DTD/sodipodi-0.dtd"
   xmlns:inkscape="http://www.inkscape.org/namespaces/inkscape"
   version="1.1"
   id="svg28"
   sodipodi:docname="zxspectrum.svg"
   width="264"
   height="40.962238"
   inkscape:version="0.92.5 (2060ec1f9f, 2020-04-08)">
  <metadata
     id="metadata34">
    <rdf:RDF>
      <cc:Work
         rdf:about="">
        <dc:format>image/svg+xml</dc:format>
        <dc:type
           rdf:resource="http://purl.org/dc/dcmitype/StillImage" />
      </cc:Work>
    </rdf:RDF>
  </metadata>
  <defs
     id="defs32" />
  <sodipodi:namedview
     pagecolor="#ffffff"
     bordercolor="#666666"
     borderopacity="1"
     objecttolerance="10"
     gridtolerance="10"
     guidetolerance="10"
     inkscape:pageopacity="0"
     inkscape:pageshadow="2"
     inkscape:window-width="532"
     inkscape:window-height="460"
     id="namedview30"
     showgrid="false"
     inkscape:zoom="2.36"
     inkscape:cx="50"
     inkscape:cy="-9.03776"
     inkscape:window-x="72"
     inkscape:window-y="27"
     inkscape:window-maximized="0"
     inkscape:current-layer="svg28" />
  <g
     transform="scale(0.44)"
     id="g26">
    <path
       d="M 0.6,55.395 V 47.211 H 64.698 V 37.869 H 0.6 L 0.195,12.66 H 73.02 v 8.163 H 8.922 l 0.402,8.883 H 73.422 V 55.398 H 0.6 Z"
       id="path5"
       style="fill:#ffffff;fill-opacity:1;stroke-opacity:1"
       inkscape:connector-curvature="0" />
    <path
       d="M 78.696,55.395 V 12.819 h 8.724 v 42.576 z"
       id="path7"
       style="fill:#ffffff;fill-opacity:1;stroke-opacity:1"
       inkscape:connector-curvature="0" />
    <path
       d="M 92.103,55.395 V 12.819 h 72.825 v 42.576 h -8.727 V 20.982 h -55.374 v 34.419 l -8.724,-0.006 z"
       id="path9"
       style="fill:#ffffff;fill-opacity:1;stroke-opacity:1"
       inkscape:connector-curvature="0" />
    <path
       d="M 169.584,55.395 V 12.819 h 72.876 v 8.166 h -64.095 v 26.226 h 64.095 v 8.19 h -72.876 z"
       id="path11"
       style="fill:#ffffff;fill-opacity:1;stroke-opacity:1"
       inkscape:connector-curvature="0" />
    <path
       d="M 248.268,55.395 V 0 h 8.727 v 55.398 h -8.727 z"
       id="path13"
       style="fill:#ffffff;fill-opacity:1;stroke-opacity:1"
       inkscape:connector-curvature="0" />
    <path
       d="M 339.72,55.395 V 12.819 h 8.778 v 42.576 z"
       id="path15"
       style="fill:#ffffff;fill-opacity:1;stroke-opacity:1"
       inkscape:connector-curvature="0" />
    <path
       d="M 353.769,55.395 V 12.819 h 72.822 v 8.166 h -64.095 v 34.416 h -8.727 z"
       id="path17"
       style="fill:#ffffff;fill-opacity:1;stroke-opacity:1"
       inkscape:connector-curvature="0" />
    <path
       d="m 261.651,12.819 v 8.166 h 64.095 v 9.336 h -64.095 v 25.077 h 72.876 V 12.819 Z m 64.095,34.392 h -55.32 v -9.342 h 55.32 z"
       id="path19"
       style="fill:#ffffff;fill-opacity:1;stroke-opacity:1"
       inkscape:connector-curvature="0" />
    <path
       d="M 78.696,8.19 V 0 h 8.724 v 8.19 z"
       id="path21"
       style="fill:#ffffff;fill-opacity:1;stroke-opacity:1"
       inkscape:connector-curvature="0" />
    <path
       d="M 339.72,8.19 V 0 h 8.778 v 8.19 z"
       id="path23"
       style="fill:#ffffff;fill-opacity:1;stroke-opacity:1"
       inkscape:connector-curvature="0" />
    <path
       d="M 0,84.9 10.254,72.639 h -9.45 v -3.531 h 15.045 v 3.318 L 5.595,84.687 h 10.521 v 3.534 H 0 Z"
       id="path27"
       style="fill:#ffffff;fill-opacity:1;stroke-opacity:1"
       inkscape:connector-curvature="0" />
    <path
       d="m 23.268,78.207 -6.159,-9.102 h 4.872 l 3.75,6.105 3.882,-6.105 h 4.605 l -6.132,9.129 6.666,9.987 h -5.004 l -4.179,-6.612 -4.257,6.612 h -4.74 z"
       id="path29"
       style="fill:#ffffff;fill-opacity:1;stroke-opacity:1"
       inkscape:connector-curvature="0" />
    <path
       d="m 46.749,81.879 c 0,2.541 1.98,3.531 4.23,3.531 1.473,0 3.723,-0.426 3.723,-2.382 0,-2.061 -2.865,-2.409 -5.676,-3.159 -2.838,-0.75 -5.703,-1.845 -5.703,-5.436 0,-3.909 3.696,-5.781 7.149,-5.781 3.99,0 7.656,1.737 7.656,6.156 H 54.06 c -0.135,-2.304 -1.767,-2.889 -3.774,-2.889 -1.341,0 -2.892,0.561 -2.892,2.169 0,1.473 0.912,1.659 5.703,2.889 1.392,0.348 5.676,1.233 5.676,5.568 0,3.507 -2.757,6.132 -7.953,6.132 -4.23,0 -8.19,-2.088 -8.136,-6.798 z"
       id="path31"
       style="fill:#ffffff;fill-opacity:1;stroke-opacity:1"
       inkscape:connector-curvature="0" />
    <path
       d="m 60.858,74.382 h 3.615 v 1.767 h 0.054 c 0.909,-1.473 2.409,-2.142 4.122,-2.142 4.338,0 6.291,3.507 6.291,7.44 0,3.696 -2.034,7.149 -6.075,7.149 -1.662,0 -3.24,-0.723 -4.152,-2.088 h -0.054 v 6.588 h -3.801 z m 10.281,6.957 c 0,-2.193 -0.885,-4.47 -3.321,-4.47 -2.49,0 -3.291,2.223 -3.291,4.47 0,2.25 0.855,4.392 3.321,4.392 2.487,0 3.291,-2.142 3.291,-4.392 z"
       id="path33"
       style="fill:#ffffff;fill-opacity:1;stroke-opacity:1"
       inkscape:connector-curvature="0" />
    <path
       d="m 80.352,82.224 c 0.105,2.409 1.284,3.507 3.399,3.507 1.524,0 2.757,-0.936 2.997,-1.794 h 3.345 c -1.071,3.264 -3.345,4.656 -6.477,4.656 -4.365,0 -7.068,-2.997 -7.068,-7.281 0,-4.152 2.865,-7.311 7.068,-7.311 4.71,0 6.987,3.966 6.72,8.22 z m 6.183,-2.409 c -0.348,-1.929 -1.179,-2.943 -3.027,-2.943 -2.409,0 -3.105,1.872 -3.159,2.943 z"
       id="path35"
       style="fill:#ffffff;fill-opacity:1;stroke-opacity:1"
       inkscape:connector-curvature="0" />
    <path
       d="m 102.009,79.251 c -0.243,-1.551 -1.23,-2.379 -2.811,-2.379 -2.436,0 -3.24,2.46 -3.24,4.494 0,1.983 0.774,4.365 3.159,4.365 1.767,0 2.784,-1.125 3.024,-2.808 h 3.666 c -0.483,3.666 -3.024,5.673 -6.666,5.673 -4.176,0 -6.99,-2.943 -6.99,-7.095 0,-4.308 2.571,-7.497 7.068,-7.497 3.27,0 6.267,1.713 6.507,5.25 z"
       id="path37"
       style="fill:#ffffff;fill-opacity:1;stroke-opacity:1"
       inkscape:connector-curvature="0" />
    <path
       d="m 112.773,74.382 h 2.784 v 2.541 h -2.784 v 6.855 c 0,1.287 0.321,1.608 1.605,1.608 0.405,0 0.777,-0.027 1.179,-0.111 v 2.973 c -0.642,0.108 -1.473,0.135 -2.22,0.135 -2.331,0 -4.365,-0.537 -4.365,-3.294 v -8.163 h -2.304 v -2.544 h 2.304 V 70.23 h 3.801 z"
       id="path39"
       style="fill:#ffffff;fill-opacity:1;stroke-opacity:1"
       inkscape:connector-curvature="0" />
    <path
       d="m 117.378,74.382 h 3.615 v 2.571 h 0.054 c 0.696,-1.743 2.571,-2.946 4.419,-2.946 0.267,0 0.588,0.054 0.828,0.138 v 3.531 c -0.348,-0.081 -0.909,-0.135 -1.365,-0.135 -2.781,0 -3.747,2.007 -3.747,4.443 v 6.24 h -3.801 z"
       id="path41"
       style="fill:#ffffff;fill-opacity:1;stroke-opacity:1"
       inkscape:connector-curvature="0" />
    <path
       d="m 140.778,88.221 h -3.615 v -1.929 h -0.081 c -0.963,1.554 -2.625,2.304 -4.23,2.304 -4.044,0 -5.061,-2.274 -5.061,-5.7 v -8.514 h 3.804 V 82.2 c 0,2.274 0.669,3.399 2.436,3.399 2.061,0 2.943,-1.152 2.943,-3.963 v -7.254 h 3.801 z"
       id="path43"
       style="fill:#ffffff;fill-opacity:1;stroke-opacity:1"
       inkscape:connector-curvature="0" />
    <path
       d="m 143.778,74.382 h 3.588 v 1.872 h 0.054 c 0.99,-1.422 2.436,-2.25 4.23,-2.25 1.74,0 3.291,0.642 4.041,2.304 0.804,-1.206 2.25,-2.304 4.176,-2.304 2.946,0 5.061,1.365 5.061,4.953 v 9.264 h -3.801 v -7.845 c 0,-1.845 -0.159,-3.372 -2.328,-3.372 -2.142,0 -2.544,1.767 -2.544,3.507 v 7.71 h -3.804 v -7.764 c 0,-1.608 0.108,-3.453 -2.304,-3.453 -0.747,0 -2.568,0.48 -2.568,3.186 v 8.031 h -3.801 z"
       id="path45"
       style="fill:#ffffff;fill-opacity:1;stroke-opacity:1"
       inkscape:connector-curvature="0" />
    <polygon
       points="427.632,65.919 491.244,2.301 455.04,2.301 391.431,65.919 "
       id="polygon49"
       style="fill:#cccccc;fill-opacity:1;stroke-opacity:1" />
    <polygon
       points="463.917,65.919 527.529,2.301 491.325,2.301 427.713,65.919 "
       id="polygon51"
       style="fill:#dddddd;fill-opacity:1;stroke-opacity:1" />
    <polygon
       points="500.175,65.919 563.784,2.301 527.58,2.301 463.971,65.919 "
       id="polygon53"
       style="fill:#eeeeee;fill-opacity:1;stroke-opacity:1" />
    <polygon
       points="536.391,65.919 600,2.301 563.799,2.301 500.187,65.919 "
       id="polygon55"
       style="fill:#ffffff;fill-opacity:1;stroke-opacity:1" />
  </g>
</svg>
